<?xml version="1.0" encoding="UTF-8" standalone="no"?>
<!-- Created with Inkscape (http://www.inkscape.org/) -->

<svg
   width="45.965763mm"
   height="37.587898mm"
   viewBox="0 0 45.965763 37.587898"
   version="1.1"
   id="svg1"
   inkscape:version="1.3.2 (091e20e, 2023-11-25)"
   sodipodi:docname="fig-3-10.svg"
   xmlns:inkscape="http://www.inkscape.org/namespaces/inkscape"
   xmlns:sodipodi="http://sodipodi.sourceforge.net/DTD/sodipodi-0.dtd"
   xmlns="http://www.w3.org/2000/svg"
   xmlns:svg="http://www.w3.org/2000/svg">
  <sodipodi:namedview
     id="namedview1"
     pagecolor="#ffffff"
     bordercolor="#000000"
     borderopacity="0.25"
     inkscape:showpageshadow="2"
     inkscape:pageopacity="0.0"
     inkscape:pagecheckerboard="0"
     inkscape:deskcolor="#d1d1d1"
     inkscape:document-units="mm"
     inkscape:zoom="0.2102413"
     inkscape:cx="87.994128"
     inkscape:cy="71.34659"
     inkscape:window-width="1312"
     inkscape:window-height="449"
     inkscape:window-x="0"
     inkscape:window-y="38"
     inkscape:window-maximized="0"
     inkscape:current-layer="layer1" />
  <defs
     id="defs1" />
  <g
     inkscape:label="Layer 1"
     inkscape:groupmode="layer"
     id="layer1"
     transform="translate(-82.020877,-129.59439)">
    <g
       fill="#231f20"
       fill-opacity="1"
       id="g273"
       transform="matrix(0.35277777,0,0,0.35277777,11.917275,106.94817)">
      <g
         id="use273"
         transform="translate(235.0285,69.615898)">
        <path
           d="M 0.28125,-3.171875 H 1 L 0.296875,0.1875 c -0.0625,0.328125 -0.265625,1.296875 -0.78125,1.296875 -0.09375,0 -0.15625,-0.0625 -0.15625,-0.125 0,-0.09375 0.078125,-0.09375 0.078125,-0.21875 0,-0.203125 -0.21875,-0.3125 -0.328125,-0.296875 -0.28125,0.015625 -0.28125,0.3125 -0.28125,0.34375 0.046875,0.359375 0.375,0.46875 0.625,0.46875 0.9375,0 1.375,-1.28125 1.609375,-2.265625 l 0.5625,-2.5625 H 2.5 l 0.046875,-0.25 H 1.6875 C 1.765625,-3.828125 2,-5.25 2.65625,-5.25 c 0.109375,0 0.1875,0.03125 0.1875,0.09375 0,0.09375 -0.078125,0.09375 -0.078125,0.265625 0,0.09375 0.046875,0.3125 0.296875,0.3125 0.1875,0 0.328125,-0.171875 0.328125,-0.328125 0,-0.15625 -0.125,-0.515625 -0.703125,-0.515625 -1,0 -1.40625,1.3125 -1.609375,2 H 0.34375 Z m 0,0"
           id="path5" />
      </g>
    </g>
    <g
       fill="#231f20"
       fill-opacity="1"
       id="g274"
       transform="matrix(0.35277777,0,0,0.35277777,11.917275,106.94817)">
      <g
         id="use274"
         transform="translate(238.4525,69.615898)">
        <path
           d="m 2.359375,-5.40625 c -1.234375,0.734375 -1.96875,1.9375 -1.96875,3.3125 0,1.109375 0.25,1.671875 0.65625,2.25 C 1.34375,0.609375 1.875,1.171875 2.34375,1.421875 L 2.4375,1.28125 c -1.359375,-0.859375 -1.359375,-2.625 -1.359375,-3.4375 0,-2.03125 0.765625,-2.65625 1.359375,-3.125 z m 0,0"
           id="path7" />
      </g>
    </g>
    <g
       fill="#231f20"
       fill-opacity="1"
       id="g275"
       transform="matrix(0.35277777,0,0,0.35277777,11.917275,106.94817)">
      <g
         id="use275"
         transform="translate(241.1165,69.615898)">
        <path
           d="m 3.21875,-0.890625 c -0.21875,0.25 -0.375,0.53125 -0.546875,0.53125 -0.15625,0 -0.21875,-0.1875 -0.25,-0.328125 -0.046875,-0.1875 -0.3125,-1.28125 -0.3125,-1.421875 0,0 0.53125,-0.96875 0.765625,-0.96875 0.1875,0 0.234375,0.140625 0.421875,0.140625 0.203125,0 0.28125,-0.15625 0.28125,-0.296875 0,-0.203125 -0.171875,-0.296875 -0.328125,-0.296875 -0.421875,0 -0.796875,0.484375 -1.203125,1.140625 l -0.09375,-0.4375 C 1.8125,-3.53125 1.6875,-3.53125 1.515625,-3.53125 c -0.265625,0 -0.78125,0.1875 -1,0.265625 l 0.03125,0.125 c 0.25,-0.0625 0.359375,-0.09375 0.4375,-0.09375 0.21875,0 0.25,0.109375 0.3125,0.359375 0.015625,0.046875 0.28125,1.109375 0.28125,1.171875 -0.71875,1.0625 -0.921875,1.328125 -1.0625,1.328125 -0.140625,0 -0.28125,-0.15625 -0.453125,-0.15625 -0.1875,0 -0.28125,0.140625 -0.28125,0.28125 0,0.1875 0.125,0.34375 0.390625,0.34375 0.25,0 0.34375,-0.09375 0.484375,-0.25 0.265625,-0.296875 0.609375,-0.71875 0.984375,-1.25 l 0.25,0.953125 c 0.09375,0.421875 0.21875,0.546875 0.453125,0.546875 0.1875,0 0.421875,0 0.984375,-0.921875 z m 0,0"
           id="path3" />
      </g>
    </g>
    <g
       fill="#231f20"
       fill-opacity="1"
       id="g276"
       transform="matrix(0.35277777,0,0,0.35277777,11.917275,106.94817)">
      <g
         id="use276"
         transform="translate(244.6685,69.615898)">
        <path
           d="M 0.65625,1.125 C 0.90625,1.046875 1.5625,0.515625 1.5625,-0.046875 1.5625,-0.71875 1.09375,-0.8125 0.90625,-0.8125 c -0.1875,0 -0.453125,0.109375 -0.453125,0.453125 0,0.328125 0.28125,0.40625 0.484375,0.40625 0.0625,0 0.109375,0 0.125,-0.015625 0.03125,0 0.0625,-0.015625 0.078125,-0.015625 C 1.1875,0.015625 1.25,0.0625 1.25,0.125 1.25,0.28125 1.125,0.640625 0.59375,0.96875 Z m 0,0"
           id="path6" />
      </g>
    </g>
    <g
       fill="#231f20"
       fill-opacity="1"
       id="g278"
       transform="matrix(0.35277777,0,0,0.35277777,11.917275,106.94817)">
      <g
         id="use277"
         transform="translate(246.6685,69.615898)" />
      <g
         id="use278"
         transform="translate(248.6685,69.615898)">
        <path
           d="m 0.125,-3.203125 c 0.09375,-0.015625 0.140625,-0.03125 0.265625,-0.03125 0.453125,0 0.5625,0.34375 0.78125,1.078125 0.125,0.421875 0.46875,1.828125 0.46875,2.125 0,0.21875 -0.34375,0.609375 -0.53125,0.84375 -0.28125,0.328125 -0.375,0.390625 -0.515625,0.390625 -0.140625,0 -0.234375,-0.21875 -0.484375,-0.21875 -0.171875,0 -0.296875,0.140625 -0.296875,0.296875 0,0.34375 0.34375,0.359375 0.40625,0.359375 0.953125,0 3.1875,-3.71875 3.1875,-4.671875 0,-0.28125 -0.15625,-0.5 -0.453125,-0.5 -0.203125,0 -0.296875,0.171875 -0.296875,0.28125 0,0.375 0.4375,0.28125 0.4375,0.609375 0,0.421875 -0.640625,1.5 -0.984375,2.0625 L 1.953125,-1.5 C 1.84375,-2.109375 1.375,-3.53125 1.265625,-3.53125 1.125,-3.53125 0.5,-3.40625 0.125,-3.34375 Z m 0,0"
           id="path8" />
      </g>
    </g>
    <g
       fill="#231f20"
       fill-opacity="1"
       id="g279"
       transform="matrix(0.35277777,0,0,0.35277777,11.917275,106.94817)">
      <g
         id="use279"
         transform="translate(252.2205,69.615898)">
        <path
           d="m 0.296875,1.421875 c 1.25,-0.734375 1.984375,-1.9375 1.984375,-3.3125 0,-1.109375 -0.265625,-1.6875 -0.65625,-2.265625 -0.3125,-0.4375 -0.828125,-1 -1.296875,-1.25 l -0.09375,0.125 c 1.359375,0.875 1.359375,2.625 1.359375,3.4375 0,2.03125 -0.765625,2.65625 -1.359375,3.125 z m 0,0"
           id="path14" />
      </g>
    </g>
    <path
       fill="none"
       stroke-width="0.176389"
       stroke-linecap="butt"
       stroke-linejoin="miter"
       stroke="#231f20"
       stroke-opacity="1"
       stroke-miterlimit="10"
       d="m 106.88202,150.69812 -23.033911,9.61733 m 19.273241,-4.84518 -0.001,-24.16528 m -2.80017,19.80517 25.9898,10.7418"
       id="path279" />
    <g
       fill="#231f20"
       fill-opacity="1"
       id="g280"
       transform="matrix(0.35277777,0,0,0.35277777,11.917275,106.94817)">
      <g
         id="use280"
         transform="translate(202.4055,158.23399)">
        <path
           d="m 3.21875,-0.890625 c -0.21875,0.25 -0.375,0.53125 -0.546875,0.53125 -0.15625,0 -0.21875,-0.1875 -0.25,-0.328125 -0.046875,-0.1875 -0.3125,-1.28125 -0.3125,-1.421875 0,0 0.53125,-0.96875 0.765625,-0.96875 0.1875,0 0.234375,0.140625 0.421875,0.140625 0.203125,0 0.28125,-0.15625 0.28125,-0.296875 0,-0.203125 -0.171875,-0.296875 -0.328125,-0.296875 -0.421875,0 -0.796875,0.484375 -1.203125,1.140625 l -0.09375,-0.4375 C 1.8125,-3.53125 1.6875,-3.53125 1.515625,-3.53125 c -0.265625,0 -0.78125,0.1875 -1,0.265625 l 0.03125,0.125 c 0.25,-0.0625 0.359375,-0.09375 0.4375,-0.09375 0.21875,0 0.25,0.109375 0.3125,0.359375 0.015625,0.046875 0.28125,1.109375 0.28125,1.171875 -0.71875,1.0625 -0.921875,1.328125 -1.0625,1.328125 -0.140625,0 -0.28125,-0.15625 -0.453125,-0.15625 -0.1875,0 -0.28125,0.140625 -0.28125,0.28125 0,0.1875 0.125,0.34375 0.390625,0.34375 0.25,0 0.34375,-0.09375 0.484375,-0.25 0.265625,-0.296875 0.609375,-0.71875 0.984375,-1.25 l 0.25,0.953125 c 0.09375,0.421875 0.21875,0.546875 0.453125,0.546875 0.1875,0 0.421875,0 0.984375,-0.921875 z m 0,0"
           id="path4" />
      </g>
    </g>
    <g
       fill="#231f20"
       fill-opacity="1"
       id="g281"
       transform="matrix(0.35277777,0,0,0.35277777,11.917275,106.94817)">
      <g
         id="use281"
         transform="translate(322.75751,162.202)">
        <path
           d="m 0.125,-3.203125 c 0.09375,-0.015625 0.140625,-0.03125 0.265625,-0.03125 0.453125,0 0.5625,0.34375 0.78125,1.078125 0.125,0.421875 0.46875,1.828125 0.46875,2.125 0,0.21875 -0.34375,0.609375 -0.53125,0.84375 -0.28125,0.328125 -0.375,0.390625 -0.515625,0.390625 -0.140625,0 -0.234375,-0.21875 -0.484375,-0.21875 -0.171875,0 -0.296875,0.140625 -0.296875,0.296875 0,0.34375 0.34375,0.359375 0.40625,0.359375 0.953125,0 3.1875,-3.71875 3.1875,-4.671875 0,-0.28125 -0.15625,-0.5 -0.453125,-0.5 -0.203125,0 -0.296875,0.171875 -0.296875,0.28125 0,0.375 0.4375,0.28125 0.4375,0.609375 0,0.421875 -0.640625,1.5 -0.984375,2.0625 L 1.953125,-1.5 C 1.84375,-2.109375 1.375,-3.53125 1.265625,-3.53125 1.125,-3.53125 0.5,-3.40625 0.125,-3.34375 Z m 0,0"
           id="path9" />
      </g>
    </g>
    <path
       fill-rule="nonzero"
       fill="#231f20"
       fill-opacity="1"
       d="m 83.848112,160.31545 1.112075,0.10336 -0.0096,0.0579 -1.620573,0.26183 c -0.436838,0.0868 -0.8723,0.17363 -1.309137,0.26045 0.31557,-0.1943 0.63114,-0.38861 0.94671,-0.58291 l 0.638034,-0.62838 0.03168,-0.001 0.210841,0.52917"
       id="path281"
       style="stroke-width:0.352778" />
    <path
       fill-rule="nonzero"
       fill="#231f20"
       fill-opacity="1"
       d="m 103.0745,131.83554 0.61047,0.0386 0.0152,-0.0303 -0.35553,-0.7469 c -0.0689,-0.32935 -0.17639,-1.12172 -0.24529,-1.45107 -0.0868,0.4203 -0.17501,1.13412 -0.26183,1.55442 l -0.46716,0.89711 0.0179,0.04 0.68626,-0.30179"
       id="path282"
       style="stroke-width:0.352778" />
    <path
       fill-rule="nonzero"
       fill="#231f20"
       fill-opacity="1"
       d="m 126.24483,161.81062 0.55398,-0.32797 0.0413,0.001 0.14056,0.38172 c 0.23565,0.17915 0.77033,0.46854 1.00597,0.6463 -0.45751,-0.10059 -1.25677,-0.28801 -1.71428,-0.38998 l -1.06935,-0.0262 -0.0345,-0.0372 1.07625,-0.24804"
       id="path283"
       style="stroke-width:0.352778" />
    <path
       fill="none"
       stroke-width="0.176389"
       stroke-linecap="butt"
       stroke-linejoin="miter"
       stroke="#231f20"
       stroke-opacity="1"
       stroke-miterlimit="10"
       d="m 97.151692,154.18318 1.393197,0.57602"
       id="path284" />
    <path
       fill="none"
       stroke-width="0.176389"
       stroke-linecap="butt"
       stroke-linejoin="miter"
       stroke="#bcbec0"
       stroke-opacity="1"
       stroke-miterlimit="10"
       d="m 98.544888,154.7592 19.242922,7.95266 m -24.502893,-5.75607 19.222253,7.94439 m -24.480847,-5.74779 19.229147,7.94714"
       id="path285" />
    <path
       fill="none"
       stroke-width="0.176389"
       stroke-linecap="butt"
       stroke-linejoin="miter"
       stroke="#231f20"
       stroke-opacity="1"
       stroke-miterlimit="10"
       d="m 91.893098,156.37978 1.391819,0.57602 m -6.657302,1.62195 1.391818,0.57602 m 20.523127,-5.31923 -1.60404,0.66973"
       id="path286" />
    <path
       fill="none"
       stroke-width="0.176389"
       stroke-linecap="butt"
       stroke-linejoin="miter"
       stroke="#bcbec0"
       stroke-opacity="1"
       stroke-miterlimit="10"
       d="m 106.93852,154.50564 -16.401411,6.84885 m 21.030241,-4.93337 -16.43035,6.86125 m 21.05918,-4.9444 -16.415191,6.85298 m 21.042641,-4.93751 -16.39865,6.84747"
       id="path287" />
    <path
       fill="none"
       stroke-width="0.176389"
       stroke-linecap="butt"
       stroke-linejoin="miter"
       stroke="#231f20"
       stroke-opacity="1"
       stroke-miterlimit="10"
       d="m 113.17138,155.75139 -1.60404,0.66973 m 6.23287,1.24575 -1.60404,0.66972 m 6.23287,1.24713 -1.60403,0.66973"
       id="path288" />
    <path
       fill="none"
       stroke-width="0.352778"
       stroke-linecap="butt"
       stroke-linejoin="miter"
       stroke="#231f20"
       stroke-opacity="1"
       stroke-miterlimit="10"
       d="m 97.212325,158.5681 -0.01102,-11.61686 m -0.629764,15.72755 -0.0083,-6.80613 m 14.530029,8.44186 -0.007,-6.44371 m -8.61963,-1.49792 -0.004,-5.6348 m 9.26042,9.4685 -0.003,-5.63342 m -5.25171,7.8245 -0.004,-5.6348"
       id="path289" />
    <g
       fill="#231f20"
       fill-opacity="1"
       id="g289"
       transform="matrix(0.35277777,0,0,0.35277777,11.917275,106.94817)">
      <g
         id="use289"
         transform="translate(275.6235,132.847)">
        <path
           d="m 0.828125,0 h 1.9375 v -0.109375 c -0.53125,0 -0.671875,-0.078125 -0.671875,-0.40625 V -4.71875 l -0.0625,-0.015625 -1.25,0.640625 V -4 C 1.171875,-4.15625 1.171875,-4.15625 1.25,-4.15625 c 0.234375,0 0.234375,0.1875 0.234375,0.328125 v 3.171875 c 0,0.515625 -0.25,0.53125 -0.65625,0.546875 z m 0,0"
           id="path10" />
      </g>
    </g>
    <g
       fill="#231f20"
       fill-opacity="1"
       id="g290"
       transform="matrix(0.35277777,0,0,0.35277777,11.917275,106.94817)">
      <g
         id="use290"
         transform="translate(238.6145,132.46201)">
        <path
           d="m 0.828125,0 h 1.9375 v -0.109375 c -0.53125,0 -0.671875,-0.078125 -0.671875,-0.40625 V -4.71875 l -0.0625,-0.015625 -1.25,0.640625 V -4 C 1.171875,-4.15625 1.171875,-4.15625 1.25,-4.15625 c 0.234375,0 0.234375,0.1875 0.234375,0.328125 v 3.171875 c 0,0.515625 -0.25,0.53125 -0.65625,0.546875 z m 0,0"
           id="path11" />
      </g>
    </g>
    <g
       fill="#231f20"
       fill-opacity="1"
       id="g291"
       transform="matrix(0.35277777,0,0,0.35277777,11.917275,106.94817)">
      <g
         id="use291"
         transform="translate(223.83051,138.776)">
        <path
           d="M 3.328125,-0.953125 3.234375,-1 C 2.96875,-0.546875 2.828125,-0.53125 2.5625,-0.53125 H 0.890625 l 1.1875,-1.234375 C 2.375,-2.09375 2.96875,-2.734375 2.96875,-3.46875 c 0,-0.78125 -0.625,-1.265625 -1.265625,-1.265625 -0.625,0 -1.28125,0.34375 -1.484375,1.390625 l 0.140625,0.046875 c 0.15625,-0.390625 0.375,-0.921875 1,-0.921875 0.828125,0 1,0.65625 1,1 0,0.53125 -0.296875,1.15625 -0.90625,1.8125 l -1.25,1.328125 V 0 H 2.9375 Z m 0,0"
           id="path12" />
      </g>
    </g>
    <g
       fill="#231f20"
       fill-opacity="1"
       id="g292"
       transform="matrix(0.35277777,0,0,0.35277777,11.917275,106.94817)">
      <g
         id="use292"
         transform="translate(208.50751,145.30701)">
        <path
           d="m 1.078125,-2.3125 c 0.46875,-0.015625 0.65625,0.03125 0.90625,0.15625 0.4375,0.234375 0.53125,0.75 0.53125,0.921875 0,0.53125 -0.296875,1.078125 -0.9375,1.078125 -0.421875,0 -0.6875,-0.390625 -1,-0.390625 -0.109375,0 -0.28125,0.046875 -0.28125,0.25 0,0.359375 0.609375,0.390625 0.78125,0.390625 1.09375,0 1.9375,-0.609375 1.9375,-1.609375 0,-0.921875 -0.59375,-1.171875 -0.890625,-1.296875 0.46875,-0.296875 0.65625,-0.59375 0.65625,-0.96875 0,-0.296875 -0.1875,-0.953125 -1.09375,-0.953125 -0.46875,0 -1.09375,0.21875 -1.375,1.140625 l 0.109375,0.03125 c 0.109375,-0.203125 0.390625,-0.75 1.03125,-0.75 0.515625,0 0.765625,0.375 0.765625,0.734375 0,0.640625 -0.515625,0.96875 -1.15625,1.171875 z m 0,0"
           id="path15" />
      </g>
    </g>
    <g
       fill="#231f20"
       fill-opacity="1"
       id="g293"
       transform="matrix(0.35277777,0,0,0.35277777,11.917275,106.94817)">
      <g
         id="use293"
         transform="translate(288.27951,138.258)">
        <path
           d="M 3.328125,-0.953125 3.234375,-1 C 2.96875,-0.546875 2.828125,-0.53125 2.5625,-0.53125 H 0.890625 l 1.1875,-1.234375 C 2.375,-2.09375 2.96875,-2.734375 2.96875,-3.46875 c 0,-0.78125 -0.625,-1.265625 -1.265625,-1.265625 -0.625,0 -1.28125,0.34375 -1.484375,1.390625 l 0.140625,0.046875 c 0.15625,-0.390625 0.375,-0.921875 1,-0.921875 0.828125,0 1,0.65625 1,1 0,0.53125 -0.296875,1.15625 -0.90625,1.8125 l -1.25,1.328125 V 0 H 2.9375 Z m 0,0"
           id="path13" />
      </g>
    </g>
    <g
       fill="#231f20"
       fill-opacity="1"
       id="g294"
       transform="matrix(0.35277777,0,0,0.35277777,11.917275,106.94817)">
      <g
         id="use294"
         transform="translate(300.93549,143.66901)">
        <path
           d="m 1.078125,-2.3125 c 0.46875,-0.015625 0.65625,0.03125 0.90625,0.15625 0.4375,0.234375 0.53125,0.75 0.53125,0.921875 0,0.53125 -0.296875,1.078125 -0.9375,1.078125 -0.421875,0 -0.6875,-0.390625 -1,-0.390625 -0.109375,0 -0.28125,0.046875 -0.28125,0.25 0,0.359375 0.609375,0.390625 0.78125,0.390625 1.09375,0 1.9375,-0.609375 1.9375,-1.609375 0,-0.921875 -0.59375,-1.171875 -0.890625,-1.296875 0.46875,-0.296875 0.65625,-0.59375 0.65625,-0.96875 0,-0.296875 -0.1875,-0.953125 -1.09375,-0.953125 -0.46875,0 -1.09375,0.21875 -1.375,1.140625 l 0.109375,0.03125 c 0.109375,-0.203125 0.390625,-0.75 1.03125,-0.75 0.515625,0 0.765625,0.375 0.765625,0.734375 0,0.640625 -0.515625,0.96875 -1.15625,1.171875 z m 0,0"
           id="path16" />
      </g>
    </g>
    <g
       fill="#231f20"
       fill-opacity="1"
       id="g295"
       transform="matrix(0.35277777,0,0,0.35277777,11.917275,106.94817)">
      <g
         id="use295"
         transform="translate(313.59149,149.08)">
        <path
           d="M 3.296875,-1.609375 H 2.59375 v -3.125 h -0.3125 l -2.203125,3.125 v 0.4375 h 1.96875 V 0 H 2.59375 v -1.171875 h 0.703125 z m -1.25,0 h -1.6875 L 2.03125,-4 h 0.015625 z m 0,0"
           id="path17" />
      </g>
    </g>
    <path
       fill-rule="nonzero"
       fill="#231f20"
       fill-opacity="1"
       stroke-width="0.176389"
       stroke-linecap="butt"
       stroke-linejoin="miter"
       stroke="#231f20"
       stroke-opacity="1"
       stroke-miterlimit="4"
       d="m 97.818662,146.95262 c 0,0.34037 -0.276985,0.61736 -0.617361,0.61736 -0.341753,0 -0.617361,-0.27699 -0.617361,-0.61736 0,-0.34176 0.275608,-0.61736 0.617361,-0.61736 0.340376,0 0.617361,0.2756 0.617361,0.61736 z m 0,0"
       id="path295" />
    <path
       fill-rule="nonzero"
       fill="#231f20"
       fill-opacity="1"
       stroke-width="0.176389"
       stroke-linecap="butt"
       stroke-linejoin="miter"
       stroke="#231f20"
       stroke-opacity="1"
       stroke-miterlimit="4"
       d="m 97.180631,155.87266 c 0,0.34175 -0.276986,0.61736 -0.617361,0.61736 -0.341754,0 -0.617362,-0.27561 -0.617362,-0.61736 0,-0.34038 0.275608,-0.61736 0.617362,-0.61736 0.340375,0 0.617361,0.27698 0.617361,0.61736 z m 0,0"
       id="path296" />
    <path
       fill-rule="nonzero"
       fill="#231f20"
       fill-opacity="1"
       stroke-width="0.176389"
       stroke-linecap="butt"
       stroke-linejoin="miter"
       stroke="#231f20"
       stroke-opacity="1"
       stroke-miterlimit="4"
       d="m 103.07864,150.73808 c 0,0.34176 -0.27561,0.61737 -0.61737,0.61737 -0.34037,0 -0.61736,-0.27561 -0.61736,-0.61737 0,-0.34037 0.27699,-0.61736 0.61736,-0.61736 0.34176,0 0.61737,0.27699 0.61737,0.61736 z m 0,0"
       id="path297" />
    <path
       fill-rule="nonzero"
       fill="#231f20"
       fill-opacity="1"
       stroke-width="0.176389"
       stroke-linecap="butt"
       stroke-linejoin="miter"
       stroke="#231f20"
       stroke-opacity="1"
       stroke-miterlimit="4"
       d="m 107.08183,156.76425 c 0,0.34038 -0.27698,0.61736 -0.61736,0.61736 -0.34175,0 -0.61736,-0.27698 -0.61736,-0.61736 0,-0.34175 0.27561,-0.61736 0.61736,-0.61736 0.34038,0 0.61736,0.27561 0.61736,0.61736 z m 0,0"
       id="path298" />
    <path
       fill-rule="nonzero"
       fill="#231f20"
       fill-opacity="1"
       stroke-width="0.176389"
       stroke-linecap="butt"
       stroke-linejoin="miter"
       stroke="#231f20"
       stroke-opacity="1"
       stroke-miterlimit="4"
       d="m 111.7024,157.87219 c 0,0.34037 -0.27561,0.61736 -0.61736,0.61736 -0.34176,0 -0.61736,-0.27699 -0.61736,-0.61736 0,-0.34175 0.2756,-0.61736 0.61736,-0.61736 0.34175,0 0.61736,0.27561 0.61736,0.61736 z m 0,0"
       id="path299" />
    <path
       fill-rule="nonzero"
       fill="#231f20"
       fill-opacity="1"
       stroke-width="0.176389"
       stroke-linecap="butt"
       stroke-linejoin="miter"
       stroke="#231f20"
       stroke-opacity="1"
       stroke-miterlimit="4"
       d="m 112.33629,154.57317 c 0,0.34175 -0.27561,0.61736 -0.61736,0.61736 -0.34037,0 -0.61736,-0.27561 -0.61736,-0.61736 0,-0.34038 0.27699,-0.61736 0.61736,-0.61736 0.34175,0 0.61736,0.27698 0.61736,0.61736 z m 0,0"
       id="path300" />
  </g>
</svg>
