<?xml version="1.0" encoding="UTF-8" standalone="no"?>
<!-- Created with Inkscape (http://www.inkscape.org/) -->

<svg
   width="51.552361mm"
   height="31.252489mm"
   viewBox="0 0 51.552361 31.252489"
   version="1.1"
   id="svg1"
   inkscape:version="1.3.2 (091e20e, 2023-11-25)"
   sodipodi:docname="fig-3-13.svg"
   xmlns:inkscape="http://www.inkscape.org/namespaces/inkscape"
   xmlns:sodipodi="http://sodipodi.sourceforge.net/DTD/sodipodi-0.dtd"
   xmlns="http://www.w3.org/2000/svg"
   xmlns:svg="http://www.w3.org/2000/svg">
  <sodipodi:namedview
     id="namedview1"
     pagecolor="#ffffff"
     bordercolor="#000000"
     borderopacity="0.25"
     inkscape:showpageshadow="2"
     inkscape:pageopacity="0.0"
     inkscape:pagecheckerboard="0"
     inkscape:deskcolor="#d1d1d1"
     inkscape:document-units="mm"
     inkscape:zoom="0.2102413"
     inkscape:cx="97.507007"
     inkscape:cy="57.077272"
     inkscape:window-width="1312"
     inkscape:window-height="449"
     inkscape:window-x="0"
     inkscape:window-y="38"
     inkscape:window-maximized="0"
     inkscape:current-layer="layer1" />
  <defs
     id="defs1" />
  <g
     inkscape:label="Layer 1"
     inkscape:groupmode="layer"
     id="layer1"
     transform="translate(-79.374999,-132.82087)">
    <path
       fill-rule="nonzero"
       fill="#d1d2d4"
       fill-opacity="1"
       d="m 104.05429,159.63608 h 0.0193 c 6.20669,-0.0413 10.81347,-7.76663 13.33665,-12.26179 l 0.77446,-1.50481 -14.1304,13.7666"
       id="path338"
       style="stroke-width:0.352778" />
    <path
       fill="none"
       stroke-width="0.176389"
       stroke-linecap="butt"
       stroke-linejoin="miter"
       stroke="#231f20"
       stroke-opacity="1"
       stroke-miterlimit="4"
       d="m 89.544921,160.69579 v -2.11667 m 29.038019,2.11667 v -2.11667 m -13.45792,-13.46894 h -2.11667 m -23.633351,14.52728 h 49.798161 m -25.10923,4.4359 v -29.49691"
       id="path339" />
    <path
       fill-rule="nonzero"
       fill="#231f20"
       fill-opacity="1"
       d="m 129.17316,159.63746 -0.38722,-0.63528 0.022,-0.0138 1.03628,0.41065 c 0.36104,0.0799 0.72209,0.15985 1.08314,0.2384 -0.36105,0.0799 -0.7221,0.15986 -1.08314,0.2384 l -1.03628,0.41203 -0.022,-0.011 0.38722,-0.63941"
       id="path340"
       style="stroke-width:0.352778" />
    <g
       fill="#231f20"
       fill-opacity="1"
       id="g340"
       transform="matrix(0.35277777,0,0,0.35277777,9.130882,61.952465)">
      <g
         id="use340"
         transform="translate(340.306,284.90302)">
        <path
           d="m 3.21875,-0.890625 c -0.21875,0.25 -0.375,0.53125 -0.546875,0.53125 -0.15625,0 -0.21875,-0.1875 -0.25,-0.328125 -0.046875,-0.1875 -0.3125,-1.28125 -0.3125,-1.421875 0,0 0.53125,-0.96875 0.765625,-0.96875 0.1875,0 0.234375,0.140625 0.421875,0.140625 0.203125,0 0.28125,-0.15625 0.28125,-0.296875 0,-0.203125 -0.171875,-0.296875 -0.328125,-0.296875 -0.421875,0 -0.796875,0.484375 -1.203125,1.140625 l -0.09375,-0.4375 C 1.8125,-3.53125 1.6875,-3.53125 1.515625,-3.53125 c -0.265625,0 -0.78125,0.1875 -1,0.265625 l 0.03125,0.125 c 0.25,-0.0625 0.359375,-0.09375 0.4375,-0.09375 0.21875,0 0.25,0.109375 0.3125,0.359375 0.015625,0.046875 0.28125,1.109375 0.28125,1.171875 -0.71875,1.0625 -0.921875,1.328125 -1.0625,1.328125 -0.140625,0 -0.28125,-0.15625 -0.453125,-0.15625 -0.1875,0 -0.28125,0.140625 -0.28125,0.28125 0,0.1875 0.125,0.34375 0.390625,0.34375 0.25,0 0.34375,-0.09375 0.484375,-0.25 0.265625,-0.296875 0.609375,-0.71875 0.984375,-1.25 l 0.25,0.953125 c 0.09375,0.421875 0.21875,0.546875 0.453125,0.546875 0.1875,0 0.421875,0 0.984375,-0.921875 z m 0,0"
           id="path11" />
      </g>
    </g>
    <path
       fill-rule="nonzero"
       fill="#231f20"
       fill-opacity="1"
       d="m 104.06393,134.57645 -0.63527,0.38585 -0.0138,-0.022 0.41066,-1.03491 c 0.0799,-0.36243 0.15847,-0.72347 0.2384,-1.08452 0.0799,0.36105 0.15847,0.72209 0.2384,1.08452 l 0.41203,1.03491 -0.011,0.022 -0.63941,-0.38585"
       id="path341"
       style="stroke-width:0.352778" />
    <g
       fill="#231f20"
       fill-opacity="1"
       id="g341"
       transform="matrix(0.35277777,0,0,0.35277777,9.130882,61.952465)">
      <g
         id="use341"
         transform="translate(262.07898,204.429)">
        <path
           d="m 0.125,-3.203125 c 0.09375,-0.015625 0.140625,-0.03125 0.265625,-0.03125 0.453125,0 0.5625,0.34375 0.78125,1.078125 0.125,0.421875 0.46875,1.828125 0.46875,2.125 0,0.21875 -0.34375,0.609375 -0.53125,0.84375 -0.28125,0.328125 -0.375,0.390625 -0.515625,0.390625 -0.140625,0 -0.234375,-0.21875 -0.484375,-0.21875 -0.171875,0 -0.296875,0.140625 -0.296875,0.296875 0,0.34375 0.34375,0.359375 0.40625,0.359375 0.953125,0 3.1875,-3.71875 3.1875,-4.671875 0,-0.28125 -0.15625,-0.5 -0.453125,-0.5 -0.203125,0 -0.296875,0.171875 -0.296875,0.28125 0,0.375 0.4375,0.28125 0.4375,0.609375 0,0.421875 -0.640625,1.5 -0.984375,2.0625 L 1.953125,-1.5 C 1.84375,-2.109375 1.375,-3.53125 1.265625,-3.53125 1.125,-3.53125 0.5,-3.40625 0.125,-3.34375 Z m 0,0"
           id="path8" />
      </g>
    </g>
    <path
       fill="none"
       stroke-width="0.264583"
       stroke-linecap="butt"
       stroke-linejoin="miter"
       stroke="#231f20"
       stroke-opacity="1"
       stroke-miterlimit="3.239"
       d="m 94.673979,153.56582 0.472667,0.59118 c 13.000414,16.03485 22.995324,-7.14099 27.500134,-18.29483 l 0.34037,-0.92191"
       id="path342" />
    <g
       fill="#231f20"
       fill-opacity="1"
       id="g342"
       transform="matrix(0.35277777,0,0,0.35277777,9.130882,61.952465)">
      <g
         id="use342"
         transform="translate(308.509,287.14899)">
        <path
           d="m 0.828125,0 h 1.9375 v -0.109375 c -0.53125,0 -0.671875,-0.078125 -0.671875,-0.40625 V -4.71875 l -0.0625,-0.015625 -1.25,0.640625 V -4 C 1.171875,-4.15625 1.171875,-4.15625 1.25,-4.15625 c 0.234375,0 0.234375,0.1875 0.234375,0.328125 v 3.171875 c 0,0.515625 -0.25,0.53125 -0.65625,0.546875 z m 0,0"
           id="path6" />
      </g>
    </g>
    <g
       fill="#231f20"
       fill-opacity="1"
       id="g343"
       transform="matrix(0.35277777,0,0,0.35277777,9.130882,61.952465)">
      <g
         id="use343"
         transform="translate(220.44899,287.14899)">
        <path
           d="M 4.984375,-2.09375 V -2.421875 H 0.84375 v 0.328125 z m 0,0"
           id="path5" />
      </g>
    </g>
    <g
       fill="#231f20"
       fill-opacity="1"
       id="g344"
       transform="matrix(0.35277777,0,0,0.35277777,9.130882,61.952465)">
      <g
         id="use344"
         transform="translate(226.27998,287.14899)">
        <path
           d="m 0.828125,0 h 1.9375 v -0.109375 c -0.53125,0 -0.671875,-0.078125 -0.671875,-0.40625 V -4.71875 l -0.0625,-0.015625 -1.25,0.640625 V -4 C 1.171875,-4.15625 1.171875,-4.15625 1.25,-4.15625 c 0.234375,0 0.234375,0.1875 0.234375,0.328125 v 3.171875 c 0,0.515625 -0.25,0.53125 -0.65625,0.546875 z m 0,0"
           id="path7" />
      </g>
    </g>
    <path
       fill-rule="nonzero"
       fill="#231f20"
       fill-opacity="1"
       stroke-width="0.176389"
       stroke-linecap="butt"
       stroke-linejoin="miter"
       stroke="#231f20"
       stroke-opacity="1"
       stroke-miterlimit="4"
       d="m 119.18514,145.11018 c 0,0.34038 -0.27698,0.61736 -0.61736,0.61736 -0.34175,0 -0.61736,-0.27698 -0.61736,-0.61736 0,-0.34175 0.27561,-0.61736 0.61736,-0.61736 0.34038,0 0.61736,0.27561 0.61736,0.61736 z m 0,0"
       id="path344" />
    <g
       fill="#231f20"
       fill-opacity="1"
       id="g350"
       transform="matrix(0.35277777,0,0,0.35277777,9.130882,61.952465)">
      <g
         id="use345"
         transform="translate(290.17999,234.162)">
        <path
           d="m 2.359375,-5.40625 c -1.234375,0.734375 -1.96875,1.9375 -1.96875,3.3125 0,1.109375 0.25,1.671875 0.65625,2.25 C 1.34375,0.609375 1.875,1.171875 2.34375,1.421875 L 2.4375,1.28125 c -1.359375,-0.859375 -1.359375,-2.625 -1.359375,-3.4375 0,-2.03125 0.765625,-2.65625 1.359375,-3.125 z m 0,0"
           id="path4" />
      </g>
      <g
         id="use346"
         transform="translate(292.84399,234.162)">
        <path
           d="m 0.9375,0 h 2.21875 v -0.125 c -0.609375,0 -0.765625,-0.078125 -0.765625,-0.46875 v -4.796875 l -0.0625,-0.015625 -1.4375,0.71875 v 0.125 C 1.34375,-4.75 1.34375,-4.75 1.4375,-4.75 c 0.265625,0 0.265625,0.21875 0.265625,0.375 v 3.625 c 0,0.59375 -0.296875,0.609375 -0.765625,0.625 z m 0,0"
           id="path1" />
      </g>
      <g
         id="use347"
         transform="translate(296.84399,234.162)">
        <path
           d="M 0.65625,1.125 C 0.90625,1.046875 1.5625,0.515625 1.5625,-0.046875 1.5625,-0.71875 1.09375,-0.8125 0.90625,-0.8125 c -0.1875,0 -0.453125,0.109375 -0.453125,0.453125 0,0.328125 0.28125,0.40625 0.484375,0.40625 0.0625,0 0.109375,0 0.125,-0.015625 0.03125,0 0.0625,-0.015625 0.078125,-0.015625 C 1.1875,0.015625 1.25,0.0625 1.25,0.125 1.25,0.28125 1.125,0.640625 0.59375,0.96875 Z m 0,0"
           id="path14" />
      </g>
      <g
         id="use348"
         transform="translate(298.84399,234.162)" />
      <g
         id="use349"
         transform="translate(300.84399,234.162)">
        <path
           d="m 0.9375,0 h 2.21875 v -0.125 c -0.609375,0 -0.765625,-0.078125 -0.765625,-0.46875 v -4.796875 l -0.0625,-0.015625 -1.4375,0.71875 v 0.125 C 1.34375,-4.75 1.34375,-4.75 1.4375,-4.75 c 0.265625,0 0.265625,0.21875 0.265625,0.375 v 3.625 c 0,0.59375 -0.296875,0.609375 -0.765625,0.625 z m 0,0"
           id="path3" />
      </g>
      <g
         id="use350"
         transform="translate(304.84399,234.162)">
        <path
           d="m 0.296875,1.421875 c 1.25,-0.734375 1.984375,-1.9375 1.984375,-3.3125 0,-1.109375 -0.265625,-1.6875 -0.65625,-2.265625 -0.3125,-0.4375 -0.828125,-1 -1.296875,-1.25 l -0.09375,0.125 c 1.359375,0.875 1.359375,2.625 1.359375,3.4375 0,2.03125 -0.765625,2.65625 -1.359375,3.125 z m 0,0"
           id="path15" />
      </g>
    </g>
    <g
       fill="#231f20"
       fill-opacity="1"
       id="g351"
       transform="matrix(0.35277777,0,0,0.35277777,9.130882,61.952465)">
      <g
         id="use351"
         transform="translate(297.548,263.81)">
        <path
           d="m 0.125,-3.203125 c 0.09375,-0.015625 0.140625,-0.03125 0.265625,-0.03125 0.453125,0 0.5625,0.34375 0.78125,1.078125 0.125,0.421875 0.46875,1.828125 0.46875,2.125 0,0.21875 -0.34375,0.609375 -0.53125,0.84375 -0.28125,0.328125 -0.375,0.390625 -0.515625,0.390625 -0.140625,0 -0.234375,-0.21875 -0.484375,-0.21875 -0.171875,0 -0.296875,0.140625 -0.296875,0.296875 0,0.34375 0.34375,0.359375 0.40625,0.359375 0.953125,0 3.1875,-3.71875 3.1875,-4.671875 0,-0.28125 -0.15625,-0.5 -0.453125,-0.5 -0.203125,0 -0.296875,0.171875 -0.296875,0.28125 0,0.375 0.4375,0.28125 0.4375,0.609375 0,0.421875 -0.640625,1.5 -0.984375,2.0625 L 1.953125,-1.5 C 1.84375,-2.109375 1.375,-3.53125 1.265625,-3.53125 1.125,-3.53125 0.5,-3.40625 0.125,-3.34375 Z m 0,0"
           id="path9" />
      </g>
    </g>
    <g
       fill="#231f20"
       fill-opacity="1"
       id="g352"
       transform="matrix(0.35277777,0,0,0.35277777,9.130882,61.952465)">
      <g
         id="use352"
         transform="translate(303.09998,263.81)">
        <path
           d="m 5.6875,-3.109375 v -0.375 H 0.96875 v 0.375 z m 0,1.421875 v -0.375 H 0.96875 v 0.375 z m 0,0"
           id="path17" />
      </g>
    </g>
    <g
       fill="#231f20"
       fill-opacity="1"
       id="g353"
       transform="matrix(0.35277777,0,0,0.35277777,9.130882,61.952465)">
      <g
         id="use353"
         transform="translate(311.76398,263.81)">
        <path
           d="m 3.21875,-0.890625 c -0.21875,0.25 -0.375,0.53125 -0.546875,0.53125 -0.15625,0 -0.21875,-0.1875 -0.25,-0.328125 -0.046875,-0.1875 -0.3125,-1.28125 -0.3125,-1.421875 0,0 0.53125,-0.96875 0.765625,-0.96875 0.1875,0 0.234375,0.140625 0.421875,0.140625 0.203125,0 0.28125,-0.15625 0.28125,-0.296875 0,-0.203125 -0.171875,-0.296875 -0.328125,-0.296875 -0.421875,0 -0.796875,0.484375 -1.203125,1.140625 l -0.09375,-0.4375 C 1.8125,-3.53125 1.6875,-3.53125 1.515625,-3.53125 c -0.265625,0 -0.78125,0.1875 -1,0.265625 l 0.03125,0.125 c 0.25,-0.0625 0.359375,-0.09375 0.4375,-0.09375 0.21875,0 0.25,0.109375 0.3125,0.359375 0.015625,0.046875 0.28125,1.109375 0.28125,1.171875 -0.71875,1.0625 -0.921875,1.328125 -1.0625,1.328125 -0.140625,0 -0.28125,-0.15625 -0.453125,-0.15625 -0.1875,0 -0.28125,0.140625 -0.28125,0.28125 0,0.1875 0.125,0.34375 0.390625,0.34375 0.25,0 0.34375,-0.09375 0.484375,-0.25 0.265625,-0.296875 0.609375,-0.71875 0.984375,-1.25 l 0.25,0.953125 c 0.09375,0.421875 0.21875,0.546875 0.453125,0.546875 0.1875,0 0.421875,0 0.984375,-0.921875 z m 0,0"
           id="path12" />
      </g>
    </g>
    <g
       fill="#231f20"
       fill-opacity="1"
       id="g354"
       transform="matrix(0.35277777,0,0,0.35277777,9.130882,61.952465)">
      <g
         id="use354"
         transform="translate(315.91699,260.81)">
        <path
           d="m 2.84375,-0.828125 -0.078125,-0.03125 c -0.234375,0.390625 -0.34375,0.40625 -0.5625,0.40625 h -1.4375 l 1.015625,-1.0625 C 2.046875,-1.796875 2.546875,-2.34375 2.546875,-2.96875 2.546875,-3.640625 2,-4.0625 1.453125,-4.0625 c -0.515625,0 -1.09375,0.296875 -1.265625,1.203125 l 0.125,0.03125 c 0.125,-0.328125 0.3125,-0.78125 0.859375,-0.78125 0.703125,0 0.859375,0.546875 0.859375,0.859375 0,0.453125 -0.265625,0.984375 -0.78125,1.546875 l -1.0625,1.125 V 0 h 2.328125 z m 0,0"
           id="path16" />
      </g>
    </g>
    <g
       fill="#231f20"
       fill-opacity="1"
       id="g355"
       transform="matrix(0.35277777,0,0,0.35277777,9.130882,61.952465)">
      <g
         id="use355"
         transform="translate(325.01398,229.09)">
        <path
           d="m 0.125,-3.203125 c 0.09375,-0.015625 0.140625,-0.03125 0.265625,-0.03125 0.453125,0 0.5625,0.34375 0.78125,1.078125 0.125,0.421875 0.46875,1.828125 0.46875,2.125 0,0.21875 -0.34375,0.609375 -0.53125,0.84375 -0.28125,0.328125 -0.375,0.390625 -0.515625,0.390625 -0.140625,0 -0.234375,-0.21875 -0.484375,-0.21875 -0.171875,0 -0.296875,0.140625 -0.296875,0.296875 0,0.34375 0.34375,0.359375 0.40625,0.359375 0.953125,0 3.1875,-3.71875 3.1875,-4.671875 0,-0.28125 -0.15625,-0.5 -0.453125,-0.5 -0.203125,0 -0.296875,0.171875 -0.296875,0.28125 0,0.375 0.4375,0.28125 0.4375,0.609375 0,0.421875 -0.640625,1.5 -0.984375,2.0625 L 1.953125,-1.5 C 1.84375,-2.109375 1.375,-3.53125 1.265625,-3.53125 1.125,-3.53125 0.5,-3.40625 0.125,-3.34375 Z m 0,0"
           id="path10" />
      </g>
    </g>
    <g
       fill="#231f20"
       fill-opacity="1"
       id="g356"
       transform="matrix(0.35277777,0,0,0.35277777,9.130882,61.952465)">
      <g
         id="use356"
         transform="translate(330.56598,229.09)">
        <path
           d="m 5.6875,-3.109375 v -0.375 H 0.96875 v 0.375 z m 0,1.421875 v -0.375 H 0.96875 v 0.375 z m 0,0"
           id="path18" />
      </g>
    </g>
    <g
       fill="#231f20"
       fill-opacity="1"
       id="g357"
       transform="matrix(0.35277777,0,0,0.35277777,9.130882,61.952465)">
      <g
         id="use357"
         transform="translate(339.22998,229.09)">
        <path
           d="m 3.21875,-0.890625 c -0.21875,0.25 -0.375,0.53125 -0.546875,0.53125 -0.15625,0 -0.21875,-0.1875 -0.25,-0.328125 -0.046875,-0.1875 -0.3125,-1.28125 -0.3125,-1.421875 0,0 0.53125,-0.96875 0.765625,-0.96875 0.1875,0 0.234375,0.140625 0.421875,0.140625 0.203125,0 0.28125,-0.15625 0.28125,-0.296875 0,-0.203125 -0.171875,-0.296875 -0.328125,-0.296875 -0.421875,0 -0.796875,0.484375 -1.203125,1.140625 l -0.09375,-0.4375 C 1.8125,-3.53125 1.6875,-3.53125 1.515625,-3.53125 c -0.265625,0 -0.78125,0.1875 -1,0.265625 l 0.03125,0.125 c 0.25,-0.0625 0.359375,-0.09375 0.4375,-0.09375 0.21875,0 0.25,0.109375 0.3125,0.359375 0.015625,0.046875 0.28125,1.109375 0.28125,1.171875 -0.71875,1.0625 -0.921875,1.328125 -1.0625,1.328125 -0.140625,0 -0.28125,-0.15625 -0.453125,-0.15625 -0.1875,0 -0.28125,0.140625 -0.28125,0.28125 0,0.1875 0.125,0.34375 0.390625,0.34375 0.25,0 0.34375,-0.09375 0.484375,-0.25 0.265625,-0.296875 0.609375,-0.71875 0.984375,-1.25 l 0.25,0.953125 c 0.09375,0.421875 0.21875,0.546875 0.453125,0.546875 0.1875,0 0.421875,0 0.984375,-0.921875 z m 0,0"
           id="path13" />
      </g>
    </g>
    <path
       fill="none"
       stroke-width="0.264583"
       stroke-linecap="butt"
       stroke-linejoin="miter"
       stroke="#231f20"
       stroke-opacity="1"
       stroke-miterlimit="3.239"
       d="M 99.995963,163.57726 127.30455,136.97148"
       id="path357" />
  </g>
</svg>
