<?xml version="1.0" encoding="UTF-8" standalone="no"?>
<!-- Created with Inkscape (http://www.inkscape.org/) -->

<svg
   width="60.644958mm"
   height="43.514359mm"
   viewBox="0 0 60.644958 43.514359"
   version="1.1"
   id="svg1"
   inkscape:version="1.3.2 (091e20e, 2023-11-25)"
   sodipodi:docname="fig-3-8.svg"
   xmlns:inkscape="http://www.inkscape.org/namespaces/inkscape"
   xmlns:sodipodi="http://sodipodi.sourceforge.net/DTD/sodipodi-0.dtd"
   xmlns="http://www.w3.org/2000/svg"
   xmlns:svg="http://www.w3.org/2000/svg">
  <sodipodi:namedview
     id="namedview1"
     pagecolor="#ffffff"
     bordercolor="#000000"
     borderopacity="0.25"
     inkscape:showpageshadow="2"
     inkscape:pageopacity="0.0"
     inkscape:pagecheckerboard="0"
     inkscape:deskcolor="#d1d1d1"
     inkscape:document-units="mm"
     inkscape:zoom="0.2102413"
     inkscape:cx="116.53276"
     inkscape:cy="80.859469"
     inkscape:window-width="1312"
     inkscape:window-height="449"
     inkscape:window-x="0"
     inkscape:window-y="38"
     inkscape:window-maximized="0"
     inkscape:current-layer="layer1" />
  <defs
     id="defs1" />
  <g
     inkscape:label="Layer 1"
     inkscape:groupmode="layer"
     id="layer1"
     transform="translate(-74.807972,-126.73537)">
    <path
       fill="none"
       stroke-width="0.176389"
       stroke-linecap="butt"
       stroke-linejoin="miter"
       stroke="#231f20"
       stroke-opacity="1"
       stroke-miterlimit="4"
       d="m 81.768652,133.7827 h 2.116667 m -2.116667,6.44371 h 2.116667 m -2.116667,6.44508 h 2.116667 m -2.116667,6.44509 h 2.116667 m 44.874431,13.94712 v -2.11666 m -46.991098,-5.38676 h 2.116667"
       id="path335" />
    <g
       fill="#231f20"
       fill-opacity="1"
       id="g338"
       transform="matrix(0.35277777,0,0,0.35277777,4.088641,104.67854)">
      <g
         id="use336"
         transform="translate(209.5305,158.265)">
        <path
           d="m 1.75,-4.546875 c 0.890625,0 0.90625,1.75 0.90625,2.234375 0,0.546875 -0.015625,2.234375 -0.90625,2.234375 -0.890625,0 -0.90625,-1.671875 -0.90625,-2.234375 0,-0.484375 0.015625,-2.234375 0.90625,-2.234375 z m 0,-0.1875 c -1.28125,0 -1.578125,1.59375 -1.578125,2.421875 0,0.84375 0.296875,2.40625 1.578125,2.40625 1.28125,0 1.578125,-1.5625 1.578125,-2.40625 0,-0.828125 -0.296875,-2.421875 -1.578125,-2.421875 z m 0,0"
           id="path28" />
      </g>
      <g
         id="use337"
         transform="translate(213.0305,158.265)">
        <path
           d="m 0.875,0.078125 c 0.140625,0 0.390625,-0.125 0.390625,-0.375 0,-0.21875 -0.1875,-0.40625 -0.390625,-0.40625 -0.203125,0 -0.390625,0.171875 -0.390625,0.40625 0,0.265625 0.25,0.375 0.390625,0.375 z m 0,0"
           id="path23" />
      </g>
      <g
         id="use338"
         transform="translate(214.7805,158.265)">
        <path
           d="M 3.328125,-0.953125 3.234375,-1 C 2.96875,-0.546875 2.828125,-0.53125 2.5625,-0.53125 H 0.890625 l 1.1875,-1.234375 C 2.375,-2.09375 2.96875,-2.734375 2.96875,-3.46875 c 0,-0.78125 -0.625,-1.265625 -1.265625,-1.265625 -0.625,0 -1.28125,0.34375 -1.484375,1.390625 l 0.140625,0.046875 c 0.15625,-0.390625 0.375,-0.921875 1,-0.921875 0.828125,0 1,0.65625 1,1 0,0.53125 -0.296875,1.15625 -0.90625,1.8125 l -1.25,1.328125 V 0 H 2.9375 Z m 0,0"
           id="path21" />
      </g>
    </g>
    <g
       fill="#231f20"
       fill-opacity="1"
       id="g341"
       transform="matrix(0.35277777,0,0,0.35277777,4.088641,104.67854)">
      <g
         id="use339"
         transform="translate(209.5305,84.750999)">
        <path
           d="m 0.828125,0 h 1.9375 v -0.109375 c -0.53125,0 -0.671875,-0.078125 -0.671875,-0.40625 V -4.71875 l -0.0625,-0.015625 -1.25,0.640625 V -4 C 1.171875,-4.15625 1.171875,-4.15625 1.25,-4.15625 c 0.234375,0 0.234375,0.1875 0.234375,0.328125 v 3.171875 c 0,0.515625 -0.25,0.53125 -0.65625,0.546875 z m 0,0"
           id="path19" />
      </g>
      <g
         id="use340"
         transform="translate(213.0305,84.750999)">
        <path
           d="m 0.875,0.078125 c 0.140625,0 0.390625,-0.125 0.390625,-0.375 0,-0.21875 -0.1875,-0.40625 -0.390625,-0.40625 -0.203125,0 -0.390625,0.171875 -0.390625,0.40625 0,0.265625 0.25,0.375 0.390625,0.375 z m 0,0"
           id="path24" />
      </g>
      <g
         id="use341"
         transform="translate(214.7805,84.750999)">
        <path
           d="m 1.75,-4.546875 c 0.890625,0 0.90625,1.75 0.90625,2.234375 0,0.546875 -0.015625,2.234375 -0.90625,2.234375 -0.890625,0 -0.90625,-1.671875 -0.90625,-2.234375 0,-0.484375 0.015625,-2.234375 0.90625,-2.234375 z m 0,-0.1875 c -1.28125,0 -1.578125,1.59375 -1.578125,2.421875 0,0.84375 0.296875,2.40625 1.578125,2.40625 1.28125,0 1.578125,-1.5625 1.578125,-2.40625 0,-0.828125 -0.296875,-2.421875 -1.578125,-2.421875 z m 0,0"
           id="path29" />
      </g>
    </g>
    <g
       fill="#231f20"
       fill-opacity="1"
       id="g344"
       transform="matrix(0.35277777,0,0,0.35277777,4.088641,104.67854)">
      <g
         id="use342"
         transform="translate(209.5305,103.063)">
        <path
           d="m 1.75,-4.546875 c 0.890625,0 0.90625,1.75 0.90625,2.234375 0,0.546875 -0.015625,2.234375 -0.90625,2.234375 -0.890625,0 -0.90625,-1.671875 -0.90625,-2.234375 0,-0.484375 0.015625,-2.234375 0.90625,-2.234375 z m 0,-0.1875 c -1.28125,0 -1.578125,1.59375 -1.578125,2.421875 0,0.84375 0.296875,2.40625 1.578125,2.40625 1.28125,0 1.578125,-1.5625 1.578125,-2.40625 0,-0.828125 -0.296875,-2.421875 -1.578125,-2.421875 z m 0,0"
           id="path30" />
      </g>
      <g
         id="use343"
         transform="translate(213.0305,103.063)">
        <path
           d="m 0.875,0.078125 c 0.140625,0 0.390625,-0.125 0.390625,-0.375 0,-0.21875 -0.1875,-0.40625 -0.390625,-0.40625 -0.203125,0 -0.390625,0.171875 -0.390625,0.40625 0,0.265625 0.25,0.375 0.390625,0.375 z m 0,0"
           id="path25" />
      </g>
      <g
         id="use344"
         transform="translate(214.7805,103.063)">
        <path
           d="m 1.484375,-2.1875 c 0.796875,0.578125 1.09375,0.78125 1.09375,1.3125 0,0.484375 -0.328125,0.78125 -0.765625,0.78125 -0.5625,0 -0.890625,-0.453125 -0.890625,-1 0,-0.640625 0.34375,-0.90625 0.5625,-1.09375 z m -1.09375,1.171875 c 0,0.546875 0.46875,1.109375 1.328125,1.109375 1.171875,0 1.390625,-0.78125 1.390625,-1.140625 0,-0.46875 -0.140625,-0.875 -1.078125,-1.546875 0.375,-0.203125 0.9375,-0.5 0.9375,-1.140625 0,-0.53125 -0.4375,-1 -1.21875,-1 -0.609375,0 -1.3125,0.375 -1.3125,1.09375 0,0.5625 0.28125,0.796875 0.859375,1.3125 -0.625,0.484375 -0.90625,0.703125 -0.90625,1.3125 z m 0.5625,-2.8125 c 0,-0.34375 0.21875,-0.703125 0.75,-0.703125 0.53125,0 0.78125,0.375 0.78125,0.765625 0,0.609375 -0.390625,0.875 -0.65625,1.046875 -0.25,-0.171875 -0.875,-0.5625 -0.875,-1.109375 z m 0,0"
           id="path18" />
      </g>
    </g>
    <g
       fill="#231f20"
       fill-opacity="1"
       id="g347"
       transform="matrix(0.35277777,0,0,0.35277777,4.088641,104.67854)">
      <g
         id="use345"
         transform="translate(209.5305,121.375)">
        <path
           d="m 1.75,-4.546875 c 0.890625,0 0.90625,1.75 0.90625,2.234375 0,0.546875 -0.015625,2.234375 -0.90625,2.234375 -0.890625,0 -0.90625,-1.671875 -0.90625,-2.234375 0,-0.484375 0.015625,-2.234375 0.90625,-2.234375 z m 0,-0.1875 c -1.28125,0 -1.578125,1.59375 -1.578125,2.421875 0,0.84375 0.296875,2.40625 1.578125,2.40625 1.28125,0 1.578125,-1.5625 1.578125,-2.40625 0,-0.828125 -0.296875,-2.421875 -1.578125,-2.421875 z m 0,0"
           id="path31" />
      </g>
      <g
         id="use346"
         transform="translate(213.0305,121.375)">
        <path
           d="m 0.875,0.078125 c 0.140625,0 0.390625,-0.125 0.390625,-0.375 0,-0.21875 -0.1875,-0.40625 -0.390625,-0.40625 -0.203125,0 -0.390625,0.171875 -0.390625,0.40625 0,0.265625 0.25,0.375 0.390625,0.375 z m 0,0"
           id="path26" />
      </g>
      <g
         id="use347"
         transform="translate(214.7805,121.375)">
        <path
           d="m 3.125,-4.78125 c -1.703125,0.046875 -2.890625,1.328125 -2.890625,2.75 0,1.46875 0.71875,2.125 1.546875,2.125 1.25,0 1.5,-1.109375 1.5,-1.625 C 3.28125,-2.46875 2.734375,-3 1.984375,-3 1.59375,-3 1.453125,-2.90625 1.0625,-2.6875 1.203125,-3.53125 1.890625,-4.484375 3.140625,-4.671875 Z m -1.4375,2.109375 c 0.75,0 0.953125,0.703125 0.953125,1.421875 0,0.78125 -0.3125,1.15625 -0.75,1.15625 -0.53125,0 -1,-0.515625 -1,-1.703125 0,-0.421875 0.0625,-0.578125 0.140625,-0.65625 0.171875,-0.171875 0.421875,-0.21875 0.65625,-0.21875 z m 0,0"
           id="path17" />
      </g>
    </g>
    <g
       fill="#231f20"
       fill-opacity="1"
       id="g348"
       transform="matrix(0.35277777,0,0,0.35277777,4.088641,104.67854)">
      <g
         id="use348"
         transform="translate(217.72749,108.845)">
        <path
           d="m 2.65625,-2.1875 c 0,0.828125 -0.640625,2.125 -1.484375,2.125 C 1,-0.0625 0.8125,-0.140625 0.8125,-0.3125 c 0,-0.28125 0.28125,-1.234375 0.46875,-1.671875 0.171875,-0.484375 0.578125,-0.796875 0.90625,-0.796875 0.453125,0 0.46875,0.40625 0.46875,0.59375 z M 0.390625,-2.828125 h 0.15625 c 0.171875,0 0.296875,0.078125 0.296875,0.203125 0,0.140625 -0.703125,2.75 -0.90625,3.53125 -0.046875,0.234375 -0.09375,0.421875 -0.46875,0.421875 V 1.4375 h 1.4375 V 1.328125 c -0.171875,0 -0.4375,0 -0.4375,-0.21875 0,-0.140625 0.1875,-0.90625 0.25,-1.15625 0.15625,0.09375 0.296875,0.125 0.484375,0.125 0.953125,0 2.078125,-1.15625 2.078125,-2.25 0,-0.5 -0.203125,-0.921875 -0.828125,-0.921875 -0.578125,0 -0.96875,0.515625 -1.140625,0.765625 L 1.296875,-2.34375 1.484375,-3 c 0.03125,-0.078125 0,-0.09375 -0.015625,-0.09375 L 0.375,-2.9375 Z m 0,0"
           id="path34" />
      </g>
    </g>
    <g
       fill="#231f20"
       fill-opacity="1"
       id="g351"
       transform="matrix(0.35277777,0,0,0.35277777,4.088641,104.67854)">
      <g
         id="use349"
         transform="translate(209.5305,139.687)">
        <path
           d="m 1.75,-4.546875 c 0.890625,0 0.90625,1.75 0.90625,2.234375 0,0.546875 -0.015625,2.234375 -0.90625,2.234375 -0.890625,0 -0.90625,-1.671875 -0.90625,-2.234375 0,-0.484375 0.015625,-2.234375 0.90625,-2.234375 z m 0,-0.1875 c -1.28125,0 -1.578125,1.59375 -1.578125,2.421875 0,0.84375 0.296875,2.40625 1.578125,2.40625 1.28125,0 1.578125,-1.5625 1.578125,-2.40625 0,-0.828125 -0.296875,-2.421875 -1.578125,-2.421875 z m 0,0"
           id="path32" />
      </g>
      <g
         id="use350"
         transform="translate(213.0305,139.687)">
        <path
           d="m 0.875,0.078125 c 0.140625,0 0.390625,-0.125 0.390625,-0.375 0,-0.21875 -0.1875,-0.40625 -0.390625,-0.40625 -0.203125,0 -0.390625,0.171875 -0.390625,0.40625 0,0.265625 0.25,0.375 0.390625,0.375 z m 0,0"
           id="path27" />
      </g>
      <g
         id="use351"
         transform="translate(214.7805,139.687)">
        <path
           d="M 3.296875,-1.609375 H 2.59375 v -3.125 h -0.3125 l -2.203125,3.125 v 0.4375 h 1.96875 V 0 H 2.59375 v -1.171875 h 0.703125 z m -1.25,0 h -1.6875 L 2.03125,-4 h 0.015625 z m 0,0"
           id="path15" />
      </g>
    </g>
    <path
       fill="none"
       stroke-width="0.176389"
       stroke-linecap="butt"
       stroke-linejoin="miter"
       stroke="#231f20"
       stroke-opacity="1"
       stroke-miterlimit="4"
       d="m 105.79337,167.06233 v -2.11667"
       id="path351" />
    <path
       fill="none"
       stroke-width="0.176389"
       stroke-linecap="butt"
       stroke-linejoin="miter"
       stroke="#231f20"
       stroke-opacity="1"
       stroke-dasharray="4, 2.5"
       stroke-miterlimit="4"
       d="M 111.61283,166.00262 V 142.59113 H 82.836637"
       id="path352" />
    <path
       fill="none"
       stroke-width="0.176389"
       stroke-linecap="butt"
       stroke-linejoin="miter"
       stroke="#231f20"
       stroke-opacity="1"
       stroke-miterlimit="4"
       d="m 117.27656,167.06233 v -2.11667 m -22.966382,2.11667 v -2.11667 m -15.728926,1.05833 h 55.117388"
       id="path353" />
    <g
       fill="#231f20"
       fill-opacity="1"
       id="g353"
       transform="matrix(0.35277777,0,0,0.35277777,4.088641,104.67854)">
      <g
         id="use353"
         transform="translate(217.1555,181.75101)">
        <path
           d="m 1.75,-4.546875 c 0.890625,0 0.90625,1.75 0.90625,2.234375 0,0.546875 -0.015625,2.234375 -0.90625,2.234375 -0.890625,0 -0.90625,-1.671875 -0.90625,-2.234375 0,-0.484375 0.015625,-2.234375 0.90625,-2.234375 z m 0,-0.1875 c -1.28125,0 -1.578125,1.59375 -1.578125,2.421875 0,0.84375 0.296875,2.40625 1.578125,2.40625 1.28125,0 1.578125,-1.5625 1.578125,-2.40625 0,-0.828125 -0.296875,-2.421875 -1.578125,-2.421875 z m 0,0"
           id="path33" />
      </g>
    </g>
    <g
       fill="#231f20"
       fill-opacity="1"
       id="g355"
       transform="matrix(0.35277777,0,0,0.35277777,4.088641,104.67854)">
      <g
         id="use354"
         transform="translate(254.2905,184.215)">
        <path
           d="m 0.828125,0 h 1.9375 v -0.109375 c -0.53125,0 -0.671875,-0.078125 -0.671875,-0.40625 V -4.71875 l -0.0625,-0.015625 -1.25,0.640625 V -4 C 1.171875,-4.15625 1.171875,-4.15625 1.25,-4.15625 c 0.234375,0 0.234375,0.1875 0.234375,0.328125 v 3.171875 c 0,0.515625 -0.25,0.53125 -0.65625,0.546875 z m 0,0"
           id="path20" />
      </g>
      <g
         id="use355"
         transform="translate(286.74249,184.215)">
        <path
           d="M 3.328125,-0.953125 3.234375,-1 C 2.96875,-0.546875 2.828125,-0.53125 2.5625,-0.53125 H 0.890625 l 1.1875,-1.234375 C 2.375,-2.09375 2.96875,-2.734375 2.96875,-3.46875 c 0,-0.78125 -0.625,-1.265625 -1.265625,-1.265625 -0.625,0 -1.28125,0.34375 -1.484375,1.390625 l 0.140625,0.046875 c 0.15625,-0.390625 0.375,-0.921875 1,-0.921875 0.828125,0 1,0.65625 1,1 0,0.53125 -0.296875,1.15625 -0.90625,1.8125 l -1.25,1.328125 V 0 H 2.9375 Z m 0,0"
           id="path22" />
      </g>
    </g>
    <g
       fill="#231f20"
       fill-opacity="1"
       id="g356"
       transform="matrix(0.35277777,0,0,0.35277777,4.088641,104.67854)">
      <g
         id="use356"
         transform="translate(294.5405,181.66)">
        <path
           d="m 3.359375,-1.609375 v -1.625 H 3.1875 C 3.125,-2.71875 3,-2.578125 2.421875,-2.578125 H 1.40625 V -4.125 c 0,-0.21875 0.046875,-0.25 0.21875,-0.25 h 0.953125 c 0.78125,0 0.96875,0.125 1.0625,0.734375 h 0.1875 l -0.03125,-1 H 0.078125 V -4.5 C 0.53125,-4.46875 0.6875,-4.421875 0.6875,-3.875 v 3.03125 c 0,0.578125 -0.078125,0.6875 -0.609375,0.703125 V 0 h 1.96875 v -0.140625 c -0.5,-0.015625 -0.640625,-0.09375 -0.640625,-0.625 v -1.53125 l 1.015625,0.015625 c 0.53125,0 0.6875,0.078125 0.765625,0.671875 z m 0,0"
           id="path14" />
      </g>
    </g>
    <g
       fill="#231f20"
       fill-opacity="1"
       id="g357"
       transform="matrix(0.35277777,0,0,0.35277777,4.088641,104.67854)">
      <g
         id="use357"
         transform="translate(298.43549,179.6599)">
        <path
           d="m 4.265625,-1.796875 v -0.28125 H 0.71875 v 0.28125 z m 0,0"
           id="path38" />
      </g>
    </g>
    <g
       fill="#231f20"
       fill-opacity="1"
       id="g358"
       transform="matrix(0.35277777,0,0,0.35277777,4.088641,104.67854)">
      <g
         id="use358"
         transform="translate(302.8335,179.6599)">
        <path
           d="m 0.703125,0 h 1.65625 v -0.09375 c -0.453125,0 -0.5625,-0.0625 -0.5625,-0.34375 V -4.046875 L 1.75,-4.0625 0.671875,-3.515625 v 0.09375 C 1,-3.5625 1,-3.5625 1.078125,-3.5625 c 0.203125,0 0.203125,0.15625 0.203125,0.28125 v 2.71875 c 0,0.453125 -0.21875,0.453125 -0.578125,0.46875 z m 0,0"
           id="path37" />
      </g>
    </g>
    <g
       fill="#231f20"
       fill-opacity="1"
       id="g359"
       transform="matrix(0.35277777,0,0,0.35277777,4.088641,104.67854)">
      <g
         id="use359"
         transform="translate(305.8335,181.66)">
        <path
           d="m 2.0625,-4.734375 c -1.078125,0.640625 -1.71875,1.703125 -1.71875,2.90625 0,0.953125 0.21875,1.46875 0.5625,1.96875 0.265625,0.390625 0.734375,0.875 1.140625,1.09375 L 2.125,1.125 C 0.9375,0.359375 0.9375,-1.171875 0.9375,-1.890625 c 0,-1.765625 0.671875,-2.3125 1.1875,-2.734375 z m 0,0"
           id="path13" />
      </g>
    </g>
    <g
       fill="#231f20"
       fill-opacity="1"
       id="g360"
       transform="matrix(0.35277777,0,0,0.35277777,4.088641,104.67854)">
      <g
         id="use360"
         transform="translate(309.21451,181.66)">
        <path
           d="m 2.65625,-2.1875 c 0,0.828125 -0.640625,2.125 -1.484375,2.125 C 1,-0.0625 0.8125,-0.140625 0.8125,-0.3125 c 0,-0.28125 0.28125,-1.234375 0.46875,-1.671875 0.171875,-0.484375 0.578125,-0.796875 0.90625,-0.796875 0.453125,0 0.46875,0.40625 0.46875,0.59375 z M 0.390625,-2.828125 h 0.15625 c 0.171875,0 0.296875,0.078125 0.296875,0.203125 0,0.140625 -0.703125,2.75 -0.90625,3.53125 -0.046875,0.234375 -0.09375,0.421875 -0.46875,0.421875 V 1.4375 h 1.4375 V 1.328125 c -0.171875,0 -0.4375,0 -0.4375,-0.21875 0,-0.140625 0.1875,-0.90625 0.25,-1.15625 0.15625,0.09375 0.296875,0.125 0.484375,0.125 0.953125,0 2.078125,-1.15625 2.078125,-2.25 0,-0.5 -0.203125,-0.921875 -0.828125,-0.921875 -0.578125,0 -0.96875,0.515625 -1.140625,0.765625 L 1.296875,-2.34375 1.484375,-3 c 0.03125,-0.078125 0,-0.09375 -0.015625,-0.09375 L 0.375,-2.9375 Z m 0,0"
           id="path35" />
      </g>
    </g>
    <g
       fill="#231f20"
       fill-opacity="1"
       id="g361"
       transform="matrix(0.35277777,0,0,0.35277777,4.088641,104.67854)">
      <g
         id="use361"
         transform="translate(312.71451,181.66)">
        <path
           d="M 0.265625,1.234375 C 1.34375,0.59375 2,-0.453125 2,-1.65625 2,-2.625 1.765625,-3.125 1.421875,-3.640625 1.15625,-4.03125 0.6875,-4.515625 0.28125,-4.734375 L 0.203125,-4.625 c 1.1875,0.765625 1.1875,2.296875 1.1875,3.015625 0,1.78125 -0.671875,2.328125 -1.1875,2.734375 z m 0,0"
           id="path12" />
      </g>
    </g>
    <g
       fill="#231f20"
       fill-opacity="1"
       id="g369"
       transform="matrix(0.35277777,0,0,0.35277777,4.088641,104.67854)">
      <g
         id="use362"
         transform="translate(205.2455,165.362)">
        <path
           d="m -3.15625,-4.34375 -1.578125,0.0625 V -4.125 C -4.5,-4.078125 -4.5,-3.84375 -4.5,-3.8125 c 0,0.15625 -0.234375,0.609375 -0.234375,1.234375 0,1.203125 0.84375,2.375 2.421875,2.375 1.734375,0 2.40625,-1.203125 2.40625,-2.328125 0,-1.296875 -0.875,-1.890625 -0.890625,-1.90625 l -0.125,0.125 c 0.21875,0.21875 0.71875,0.734375 0.71875,1.59375 0,0.875 -0.609375,1.703125 -2.09375,1.703125 -1.015625,0 -1.46875,-0.296875 -1.734375,-0.578125 -0.28125,-0.296875 -0.421875,-0.6875 -0.421875,-1.046875 0,-0.859375 0.5625,-1.359375 1.296875,-1.53125 z m 0,0"
           id="path39" />
      </g>
      <g
         id="use363"
         transform="translate(205.2455,160.69299)">
        <path
           d="m -0.34375,-3.359375 c 0,0.421875 -0.15625,0.4375 -0.40625,0.4375 H -3.15625 V -1.8125 h 0.125 c 0.015625,-0.484375 0.15625,-0.515625 0.4375,-0.515625 h 1.65625 c 0.21875,0 0.296875,0.046875 0.34375,0.109375 0.15625,0.1875 0.25,0.40625 0.25,0.609375 0,0.46875 -0.421875,0.53125 -0.53125,0.53125 H -3.15625 V -0.0625 h 0.109375 C -3.03125,-0.265625 -3.03125,-0.5 -2.609375,-0.5 h 1.765625 c 0.75,0 0.90625,-0.546875 0.90625,-0.828125 0,-0.125 -0.015625,-0.46875 -0.296875,-0.734375 L -0.53125,-2.359375 H 0.046875 L 0.0625,-2.375 C -0.0625,-2.703125 -0.15625,-2.96875 -0.25,-3.359375 Z m 0,0"
           id="path41" />
      </g>
      <g
         id="use364"
         transform="translate(205.2455,157.19299)">
        <path
           d="m -0.59375,-0.609375 c 0.46875,0 0.484375,0.21875 0.484375,0.5 H 0 v -1.5625 h -0.109375 c 0,0.25 -0.015625,0.484375 -0.359375,0.484375 H -2.4375 c -0.046875,0 -0.421875,-0.328125 -0.421875,-0.8125 0,-0.359375 0.28125,-0.484375 0.734375,-0.484375 h 1.515625 c 0.46875,0 0.484375,0.171875 0.5,0.484375 H 0 v -1.5625 h -0.109375 c 0,0.28125 -0.03125,0.5 -0.5625,0.5 h -1.75 c -0.25,-0.15625 -0.4375,-0.390625 -0.4375,-0.78125 0,-0.5 0.421875,-0.515625 0.765625,-0.515625 h 1.484375 c 0.453125,0 0.46875,0.125 0.5,0.46875 H 0 v -1.53125 H -0.109375 L -0.125,-5.25 c -0.046875,0.3125 -0.25,0.3125 -0.40625,0.3125 h -1.4375 c -0.515625,0 -1.25,0.09375 -1.25,0.828125 0,0.546875 0.421875,0.96875 0.59375,1.125 -0.296875,0.078125 -0.59375,0.296875 -0.59375,0.75 0,0.375 0.21875,0.65625 0.53125,1.078125 h -0.515625 l -0.015625,0.046875 c 0.125,0.3125 0.21875,0.640625 0.3125,0.96875 h 0.125 c -0.015625,-0.046875 -0.03125,-0.125 -0.03125,-0.21875 0,-0.109375 0,-0.25 0.453125,-0.25 z m 0,0"
           id="path40" />
      </g>
      <g
         id="use365"
         transform="translate(205.2455,151.74699)">
        <path
           d="m -0.34375,-3.359375 c 0,0.421875 -0.15625,0.4375 -0.40625,0.4375 H -3.15625 V -1.8125 h 0.125 c 0.015625,-0.484375 0.15625,-0.515625 0.4375,-0.515625 h 1.65625 c 0.21875,0 0.296875,0.046875 0.34375,0.109375 0.15625,0.1875 0.25,0.40625 0.25,0.609375 0,0.46875 -0.421875,0.53125 -0.53125,0.53125 H -3.15625 V -0.0625 h 0.109375 C -3.03125,-0.265625 -3.03125,-0.5 -2.609375,-0.5 h 1.765625 c 0.75,0 0.90625,-0.546875 0.90625,-0.828125 0,-0.125 -0.015625,-0.46875 -0.296875,-0.734375 L -0.53125,-2.359375 H 0.046875 L 0.0625,-2.375 C -0.0625,-2.703125 -0.15625,-2.96875 -0.25,-3.359375 Z m 0,0"
           id="path42" />
      </g>
      <g
         id="use366"
         transform="translate(205.2455,148.24699)">
        <path
           d="m 0,-0.140625 v -1.65625 H -0.109375 C -0.125,-1.390625 -0.1875,-1.28125 -0.59375,-1.28125 H -4.765625 L -4.78125,-1.25 c 0.125,0.375 0.21875,0.75 0.3125,1.109375 h 0.109375 C -4.375,-0.21875 -4.375,-0.28125 -4.375,-0.375 c 0,-0.265625 0.109375,-0.3125 0.421875,-0.3125 h 3.34375 c 0.390625,0 0.46875,0.125 0.5,0.546875 z m 0,0"
           id="path36" />
      </g>
      <g
         id="use367"
         transform="translate(205.2455,146.30099)">
        <path
           d="m -0.859375,-2.015625 c 0.203125,0 0.296875,0.03125 0.390625,0.25 0.046875,0.0625 0.125,0.28125 0.125,0.421875 0,0.265625 -0.203125,0.46875 -0.53125,0.46875 h -0.015625 c -0.25,0 -0.640625,-0.078125 -0.984375,-1.140625 z M -0.46875,-3.09375 c 0.0625,0.078125 0.140625,0.171875 0.140625,0.3125 0,0.203125 -0.203125,0.203125 -0.40625,0.203125 H -2.09375 c -0.421875,0 -1.125,0 -1.125,1.046875 0,0.8125 0.5,1.140625 0.78125,1.140625 0.109375,0 0.296875,-0.078125 0.296875,-0.296875 0,-0.1875 -0.140625,-0.328125 -0.296875,-0.328125 -0.0625,0 -0.171875,0.046875 -0.265625,0.046875 -0.21875,0 -0.34375,-0.265625 -0.34375,-0.5 0,-0.21875 0.078125,-0.546875 0.578125,-0.546875 h 0.421875 c 0.453125,1.140625 0.6875,1.75 1.390625,1.75 0.46875,0 0.71875,-0.359375 0.71875,-0.734375 0,-0.390625 -0.265625,-0.75 -0.5,-1.015625 0.5,-0.03125 0.5,-0.328125 0.5,-0.453125 0,-0.109375 0,-0.328125 -0.34375,-0.625 z m 0,0"
           id="path45" />
      </g>
      <g
         id="use368"
         transform="translate(205.2455,143.19299)">
        <path
           d="m -3.15625,-1.78125 v 0.703125 h -0.8125 c -0.046875,0 -0.078125,0 -0.078125,0.046875 0.359375,0.265625 0.515625,0.359375 0.796875,0.625 0.15625,0.15625 0.1875,0.3125 0.28125,0.3125 0.015625,0 0.03125,-0.015625 0.046875,-0.03125 V -0.484375 H -0.8125 c 0.6875,0 0.875,-0.296875 0.875,-0.65625 0,-0.3125 -0.21875,-0.640625 -0.53125,-0.8125 l -0.0625,0.09375 c 0.078125,0.078125 0.234375,0.203125 0.234375,0.421875 0,0.359375 -0.40625,0.359375 -0.625,0.359375 h -2 V -1.78125 Z m 0,0"
           id="path53" />
      </g>
      <g
         id="use369"
         transform="translate(205.2455,141.24699)">
        <path
           d="m 0,-0.109375 v -1.65625 H -0.109375 C -0.140625,-1.28125 -0.25,-1.25 -0.71875,-1.25 h -2.484375 l -0.015625,0.03125 c 0.125,0.359375 0.265625,0.71875 0.390625,1.078125 h 0.09375 c -0.015625,-0.09375 -0.03125,-0.1875 -0.03125,-0.28125 0,-0.109375 0.015625,-0.25 0.421875,-0.25 h 1.625 c 0.546875,0 0.59375,0.125 0.609375,0.5625 z m -4.421875,-0.4375 c 0.125,0 0.359375,-0.09375 0.359375,-0.34375 0,-0.21875 -0.15625,-0.375 -0.359375,-0.375 -0.203125,0 -0.359375,0.15625 -0.359375,0.375 0,0.234375 0.21875,0.34375 0.359375,0.34375 z m 0,0"
           id="path46" />
      </g>
    </g>
    <g
       fill="#231f20"
       fill-opacity="1"
       id="g370"
       transform="matrix(0.35277777,0,0,0.35277777,4.088641,104.67854)">
      <g
         id="use370"
         transform="translate(205.2455,139.476)">
        <path
           d="m -3.15625,-3.34375 v 0.984375 h 0.109375 C -3.03125,-2.546875 -2.96875,-2.6875 -2.8125,-2.6875 c 0.25,0 1.34375,0.484375 2.015625,0.734375 L -2.59375,-1.25 c -0.046875,0.03125 -0.15625,0.0625 -0.234375,0.0625 -0.1875,0 -0.203125,-0.15625 -0.21875,-0.3125 H -3.15625 v 1.359375 h 0.109375 c 0.015625,-0.125 0.046875,-0.265625 0.265625,-0.375 0.5,-0.25 2.109375,-0.921875 2.546875,-1.09375 0.296875,-0.109375 0.328125,-0.125 0.328125,-0.1875 0,-0.046875 -0.15625,-0.109375 -0.34375,-0.1875 L -2.5,-2.890625 C -2.90625,-3.046875 -3.03125,-3.09375 -3.046875,-3.34375 Z m 0,0"
           id="path51" />
      </g>
    </g>
    <g
       fill="#231f20"
       fill-opacity="1"
       id="g379"
       transform="matrix(0.35277777,0,0,0.35277777,4.088641,104.67854)">
      <g
         id="use371"
         transform="translate(205.2455,136.08099)">
        <path
           d="m -1.140625,-2.859375 c 0.25,0.171875 0.734375,0.46875 0.734375,1.09375 0,0.453125 -0.296875,1.03125 -1.53125,1.109375 v -2.171875 c -0.921875,0.0625 -1.28125,0.5625 -1.28125,1.21875 0,0.5625 0.421875,1.4375 1.71875,1.4375 1,0 1.5625,-0.53125 1.5625,-1.3125 0,-1 -0.9375,-1.40625 -1.15625,-1.484375 z m -1.015625,2.1875 c -0.625,-0.125 -0.8125,-0.390625 -0.8125,-0.78125 0,-0.546875 0.46875,-0.625 0.8125,-0.671875 z m 0,0"
           id="path52" />
      </g>
      <g
         id="use372"
         transform="translate(205.2455,132.97301)" />
      <g
         id="use373"
         transform="translate(205.2455,131.22301)">
        <path
           d="m -0.71875,-2.375 c 0.25,0.046875 0.421875,0.328125 0.421875,0.625 0,0.453125 -0.390625,0.953125 -1.4375,0.953125 -0.953125,0 -1.296875,-0.46875 -1.296875,-0.859375 0,-0.328125 0.234375,-0.671875 0.703125,-0.71875 z m 0.3125,-1.0625 c 0.03125,0.46875 -0.109375,0.46875 -0.390625,0.46875 h -3.96875 L -4.78125,-2.9375 c 0.125,0.34375 0.21875,0.6875 0.3125,1.03125 h 0.109375 C -4.375,-1.953125 -4.375,-2.03125 -4.375,-2.078125 -4.375,-2.375 -4.21875,-2.375 -4.015625,-2.375 h 1.09375 c -0.203125,0.21875 -0.296875,0.4375 -0.296875,0.734375 0,0.78125 0.796875,1.453125 1.71875,1.453125 1.4375,0 1.5625,-1 1.5625,-1.28125 0,-0.515625 -0.25,-0.765625 -0.4375,-0.890625 V -2.375 H 0.046875 L 0.0625,-2.40625 c -0.125,-0.375 -0.234375,-0.6875 -0.359375,-1.03125 z m 0,0"
           id="path57" />
      </g>
      <g
         id="use374"
         transform="translate(205.2455,127.723)">
        <path
           d="m 0,-0.109375 v -1.65625 H -0.109375 C -0.140625,-1.28125 -0.25,-1.25 -0.71875,-1.25 h -2.484375 l -0.015625,0.03125 c 0.125,0.359375 0.265625,0.71875 0.390625,1.078125 h 0.09375 c -0.015625,-0.09375 -0.03125,-0.1875 -0.03125,-0.28125 0,-0.109375 0.015625,-0.25 0.421875,-0.25 h 1.625 c 0.546875,0 0.59375,0.125 0.609375,0.5625 z m -4.421875,-0.4375 c 0.125,0 0.359375,-0.09375 0.359375,-0.34375 0,-0.21875 -0.15625,-0.375 -0.359375,-0.375 -0.203125,0 -0.359375,0.15625 -0.359375,0.375 0,0.234375 0.21875,0.34375 0.359375,0.34375 z m 0,0"
           id="path47" />
      </g>
      <g
         id="use375"
         transform="translate(205.2455,125.777)">
        <path
           d="m -2.203125,-2.203125 -0.953125,0.03125 v 0.078125 c 0.03125,0.015625 0.078125,0.046875 0.078125,0.109375 0,0.125 -0.140625,0.34375 -0.140625,0.640625 0,0.6875 0.453125,0.984375 0.859375,0.984375 0.515625,0 0.765625,-0.375 1.015625,-0.8125 l 0.234375,-0.40625 c 0.125,-0.234375 0.296875,-0.375 0.515625,-0.375 0.390625,0 0.515625,0.34375 0.515625,0.578125 0,0.6875 -0.609375,0.8125 -0.984375,0.90625 v 0.109375 h 1.09375 v -0.09375 C -0.03125,-0.5 -0.0625,-0.53125 -0.0625,-0.609375 c 0,-0.203125 0.125,-0.5 0.125,-0.8125 0,-0.453125 -0.28125,-1.015625 -0.890625,-1.015625 -0.421875,0 -0.625,0.25 -0.828125,0.59375 l -0.453125,0.75 c -0.15625,0.265625 -0.359375,0.296875 -0.5,0.296875 -0.171875,0 -0.453125,-0.140625 -0.453125,-0.53125 0,-0.296875 0.15625,-0.625 0.859375,-0.765625 z m 0,0"
           id="path58" />
      </g>
      <g
         id="use376"
         transform="translate(205.2455,123.054)">
        <path
           d="m -3.15625,-1.78125 v 0.703125 h -0.8125 c -0.046875,0 -0.078125,0 -0.078125,0.046875 0.359375,0.265625 0.515625,0.359375 0.796875,0.625 0.15625,0.15625 0.1875,0.3125 0.28125,0.3125 0.015625,0 0.03125,-0.015625 0.046875,-0.03125 V -0.484375 H -0.8125 c 0.6875,0 0.875,-0.296875 0.875,-0.65625 0,-0.3125 -0.21875,-0.640625 -0.53125,-0.8125 l -0.0625,0.09375 c 0.078125,0.078125 0.234375,0.203125 0.234375,0.421875 0,0.359375 -0.40625,0.359375 -0.625,0.359375 h -2 V -1.78125 Z m 0,0"
           id="path54" />
      </g>
      <g
         id="use377"
         transform="translate(205.2455,121.108)">
        <path
           d="m -0.59375,-0.53125 c 0.390625,0 0.421875,0.109375 0.484375,0.5 H 0 v -1.6875 H -0.109375 C -0.125,-1.359375 -0.140625,-1.125 -0.625,-1.125 h -1.578125 c -0.21875,0 -0.578125,-0.296875 -0.578125,-0.46875 0,-0.171875 0.25,-0.234375 0.25,-0.484375 0,-0.171875 -0.140625,-0.265625 -0.3125,-0.265625 -0.234375,0 -0.375,0.140625 -0.375,0.375 0,0.265625 0.140625,0.5 0.640625,0.828125 V -1.125 h -0.625 l -0.015625,0.046875 c 0.140625,0.34375 0.265625,0.6875 0.375,1.03125 h 0.109375 C -2.75,-0.109375 -2.765625,-0.1875 -2.765625,-0.28125 c 0,-0.125 0.015625,-0.25 0.421875,-0.25 z m 0,0"
           id="path11" />
      </g>
      <g
         id="use378"
         transform="translate(205.2455,118.777)">
        <path
           d="m 0,-0.109375 v -1.65625 H -0.109375 C -0.140625,-1.28125 -0.25,-1.25 -0.71875,-1.25 h -2.484375 l -0.015625,0.03125 c 0.125,0.359375 0.265625,0.71875 0.390625,1.078125 h 0.09375 c -0.015625,-0.09375 -0.03125,-0.1875 -0.03125,-0.28125 0,-0.109375 0.015625,-0.25 0.421875,-0.25 h 1.625 c 0.546875,0 0.59375,0.125 0.609375,0.5625 z m -4.421875,-0.4375 c 0.125,0 0.359375,-0.09375 0.359375,-0.34375 0,-0.21875 -0.15625,-0.375 -0.359375,-0.375 -0.203125,0 -0.359375,0.15625 -0.359375,0.375 0,0.234375 0.21875,0.34375 0.359375,0.34375 z m 0,0"
           id="path48" />
      </g>
      <g
         id="use379"
         transform="translate(205.2455,116.831)">
        <path
           d="m -2.25,-1.078125 c -0.40625,-0.015625 -0.53125,-0.46875 -0.53125,-0.6875 0,-0.640625 0.71875,-0.890625 1.375,-0.890625 0.46875,0 1.25,0.109375 1.25,0.90625 0,0.1875 -0.09375,0.671875 -0.328125,0.671875 z m 1.875,0.59375 c 0.25,0 0.4375,-0.734375 0.4375,-1.078125 0,-1.296875 -1.09375,-1.71875 -1.734375,-1.71875 -0.75,0 -1.546875,0.40625 -1.546875,1.25 0,0.53125 0.40625,0.90625 0.5625,0.953125 H -4.765625 L -4.78125,-1.03125 c 0.125,0.328125 0.21875,0.671875 0.3125,1.015625 h 0.109375 C -4.375,-0.0625 -4.375,-0.140625 -4.375,-0.171875 c 0,-0.3125 0.15625,-0.3125 0.359375,-0.3125 z m 0,0"
           id="path10" />
      </g>
    </g>
    <g
       fill="#231f20"
       fill-opacity="1"
       id="g393"
       transform="matrix(0.35277777,0,0,0.35277777,4.088641,104.67854)">
      <g
         id="use380"
         transform="translate(205.2455,113.471)">
        <path
           d="m -0.34375,-3.359375 c 0,0.421875 -0.15625,0.4375 -0.40625,0.4375 H -3.15625 V -1.8125 h 0.125 c 0.015625,-0.484375 0.15625,-0.515625 0.4375,-0.515625 h 1.65625 c 0.21875,0 0.296875,0.046875 0.34375,0.109375 0.15625,0.1875 0.25,0.40625 0.25,0.609375 0,0.46875 -0.421875,0.53125 -0.53125,0.53125 H -3.15625 V -0.0625 h 0.109375 C -3.03125,-0.265625 -3.03125,-0.5 -2.609375,-0.5 h 1.765625 c 0.75,0 0.90625,-0.546875 0.90625,-0.828125 0,-0.125 -0.015625,-0.46875 -0.296875,-0.734375 L -0.53125,-2.359375 H 0.046875 L 0.0625,-2.375 C -0.0625,-2.703125 -0.15625,-2.96875 -0.25,-3.359375 Z m 0,0"
           id="path43" />
      </g>
      <g
         id="use381"
         transform="translate(205.2455,109.971)">
        <path
           d="m -3.15625,-1.78125 v 0.703125 h -0.8125 c -0.046875,0 -0.078125,0 -0.078125,0.046875 0.359375,0.265625 0.515625,0.359375 0.796875,0.625 0.15625,0.15625 0.1875,0.3125 0.28125,0.3125 0.015625,0 0.03125,-0.015625 0.046875,-0.03125 V -0.484375 H -0.8125 c 0.6875,0 0.875,-0.296875 0.875,-0.65625 0,-0.3125 -0.21875,-0.640625 -0.53125,-0.8125 l -0.0625,0.09375 c 0.078125,0.078125 0.234375,0.203125 0.234375,0.421875 0,0.359375 -0.40625,0.359375 -0.625,0.359375 h -2 V -1.78125 Z m 0,0"
           id="path55" />
      </g>
      <g
         id="use382"
         transform="translate(205.2455,108.025)">
        <path
           d="m 0,-0.109375 v -1.65625 H -0.109375 C -0.140625,-1.28125 -0.25,-1.25 -0.71875,-1.25 h -2.484375 l -0.015625,0.03125 c 0.125,0.359375 0.265625,0.71875 0.390625,1.078125 h 0.09375 c -0.015625,-0.09375 -0.03125,-0.1875 -0.03125,-0.28125 0,-0.109375 0.015625,-0.25 0.421875,-0.25 h 1.625 c 0.546875,0 0.59375,0.125 0.609375,0.5625 z m -4.421875,-0.4375 c 0.125,0 0.359375,-0.09375 0.359375,-0.34375 0,-0.21875 -0.15625,-0.375 -0.359375,-0.375 -0.203125,0 -0.359375,0.15625 -0.359375,0.375 0,0.234375 0.21875,0.34375 0.359375,0.34375 z m 0,0"
           id="path49" />
      </g>
      <g
         id="use383"
         transform="translate(205.2455,106.079)">
        <path
           d="m -3.21875,-1.71875 c 0,0.9375 0.765625,1.515625 1.625,1.515625 0.9375,0 1.65625,-0.625 1.65625,-1.53125 0,-1.0625 -0.96875,-1.5625 -1.65625,-1.5625 -1.015625,0 -1.625,0.671875 -1.625,1.578125 z M -0.125,-1.828125 c 0,0.828125 -1.28125,1 -1.8125,1 -0.71875,0 -1.09375,-0.390625 -1.09375,-0.828125 0,-0.640625 0.765625,-1 1.640625,-1 1,0 1.265625,0.46875 1.265625,0.828125 z m 0,0"
           id="path8" />
      </g>
      <g
         id="use384"
         transform="translate(205.2455,102.579)">
        <path
           d="m -0.625,-0.5625 c 0.40625,0 0.5,0.109375 0.515625,0.4375 H 0 V -1.609375 H -0.109375 C -0.125,-1.25 -0.234375,-1.140625 -0.46875,-1.140625 H -2.4375 C -2.6875,-1.40625 -2.828125,-1.625 -2.828125,-1.84375 c 0,-0.40625 0.25,-0.53125 0.671875,-0.53125 h 1.46875 c 0.53125,0 0.5625,0.171875 0.578125,0.4375 H 0 v -1.453125 h -0.109375 c -0.03125,0.34375 -0.125,0.421875 -0.453125,0.421875 h -1.609375 c -0.859375,0 -1.046875,0.5 -1.046875,0.8125 0,0.421875 0.25,0.6875 0.5625,1.03125 h -0.546875 l -0.015625,0.046875 c 0.125,0.328125 0.21875,0.65625 0.3125,0.96875 h 0.125 C -2.796875,-0.140625 -2.8125,-0.21875 -2.8125,-0.3125 c 0,-0.109375 0,-0.25 0.453125,-0.25 z m 0,0"
           id="path5" />
      </g>
      <g
         id="use385"
         transform="translate(205.2455,99.079002)" />
      <g
         id="use386"
         transform="translate(205.2455,97.329002)">
        <path
           d="m -3.15625,-2.15625 v 0.859375 h -0.8125 c -0.25,0 -0.609375,-0.046875 -0.609375,-0.421875 0,-0.328125 0.515625,-0.375 0.515625,-0.65625 0,-0.140625 -0.09375,-0.3125 -0.296875,-0.3125 -0.234375,0 -0.421875,0.3125 -0.421875,0.703125 0,1.265625 1.234375,1.265625 1.625,1.265625 v 0.578125 h 0.234375 V -0.71875 h 2.1875 c 0.546875,0 0.609375,0.109375 0.625,0.578125 H 0 v -1.8125 H -0.109375 C -0.125,-1.3125 -0.296875,-1.3125 -0.734375,-1.3125 h -2.1875 v -0.84375 z m 0,0"
           id="path4" />
      </g>
      <g
         id="use387"
         transform="translate(205.2455,94.998001)">
        <path
           d="m -0.34375,-3.359375 c 0,0.421875 -0.15625,0.4375 -0.40625,0.4375 H -3.15625 V -1.8125 h 0.125 c 0.015625,-0.484375 0.15625,-0.515625 0.4375,-0.515625 h 1.65625 c 0.21875,0 0.296875,0.046875 0.34375,0.109375 0.15625,0.1875 0.25,0.40625 0.25,0.609375 0,0.46875 -0.421875,0.53125 -0.53125,0.53125 H -3.15625 V -0.0625 h 0.109375 C -3.03125,-0.265625 -3.03125,-0.5 -2.609375,-0.5 h 1.765625 c 0.75,0 0.90625,-0.546875 0.90625,-0.828125 0,-0.125 -0.015625,-0.46875 -0.296875,-0.734375 L -0.53125,-2.359375 H 0.046875 L 0.0625,-2.375 C -0.0625,-2.703125 -0.15625,-2.96875 -0.25,-3.359375 Z m 0,0"
           id="path44" />
      </g>
      <g
         id="use388"
         transform="translate(205.2455,91.498001)">
        <path
           d="m -0.625,-0.5625 c 0.40625,0 0.5,0.109375 0.515625,0.4375 H 0 V -1.609375 H -0.109375 C -0.125,-1.25 -0.234375,-1.140625 -0.46875,-1.140625 H -2.4375 C -2.6875,-1.40625 -2.828125,-1.625 -2.828125,-1.84375 c 0,-0.40625 0.25,-0.53125 0.671875,-0.53125 h 1.46875 c 0.53125,0 0.5625,0.171875 0.578125,0.4375 H 0 v -1.453125 h -0.109375 c -0.03125,0.34375 -0.125,0.421875 -0.453125,0.421875 h -1.609375 c -0.859375,0 -1.046875,0.5 -1.046875,0.8125 0,0.421875 0.25,0.6875 0.5625,1.03125 h -0.546875 l -0.015625,0.046875 c 0.125,0.328125 0.21875,0.65625 0.3125,0.96875 h 0.125 C -2.796875,-0.140625 -2.8125,-0.21875 -2.8125,-0.3125 c 0,-0.109375 0,-0.25 0.453125,-0.25 z m 0,0"
           id="path6" />
      </g>
      <g
         id="use389"
         transform="translate(205.2455,87.998001)">
        <path
           d="m -1.09375,-2.78125 c 0.359375,0.234375 0.65625,0.5 0.65625,1 0,0.578125 -0.53125,1.0625 -1.328125,1.0625 -1.03125,0 -1.25,-0.640625 -1.25,-0.890625 0,-0.375 0.125,-0.40625 0.328125,-0.46875 L -2.53125,-2.125 c 0.15625,-0.03125 0.34375,-0.15625 0.328125,-0.34375 -0.015625,-0.203125 -0.15625,-0.3125 -0.3125,-0.3125 -0.125,0 -0.34375,0.09375 -0.484375,0.296875 C -3.109375,-2.3125 -3.21875,-2 -3.21875,-1.75 c 0,0.765625 0.578125,1.578125 1.734375,1.578125 1.09375,0 1.546875,-0.75 1.546875,-1.3125 0,-0.5625 -0.296875,-1.015625 -1.09375,-1.40625 z m 0,0"
           id="path3" />
      </g>
      <g
         id="use390"
         transform="translate(205.2455,84.889999)">
        <path
           d="m -3.15625,-1.78125 v 0.703125 h -0.8125 c -0.046875,0 -0.078125,0 -0.078125,0.046875 0.359375,0.265625 0.515625,0.359375 0.796875,0.625 0.15625,0.15625 0.1875,0.3125 0.28125,0.3125 0.015625,0 0.03125,-0.015625 0.046875,-0.03125 V -0.484375 H -0.8125 c 0.6875,0 0.875,-0.296875 0.875,-0.65625 0,-0.3125 -0.21875,-0.640625 -0.53125,-0.8125 l -0.0625,0.09375 c 0.078125,0.078125 0.234375,0.203125 0.234375,0.421875 0,0.359375 -0.40625,0.359375 -0.625,0.359375 h -2 V -1.78125 Z m 0,0"
           id="path56" />
      </g>
      <g
         id="use391"
         transform="translate(205.2455,82.944)">
        <path
           d="m 0,-0.109375 v -1.65625 H -0.109375 C -0.140625,-1.28125 -0.25,-1.25 -0.71875,-1.25 h -2.484375 l -0.015625,0.03125 c 0.125,0.359375 0.265625,0.71875 0.390625,1.078125 h 0.09375 c -0.015625,-0.09375 -0.03125,-0.1875 -0.03125,-0.28125 0,-0.109375 0.015625,-0.25 0.421875,-0.25 h 1.625 c 0.546875,0 0.59375,0.125 0.609375,0.5625 z m -4.421875,-0.4375 c 0.125,0 0.359375,-0.09375 0.359375,-0.34375 0,-0.21875 -0.15625,-0.375 -0.359375,-0.375 -0.203125,0 -0.359375,0.15625 -0.359375,0.375 0,0.234375 0.21875,0.34375 0.359375,0.34375 z m 0,0"
           id="path50" />
      </g>
      <g
         id="use392"
         transform="translate(205.2455,80.998001)">
        <path
           d="m -3.21875,-1.71875 c 0,0.9375 0.765625,1.515625 1.625,1.515625 0.9375,0 1.65625,-0.625 1.65625,-1.53125 0,-1.0625 -0.96875,-1.5625 -1.65625,-1.5625 -1.015625,0 -1.625,0.671875 -1.625,1.578125 z M -0.125,-1.828125 c 0,0.828125 -1.28125,1 -1.8125,1 -0.71875,0 -1.09375,-0.390625 -1.09375,-0.828125 0,-0.640625 0.765625,-1 1.640625,-1 1,0 1.265625,0.46875 1.265625,0.828125 z m 0,0"
           id="path9" />
      </g>
      <g
         id="use393"
         transform="translate(205.2455,77.498001)">
        <path
           d="m -0.625,-0.5625 c 0.40625,0 0.5,0.109375 0.515625,0.4375 H 0 V -1.609375 H -0.109375 C -0.125,-1.25 -0.234375,-1.140625 -0.46875,-1.140625 H -2.4375 C -2.6875,-1.40625 -2.828125,-1.625 -2.828125,-1.84375 c 0,-0.40625 0.25,-0.53125 0.671875,-0.53125 h 1.46875 c 0.53125,0 0.5625,0.171875 0.578125,0.4375 H 0 v -1.453125 h -0.109375 c -0.03125,0.34375 -0.125,0.421875 -0.453125,0.421875 h -1.609375 c -0.859375,0 -1.046875,0.5 -1.046875,0.8125 0,0.421875 0.25,0.6875 0.5625,1.03125 h -0.546875 l -0.015625,0.046875 c 0.125,0.328125 0.21875,0.65625 0.3125,0.96875 h 0.125 C -2.796875,-0.140625 -2.8125,-0.21875 -2.8125,-0.3125 c 0,-0.109375 0,-0.25 0.453125,-0.25 z m 0,0"
           id="path7" />
      </g>
    </g>
    <g
       fill="#231f20"
       fill-opacity="1"
       id="g394"
       transform="matrix(0.35277777,0,0,0.35277777,4.088641,104.67854)">
      <g
         id="use394"
         transform="translate(351.64749,184.218)">
        <path
           d="M 3.296875,-1.609375 H 2.59375 v -3.125 h -0.3125 l -2.203125,3.125 v 0.4375 h 1.96875 V 0 H 2.59375 v -1.171875 h 0.703125 z m -1.25,0 h -1.6875 L 2.03125,-4 h 0.015625 z m 0,0"
           id="path16" />
      </g>
    </g>
    <g
       fill="#231f20"
       fill-opacity="1"
       id="g395"
       transform="matrix(0.35277777,0,0,0.35277777,4.088641,104.67854)">
      <g
         id="use395"
         transform="translate(319.1955,184.218)">
        <path
           d="m 1.078125,-2.3125 c 0.46875,-0.015625 0.65625,0.03125 0.90625,0.15625 0.4375,0.234375 0.53125,0.75 0.53125,0.921875 0,0.53125 -0.296875,1.078125 -0.9375,1.078125 -0.421875,0 -0.6875,-0.390625 -1,-0.390625 -0.109375,0 -0.28125,0.046875 -0.28125,0.25 0,0.359375 0.609375,0.390625 0.78125,0.390625 1.09375,0 1.9375,-0.609375 1.9375,-1.609375 0,-0.921875 -0.59375,-1.171875 -0.890625,-1.296875 0.46875,-0.296875 0.65625,-0.59375 0.65625,-0.96875 0,-0.296875 -0.1875,-0.953125 -1.09375,-0.953125 -0.46875,0 -1.09375,0.21875 -1.375,1.140625 l 0.109375,0.03125 c 0.109375,-0.203125 0.390625,-0.75 1.03125,-0.75 0.515625,0 0.765625,0.375 0.765625,0.734375 0,0.640625 -0.515625,0.96875 -1.15625,1.171875 z m 0,0"
           id="path59" />
      </g>
    </g>
    <path
       fill="none"
       stroke-width="0.176389"
       stroke-linecap="butt"
       stroke-linejoin="miter"
       stroke="#231f20"
       stroke-opacity="1"
       stroke-miterlimit="4"
       d="M 82.826986,170.24973 V 128.49104"
       id="path395" />
    <path
       fill-rule="nonzero"
       fill="#231f20"
       fill-opacity="1"
       d="m 82.826985,128.49104 -0.635275,0.38585 -0.01379,-0.0221 0.410654,-1.03628 c 0.07993,-0.36105 0.158475,-0.7221 0.238401,-1.08314 0.07993,0.36104 0.158474,0.72209 0.2384,1.08314 l 0.412034,1.03628 -0.01101,0.0221 -0.63941,-0.38585"
       id="path396"
       style="stroke-width:0.352778" />
    <path
       fill-rule="nonzero"
       fill="#231f20"
       fill-opacity="1"
       d="m 133.69864,166.004 -0.38723,-0.63528 0.0221,-0.0138 1.03629,0.41065 c 0.36104,0.0799 0.72209,0.15986 1.08313,0.2384 -0.36104,0.0799 -0.72209,0.15986 -1.08313,0.2384 l -1.03629,0.41204 -0.0221,-0.011 0.38723,-0.63941"
       id="path397"
       style="stroke-width:0.352778" />
    <g
       fill="#231f20"
       fill-opacity="1"
       id="g397"
       transform="matrix(0.35277777,0,0,0.35277777,4.088641,104.67854)">
      <g
         id="use397"
         transform="translate(367.4295,181.83701)">
        <path
           d="m 3.21875,-0.890625 c -0.21875,0.25 -0.375,0.53125 -0.546875,0.53125 -0.15625,0 -0.21875,-0.1875 -0.25,-0.328125 -0.046875,-0.1875 -0.3125,-1.28125 -0.3125,-1.421875 0,0 0.53125,-0.96875 0.765625,-0.96875 0.1875,0 0.234375,0.140625 0.421875,0.140625 0.203125,0 0.28125,-0.15625 0.28125,-0.296875 0,-0.203125 -0.171875,-0.296875 -0.328125,-0.296875 -0.421875,0 -0.796875,0.484375 -1.203125,1.140625 l -0.09375,-0.4375 C 1.8125,-3.53125 1.6875,-3.53125 1.515625,-3.53125 c -0.265625,0 -0.78125,0.1875 -1,0.265625 l 0.03125,0.125 c 0.25,-0.0625 0.359375,-0.09375 0.4375,-0.09375 0.21875,0 0.25,0.109375 0.3125,0.359375 0.015625,0.046875 0.28125,1.109375 0.28125,1.171875 -0.71875,1.0625 -0.921875,1.328125 -1.0625,1.328125 -0.140625,0 -0.28125,-0.15625 -0.453125,-0.15625 -0.1875,0 -0.28125,0.140625 -0.28125,0.28125 0,0.1875 0.125,0.34375 0.390625,0.34375 0.25,0 0.34375,-0.09375 0.484375,-0.25 0.265625,-0.296875 0.609375,-0.71875 0.984375,-1.25 l 0.25,0.953125 c 0.09375,0.421875 0.21875,0.546875 0.453125,0.546875 0.1875,0 0.421875,0 0.984375,-0.921875 z m 0,0"
           id="path1" />
      </g>
    </g>
    <path
       fill="none"
       stroke-width="0.352778"
       stroke-linecap="butt"
       stroke-linejoin="miter"
       stroke="#231f20"
       stroke-opacity="1"
       stroke-miterlimit="4"
       d="M 82.839388,166.004 H 94.2523 l 23.87865,-32.22129 h 15.26452"
       id="path398" />
  </g>
</svg>
