<?xml version="1.0" encoding="UTF-8" standalone="no"?>
<!-- Created with Inkscape (http://www.inkscape.org/) -->

<svg
   width="88.121826mm"
   height="47.005081mm"
   viewBox="0 0 88.121826 47.005081"
   version="1.1"
   id="svg1"
   inkscape:version="1.3.2 (091e20e, 2023-11-25)"
   sodipodi:docname="fig-3-7.svg"
   xmlns:inkscape="http://www.inkscape.org/namespaces/inkscape"
   xmlns:sodipodi="http://sodipodi.sourceforge.net/DTD/sodipodi-0.dtd"
   xmlns="http://www.w3.org/2000/svg"
   xmlns:svg="http://www.w3.org/2000/svg">
  <sodipodi:namedview
     id="namedview1"
     pagecolor="#ffffff"
     bordercolor="#000000"
     borderopacity="0.25"
     inkscape:showpageshadow="2"
     inkscape:pageopacity="0.0"
     inkscape:pagecheckerboard="0"
     inkscape:deskcolor="#d1d1d1"
     inkscape:document-units="mm"
     inkscape:zoom="0.2102413"
     inkscape:cx="164.09716"
     inkscape:cy="90.372348"
     inkscape:window-width="1312"
     inkscape:window-height="449"
     inkscape:window-x="0"
     inkscape:window-y="38"
     inkscape:window-maximized="0"
     inkscape:current-layer="layer1" />
  <defs
     id="defs1" />
  <g
     inkscape:label="Layer 1"
     inkscape:groupmode="layer"
     id="layer1"
     transform="translate(-61.11298,-124.8859)">
    <path
       fill-rule="nonzero"
       fill="#d1d2d4"
       fill-opacity="1"
       d="m 92.296861,166.10184 -0.143316,0.0648 -0.122643,0.0441 c -0.974273,0.39825 -2.124935,0.69316 -3.16811,0.81166 l -0.124022,0.0221 -0.144696,0.0207 c -2.797418,0.34037 -5.749173,0.28249 -8.557616,0.3073 l -0.124022,0.0221 h -8.433594 v 0.003 h 20.914483 v -1.34772 l -0.09646,0.0524"
       id="path2161"
       style="stroke-width:0.352778" />
    <path
       fill="none"
       stroke-width="0.186972"
       stroke-linecap="butt"
       stroke-linejoin="miter"
       stroke="#231f20"
       stroke-opacity="1"
       stroke-miterlimit="4"
       d="m 66.349783,135.26272 h 2.243446 m -2.243446,5.35506 h 2.243446 m -2.243446,5.35505 h 2.243446 m -2.243446,5.35506 h 2.243446 m -2.243446,5.35506 h 2.243446 m -2.243446,5.35505 h 2.243446 m 55.517021,6.4754 v -2.24344"
       id="path2162" />
    <g
       fill="#231f20"
       fill-opacity="1"
       id="g2165"
       transform="matrix(0.35277777,0,0,0.35277777,-9.1984037,-63.82521)">
      <g
         id="use2162"
         transform="translate(199.13599,642.54303)">
        <path
           d="m 1.859375,-4.828125 c 0.953125,0 0.96875,1.859375 0.96875,2.375 0,0.578125 -0.015625,2.359375 -0.96875,2.359375 -0.953125,0 -0.96875,-1.765625 -0.96875,-2.359375 0,-0.515625 0.015625,-2.375 0.96875,-2.375 z m 0,-0.1875 c -1.375,0 -1.6875,1.6875 -1.6875,2.5625 0,0.890625 0.3125,2.5625 1.6875,2.5625 1.359375,0 1.671875,-1.671875 1.671875,-2.5625 0,-0.875 -0.3125,-2.5625 -1.671875,-2.5625 z m 0,0"
           id="path54" />
      </g>
      <g
         id="use2163"
         transform="translate(202.84599,642.54303)">
        <path
           d="m 0.921875,0.078125 c 0.15625,0 0.421875,-0.125 0.421875,-0.390625 0,-0.234375 -0.1875,-0.4375 -0.421875,-0.4375 -0.21875,0 -0.40625,0.1875 -0.40625,0.4375 0,0.28125 0.25,0.390625 0.40625,0.390625 z m 0,0"
           id="path47" />
      </g>
      <g
         id="use2164"
         transform="translate(204.70099,642.54303)">
        <path
           d="m 1.859375,-4.828125 c 0.953125,0 0.96875,1.859375 0.96875,2.375 0,0.578125 -0.015625,2.359375 -0.96875,2.359375 -0.953125,0 -0.96875,-1.765625 -0.96875,-2.359375 0,-0.515625 0.015625,-2.375 0.96875,-2.375 z m 0,-0.1875 c -1.375,0 -1.6875,1.6875 -1.6875,2.5625 0,0.890625 0.3125,2.5625 1.6875,2.5625 1.359375,0 1.671875,-1.671875 1.671875,-2.5625 0,-0.875 -0.3125,-2.5625 -1.671875,-2.5625 z m 0,0"
           id="path55" />
      </g>
      <g
         id="use2165"
         transform="translate(208.411,642.54303)">
        <path
           d="M 3.53125,-1.015625 3.421875,-1.046875 C 3.140625,-0.59375 3,-0.5625 2.71875,-0.5625 H 0.953125 l 1.25,-1.3125 c 0.328125,-0.34375 0.9375,-1.015625 0.9375,-1.8125 0,-0.828125 -0.65625,-1.328125 -1.34375,-1.328125 -0.640625,0 -1.34375,0.359375 -1.5625,1.46875 L 0.390625,-3.5 c 0.15625,-0.40625 0.375,-0.96875 1.0625,-0.96875 0.875,0 1.0625,0.6875 1.0625,1.0625 0,0.5625 -0.328125,1.21875 -0.96875,1.921875 L 0.21875,-0.09375 V 0 H 3.125 Z m 0,0"
           id="path43" />
      </g>
    </g>
    <g
       fill="#231f20"
       fill-opacity="1"
       id="g2166"
       transform="matrix(0.35277777,0,0,0.35277777,-9.1984037,-63.82521)">
      <g
         id="use2166"
         transform="translate(210.85959,663.37836)">
        <path
           d="m 1.859375,-4.828125 c 0.953125,0 0.96875,1.859375 0.96875,2.375 0,0.578125 -0.015625,2.359375 -0.96875,2.359375 -0.953125,0 -0.96875,-1.765625 -0.96875,-2.359375 0,-0.515625 0.015625,-2.375 0.96875,-2.375 z m 0,-0.1875 c -1.375,0 -1.6875,1.6875 -1.6875,2.5625 0,0.890625 0.3125,2.5625 1.6875,2.5625 1.359375,0 1.671875,-1.671875 1.671875,-2.5625 0,-0.875 -0.3125,-2.5625 -1.671875,-2.5625 z m 0,0"
           id="path56" />
      </g>
    </g>
    <g
       fill="#231f20"
       fill-opacity="1"
       id="g2170"
       transform="matrix(0.35277777,0,0,0.35277777,-9.1984037,-63.82521)">
      <g
         id="use2167"
         transform="translate(199.13599,566.73285)">
        <path
           d="m 1.859375,-4.828125 c 0.953125,0 0.96875,1.859375 0.96875,2.375 0,0.578125 -0.015625,2.359375 -0.96875,2.359375 -0.953125,0 -0.96875,-1.765625 -0.96875,-2.359375 0,-0.515625 0.015625,-2.375 0.96875,-2.375 z m 0,-0.1875 c -1.375,0 -1.6875,1.6875 -1.6875,2.5625 0,0.890625 0.3125,2.5625 1.6875,2.5625 1.359375,0 1.671875,-1.671875 1.671875,-2.5625 0,-0.875 -0.3125,-2.5625 -1.671875,-2.5625 z m 0,0"
           id="path57" />
      </g>
      <g
         id="use2168"
         transform="translate(202.84599,566.73285)">
        <path
           d="m 0.921875,0.078125 c 0.15625,0 0.421875,-0.125 0.421875,-0.390625 0,-0.234375 -0.1875,-0.4375 -0.421875,-0.4375 -0.21875,0 -0.40625,0.1875 -0.40625,0.4375 0,0.28125 0.25,0.390625 0.40625,0.390625 z m 0,0"
           id="path48" />
      </g>
      <g
         id="use2169"
         transform="translate(204.70099,566.73285)">
        <path
           d="M 0.875,0 H 2.921875 V -0.109375 C 2.375,-0.109375 2.21875,-0.1875 2.21875,-0.546875 V -5 L 2.15625,-5.015625 0.828125,-4.34375 v 0.109375 c 0.40625,-0.171875 0.40625,-0.171875 0.5,-0.171875 0.25,0 0.25,0.203125 0.25,0.359375 V -0.6875 c 0,0.546875 -0.265625,0.5625 -0.703125,0.578125 z m 0,0"
           id="path38" />
      </g>
      <g
         id="use2170"
         transform="translate(208.411,566.73285)">
        <path
           d="M 3.53125,-1.015625 3.421875,-1.046875 C 3.140625,-0.59375 3,-0.5625 2.71875,-0.5625 H 0.953125 l 1.25,-1.3125 c 0.328125,-0.34375 0.9375,-1.015625 0.9375,-1.8125 0,-0.828125 -0.65625,-1.328125 -1.34375,-1.328125 -0.640625,0 -1.34375,0.359375 -1.5625,1.46875 L 0.390625,-3.5 c 0.15625,-0.40625 0.375,-0.96875 1.0625,-0.96875 0.875,0 1.0625,0.6875 1.0625,1.0625 0,0.5625 -0.328125,1.21875 -0.96875,1.921875 L 0.21875,-0.09375 V 0 H 3.125 Z m 0,0"
           id="path44" />
      </g>
    </g>
    <g
       fill="#231f20"
       fill-opacity="1"
       id="g2174"
       transform="matrix(0.35277777,0,0,0.35277777,-9.1984037,-63.82521)">
      <g
         id="use2171"
         transform="translate(199.13599,581.78064)">
        <path
           d="m 1.859375,-4.828125 c 0.953125,0 0.96875,1.859375 0.96875,2.375 0,0.578125 -0.015625,2.359375 -0.96875,2.359375 -0.953125,0 -0.96875,-1.765625 -0.96875,-2.359375 0,-0.515625 0.015625,-2.375 0.96875,-2.375 z m 0,-0.1875 c -1.375,0 -1.6875,1.6875 -1.6875,2.5625 0,0.890625 0.3125,2.5625 1.6875,2.5625 1.359375,0 1.671875,-1.671875 1.671875,-2.5625 0,-0.875 -0.3125,-2.5625 -1.671875,-2.5625 z m 0,0"
           id="path58" />
      </g>
      <g
         id="use2172"
         transform="translate(202.84599,581.78064)">
        <path
           d="m 0.921875,0.078125 c 0.15625,0 0.421875,-0.125 0.421875,-0.390625 0,-0.234375 -0.1875,-0.4375 -0.421875,-0.4375 -0.21875,0 -0.40625,0.1875 -0.40625,0.4375 0,0.28125 0.25,0.390625 0.40625,0.390625 z m 0,0"
           id="path49" />
      </g>
      <g
         id="use2173"
         transform="translate(204.70099,581.78064)">
        <path
           d="M 0.875,0 H 2.921875 V -0.109375 C 2.375,-0.109375 2.21875,-0.1875 2.21875,-0.546875 V -5 L 2.15625,-5.015625 0.828125,-4.34375 v 0.109375 c 0.40625,-0.171875 0.40625,-0.171875 0.5,-0.171875 0.25,0 0.25,0.203125 0.25,0.359375 V -0.6875 c 0,0.546875 -0.265625,0.5625 -0.703125,0.578125 z m 0,0"
           id="path39" />
      </g>
      <g
         id="use2174"
         transform="translate(208.411,581.78064)">
        <path
           d="m 1.859375,-4.828125 c 0.953125,0 0.96875,1.859375 0.96875,2.375 0,0.578125 -0.015625,2.359375 -0.96875,2.359375 -0.953125,0 -0.96875,-1.765625 -0.96875,-2.359375 0,-0.515625 0.015625,-2.375 0.96875,-2.375 z m 0,-0.1875 c -1.375,0 -1.6875,1.6875 -1.6875,2.5625 0,0.890625 0.3125,2.5625 1.6875,2.5625 1.359375,0 1.671875,-1.671875 1.671875,-2.5625 0,-0.875 -0.3125,-2.5625 -1.671875,-2.5625 z m 0,0"
           id="path59" />
      </g>
    </g>
    <g
       fill="#231f20"
       fill-opacity="1"
       id="g2178"
       transform="matrix(0.35277777,0,0,0.35277777,-9.1984037,-63.82521)">
      <g
         id="use2175"
         transform="translate(199.13599,596.82837)">
        <path
           d="m 1.859375,-4.828125 c 0.953125,0 0.96875,1.859375 0.96875,2.375 0,0.578125 -0.015625,2.359375 -0.96875,2.359375 -0.953125,0 -0.96875,-1.765625 -0.96875,-2.359375 0,-0.515625 0.015625,-2.375 0.96875,-2.375 z m 0,-0.1875 c -1.375,0 -1.6875,1.6875 -1.6875,2.5625 0,0.890625 0.3125,2.5625 1.6875,2.5625 1.359375,0 1.671875,-1.671875 1.671875,-2.5625 0,-0.875 -0.3125,-2.5625 -1.671875,-2.5625 z m 0,0"
           id="path60" />
      </g>
      <g
         id="use2176"
         transform="translate(202.84599,596.82837)">
        <path
           d="m 0.921875,0.078125 c 0.15625,0 0.421875,-0.125 0.421875,-0.390625 0,-0.234375 -0.1875,-0.4375 -0.421875,-0.4375 -0.21875,0 -0.40625,0.1875 -0.40625,0.4375 0,0.28125 0.25,0.390625 0.40625,0.390625 z m 0,0"
           id="path50" />
      </g>
      <g
         id="use2177"
         transform="translate(204.70099,596.82837)">
        <path
           d="m 1.859375,-4.828125 c 0.953125,0 0.96875,1.859375 0.96875,2.375 0,0.578125 -0.015625,2.359375 -0.96875,2.359375 -0.953125,0 -0.96875,-1.765625 -0.96875,-2.359375 0,-0.515625 0.015625,-2.375 0.96875,-2.375 z m 0,-0.1875 c -1.375,0 -1.6875,1.6875 -1.6875,2.5625 0,0.890625 0.3125,2.5625 1.6875,2.5625 1.359375,0 1.671875,-1.671875 1.671875,-2.5625 0,-0.875 -0.3125,-2.5625 -1.671875,-2.5625 z m 0,0"
           id="path61" />
      </g>
      <g
         id="use2178"
         transform="translate(208.411,596.82837)">
        <path
           d="m 1.578125,-2.3125 c 0.84375,0.609375 1.15625,0.828125 1.15625,1.375 0,0.515625 -0.34375,0.828125 -0.8125,0.828125 -0.59375,0 -0.9375,-0.484375 -0.9375,-1.046875 0,-0.671875 0.359375,-0.96875 0.59375,-1.15625 z m -1.15625,1.234375 c 0,0.578125 0.484375,1.1875 1.40625,1.1875 1.234375,0 1.46875,-0.84375 1.46875,-1.21875 0,-0.5 -0.15625,-0.9375 -1.140625,-1.640625 0.390625,-0.21875 0.984375,-0.53125 0.984375,-1.21875 0,-0.5625 -0.453125,-1.046875 -1.296875,-1.046875 -0.640625,0 -1.390625,0.40625 -1.390625,1.15625 0,0.59375 0.296875,0.84375 0.921875,1.390625 -0.65625,0.515625 -0.953125,0.734375 -0.953125,1.390625 z M 1.015625,-4.0625 c 0,-0.359375 0.234375,-0.75 0.78125,-0.75 0.578125,0 0.84375,0.40625 0.84375,0.8125 0,0.65625 -0.421875,0.921875 -0.703125,1.109375 C 1.671875,-3.0625 1.015625,-3.484375 1.015625,-4.0625 Z m 0,0"
           id="path37" />
      </g>
    </g>
    <g
       fill="#231f20"
       fill-opacity="1"
       id="g2182"
       transform="matrix(0.35277777,0,0,0.35277777,-9.1984037,-63.82521)">
      <g
         id="use2179"
         transform="translate(199.13599,611.87616)">
        <path
           d="m 1.859375,-4.828125 c 0.953125,0 0.96875,1.859375 0.96875,2.375 0,0.578125 -0.015625,2.359375 -0.96875,2.359375 -0.953125,0 -0.96875,-1.765625 -0.96875,-2.359375 0,-0.515625 0.015625,-2.375 0.96875,-2.375 z m 0,-0.1875 c -1.375,0 -1.6875,1.6875 -1.6875,2.5625 0,0.890625 0.3125,2.5625 1.6875,2.5625 1.359375,0 1.671875,-1.671875 1.671875,-2.5625 0,-0.875 -0.3125,-2.5625 -1.671875,-2.5625 z m 0,0"
           id="path62" />
      </g>
      <g
         id="use2180"
         transform="translate(202.84599,611.87616)">
        <path
           d="m 0.921875,0.078125 c 0.15625,0 0.421875,-0.125 0.421875,-0.390625 0,-0.234375 -0.1875,-0.4375 -0.421875,-0.4375 -0.21875,0 -0.40625,0.1875 -0.40625,0.4375 0,0.28125 0.25,0.390625 0.40625,0.390625 z m 0,0"
           id="path51" />
      </g>
      <g
         id="use2181"
         transform="translate(204.70099,611.87616)">
        <path
           d="m 1.859375,-4.828125 c 0.953125,0 0.96875,1.859375 0.96875,2.375 0,0.578125 -0.015625,2.359375 -0.96875,2.359375 -0.953125,0 -0.96875,-1.765625 -0.96875,-2.359375 0,-0.515625 0.015625,-2.375 0.96875,-2.375 z m 0,-0.1875 c -1.375,0 -1.6875,1.6875 -1.6875,2.5625 0,0.890625 0.3125,2.5625 1.6875,2.5625 1.359375,0 1.671875,-1.671875 1.671875,-2.5625 0,-0.875 -0.3125,-2.5625 -1.671875,-2.5625 z m 0,0"
           id="path63" />
      </g>
      <g
         id="use2182"
         transform="translate(208.411,611.87616)">
        <path
           d="m 3.3125,-5.078125 c -1.796875,0.0625 -3.0625,1.40625 -3.0625,2.921875 0,1.5625 0.765625,2.265625 1.640625,2.265625 1.3125,0 1.578125,-1.1875 1.578125,-1.734375 0,-0.984375 -0.578125,-1.546875 -1.359375,-1.546875 C 1.6875,-3.171875 1.53125,-3.09375 1.125,-2.84375 1.265625,-3.75 2,-4.75 3.328125,-4.953125 Z m -1.515625,2.25 c 0.78125,0 1.015625,0.734375 1.015625,1.5 0,0.84375 -0.34375,1.21875 -0.8125,1.21875 -0.5625,0 -1.0625,-0.546875 -1.0625,-1.796875 0,-0.4375 0.078125,-0.625 0.15625,-0.6875 0.1875,-0.1875 0.453125,-0.234375 0.703125,-0.234375 z m 0,0"
           id="path36" />
      </g>
    </g>
    <g
       fill="#231f20"
       fill-opacity="1"
       id="g2186"
       transform="matrix(0.35277777,0,0,0.35277777,-9.1984037,-63.82521)">
      <g
         id="use2183"
         transform="translate(199.13599,626.92389)">
        <path
           d="m 1.859375,-4.828125 c 0.953125,0 0.96875,1.859375 0.96875,2.375 0,0.578125 -0.015625,2.359375 -0.96875,2.359375 -0.953125,0 -0.96875,-1.765625 -0.96875,-2.359375 0,-0.515625 0.015625,-2.375 0.96875,-2.375 z m 0,-0.1875 c -1.375,0 -1.6875,1.6875 -1.6875,2.5625 0,0.890625 0.3125,2.5625 1.6875,2.5625 1.359375,0 1.671875,-1.671875 1.671875,-2.5625 0,-0.875 -0.3125,-2.5625 -1.671875,-2.5625 z m 0,0"
           id="path64" />
      </g>
      <g
         id="use2184"
         transform="translate(202.84599,626.92389)">
        <path
           d="m 0.921875,0.078125 c 0.15625,0 0.421875,-0.125 0.421875,-0.390625 0,-0.234375 -0.1875,-0.4375 -0.421875,-0.4375 -0.21875,0 -0.40625,0.1875 -0.40625,0.4375 0,0.28125 0.25,0.390625 0.40625,0.390625 z m 0,0"
           id="path52" />
      </g>
      <g
         id="use2185"
         transform="translate(204.70099,626.92389)">
        <path
           d="m 1.859375,-4.828125 c 0.953125,0 0.96875,1.859375 0.96875,2.375 0,0.578125 -0.015625,2.359375 -0.96875,2.359375 -0.953125,0 -0.96875,-1.765625 -0.96875,-2.359375 0,-0.515625 0.015625,-2.375 0.96875,-2.375 z m 0,-0.1875 c -1.375,0 -1.6875,1.6875 -1.6875,2.5625 0,0.890625 0.3125,2.5625 1.6875,2.5625 1.359375,0 1.671875,-1.671875 1.671875,-2.5625 0,-0.875 -0.3125,-2.5625 -1.671875,-2.5625 z m 0,0"
           id="path65" />
      </g>
      <g
         id="use2186"
         transform="translate(208.411,626.92389)">
        <path
           d="M 3.5,-1.71875 H 2.75 V -5.015625 H 2.421875 L 0.09375,-1.71875 v 0.484375 H 2.171875 V 0 H 2.75 V -1.234375 H 3.5 Z m -1.328125,0 H 0.390625 L 2.15625,-4.234375 h 0.015625 z m 0,0"
           id="path33" />
      </g>
    </g>
    <path
       fill="none"
       stroke-width="0.186972"
       stroke-linecap="butt"
       stroke-linejoin="miter"
       stroke="#231f20"
       stroke-opacity="1"
       stroke-miterlimit="4"
       d="m 92.394704,168.5134 v -2.24345 m -29.423871,1.12173 h 66.374587"
       id="path2186" />
    <path
       fill-rule="nonzero"
       fill="#231f20"
       fill-opacity="1"
       d="m 129.34542,167.39168 -0.40928,-0.67386 0.0221,-0.0152 1.0983,0.43684 c 0.38309,0.0841 0.76481,0.16812 1.1479,0.25218 -0.38309,0.0841 -0.76481,0.16812 -1.1479,0.25218 l -1.0983,0.43684 -0.0221,-0.011 0.40928,-0.67799"
       id="path2187"
       style="stroke-width:0.352778" />
    <g
       fill="#231f20"
       fill-opacity="1"
       id="g2187"
       transform="matrix(0.35277777,0,0,0.35277777,-9.1984037,-63.82521)">
      <g
         id="use2187"
         transform="translate(275.52399,666.42102)">
        <path
           d="M 5.28125,-2.234375 V -2.5625 H 0.890625 v 0.328125 z m 0,0"
           id="path10" />
      </g>
    </g>
    <g
       fill="#231f20"
       fill-opacity="1"
       id="g2191"
       transform="matrix(0.35277777,0,0,0.35277777,-9.1984037,-63.82521)">
      <g
         id="use2188"
         transform="translate(281.70486,666.42102)">
        <path
           d="M 3.5,-1.71875 H 2.75 V -5.015625 H 2.421875 L 0.09375,-1.71875 v 0.484375 H 2.171875 V 0 H 2.75 V -1.234375 H 3.5 Z m -1.328125,0 H 0.390625 L 2.15625,-4.234375 h 0.015625 z m 0,0"
           id="path34" />
      </g>
      <g
         id="use2189"
         transform="translate(285.41486,666.42102)">
        <path
           d="m 0.921875,0.078125 c 0.15625,0 0.421875,-0.125 0.421875,-0.390625 0,-0.234375 -0.1875,-0.4375 -0.421875,-0.4375 -0.21875,0 -0.40625,0.1875 -0.40625,0.4375 0,0.28125 0.25,0.390625 0.40625,0.390625 z m 0,0"
           id="path53" />
      </g>
      <g
         id="use2190"
         transform="translate(287.26984,666.42102)">
        <path
           d="M 0.875,0 H 2.921875 V -0.109375 C 2.375,-0.109375 2.21875,-0.1875 2.21875,-0.546875 V -5 L 2.15625,-5.015625 0.828125,-4.34375 v 0.109375 c 0.40625,-0.171875 0.40625,-0.171875 0.5,-0.171875 0.25,0 0.25,0.203125 0.25,0.359375 V -0.6875 c 0,0.546875 -0.265625,0.5625 -0.703125,0.578125 z m 0,0"
           id="path40" />
      </g>
      <g
         id="use2191"
         transform="translate(290.97986,666.42102)">
        <path
           d="M 3.5,-1.71875 H 2.75 V -5.015625 H 2.421875 L 0.09375,-1.71875 v 0.484375 H 2.171875 V 0 H 2.75 V -1.234375 H 3.5 Z m -1.328125,0 H 0.390625 L 2.15625,-4.234375 h 0.015625 z m 0,0"
           id="path35" />
      </g>
    </g>
    <g
       fill="#231f20"
       fill-opacity="1"
       id="g2202"
       transform="matrix(0.35277777,0,0,0.35277777,-9.1984037,-63.82521)">
      <g
         id="use2192"
         transform="translate(401.21878,657.68024)">
        <path
           d="M 4.609375,-3.34375 4.53125,-5.015625 H 4.375 c -0.0625,0.25 -0.296875,0.25 -0.34375,0.25 -0.15625,0 -0.640625,-0.25 -1.296875,-0.25 -1.28125,0 -2.53125,0.890625 -2.53125,2.5625 0,1.84375 1.28125,2.5625 2.484375,2.5625 1.359375,0 2,-0.9375 2.015625,-0.953125 L 4.5625,-0.96875 c -0.234375,0.21875 -0.765625,0.75 -1.671875,0.75 -0.9375,0 -1.828125,-0.65625 -1.828125,-2.21875 0,-1.078125 0.328125,-1.546875 0.625,-1.828125 C 2,-4.578125 2.421875,-4.71875 2.796875,-4.71875 c 0.921875,0 1.453125,0.59375 1.640625,1.375 z m 0,0"
           id="path32" />
      </g>
      <g
         id="use2193"
         transform="translate(406.16794,657.68024)">
        <path
           d="M 3.609375,-0.109375 C 3.25,-0.171875 3.171875,-0.21875 3.171875,-0.75 v -1.484375 c 0,-0.296875 -0.015625,-1.1875 -0.921875,-1.1875 -0.453125,0 -0.8125,0.25 -1.0625,0.609375 H 1.171875 V -5.046875 L 1.125,-5.0625 C 0.765625,-4.9375 0.40625,-4.84375 0.078125,-4.75 v 0.125 c 0.015625,0 0.09375,0 0.140625,0 0.328125,0 0.328125,0.15625 0.328125,0.375 v 3.5 c 0,0.53125 -0.078125,0.59375 -0.484375,0.640625 V 0 H 1.671875 V -0.109375 C 1.3125,-0.15625 1.171875,-0.1875 1.171875,-0.75 v -1.796875 c 0.296875,-0.359375 0.59375,-0.46875 0.796875,-0.46875 0.40625,0 0.578125,0.296875 0.578125,0.78125 V -0.75 c 0,0.5625 -0.140625,0.59375 -0.5,0.640625 V 0 h 1.5625 z m 0,0"
           id="path31" />
      </g>
      <g
         id="use2194"
         transform="translate(409.87793,657.68024)">
        <path
           d="m 2.125,-0.90625 c 0,0.21875 -0.015625,0.3125 -0.25,0.421875 -0.0625,0.03125 -0.296875,0.125 -0.453125,0.125 -0.28125,0 -0.5,-0.234375 -0.5,-0.578125 v -0.015625 c 0,-0.25 0.09375,-0.671875 1.203125,-1.03125 z m 1.15625,0.421875 c -0.078125,0.0625 -0.171875,0.140625 -0.328125,0.140625 -0.21875,0 -0.21875,-0.21875 -0.21875,-0.4375 v -1.453125 c 0,-0.4375 0,-1.1875 -1.109375,-1.1875 -0.859375,0 -1.203125,0.53125 -1.203125,0.828125 0,0.125 0.078125,0.328125 0.3125,0.328125 0.1875,0 0.328125,-0.15625 0.328125,-0.3125 0,-0.078125 -0.03125,-0.1875 -0.03125,-0.296875 0,-0.234375 0.28125,-0.359375 0.53125,-0.359375 0.21875,0 0.5625,0.078125 0.5625,0.609375 v 0.453125 C 0.921875,-1.6875 0.28125,-1.4375 0.28125,-0.703125 c 0,0.5 0.375,0.78125 0.78125,0.78125 0.40625,0 0.796875,-0.296875 1.078125,-0.546875 0.03125,0.53125 0.34375,0.546875 0.484375,0.546875 0.109375,0 0.34375,-0.015625 0.65625,-0.375 z m 0,0"
           id="path29" />
      </g>
      <g
         id="use2195"
         transform="translate(413.17242,657.68024)">
        <path
           d="m 0.59375,-0.671875 c 0,0.4375 -0.109375,0.53125 -0.453125,0.5625 V 0 h 1.5625 V -0.109375 C 1.328125,-0.140625 1.21875,-0.25 1.21875,-0.5 V -2.578125 C 1.5,-2.859375 1.734375,-3 1.953125,-3 c 0.4375,0 0.578125,0.265625 0.578125,0.71875 v 1.546875 c 0,0.5625 -0.203125,0.59375 -0.46875,0.625 V 0 H 3.59375 V -0.109375 C 3.234375,-0.140625 3.140625,-0.25 3.140625,-0.59375 v -1.703125 c 0,-0.921875 -0.515625,-1.125 -0.859375,-1.125 -0.4375,0 -0.71875,0.265625 -1.09375,0.609375 V -3.40625 L 1.140625,-3.421875 c -0.34375,0.140625 -0.6875,0.25 -1.015625,0.34375 v 0.125 c 0.03125,-0.015625 0.109375,-0.03125 0.203125,-0.03125 0.125,0 0.265625,0.015625 0.265625,0.46875 z m 0,0"
           id="path26" />
      </g>
      <g
         id="use2196"
         transform="translate(416.88242,657.68024)">
        <path
           d="m 0.734375,0.671875 c 0,-0.21875 0.125,-0.375 0.359375,-0.65625 C 1.4375,0.09375 1.609375,0.09375 2.296875,0.109375 2.84375,0.125 3.21875,0.140625 3.21875,0.46875 3.21875,0.875 2.703125,1.1875 1.84375,1.1875 1,1.1875 0.734375,0.890625 0.734375,0.671875 Z M 1.125,-2.53125 c 0,-0.5 0.296875,-0.671875 0.5625,-0.671875 0.640625,0 0.75,0.984375 0.75,1.203125 0,0.15625 -0.03125,0.703125 -0.53125,0.703125 -0.578125,0 -0.78125,-0.65625 -0.78125,-1.234375 z M 3.484375,-2.875 v -0.296875 h -0.5625 c -0.125,0 -0.25,-0.015625 -0.40625,-0.078125 -0.296875,-0.109375 -0.46875,-0.171875 -0.734375,-0.171875 -0.5625,0 -1.265625,0.359375 -1.265625,1.25 0,0.421875 0.25,0.765625 0.6875,0.96875 -0.65625,0.578125 -0.65625,0.671875 -0.65625,0.796875 0,0.21875 0.1875,0.296875 0.390625,0.40625 -0.375,0.265625 -0.734375,0.5625 -0.734375,0.890625 0,0.40625 0.5625,0.734375 1.3125,0.734375 0.671875,0 1.90625,-0.421875 1.90625,-1.265625 0,-0.203125 -0.109375,-0.75 -0.890625,-0.796875 L 1.5625,-0.46875 C 1.34375,-0.484375 0.984375,-0.5 0.984375,-0.671875 c 0,-0.15625 0.296875,-0.453125 0.453125,-0.46875 0.046875,0 0.3125,0.03125 0.390625,0.03125 0.421875,0 1.1875,-0.28125 1.1875,-1.09375 0,-0.359375 -0.0625,-0.5 -0.140625,-0.671875 z m 0,0"
           id="path25" />
      </g>
      <g
         id="use2197"
         transform="translate(420.59241,657.68024)">
        <path
           d="m 3.03125,-1.21875 c -0.171875,0.28125 -0.5,0.78125 -1.15625,0.78125 -0.484375,0 -1.09375,-0.3125 -1.171875,-1.625 H 3 C 2.921875,-3.03125 2.390625,-3.421875 1.703125,-3.421875 c -0.59375,0 -1.515625,0.453125 -1.515625,1.828125 0,1.0625 0.5625,1.671875 1.390625,1.671875 1.0625,0 1.5,-1.015625 1.5625,-1.25 z m -2.3125,-1.078125 c 0.125,-0.65625 0.40625,-0.84375 0.8125,-0.84375 0.59375,0 0.671875,0.484375 0.71875,0.84375 z m 0,0"
           id="path22" />
      </g>
      <g
         id="use2198"
         transform="translate(423.8869,657.68024)" />
      <g
         id="use2199"
         transform="translate(425.74188,657.68024)">
        <path
           d="m 0.125,0 h 1.75 V -0.109375 C 1.359375,-0.140625 1.328125,-0.265625 1.328125,-0.75 v -2.640625 l -0.03125,-0.03125 C 0.90625,-3.265625 0.53125,-3.125 0.15625,-3 v 0.109375 c 0.09375,-0.015625 0.1875,-0.03125 0.296875,-0.03125 0.109375,0 0.25,0 0.25,0.4375 V -0.75 c 0,0.578125 -0.125,0.609375 -0.578125,0.640625 z m 0.453125,-4.6875 c 0,0.140625 0.109375,0.375 0.375,0.375 0.21875,0 0.390625,-0.15625 0.390625,-0.375 0,-0.21875 -0.171875,-0.375 -0.390625,-0.375 -0.265625,0 -0.375,0.234375 -0.375,0.375 z m 0,0"
           id="path20" />
      </g>
      <g
         id="use2200"
         transform="translate(427.80466,657.68024)">
        <path
           d="m 0.59375,-0.671875 c 0,0.4375 -0.109375,0.53125 -0.453125,0.5625 V 0 h 1.5625 V -0.109375 C 1.328125,-0.140625 1.21875,-0.25 1.21875,-0.5 V -2.578125 C 1.5,-2.859375 1.734375,-3 1.953125,-3 c 0.4375,0 0.578125,0.265625 0.578125,0.71875 v 1.546875 c 0,0.5625 -0.203125,0.59375 -0.46875,0.625 V 0 H 3.59375 V -0.109375 C 3.234375,-0.140625 3.140625,-0.25 3.140625,-0.59375 v -1.703125 c 0,-0.921875 -0.515625,-1.125 -0.859375,-1.125 -0.4375,0 -0.71875,0.265625 -1.09375,0.609375 V -3.40625 L 1.140625,-3.421875 c -0.34375,0.140625 -0.6875,0.25 -1.015625,0.34375 v 0.125 c 0.03125,-0.015625 0.109375,-0.03125 0.203125,-0.03125 0.125,0 0.265625,0.015625 0.265625,0.46875 z m 0,0"
           id="path27" />
      </g>
      <g
         id="use2201"
         transform="translate(431.51465,657.68024)" />
      <g
         id="use2202"
         transform="translate(433.36966,657.68024)">
        <path
           d="m 3.546875,-3.34375 h -1.03125 v 0.109375 c 0.171875,0.015625 0.34375,0.078125 0.34375,0.25 0,0.265625 -0.53125,1.421875 -0.78125,2.140625 L 1.328125,-2.75 C 1.296875,-2.8125 1.25,-2.921875 1.25,-3 c 0,-0.1875 0.171875,-0.21875 0.34375,-0.234375 V -3.34375 H 0.140625 v 0.109375 c 0.15625,0.015625 0.296875,0.0625 0.40625,0.28125 0.265625,0.53125 0.984375,2.25 1.15625,2.703125 0.125,0.328125 0.140625,0.359375 0.203125,0.359375 0.046875,0 0.125,-0.171875 0.203125,-0.375 L 3.0625,-2.65625 c 0.171875,-0.4375 0.21875,-0.546875 0.484375,-0.578125 z m 0,0"
           id="path19" />
      </g>
    </g>
    <g
       fill="#231f20"
       fill-opacity="1"
       id="g2206"
       transform="matrix(0.35277777,0,0,0.35277777,-9.1984037,-63.82521)">
      <g
         id="use2203"
         transform="translate(436.89417,657.68024)">
        <path
           d="m 2.125,-0.90625 c 0,0.21875 -0.015625,0.3125 -0.25,0.421875 -0.0625,0.03125 -0.296875,0.125 -0.453125,0.125 -0.28125,0 -0.5,-0.234375 -0.5,-0.578125 v -0.015625 c 0,-0.25 0.09375,-0.671875 1.203125,-1.03125 z m 1.15625,0.421875 c -0.078125,0.0625 -0.171875,0.140625 -0.328125,0.140625 -0.21875,0 -0.21875,-0.21875 -0.21875,-0.4375 v -1.453125 c 0,-0.4375 0,-1.1875 -1.109375,-1.1875 -0.859375,0 -1.203125,0.53125 -1.203125,0.828125 0,0.125 0.078125,0.328125 0.3125,0.328125 0.1875,0 0.328125,-0.15625 0.328125,-0.3125 0,-0.078125 -0.03125,-0.1875 -0.03125,-0.296875 0,-0.234375 0.28125,-0.359375 0.53125,-0.359375 0.21875,0 0.5625,0.078125 0.5625,0.609375 v 0.453125 C 0.921875,-1.6875 0.28125,-1.4375 0.28125,-0.703125 c 0,0.5 0.375,0.78125 0.78125,0.78125 0.40625,0 0.796875,-0.296875 1.078125,-0.546875 0.03125,0.53125 0.34375,0.546875 0.484375,0.546875 0.109375,0 0.34375,-0.015625 0.65625,-0.375 z m 0,0"
           id="path30" />
      </g>
      <g
         id="use2204"
         transform="translate(440.18863,657.68024)">
        <path
           d="m 0.15625,0 h 1.75 V -0.109375 C 1.484375,-0.140625 1.34375,-0.1875 1.34375,-0.625 V -5.046875 L 1.328125,-5.0625 c -0.40625,0.125 -0.796875,0.21875 -1.1875,0.3125 v 0.125 c 0.09375,0 0.15625,-0.015625 0.25,-0.015625 0.296875,0 0.34375,0.125 0.34375,0.453125 v 3.546875 c 0,0.40625 -0.140625,0.5 -0.578125,0.53125 z m 0,0"
           id="path18" />
      </g>
      <g
         id="use2205"
         transform="translate(442.2514,657.68024)">
        <path
           d="M 3.5625,-0.375 C 3.109375,-0.359375 3.09375,-0.53125 3.09375,-0.796875 V -3.34375 H 1.921875 v 0.125 C 2.4375,-3.203125 2.46875,-3.046875 2.46875,-2.75 V -1 c 0,0.25 -0.046875,0.3125 -0.109375,0.375 -0.203125,0.171875 -0.421875,0.265625 -0.65625,0.265625 -0.484375,0 -0.546875,-0.453125 -0.546875,-0.5625 V -3.34375 H 0.0625 v 0.109375 c 0.234375,0.015625 0.46875,0.03125 0.46875,0.46875 v 1.875 c 0,0.78125 0.578125,0.96875 0.875,0.96875 0.140625,0 0.5,-0.03125 0.78125,-0.328125 L 2.515625,-0.5625 V 0.046875 L 2.53125,0.0625 c 0.34375,-0.125 0.625,-0.21875 1.03125,-0.328125 z m 0,0"
           id="path17" />
      </g>
      <g
         id="use2206"
         transform="translate(445.9614,657.68024)">
        <path
           d="m 3.03125,-1.21875 c -0.171875,0.28125 -0.5,0.78125 -1.15625,0.78125 -0.484375,0 -1.09375,-0.3125 -1.171875,-1.625 H 3 C 2.921875,-3.03125 2.390625,-3.421875 1.703125,-3.421875 c -0.59375,0 -1.515625,0.453125 -1.515625,1.828125 0,1.0625 0.5625,1.671875 1.390625,1.671875 1.0625,0 1.5,-1.015625 1.5625,-1.25 z m -2.3125,-1.078125 c 0.125,-0.65625 0.40625,-0.84375 0.8125,-0.84375 0.59375,0 0.671875,0.484375 0.71875,0.84375 z m 0,0"
           id="path23" />
      </g>
    </g>
    <g
       fill="#231f20"
       fill-opacity="1"
       id="g2213"
       transform="matrix(0.35277777,0,0,0.35277777,-9.1984037,-63.82521)">
      <g
         id="use2207"
         transform="translate(205.79083,539.99164)">
        <path
           d="M 0.125,0 H 2.234375 C 4.5,0 5.078125,-1.453125 5.078125,-2.4375 5.078125,-4.109375 3.90625,-4.90625 2.125,-4.90625 h -2 v 0.140625 c 0.5625,0.03125 0.640625,0.109375 0.640625,0.65625 V -0.8125 c 0,0.515625 -0.078125,0.640625 -0.640625,0.671875 z m 1.40625,-4.34375 c 0,-0.15625 0,-0.296875 0.34375,-0.296875 0.9375,0 1.359375,0.203125 1.703125,0.515625 0.515625,0.46875 0.703125,1.0625 0.703125,1.6875 0,2.15625 -1.828125,2.15625 -2.3125,2.15625 -0.34375,0 -0.4375,-0.046875 -0.4375,-0.296875 z m 0,0"
           id="path16" />
      </g>
      <g
         id="use2208"
         transform="translate(211.14807,539.99164)">
        <path
           d="m 3.03125,-1.21875 c -0.171875,0.28125 -0.5,0.78125 -1.15625,0.78125 -0.484375,0 -1.09375,-0.3125 -1.171875,-1.625 H 3 C 2.921875,-3.03125 2.390625,-3.421875 1.703125,-3.421875 c -0.59375,0 -1.515625,0.453125 -1.515625,1.828125 0,1.0625 0.5625,1.671875 1.390625,1.671875 1.0625,0 1.5,-1.015625 1.5625,-1.25 z m -2.3125,-1.078125 c 0.125,-0.65625 0.40625,-0.84375 0.8125,-0.84375 0.59375,0 0.671875,0.484375 0.71875,0.84375 z m 0,0"
           id="path24" />
      </g>
      <g
         id="use2209"
         transform="translate(214.44255,539.99164)">
        <path
           d="m 0.59375,-0.671875 c 0,0.4375 -0.109375,0.53125 -0.453125,0.5625 V 0 h 1.5625 V -0.109375 C 1.328125,-0.140625 1.21875,-0.25 1.21875,-0.5 V -2.578125 C 1.5,-2.859375 1.734375,-3 1.953125,-3 c 0.4375,0 0.578125,0.265625 0.578125,0.71875 v 1.546875 c 0,0.5625 -0.203125,0.59375 -0.46875,0.625 V 0 H 3.59375 V -0.109375 C 3.234375,-0.140625 3.140625,-0.25 3.140625,-0.59375 v -1.703125 c 0,-0.921875 -0.515625,-1.125 -0.859375,-1.125 -0.4375,0 -0.71875,0.265625 -1.09375,0.609375 V -3.40625 L 1.140625,-3.421875 c -0.34375,0.140625 -0.6875,0.25 -1.015625,0.34375 v 0.125 c 0.03125,-0.015625 0.109375,-0.03125 0.203125,-0.03125 0.125,0 0.265625,0.015625 0.265625,0.46875 z m 0,0"
           id="path28" />
      </g>
      <g
         id="use2210"
         transform="translate(218.15256,539.99164)">
        <path
           d="M 2.34375,-2.328125 2.3125,-3.34375 H 2.234375 c -0.03125,0.03125 -0.0625,0.078125 -0.140625,0.078125 -0.125,0 -0.34375,-0.15625 -0.671875,-0.15625 -0.71875,0 -1.046875,0.5 -1.046875,0.90625 0,0.5625 0.40625,0.828125 0.875,1.09375 L 1.671875,-1.1875 c 0.25,0.140625 0.390625,0.3125 0.390625,0.5625 0,0.421875 -0.34375,0.53125 -0.59375,0.53125 -0.734375,0 -0.875,-0.640625 -0.96875,-1.03125 H 0.390625 v 1.15625 h 0.09375 C 0.53125,-0.03125 0.5625,-0.0625 0.640625,-0.0625 c 0.21875,0 0.53125,0.140625 0.859375,0.140625 0.484375,0 1.078125,-0.3125 1.078125,-0.96875 0,-0.4375 -0.25,-0.640625 -0.625,-0.875 L 1.15625,-2.234375 c -0.265625,-0.15625 -0.3125,-0.375 -0.3125,-0.53125 C 0.84375,-2.953125 1,-3.25 1.40625,-3.25 c 0.328125,0 0.65625,0.15625 0.828125,0.921875 z m 0,0"
           id="path15" />
      </g>
      <g
         id="use2211"
         transform="translate(221.03893,539.99164)">
        <path
           d="m 0.125,0 h 1.75 V -0.109375 C 1.359375,-0.140625 1.328125,-0.265625 1.328125,-0.75 v -2.640625 l -0.03125,-0.03125 C 0.90625,-3.265625 0.53125,-3.125 0.15625,-3 v 0.109375 c 0.09375,-0.015625 0.1875,-0.03125 0.296875,-0.03125 0.109375,0 0.25,0 0.25,0.4375 V -0.75 c 0,0.578125 -0.125,0.609375 -0.578125,0.640625 z m 0.453125,-4.6875 c 0,0.140625 0.109375,0.375 0.375,0.375 0.21875,0 0.390625,-0.15625 0.390625,-0.375 0,-0.21875 -0.171875,-0.375 -0.390625,-0.375 -0.265625,0 -0.375,0.234375 -0.375,0.375 z m 0,0"
           id="path21" />
      </g>
      <g
         id="use2212"
         transform="translate(223.10168,539.99164)">
        <path
           d="m 1.890625,-3.34375 h -0.75 v -0.859375 c 0,-0.0625 0,-0.09375 -0.046875,-0.09375 -0.28125,0.390625 -0.390625,0.5625 -0.671875,0.84375 C 0.265625,-3.28125 0.09375,-3.25 0.09375,-3.15625 c 0,0.03125 0.015625,0.046875 0.03125,0.046875 H 0.515625 V -0.875 c 0,0.75 0.3125,0.953125 0.6875,0.953125 0.34375,0 0.6875,-0.25 0.875,-0.5625 L 1.96875,-0.578125 C 1.890625,-0.46875 1.765625,-0.3125 1.515625,-0.3125 c -0.375,0 -0.375,-0.4375 -0.375,-0.671875 v -2.125 h 0.75 z m 0,0"
           id="path14" />
      </g>
      <g
         id="use2213"
         transform="translate(225.16444,539.99164)">
        <path
           d="m 3.53125,-3.34375 h -1 v 0.109375 c 0.234375,0 0.34375,0.078125 0.34375,0.21875 0,0.0625 -0.09375,0.296875 -0.171875,0.5 L 2.125,-0.875 1.28125,-2.75 C 1.25,-2.796875 1.203125,-2.921875 1.203125,-3.015625 c 0,-0.203125 0.265625,-0.203125 0.4375,-0.21875 V -3.34375 h -1.53125 v 0.109375 C 0.203125,-3.21875 0.390625,-3.1875 0.484375,-3 l 0.84375,1.828125 C 1.4375,-0.9375 1.78125,-0.265625 1.78125,-0.15625 1.78125,-0.03125 1.484375,1 1.109375,1 1.015625,1 0.78125,0.859375 0.578125,0.859375 c -0.34375,0 -0.359375,0.28125 -0.359375,0.328125 0,0.1875 0.171875,0.4375 0.546875,0.4375 0.5625,0 0.875,-0.5 1.265625,-1.484375 l 1.140625,-3.03125 c 0.109375,-0.3125 0.25,-0.328125 0.359375,-0.34375 z m 0,0"
           id="path13" />
      </g>
    </g>
    <g
       fill="#231f20"
       fill-opacity="1"
       id="g2215"
       transform="matrix(0.35277777,0,0,0.35277777,-9.1984037,-63.82521)">
      <g
         id="use2214"
         transform="translate(374.17288,666.42102)">
        <path
           d="M 3.53125,-1.015625 3.421875,-1.046875 C 3.140625,-0.59375 3,-0.5625 2.71875,-0.5625 H 0.953125 l 1.25,-1.3125 c 0.328125,-0.34375 0.9375,-1.015625 0.9375,-1.8125 0,-0.828125 -0.65625,-1.328125 -1.34375,-1.328125 -0.640625,0 -1.34375,0.359375 -1.5625,1.46875 L 0.390625,-3.5 c 0.15625,-0.40625 0.375,-0.96875 1.0625,-0.96875 0.875,0 1.0625,0.6875 1.0625,1.0625 0,0.5625 -0.328125,1.21875 -0.96875,1.921875 L 0.21875,-0.09375 V 0 H 3.125 Z m 0,0"
           id="path45" />
      </g>
      <g
         id="use2215"
         transform="translate(377.8829,666.42102)">
        <path
           d="m 1.859375,-4.828125 c 0.953125,0 0.96875,1.859375 0.96875,2.375 0,0.578125 -0.015625,2.359375 -0.96875,2.359375 -0.953125,0 -0.96875,-1.765625 -0.96875,-2.359375 0,-0.515625 0.015625,-2.375 0.96875,-2.375 z m 0,-0.1875 c -1.375,0 -1.6875,1.6875 -1.6875,2.5625 0,0.890625 0.3125,2.5625 1.6875,2.5625 1.359375,0 1.671875,-1.671875 1.671875,-2.5625 0,-0.875 -0.3125,-2.5625 -1.671875,-2.5625 z m 0,0"
           id="path66" />
      </g>
    </g>
    <path
       fill="none"
       stroke-width="0.186972"
       stroke-linecap="butt"
       stroke-linejoin="miter"
       stroke="#231f20"
       stroke-opacity="1"
       stroke-miterlimit="4"
       d="m 110.95136,168.5134 v -2.24345"
       id="path2215" />
    <g
       fill="#231f20"
       fill-opacity="1"
       id="g2217"
       transform="matrix(0.35277777,0,0,0.35277777,-9.1984037,-63.82521)">
      <g
         id="use2216"
         transform="translate(337.03098,666.42102)">
        <path
           d="M 0.875,0 H 2.921875 V -0.109375 C 2.375,-0.109375 2.21875,-0.1875 2.21875,-0.546875 V -5 L 2.15625,-5.015625 0.828125,-4.34375 v 0.109375 c 0.40625,-0.171875 0.40625,-0.171875 0.5,-0.171875 0.25,0 0.25,0.203125 0.25,0.359375 V -0.6875 c 0,0.546875 -0.265625,0.5625 -0.703125,0.578125 z m 0,0"
           id="path41" />
      </g>
      <g
         id="use2217"
         transform="translate(340.741,666.42102)">
        <path
           d="m 1.859375,-4.828125 c 0.953125,0 0.96875,1.859375 0.96875,2.375 0,0.578125 -0.015625,2.359375 -0.96875,2.359375 -0.953125,0 -0.96875,-1.765625 -0.96875,-2.359375 0,-0.515625 0.015625,-2.375 0.96875,-2.375 z m 0,-0.1875 c -1.375,0 -1.6875,1.6875 -1.6875,2.5625 0,0.890625 0.3125,2.5625 1.6875,2.5625 1.359375,0 1.671875,-1.671875 1.671875,-2.5625 0,-0.875 -0.3125,-2.5625 -1.671875,-2.5625 z m 0,0"
           id="path67" />
      </g>
    </g>
    <g
       fill="#231f20"
       fill-opacity="1"
       id="g2221"
       transform="matrix(0.35277777,0,0,0.35277777,-9.1984037,-63.82521)">
      <g
         id="use2218"
         transform="translate(319.621,624.17798)">
        <path
           d="m 2.125,-5.515625 c 1.078125,0 1.09375,2.125 1.09375,2.703125 0,0.671875 -0.015625,2.703125 -1.09375,2.703125 -1.09375,0 -1.109375,-2.015625 -1.109375,-2.703125 0,-0.578125 0.015625,-2.703125 1.109375,-2.703125 z m 0,-0.21875 c -1.5625,0 -1.921875,1.921875 -1.921875,2.921875 0,1.03125 0.359375,2.9375 1.921875,2.9375 1.5625,0 1.90625,-1.90625 1.90625,-2.9375 0,-1 -0.34375,-2.921875 -1.90625,-2.921875 z m 0,0"
           id="path7" />
      </g>
      <g
         id="use2219"
         transform="translate(323.86099,624.17798)">
        <path
           d="m 1.0625,0.09375 c 0.171875,0 0.46875,-0.140625 0.46875,-0.453125 0,-0.265625 -0.21875,-0.484375 -0.46875,-0.484375 -0.25,0 -0.46875,0.203125 -0.46875,0.484375 0,0.3125 0.28125,0.453125 0.46875,0.453125 z m 0,0"
           id="path5" />
      </g>
      <g
         id="use2220"
         transform="translate(325.98099,624.17798)">
        <path
           d="m 0.5,0.1875 c 2.15625,-0.140625 3.390625,-1.75 3.390625,-3.546875 0,-1.421875 -0.8125,-2.375 -1.859375,-2.375 -1.09375,0 -1.78125,0.921875 -1.78125,2.046875 0,0.6875 0.390625,1.671875 1.53125,1.671875 0.421875,0 0.875,-0.140625 1.25,-0.46875 l 0.015625,0.03125 C 3,-2.25 2.53125,-0.328125 0.46875,0.015625 Z m 2.578125,-3.203125 c 0,0.15625 -0.03125,0.265625 -0.140625,0.34375 C 2.75,-2.53125 2.40625,-2.375 2.125,-2.375 c -0.90625,0 -1.09375,-1 -1.09375,-1.640625 0,-0.6875 0.203125,-1.484375 0.90625,-1.484375 1.140625,0 1.140625,1.65625 1.140625,2.15625 z m 0,0"
           id="path3" />
      </g>
      <g
         id="use2221"
         transform="translate(330.22098,624.17798)">
        <path
           d="m 0.5,0.1875 c 2.15625,-0.140625 3.390625,-1.75 3.390625,-3.546875 0,-1.421875 -0.8125,-2.375 -1.859375,-2.375 -1.09375,0 -1.78125,0.921875 -1.78125,2.046875 0,0.6875 0.390625,1.671875 1.53125,1.671875 0.421875,0 0.875,-0.140625 1.25,-0.46875 l 0.015625,0.03125 C 3,-2.25 2.53125,-0.328125 0.46875,0.015625 Z m 2.578125,-3.203125 c 0,0.15625 -0.03125,0.265625 -0.140625,0.34375 C 2.75,-2.53125 2.40625,-2.375 2.125,-2.375 c -0.90625,0 -1.09375,-1 -1.09375,-1.640625 0,-0.6875 0.203125,-1.484375 0.90625,-1.484375 1.140625,0 1.140625,1.65625 1.140625,2.15625 z m 0,0"
           id="path4" />
      </g>
    </g>
    <g
       fill="#231f20"
       fill-opacity="1"
       id="g2225"
       transform="matrix(0.35277777,0,0,0.35277777,-9.1984037,-63.82521)">
      <g
         id="use2222"
         transform="translate(270.37762,636.86407)">
        <path
           d="m 2.125,-5.515625 c 1.078125,0 1.09375,2.125 1.09375,2.703125 0,0.671875 -0.015625,2.703125 -1.09375,2.703125 -1.09375,0 -1.109375,-2.015625 -1.109375,-2.703125 0,-0.578125 0.015625,-2.703125 1.109375,-2.703125 z m 0,-0.21875 c -1.5625,0 -1.921875,1.921875 -1.921875,2.921875 0,1.03125 0.359375,2.9375 1.921875,2.9375 1.5625,0 1.90625,-1.90625 1.90625,-2.9375 0,-1 -0.34375,-2.921875 -1.90625,-2.921875 z m 0,0"
           id="path8" />
      </g>
      <g
         id="use2223"
         transform="translate(274.61761,636.86407)">
        <path
           d="m 1.0625,0.09375 c 0.171875,0 0.46875,-0.140625 0.46875,-0.453125 0,-0.265625 -0.21875,-0.484375 -0.46875,-0.484375 -0.25,0 -0.46875,0.203125 -0.46875,0.484375 0,0.3125 0.28125,0.453125 0.46875,0.453125 z m 0,0"
           id="path6" />
      </g>
      <g
         id="use2224"
         transform="translate(276.73764,636.86407)">
        <path
           d="m 2.125,-5.515625 c 1.078125,0 1.09375,2.125 1.09375,2.703125 0,0.671875 -0.015625,2.703125 -1.09375,2.703125 -1.09375,0 -1.109375,-2.015625 -1.109375,-2.703125 0,-0.578125 0.015625,-2.703125 1.109375,-2.703125 z m 0,-0.21875 c -1.5625,0 -1.921875,1.921875 -1.921875,2.921875 0,1.03125 0.359375,2.9375 1.921875,2.9375 1.5625,0 1.90625,-1.90625 1.90625,-2.9375 0,-1 -0.34375,-2.921875 -1.90625,-2.921875 z m 0,0"
           id="path9" />
      </g>
      <g
         id="use2225"
         transform="translate(280.97763,636.86407)">
        <path
           d="m 1,0 h 2.34375 v -0.125 c -0.640625,0 -0.8125,-0.09375 -0.8125,-0.5 V -5.71875 L 2.46875,-5.734375 0.9375,-4.96875 v 0.125 c 0.484375,-0.1875 0.484375,-0.1875 0.578125,-0.1875 0.296875,0 0.296875,0.21875 0.296875,0.40625 v 3.84375 C 1.8125,-0.15625 1.5,-0.140625 1,-0.125 Z m 0,0"
           id="path1" />
      </g>
    </g>
    <path
       fill="none"
       stroke-width="0.186972"
       stroke-linecap="butt"
       stroke-linejoin="miter"
       stroke="#231f20"
       stroke-opacity="1"
       stroke-miterlimit="4"
       d="m 97.793857,168.5134 v -2.24345"
       id="path2225" />
    <g
       fill="#231f20"
       fill-opacity="1"
       id="g2226"
       transform="matrix(0.35277777,0,0,0.35277777,-9.1984037,-63.82521)">
      <g
         id="use2226"
         transform="translate(301.745,666.42102)">
        <path
           d="m 1.859375,-4.828125 c 0.953125,0 0.96875,1.859375 0.96875,2.375 0,0.578125 -0.015625,2.359375 -0.96875,2.359375 -0.953125,0 -0.96875,-1.765625 -0.96875,-2.359375 0,-0.515625 0.015625,-2.375 0.96875,-2.375 z m 0,-0.1875 c -1.375,0 -1.6875,1.6875 -1.6875,2.5625 0,0.890625 0.3125,2.5625 1.6875,2.5625 1.359375,0 1.671875,-1.671875 1.671875,-2.5625 0,-0.875 -0.3125,-2.5625 -1.671875,-2.5625 z m 0,0"
           id="path68" />
      </g>
    </g>
    <path
       fill="none"
       stroke-width="0.186972"
       stroke-linecap="butt"
       stroke-linejoin="miter"
       stroke="#231f20"
       stroke-opacity="1"
       stroke-miterlimit="4"
       d="m 84.634971,168.5134 v -2.24345"
       id="path2226" />
    <g
       fill="#231f20"
       fill-opacity="1"
       id="g2227"
       transform="matrix(0.35277777,0,0,0.35277777,-9.1984037,-63.82521)">
      <g
         id="use2227"
         transform="translate(256.60699,666.42102)">
        <path
           d="M 5.28125,-2.234375 V -2.5625 H 0.890625 v 0.328125 z m 0,0"
           id="path11" />
      </g>
    </g>
    <g
       fill="#231f20"
       fill-opacity="1"
       id="g2229"
       transform="matrix(0.35277777,0,0,0.35277777,-9.1984037,-63.82521)">
      <g
         id="use2228"
         transform="translate(262.78784,666.42102)">
        <path
           d="M 0.875,0 H 2.921875 V -0.109375 C 2.375,-0.109375 2.21875,-0.1875 2.21875,-0.546875 V -5 L 2.15625,-5.015625 0.828125,-4.34375 v 0.109375 c 0.40625,-0.171875 0.40625,-0.171875 0.5,-0.171875 0.25,0 0.25,0.203125 0.25,0.359375 V -0.6875 c 0,0.546875 -0.265625,0.5625 -0.703125,0.578125 z m 0,0"
           id="path42" />
      </g>
      <g
         id="use2229"
         transform="translate(266.49786,666.42102)">
        <path
           d="m 1.859375,-4.828125 c 0.953125,0 0.96875,1.859375 0.96875,2.375 0,0.578125 -0.015625,2.359375 -0.96875,2.359375 -0.953125,0 -0.96875,-1.765625 -0.96875,-2.359375 0,-0.515625 0.015625,-2.375 0.96875,-2.375 z m 0,-0.1875 c -1.375,0 -1.6875,1.6875 -1.6875,2.5625 0,0.890625 0.3125,2.5625 1.6875,2.5625 1.359375,0 1.671875,-1.671875 1.671875,-2.5625 0,-0.875 -0.3125,-2.5625 -1.671875,-2.5625 z m 0,0"
           id="path69" />
      </g>
    </g>
    <path
       fill="none"
       stroke-width="0.186972"
       stroke-linecap="butt"
       stroke-linejoin="miter"
       stroke="#231f20"
       stroke-opacity="1"
       stroke-miterlimit="4"
       d="m 71.477463,168.5134 v -2.24345"
       id="path2229" />
    <g
       fill="#231f20"
       fill-opacity="1"
       id="g2230"
       transform="matrix(0.35277777,0,0,0.35277777,-9.1984037,-63.82521)">
      <g
         id="use2230"
         transform="translate(218.83299,666.42102)">
        <path
           d="M 5.28125,-2.234375 V -2.5625 H 0.890625 v 0.328125 z m 0,0"
           id="path12" />
      </g>
    </g>
    <g
       fill="#231f20"
       fill-opacity="1"
       id="g2232"
       transform="matrix(0.35277777,0,0,0.35277777,-9.1984037,-63.82521)">
      <g
         id="use2231"
         transform="translate(225.01385,666.42102)">
        <path
           d="M 3.53125,-1.015625 3.421875,-1.046875 C 3.140625,-0.59375 3,-0.5625 2.71875,-0.5625 H 0.953125 l 1.25,-1.3125 c 0.328125,-0.34375 0.9375,-1.015625 0.9375,-1.8125 0,-0.828125 -0.65625,-1.328125 -1.34375,-1.328125 -0.640625,0 -1.34375,0.359375 -1.5625,1.46875 L 0.390625,-3.5 c 0.15625,-0.40625 0.375,-0.96875 1.0625,-0.96875 0.875,0 1.0625,0.6875 1.0625,1.0625 0,0.5625 -0.328125,1.21875 -0.96875,1.921875 L 0.21875,-0.09375 V 0 H 3.125 Z m 0,0"
           id="path46" />
      </g>
      <g
         id="use2232"
         transform="translate(228.72385,666.42102)">
        <path
           d="m 1.859375,-4.828125 c 0.953125,0 0.96875,1.859375 0.96875,2.375 0,0.578125 -0.015625,2.359375 -0.96875,2.359375 -0.953125,0 -0.96875,-1.765625 -0.96875,-2.359375 0,-0.515625 0.015625,-2.375 0.96875,-2.375 z m 0,-0.1875 c -1.375,0 -1.6875,1.6875 -1.6875,2.5625 0,0.890625 0.3125,2.5625 1.6875,2.5625 1.359375,0 1.671875,-1.671875 1.671875,-2.5625 0,-0.875 -0.3125,-2.5625 -1.671875,-2.5625 z m 0,0"
           id="path70" />
      </g>
    </g>
    <path
       fill="none"
       stroke-width="0.186972"
       stroke-linecap="butt"
       stroke-linejoin="miter"
       stroke="#231f20"
       stroke-opacity="1"
       stroke-miterlimit="4"
       d="M 67.471506,171.89098 V 129.65411"
       id="path2232" />
    <path
       fill-rule="nonzero"
       fill="#231f20"
       fill-opacity="1"
       d="m 67.471505,129.6541 -0.673862,0.4079 -0.01517,-0.0221 0.436837,-1.09829 c 0.08406,-0.3831 0.16812,-0.76481 0.25218,-1.14791 0.08406,0.3831 0.16812,0.76481 0.25218,1.14791 l 0.436841,1.09829 -0.01242,0.0221 -0.676617,-0.4079"
       id="path2233"
       style="stroke-width:0.352778" />
    <path
       fill="none"
       stroke-width="0.467431"
       stroke-linecap="butt"
       stroke-linejoin="miter"
       stroke="#000000"
       stroke-opacity="1"
       stroke-miterlimit="10"
       d="m 71.478841,167.38893 h 8.433593 l 0.124024,-0.022 h 2.756076 c 3.467144,-0.1323 7.818988,0.0661 10.821734,-2.0147 l 0.124023,-0.0882 0.143316,-0.0882 c 4.353223,-3.19981 6.527763,-11.31783 8.167633,-16.1892 l 0.12264,-0.41616 0.1447,-0.41617 0.12402,-0.41755 0.12265,-0.41479 c 3.52088,-11.23928 5.2641,-13.42071 8.31095,0.0427 l 0.12402,0.57051 0.14331,0.59118 0.12403,0.59118 c 1.14239,4.83967 1.98989,10.19472 3.82681,14.80977 l 0.14332,0.28526 0.12402,0.28525 c 0.88746,1.78594 1.77216,2.78364 3.82681,2.84703 l 0.12265,0.0221 h 0.53468 l 0.12402,0.022 h 4.2168"
       id="path2234" />
    <path
       fill="none"
       stroke-width="0.186972"
       stroke-linecap="butt"
       stroke-linejoin="miter"
       stroke="#231f20"
       stroke-opacity="1"
       stroke-miterlimit="10"
       d="m 88.898621,161.32693 2.368848,4.67706"
       id="path2235" />
    <path
       fill-rule="nonzero"
       fill="#231f20"
       fill-opacity="1"
       d="m 91.018042,165.51479 0.354157,-0.56913 0.02067,0.011 0.09095,1.00045 c 0.08268,0.32246 0.16674,0.6463 0.249425,0.96877 -0.210842,-0.2577 -0.421679,-0.51677 -0.63252,-0.77446 l -0.752408,-0.6656 -0.0014,-0.022 0.671104,0.051"
       id="path2236"
       style="stroke-width:0.352778" />
  </g>
</svg>
