<?xml version="1.0" encoding="UTF-8" standalone="no"?>
<!-- Created with Inkscape (http://www.inkscape.org/) -->

<svg
   width="64.592812mm"
   height="31.265989mm"
   viewBox="0 0 64.592812 31.265989"
   version="1.1"
   id="svg1"
   inkscape:version="1.3.2 (091e20e, 2023-11-25)"
   sodipodi:docname="fig-3-17.svg"
   xmlns:inkscape="http://www.inkscape.org/namespaces/inkscape"
   xmlns:sodipodi="http://sodipodi.sourceforge.net/DTD/sodipodi-0.dtd"
   xmlns="http://www.w3.org/2000/svg"
   xmlns:svg="http://www.w3.org/2000/svg">
  <sodipodi:namedview
     id="namedview1"
     pagecolor="#ffffff"
     bordercolor="#000000"
     borderopacity="0.25"
     inkscape:showpageshadow="2"
     inkscape:pageopacity="0.0"
     inkscape:pagecheckerboard="0"
     inkscape:deskcolor="#d1d1d1"
     inkscape:document-units="mm"
     inkscape:zoom="0.2102413"
     inkscape:cx="121.2892"
     inkscape:cy="57.077272"
     inkscape:window-width="1312"
     inkscape:window-height="449"
     inkscape:window-x="0"
     inkscape:window-y="38"
     inkscape:window-maximized="0"
     inkscape:current-layer="layer1" />
  <defs
     id="defs1" />
  <g
     inkscape:label="Layer 1"
     inkscape:groupmode="layer"
     id="layer1"
     transform="translate(-72.760418,-132.80737)">
    <path
       fill="none"
       stroke-width="0.176389"
       stroke-linecap="butt"
       stroke-linejoin="miter"
       stroke="#231f20"
       stroke-opacity="1"
       stroke-miterlimit="4"
       d="m 76.997885,160.69579 v -2.11667 m 53.842705,2.11667 v -2.11667 m -25.86026,-15.46297 h -2.11667 m -30.103242,16.5213 h 62.838542 m -31.67972,4.43591 v -29.49691"
       id="path288" />
    <path
       fill-rule="nonzero"
       fill="#231f20"
       fill-opacity="1"
       d="m 135.59896,159.63746 -0.38585,-0.63528 0.0207,-0.0152 1.03628,0.41203 c 0.36105,0.0799 0.72209,0.15848 1.08314,0.2384 -0.36105,0.0799 -0.72209,0.15848 -1.08314,0.2384 l -1.03628,0.41204 -0.0207,-0.011 0.38585,-0.63941"
       id="path289"
       style="stroke-width:0.352778" />
    <g
       fill="#231f20"
       fill-opacity="1"
       id="g289"
       transform="matrix(0.35277777,0,0,0.35277777,2.6361897,63.989206)">
      <g
         id="use289"
         transform="translate(376.93298,279.129)">
        <path
           d="m 3.21875,-0.890625 c -0.21875,0.25 -0.375,0.53125 -0.546875,0.53125 -0.15625,0 -0.21875,-0.1875 -0.25,-0.328125 -0.046875,-0.1875 -0.3125,-1.28125 -0.3125,-1.421875 0,0 0.53125,-0.96875 0.765625,-0.96875 0.1875,0 0.234375,0.140625 0.421875,0.140625 0.203125,0 0.28125,-0.15625 0.28125,-0.296875 0,-0.203125 -0.171875,-0.296875 -0.328125,-0.296875 -0.421875,0 -0.796875,0.484375 -1.203125,1.140625 l -0.09375,-0.4375 C 1.8125,-3.53125 1.6875,-3.53125 1.515625,-3.53125 c -0.265625,0 -0.78125,0.1875 -1,0.265625 l 0.03125,0.125 c 0.25,-0.0625 0.359375,-0.09375 0.4375,-0.09375 0.21875,0 0.25,0.109375 0.3125,0.359375 0.015625,0.046875 0.28125,1.109375 0.28125,1.171875 -0.71875,1.0625 -0.921875,1.328125 -1.0625,1.328125 -0.140625,0 -0.28125,-0.15625 -0.453125,-0.15625 -0.1875,0 -0.28125,0.140625 -0.28125,0.28125 0,0.1875 0.125,0.34375 0.390625,0.34375 0.25,0 0.34375,-0.09375 0.484375,-0.25 0.265625,-0.296875 0.609375,-0.71875 0.984375,-1.25 l 0.25,0.953125 c 0.09375,0.421875 0.21875,0.546875 0.453125,0.546875 0.1875,0 0.421875,0 0.984375,-0.921875 z m 0,0"
           id="path4" />
      </g>
    </g>
    <g
       fill="#231f20"
       fill-opacity="1"
       id="g290"
       transform="matrix(0.35277777,0,0,0.35277777,2.6361897,63.989206)">
      <g
         id="use290"
         transform="translate(361.66299,281.37601)">
        <path
           d="m 0.828125,0 h 1.9375 v -0.109375 c -0.53125,0 -0.671875,-0.078125 -0.671875,-0.40625 V -4.71875 l -0.0625,-0.015625 -1.25,0.640625 V -4 C 1.171875,-4.15625 1.171875,-4.15625 1.25,-4.15625 c 0.234375,0 0.234375,0.1875 0.234375,0.328125 v 3.171875 c 0,0.515625 -0.25,0.53125 -0.65625,0.546875 z m 0,0"
           id="path6" />
      </g>
    </g>
    <g
       fill="#231f20"
       fill-opacity="1"
       id="g291"
       transform="matrix(0.35277777,0,0,0.35277777,2.6361897,63.989206)">
      <g
         id="use291"
         transform="translate(278.853,226.489)">
        <path
           d="m 0.828125,0 h 1.9375 v -0.109375 c -0.53125,0 -0.671875,-0.078125 -0.671875,-0.40625 V -4.71875 l -0.0625,-0.015625 -1.25,0.640625 V -4 C 1.171875,-4.15625 1.171875,-4.15625 1.25,-4.15625 c 0.234375,0 0.234375,0.1875 0.234375,0.328125 v 3.171875 c 0,0.515625 -0.25,0.53125 -0.65625,0.546875 z m 0,0"
           id="path7" />
      </g>
    </g>
    <g
       fill="#231f20"
       fill-opacity="1"
       id="g292"
       transform="matrix(0.35277777,0,0,0.35277777,2.6361897,63.989206)">
      <g
         id="use292"
         transform="translate(203.29498,281.37601)">
        <path
           d="M 4.984375,-2.09375 V -2.421875 H 0.84375 v 0.328125 z m 0,0"
           id="path10" />
      </g>
    </g>
    <g
       fill="#231f20"
       fill-opacity="1"
       id="g293"
       transform="matrix(0.35277777,0,0,0.35277777,2.6361897,63.989206)">
      <g
         id="use293"
         transform="translate(209.12599,281.37601)">
        <path
           d="m 0.828125,0 h 1.9375 v -0.109375 c -0.53125,0 -0.671875,-0.078125 -0.671875,-0.40625 V -4.71875 l -0.0625,-0.015625 -1.25,0.640625 V -4 C 1.171875,-4.15625 1.171875,-4.15625 1.25,-4.15625 c 0.234375,0 0.234375,0.1875 0.234375,0.328125 v 3.171875 c 0,0.515625 -0.25,0.53125 -0.65625,0.546875 z m 0,0"
           id="path8" />
      </g>
    </g>
    <path
       fill="none"
       stroke-width="0.352778"
       stroke-linecap="butt"
       stroke-linejoin="miter"
       stroke="#231f20"
       stroke-opacity="1"
       stroke-miterlimit="4"
       d="m 76.995129,159.63608 c 0,0 2.007802,-15.97009 5.462544,-16.59847 3.454742,-0.62839 4.868609,2.98345 7.773513,7.53787 2.904904,4.55303 9.367904,9.06611 13.686674,9.06611 m 26.92273,-0.006 c 0,0 -2.0078,-15.97009 -5.46254,-16.59847 -3.45474,-0.62839 -4.86861,2.98345 -7.77351,7.53787 -2.90491,4.55303 -9.36791,9.06611 -13.68668,9.06611"
       id="path293" />
    <path
       fill-rule="nonzero"
       fill="#231f20"
       fill-opacity="1"
       d="m 103.91924,134.57645 -0.63528,0.38585 -0.0138,-0.022 0.41065,-1.03629 c 0.0799,-0.36104 0.15848,-0.72209 0.2384,-1.08314 0.0799,0.36105 0.15848,0.7221 0.2384,1.08314 l 0.41204,1.03629 -0.011,0.022 -0.63941,-0.38585"
       id="path294"
       style="stroke-width:0.352778" />
    <g
       fill="#231f20"
       fill-opacity="1"
       id="g294"
       transform="matrix(0.35277777,0,0,0.35277777,2.6361897,63.989206)">
      <g
         id="use294"
         transform="translate(269.52698,200.49699)">
        <path
           d="M 0.28125,-3.171875 H 1 L 0.296875,0.1875 c -0.0625,0.328125 -0.265625,1.296875 -0.78125,1.296875 -0.09375,0 -0.15625,-0.0625 -0.15625,-0.125 0,-0.09375 0.078125,-0.09375 0.078125,-0.21875 0,-0.203125 -0.21875,-0.3125 -0.328125,-0.296875 -0.28125,0.015625 -0.28125,0.3125 -0.28125,0.34375 0.046875,0.359375 0.375,0.46875 0.625,0.46875 0.9375,0 1.375,-1.28125 1.609375,-2.265625 l 0.5625,-2.5625 H 2.5 l 0.046875,-0.25 H 1.6875 C 1.765625,-3.828125 2,-5.25 2.65625,-5.25 c 0.109375,0 0.1875,0.03125 0.1875,0.09375 0,0.09375 -0.078125,0.09375 -0.078125,0.265625 0,0.09375 0.046875,0.3125 0.296875,0.3125 0.1875,0 0.328125,-0.171875 0.328125,-0.328125 0,-0.15625 -0.125,-0.515625 -0.703125,-0.515625 -1,0 -1.40625,1.3125 -1.609375,2 H 0.34375 Z m 0,0"
           id="path9" />
      </g>
    </g>
    <g
       fill="#231f20"
       fill-opacity="1"
       id="g295"
       transform="matrix(0.35277777,0,0,0.35277777,2.6361897,63.989206)">
      <g
         id="use295"
         transform="translate(271.75098,202.49699)">
        <path
           d="m 0.703125,0 h 1.65625 v -0.09375 c -0.453125,0 -0.5625,-0.0625 -0.5625,-0.34375 V -4.046875 L 1.75,-4.0625 0.671875,-3.515625 v 0.09375 C 1,-3.5625 1,-3.5625 1.078125,-3.5625 c 0.203125,0 0.203125,0.15625 0.203125,0.28125 v 2.71875 c 0,0.453125 -0.21875,0.453125 -0.578125,0.46875 z m 0,0"
           id="path1" />
      </g>
    </g>
    <g
       fill="#231f20"
       fill-opacity="1"
       id="g296"
       transform="matrix(0.35277777,0,0,0.35277777,2.6361897,63.989206)">
      <g
         id="use296"
         transform="translate(274.75098,200.49699)">
        <path
           d="m 2.359375,-5.40625 c -1.234375,0.734375 -1.96875,1.9375 -1.96875,3.3125 0,1.109375 0.25,1.671875 0.65625,2.25 C 1.34375,0.609375 1.875,1.171875 2.34375,1.421875 L 2.4375,1.28125 c -1.359375,-0.859375 -1.359375,-2.625 -1.359375,-3.4375 0,-2.03125 0.765625,-2.65625 1.359375,-3.125 z m 0,0"
           id="path11" />
      </g>
    </g>
    <g
       fill="#231f20"
       fill-opacity="1"
       id="g297"
       transform="matrix(0.35277777,0,0,0.35277777,2.6361897,63.989206)">
      <g
         id="use297"
         transform="translate(277.41498,200.49699)">
        <path
           d="m 3.21875,-0.890625 c -0.21875,0.25 -0.375,0.53125 -0.546875,0.53125 -0.15625,0 -0.21875,-0.1875 -0.25,-0.328125 -0.046875,-0.1875 -0.3125,-1.28125 -0.3125,-1.421875 0,0 0.53125,-0.96875 0.765625,-0.96875 0.1875,0 0.234375,0.140625 0.421875,0.140625 0.203125,0 0.28125,-0.15625 0.28125,-0.296875 0,-0.203125 -0.171875,-0.296875 -0.328125,-0.296875 -0.421875,0 -0.796875,0.484375 -1.203125,1.140625 l -0.09375,-0.4375 C 1.8125,-3.53125 1.6875,-3.53125 1.515625,-3.53125 c -0.265625,0 -0.78125,0.1875 -1,0.265625 l 0.03125,0.125 c 0.25,-0.0625 0.359375,-0.09375 0.4375,-0.09375 0.21875,0 0.25,0.109375 0.3125,0.359375 0.015625,0.046875 0.28125,1.109375 0.28125,1.171875 -0.71875,1.0625 -0.921875,1.328125 -1.0625,1.328125 -0.140625,0 -0.28125,-0.15625 -0.453125,-0.15625 -0.1875,0 -0.28125,0.140625 -0.28125,0.28125 0,0.1875 0.125,0.34375 0.390625,0.34375 0.25,0 0.34375,-0.09375 0.484375,-0.25 0.265625,-0.296875 0.609375,-0.71875 0.984375,-1.25 l 0.25,0.953125 c 0.09375,0.421875 0.21875,0.546875 0.453125,0.546875 0.1875,0 0.421875,0 0.984375,-0.921875 z m 0,0"
           id="path5" />
      </g>
    </g>
    <g
       fill="#231f20"
       fill-opacity="1"
       id="g298"
       transform="matrix(0.35277777,0,0,0.35277777,2.6361897,63.989206)">
      <g
         id="use298"
         transform="translate(280.96698,200.49699)">
        <path
           d="m 0.296875,1.421875 c 1.25,-0.734375 1.984375,-1.9375 1.984375,-3.3125 0,-1.109375 -0.265625,-1.6875 -0.65625,-2.265625 -0.3125,-0.4375 -0.828125,-1 -1.296875,-1.25 l -0.09375,0.125 c 1.359375,0.875 1.359375,2.625 1.359375,3.4375 0,2.03125 -0.765625,2.65625 -1.359375,3.125 z m 0,0"
           id="path3" />
      </g>
    </g>
  </g>
</svg>
