<?xml version="1.0" encoding="UTF-8" standalone="no"?>
<!-- Created with Inkscape (http://www.inkscape.org/) -->

<svg
   width="32.816322mm"
   height="43.761009mm"
   viewBox="0 0 32.816322 43.761009"
   version="1.1"
   id="svg1"
   inkscape:version="1.3.2 (091e20e, 2023-11-25)"
   sodipodi:docname="fig-3-23.svg"
   xmlns:inkscape="http://www.inkscape.org/namespaces/inkscape"
   xmlns:sodipodi="http://sodipodi.sourceforge.net/DTD/sodipodi-0.dtd"
   xmlns="http://www.w3.org/2000/svg"
   xmlns:svg="http://www.w3.org/2000/svg">
  <sodipodi:namedview
     id="namedview1"
     pagecolor="#ffffff"
     bordercolor="#000000"
     borderopacity="0.25"
     inkscape:showpageshadow="2"
     inkscape:pageopacity="0.0"
     inkscape:pagecheckerboard="0"
     inkscape:deskcolor="#d1d1d1"
     inkscape:document-units="mm"
     inkscape:zoom="0.2102413"
     inkscape:cx="59.455492"
     inkscape:cy="80.859469"
     inkscape:window-width="1312"
     inkscape:window-height="449"
     inkscape:window-x="0"
     inkscape:window-y="38"
     inkscape:window-maximized="0"
     inkscape:current-layer="layer1" />
  <defs
     id="defs1" />
  <g
     inkscape:label="Layer 1"
     inkscape:groupmode="layer"
     id="layer1"
     transform="translate(-88.747367,-126.73538)">
    <path
       fill="none"
       stroke-width="0.176389"
       stroke-linecap="butt"
       stroke-linejoin="miter"
       stroke="#231f20"
       stroke-opacity="1"
       stroke-miterlimit="4"
       d="m 111.46124,167.11882 v -2.11667"
       id="path263" />
    <path
       fill="none"
       stroke-width="0.176389"
       stroke-linecap="butt"
       stroke-linejoin="miter"
       stroke="#231f20"
       stroke-opacity="1"
       stroke-dasharray="4.15, 2"
       stroke-miterlimit="4"
       d="m 111.46124,164.60115 v -3.20669"
       id="path264" />
    <path
       fill="none"
       stroke-width="0.176389"
       stroke-linecap="butt"
       stroke-linejoin="miter"
       stroke="#231f20"
       stroke-opacity="1"
       stroke-miterlimit="4"
       d="m 90.487502,166.06049 h 29.320518 m -25.107856,4.4359 v -42.00535"
       id="path265" />
    <path
       fill-rule="nonzero"
       fill="#231f20"
       fill-opacity="1"
       d="m 119.8094,166.06049 -0.38723,-0.63528 0.0221,-0.0138 1.03628,0.41065 c 0.36105,0.0799 0.72209,0.15986 1.08314,0.2384 -0.36105,0.0799 -0.72209,0.15986 -1.08314,0.2384 l -1.03628,0.41204 -0.0221,-0.011 0.38723,-0.63941"
       id="path266"
       style="stroke-width:0.352778" />
    <g
       fill="#231f20"
       fill-opacity="1"
       id="g266"
       transform="matrix(0.35277777,0,0,0.35277777,18.464337,104.07082)">
      <g
         id="use266"
         transform="translate(287.306,183.72)">
        <path
           d="m 0.125,-3.203125 c 0.09375,-0.015625 0.140625,-0.03125 0.265625,-0.03125 0.453125,0 0.5625,0.34375 0.78125,1.078125 0.125,0.421875 0.46875,1.828125 0.46875,2.125 0,0.21875 -0.34375,0.609375 -0.53125,0.84375 -0.28125,0.328125 -0.375,0.390625 -0.515625,0.390625 -0.140625,0 -0.234375,-0.21875 -0.484375,-0.21875 -0.171875,0 -0.296875,0.140625 -0.296875,0.296875 0,0.34375 0.34375,0.359375 0.40625,0.359375 0.953125,0 3.1875,-3.71875 3.1875,-4.671875 0,-0.28125 -0.15625,-0.5 -0.453125,-0.5 -0.203125,0 -0.296875,0.171875 -0.296875,0.28125 0,0.375 0.4375,0.28125 0.4375,0.609375 0,0.421875 -0.640625,1.5 -0.984375,2.0625 L 1.953125,-1.5 C 1.84375,-2.109375 1.375,-3.53125 1.265625,-3.53125 1.125,-3.53125 0.5,-3.40625 0.125,-3.34375 Z m 0,0"
           id="path7" />
      </g>
    </g>
    <path
       fill-rule="nonzero"
       fill="#231f20"
       fill-opacity="1"
       d="m 94.700163,128.49103 -0.635275,0.38585 -0.01379,-0.0207 0.410654,-1.03629 c 0.07993,-0.36104 0.158475,-0.72209 0.2384,-1.08451 0.07993,0.36242 0.158475,0.72347 0.2384,1.08451 l 0.412034,1.03629 -0.01101,0.0207 -0.63941,-0.38585"
       id="path267"
       style="stroke-width:0.352778" />
    <g
       fill="#231f20"
       fill-opacity="1"
       id="g267"
       transform="matrix(0.35277777,0,0,0.35277777,18.464337,104.07082)">
      <g
         id="use267"
         transform="translate(261.86499,185.966)">
        <path
           d="m 0.828125,0 h 1.9375 v -0.109375 c -0.53125,0 -0.671875,-0.078125 -0.671875,-0.40625 V -4.71875 l -0.0625,-0.015625 -1.25,0.640625 V -4 C 1.171875,-4.15625 1.171875,-4.15625 1.25,-4.15625 c 0.234375,0 0.234375,0.1875 0.234375,0.328125 v 3.171875 c 0,0.515625 -0.25,0.53125 -0.65625,0.546875 z m 0,0"
           id="path5" />
      </g>
    </g>
    <g
       fill="#231f20"
       fill-opacity="1"
       id="g268"
       transform="matrix(0.35277777,0,0,0.35277777,18.464337,104.07082)">
      <g
         id="use268"
         transform="translate(209.94598,183.285)">
        <path
           d="m 1.75,-4.546875 c 0.890625,0 0.90625,1.75 0.90625,2.234375 0,0.546875 -0.015625,2.234375 -0.90625,2.234375 -0.890625,0 -0.90625,-1.671875 -0.90625,-2.234375 0,-0.484375 0.015625,-2.234375 0.90625,-2.234375 z m 0,-0.1875 c -1.28125,0 -1.578125,1.59375 -1.578125,2.421875 0,0.84375 0.296875,2.40625 1.578125,2.40625 1.28125,0 1.578125,-1.5625 1.578125,-2.40625 0,-0.828125 -0.296875,-2.421875 -1.578125,-2.421875 z m 0,0"
           id="path4" />
      </g>
    </g>
    <g
       fill="#231f20"
       fill-opacity="1"
       id="g269"
       transform="matrix(0.35277777,0,0,0.35277777,18.464337,104.07082)">
      <g
         id="use269"
         transform="translate(199.16499,69.697899)">
        <path
           d="m 3.78125,-3.234375 h -0.5 c -0.046875,0 -0.125,-0.078125 -0.25,-0.15625 C 2.875,-3.453125 2.6875,-3.53125 2.359375,-3.53125 c -0.65625,0 -1.59375,0.46875 -1.59375,1.359375 0,0.5625 0.34375,0.75 0.640625,0.875 -0.28125,0.1875 -0.625,0.421875 -0.625,0.671875 0,0.140625 0.125,0.234375 0.21875,0.3125 -0.671875,0.4375 -0.9375,0.609375 -0.9375,1.078125 0,0.4375 0.421875,0.875 1.296875,0.875 1.09375,0 1.71875,-0.484375 1.71875,-1.15625 C 3.078125,-0.625 1.375,-0.5 1.375,-0.921875 c 0,-0.109375 0.171875,-0.3125 0.28125,-0.3125 0.109375,0 0.21875,0.03125 0.328125,0.03125 0.703125,0 1.46875,-0.65625 1.46875,-1.25 0,-0.15625 -0.03125,-0.328125 -0.078125,-0.46875 H 3.78125 Z M 2.59375,0.71875 c 0,0.390625 -0.390625,0.75 -1.109375,0.75 C 1.375,1.46875 0.5,1.4375 0.5,0.703125 c 0,-0.1875 0,-0.40625 0.328125,-0.6875 0.03125,-0.03125 0.296875,-0.234375 0.34375,-0.234375 0.0625,0 0.84375,0.296875 0.984375,0.359375 0.15625,0.078125 0.4375,0.21875 0.4375,0.578125 z M 2.8125,-2.8125 c 0,0.671875 -0.390625,1.4375 -0.921875,1.4375 -0.359375,0 -0.5,-0.265625 -0.5,-0.625 0,-0.53125 0.359375,-1.359375 0.96875,-1.359375 0.34375,0 0.453125,0.234375 0.453125,0.546875 z m 0,0"
           id="path6" />
      </g>
    </g>
    <g
       fill="#231f20"
       fill-opacity="1"
       id="g270"
       transform="matrix(0.35277777,0,0,0.35277777,18.464337,104.07082)">
      <g
         id="use270"
         transform="translate(203.16499,69.697899)">
        <path
           d="m 2.359375,-5.40625 c -1.234375,0.734375 -1.96875,1.9375 -1.96875,3.3125 0,1.109375 0.25,1.671875 0.65625,2.25 C 1.34375,0.609375 1.875,1.171875 2.34375,1.421875 L 2.4375,1.28125 c -1.359375,-0.859375 -1.359375,-2.625 -1.359375,-3.4375 0,-2.03125 0.765625,-2.65625 1.359375,-3.125 z m 0,0"
           id="path3" />
      </g>
    </g>
    <g
       fill="#231f20"
       fill-opacity="1"
       id="g271"
       transform="matrix(0.35277777,0,0,0.35277777,18.464337,104.07082)">
      <g
         id="use271"
         transform="translate(206.62898,69.697899)">
        <path
           d="m 0.125,-3.203125 c 0.09375,-0.015625 0.140625,-0.03125 0.265625,-0.03125 0.453125,0 0.5625,0.34375 0.78125,1.078125 0.125,0.421875 0.46875,1.828125 0.46875,2.125 0,0.21875 -0.34375,0.609375 -0.53125,0.84375 -0.28125,0.328125 -0.375,0.390625 -0.515625,0.390625 -0.140625,0 -0.234375,-0.21875 -0.484375,-0.21875 -0.171875,0 -0.296875,0.140625 -0.296875,0.296875 0,0.34375 0.34375,0.359375 0.40625,0.359375 0.953125,0 3.1875,-3.71875 3.1875,-4.671875 0,-0.28125 -0.15625,-0.5 -0.453125,-0.5 -0.203125,0 -0.296875,0.171875 -0.296875,0.28125 0,0.375 0.4375,0.28125 0.4375,0.609375 0,0.421875 -0.640625,1.5 -0.984375,2.0625 L 1.953125,-1.5 C 1.84375,-2.109375 1.375,-3.53125 1.265625,-3.53125 1.125,-3.53125 0.5,-3.40625 0.125,-3.34375 Z m 0,0"
           id="path8" />
      </g>
    </g>
    <g
       fill="#231f20"
       fill-opacity="1"
       id="g272"
       transform="matrix(0.35277777,0,0,0.35277777,18.464337,104.07082)">
      <g
         id="use272"
         transform="translate(210.18098,69.697899)">
        <path
           d="m 0.296875,1.421875 c 1.25,-0.734375 1.984375,-1.9375 1.984375,-3.3125 0,-1.109375 -0.265625,-1.6875 -0.65625,-2.265625 -0.3125,-0.4375 -0.828125,-1 -1.296875,-1.25 l -0.09375,0.125 c 1.359375,0.875 1.359375,2.625 1.359375,3.4375 0,2.03125 -0.765625,2.65625 -1.359375,3.125 z m 0,0"
           id="path1" />
      </g>
    </g>
    <path
       fill="none"
       stroke-width="0.352778"
       stroke-linecap="butt"
       stroke-linejoin="miter"
       stroke="#231f20"
       stroke-opacity="1"
       stroke-miterlimit="4"
       d="m 111.42541,161.14916 c 0,0 -2.87459,-0.16399 -8.87043,-7.63847 -5.995846,-7.4731 -7.14513,-14.20757 -7.14513,-18.6421"
       id="path272" />
  </g>
</svg>
