<?xml version="1.0" encoding="UTF-8" standalone="no"?>
<!-- Created with Inkscape (http://www.inkscape.org/) -->

<svg
   width="74.967926mm"
   height="46.709286mm"
   viewBox="0 0 74.967926 46.709286"
   version="1.1"
   id="svg1"
   inkscape:version="1.3.2 (091e20e, 2023-11-25)"
   sodipodi:docname="fig-3-24.svg"
   xmlns:inkscape="http://www.inkscape.org/namespaces/inkscape"
   xmlns:sodipodi="http://sodipodi.sourceforge.net/DTD/sodipodi-0.dtd"
   xmlns="http://www.w3.org/2000/svg"
   xmlns:svg="http://www.w3.org/2000/svg">
  <sodipodi:namedview
     id="namedview1"
     pagecolor="#ffffff"
     bordercolor="#000000"
     borderopacity="0.25"
     inkscape:showpageshadow="2"
     inkscape:pageopacity="0.0"
     inkscape:pagecheckerboard="0"
     inkscape:deskcolor="#d1d1d1"
     inkscape:document-units="mm"
     inkscape:zoom="0.2102413"
     inkscape:cx="140.31496"
     inkscape:cy="90.372348"
     inkscape:window-width="1312"
     inkscape:window-height="449"
     inkscape:window-x="0"
     inkscape:window-y="38"
     inkscape:window-maximized="0"
     inkscape:current-layer="layer1" />
  <defs
     id="defs1" />
  <g
     inkscape:label="Layer 1"
     inkscape:groupmode="layer"
     id="layer1"
     transform="translate(-67.46875,-125.14791)">
    <path
       fill="none"
       stroke-width="0.176389"
       stroke-linecap="butt"
       stroke-linejoin="miter"
       stroke="#231f20"
       stroke-opacity="1"
       stroke-miterlimit="4"
       d="m 74.518688,125.14791 v 42.2038 h 67.917992"
       id="path1759" />
    <path
       fill="none"
       stroke-width="0.352778"
       stroke-linecap="butt"
       stroke-linejoin="miter"
       stroke="#231f20"
       stroke-opacity="1"
       stroke-miterlimit="4"
       d="m 67.562351,128.93201 68.324509,42.77568"
       id="path1760" />
    <path
       fill="none"
       stroke-width="0.176389"
       stroke-linecap="butt"
       stroke-linejoin="miter"
       stroke="#231f20"
       stroke-opacity="1"
       stroke-miterlimit="4"
       d="m 128.93053,166.29338 v 2.11667 M 73.460356,133.28661 h 2.116666"
       id="path1761" />
    <path
       fill="none"
       stroke-width="0.352778"
       stroke-linecap="butt"
       stroke-linejoin="miter"
       stroke="#231f20"
       stroke-opacity="1"
       stroke-miterlimit="4"
       d="m 67.71807,134.80383 3.519509,-3.51951 m -3.468522,10.23056 7.630197,-7.62882 m -7.632953,14.39498 11.793251,-11.79325 m -11.742263,18.5043 15.90256,-15.90256 m -16.016938,22.78035 20.178613,-20.17724 m -20.181369,26.94341 24.341666,-24.34167 m -20.66506,27.42847 24.825357,-24.82673 m -17.892447,24.65586 22.052749,-22.05275 m -15.343081,22.10511 19.504751,-19.50337 m -12.73445,19.49648 16.89475,-16.89475 m -10.128582,16.89062 14.288882,-14.28888 m -7.50067,14.26407 11.66234,-11.66096 m -4.97334,11.73538 9.13364,-9.13364 m -2.32062,9.08265 6.48092,-6.48092 m 0.3321,6.43131 3.82957,-3.82957 m 2.84427,3.91914 1.31603,-1.31602"
       id="path1762" />
    <g
       fill="#231f20"
       fill-opacity="1"
       id="g1762"
       transform="matrix(0.35277777,0,0,0.35277777,-2.566011,-63.686033)">
      <g
         id="use1762"
         transform="translate(230.16199,634.71698)">
        <path
           d="m 2.9375,-5.34375 -2.3125,4 c -0.65625,1.125 -0.734375,1.140625 -1.03125,1.21875 V 0 h 1.5 v -0.125 c -0.375,-0.03125 -0.484375,-0.078125 -0.484375,-0.28125 0,-0.171875 0.046875,-0.28125 0.171875,-0.5 L 1.234375,-1.8125 h 1.75 l 0.171875,1.046875 c 0.015625,0.125 0.015625,0.234375 0.015625,0.234375 0,0.328125 -0.21875,0.375 -0.625,0.40625 V 0 h 1.96875 V -0.125 C 4.046875,-0.171875 4,-0.25 3.90625,-0.8125 l -0.75,-4.53125 z m -1.53125,3.25 1.1875,-2.078125 0.359375,2.078125 z m 0,0"
           id="path5" />
      </g>
    </g>
    <g
       fill="#231f20"
       fill-opacity="1"
       id="g1763"
       transform="matrix(0.35277777,0,0,0.35277777,-2.566011,-63.686033)">
      <g
         id="use1763"
         transform="translate(235.04999,636.71698)">
        <path
           d="m 0.09375,-2.40625 c 0.0625,-0.015625 0.109375,-0.015625 0.203125,-0.015625 0.34375,0 0.421875,0.25 0.578125,0.796875 0.109375,0.328125 0.359375,1.375 0.359375,1.609375 0,0.15625 -0.25,0.453125 -0.40625,0.625 -0.203125,0.25 -0.28125,0.296875 -0.375,0.296875 -0.109375,0 -0.1875,-0.171875 -0.375,-0.171875 -0.125,0 -0.21875,0.109375 -0.21875,0.234375 0,0.25 0.25,0.265625 0.296875,0.265625 0.71875,0 2.40625,-2.796875 2.40625,-3.515625 0,-0.203125 -0.125,-0.359375 -0.34375,-0.359375 -0.15625,0 -0.234375,0.125 -0.234375,0.203125 0,0.28125 0.328125,0.21875 0.328125,0.453125 0,0.328125 -0.46875,1.125 -0.734375,1.546875 L 1.46875,-1.125 C 1.390625,-1.578125 1.03125,-2.65625 0.953125,-2.640625 0.84375,-2.640625 0.375,-2.546875 0.09375,-2.5 Z m 0,0"
           id="path4" />
      </g>
    </g>
    <g
       fill="#231f20"
       fill-opacity="1"
       id="g1764"
       transform="matrix(0.35277777,0,0,0.35277777,-2.566011,-63.686033)">
      <g
         id="use1764"
         transform="translate(210.85899,559.72998)">
        <path
           d="m 0.109375,-2.796875 c 0.078125,-0.03125 0.125,-0.03125 0.234375,-0.03125 0.390625,0 0.484375,0.296875 0.671875,0.9375 0.125,0.375 0.421875,1.609375 0.421875,1.875 0,0.1875 -0.296875,0.53125 -0.46875,0.734375 C 0.734375,1 0.640625,1.0625 0.53125,1.0625 c -0.125,0 -0.21875,-0.203125 -0.4375,-0.203125 -0.140625,0 -0.265625,0.125 -0.265625,0.265625 0,0.296875 0.3125,0.3125 0.359375,0.3125 0.828125,0 2.796875,-3.25 2.796875,-4.09375 0,-0.25 -0.140625,-0.4375 -0.40625,-0.4375 -0.171875,0 -0.25,0.15625 -0.25,0.25 0,0.328125 0.375,0.25 0.375,0.53125 0,0.375 -0.546875,1.3125 -0.859375,1.8125 L 1.703125,-1.3125 c -0.09375,-0.53125 -0.5,-1.78125 -0.59375,-1.78125 -0.125,0 -0.671875,0.125 -1,0.171875 z m 0,0"
           id="path1" />
      </g>
    </g>
    <g
       fill="#231f20"
       fill-opacity="1"
       id="g1765"
       transform="matrix(0.35277777,0,0,0.35277777,-2.566011,-63.686033)">
      <g
         id="use1765"
         transform="translate(371.29898,663.19702)">
        <path
           d="m 0.109375,-2.796875 c 0.078125,-0.03125 0.125,-0.03125 0.234375,-0.03125 0.390625,0 0.484375,0.296875 0.671875,0.9375 0.125,0.375 0.421875,1.609375 0.421875,1.875 0,0.1875 -0.296875,0.53125 -0.46875,0.734375 C 0.734375,1 0.640625,1.0625 0.53125,1.0625 c -0.125,0 -0.21875,-0.203125 -0.4375,-0.203125 -0.140625,0 -0.265625,0.125 -0.265625,0.265625 0,0.296875 0.3125,0.3125 0.359375,0.3125 0.828125,0 2.796875,-3.25 2.796875,-4.09375 0,-0.25 -0.140625,-0.4375 -0.40625,-0.4375 -0.171875,0 -0.25,0.15625 -0.25,0.25 0,0.328125 0.375,0.25 0.375,0.53125 0,0.375 -0.546875,1.3125 -0.859375,1.8125 L 1.703125,-1.3125 c -0.09375,-0.53125 -0.5,-1.78125 -0.59375,-1.78125 -0.125,0 -0.671875,0.125 -1,0.171875 z m 0,0"
           id="path3" />
      </g>
    </g>
  </g>
</svg>
