<?xml version="1.0" encoding="UTF-8" standalone="no"?>
<!-- Created with Inkscape (http://www.inkscape.org/) -->

<svg
   width="77.357513mm"
   height="47.885651mm"
   viewBox="0 0 77.357513 47.885651"
   version="1.1"
   id="svg1"
   inkscape:version="1.3.2 (091e20e, 2023-11-25)"
   sodipodi:docname="fig-3-4.svg"
   xmlns:inkscape="http://www.inkscape.org/namespaces/inkscape"
   xmlns:sodipodi="http://sodipodi.sourceforge.net/DTD/sodipodi-0.dtd"
   xmlns="http://www.w3.org/2000/svg"
   xmlns:svg="http://www.w3.org/2000/svg">
  <sodipodi:namedview
     id="namedview1"
     pagecolor="#ffffff"
     bordercolor="#000000"
     borderopacity="0.25"
     inkscape:showpageshadow="2"
     inkscape:pageopacity="0.0"
     inkscape:pagecheckerboard="0"
     inkscape:deskcolor="#d1d1d1"
     inkscape:document-units="mm"
     inkscape:zoom="0.2102413"
     inkscape:cx="145.0714"
     inkscape:cy="90.372348"
     inkscape:window-width="1312"
     inkscape:window-height="449"
     inkscape:window-x="0"
     inkscape:window-y="38"
     inkscape:window-maximized="0"
     inkscape:current-layer="layer1" />
  <defs
     id="defs1" />
  <g
     inkscape:label="Layer 1"
     inkscape:groupmode="layer"
     id="layer1"
     transform="translate(-66.410416,-124.60477)">
    <path
       fill-rule="nonzero"
       fill="#d1d2d4"
       fill-opacity="1"
       d="m 104.36848,146.76244 v 21.5222 h 14.09457 v -8.1194 c -6.41615,-3.95083 -10.62192,-9.24526 -14.09457,-13.4028"
       id="path192"
       style="stroke-width:0.352778" />
    <path
       fill="none"
       stroke-width="0.176389"
       stroke-linecap="butt"
       stroke-linejoin="miter"
       stroke="#231f20"
       stroke-opacity="1"
       stroke-miterlimit="4"
       d="m 118.46305,168.28465 v -8.1194"
       id="path193" />
    <path
       fill="none"
       stroke-width="0.176389"
       stroke-linecap="butt"
       stroke-linejoin="miter"
       stroke="#231f20"
       stroke-opacity="1"
       stroke-miterlimit="4"
       d="m 104.36848,146.76244 v 21.5222"
       id="path194" />
    <path
       fill="none"
       stroke-width="0.176389"
       stroke-linecap="butt"
       stroke-linejoin="miter"
       stroke="#231f20"
       stroke-opacity="1"
       stroke-miterlimit="4"
       d="m 66.410416,168.28464 h 75.603304 m -43.749952,4.20578 v -46.11605"
       id="path195" />
    <g
       fill="#231f20"
       fill-opacity="1"
       id="g196"
       transform="matrix(0.35277777,0,0,0.35277777,-3.7110563,101.9638)">
      <g
         id="use195"
         transform="translate(304.61551,194.448)">
        <path
           d="M 3.25,-0.765625 C 2.9375,-0.46875 2.796875,-0.28125 2.6875,-0.28125 c -0.0625,0 -0.09375,-0.046875 -0.09375,-0.09375 0,-0.21875 0.640625,-2.609375 0.65625,-2.6875 L 3.203125,-3.09375 2.78125,-3.03125 2.765625,-3.015625 2.6875,-2.703125 H 2.671875 C 2.65625,-2.90625 2.421875,-3.09375 2.125,-3.09375 c -0.9375,0 -2,1.3125 -2,2.34375 0,0.203125 0.015625,0.828125 0.71875,0.828125 0.421875,0 0.78125,-0.21875 1.375,-1.0625 v 0.015625 c -0.109375,0.421875 -0.140625,0.578125 -0.140625,0.734375 0,0.125 0,0.296875 0.296875,0.296875 0.296875,0 0.53125,-0.25 0.953125,-0.765625 z m -2.546875,0 c 0,-0.625 0.640625,-2.171875 1.453125,-2.171875 0.203125,0 0.40625,0.140625 0.40625,0.46875 0,0.6875 -0.6875,2.203125 -1.4375,2.203125 -0.1875,0 -0.421875,-0.125 -0.421875,-0.5 z m 0,0"
           id="path8" />
      </g>
      <g
         id="use196"
         transform="translate(344.5694,194.448)">
        <path
           d="m 2.71875,-2.15625 c 0,0.59375 -0.671875,2.078125 -1.625,2.078125 -0.328125,0 -0.328125,-0.1875 -0.328125,-0.234375 0,-0.734375 0.671875,-2.4375 1.4375,-2.4375 0.4375,0 0.515625,0.390625 0.515625,0.59375 z M 0.765625,-4.5 c 0.40625,0 0.453125,0.046875 0.453125,0.203125 0,0.09375 -0.0625,0.265625 -0.109375,0.46875 l -0.953125,3.5 v 0.03125 c 0,0.15625 0.546875,0.375 0.921875,0.375 1.0625,0 2.234375,-1.21875 2.234375,-2.3125 0,-0.515625 -0.34375,-0.859375 -0.828125,-0.859375 -0.640625,0 -1.078125,0.65625 -1.3125,1.015625 H 1.15625 C 1.40625,-2.875 1.71875,-4.171875 1.875,-4.75 L 1.84375,-4.78125 C 1.484375,-4.71875 1.125,-4.65625 0.765625,-4.625 Z m 0,0"
           id="path7" />
      </g>
    </g>
    <path
       fill-rule="nonzero"
       fill="#231f20"
       fill-opacity="1"
       d="m 142.01372,168.28464 -0.38722,-0.63527 0.022,-0.0152 1.03629,0.41203 c 0.36105,0.0799 0.72209,0.15848 1.08314,0.2384 -0.36105,0.0799 -0.72209,0.15848 -1.08314,0.2384 l -1.03629,0.41203 -0.022,-0.011 0.38722,-0.63941"
       id="path196"
       style="stroke-width:0.352778" />
    <g
       fill="#231f20"
       fill-opacity="1"
       id="g197"
       transform="matrix(0.35277777,0,0,0.35277777,-3.7110563,101.9638)">
      <g
         id="use197"
         transform="translate(413.10849,195.9959)">
        <path
           d="m 3.21875,-0.890625 c -0.21875,0.25 -0.375,0.53125 -0.546875,0.53125 -0.15625,0 -0.21875,-0.1875 -0.25,-0.328125 -0.046875,-0.1875 -0.3125,-1.28125 -0.3125,-1.421875 0,0 0.53125,-0.96875 0.765625,-0.96875 0.1875,0 0.234375,0.140625 0.421875,0.140625 0.203125,0 0.28125,-0.15625 0.28125,-0.296875 0,-0.203125 -0.171875,-0.296875 -0.328125,-0.296875 -0.421875,0 -0.796875,0.484375 -1.203125,1.140625 l -0.09375,-0.4375 C 1.8125,-3.53125 1.6875,-3.53125 1.515625,-3.53125 c -0.265625,0 -0.78125,0.1875 -1,0.265625 l 0.03125,0.125 c 0.25,-0.0625 0.359375,-0.09375 0.4375,-0.09375 0.21875,0 0.25,0.109375 0.3125,0.359375 0.015625,0.046875 0.28125,1.109375 0.28125,1.171875 -0.71875,1.0625 -0.921875,1.328125 -1.0625,1.328125 -0.140625,0 -0.28125,-0.15625 -0.453125,-0.15625 -0.1875,0 -0.28125,0.140625 -0.28125,0.28125 0,0.1875 0.125,0.34375 0.390625,0.34375 0.25,0 0.34375,-0.09375 0.484375,-0.25 0.265625,-0.296875 0.609375,-0.71875 0.984375,-1.25 l 0.25,0.953125 c 0.09375,0.421875 0.21875,0.546875 0.453125,0.546875 0.1875,0 0.421875,0 0.984375,-0.921875 z m 0,0"
           id="path5" />
      </g>
    </g>
    <path
       fill-rule="nonzero"
       fill="#231f20"
       fill-opacity="1"
       d="m 98.263768,126.37299 -0.636655,0.38585 -0.01379,-0.0207 0.412034,-1.03628 c 0.07855,-0.36105 0.158474,-0.72209 0.2384,-1.08314 0.07855,0.36105 0.158475,0.72209 0.2384,1.08314 l 0.410654,1.03628 -0.01101,0.0207 -0.638031,-0.38585"
       id="path197"
       style="stroke-width:0.352778" />
    <g
       fill="#231f20"
       fill-opacity="1"
       id="g198"
       transform="matrix(0.35277777,0,0,0.35277777,-3.7110563,101.9638)">
      <g
         id="use198"
         transform="translate(273.68649,69.600998)">
        <path
           d="M 0.28125,-3.171875 H 1 L 0.296875,0.1875 c -0.0625,0.328125 -0.265625,1.296875 -0.78125,1.296875 -0.09375,0 -0.15625,-0.0625 -0.15625,-0.125 0,-0.09375 0.078125,-0.09375 0.078125,-0.21875 0,-0.203125 -0.21875,-0.3125 -0.328125,-0.296875 -0.28125,0.015625 -0.28125,0.3125 -0.28125,0.34375 0.046875,0.359375 0.375,0.46875 0.625,0.46875 0.9375,0 1.375,-1.28125 1.609375,-2.265625 l 0.5625,-2.5625 H 2.5 l 0.046875,-0.25 H 1.6875 C 1.765625,-3.828125 2,-5.25 2.65625,-5.25 c 0.109375,0 0.1875,0.03125 0.1875,0.09375 0,0.09375 -0.078125,0.09375 -0.078125,0.265625 0,0.09375 0.046875,0.3125 0.296875,0.3125 0.1875,0 0.328125,-0.171875 0.328125,-0.328125 0,-0.15625 -0.125,-0.515625 -0.703125,-0.515625 -1,0 -1.40625,1.3125 -1.609375,2 H 0.34375 Z m 0,0"
           id="path4" />
      </g>
    </g>
    <g
       fill="#231f20"
       fill-opacity="1"
       id="g199"
       transform="matrix(0.35277777,0,0,0.35277777,-3.7110563,101.9638)">
      <g
         id="use199"
         transform="translate(276.71051,69.600998)">
        <path
           d="m 2.359375,-5.40625 c -1.234375,0.734375 -1.96875,1.9375 -1.96875,3.3125 0,1.109375 0.25,1.671875 0.65625,2.25 C 1.34375,0.609375 1.875,1.171875 2.34375,1.421875 L 2.4375,1.28125 c -1.359375,-0.859375 -1.359375,-2.625 -1.359375,-3.4375 0,-2.03125 0.765625,-2.65625 1.359375,-3.125 z m 0,0"
           id="path3" />
      </g>
    </g>
    <g
       fill="#231f20"
       fill-opacity="1"
       id="g200"
       transform="matrix(0.35277777,0,0,0.35277777,-3.7110563,101.9638)">
      <g
         id="use200"
         transform="translate(279.37451,69.600998)">
        <path
           d="m 3.21875,-0.890625 c -0.21875,0.25 -0.375,0.53125 -0.546875,0.53125 -0.15625,0 -0.21875,-0.1875 -0.25,-0.328125 -0.046875,-0.1875 -0.3125,-1.28125 -0.3125,-1.421875 0,0 0.53125,-0.96875 0.765625,-0.96875 0.1875,0 0.234375,0.140625 0.421875,0.140625 0.203125,0 0.28125,-0.15625 0.28125,-0.296875 0,-0.203125 -0.171875,-0.296875 -0.328125,-0.296875 -0.421875,0 -0.796875,0.484375 -1.203125,1.140625 l -0.09375,-0.4375 C 1.8125,-3.53125 1.6875,-3.53125 1.515625,-3.53125 c -0.265625,0 -0.78125,0.1875 -1,0.265625 l 0.03125,0.125 c 0.25,-0.0625 0.359375,-0.09375 0.4375,-0.09375 0.21875,0 0.25,0.109375 0.3125,0.359375 0.015625,0.046875 0.28125,1.109375 0.28125,1.171875 -0.71875,1.0625 -0.921875,1.328125 -1.0625,1.328125 -0.140625,0 -0.28125,-0.15625 -0.453125,-0.15625 -0.1875,0 -0.28125,0.140625 -0.28125,0.28125 0,0.1875 0.125,0.34375 0.390625,0.34375 0.25,0 0.34375,-0.09375 0.484375,-0.25 0.265625,-0.296875 0.609375,-0.71875 0.984375,-1.25 l 0.25,0.953125 c 0.09375,0.421875 0.21875,0.546875 0.453125,0.546875 0.1875,0 0.421875,0 0.984375,-0.921875 z m 0,0"
           id="path6" />
      </g>
    </g>
    <g
       fill="#231f20"
       fill-opacity="1"
       id="g201"
       transform="matrix(0.35277777,0,0,0.35277777,-3.7110563,101.9638)">
      <g
         id="use201"
         transform="translate(282.92651,69.600998)">
        <path
           d="m 0.296875,1.421875 c 1.25,-0.734375 1.984375,-1.9375 1.984375,-3.3125 0,-1.109375 -0.265625,-1.6875 -0.65625,-2.265625 -0.3125,-0.4375 -0.828125,-1 -1.296875,-1.25 l -0.09375,0.125 c 1.359375,0.875 1.359375,2.625 1.359375,3.4375 0,2.03125 -0.765625,2.65625 -1.359375,3.125 z m 0,0"
           id="path1" />
      </g>
    </g>
    <path
       fill="none"
       stroke-width="0.352778"
       stroke-linecap="butt"
       stroke-linejoin="miter"
       stroke="#231f20"
       stroke-opacity="1"
       stroke-miterlimit="4"
       d="m 68.740678,168.13995 c 0,0 4.773524,-2.88699 9.655913,-15.20665 4.883768,-12.31828 17.072515,-15.58285 22.974649,-9.54429 7.11206,7.27742 15.09366,22.86303 39.8446,22.53092"
       id="path201" />
  </g>
</svg>
