<?xml version="1.0" encoding="UTF-8" standalone="no"?>
<!-- Created with Inkscape (http://www.inkscape.org/) -->

<svg
   width="79.829887mm"
   height="56.047508mm"
   viewBox="0 0 79.829887 56.047508"
   version="1.1"
   id="svg1"
   inkscape:version="1.3.2 (091e20e, 2023-11-25)"
   sodipodi:docname="fig-3-25.svg"
   xmlns:inkscape="http://www.inkscape.org/namespaces/inkscape"
   xmlns:sodipodi="http://sodipodi.sourceforge.net/DTD/sodipodi-0.dtd"
   xmlns="http://www.w3.org/2000/svg"
   xmlns:svg="http://www.w3.org/2000/svg">
  <sodipodi:namedview
     id="namedview1"
     pagecolor="#ffffff"
     bordercolor="#000000"
     borderopacity="0.25"
     inkscape:showpageshadow="2"
     inkscape:pageopacity="0.0"
     inkscape:pagecheckerboard="0"
     inkscape:deskcolor="#d1d1d1"
     inkscape:document-units="mm"
     inkscape:zoom="0.2102413"
     inkscape:cx="149.82784"
     inkscape:cy="104.64167"
     inkscape:window-width="1312"
     inkscape:window-height="449"
     inkscape:window-x="0"
     inkscape:window-y="38"
     inkscape:window-maximized="0"
     inkscape:current-layer="layer1" />
  <defs
     id="defs1" />
  <g
     inkscape:label="Layer 1"
     inkscape:groupmode="layer"
     id="layer1"
     transform="translate(-65.168721,-120.38547)">
    <g
       fill="#000000"
       fill-opacity="1"
       id="g248"
       transform="matrix(0.35277777,0,0,0.35277777,-5.0946047,97.387338)">
      <g
         id="use248"
         transform="translate(421.71451,217.6049)">
        <path
           d="m 0.109375,-2.796875 c 0.078125,-0.03125 0.125,-0.03125 0.234375,-0.03125 0.390625,0 0.484375,0.296875 0.671875,0.9375 0.125,0.375 0.421875,1.609375 0.421875,1.875 0,0.1875 -0.296875,0.53125 -0.46875,0.734375 C 0.734375,1 0.640625,1.0625 0.53125,1.0625 c -0.125,0 -0.21875,-0.203125 -0.4375,-0.203125 -0.140625,0 -0.265625,0.125 -0.265625,0.265625 0,0.296875 0.3125,0.3125 0.359375,0.3125 0.828125,0 2.796875,-3.25 2.796875,-4.09375 0,-0.25 -0.140625,-0.4375 -0.40625,-0.4375 -0.171875,0 -0.25,0.15625 -0.25,0.25 0,0.328125 0.375,0.25 0.375,0.53125 0,0.375 -0.546875,1.3125 -0.859375,1.8125 L 1.703125,-1.3125 c -0.09375,-0.53125 -0.5,-1.78125 -0.59375,-1.78125 -0.125,0 -0.671875,0.125 -1,0.171875 z m 0,0"
           id="path50" />
      </g>
    </g>
    <g
       fill="#000000"
       fill-opacity="1"
       id="g249"
       transform="matrix(0.35277777,0,0,0.35277777,-5.0946047,97.387338)">
      <g
         id="use249"
         transform="translate(213.4715,68.693901)">
        <path
           d="M 0.5625,-2.15625 C 0.71875,-2.5625 0.875,-2.578125 1.140625,-2.578125 H 2.15625 l -2.171875,2.609375 0.0625,0.0625 c 0.09375,-0.078125 0.203125,-0.125 0.3125,-0.125 0.5,0 1,0.59375 1.53125,0.59375 0.34375,0 0.65625,-0.25 0.65625,-0.515625 0,-0.234375 -0.1875,-0.265625 -0.25,-0.265625 C 2.140625,-0.21875 2.0625,-0.125 2.0625,0 c 0,0.15625 0.09375,0.234375 0.09375,0.3125 0,0.09375 -0.109375,0.109375 -0.203125,0.109375 -0.0625,0 -0.203125,0 -0.375,-0.234375 C 1.21875,-0.28125 1.09375,-0.40625 0.625,-0.515625 l 2.03125,-2.40625 V -3 H 0.671875 l -0.21875,0.8125 z m 0,0"
           id="path49" />
      </g>
    </g>
    <g
       fill="#000000"
       fill-opacity="1"
       id="g253"
       transform="matrix(0.35277777,0,0,0.35277777,-5.0946047,97.387338)">
      <g
         id="use250"
         transform="translate(238.0625,222.3999)">
        <path
           d="M 3.328125,-0.953125 3.234375,-1 C 2.96875,-0.546875 2.828125,-0.53125 2.5625,-0.53125 H 0.890625 l 1.1875,-1.234375 C 2.375,-2.09375 2.96875,-2.734375 2.96875,-3.46875 c 0,-0.78125 -0.625,-1.265625 -1.265625,-1.265625 -0.625,0 -1.28125,0.34375 -1.484375,1.390625 l 0.140625,0.046875 c 0.15625,-0.390625 0.375,-0.921875 1,-0.921875 0.828125,0 1,0.65625 1,1 0,0.53125 -0.296875,1.15625 -0.90625,1.8125 l -1.25,1.328125 V 0 H 2.9375 Z m 0,0"
           id="path44" />
      </g>
      <g
         id="use251"
         transform="translate(241.5625,222.3999)">
        <path
           d="m 1.75,-4.546875 c 0.890625,0 0.90625,1.75 0.90625,2.234375 0,0.546875 -0.015625,2.234375 -0.90625,2.234375 -0.890625,0 -0.90625,-1.671875 -0.90625,-2.234375 0,-0.484375 0.015625,-2.234375 0.90625,-2.234375 z m 0,-0.1875 c -1.28125,0 -1.578125,1.59375 -1.578125,2.421875 0,0.84375 0.296875,2.40625 1.578125,2.40625 1.28125,0 1.578125,-1.5625 1.578125,-2.40625 0,-0.828125 -0.296875,-2.421875 -1.578125,-2.421875 z m 0,0"
           id="path13" />
      </g>
      <g
         id="use252"
         transform="translate(245.0625,222.3999)">
        <path
           d="m 1.75,-4.546875 c 0.890625,0 0.90625,1.75 0.90625,2.234375 0,0.546875 -0.015625,2.234375 -0.90625,2.234375 -0.890625,0 -0.90625,-1.671875 -0.90625,-2.234375 0,-0.484375 0.015625,-2.234375 0.90625,-2.234375 z m 0,-0.1875 c -1.28125,0 -1.578125,1.59375 -1.578125,2.421875 0,0.84375 0.296875,2.40625 1.578125,2.40625 1.28125,0 1.578125,-1.5625 1.578125,-2.40625 0,-0.828125 -0.296875,-2.421875 -1.578125,-2.421875 z m 0,0"
           id="path14" />
      </g>
      <g
         id="use253"
         transform="translate(248.5625,222.3999)">
        <path
           d="m 1.75,-4.546875 c 0.890625,0 0.90625,1.75 0.90625,2.234375 0,0.546875 -0.015625,2.234375 -0.90625,2.234375 -0.890625,0 -0.90625,-1.671875 -0.90625,-2.234375 0,-0.484375 0.015625,-2.234375 0.90625,-2.234375 z m 0,-0.1875 c -1.28125,0 -1.578125,1.59375 -1.578125,2.421875 0,0.84375 0.296875,2.40625 1.578125,2.40625 1.28125,0 1.578125,-1.5625 1.578125,-2.40625 0,-0.828125 -0.296875,-2.421875 -1.578125,-2.421875 z m 0,0"
           id="path15" />
      </g>
    </g>
    <g
       fill="#000000"
       fill-opacity="1"
       id="g257"
       transform="matrix(0.35277777,0,0,0.35277777,-5.0946047,97.387338)">
      <g
         id="use254"
         transform="translate(288.54651,222.3999)">
        <path
           d="m 1.078125,-2.3125 c 0.46875,-0.015625 0.65625,0.03125 0.90625,0.15625 0.4375,0.234375 0.53125,0.75 0.53125,0.921875 0,0.53125 -0.296875,1.078125 -0.9375,1.078125 -0.421875,0 -0.6875,-0.390625 -1,-0.390625 -0.109375,0 -0.28125,0.046875 -0.28125,0.25 0,0.359375 0.609375,0.390625 0.78125,0.390625 1.09375,0 1.9375,-0.609375 1.9375,-1.609375 0,-0.921875 -0.59375,-1.171875 -0.890625,-1.296875 0.46875,-0.296875 0.65625,-0.59375 0.65625,-0.96875 0,-0.296875 -0.1875,-0.953125 -1.09375,-0.953125 -0.46875,0 -1.09375,0.21875 -1.375,1.140625 l 0.109375,0.03125 c 0.109375,-0.203125 0.390625,-0.75 1.03125,-0.75 0.515625,0 0.765625,0.375 0.765625,0.734375 0,0.640625 -0.515625,0.96875 -1.15625,1.171875 z m 0,0"
           id="path10" />
      </g>
      <g
         id="use255"
         transform="translate(292.04651,222.3999)">
        <path
           d="m 1.75,-4.546875 c 0.890625,0 0.90625,1.75 0.90625,2.234375 0,0.546875 -0.015625,2.234375 -0.90625,2.234375 -0.890625,0 -0.90625,-1.671875 -0.90625,-2.234375 0,-0.484375 0.015625,-2.234375 0.90625,-2.234375 z m 0,-0.1875 c -1.28125,0 -1.578125,1.59375 -1.578125,2.421875 0,0.84375 0.296875,2.40625 1.578125,2.40625 1.28125,0 1.578125,-1.5625 1.578125,-2.40625 0,-0.828125 -0.296875,-2.421875 -1.578125,-2.421875 z m 0,0"
           id="path16" />
      </g>
      <g
         id="use256"
         transform="translate(295.54651,222.3999)">
        <path
           d="m 1.75,-4.546875 c 0.890625,0 0.90625,1.75 0.90625,2.234375 0,0.546875 -0.015625,2.234375 -0.90625,2.234375 -0.890625,0 -0.90625,-1.671875 -0.90625,-2.234375 0,-0.484375 0.015625,-2.234375 0.90625,-2.234375 z m 0,-0.1875 c -1.28125,0 -1.578125,1.59375 -1.578125,2.421875 0,0.84375 0.296875,2.40625 1.578125,2.40625 1.28125,0 1.578125,-1.5625 1.578125,-2.40625 0,-0.828125 -0.296875,-2.421875 -1.578125,-2.421875 z m 0,0"
           id="path17" />
      </g>
      <g
         id="use257"
         transform="translate(299.04651,222.3999)">
        <path
           d="m 1.75,-4.546875 c 0.890625,0 0.90625,1.75 0.90625,2.234375 0,0.546875 -0.015625,2.234375 -0.90625,2.234375 -0.890625,0 -0.90625,-1.671875 -0.90625,-2.234375 0,-0.484375 0.015625,-2.234375 0.90625,-2.234375 z m 0,-0.1875 c -1.28125,0 -1.578125,1.59375 -1.578125,2.421875 0,0.84375 0.296875,2.40625 1.578125,2.40625 1.28125,0 1.578125,-1.5625 1.578125,-2.40625 0,-0.828125 -0.296875,-2.421875 -1.578125,-2.421875 z m 0,0"
           id="path18" />
      </g>
    </g>
    <g
       fill="#000000"
       fill-opacity="1"
       id="g261"
       transform="matrix(0.35277777,0,0,0.35277777,-5.0946047,97.387338)">
      <g
         id="use258"
         transform="translate(339.2265,222.3999)">
        <path
           d="M 3.296875,-1.609375 H 2.59375 v -3.125 h -0.3125 l -2.203125,3.125 v 0.4375 h 1.96875 V 0 H 2.59375 v -1.171875 h 0.703125 z m -1.25,0 h -1.6875 L 2.03125,-4 h 0.015625 z m 0,0"
           id="path8" />
      </g>
      <g
         id="use259"
         transform="translate(342.7265,222.3999)">
        <path
           d="m 1.75,-4.546875 c 0.890625,0 0.90625,1.75 0.90625,2.234375 0,0.546875 -0.015625,2.234375 -0.90625,2.234375 -0.890625,0 -0.90625,-1.671875 -0.90625,-2.234375 0,-0.484375 0.015625,-2.234375 0.90625,-2.234375 z m 0,-0.1875 c -1.28125,0 -1.578125,1.59375 -1.578125,2.421875 0,0.84375 0.296875,2.40625 1.578125,2.40625 1.28125,0 1.578125,-1.5625 1.578125,-2.40625 0,-0.828125 -0.296875,-2.421875 -1.578125,-2.421875 z m 0,0"
           id="path19" />
      </g>
      <g
         id="use260"
         transform="translate(346.2265,222.3999)">
        <path
           d="m 1.75,-4.546875 c 0.890625,0 0.90625,1.75 0.90625,2.234375 0,0.546875 -0.015625,2.234375 -0.90625,2.234375 -0.890625,0 -0.90625,-1.671875 -0.90625,-2.234375 0,-0.484375 0.015625,-2.234375 0.90625,-2.234375 z m 0,-0.1875 c -1.28125,0 -1.578125,1.59375 -1.578125,2.421875 0,0.84375 0.296875,2.40625 1.578125,2.40625 1.28125,0 1.578125,-1.5625 1.578125,-2.40625 0,-0.828125 -0.296875,-2.421875 -1.578125,-2.421875 z m 0,0"
           id="path20" />
      </g>
      <g
         id="use261"
         transform="translate(349.7265,222.3999)">
        <path
           d="m 1.75,-4.546875 c 0.890625,0 0.90625,1.75 0.90625,2.234375 0,0.546875 -0.015625,2.234375 -0.90625,2.234375 -0.890625,0 -0.90625,-1.671875 -0.90625,-2.234375 0,-0.484375 0.015625,-2.234375 0.90625,-2.234375 z m 0,-0.1875 c -1.28125,0 -1.578125,1.59375 -1.578125,2.421875 0,0.84375 0.296875,2.40625 1.578125,2.40625 1.28125,0 1.578125,-1.5625 1.578125,-2.40625 0,-0.828125 -0.296875,-2.421875 -1.578125,-2.421875 z m 0,0"
           id="path21" />
      </g>
    </g>
    <g
       fill="#000000"
       fill-opacity="1"
       id="g265"
       transform="matrix(0.35277777,0,0,0.35277777,-5.0946047,97.387338)">
      <g
         id="use262"
         transform="translate(389.9765,222.3999)">
        <path
           d="m 1.265625,-4.078125 h 1.375 c 0.078125,0 0.140625,0 0.15625,-0.0625 L 3.0625,-4.765625 3,-4.8125 C 2.921875,-4.71875 2.859375,-4.640625 2.6875,-4.640625 H 1.21875 L 0.453125,-2.96875 c -0.015625,0.046875 0,0.078125 0.046875,0.078125 0.75,0.03125 1.984375,0.359375 1.984375,1.484375 0,0.859375 -0.515625,1.25 -0.96875,1.25 -0.375,0 -0.5625,-0.4375 -1.015625,-0.4375 -0.28125,0 -0.28125,0.203125 -0.28125,0.265625 0,0.265625 0.328125,0.421875 0.890625,0.421875 1.109375,0 1.875,-0.734375 1.875,-1.671875 0,-0.625 -0.078125,-0.828125 -0.375,-1.1875 -0.421875,-0.5 -1.078125,-0.625 -1.640625,-0.71875 z m 0,0"
           id="path4" />
      </g>
      <g
         id="use263"
         transform="translate(393.4765,222.3999)">
        <path
           d="m 1.75,-4.546875 c 0.890625,0 0.90625,1.75 0.90625,2.234375 0,0.546875 -0.015625,2.234375 -0.90625,2.234375 -0.890625,0 -0.90625,-1.671875 -0.90625,-2.234375 0,-0.484375 0.015625,-2.234375 0.90625,-2.234375 z m 0,-0.1875 c -1.28125,0 -1.578125,1.59375 -1.578125,2.421875 0,0.84375 0.296875,2.40625 1.578125,2.40625 1.28125,0 1.578125,-1.5625 1.578125,-2.40625 0,-0.828125 -0.296875,-2.421875 -1.578125,-2.421875 z m 0,0"
           id="path22" />
      </g>
      <g
         id="use264"
         transform="translate(396.9765,222.3999)">
        <path
           d="m 1.75,-4.546875 c 0.890625,0 0.90625,1.75 0.90625,2.234375 0,0.546875 -0.015625,2.234375 -0.90625,2.234375 -0.890625,0 -0.90625,-1.671875 -0.90625,-2.234375 0,-0.484375 0.015625,-2.234375 0.90625,-2.234375 z m 0,-0.1875 c -1.28125,0 -1.578125,1.59375 -1.578125,2.421875 0,0.84375 0.296875,2.40625 1.578125,2.40625 1.28125,0 1.578125,-1.5625 1.578125,-2.40625 0,-0.828125 -0.296875,-2.421875 -1.578125,-2.421875 z m 0,0"
           id="path23" />
      </g>
      <g
         id="use265"
         transform="translate(400.4765,222.3999)">
        <path
           d="m 1.75,-4.546875 c 0.890625,0 0.90625,1.75 0.90625,2.234375 0,0.546875 -0.015625,2.234375 -0.90625,2.234375 -0.890625,0 -0.90625,-1.671875 -0.90625,-2.234375 0,-0.484375 0.015625,-2.234375 0.90625,-2.234375 z m 0,-0.1875 c -1.28125,0 -1.578125,1.59375 -1.578125,2.421875 0,0.84375 0.296875,2.40625 1.578125,2.40625 1.28125,0 1.578125,-1.5625 1.578125,-2.40625 0,-0.828125 -0.296875,-2.421875 -1.578125,-2.421875 z m 0,0"
           id="path24" />
      </g>
    </g>
    <g
       fill="#000000"
       fill-opacity="1"
       id="g269"
       transform="matrix(0.35277777,0,0,0.35277777,-5.0946047,97.387338)">
      <g
         id="use266"
         transform="translate(199.09351,196.6539)">
        <path
           d="m 0.828125,0 h 1.9375 v -0.109375 c -0.53125,0 -0.671875,-0.078125 -0.671875,-0.40625 V -4.71875 l -0.0625,-0.015625 -1.25,0.640625 V -4 C 1.171875,-4.15625 1.171875,-4.15625 1.25,-4.15625 c 0.234375,0 0.234375,0.1875 0.234375,0.328125 v 3.171875 c 0,0.515625 -0.25,0.53125 -0.65625,0.546875 z m 0,0"
           id="path1" />
      </g>
      <g
         id="use267"
         transform="translate(202.59351,196.6539)">
        <path
           d="m 1.75,-4.546875 c 0.890625,0 0.90625,1.75 0.90625,2.234375 0,0.546875 -0.015625,2.234375 -0.90625,2.234375 -0.890625,0 -0.90625,-1.671875 -0.90625,-2.234375 0,-0.484375 0.015625,-2.234375 0.90625,-2.234375 z m 0,-0.1875 c -1.28125,0 -1.578125,1.59375 -1.578125,2.421875 0,0.84375 0.296875,2.40625 1.578125,2.40625 1.28125,0 1.578125,-1.5625 1.578125,-2.40625 0,-0.828125 -0.296875,-2.421875 -1.578125,-2.421875 z m 0,0"
           id="path25" />
      </g>
      <g
         id="use268"
         transform="translate(206.09351,196.6539)">
        <path
           d="m 1.75,-4.546875 c 0.890625,0 0.90625,1.75 0.90625,2.234375 0,0.546875 -0.015625,2.234375 -0.90625,2.234375 -0.890625,0 -0.90625,-1.671875 -0.90625,-2.234375 0,-0.484375 0.015625,-2.234375 0.90625,-2.234375 z m 0,-0.1875 c -1.28125,0 -1.578125,1.59375 -1.578125,2.421875 0,0.84375 0.296875,2.40625 1.578125,2.40625 1.28125,0 1.578125,-1.5625 1.578125,-2.40625 0,-0.828125 -0.296875,-2.421875 -1.578125,-2.421875 z m 0,0"
           id="path26" />
      </g>
      <g
         id="use269"
         transform="translate(209.59351,196.6539)">
        <path
           d="m 1.75,-4.546875 c 0.890625,0 0.90625,1.75 0.90625,2.234375 0,0.546875 -0.015625,2.234375 -0.90625,2.234375 -0.890625,0 -0.90625,-1.671875 -0.90625,-2.234375 0,-0.484375 0.015625,-2.234375 0.90625,-2.234375 z m 0,-0.1875 c -1.28125,0 -1.578125,1.59375 -1.578125,2.421875 0,0.84375 0.296875,2.40625 1.578125,2.40625 1.28125,0 1.578125,-1.5625 1.578125,-2.40625 0,-0.828125 -0.296875,-2.421875 -1.578125,-2.421875 z m 0,0"
           id="path27" />
      </g>
    </g>
    <g
       fill="#000000"
       fill-opacity="1"
       id="g270"
       transform="matrix(0.35277777,0,0,0.35277777,-5.0946047,97.387338)">
      <g
         id="use270"
         transform="translate(212.33749,219.5719)">
        <path
           d="m 1.75,-4.546875 c 0.890625,0 0.90625,1.75 0.90625,2.234375 0,0.546875 -0.015625,2.234375 -0.90625,2.234375 -0.890625,0 -0.90625,-1.671875 -0.90625,-2.234375 0,-0.484375 0.015625,-2.234375 0.90625,-2.234375 z m 0,-0.1875 c -1.28125,0 -1.578125,1.59375 -1.578125,2.421875 0,0.84375 0.296875,2.40625 1.578125,2.40625 1.28125,0 1.578125,-1.5625 1.578125,-2.40625 0,-0.828125 -0.296875,-2.421875 -1.578125,-2.421875 z m 0,0"
           id="path28" />
      </g>
    </g>
    <g
       fill="#000000"
       fill-opacity="1"
       id="g274"
       transform="matrix(0.35277777,0,0,0.35277777,-5.0946047,97.387338)">
      <g
         id="use271"
         transform="translate(199.09351,178.4399)">
        <path
           d="m 0.828125,0 h 1.9375 v -0.109375 c -0.53125,0 -0.671875,-0.078125 -0.671875,-0.40625 V -4.71875 l -0.0625,-0.015625 -1.25,0.640625 V -4 C 1.171875,-4.15625 1.171875,-4.15625 1.25,-4.15625 c 0.234375,0 0.234375,0.1875 0.234375,0.328125 v 3.171875 c 0,0.515625 -0.25,0.53125 -0.65625,0.546875 z m 0,0"
           id="path3" />
      </g>
      <g
         id="use272"
         transform="translate(202.59351,178.4399)">
        <path
           d="m 1.265625,-4.078125 h 1.375 c 0.078125,0 0.140625,0 0.15625,-0.0625 L 3.0625,-4.765625 3,-4.8125 C 2.921875,-4.71875 2.859375,-4.640625 2.6875,-4.640625 H 1.21875 L 0.453125,-2.96875 c -0.015625,0.046875 0,0.078125 0.046875,0.078125 0.75,0.03125 1.984375,0.359375 1.984375,1.484375 0,0.859375 -0.515625,1.25 -0.96875,1.25 -0.375,0 -0.5625,-0.4375 -1.015625,-0.4375 -0.28125,0 -0.28125,0.203125 -0.28125,0.265625 0,0.265625 0.328125,0.421875 0.890625,0.421875 1.109375,0 1.875,-0.734375 1.875,-1.671875 0,-0.625 -0.078125,-0.828125 -0.375,-1.1875 -0.421875,-0.5 -1.078125,-0.625 -1.640625,-0.71875 z m 0,0"
           id="path5" />
      </g>
      <g
         id="use273"
         transform="translate(206.09351,178.4399)">
        <path
           d="m 1.75,-4.546875 c 0.890625,0 0.90625,1.75 0.90625,2.234375 0,0.546875 -0.015625,2.234375 -0.90625,2.234375 -0.890625,0 -0.90625,-1.671875 -0.90625,-2.234375 0,-0.484375 0.015625,-2.234375 0.90625,-2.234375 z m 0,-0.1875 c -1.28125,0 -1.578125,1.59375 -1.578125,2.421875 0,0.84375 0.296875,2.40625 1.578125,2.40625 1.28125,0 1.578125,-1.5625 1.578125,-2.40625 0,-0.828125 -0.296875,-2.421875 -1.578125,-2.421875 z m 0,0"
           id="path29" />
      </g>
      <g
         id="use274"
         transform="translate(209.59351,178.4399)">
        <path
           d="m 1.75,-4.546875 c 0.890625,0 0.90625,1.75 0.90625,2.234375 0,0.546875 -0.015625,2.234375 -0.90625,2.234375 -0.890625,0 -0.90625,-1.671875 -0.90625,-2.234375 0,-0.484375 0.015625,-2.234375 0.90625,-2.234375 z m 0,-0.1875 c -1.28125,0 -1.578125,1.59375 -1.578125,2.421875 0,0.84375 0.296875,2.40625 1.578125,2.40625 1.28125,0 1.578125,-1.5625 1.578125,-2.40625 0,-0.828125 -0.296875,-2.421875 -1.578125,-2.421875 z m 0,0"
           id="path30" />
      </g>
    </g>
    <g
       fill="#000000"
       fill-opacity="1"
       id="g278"
       transform="matrix(0.35277777,0,0,0.35277777,-5.0946047,97.387338)">
      <g
         id="use275"
         transform="translate(199.09351,160.6949)">
        <path
           d="M 3.328125,-0.953125 3.234375,-1 C 2.96875,-0.546875 2.828125,-0.53125 2.5625,-0.53125 H 0.890625 l 1.1875,-1.234375 C 2.375,-2.09375 2.96875,-2.734375 2.96875,-3.46875 c 0,-0.78125 -0.625,-1.265625 -1.265625,-1.265625 -0.625,0 -1.28125,0.34375 -1.484375,1.390625 l 0.140625,0.046875 c 0.15625,-0.390625 0.375,-0.921875 1,-0.921875 0.828125,0 1,0.65625 1,1 0,0.53125 -0.296875,1.15625 -0.90625,1.8125 l -1.25,1.328125 V 0 H 2.9375 Z m 0,0"
           id="path45" />
      </g>
      <g
         id="use276"
         transform="translate(202.59351,160.6949)">
        <path
           d="m 1.75,-4.546875 c 0.890625,0 0.90625,1.75 0.90625,2.234375 0,0.546875 -0.015625,2.234375 -0.90625,2.234375 -0.890625,0 -0.90625,-1.671875 -0.90625,-2.234375 0,-0.484375 0.015625,-2.234375 0.90625,-2.234375 z m 0,-0.1875 c -1.28125,0 -1.578125,1.59375 -1.578125,2.421875 0,0.84375 0.296875,2.40625 1.578125,2.40625 1.28125,0 1.578125,-1.5625 1.578125,-2.40625 0,-0.828125 -0.296875,-2.421875 -1.578125,-2.421875 z m 0,0"
           id="path31" />
      </g>
      <g
         id="use277"
         transform="translate(206.09351,160.6949)">
        <path
           d="m 1.75,-4.546875 c 0.890625,0 0.90625,1.75 0.90625,2.234375 0,0.546875 -0.015625,2.234375 -0.90625,2.234375 -0.890625,0 -0.90625,-1.671875 -0.90625,-2.234375 0,-0.484375 0.015625,-2.234375 0.90625,-2.234375 z m 0,-0.1875 c -1.28125,0 -1.578125,1.59375 -1.578125,2.421875 0,0.84375 0.296875,2.40625 1.578125,2.40625 1.28125,0 1.578125,-1.5625 1.578125,-2.40625 0,-0.828125 -0.296875,-2.421875 -1.578125,-2.421875 z m 0,0"
           id="path32" />
      </g>
      <g
         id="use278"
         transform="translate(209.59351,160.6949)">
        <path
           d="m 1.75,-4.546875 c 0.890625,0 0.90625,1.75 0.90625,2.234375 0,0.546875 -0.015625,2.234375 -0.90625,2.234375 -0.890625,0 -0.90625,-1.671875 -0.90625,-2.234375 0,-0.484375 0.015625,-2.234375 0.90625,-2.234375 z m 0,-0.1875 c -1.28125,0 -1.578125,1.59375 -1.578125,2.421875 0,0.84375 0.296875,2.40625 1.578125,2.40625 1.28125,0 1.578125,-1.5625 1.578125,-2.40625 0,-0.828125 -0.296875,-2.421875 -1.578125,-2.421875 z m 0,0"
           id="path33" />
      </g>
    </g>
    <g
       fill="#000000"
       fill-opacity="1"
       id="g282"
       transform="matrix(0.35277777,0,0,0.35277777,-5.0946047,97.387338)">
      <g
         id="use279"
         transform="translate(199.09351,142.6839)">
        <path
           d="M 3.328125,-0.953125 3.234375,-1 C 2.96875,-0.546875 2.828125,-0.53125 2.5625,-0.53125 H 0.890625 l 1.1875,-1.234375 C 2.375,-2.09375 2.96875,-2.734375 2.96875,-3.46875 c 0,-0.78125 -0.625,-1.265625 -1.265625,-1.265625 -0.625,0 -1.28125,0.34375 -1.484375,1.390625 l 0.140625,0.046875 c 0.15625,-0.390625 0.375,-0.921875 1,-0.921875 0.828125,0 1,0.65625 1,1 0,0.53125 -0.296875,1.15625 -0.90625,1.8125 l -1.25,1.328125 V 0 H 2.9375 Z m 0,0"
           id="path46" />
      </g>
      <g
         id="use280"
         transform="translate(202.59351,142.6839)">
        <path
           d="m 1.265625,-4.078125 h 1.375 c 0.078125,0 0.140625,0 0.15625,-0.0625 L 3.0625,-4.765625 3,-4.8125 C 2.921875,-4.71875 2.859375,-4.640625 2.6875,-4.640625 H 1.21875 L 0.453125,-2.96875 c -0.015625,0.046875 0,0.078125 0.046875,0.078125 0.75,0.03125 1.984375,0.359375 1.984375,1.484375 0,0.859375 -0.515625,1.25 -0.96875,1.25 -0.375,0 -0.5625,-0.4375 -1.015625,-0.4375 -0.28125,0 -0.28125,0.203125 -0.28125,0.265625 0,0.265625 0.328125,0.421875 0.890625,0.421875 1.109375,0 1.875,-0.734375 1.875,-1.671875 0,-0.625 -0.078125,-0.828125 -0.375,-1.1875 -0.421875,-0.5 -1.078125,-0.625 -1.640625,-0.71875 z m 0,0"
           id="path6" />
      </g>
      <g
         id="use281"
         transform="translate(206.09351,142.6839)">
        <path
           d="m 1.75,-4.546875 c 0.890625,0 0.90625,1.75 0.90625,2.234375 0,0.546875 -0.015625,2.234375 -0.90625,2.234375 -0.890625,0 -0.90625,-1.671875 -0.90625,-2.234375 0,-0.484375 0.015625,-2.234375 0.90625,-2.234375 z m 0,-0.1875 c -1.28125,0 -1.578125,1.59375 -1.578125,2.421875 0,0.84375 0.296875,2.40625 1.578125,2.40625 1.28125,0 1.578125,-1.5625 1.578125,-2.40625 0,-0.828125 -0.296875,-2.421875 -1.578125,-2.421875 z m 0,0"
           id="path34" />
      </g>
      <g
         id="use282"
         transform="translate(209.59351,142.6839)">
        <path
           d="m 1.75,-4.546875 c 0.890625,0 0.90625,1.75 0.90625,2.234375 0,0.546875 -0.015625,2.234375 -0.90625,2.234375 -0.890625,0 -0.90625,-1.671875 -0.90625,-2.234375 0,-0.484375 0.015625,-2.234375 0.90625,-2.234375 z m 0,-0.1875 c -1.28125,0 -1.578125,1.59375 -1.578125,2.421875 0,0.84375 0.296875,2.40625 1.578125,2.40625 1.28125,0 1.578125,-1.5625 1.578125,-2.40625 0,-0.828125 -0.296875,-2.421875 -1.578125,-2.421875 z m 0,0"
           id="path35" />
      </g>
    </g>
    <g
       fill="#000000"
       fill-opacity="1"
       id="g286"
       transform="matrix(0.35277777,0,0,0.35277777,-5.0946047,97.387338)">
      <g
         id="use283"
         transform="translate(199.09351,124.6729)">
        <path
           d="m 1.078125,-2.3125 c 0.46875,-0.015625 0.65625,0.03125 0.90625,0.15625 0.4375,0.234375 0.53125,0.75 0.53125,0.921875 0,0.53125 -0.296875,1.078125 -0.9375,1.078125 -0.421875,0 -0.6875,-0.390625 -1,-0.390625 -0.109375,0 -0.28125,0.046875 -0.28125,0.25 0,0.359375 0.609375,0.390625 0.78125,0.390625 1.09375,0 1.9375,-0.609375 1.9375,-1.609375 0,-0.921875 -0.59375,-1.171875 -0.890625,-1.296875 0.46875,-0.296875 0.65625,-0.59375 0.65625,-0.96875 0,-0.296875 -0.1875,-0.953125 -1.09375,-0.953125 -0.46875,0 -1.09375,0.21875 -1.375,1.140625 l 0.109375,0.03125 c 0.109375,-0.203125 0.390625,-0.75 1.03125,-0.75 0.515625,0 0.765625,0.375 0.765625,0.734375 0,0.640625 -0.515625,0.96875 -1.15625,1.171875 z m 0,0"
           id="path11" />
      </g>
      <g
         id="use284"
         transform="translate(202.59351,124.6729)">
        <path
           d="m 1.75,-4.546875 c 0.890625,0 0.90625,1.75 0.90625,2.234375 0,0.546875 -0.015625,2.234375 -0.90625,2.234375 -0.890625,0 -0.90625,-1.671875 -0.90625,-2.234375 0,-0.484375 0.015625,-2.234375 0.90625,-2.234375 z m 0,-0.1875 c -1.28125,0 -1.578125,1.59375 -1.578125,2.421875 0,0.84375 0.296875,2.40625 1.578125,2.40625 1.28125,0 1.578125,-1.5625 1.578125,-2.40625 0,-0.828125 -0.296875,-2.421875 -1.578125,-2.421875 z m 0,0"
           id="path36" />
      </g>
      <g
         id="use285"
         transform="translate(206.09351,124.6729)">
        <path
           d="m 1.75,-4.546875 c 0.890625,0 0.90625,1.75 0.90625,2.234375 0,0.546875 -0.015625,2.234375 -0.90625,2.234375 -0.890625,0 -0.90625,-1.671875 -0.90625,-2.234375 0,-0.484375 0.015625,-2.234375 0.90625,-2.234375 z m 0,-0.1875 c -1.28125,0 -1.578125,1.59375 -1.578125,2.421875 0,0.84375 0.296875,2.40625 1.578125,2.40625 1.28125,0 1.578125,-1.5625 1.578125,-2.40625 0,-0.828125 -0.296875,-2.421875 -1.578125,-2.421875 z m 0,0"
           id="path37" />
      </g>
      <g
         id="use286"
         transform="translate(209.59351,124.6729)">
        <path
           d="m 1.75,-4.546875 c 0.890625,0 0.90625,1.75 0.90625,2.234375 0,0.546875 -0.015625,2.234375 -0.90625,2.234375 -0.890625,0 -0.90625,-1.671875 -0.90625,-2.234375 0,-0.484375 0.015625,-2.234375 0.90625,-2.234375 z m 0,-0.1875 c -1.28125,0 -1.578125,1.59375 -1.578125,2.421875 0,0.84375 0.296875,2.40625 1.578125,2.40625 1.28125,0 1.578125,-1.5625 1.578125,-2.40625 0,-0.828125 -0.296875,-2.421875 -1.578125,-2.421875 z m 0,0"
           id="path38" />
      </g>
    </g>
    <g
       fill="#000000"
       fill-opacity="1"
       id="g290"
       transform="matrix(0.35277777,0,0,0.35277777,-5.0946047,97.387338)">
      <g
         id="use287"
         transform="translate(199.09351,106.7319)">
        <path
           d="m 1.078125,-2.3125 c 0.46875,-0.015625 0.65625,0.03125 0.90625,0.15625 0.4375,0.234375 0.53125,0.75 0.53125,0.921875 0,0.53125 -0.296875,1.078125 -0.9375,1.078125 -0.421875,0 -0.6875,-0.390625 -1,-0.390625 -0.109375,0 -0.28125,0.046875 -0.28125,0.25 0,0.359375 0.609375,0.390625 0.78125,0.390625 1.09375,0 1.9375,-0.609375 1.9375,-1.609375 0,-0.921875 -0.59375,-1.171875 -0.890625,-1.296875 0.46875,-0.296875 0.65625,-0.59375 0.65625,-0.96875 0,-0.296875 -0.1875,-0.953125 -1.09375,-0.953125 -0.46875,0 -1.09375,0.21875 -1.375,1.140625 l 0.109375,0.03125 c 0.109375,-0.203125 0.390625,-0.75 1.03125,-0.75 0.515625,0 0.765625,0.375 0.765625,0.734375 0,0.640625 -0.515625,0.96875 -1.15625,1.171875 z m 0,0"
           id="path12" />
      </g>
      <g
         id="use288"
         transform="translate(202.59351,106.7319)">
        <path
           d="m 1.265625,-4.078125 h 1.375 c 0.078125,0 0.140625,0 0.15625,-0.0625 L 3.0625,-4.765625 3,-4.8125 C 2.921875,-4.71875 2.859375,-4.640625 2.6875,-4.640625 H 1.21875 L 0.453125,-2.96875 c -0.015625,0.046875 0,0.078125 0.046875,0.078125 0.75,0.03125 1.984375,0.359375 1.984375,1.484375 0,0.859375 -0.515625,1.25 -0.96875,1.25 -0.375,0 -0.5625,-0.4375 -1.015625,-0.4375 -0.28125,0 -0.28125,0.203125 -0.28125,0.265625 0,0.265625 0.328125,0.421875 0.890625,0.421875 1.109375,0 1.875,-0.734375 1.875,-1.671875 0,-0.625 -0.078125,-0.828125 -0.375,-1.1875 -0.421875,-0.5 -1.078125,-0.625 -1.640625,-0.71875 z m 0,0"
           id="path7" />
      </g>
      <g
         id="use289"
         transform="translate(206.09351,106.7319)">
        <path
           d="m 1.75,-4.546875 c 0.890625,0 0.90625,1.75 0.90625,2.234375 0,0.546875 -0.015625,2.234375 -0.90625,2.234375 -0.890625,0 -0.90625,-1.671875 -0.90625,-2.234375 0,-0.484375 0.015625,-2.234375 0.90625,-2.234375 z m 0,-0.1875 c -1.28125,0 -1.578125,1.59375 -1.578125,2.421875 0,0.84375 0.296875,2.40625 1.578125,2.40625 1.28125,0 1.578125,-1.5625 1.578125,-2.40625 0,-0.828125 -0.296875,-2.421875 -1.578125,-2.421875 z m 0,0"
           id="path39" />
      </g>
      <g
         id="use290"
         transform="translate(209.59351,106.7319)">
        <path
           d="m 1.75,-4.546875 c 0.890625,0 0.90625,1.75 0.90625,2.234375 0,0.546875 -0.015625,2.234375 -0.90625,2.234375 -0.890625,0 -0.90625,-1.671875 -0.90625,-2.234375 0,-0.484375 0.015625,-2.234375 0.90625,-2.234375 z m 0,-0.1875 c -1.28125,0 -1.578125,1.59375 -1.578125,2.421875 0,0.84375 0.296875,2.40625 1.578125,2.40625 1.28125,0 1.578125,-1.5625 1.578125,-2.40625 0,-0.828125 -0.296875,-2.421875 -1.578125,-2.421875 z m 0,0"
           id="path40" />
      </g>
    </g>
    <g
       fill="#000000"
       fill-opacity="1"
       id="g294"
       transform="matrix(0.35277777,0,0,0.35277777,-5.0946047,97.387338)">
      <g
         id="use291"
         transform="translate(199.09351,88.720901)">
        <path
           d="M 3.296875,-1.609375 H 2.59375 v -3.125 h -0.3125 l -2.203125,3.125 v 0.4375 h 1.96875 V 0 H 2.59375 v -1.171875 h 0.703125 z m -1.25,0 h -1.6875 L 2.03125,-4 h 0.015625 z m 0,0"
           id="path9" />
      </g>
      <g
         id="use292"
         transform="translate(202.59351,88.720901)">
        <path
           d="m 1.75,-4.546875 c 0.890625,0 0.90625,1.75 0.90625,2.234375 0,0.546875 -0.015625,2.234375 -0.90625,2.234375 -0.890625,0 -0.90625,-1.671875 -0.90625,-2.234375 0,-0.484375 0.015625,-2.234375 0.90625,-2.234375 z m 0,-0.1875 c -1.28125,0 -1.578125,1.59375 -1.578125,2.421875 0,0.84375 0.296875,2.40625 1.578125,2.40625 1.28125,0 1.578125,-1.5625 1.578125,-2.40625 0,-0.828125 -0.296875,-2.421875 -1.578125,-2.421875 z m 0,0"
           id="path41" />
      </g>
      <g
         id="use293"
         transform="translate(206.09351,88.720901)">
        <path
           d="m 1.75,-4.546875 c 0.890625,0 0.90625,1.75 0.90625,2.234375 0,0.546875 -0.015625,2.234375 -0.90625,2.234375 -0.890625,0 -0.90625,-1.671875 -0.90625,-2.234375 0,-0.484375 0.015625,-2.234375 0.90625,-2.234375 z m 0,-0.1875 c -1.28125,0 -1.578125,1.59375 -1.578125,2.421875 0,0.84375 0.296875,2.40625 1.578125,2.40625 1.28125,0 1.578125,-1.5625 1.578125,-2.40625 0,-0.828125 -0.296875,-2.421875 -1.578125,-2.421875 z m 0,0"
           id="path42" />
      </g>
      <g
         id="use294"
         transform="translate(209.59351,88.720901)">
        <path
           d="m 1.75,-4.546875 c 0.890625,0 0.90625,1.75 0.90625,2.234375 0,0.546875 -0.015625,2.234375 -0.90625,2.234375 -0.890625,0 -0.90625,-1.671875 -0.90625,-2.234375 0,-0.484375 0.015625,-2.234375 0.90625,-2.234375 z m 0,-0.1875 c -1.28125,0 -1.578125,1.59375 -1.578125,2.421875 0,0.84375 0.296875,2.40625 1.578125,2.40625 1.28125,0 1.578125,-1.5625 1.578125,-2.40625 0,-0.828125 -0.296875,-2.421875 -1.578125,-2.421875 z m 0,0"
           id="path43" />
      </g>
    </g>
    <path
       fill="none"
       stroke-width="0.176389"
       stroke-linecap="butt"
       stroke-linejoin="miter"
       stroke="#000000"
       stroke-opacity="1"
       stroke-miterlimit="10"
       d="m 81.35662,171.13443 v 2.11666 m 17.875911,-2.11666 v 2.11666 m 17.874529,-2.11666 v 2.11666 m 17.85111,-2.11666 v 2.11666 m -61.933169,-7.37388 h -2.116667 m 2.116667,-6.32933 h -2.116667 m 2.116667,-6.35275 h -2.116667 m 2.116667,-6.32933 h -2.116667 m 2.116667,-6.33071 h -2.116667 m 2.116667,-6.35276 h -2.116667 m 2.116667,-6.32932 h -2.116667"
       id="path294" />
    <path
       fill="none"
       stroke-width="0.176389"
       stroke-linecap="butt"
       stroke-linejoin="miter"
       stroke="#000000"
       stroke-opacity="1"
       stroke-miterlimit="10"
       d="m 71.966668,176.43298 v -54.29195 m 71.277642,50.05862 H 67.733334"
       id="path295" />
    <path
       fill-rule="evenodd"
       fill="#939598"
       fill-opacity="1"
       d="m 77.801282,165.87721 h 7.13548 l 53.601548,-38.02558 h -7.13548 l -53.601548,38.02558"
       id="path296"
       style="stroke-width:0.352778" />
    <path
       fill="none"
       stroke-width="0.705556"
       stroke-linecap="butt"
       stroke-linejoin="miter"
       stroke="#ffffff"
       stroke-opacity="1"
       stroke-miterlimit="10"
       d="m 75.184387,172.19965 h 2.775369"
       id="path297" />
    <path
       fill="none"
       stroke-width="0.176389"
       stroke-linecap="round"
       stroke-linejoin="miter"
       stroke="#000000"
       stroke-opacity="1"
       stroke-miterlimit="10"
       d="m 77.959756,172.19965 -0.687641,1.22645 -0.689019,-1.22645 -0.687642,-1.22508 -0.689019,1.22508"
       id="path298" />
    <path
       fill-rule="nonzero"
       fill="#231f20"
       fill-opacity="1"
       d="m 143.24431,172.19965 -0.38723,-0.63528 0.0221,-0.0138 1.03629,0.41066 c 0.36104,0.0799 0.72209,0.15985 1.08314,0.2384 -0.36105,0.0799 -0.7221,0.15985 -1.08314,0.2384 l -1.03629,0.41203 -0.0221,-0.011 0.38723,-0.63941"
       id="path299"
       style="stroke-width:0.352778" />
    <path
       fill-rule="nonzero"
       fill="#231f20"
       fill-opacity="1"
       d="m 71.966669,122.14104 -0.636655,0.38585 -0.01379,-0.022 0.41203,-1.03628 c 0.07855,-0.36105 0.158475,-0.7221 0.238404,-1.08314 0.07855,0.36104 0.158471,0.72209 0.2384,1.08314 l 0.410654,1.03628 -0.01101,0.022 -0.638031,-0.38585"
       id="path300"
       style="stroke-width:0.352778" />
  </g>
</svg>
