<?xml version="1.0" encoding="UTF-8" standalone="no"?>
<!-- Created with Inkscape (http://www.inkscape.org/) -->

<svg
   width="79.511604mm"
   height="54.67342mm"
   viewBox="0 0 79.511604 54.67342"
   version="1.1"
   id="svg1"
   inkscape:version="1.3.2 (091e20e, 2023-11-25)"
   sodipodi:docname="fig-3-6.svg"
   xmlns:inkscape="http://www.inkscape.org/namespaces/inkscape"
   xmlns:sodipodi="http://sodipodi.sourceforge.net/DTD/sodipodi-0.dtd"
   xmlns="http://www.w3.org/2000/svg"
   xmlns:svg="http://www.w3.org/2000/svg">
  <sodipodi:namedview
     id="namedview1"
     pagecolor="#ffffff"
     bordercolor="#000000"
     borderopacity="0.25"
     inkscape:showpageshadow="2"
     inkscape:pageopacity="0.0"
     inkscape:pagecheckerboard="0"
     inkscape:deskcolor="#d1d1d1"
     inkscape:document-units="mm"
     inkscape:zoom="0.2102413"
     inkscape:cx="149.82784"
     inkscape:cy="104.64167"
     inkscape:window-width="1312"
     inkscape:window-height="449"
     inkscape:window-x="0"
     inkscape:window-y="38"
     inkscape:window-maximized="0"
     inkscape:current-layer="layer1" />
  <defs
     id="defs1" />
  <g
     inkscape:label="Layer 1"
     inkscape:groupmode="layer"
     id="layer1"
     transform="translate(-65.352085,-121.17114)">
    <path
       fill="none"
       stroke-width="0.176389"
       stroke-linecap="butt"
       stroke-linejoin="miter"
       stroke="#231f20"
       stroke-opacity="1"
       stroke-miterlimit="4"
       d="m 70.872723,132.1456 h 2.116667 m 52.97316,40.51156 v -2.11667 m -55.089827,-8.25582 h 2.116667 m -2.116667,-6.74136 h 2.116667 m -2.116667,-12.31002 h 2.116667"
       id="path238" />
    <g
       fill="#231f20"
       fill-opacity="1"
       id="g239"
       transform="matrix(0.35277777,0,0,0.35277777,-4.6589267,97.917883)">
      <g
         id="use239"
         transform="translate(208.68999,99.276001)">
        <path
           d="m 0.828125,0 h 1.9375 v -0.109375 c -0.53125,0 -0.671875,-0.078125 -0.671875,-0.40625 V -4.71875 l -0.0625,-0.015625 -1.25,0.640625 V -4 C 1.171875,-4.15625 1.171875,-4.15625 1.25,-4.15625 c 0.234375,0 0.234375,0.1875 0.234375,0.328125 v 3.171875 c 0,0.515625 -0.25,0.53125 -0.65625,0.546875 z m 0,0"
           id="path13" />
      </g>
    </g>
    <path
       fill="none"
       stroke-width="0.176389"
       stroke-linecap="butt"
       stroke-linejoin="miter"
       stroke="#231f20"
       stroke-opacity="1"
       stroke-miterlimit="4"
       d="M 70.872723,137.67291 H 72.98939"
       id="path239" />
    <path
       fill="none"
       stroke-width="0.176389"
       stroke-linecap="butt"
       stroke-linejoin="miter"
       stroke="#231f20"
       stroke-opacity="1"
       stroke-dasharray="4, 2"
       stroke-miterlimit="4"
       d="m 73.871334,132.1456 h 59.487156 m -59.487156,30.13907 h 9.558073 m -9.558073,-6.74274 h 9.558073 m -9.558073,-12.31002 h 52.099486 m -52.099486,-5.559 h 52.099486"
       id="path240" />
    <g
       fill="#231f20"
       fill-opacity="1"
       id="g240"
       transform="matrix(0.35277777,0,0,0.35277777,-4.6589267,97.917883)">
      <g
         id="use240"
         transform="translate(206.29199,113.676)">
        <path
           d="M 0.5625,-2.15625 C 0.71875,-2.5625 0.875,-2.578125 1.140625,-2.578125 H 2.15625 l -2.171875,2.609375 0.0625,0.0625 c 0.09375,-0.078125 0.203125,-0.125 0.3125,-0.125 0.5,0 1,0.59375 1.53125,0.59375 0.34375,0 0.65625,-0.25 0.65625,-0.515625 0,-0.234375 -0.1875,-0.265625 -0.25,-0.265625 C 2.140625,-0.21875 2.0625,-0.125 2.0625,0 c 0,0.15625 0.09375,0.234375 0.09375,0.3125 0,0.09375 -0.109375,0.109375 -0.203125,0.109375 -0.0625,0 -0.203125,0 -0.375,-0.234375 C 1.21875,-0.28125 1.09375,-0.40625 0.625,-0.515625 l 2.03125,-2.40625 V -3 H 0.671875 l -0.21875,0.8125 z m 0,0"
           id="path8" />
      </g>
    </g>
    <g
       fill="#231f20"
       fill-opacity="1"
       id="g241"
       transform="matrix(0.35277777,0,0,0.35277777,-4.6589267,97.917883)">
      <g
         id="use241"
         transform="translate(209.18999,116.6759)">
        <path
           d="m 0.921875,-1.984375 c 0.40625,0 0.5625,0.015625 0.78125,0.140625 0.375,0.1875 0.453125,0.640625 0.453125,0.78125 0,0.453125 -0.25,0.9375 -0.8125,0.9375 -0.34375,0 -0.578125,-0.34375 -0.859375,-0.34375 -0.09375,0 -0.21875,0.046875 -0.21875,0.203125 0,0.3125 0.515625,0.34375 0.65625,0.34375 0.9375,0 1.671875,-0.515625 1.671875,-1.375 0,-0.796875 -0.515625,-1 -0.765625,-1.109375 C 2.21875,-2.65625 2.375,-2.921875 2.375,-3.25 c 0,-0.234375 -0.15625,-0.8125 -0.921875,-0.8125 -0.40625,0 -0.9375,0.1875 -1.1875,0.984375 l 0.09375,0.015625 c 0.09375,-0.171875 0.34375,-0.640625 0.890625,-0.640625 0.4375,0 0.65625,0.328125 0.65625,0.625 0,0.5625 -0.453125,0.84375 -1,1.015625 z m 0,0"
           id="path1" />
      </g>
    </g>
    <g
       fill="#231f20"
       fill-opacity="1"
       id="g242"
       transform="matrix(0.35277777,0,0,0.35277777,-4.6589267,97.917883)">
      <g
         id="use242"
         transform="translate(206.29199,129.05499)">
        <path
           d="M 0.5625,-2.15625 C 0.71875,-2.5625 0.875,-2.578125 1.140625,-2.578125 H 2.15625 l -2.171875,2.609375 0.0625,0.0625 c 0.09375,-0.078125 0.203125,-0.125 0.3125,-0.125 0.5,0 1,0.59375 1.53125,0.59375 0.34375,0 0.65625,-0.25 0.65625,-0.515625 0,-0.234375 -0.1875,-0.265625 -0.25,-0.265625 C 2.140625,-0.21875 2.0625,-0.125 2.0625,0 c 0,0.15625 0.09375,0.234375 0.09375,0.3125 0,0.09375 -0.109375,0.109375 -0.203125,0.109375 -0.0625,0 -0.203125,0 -0.375,-0.234375 C 1.21875,-0.28125 1.09375,-0.40625 0.625,-0.515625 l 2.03125,-2.40625 V -3 H 0.671875 l -0.21875,0.8125 z m 0,0"
           id="path9" />
      </g>
    </g>
    <g
       fill="#231f20"
       fill-opacity="1"
       id="g243"
       transform="matrix(0.35277777,0,0,0.35277777,-4.6589267,97.917883)">
      <g
         id="use243"
         transform="translate(209.18999,132.05499)">
        <path
           d="m 2.84375,-0.828125 -0.078125,-0.03125 c -0.234375,0.390625 -0.34375,0.40625 -0.5625,0.40625 h -1.4375 l 1.015625,-1.0625 C 2.046875,-1.796875 2.546875,-2.34375 2.546875,-2.96875 2.546875,-3.640625 2,-4.0625 1.453125,-4.0625 c -0.515625,0 -1.09375,0.296875 -1.265625,1.203125 l 0.125,0.03125 c 0.125,-0.328125 0.3125,-0.78125 0.859375,-0.78125 0.703125,0 0.859375,0.546875 0.859375,0.859375 0,0.453125 -0.265625,0.984375 -0.78125,1.546875 l -1.0625,1.125 V 0 h 2.328125 z m 0,0"
           id="path22" />
      </g>
    </g>
    <g
       fill="#231f20"
       fill-opacity="1"
       id="g244"
       transform="matrix(0.35277777,0,0,0.35277777,-4.6589267,97.917883)">
      <g
         id="use244"
         transform="translate(206.29199,164.30299)">
        <path
           d="M 0.5625,-2.15625 C 0.71875,-2.5625 0.875,-2.578125 1.140625,-2.578125 H 2.15625 l -2.171875,2.609375 0.0625,0.0625 c 0.09375,-0.078125 0.203125,-0.125 0.3125,-0.125 0.5,0 1,0.59375 1.53125,0.59375 0.34375,0 0.65625,-0.25 0.65625,-0.515625 0,-0.234375 -0.1875,-0.265625 -0.25,-0.265625 C 2.140625,-0.21875 2.0625,-0.125 2.0625,0 c 0,0.15625 0.09375,0.234375 0.09375,0.3125 0,0.09375 -0.109375,0.109375 -0.203125,0.109375 -0.0625,0 -0.203125,0 -0.375,-0.234375 C 1.21875,-0.28125 1.09375,-0.40625 0.625,-0.515625 l 2.03125,-2.40625 V -3 H 0.671875 l -0.21875,0.8125 z m 0,0"
           id="path10" />
      </g>
    </g>
    <g
       fill="#231f20"
       fill-opacity="1"
       id="g245"
       transform="matrix(0.35277777,0,0,0.35277777,-4.6589267,97.917883)">
      <g
         id="use245"
         transform="translate(209.18999,167.30299)">
        <path
           d="m 0.703125,0 h 1.65625 v -0.09375 c -0.453125,0 -0.5625,-0.0625 -0.5625,-0.34375 V -4.046875 L 1.75,-4.0625 0.671875,-3.515625 v 0.09375 C 1,-3.5625 1,-3.5625 1.078125,-3.5625 c 0.203125,0 0.203125,0.15625 0.203125,0.28125 v 2.71875 c 0,0.453125 -0.21875,0.453125 -0.578125,0.46875 z m 0,0"
           id="path20" />
      </g>
    </g>
    <g
       fill="#231f20"
       fill-opacity="1"
       id="g246"
       transform="matrix(0.35277777,0,0,0.35277777,-4.6589267,97.917883)">
      <g
         id="use246"
         transform="translate(206.29199,183.1459)">
        <path
           d="M 0.5625,-2.15625 C 0.71875,-2.5625 0.875,-2.578125 1.140625,-2.578125 H 2.15625 l -2.171875,2.609375 0.0625,0.0625 c 0.09375,-0.078125 0.203125,-0.125 0.3125,-0.125 0.5,0 1,0.59375 1.53125,0.59375 0.34375,0 0.65625,-0.25 0.65625,-0.515625 0,-0.234375 -0.1875,-0.265625 -0.25,-0.265625 C 2.140625,-0.21875 2.0625,-0.125 2.0625,0 c 0,0.15625 0.09375,0.234375 0.09375,0.3125 0,0.09375 -0.109375,0.109375 -0.203125,0.109375 -0.0625,0 -0.203125,0 -0.375,-0.234375 C 1.21875,-0.28125 1.09375,-0.40625 0.625,-0.515625 l 2.03125,-2.40625 V -3 H 0.671875 l -0.21875,0.8125 z m 0,0"
           id="path11" />
      </g>
    </g>
    <g
       fill="#231f20"
       fill-opacity="1"
       id="g247"
       transform="matrix(0.35277777,0,0,0.35277777,-4.6589267,97.917883)">
      <g
         id="use247"
         transform="translate(209.18999,186.1459)">
        <path
           d="m 1.5,-3.90625 c 0.765625,0 0.78125,1.515625 0.78125,1.921875 0,0.46875 -0.015625,1.90625 -0.78125,1.90625 -0.765625,0 -0.78125,-1.421875 -0.78125,-1.90625 0,-0.40625 0.015625,-1.921875 0.78125,-1.921875 z m 0,-0.15625 c -1.109375,0 -1.359375,1.375 -1.359375,2.078125 0,0.71875 0.25,2.0625 1.359375,2.0625 1.109375,0 1.359375,-1.34375 1.359375,-2.0625 0,-0.703125 -0.25,-2.078125 -1.359375,-2.078125 z m 0,0"
           id="path19" />
      </g>
    </g>
    <path
       fill="none"
       stroke-width="0.176389"
       stroke-linecap="butt"
       stroke-linejoin="miter"
       stroke="#231f20"
       stroke-opacity="1"
       stroke-miterlimit="4"
       d="m 98.517547,172.65716 v -2.11667 m -15.097786,2.11667 v -2.11667 m -18.053678,1.05833 h 77.743397"
       id="path247" />
    <g
       fill="#231f20"
       fill-opacity="1"
       id="g248"
       transform="matrix(0.35277777,0,0,0.35277777,-4.6589267,97.917883)">
      <g
         id="use248"
         transform="translate(211.06499,216.77499)">
        <path
           d="m 1.75,-4.546875 c 0.890625,0 0.90625,1.75 0.90625,2.234375 0,0.546875 -0.015625,2.234375 -0.90625,2.234375 -0.890625,0 -0.90625,-1.671875 -0.90625,-2.234375 0,-0.484375 0.015625,-2.234375 0.90625,-2.234375 z m 0,-0.1875 c -1.28125,0 -1.578125,1.59375 -1.578125,2.421875 0,0.84375 0.296875,2.40625 1.578125,2.40625 1.28125,0 1.578125,-1.5625 1.578125,-2.40625 0,-0.828125 -0.296875,-2.421875 -1.578125,-2.421875 z m 0,0"
           id="path12" />
      </g>
    </g>
    <path
       fill="none"
       stroke-width="0.176389"
       stroke-linecap="butt"
       stroke-linejoin="miter"
       stroke="#231f20"
       stroke-opacity="1"
       stroke-miterlimit="4"
       d="m 133.4012,172.65716 v -2.11667"
       id="path248" />
    <path
       fill="none"
       stroke-width="0.176389"
       stroke-linecap="butt"
       stroke-linejoin="miter"
       stroke="#231f20"
       stroke-opacity="1"
       stroke-dasharray="4, 2"
       stroke-miterlimit="4"
       d="M 125.96255,169.66544 V 137.64259 M 98.517546,169.66544 V 155.55157 M 83.419762,169.66544 V 155.55157 M 133.4012,169.66544 V 132.12905"
       id="path249" />
    <path
       fill="none"
       stroke-width="0.176389"
       stroke-linecap="butt"
       stroke-linejoin="miter"
       stroke="#231f20"
       stroke-opacity="1"
       stroke-miterlimit="4"
       d="M 71.931056,175.84456 V 122.93478"
       id="path250" />
    <g
       fill="#231f20"
       fill-opacity="1"
       id="g250"
       transform="matrix(0.35277777,0,0,0.35277777,-4.6589267,97.917883)">
      <g
         id="use250"
         transform="translate(246.49899,217.68201)">
        <path
           d="M 2.8125,-0.78125 C 2.625,-0.5625 2.484375,-0.3125 2.34375,-0.3125 c -0.140625,0 -0.1875,-0.171875 -0.21875,-0.28125 -0.046875,-0.171875 -0.28125,-1.125 -0.28125,-1.25 0,0 0.46875,-0.84375 0.671875,-0.84375 0.15625,0 0.203125,0.109375 0.375,0.109375 0.171875,0 0.234375,-0.125 0.234375,-0.25 C 3.125,-3 2.96875,-3.09375 2.84375,-3.09375 c -0.359375,0 -0.6875,0.4375 -1.0625,1 l -0.078125,-0.375 c -0.125,-0.625 -0.21875,-0.625 -0.375,-0.625 -0.234375,0 -0.6875,0.171875 -0.875,0.234375 L 0.46875,-2.75 c 0.234375,-0.0625 0.328125,-0.078125 0.390625,-0.078125 0.1875,0 0.21875,0.09375 0.28125,0.3125 0,0.03125 0.25,0.96875 0.25,1.03125 -0.640625,0.921875 -0.8125,1.15625 -0.9375,1.15625 -0.125,0 -0.25,-0.140625 -0.40625,-0.140625 -0.15625,0 -0.234375,0.125 -0.234375,0.25 0,0.15625 0.109375,0.296875 0.34375,0.296875 0.21875,0 0.296875,-0.078125 0.421875,-0.21875 0.234375,-0.25 0.53125,-0.625 0.859375,-1.09375 l 0.21875,0.84375 c 0.09375,0.375 0.1875,0.46875 0.390625,0.46875 0.171875,0 0.375,0 0.859375,-0.796875 z m 0,0"
           id="path4" />
      </g>
    </g>
    <g
       fill="#231f20"
       fill-opacity="1"
       id="g251"
       transform="matrix(0.35277777,0,0,0.35277777,-4.6589267,97.917883)">
      <g
         id="use251"
         transform="translate(249.60699,220.68201)">
        <path
           d="m 0.703125,0 h 1.65625 v -0.09375 c -0.453125,0 -0.5625,-0.0625 -0.5625,-0.34375 V -4.046875 L 1.75,-4.0625 0.671875,-3.515625 v 0.09375 C 1,-3.5625 1,-3.5625 1.078125,-3.5625 c 0.203125,0 0.203125,0.15625 0.203125,0.28125 v 2.71875 c 0,0.453125 -0.21875,0.453125 -0.578125,0.46875 z m 0,0"
           id="path21" />
      </g>
    </g>
    <g
       fill="#231f20"
       fill-opacity="1"
       id="g252"
       transform="matrix(0.35277777,0,0,0.35277777,-4.6589267,97.917883)">
      <g
         id="use252"
         transform="translate(289.32599,217.68201)">
        <path
           d="M 2.8125,-0.78125 C 2.625,-0.5625 2.484375,-0.3125 2.34375,-0.3125 c -0.140625,0 -0.1875,-0.171875 -0.21875,-0.28125 -0.046875,-0.171875 -0.28125,-1.125 -0.28125,-1.25 0,0 0.46875,-0.84375 0.671875,-0.84375 0.15625,0 0.203125,0.109375 0.375,0.109375 0.171875,0 0.234375,-0.125 0.234375,-0.25 C 3.125,-3 2.96875,-3.09375 2.84375,-3.09375 c -0.359375,0 -0.6875,0.4375 -1.0625,1 l -0.078125,-0.375 c -0.125,-0.625 -0.21875,-0.625 -0.375,-0.625 -0.234375,0 -0.6875,0.171875 -0.875,0.234375 L 0.46875,-2.75 c 0.234375,-0.0625 0.328125,-0.078125 0.390625,-0.078125 0.1875,0 0.21875,0.09375 0.28125,0.3125 0,0.03125 0.25,0.96875 0.25,1.03125 -0.640625,0.921875 -0.8125,1.15625 -0.9375,1.15625 -0.125,0 -0.25,-0.140625 -0.40625,-0.140625 -0.15625,0 -0.234375,0.125 -0.234375,0.25 0,0.15625 0.109375,0.296875 0.34375,0.296875 0.21875,0 0.296875,-0.078125 0.421875,-0.21875 0.234375,-0.25 0.53125,-0.625 0.859375,-1.09375 l 0.21875,0.84375 c 0.09375,0.375 0.1875,0.46875 0.390625,0.46875 0.171875,0 0.375,0 0.859375,-0.796875 z m 0,0"
           id="path5" />
      </g>
    </g>
    <g
       fill="#231f20"
       fill-opacity="1"
       id="g253"
       transform="matrix(0.35277777,0,0,0.35277777,-4.6589267,97.917883)">
      <g
         id="use253"
         transform="translate(292.60898,220.68201)">
        <path
           d="m 2.84375,-0.828125 -0.078125,-0.03125 c -0.234375,0.390625 -0.34375,0.40625 -0.5625,0.40625 h -1.4375 l 1.015625,-1.0625 C 2.046875,-1.796875 2.546875,-2.34375 2.546875,-2.96875 2.546875,-3.640625 2,-4.0625 1.453125,-4.0625 c -0.515625,0 -1.09375,0.296875 -1.265625,1.203125 l 0.125,0.03125 c 0.125,-0.328125 0.3125,-0.78125 0.859375,-0.78125 0.703125,0 0.859375,0.546875 0.859375,0.859375 0,0.453125 -0.265625,0.984375 -0.78125,1.546875 l -1.0625,1.125 V 0 h 2.328125 z m 0,0"
           id="path23" />
      </g>
    </g>
    <g
       fill="#231f20"
       fill-opacity="1"
       id="g254"
       transform="matrix(0.35277777,0,0,0.35277777,-4.6589267,97.917883)">
      <g
         id="use254"
         transform="translate(367.12399,217.68201)">
        <path
           d="M 2.8125,-0.78125 C 2.625,-0.5625 2.484375,-0.3125 2.34375,-0.3125 c -0.140625,0 -0.1875,-0.171875 -0.21875,-0.28125 -0.046875,-0.171875 -0.28125,-1.125 -0.28125,-1.25 0,0 0.46875,-0.84375 0.671875,-0.84375 0.15625,0 0.203125,0.109375 0.375,0.109375 0.171875,0 0.234375,-0.125 0.234375,-0.25 C 3.125,-3 2.96875,-3.09375 2.84375,-3.09375 c -0.359375,0 -0.6875,0.4375 -1.0625,1 l -0.078125,-0.375 c -0.125,-0.625 -0.21875,-0.625 -0.375,-0.625 -0.234375,0 -0.6875,0.171875 -0.875,0.234375 L 0.46875,-2.75 c 0.234375,-0.0625 0.328125,-0.078125 0.390625,-0.078125 0.1875,0 0.21875,0.09375 0.28125,0.3125 0,0.03125 0.25,0.96875 0.25,1.03125 -0.640625,0.921875 -0.8125,1.15625 -0.9375,1.15625 -0.125,0 -0.25,-0.140625 -0.40625,-0.140625 -0.15625,0 -0.234375,0.125 -0.234375,0.25 0,0.15625 0.109375,0.296875 0.34375,0.296875 0.21875,0 0.296875,-0.078125 0.421875,-0.21875 0.234375,-0.25 0.53125,-0.625 0.859375,-1.09375 l 0.21875,0.84375 c 0.09375,0.375 0.1875,0.46875 0.390625,0.46875 0.171875,0 0.375,0 0.859375,-0.796875 z m 0,0"
           id="path6" />
      </g>
    </g>
    <g
       fill="#231f20"
       fill-opacity="1"
       id="g255"
       transform="matrix(0.35277777,0,0,0.35277777,-4.6589267,97.917883)">
      <g
         id="use255"
         transform="translate(370.40598,220.68201)">
        <path
           d="m 0.921875,-1.984375 c 0.40625,0 0.5625,0.015625 0.78125,0.140625 0.375,0.1875 0.453125,0.640625 0.453125,0.78125 0,0.453125 -0.25,0.9375 -0.8125,0.9375 -0.34375,0 -0.578125,-0.34375 -0.859375,-0.34375 -0.09375,0 -0.21875,0.046875 -0.21875,0.203125 0,0.3125 0.515625,0.34375 0.65625,0.34375 0.9375,0 1.671875,-0.515625 1.671875,-1.375 0,-0.796875 -0.515625,-1 -0.765625,-1.109375 C 2.21875,-2.65625 2.375,-2.921875 2.375,-3.25 c 0,-0.234375 -0.15625,-0.8125 -0.921875,-0.8125 -0.40625,0 -0.9375,0.1875 -1.1875,0.984375 l 0.09375,0.015625 c 0.09375,-0.171875 0.34375,-0.640625 0.890625,-0.640625 0.4375,0 0.65625,0.328125 0.65625,0.625 0,0.5625 -0.453125,0.84375 -1,1.015625 z m 0,0"
           id="path3" />
      </g>
    </g>
    <g
       fill="#231f20"
       fill-opacity="1"
       id="g256"
       transform="matrix(0.35277777,0,0,0.35277777,-4.6589267,97.917883)">
      <g
         id="use256"
         transform="translate(388.29599,217.68201)">
        <path
           d="M 2.8125,-0.78125 C 2.625,-0.5625 2.484375,-0.3125 2.34375,-0.3125 c -0.140625,0 -0.1875,-0.171875 -0.21875,-0.28125 -0.046875,-0.171875 -0.28125,-1.125 -0.28125,-1.25 0,0 0.46875,-0.84375 0.671875,-0.84375 0.15625,0 0.203125,0.109375 0.375,0.109375 0.171875,0 0.234375,-0.125 0.234375,-0.25 C 3.125,-3 2.96875,-3.09375 2.84375,-3.09375 c -0.359375,0 -0.6875,0.4375 -1.0625,1 l -0.078125,-0.375 c -0.125,-0.625 -0.21875,-0.625 -0.375,-0.625 -0.234375,0 -0.6875,0.171875 -0.875,0.234375 L 0.46875,-2.75 c 0.234375,-0.0625 0.328125,-0.078125 0.390625,-0.078125 0.1875,0 0.21875,0.09375 0.28125,0.3125 0,0.03125 0.25,0.96875 0.25,1.03125 -0.640625,0.921875 -0.8125,1.15625 -0.9375,1.15625 -0.125,0 -0.25,-0.140625 -0.40625,-0.140625 -0.15625,0 -0.234375,0.125 -0.234375,0.25 0,0.15625 0.109375,0.296875 0.34375,0.296875 0.21875,0 0.296875,-0.078125 0.421875,-0.21875 0.234375,-0.25 0.53125,-0.625 0.859375,-1.09375 l 0.21875,0.84375 c 0.09375,0.375 0.1875,0.46875 0.390625,0.46875 0.171875,0 0.375,0 0.859375,-0.796875 z m 0,0"
           id="path7" />
      </g>
    </g>
    <g
       fill="#231f20"
       fill-opacity="1"
       id="g257"
       transform="matrix(0.35277777,0,0,0.35277777,-4.6589267,97.917883)">
      <g
         id="use257"
         transform="translate(391.40399,220.68201)">
        <path
           d="M 2.828125,-1.390625 H 2.21875 V -4.0625 H 1.953125 l -1.875,2.671875 V -1 h 1.6875 V 0 H 2.21875 v -1 h 0.609375 z m -1.078125,0 H 0.3125 l 1.421875,-2.03125 H 1.75 Z m 0,0"
           id="path18" />
      </g>
    </g>
    <path
       fill-rule="nonzero"
       fill="#231f20"
       fill-opacity="1"
       d="m 143.10948,171.59883 -0.38722,-0.63528 0.022,-0.0138 1.03629,0.41065 c 0.36104,0.0799 0.72209,0.15986 1.08314,0.2384 -0.36105,0.0799 -0.7221,0.15986 -1.08314,0.23841 l -1.03629,0.41203 -0.022,-0.011 0.38722,-0.63941"
       id="path257"
       style="stroke-width:0.352778" />
    <g
       fill="#231f20"
       fill-opacity="1"
       id="g258"
       transform="matrix(0.35277777,0,0,0.35277777,-4.6589267,97.917883)">
      <g
         id="use258"
         transform="translate(418.90198,216.8609)">
        <path
           d="m 3.21875,-0.890625 c -0.21875,0.25 -0.375,0.53125 -0.546875,0.53125 -0.15625,0 -0.21875,-0.1875 -0.25,-0.328125 -0.046875,-0.1875 -0.3125,-1.28125 -0.3125,-1.421875 0,0 0.53125,-0.96875 0.765625,-0.96875 0.1875,0 0.234375,0.140625 0.421875,0.140625 0.203125,0 0.28125,-0.15625 0.28125,-0.296875 0,-0.203125 -0.171875,-0.296875 -0.328125,-0.296875 -0.421875,0 -0.796875,0.484375 -1.203125,1.140625 l -0.09375,-0.4375 C 1.8125,-3.53125 1.6875,-3.53125 1.515625,-3.53125 c -0.265625,0 -0.78125,0.1875 -1,0.265625 l 0.03125,0.125 c 0.25,-0.0625 0.359375,-0.09375 0.4375,-0.09375 0.21875,0 0.25,0.109375 0.3125,0.359375 0.015625,0.046875 0.28125,1.109375 0.28125,1.171875 -0.71875,1.0625 -0.921875,1.328125 -1.0625,1.328125 -0.140625,0 -0.28125,-0.15625 -0.453125,-0.15625 -0.1875,0 -0.28125,0.140625 -0.28125,0.28125 0,0.1875 0.125,0.34375 0.390625,0.34375 0.25,0 0.34375,-0.09375 0.484375,-0.25 0.265625,-0.296875 0.609375,-0.71875 0.984375,-1.25 l 0.25,0.953125 c 0.09375,0.421875 0.21875,0.546875 0.453125,0.546875 0.1875,0 0.421875,0 0.984375,-0.921875 z m 0,0"
           id="path16" />
      </g>
    </g>
    <path
       fill-rule="nonzero"
       fill="#231f20"
       fill-opacity="1"
       d="m 71.931057,122.93479 -0.635275,0.38585 -0.01379,-0.022 0.410658,-1.03628 c 0.07993,-0.36105 0.158475,-0.7221 0.2384,-1.08314 0.07993,0.36104 0.158475,0.72209 0.2384,1.08314 l 0.412034,1.03628 -0.01101,0.022 -0.63941,-0.38585"
       id="path258"
       style="stroke-width:0.352778" />
    <g
       fill="#231f20"
       fill-opacity="1"
       id="g259"
       transform="matrix(0.35277777,0,0,0.35277777,-4.6589267,97.917883)">
      <g
         id="use259"
         transform="translate(199.46799,71.320999)">
        <path
           d="M 5.15625,-5.21875 H 1.171875 v 0.125 c 0.421875,0.03125 0.625,0.046875 0.625,0.34375 0,0.140625 -0.0625,0.375 -0.09375,0.5 L 0.71875,-0.71875 C 0.578125,-0.203125 0.46875,-0.1875 0.0625,-0.125 V 0 H 2.078125 V -0.125 C 1.8125,-0.140625 1.46875,-0.15625 1.46875,-0.484375 1.46875,-0.5625 1.5,-0.65625 1.546875,-0.84375 l 0.5,-1.78125 c 0.140625,0.015625 0.46875,0.03125 0.859375,0.03125 0.140625,0 0.390625,0.015625 0.390625,0.375 0,0.15625 -0.03125,0.34375 -0.0625,0.453125 L 3.375,-1.71875 3.984375,-3.59375 3.84375,-3.625 c -0.375,0.71875 -0.390625,0.71875 -1.734375,0.734375 L 2.640625,-4.75 c 0.0625,-0.1875 0.140625,-0.203125 0.640625,-0.203125 1.1875,0 1.484375,0.09375 1.484375,0.59375 0,0.125 -0.015625,0.234375 -0.03125,0.34375 L 4.90625,-4 Z m 0,0"
           id="path15" />
      </g>
    </g>
    <g
       fill="#231f20"
       fill-opacity="1"
       id="g260"
       transform="matrix(0.35277777,0,0,0.35277777,-4.6589267,97.917883)">
      <g
         id="use260"
         transform="translate(204.756,71.320999)">
        <path
           d="m 2.359375,-5.40625 c -1.234375,0.734375 -1.96875,1.9375 -1.96875,3.3125 0,1.109375 0.25,1.671875 0.65625,2.25 C 1.34375,0.609375 1.875,1.171875 2.34375,1.421875 L 2.4375,1.28125 c -1.359375,-0.859375 -1.359375,-2.625 -1.359375,-3.4375 0,-2.03125 0.765625,-2.65625 1.359375,-3.125 z m 0,0"
           id="path14" />
      </g>
    </g>
    <g
       fill="#231f20"
       fill-opacity="1"
       id="g261"
       transform="matrix(0.35277777,0,0,0.35277777,-4.6589267,97.917883)">
      <g
         id="use261"
         transform="translate(207.41998,71.320999)">
        <path
           d="m 3.21875,-0.890625 c -0.21875,0.25 -0.375,0.53125 -0.546875,0.53125 -0.15625,0 -0.21875,-0.1875 -0.25,-0.328125 -0.046875,-0.1875 -0.3125,-1.28125 -0.3125,-1.421875 0,0 0.53125,-0.96875 0.765625,-0.96875 0.1875,0 0.234375,0.140625 0.421875,0.140625 0.203125,0 0.28125,-0.15625 0.28125,-0.296875 0,-0.203125 -0.171875,-0.296875 -0.328125,-0.296875 -0.421875,0 -0.796875,0.484375 -1.203125,1.140625 l -0.09375,-0.4375 C 1.8125,-3.53125 1.6875,-3.53125 1.515625,-3.53125 c -0.265625,0 -0.78125,0.1875 -1,0.265625 l 0.03125,0.125 c 0.25,-0.0625 0.359375,-0.09375 0.4375,-0.09375 0.21875,0 0.25,0.109375 0.3125,0.359375 0.015625,0.046875 0.28125,1.109375 0.28125,1.171875 -0.71875,1.0625 -0.921875,1.328125 -1.0625,1.328125 -0.140625,0 -0.28125,-0.15625 -0.453125,-0.15625 -0.1875,0 -0.28125,0.140625 -0.28125,0.28125 0,0.1875 0.125,0.34375 0.390625,0.34375 0.25,0 0.34375,-0.09375 0.484375,-0.25 0.265625,-0.296875 0.609375,-0.71875 0.984375,-1.25 l 0.25,0.953125 c 0.09375,0.421875 0.21875,0.546875 0.453125,0.546875 0.1875,0 0.421875,0 0.984375,-0.921875 z m 0,0"
           id="path17" />
      </g>
    </g>
    <g
       fill="#231f20"
       fill-opacity="1"
       id="g262"
       transform="matrix(0.35277777,0,0,0.35277777,-4.6589267,97.917883)">
      <g
         id="use262"
         transform="translate(210.97198,71.320999)">
        <path
           d="m 0.296875,1.421875 c 1.25,-0.734375 1.984375,-1.9375 1.984375,-3.3125 0,-1.109375 -0.265625,-1.6875 -0.65625,-2.265625 -0.3125,-0.4375 -0.828125,-1 -1.296875,-1.25 l -0.09375,0.125 c 1.359375,0.875 1.359375,2.625 1.359375,3.4375 0,2.03125 -0.765625,2.65625 -1.359375,3.125 z m 0,0"
           id="path24" />
      </g>
    </g>
    <path
       fill="none"
       stroke-width="0.352778"
       stroke-linecap="butt"
       stroke-linejoin="miter"
       stroke="#231f20"
       stroke-opacity="1"
       stroke-miterlimit="4"
       d="m 65.366083,170.35584 c 0,0 11.787738,-0.93844 18.063324,-8.09322 m -0.05926,-6.71104 h 15.013726 c 0,0 5.220017,-0.0923 7.741827,-2.96554 2.1649,-2.46807 4.75009,-4.92649 10.02936,-6.74412 3.16535,-1.09141 5.78776,-1.50482 7.56405,-1.68396 1.3491,-0.13505 2.07808,-0.52779 2.25171,-0.92604 m 0,-5.55901 7.42625,-5.52869 h 9.1984"
       id="path262" />
    <path
       fill-rule="nonzero"
       fill="#231f20"
       fill-opacity="1"
       stroke-width="0.176389"
       stroke-linecap="butt"
       stroke-linejoin="miter"
       stroke="#231f20"
       stroke-opacity="1"
       stroke-miterlimit="4"
       d="m 84.037122,155.55158 c 0,0.34175 -0.276986,0.61736 -0.617361,0.61736 -0.341754,0 -0.617361,-0.27561 -0.617361,-0.61736 0,-0.34038 0.275607,-0.61736 0.617361,-0.61736 0.340375,0 0.617361,0.27698 0.617361,0.61736 z m 0,0"
       id="path263" />
    <path
       fill-rule="nonzero"
       fill="#231f20"
       fill-opacity="1"
       stroke-width="0.176389"
       stroke-linecap="butt"
       stroke-linejoin="miter"
       stroke="#231f20"
       stroke-opacity="1"
       stroke-miterlimit="4"
       d="m 99.134908,155.55157 c 0,0.34176 -0.276986,0.61736 -0.617361,0.61736 -0.341754,0 -0.617361,-0.2756 -0.617361,-0.61736 0,-0.34175 0.275607,-0.61736 0.617361,-0.61736 0.340375,0 0.617361,0.27561 0.617361,0.61736 z m 0,0"
       id="path264" />
    <path
       fill-rule="nonzero"
       fill="#231f20"
       fill-opacity="1"
       stroke-width="0.176389"
       stroke-linecap="butt"
       stroke-linejoin="miter"
       stroke="#231f20"
       stroke-opacity="1"
       stroke-miterlimit="4"
       d="m 126.58818,137.67291 c 0,0.34037 -0.27698,0.61736 -0.61736,0.61736 -0.34037,0 -0.61736,-0.27699 -0.61736,-0.61736 0,-0.34176 0.27699,-0.61737 0.61736,-0.61737 0.34038,0 0.61736,0.27561 0.61736,0.61737 z m 0,0"
       id="path265" />
    <path
       fill-rule="nonzero"
       fill="#231f20"
       fill-opacity="1"
       stroke-width="0.176389"
       stroke-linecap="butt"
       stroke-linejoin="miter"
       stroke="#231f20"
       stroke-opacity="1"
       stroke-miterlimit="4"
       d="m 134.01306,132.14284 c 0,0.34175 -0.27561,0.61736 -0.61736,0.61736 -0.34038,0 -0.61736,-0.27561 -0.61736,-0.61736 0,-0.34038 0.27698,-0.61736 0.61736,-0.61736 0.34175,0 0.61736,0.27698 0.61736,0.61736 z m 0,0"
       id="path266" />
  </g>
</svg>
