<?xml version="1.0" encoding="UTF-8" standalone="no"?>
<!-- Created with Inkscape (http://www.inkscape.org/) -->

<svg
   width="52.494297mm"
   height="19.159184mm"
   viewBox="0 0 52.494297 19.159184"
   version="1.1"
   id="svg1"
   inkscape:version="1.3.2 (091e20e, 2023-11-25)"
   sodipodi:docname="fig-3-28.svg"
   xmlns:inkscape="http://www.inkscape.org/namespaces/inkscape"
   xmlns:sodipodi="http://sodipodi.sourceforge.net/DTD/sodipodi-0.dtd"
   xmlns="http://www.w3.org/2000/svg"
   xmlns:svg="http://www.w3.org/2000/svg">
  <sodipodi:namedview
     id="namedview1"
     pagecolor="#ffffff"
     bordercolor="#000000"
     borderopacity="0.25"
     inkscape:showpageshadow="2"
     inkscape:pageopacity="0.0"
     inkscape:pagecheckerboard="0"
     inkscape:deskcolor="#d1d1d1"
     inkscape:document-units="mm"
     inkscape:zoom="0.2102413"
     inkscape:cx="97.507007"
     inkscape:cy="38.051515"
     inkscape:window-width="1312"
     inkscape:window-height="449"
     inkscape:window-x="0"
     inkscape:window-y="38"
     inkscape:window-maximized="0"
     inkscape:current-layer="layer1" />
  <defs
     id="defs1" />
  <g
     inkscape:label="Layer 1"
     inkscape:groupmode="layer"
     id="layer1"
     transform="translate(-78.758912,-138.95026)">
    <path
       fill-rule="nonzero"
       fill="#231f20"
       fill-opacity="1"
       d="m 81.446193,154.74064 0.742763,0.0524 -0.0014,0.0248 -0.934311,0.60909 c -0.272849,0.24804 -0.545701,0.49747 -0.81993,0.7469 0.144692,-0.34038 0.288008,-0.68213 0.431324,-1.02251 l 0.263208,-1.08314 0.02067,-0.011 0.297657,0.6835"
       id="path214"
       style="stroke-width:0.352778" />
    <path
       fill="none"
       stroke-width="0.352778"
       stroke-linecap="butt"
       stroke-linejoin="miter"
       stroke="#231f20"
       stroke-opacity="1"
       stroke-miterlimit="10"
       d="M 90.673536,141.69475 81.35662,154.8688"
       id="path215" />
    <path
       fill-rule="nonzero"
       fill="#231f20"
       fill-opacity="1"
       d="m 95.06121,154.83159 0.617361,-0.41616 0.01517,0.0207 -0.362426,1.0542 c -0.06339,0.36517 -0.125398,0.72898 -0.187413,1.09278 -0.09646,-0.35553 -0.192924,-0.71245 -0.289387,-1.06936 l -0.458886,-1.01699 0.0096,-0.0221 0.655948,0.35691"
       id="path216"
       style="stroke-width:0.352778" />
    <path
       fill="none"
       stroke-width="0.352778"
       stroke-linecap="butt"
       stroke-linejoin="miter"
       stroke="#231f20"
       stroke-opacity="1"
       stroke-miterlimit="10"
       d="M 94.446605,141.69614 95.0681,154.98869"
       id="path217" />
    <path
       fill-rule="nonzero"
       fill="#231f20"
       fill-opacity="1"
       d="m 108.18151,155.5592 0.11989,-0.7345 0.0248,0.003 0.51952,0.98667 c 0.22186,0.2949 0.44511,0.5898 0.66697,0.88608 -0.32521,-0.17501 -0.65181,-0.34864 -0.97703,-0.52365 l -1.05558,-0.36243 -0.008,-0.0207 0.70969,-0.23427"
       id="path218"
       style="stroke-width:0.352778" />
    <path
       fill="none"
       stroke-width="0.352778"
       stroke-linecap="butt"
       stroke-linejoin="miter"
       stroke="#231f20"
       stroke-opacity="1"
       stroke-miterlimit="10"
       d="m 91.996453,141.69613 16.303567,13.96504"
       id="path219" />
    <path
       fill-rule="nonzero"
       fill="#231f20"
       fill-opacity="1"
       d="m 129.02158,154.9694 0.3638,-0.64906 0.0234,0.0124 0.1502,1.1038 c 0.10749,0.35416 0.21498,0.70832 0.32246,1.0611 -0.24529,-0.27423 -0.49196,-0.55122 -0.73863,-0.82683 l -0.86678,-0.70142 -0.001,-0.0234 0.74689,0.0234"
       id="path220"
       style="stroke-width:0.352778" />
    <path
       fill="none"
       stroke-width="0.352778"
       stroke-linecap="butt"
       stroke-linejoin="miter"
       stroke="#231f20"
       stroke-opacity="1"
       stroke-miterlimit="10"
       d="m 121.54986,141.69062 7.54752,13.41521"
       id="path221" />
    <path
       fill-rule="nonzero"
       fill="#231f20"
       fill-opacity="1"
       d="m 126.69959,156.05391 -0.0717,-0.74 0.0248,-0.003 0.75517,0.81993 c 0.28938,0.22875 0.58015,0.45751 0.87092,0.68626 -0.35967,-0.0854 -0.71934,-0.17087 -1.07901,-0.25631 l -1.11207,-0.0813 -0.0138,-0.0179 0.62563,-0.4079"
       id="path222"
       style="stroke-width:0.352778" />
    <path
       fill="none"
       stroke-width="0.352778"
       stroke-linecap="butt"
       stroke-linejoin="miter"
       stroke="#231f20"
       stroke-opacity="1"
       stroke-miterlimit="10"
       d="m 96.625284,141.71129 30.214866,14.41152"
       id="path223" />
    <path
       fill-rule="nonzero"
       fill="#231f20"
       fill-opacity="1"
       d="m 84.195379,155.79898 0.613227,0.4203 -0.01379,0.0221 -1.113454,0.0496 c -0.361047,0.0744 -0.72347,0.1502 -1.085896,0.22599 0.297656,-0.22048 0.593936,-0.44097 0.890213,-0.66146 l 0.777212,-0.79926 0.02342,0.001 -0.09095,0.74138"
       id="path224"
       style="stroke-width:0.352778" />
    <path
       fill="none"
       stroke-width="0.352778"
       stroke-linecap="butt"
       stroke-linejoin="miter"
       stroke="#231f20"
       stroke-opacity="1"
       stroke-miterlimit="10"
       d="M 115.60086,141.71405 84.053437,155.86237"
       id="path225" />
    <path
       fill-rule="nonzero"
       fill="#231f20"
       fill-opacity="1"
       d="m 99.477822,156.10214 0.704178,0.23978 -0.008,0.0248 -1.05833,0.34865 c -0.327974,0.17088 -0.655948,0.34175 -0.983922,0.51125 0.226,-0.29214 0.451996,-0.58429 0.677996,-0.87643 l 0.531922,-0.98116 0.02342,-0.006 0.112998,0.73863"
       id="path226"
       style="stroke-width:0.352778" />
    <path
       fill="none"
       stroke-width="0.352778"
       stroke-linecap="butt"
       stroke-linejoin="miter"
       stroke="#231f20"
       stroke-opacity="1"
       stroke-miterlimit="10"
       d="M 116.70468,141.70716 99.357937,156.20274"
       id="path227" />
    <path
       fill-rule="nonzero"
       fill="#231f20"
       fill-opacity="1"
       d="m 113.56137,155.05346 0.73863,-0.0854 0.004,0.0248 -0.80615,0.77032 c -0.22187,0.2949 -0.44511,0.59118 -0.66835,0.88471 0.0786,-0.36105 0.1571,-0.7221 0.23565,-1.08452 l 0.0579,-1.11346 0.0193,-0.0138 0.41892,0.61736"
       id="path228"
       style="stroke-width:0.352778" />
    <path
       fill="none"
       stroke-width="0.352778"
       stroke-linecap="butt"
       stroke-linejoin="miter"
       stroke="#231f20"
       stroke-opacity="1"
       stroke-miterlimit="10"
       d="m 119.68537,141.69476 -6.19015,13.50064"
       id="path229" />
    <g
       fill="#231f20"
       fill-opacity="1"
       id="g229"
       transform="matrix(0.35277777,0,0,0.35277777,8.7408993,116.08805)">
      <g
         id="use229"
         transform="translate(241.01849,70.414001)">
        <path
           d="m 3.71875,-0.875 c -0.359375,0.34375 -0.53125,0.546875 -0.640625,0.546875 -0.0625,0 -0.125,-0.046875 -0.125,-0.109375 0,-0.25 0.75,-2.96875 0.765625,-3.0625 L 3.65625,-3.53125 3.171875,-3.46875 3.15625,-3.453125 3.078125,-3.09375 H 3.0625 c -0.03125,-0.21875 -0.296875,-0.4375 -0.640625,-0.4375 -1.0625,0 -2.28125,1.5 -2.28125,2.671875 0,0.234375 0.015625,0.953125 0.8125,0.953125 0.484375,0 0.90625,-0.25 1.578125,-1.21875 l 0.015625,0.015625 C 2.421875,-0.625 2.375,-0.453125 2.375,-0.265625 c 0,0.140625 0,0.34375 0.34375,0.34375 0.34375,0 0.609375,-0.28125 1.09375,-0.875 z m -2.90625,0 c 0,-0.71875 0.71875,-2.484375 1.65625,-2.484375 0.234375,0 0.453125,0.15625 0.453125,0.546875 0,0.78125 -0.78125,2.515625 -1.640625,2.515625 -0.203125,0 -0.46875,-0.15625 -0.46875,-0.578125 z m 0,0"
           id="path8" />
      </g>
    </g>
    <g
       fill="#231f20"
       fill-opacity="1"
       id="g230"
       transform="matrix(0.35277777,0,0,0.35277777,8.7408993,116.08805)">
      <g
         id="use230"
         transform="translate(231.3945,70.150002)">
        <path
           d="m 2.9375,-5.34375 -2.3125,4 c -0.65625,1.125 -0.734375,1.140625 -1.03125,1.21875 V 0 h 1.5 v -0.125 c -0.375,-0.03125 -0.484375,-0.078125 -0.484375,-0.28125 0,-0.171875 0.046875,-0.28125 0.171875,-0.5 L 1.234375,-1.8125 h 1.75 l 0.171875,1.046875 c 0.015625,0.125 0.015625,0.234375 0.015625,0.234375 0,0.328125 -0.21875,0.375 -0.625,0.40625 V 0 h 1.96875 V -0.125 C 4.046875,-0.171875 4,-0.25 3.90625,-0.8125 l -0.75,-4.53125 z m -1.53125,3.25 1.1875,-2.078125 0.359375,2.078125 z m 0,0"
           id="path1" />
      </g>
    </g>
    <g
       fill="#231f20"
       fill-opacity="1"
       id="g231"
       transform="matrix(0.35277777,0,0,0.35277777,8.7408993,116.08805)">
      <g
         id="use231"
         transform="translate(315.15451,70.414001)">
        <path
           d="m 3.71875,-0.875 c -0.359375,0.34375 -0.53125,0.546875 -0.640625,0.546875 -0.0625,0 -0.125,-0.046875 -0.125,-0.109375 0,-0.25 0.75,-2.96875 0.765625,-3.0625 L 3.65625,-3.53125 3.171875,-3.46875 3.15625,-3.453125 3.078125,-3.09375 H 3.0625 c -0.03125,-0.21875 -0.296875,-0.4375 -0.640625,-0.4375 -1.0625,0 -2.28125,1.5 -2.28125,2.671875 0,0.234375 0.015625,0.953125 0.8125,0.953125 0.484375,0 0.90625,-0.25 1.578125,-1.21875 l 0.015625,0.015625 C 2.421875,-0.625 2.375,-0.453125 2.375,-0.265625 c 0,0.140625 0,0.34375 0.34375,0.34375 0.34375,0 0.609375,-0.28125 1.09375,-0.875 z m -2.90625,0 c 0,-0.71875 0.71875,-2.484375 1.65625,-2.484375 0.234375,0 0.453125,0.15625 0.453125,0.546875 0,0.78125 -0.78125,2.515625 -1.640625,2.515625 -0.203125,0 -0.46875,-0.15625 -0.46875,-0.578125 z m 0,0"
           id="path9" />
      </g>
    </g>
    <g
       fill="#231f20"
       fill-opacity="1"
       id="g232"
       transform="matrix(0.35277777,0,0,0.35277777,8.7408993,116.08805)">
      <g
         id="use232"
         transform="translate(303.05051,70.150002)">
        <path
           d="m 2.9375,-5.34375 -2.3125,4 c -0.65625,1.125 -0.734375,1.140625 -1.03125,1.21875 V 0 h 1.5 v -0.125 c -0.375,-0.03125 -0.484375,-0.078125 -0.484375,-0.28125 0,-0.171875 0.046875,-0.28125 0.171875,-0.5 L 1.234375,-1.8125 h 1.75 l 0.171875,1.046875 c 0.015625,0.125 0.015625,0.234375 0.015625,0.234375 0,0.328125 -0.21875,0.375 -0.625,0.40625 V 0 h 1.96875 V -0.125 C 4.046875,-0.171875 4,-0.25 3.90625,-0.8125 l -0.75,-4.53125 z m -1.53125,3.25 1.1875,-2.078125 0.359375,2.078125 z m 0,0"
           id="path3" />
      </g>
    </g>
    <g
       fill="#231f20"
       fill-opacity="1"
       id="g234"
       transform="matrix(0.35277777,0,0,0.35277777,8.7408993,116.08805)">
      <g
         id="use233"
         transform="translate(285.71451,119.022)">
        <path
           d="m 2.9375,-5.34375 -2.3125,4 c -0.65625,1.125 -0.734375,1.140625 -1.03125,1.21875 V 0 h 1.5 v -0.125 c -0.375,-0.03125 -0.484375,-0.078125 -0.484375,-0.28125 0,-0.171875 0.046875,-0.28125 0.171875,-0.5 L 1.234375,-1.8125 h 1.75 l 0.171875,1.046875 c 0.015625,0.125 0.015625,0.234375 0.015625,0.234375 0,0.328125 -0.21875,0.375 -0.625,0.40625 V 0 h 1.96875 V -0.125 C 4.046875,-0.171875 4,-0.25 3.90625,-0.8125 l -0.75,-4.53125 z m -1.53125,3.25 1.1875,-2.078125 0.359375,2.078125 z m 0,0"
           id="path4" />
      </g>
      <g
         id="use234"
         transform="translate(290.60251,119.022)">
        <path
           d="m 3.71875,-0.875 c -0.359375,0.34375 -0.53125,0.546875 -0.640625,0.546875 -0.0625,0 -0.125,-0.046875 -0.125,-0.109375 0,-0.25 0.75,-2.96875 0.765625,-3.0625 L 3.65625,-3.53125 3.171875,-3.46875 3.15625,-3.453125 3.078125,-3.09375 H 3.0625 c -0.03125,-0.21875 -0.296875,-0.4375 -0.640625,-0.4375 -1.0625,0 -2.28125,1.5 -2.28125,2.671875 0,0.234375 0.015625,0.953125 0.8125,0.953125 0.484375,0 0.90625,-0.25 1.578125,-1.21875 l 0.015625,0.015625 C 2.421875,-0.625 2.375,-0.453125 2.375,-0.265625 c 0,0.140625 0,0.34375 0.34375,0.34375 0.34375,0 0.609375,-0.28125 1.09375,-0.875 z m -2.90625,0 c 0,-0.71875 0.71875,-2.484375 1.65625,-2.484375 0.234375,0 0.453125,0.15625 0.453125,0.546875 0,0.78125 -0.78125,2.515625 -1.640625,2.515625 -0.203125,0 -0.46875,-0.15625 -0.46875,-0.578125 z m 0,0"
           id="path10" />
      </g>
    </g>
    <g
       fill="#231f20"
       fill-opacity="1"
       id="g236"
       transform="matrix(0.35277777,0,0,0.35277777,8.7408993,116.08805)">
      <g
         id="use235"
         transform="translate(339.46649,119.022)">
        <path
           d="m 3.71875,-0.875 c -0.359375,0.34375 -0.53125,0.546875 -0.640625,0.546875 -0.0625,0 -0.125,-0.046875 -0.125,-0.109375 0,-0.25 0.75,-2.96875 0.765625,-3.0625 L 3.65625,-3.53125 3.171875,-3.46875 3.15625,-3.453125 3.078125,-3.09375 H 3.0625 c -0.03125,-0.21875 -0.296875,-0.4375 -0.640625,-0.4375 -1.0625,0 -2.28125,1.5 -2.28125,2.671875 0,0.234375 0.015625,0.953125 0.8125,0.953125 0.484375,0 0.90625,-0.25 1.578125,-1.21875 l 0.015625,0.015625 C 2.421875,-0.625 2.375,-0.453125 2.375,-0.265625 c 0,0.140625 0,0.34375 0.34375,0.34375 0.34375,0 0.609375,-0.28125 1.09375,-0.875 z m -2.90625,0 c 0,-0.71875 0.71875,-2.484375 1.65625,-2.484375 0.234375,0 0.453125,0.15625 0.453125,0.546875 0,0.78125 -0.78125,2.515625 -1.640625,2.515625 -0.203125,0 -0.46875,-0.15625 -0.46875,-0.578125 z m 0,0"
           id="path11" />
      </g>
      <g
         id="use236"
         transform="translate(343.46649,119.022)">
        <path
           d="m 3.71875,-0.875 c -0.359375,0.34375 -0.53125,0.546875 -0.640625,0.546875 -0.0625,0 -0.125,-0.046875 -0.125,-0.109375 0,-0.25 0.75,-2.96875 0.765625,-3.0625 L 3.65625,-3.53125 3.171875,-3.46875 3.15625,-3.453125 3.078125,-3.09375 H 3.0625 c -0.03125,-0.21875 -0.296875,-0.4375 -0.640625,-0.4375 -1.0625,0 -2.28125,1.5 -2.28125,2.671875 0,0.234375 0.015625,0.953125 0.8125,0.953125 0.484375,0 0.90625,-0.25 1.578125,-1.21875 l 0.015625,0.015625 C 2.421875,-0.625 2.375,-0.453125 2.375,-0.265625 c 0,0.140625 0,0.34375 0.34375,0.34375 0.34375,0 0.609375,-0.28125 1.09375,-0.875 z m -2.90625,0 c 0,-0.71875 0.71875,-2.484375 1.65625,-2.484375 0.234375,0 0.453125,0.15625 0.453125,0.546875 0,0.78125 -0.78125,2.515625 -1.640625,2.515625 -0.203125,0 -0.46875,-0.15625 -0.46875,-0.578125 z m 0,0"
           id="path12" />
      </g>
    </g>
    <g
       fill="#231f20"
       fill-opacity="1"
       id="g238"
       transform="matrix(0.35277777,0,0,0.35277777,8.7408993,116.08805)">
      <g
         id="use237"
         transform="translate(198.88251,119.022)">
        <path
           d="m 2.9375,-5.34375 -2.3125,4 c -0.65625,1.125 -0.734375,1.140625 -1.03125,1.21875 V 0 h 1.5 v -0.125 c -0.375,-0.03125 -0.484375,-0.078125 -0.484375,-0.28125 0,-0.171875 0.046875,-0.28125 0.171875,-0.5 L 1.234375,-1.8125 h 1.75 l 0.171875,1.046875 c 0.015625,0.125 0.015625,0.234375 0.015625,0.234375 0,0.328125 -0.21875,0.375 -0.625,0.40625 V 0 h 1.96875 V -0.125 C 4.046875,-0.171875 4,-0.25 3.90625,-0.8125 l -0.75,-4.53125 z m -1.53125,3.25 1.1875,-2.078125 0.359375,2.078125 z m 0,0"
           id="path5" />
      </g>
      <g
         id="use238"
         transform="translate(203.77049,119.022)">
        <path
           d="m 2.9375,-5.34375 -2.3125,4 c -0.65625,1.125 -0.734375,1.140625 -1.03125,1.21875 V 0 h 1.5 v -0.125 c -0.375,-0.03125 -0.484375,-0.078125 -0.484375,-0.28125 0,-0.171875 0.046875,-0.28125 0.171875,-0.5 L 1.234375,-1.8125 h 1.75 l 0.171875,1.046875 c 0.015625,0.125 0.015625,0.234375 0.015625,0.234375 0,0.328125 -0.21875,0.375 -0.625,0.40625 V 0 h 1.96875 V -0.125 C 4.046875,-0.171875 4,-0.25 3.90625,-0.8125 l -0.75,-4.53125 z m -1.53125,3.25 1.1875,-2.078125 0.359375,2.078125 z m 0,0"
           id="path6" />
      </g>
    </g>
    <g
       fill="#231f20"
       fill-opacity="1"
       id="g240"
       transform="matrix(0.35277777,0,0,0.35277777,8.7408993,116.08805)">
      <g
         id="use239"
         transform="translate(244.0105,119.022)">
        <path
           d="m 3.71875,-0.875 c -0.359375,0.34375 -0.53125,0.546875 -0.640625,0.546875 -0.0625,0 -0.125,-0.046875 -0.125,-0.109375 0,-0.25 0.75,-2.96875 0.765625,-3.0625 L 3.65625,-3.53125 3.171875,-3.46875 3.15625,-3.453125 3.078125,-3.09375 H 3.0625 c -0.03125,-0.21875 -0.296875,-0.4375 -0.640625,-0.4375 -1.0625,0 -2.28125,1.5 -2.28125,2.671875 0,0.234375 0.015625,0.953125 0.8125,0.953125 0.484375,0 0.90625,-0.25 1.578125,-1.21875 l 0.015625,0.015625 C 2.421875,-0.625 2.375,-0.453125 2.375,-0.265625 c 0,0.140625 0,0.34375 0.34375,0.34375 0.34375,0 0.609375,-0.28125 1.09375,-0.875 z m -2.90625,0 c 0,-0.71875 0.71875,-2.484375 1.65625,-2.484375 0.234375,0 0.453125,0.15625 0.453125,0.546875 0,0.78125 -0.78125,2.515625 -1.640625,2.515625 -0.203125,0 -0.46875,-0.15625 -0.46875,-0.578125 z m 0,0"
           id="path13" />
      </g>
      <g
         id="use240"
         transform="translate(248.0105,119.022)">
        <path
           d="m 2.9375,-5.34375 -2.3125,4 c -0.65625,1.125 -0.734375,1.140625 -1.03125,1.21875 V 0 h 1.5 v -0.125 c -0.375,-0.03125 -0.484375,-0.078125 -0.484375,-0.28125 0,-0.171875 0.046875,-0.28125 0.171875,-0.5 L 1.234375,-1.8125 h 1.75 l 0.171875,1.046875 c 0.015625,0.125 0.015625,0.234375 0.015625,0.234375 0,0.328125 -0.21875,0.375 -0.625,0.40625 V 0 h 1.96875 V -0.125 C 4.046875,-0.171875 4,-0.25 3.90625,-0.8125 l -0.75,-4.53125 z m -1.53125,3.25 1.1875,-2.078125 0.359375,2.078125 z m 0,0"
           id="path7" />
      </g>
    </g>
  </g>
</svg>
