<?xml version="1.0" encoding="UTF-8" standalone="no"?>
<!-- Created with Inkscape (http://www.inkscape.org/) -->

<svg
   width="73.290657mm"
   height="47.902302mm"
   viewBox="0 0 73.290657 47.902302"
   version="1.1"
   id="svg1"
   inkscape:version="1.3.2 (091e20e, 2023-11-25)"
   sodipodi:docname="fig-3-26.svg"
   xmlns:inkscape="http://www.inkscape.org/namespaces/inkscape"
   xmlns:sodipodi="http://sodipodi.sourceforge.net/DTD/sodipodi-0.dtd"
   xmlns="http://www.w3.org/2000/svg"
   xmlns:svg="http://www.w3.org/2000/svg">
  <sodipodi:namedview
     id="namedview1"
     pagecolor="#ffffff"
     bordercolor="#000000"
     borderopacity="0.25"
     inkscape:showpageshadow="2"
     inkscape:pageopacity="0.0"
     inkscape:pagecheckerboard="0"
     inkscape:deskcolor="#d1d1d1"
     inkscape:document-units="mm"
     inkscape:zoom="0.2102413"
     inkscape:cx="140.31496"
     inkscape:cy="90.372348"
     inkscape:window-width="1312"
     inkscape:window-height="449"
     inkscape:window-x="0"
     inkscape:window-y="38"
     inkscape:window-maximized="0"
     inkscape:current-layer="layer1" />
  <defs
     id="defs1" />
  <g
     inkscape:label="Layer 1"
     inkscape:groupmode="layer"
     id="layer1"
     transform="translate(-68.319351,-124.58811)">
    <path
       fill="none"
       stroke-width="0.352778"
       stroke-linecap="butt"
       stroke-linejoin="miter"
       stroke="#a7a9ac"
       stroke-opacity="1"
       stroke-miterlimit="4"
       d="m 77.830221,131.06934 c 0,0 6.800618,18.90393 17.313672,27.47257 10.511677,8.56864 21.730277,8.2696 39.750887,8.2696"
       id="path446" />
    <path
       fill="none"
       stroke-width="0.176389"
       stroke-linecap="butt"
       stroke-linejoin="miter"
       stroke="#231f20"
       stroke-opacity="1"
       stroke-miterlimit="4"
       d="m 71.172918,168.28464 h 68.682802 m -64.449469,4.20577 v -46.11604"
       id="path447" />
    <path
       fill-rule="nonzero"
       fill="#231f20"
       fill-opacity="1"
       d="m 139.85572,168.28464 -0.38723,-0.63527 0.0221,-0.0152 1.03628,0.41203 c 0.36105,0.0799 0.72209,0.15848 1.08314,0.2384 -0.36105,0.0799 -0.72209,0.15848 -1.08314,0.2384 l -1.03628,0.41066 -0.0221,-0.01 0.38723,-0.63941"
       id="path448"
       style="stroke-width:0.352778" />
    <g
       fill="#231f20"
       fill-opacity="1"
       id="g448"
       transform="matrix(0.35277777,0,0,0.35277777,-1.9003113,101.24722)">
      <g
         id="use448"
         transform="translate(401.858,198.026)">
        <path
           d="m 3.21875,-0.890625 c -0.21875,0.25 -0.375,0.53125 -0.546875,0.53125 -0.15625,0 -0.21875,-0.1875 -0.25,-0.328125 -0.046875,-0.1875 -0.3125,-1.28125 -0.3125,-1.421875 0,0 0.53125,-0.96875 0.765625,-0.96875 0.1875,0 0.234375,0.140625 0.421875,0.140625 0.203125,0 0.28125,-0.15625 0.28125,-0.296875 0,-0.203125 -0.171875,-0.296875 -0.328125,-0.296875 -0.421875,0 -0.796875,0.484375 -1.203125,1.140625 l -0.09375,-0.4375 C 1.8125,-3.53125 1.6875,-3.53125 1.515625,-3.53125 c -0.265625,0 -0.78125,0.1875 -1,0.265625 l 0.03125,0.125 c 0.25,-0.0625 0.359375,-0.09375 0.4375,-0.09375 0.21875,0 0.25,0.109375 0.3125,0.359375 0.015625,0.046875 0.28125,1.109375 0.28125,1.171875 -0.71875,1.0625 -0.921875,1.328125 -1.0625,1.328125 -0.140625,0 -0.28125,-0.15625 -0.453125,-0.15625 -0.1875,0 -0.28125,0.140625 -0.28125,0.28125 0,0.1875 0.125,0.34375 0.390625,0.34375 0.25,0 0.34375,-0.09375 0.484375,-0.25 0.265625,-0.296875 0.609375,-0.71875 0.984375,-1.25 l 0.25,0.953125 c 0.09375,0.421875 0.21875,0.546875 0.453125,0.546875 0.1875,0 0.421875,0 0.984375,-0.921875 z m 0,0"
           id="path6" />
      </g>
    </g>
    <path
       fill-rule="nonzero"
       fill="#231f20"
       fill-opacity="1"
       d="m 75.406252,126.37299 -0.636654,0.38585 -0.01379,-0.0207 0.412034,-1.03628 c 0.07855,-0.36105 0.158475,-0.7221 0.2384,-1.08314 0.07855,0.36104 0.158475,0.72209 0.2384,1.08314 l 0.410655,1.03628 -0.01101,0.0207 -0.63803,-0.38585"
       id="path449"
       style="stroke-width:0.352778" />
    <g
       fill="#231f20"
       fill-opacity="1"
       id="g454"
       transform="matrix(0.35277777,0,0,0.35277777,-1.9003113,101.24722)">
      <g
         id="use449"
         transform="translate(199.00099,71.631897)">
        <path
           d="m 0.59375,1.046875 c 0,0.34375 -0.03125,0.515625 -0.546875,0.546875 V 1.734375 H 1.96875 V 1.59375 C 1.40625,1.59375 1.265625,1.5 1.265625,0.984375 v -1.25 c 0.265625,0.25 0.5,0.34375 0.8125,0.34375 1.109375,0 1.6875,-1.125 1.6875,-2.03125 0,-1.078125 -0.609375,-1.734375 -1.328125,-1.734375 -0.609375,0 -0.984375,0.40625 -1.15625,0.625 L 1.265625,-3.078125 V -3.65625 L 1.21875,-3.6875 c -0.375,0.15625 -0.765625,0.296875 -1.140625,0.421875 v 0.125 c 0.0625,-0.015625 0.140625,-0.015625 0.21875,-0.015625 0.28125,0 0.296875,0.140625 0.296875,0.453125 z m 0.671875,-3.71875 c 0.046875,-0.296875 0.5,-0.53125 0.796875,-0.53125 0.96875,0 1.015625,1.296875 1.015625,1.484375 0,1.390625 -0.71875,1.546875 -0.984375,1.546875 -0.453125,0 -0.828125,-0.34375 -0.828125,-0.53125 z m 0,0"
           id="path5" />
      </g>
      <g
         id="use450"
         transform="translate(203.00099,71.631897)">
        <path
           d="m 1,0.09375 c 0.171875,0 0.453125,-0.140625 0.453125,-0.4375 0,-0.25 -0.21875,-0.453125 -0.453125,-0.453125 -0.234375,0 -0.4375,0.203125 -0.4375,0.453125 0,0.296875 0.265625,0.4375 0.4375,0.4375 z m 0,0"
           id="path1" />
      </g>
      <g
         id="use451"
         transform="translate(205.00099,71.631897)">
        <path
           d="m 2.71875,-0.8125 c -0.0625,0.28125 -0.375,0.46875 -0.703125,0.46875 -0.53125,0 -1.109375,-0.4375 -1.109375,-1.625 0,-1.09375 0.546875,-1.484375 0.984375,-1.484375 0.375,0 0.765625,0.25 0.828125,0.796875 z m 1.203125,0.34375 c -0.53125,0.046875 -0.53125,-0.109375 -0.53125,-0.4375 V -5.453125 L 3.359375,-5.46875 c -0.390625,0.140625 -0.78125,0.25 -1.1875,0.359375 v 0.125 c 0.0625,0 0.140625,0 0.203125,0 0.34375,0 0.34375,0.15625 0.34375,0.40625 V -3.34375 C 2.453125,-3.5625 2.21875,-3.6875 1.875,-3.6875 c -0.90625,0 -1.65625,0.921875 -1.65625,1.96875 0,1.640625 1.140625,1.796875 1.453125,1.796875 0.59375,0 0.890625,-0.296875 1.03125,-0.515625 H 2.71875 v 0.5 L 2.75,0.078125 c 0.421875,-0.15625 0.796875,-0.28125 1.171875,-0.421875 z m 0,0"
           id="path32" />
      </g>
      <g
         id="use452"
         transform="translate(209.00099,71.631897)">
        <path
           d="m 1,0.09375 c 0.171875,0 0.453125,-0.140625 0.453125,-0.4375 0,-0.25 -0.21875,-0.453125 -0.453125,-0.453125 -0.234375,0 -0.4375,0.203125 -0.4375,0.453125 0,0.296875 0.265625,0.4375 0.4375,0.4375 z m 0,0"
           id="path3" />
      </g>
      <g
         id="use453"
         transform="translate(211.00099,71.631897)">
        <path
           d="M 2.46875,-3.59375 H 1.484375 v -0.9375 c 0,-0.296875 0.046875,-0.703125 0.484375,-0.703125 0.375,0 0.421875,0.59375 0.75,0.59375 0.15625,0 0.34375,-0.109375 0.34375,-0.328125 0,-0.28125 -0.34375,-0.5 -0.796875,-0.5 -1.4375,0 -1.4375,1.421875 -1.4375,1.875 h -0.65625 v 0.25 h 0.65625 v 2.515625 c 0,0.609375 -0.140625,0.6875 -0.671875,0.703125 V 0 H 2.234375 V -0.125 C 1.5,-0.140625 1.5,-0.34375 1.5,-0.828125 V -3.34375 h 0.96875 z m 0,0"
           id="path31" />
      </g>
      <g
         id="use454"
         transform="translate(213.66499,71.631897)">
        <path
           d="m 1,0.09375 c 0.171875,0 0.453125,-0.140625 0.453125,-0.4375 0,-0.25 -0.21875,-0.453125 -0.453125,-0.453125 -0.234375,0 -0.4375,0.203125 -0.4375,0.453125 0,0.296875 0.265625,0.4375 0.4375,0.4375 z m 0,0"
           id="path4" />
      </g>
    </g>
    <path
       fill="none"
       stroke-width="0.176389"
       stroke-linecap="butt"
       stroke-linejoin="miter"
       stroke="#231f20"
       stroke-opacity="1"
       stroke-miterlimit="4"
       d="m 89.084658,167.22631 v 2.11667 m 11.443232,-2.11667 v 2.11667 m 11.44185,-2.11667 v 2.11667 m 11.44323,-2.11667 v 2.11667 m 11.44323,-2.11667 v 2.11667 m -60.508282,-9.68899 h 2.116667"
       id="path454" />
    <path
       fill="none"
       stroke-width="0.352778"
       stroke-linecap="butt"
       stroke-linejoin="miter"
       stroke="#231f20"
       stroke-opacity="1"
       stroke-miterlimit="4"
       d="M 77.680015,159.65399 H 134.94715"
       id="path455" />
    <path
       fill="none"
       stroke-width="0.176389"
       stroke-linecap="butt"
       stroke-linejoin="miter"
       stroke="#231f20"
       stroke-opacity="1"
       stroke-miterlimit="4"
       d="m 74.347918,152.50611 h 2.116667 m -2.116667,-7.14788 h 2.116667 m -2.116667,-7.14651 h 2.116667 m -2.116667,-7.14788 h 2.116667"
       id="path456" />
    <path
       fill="none"
       stroke-width="0.352778"
       stroke-linecap="butt"
       stroke-linejoin="miter"
       stroke="#231f20"
       stroke-opacity="1"
       stroke-dasharray="4, 2"
       stroke-miterlimit="4"
       d="m 77.797148,166.74399 c 0,0 14.129025,1.16582 26.224062,-7.4731 12.34723,-8.81944 22.69491,-13.22365 30.69167,7.00319"
       id="path457" />
    <path
       fill="none"
       stroke-width="0.352778"
       stroke-linecap="round"
       stroke-linejoin="round"
       stroke="#231f20"
       stroke-opacity="1"
       stroke-dasharray="0, 6"
       stroke-miterlimit="4"
       d="m 134.94715,131.23057 c 0,0 -8.93658,22.225 -19.16713,28.69351 -10.23056,6.46713 -13.87547,6.81991 -38.45278,6.81991"
       id="path458" />
    <g
       fill="#231f20"
       fill-opacity="1"
       id="g460"
       transform="matrix(0.35277777,0,0,0.35277777,-1.9003113,101.24722)">
      <g
         id="use458"
         transform="translate(253.534,200.30791)">
        <path
           d="m 1.75,-4.546875 c 0.890625,0 0.90625,1.75 0.90625,2.234375 0,0.546875 -0.015625,2.234375 -0.90625,2.234375 -0.890625,0 -0.90625,-1.671875 -0.90625,-2.234375 0,-0.484375 0.015625,-2.234375 0.90625,-2.234375 z m 0,-0.1875 c -1.28125,0 -1.578125,1.59375 -1.578125,2.421875 0,0.84375 0.296875,2.40625 1.578125,2.40625 1.28125,0 1.578125,-1.5625 1.578125,-2.40625 0,-0.828125 -0.296875,-2.421875 -1.578125,-2.421875 z m 0,0"
           id="path25" />
      </g>
      <g
         id="use459"
         transform="translate(257.034,200.30791)">
        <path
           d="m 0.875,0.078125 c 0.140625,0 0.390625,-0.125 0.390625,-0.375 0,-0.21875 -0.1875,-0.40625 -0.390625,-0.40625 -0.203125,0 -0.390625,0.171875 -0.390625,0.40625 0,0.265625 0.25,0.375 0.390625,0.375 z m 0,0"
           id="path20" />
      </g>
      <g
         id="use460"
         transform="translate(258.784,200.30791)">
        <path
           d="M 3.328125,-0.953125 3.234375,-1 C 2.96875,-0.546875 2.828125,-0.53125 2.5625,-0.53125 H 0.890625 l 1.1875,-1.234375 C 2.375,-2.09375 2.96875,-2.734375 2.96875,-3.46875 c 0,-0.78125 -0.625,-1.265625 -1.265625,-1.265625 -0.625,0 -1.28125,0.34375 -1.484375,1.390625 l 0.140625,0.046875 c 0.15625,-0.390625 0.375,-0.921875 1,-0.921875 0.828125,0 1,0.65625 1,1 0,0.53125 -0.296875,1.15625 -0.90625,1.8125 l -1.25,1.328125 V 0 H 2.9375 Z m 0,0"
           id="path18" />
      </g>
    </g>
    <g
       fill="#231f20"
       fill-opacity="1"
       id="g463"
       transform="matrix(0.35277777,0,0,0.35277777,-1.9003113,101.24722)">
      <g
         id="use461"
         transform="translate(285.97198,200.30791)">
        <path
           d="m 1.75,-4.546875 c 0.890625,0 0.90625,1.75 0.90625,2.234375 0,0.546875 -0.015625,2.234375 -0.90625,2.234375 -0.890625,0 -0.90625,-1.671875 -0.90625,-2.234375 0,-0.484375 0.015625,-2.234375 0.90625,-2.234375 z m 0,-0.1875 c -1.28125,0 -1.578125,1.59375 -1.578125,2.421875 0,0.84375 0.296875,2.40625 1.578125,2.40625 1.28125,0 1.578125,-1.5625 1.578125,-2.40625 0,-0.828125 -0.296875,-2.421875 -1.578125,-2.421875 z m 0,0"
           id="path26" />
      </g>
      <g
         id="use462"
         transform="translate(289.47198,200.30791)">
        <path
           d="m 0.875,0.078125 c 0.140625,0 0.390625,-0.125 0.390625,-0.375 0,-0.21875 -0.1875,-0.40625 -0.390625,-0.40625 -0.203125,0 -0.390625,0.171875 -0.390625,0.40625 0,0.265625 0.25,0.375 0.390625,0.375 z m 0,0"
           id="path21" />
      </g>
      <g
         id="use463"
         transform="translate(291.22198,200.30791)">
        <path
           d="M 3.296875,-1.609375 H 2.59375 v -3.125 h -0.3125 l -2.203125,3.125 v 0.4375 h 1.96875 V 0 H 2.59375 v -1.171875 h 0.703125 z m -1.25,0 h -1.6875 L 2.03125,-4 h 0.015625 z m 0,0"
           id="path16" />
      </g>
    </g>
    <g
       fill="#231f20"
       fill-opacity="1"
       id="g466"
       transform="matrix(0.35277777,0,0,0.35277777,-1.9003113,101.24722)">
      <g
         id="use464"
         transform="translate(318.41,200.30791)">
        <path
           d="m 1.75,-4.546875 c 0.890625,0 0.90625,1.75 0.90625,2.234375 0,0.546875 -0.015625,2.234375 -0.90625,2.234375 -0.890625,0 -0.90625,-1.671875 -0.90625,-2.234375 0,-0.484375 0.015625,-2.234375 0.90625,-2.234375 z m 0,-0.1875 c -1.28125,0 -1.578125,1.59375 -1.578125,2.421875 0,0.84375 0.296875,2.40625 1.578125,2.40625 1.28125,0 1.578125,-1.5625 1.578125,-2.40625 0,-0.828125 -0.296875,-2.421875 -1.578125,-2.421875 z m 0,0"
           id="path27" />
      </g>
      <g
         id="use465"
         transform="translate(321.91,200.30791)">
        <path
           d="m 0.875,0.078125 c 0.140625,0 0.390625,-0.125 0.390625,-0.375 0,-0.21875 -0.1875,-0.40625 -0.390625,-0.40625 -0.203125,0 -0.390625,0.171875 -0.390625,0.40625 0,0.265625 0.25,0.375 0.390625,0.375 z m 0,0"
           id="path22" />
      </g>
      <g
         id="use466"
         transform="translate(323.66,200.30791)">
        <path
           d="m 3.125,-4.78125 c -1.703125,0.046875 -2.890625,1.328125 -2.890625,2.75 0,1.46875 0.71875,2.125 1.546875,2.125 1.25,0 1.5,-1.109375 1.5,-1.625 C 3.28125,-2.46875 2.734375,-3 1.984375,-3 1.59375,-3 1.453125,-2.90625 1.0625,-2.6875 1.203125,-3.53125 1.890625,-4.484375 3.140625,-4.671875 Z m -1.4375,2.109375 c 0.75,0 0.953125,0.703125 0.953125,1.421875 0,0.78125 -0.3125,1.15625 -0.75,1.15625 -0.53125,0 -1,-0.515625 -1,-1.703125 0,-0.421875 0.0625,-0.578125 0.140625,-0.65625 0.171875,-0.171875 0.421875,-0.21875 0.65625,-0.21875 z m 0,0"
           id="path15" />
      </g>
    </g>
    <g
       fill="#231f20"
       fill-opacity="1"
       id="g469"
       transform="matrix(0.35277777,0,0,0.35277777,-1.9003113,101.24722)">
      <g
         id="use467"
         transform="translate(350.84799,200.30791)">
        <path
           d="m 1.75,-4.546875 c 0.890625,0 0.90625,1.75 0.90625,2.234375 0,0.546875 -0.015625,2.234375 -0.90625,2.234375 -0.890625,0 -0.90625,-1.671875 -0.90625,-2.234375 0,-0.484375 0.015625,-2.234375 0.90625,-2.234375 z m 0,-0.1875 c -1.28125,0 -1.578125,1.59375 -1.578125,2.421875 0,0.84375 0.296875,2.40625 1.578125,2.40625 1.28125,0 1.578125,-1.5625 1.578125,-2.40625 0,-0.828125 -0.296875,-2.421875 -1.578125,-2.421875 z m 0,0"
           id="path28" />
      </g>
      <g
         id="use468"
         transform="translate(354.34799,200.30791)">
        <path
           d="m 0.875,0.078125 c 0.140625,0 0.390625,-0.125 0.390625,-0.375 0,-0.21875 -0.1875,-0.40625 -0.390625,-0.40625 -0.203125,0 -0.390625,0.171875 -0.390625,0.40625 0,0.265625 0.25,0.375 0.390625,0.375 z m 0,0"
           id="path23" />
      </g>
      <g
         id="use469"
         transform="translate(356.09799,200.30791)">
        <path
           d="m 1.484375,-2.1875 c 0.796875,0.578125 1.09375,0.78125 1.09375,1.3125 0,0.484375 -0.328125,0.78125 -0.765625,0.78125 -0.5625,0 -0.890625,-0.453125 -0.890625,-1 0,-0.640625 0.34375,-0.90625 0.5625,-1.09375 z m -1.09375,1.171875 c 0,0.546875 0.46875,1.109375 1.328125,1.109375 1.171875,0 1.390625,-0.78125 1.390625,-1.140625 0,-0.46875 -0.140625,-0.875 -1.078125,-1.546875 0.375,-0.203125 0.9375,-0.5 0.9375,-1.140625 0,-0.53125 -0.4375,-1 -1.21875,-1 -0.609375,0 -1.3125,0.375 -1.3125,1.09375 0,0.5625 0.28125,0.796875 0.859375,1.3125 -0.625,0.484375 -0.90625,0.703125 -0.90625,1.3125 z m 0.5625,-2.8125 c 0,-0.34375 0.21875,-0.703125 0.75,-0.703125 0.53125,0 0.78125,0.375 0.78125,0.765625 0,0.609375 -0.390625,0.875 -0.65625,1.046875 -0.25,-0.171875 -0.875,-0.5625 -0.875,-1.109375 z m 0,0"
           id="path14" />
      </g>
    </g>
    <g
       fill="#231f20"
       fill-opacity="1"
       id="g472"
       transform="matrix(0.35277777,0,0,0.35277777,-1.9003113,101.24722)">
      <g
         id="use470"
         transform="translate(383.28598,200.30791)">
        <path
           d="m 0.828125,0 h 1.9375 v -0.109375 c -0.53125,0 -0.671875,-0.078125 -0.671875,-0.40625 V -4.71875 l -0.0625,-0.015625 -1.25,0.640625 V -4 C 1.171875,-4.15625 1.171875,-4.15625 1.25,-4.15625 c 0.234375,0 0.234375,0.1875 0.234375,0.328125 v 3.171875 c 0,0.515625 -0.25,0.53125 -0.65625,0.546875 z m 0,0"
           id="path12" />
      </g>
      <g
         id="use471"
         transform="translate(386.78598,200.30791)">
        <path
           d="m 0.875,0.078125 c 0.140625,0 0.390625,-0.125 0.390625,-0.375 0,-0.21875 -0.1875,-0.40625 -0.390625,-0.40625 -0.203125,0 -0.390625,0.171875 -0.390625,0.40625 0,0.265625 0.25,0.375 0.390625,0.375 z m 0,0"
           id="path24" />
      </g>
      <g
         id="use472"
         transform="translate(388.53598,200.30791)">
        <path
           d="m 1.75,-4.546875 c 0.890625,0 0.90625,1.75 0.90625,2.234375 0,0.546875 -0.015625,2.234375 -0.90625,2.234375 -0.890625,0 -0.90625,-1.671875 -0.90625,-2.234375 0,-0.484375 0.015625,-2.234375 0.90625,-2.234375 z m 0,-0.1875 c -1.28125,0 -1.578125,1.59375 -1.578125,2.421875 0,0.84375 0.296875,2.40625 1.578125,2.40625 1.28125,0 1.578125,-1.5625 1.578125,-2.40625 0,-0.828125 -0.296875,-2.421875 -1.578125,-2.421875 z m 0,0"
           id="path29" />
      </g>
    </g>
    <g
       fill="#231f20"
       fill-opacity="1"
       id="g473"
       transform="matrix(0.35277777,0,0,0.35277777,-1.9003113,101.24722)">
      <g
         id="use473"
         transform="translate(211.42899,167.7999)">
        <path
           d="m 0.828125,0 h 1.9375 v -0.109375 c -0.53125,0 -0.671875,-0.078125 -0.671875,-0.40625 V -4.71875 l -0.0625,-0.015625 -1.25,0.640625 V -4 C 1.171875,-4.15625 1.171875,-4.15625 1.25,-4.15625 c 0.234375,0 0.234375,0.1875 0.234375,0.328125 v 3.171875 c 0,0.515625 -0.25,0.53125 -0.65625,0.546875 z m 0,0"
           id="path13" />
      </g>
    </g>
    <g
       fill="#231f20"
       fill-opacity="1"
       id="g474"
       transform="matrix(0.35277777,0,0,0.35277777,-1.9003113,101.24722)">
      <g
         id="use474"
         transform="translate(213.04599,197.51489)">
        <path
           d="m 1.75,-4.546875 c 0.890625,0 0.90625,1.75 0.90625,2.234375 0,0.546875 -0.015625,2.234375 -0.90625,2.234375 -0.890625,0 -0.90625,-1.671875 -0.90625,-2.234375 0,-0.484375 0.015625,-2.234375 0.90625,-2.234375 z m 0,-0.1875 c -1.28125,0 -1.578125,1.59375 -1.578125,2.421875 0,0.84375 0.296875,2.40625 1.578125,2.40625 1.28125,0 1.578125,-1.5625 1.578125,-2.40625 0,-0.828125 -0.296875,-2.421875 -1.578125,-2.421875 z m 0,0"
           id="path30" />
      </g>
    </g>
    <g
       fill="#231f20"
       fill-opacity="1"
       id="g475"
       transform="matrix(0.35277777,0,0,0.35277777,-1.9003113,101.24722)">
      <g
         id="use475"
         transform="translate(211.42899,147.5349)">
        <path
           d="M 3.328125,-0.953125 3.234375,-1 C 2.96875,-0.546875 2.828125,-0.53125 2.5625,-0.53125 H 0.890625 l 1.1875,-1.234375 C 2.375,-2.09375 2.96875,-2.734375 2.96875,-3.46875 c 0,-0.78125 -0.625,-1.265625 -1.265625,-1.265625 -0.625,0 -1.28125,0.34375 -1.484375,1.390625 l 0.140625,0.046875 c 0.15625,-0.390625 0.375,-0.921875 1,-0.921875 0.828125,0 1,0.65625 1,1 0,0.53125 -0.296875,1.15625 -0.90625,1.8125 l -1.25,1.328125 V 0 H 2.9375 Z m 0,0"
           id="path19" />
      </g>
    </g>
    <g
       fill="#231f20"
       fill-opacity="1"
       id="g476"
       transform="matrix(0.35277777,0,0,0.35277777,-1.9003113,101.24722)">
      <g
         id="use476"
         transform="translate(211.42899,127.2699)">
        <path
           d="m 1.078125,-2.3125 c 0.46875,-0.015625 0.65625,0.03125 0.90625,0.15625 0.4375,0.234375 0.53125,0.75 0.53125,0.921875 0,0.53125 -0.296875,1.078125 -0.9375,1.078125 -0.421875,0 -0.6875,-0.390625 -1,-0.390625 -0.109375,0 -0.28125,0.046875 -0.28125,0.25 0,0.359375 0.609375,0.390625 0.78125,0.390625 1.09375,0 1.9375,-0.609375 1.9375,-1.609375 0,-0.921875 -0.59375,-1.171875 -0.890625,-1.296875 0.46875,-0.296875 0.65625,-0.59375 0.65625,-0.96875 0,-0.296875 -0.1875,-0.953125 -1.09375,-0.953125 -0.46875,0 -1.09375,0.21875 -1.375,1.140625 l 0.109375,0.03125 c 0.109375,-0.203125 0.390625,-0.75 1.03125,-0.75 0.515625,0 0.765625,0.375 0.765625,0.734375 0,0.640625 -0.515625,0.96875 -1.15625,1.171875 z m 0,0"
           id="path11" />
      </g>
    </g>
    <g
       fill="#231f20"
       fill-opacity="1"
       id="g477"
       transform="matrix(0.35277777,0,0,0.35277777,-1.9003113,101.24722)">
      <g
         id="use477"
         transform="translate(211.42899,107.0119)">
        <path
           d="M 3.296875,-1.609375 H 2.59375 v -3.125 h -0.3125 l -2.203125,3.125 v 0.4375 h 1.96875 V 0 H 2.59375 v -1.171875 h 0.703125 z m -1.25,0 h -1.6875 L 2.03125,-4 h 0.015625 z m 0,0"
           id="path17" />
      </g>
    </g>
    <g
       fill="#231f20"
       fill-opacity="1"
       id="g478"
       transform="matrix(0.35277777,0,0,0.35277777,-1.9003113,101.24722)">
      <g
         id="use478"
         transform="translate(211.42899,86.746902)">
        <path
           d="m 1.265625,-4.078125 h 1.375 c 0.078125,0 0.140625,0 0.15625,-0.0625 L 3.0625,-4.765625 3,-4.8125 C 2.921875,-4.71875 2.859375,-4.640625 2.6875,-4.640625 H 1.21875 L 0.453125,-2.96875 c -0.015625,0.046875 0,0.078125 0.046875,0.078125 0.75,0.03125 1.984375,0.359375 1.984375,1.484375 0,0.859375 -0.515625,1.25 -0.96875,1.25 -0.375,0 -0.5625,-0.4375 -1.015625,-0.4375 -0.28125,0 -0.28125,0.203125 -0.28125,0.265625 0,0.265625 0.328125,0.421875 0.890625,0.421875 1.109375,0 1.875,-0.734375 1.875,-1.671875 0,-0.625 -0.078125,-0.828125 -0.375,-1.1875 -0.421875,-0.5 -1.078125,-0.625 -1.640625,-0.71875 z m 0,0"
           id="path80" />
      </g>
    </g>
    <g
       fill="#231f20"
       fill-opacity="1"
       id="g493"
       transform="matrix(0.35277777,0,0,0.35277777,-1.9003113,101.24722)">
      <g
         id="use479"
         transform="translate(285.92999,89.905998)">
        <path
           d="m 2.6875,-4.0625 h -0.125 c -0.015625,0.078125 -0.046875,0.203125 -0.21875,0.203125 -0.140625,0 -0.46875,-0.203125 -0.828125,-0.203125 -0.546875,0 -1.09375,0.34375 -1.09375,1.03125 0,0.59375 0.390625,0.859375 0.9375,1.171875 0.890625,0.515625 0.984375,0.71875 0.984375,1.0625 0,0.328125 -0.25,0.671875 -0.71875,0.671875 -0.8125,0 -1.125,-0.78125 -1.234375,-1.0625 H 0.25 l 0.1875,1.265625 h 0.125 C 0.5625,-0.015625 0.625,-0.125 0.75,-0.125 c 0.1875,0 0.46875,0.203125 0.9375,0.203125 0.84375,0 1.265625,-0.5625 1.265625,-1.078125 0,-1.234375 -2.015625,-1.359375 -2.015625,-2.25 0,-0.375 0.3125,-0.5625 0.609375,-0.5625 0.625,0 1.015625,0.546875 1.109375,1.03125 H 2.8125 Z m 0,0"
           id="path79" />
      </g>
      <g
         id="use480"
         transform="translate(289.26599,89.905998)">
        <path
           d="m 0.09375,0 h 1.421875 v -0.09375 c -0.40625,-0.015625 -0.4375,-0.125 -0.4375,-0.515625 v -2.125 l -0.03125,-0.03125 C 0.734375,-2.640625 0.4375,-2.53125 0.125,-2.4375 v 0.09375 c 0.078125,-0.015625 0.15625,-0.015625 0.234375,-0.015625 0.09375,0 0.203125,0 0.203125,0.359375 v 1.390625 c 0,0.46875 -0.09375,0.5 -0.46875,0.515625 z m 0.375,-3.796875 c 0,0.125 0.078125,0.3125 0.296875,0.3125 0.1875,0 0.3125,-0.140625 0.3125,-0.3125 0,-0.15625 -0.125,-0.296875 -0.3125,-0.296875 -0.203125,0 -0.296875,0.1875 -0.296875,0.296875 z m 0,0"
           id="path74" />
      </g>
      <g
         id="use481"
         transform="translate(290.93399,89.905998)">
        <path
           d="m 0.484375,-0.546875 c 0,0.359375 -0.09375,0.4375 -0.375,0.453125 V 0 H 1.375 V -0.09375 C 1.0625,-0.109375 0.984375,-0.203125 0.984375,-0.40625 v -1.6875 c 0.234375,-0.21875 0.40625,-0.34375 0.59375,-0.34375 0.359375,0 0.46875,0.21875 0.46875,0.59375 v 1.25 c 0,0.453125 -0.15625,0.484375 -0.390625,0.5 V 0 h 1.25 V -0.09375 C 2.609375,-0.109375 2.546875,-0.203125 2.546875,-0.484375 v -1.375 c 0,-0.734375 -0.421875,-0.90625 -0.703125,-0.90625 -0.359375,0 -0.578125,0.21875 -0.875,0.484375 V -2.75 L 0.921875,-2.765625 c -0.28125,0.109375 -0.5625,0.203125 -0.828125,0.28125 v 0.09375 C 0.125,-2.40625 0.1875,-2.40625 0.265625,-2.40625 c 0.09375,0 0.21875,0 0.21875,0.375 z m 0,0"
           id="path33" />
      </g>
      <g
         id="use482"
         transform="translate(293.93399,89.905998)">
        <path
           d="m 0.59375,0.546875 c 0,-0.1875 0.109375,-0.3125 0.28125,-0.53125 0.28125,0.0625 0.421875,0.0625 0.984375,0.078125 0.4375,0.015625 0.734375,0.015625 0.734375,0.296875 0,0.3125 -0.40625,0.578125 -1.109375,0.578125 -0.6875,0 -0.890625,-0.25 -0.890625,-0.421875 z m 0.3125,-2.59375 c 0,-0.40625 0.234375,-0.546875 0.453125,-0.546875 0.515625,0 0.609375,0.8125 0.609375,0.96875 0,0.140625 -0.03125,0.578125 -0.4375,0.578125 -0.46875,0 -0.625,-0.53125 -0.625,-1 z M 2.8125,-2.328125 V -2.5625 H 2.359375 c -0.09375,0 -0.203125,-0.015625 -0.328125,-0.0625 -0.25,-0.09375 -0.375,-0.140625 -0.578125,-0.140625 -0.46875,0 -1.046875,0.296875 -1.046875,1 0,0.359375 0.21875,0.625 0.5625,0.78125 C 0.4375,-0.5 0.4375,-0.421875 0.4375,-0.328125 0.4375,-0.15625 0.59375,-0.078125 0.75,0 0.453125,0.203125 0.171875,0.453125 0.171875,0.71875 c 0,0.328125 0.453125,0.59375 1.0625,0.59375 0.53125,0 1.53125,-0.34375 1.53125,-1.015625 C 2.765625,0.125 2.6875,-0.3125 2.046875,-0.34375 l -0.78125,-0.046875 c -0.171875,0 -0.46875,-0.015625 -0.46875,-0.15625 0,-0.125 0.234375,-0.359375 0.359375,-0.375 0.03125,0 0.25,0.03125 0.328125,0.03125 0.328125,0 0.953125,-0.234375 0.953125,-0.890625 0,-0.296875 -0.0625,-0.40625 -0.109375,-0.546875 z m 0,0"
           id="path9" />
      </g>
      <g
         id="use483"
         transform="translate(296.93399,89.905998)">
        <path
           d="M 0.125,0 H 1.546875 V -0.09375 C 1.1875,-0.109375 1.09375,-0.15625 1.09375,-0.5 V -4.09375 H 1.0625 C 0.75,-4 0.4375,-3.90625 0.109375,-3.828125 v 0.09375 C 0.1875,-3.75 0.234375,-3.75 0.3125,-3.75 c 0.234375,0 0.28125,0.09375 0.28125,0.359375 v 2.875 c 0,0.328125 -0.109375,0.40625 -0.46875,0.421875 z m 0,0"
           id="path72" />
      </g>
      <g
         id="use484"
         transform="translate(298.60199,89.905998)">
        <path
           d="m 2.453125,-0.984375 c -0.140625,0.21875 -0.40625,0.625 -0.9375,0.625 -0.390625,0 -0.875,-0.234375 -0.953125,-1.296875 h 1.875 c -0.078125,-0.796875 -0.5,-1.109375 -1.0625,-1.109375 -0.484375,0 -1.21875,0.375 -1.21875,1.484375 0,0.84375 0.453125,1.34375 1.109375,1.34375 0.875,0 1.21875,-0.8125 1.28125,-1 z m -1.875,-0.875 c 0.09375,-0.515625 0.328125,-0.6875 0.65625,-0.6875 0.484375,0 0.546875,0.40625 0.578125,0.6875 z m 0,0"
           id="path66" />
      </g>
      <g
         id="use485"
         transform="translate(301.26599,89.905998)" />
      <g
         id="use486"
         transform="translate(302.76599,89.905998)">
        <path
           d="m 0.453125,-0.5 c 0,0.328125 -0.09375,0.34375 -0.421875,0.40625 V 0 h 1.4375 V -0.09375 C 1.15625,-0.109375 0.953125,-0.125 0.953125,-0.546875 v -1.34375 c 0,-0.1875 0.265625,-0.484375 0.421875,-0.484375 0.140625,0 0.203125,0.203125 0.40625,0.203125 0.140625,0 0.234375,-0.109375 0.234375,-0.265625 0,-0.203125 -0.125,-0.328125 -0.328125,-0.328125 -0.234375,0 -0.4375,0.125 -0.71875,0.546875 H 0.953125 V -2.75 L 0.9375,-2.765625 c -0.296875,0.125 -0.59375,0.234375 -0.890625,0.328125 v 0.09375 C 0.09375,-2.359375 0.15625,-2.359375 0.25,-2.359375 c 0.09375,0 0.203125,0 0.203125,0.359375 z m 0,0"
           id="path60" />
      </g>
      <g
         id="use487"
         transform="translate(304.76398,89.905998)">
        <path
           d="m 1.71875,-0.734375 c 0,0.171875 -0.015625,0.25 -0.203125,0.34375 C 1.46875,-0.359375 1.28125,-0.28125 1.140625,-0.28125 0.921875,-0.28125 0.75,-0.46875 0.75,-0.75 v -0.015625 c 0,-0.203125 0.0625,-0.546875 0.96875,-0.84375 z m 0.9375,0.34375 C 2.59375,-0.34375 2.515625,-0.28125 2.375,-0.28125 c -0.171875,0 -0.171875,-0.171875 -0.171875,-0.34375 v -1.171875 c 0,-0.359375 0,-0.96875 -0.890625,-0.96875 -0.6875,0 -0.96875,0.4375 -0.96875,0.671875 0,0.09375 0.0625,0.265625 0.25,0.265625 0.15625,0 0.265625,-0.140625 0.265625,-0.265625 0,-0.046875 -0.03125,-0.140625 -0.03125,-0.234375 0,-0.1875 0.234375,-0.28125 0.4375,-0.28125 0.171875,0 0.453125,0.0625 0.453125,0.484375 v 0.375 c -0.96875,0.375 -1.5,0.59375 -1.5,1.1875 0,0.40625 0.3125,0.625 0.640625,0.625 0.328125,0 0.640625,-0.25 0.875,-0.4375 0.03125,0.421875 0.28125,0.4375 0.390625,0.4375 0.09375,0 0.28125,-0.015625 0.53125,-0.296875 z m 0,0"
           id="path55" />
      </g>
      <g
         id="use488"
         transform="translate(307.42798,89.905998)">
        <path
           d="m 0.484375,-0.546875 c 0,0.359375 -0.09375,0.4375 -0.375,0.453125 V 0 H 1.375 V -0.09375 C 1.0625,-0.109375 0.984375,-0.203125 0.984375,-0.40625 v -1.6875 c 0.234375,-0.21875 0.40625,-0.34375 0.59375,-0.34375 0.359375,0 0.46875,0.21875 0.46875,0.59375 v 1.25 c 0,0.453125 -0.15625,0.484375 -0.390625,0.5 V 0 h 1.25 V -0.09375 C 2.609375,-0.109375 2.546875,-0.203125 2.546875,-0.484375 v -1.375 c 0,-0.734375 -0.421875,-0.90625 -0.703125,-0.90625 -0.359375,0 -0.578125,0.21875 -0.875,0.484375 V -2.75 L 0.921875,-2.765625 c -0.28125,0.109375 -0.5625,0.203125 -0.828125,0.28125 v 0.09375 C 0.125,-2.40625 0.1875,-2.40625 0.265625,-2.40625 c 0.09375,0 0.21875,0 0.21875,0.375 z m 0,0"
           id="path34" />
      </g>
      <g
         id="use489"
         transform="translate(310.42798,89.905998)">
        <path
           d="M 2.046875,-0.609375 C 1.984375,-0.390625 1.765625,-0.25 1.5,-0.25 c -0.390625,0 -0.828125,-0.34375 -0.828125,-1.234375 0,-0.8125 0.421875,-1.109375 0.75,-1.109375 0.28125,0 0.578125,0.1875 0.625,0.609375 z m 0.90625,0.265625 C 2.546875,-0.3125 2.546875,-0.4375 2.546875,-0.6875 V -4.09375 H 2.515625 C 2.21875,-4 1.9375,-3.90625 1.625,-3.828125 v 0.09375 C 1.6875,-3.75 1.734375,-3.75 1.78125,-3.75 c 0.265625,0 0.265625,0.125 0.265625,0.3125 V -2.5 C 1.84375,-2.671875 1.65625,-2.765625 1.40625,-2.765625 c -0.671875,0 -1.25,0.703125 -1.25,1.484375 0,1.21875 0.859375,1.34375 1.09375,1.34375 0.453125,0 0.671875,-0.21875 0.78125,-0.390625 h 0.015625 v 0.375 L 2.0625,0.0625 C 2.375,-0.046875 2.65625,-0.15625 2.953125,-0.25 Z m 0,0"
           id="path54" />
      </g>
      <g
         id="use490"
         transform="translate(313.42798,89.905998)">
        <path
           d="m 1.46875,-2.765625 c -0.796875,0 -1.296875,0.65625 -1.296875,1.390625 0,0.8125 0.546875,1.4375 1.3125,1.4375 0.921875,0 1.328125,-0.84375 1.328125,-1.4375 0,-0.859375 -0.5625,-1.390625 -1.34375,-1.390625 z m 0.109375,2.65625 c -0.71875,0 -0.859375,-1.109375 -0.859375,-1.546875 0,-0.625 0.328125,-0.9375 0.703125,-0.9375 0.546875,0 0.859375,0.65625 0.859375,1.40625 0,0.84375 -0.40625,1.078125 -0.703125,1.078125 z m 0,0"
           id="path62" />
      </g>
      <g
         id="use491"
         transform="translate(316.42798,89.905998)">
        <path
           d="m 0.515625,-0.515625 c 0,0.40625 -0.171875,0.421875 -0.421875,0.421875 V 0 h 1.328125 v -0.09375 c -0.203125,0 -0.40625,-0.015625 -0.40625,-0.3125 v -1.6875 c 0,-0.03125 0.28125,-0.359375 0.6875,-0.359375 0.3125,0 0.421875,0.234375 0.421875,0.640625 v 1.296875 c 0,0.390625 -0.140625,0.40625 -0.40625,0.421875 V 0 H 3.0625 v -0.09375 c -0.25,0 -0.4375,-0.015625 -0.4375,-0.46875 v -1.515625 c 0.140625,-0.203125 0.34375,-0.375 0.671875,-0.375 0.421875,0 0.4375,0.359375 0.4375,0.671875 v 1.265625 c 0,0.375 -0.09375,0.390625 -0.390625,0.421875 V 0 h 1.3125 V -0.09375 L 4.5,-0.109375 C 4.234375,-0.140625 4.234375,-0.328125 4.234375,-0.453125 V -1.6875 c 0,-0.453125 -0.078125,-1.078125 -0.703125,-1.078125 C 3.046875,-2.765625 2.6875,-2.40625 2.5625,-2.25 2.5,-2.515625 2.3125,-2.765625 1.921875,-2.765625 1.59375,-2.765625 1.34375,-2.5625 1,-2.296875 V -2.75 L 0.953125,-2.765625 c -0.28125,0.109375 -0.5625,0.203125 -0.84375,0.28125 v 0.09375 C 0.15625,-2.40625 0.21875,-2.40625 0.3125,-2.40625 c 0.09375,0 0.203125,0 0.203125,0.375 z m 0,0"
           id="path49" />
      </g>
      <g
         id="use492"
         transform="translate(321.09598,89.905998)" />
      <g
         id="use493"
         transform="translate(322.59598,89.905998)">
        <path
           d="M 2.859375,-2.703125 H 2.03125 v 0.09375 c 0.140625,0 0.28125,0.0625 0.28125,0.203125 0,0.203125 -0.421875,1.140625 -0.625,1.71875 L 1.0625,-2.21875 C 1.046875,-2.265625 1.015625,-2.359375 1.015625,-2.4375 c 0,-0.140625 0.125,-0.15625 0.28125,-0.171875 v -0.09375 h -1.1875 v 0.09375 c 0.125,0 0.25,0.046875 0.328125,0.21875 0.21875,0.421875 0.796875,1.828125 0.9375,2.1875 0.09375,0.265625 0.109375,0.28125 0.171875,0.28125 0.03125,0 0.09375,-0.125 0.15625,-0.296875 L 2.46875,-2.140625 C 2.609375,-2.5 2.65625,-2.59375 2.859375,-2.609375 Z m 0,0"
           id="path45" />
      </g>
    </g>
    <g
       fill="#231f20"
       fill-opacity="1"
       id="g500"
       transform="matrix(0.35277777,0,0,0.35277777,-1.9003113,101.24722)">
      <g
         id="use494"
         transform="translate(325.44598,89.905998)">
        <path
           d="m 1.71875,-0.734375 c 0,0.171875 -0.015625,0.25 -0.203125,0.34375 C 1.46875,-0.359375 1.28125,-0.28125 1.140625,-0.28125 0.921875,-0.28125 0.75,-0.46875 0.75,-0.75 v -0.015625 c 0,-0.203125 0.0625,-0.546875 0.96875,-0.84375 z m 0.9375,0.34375 C 2.59375,-0.34375 2.515625,-0.28125 2.375,-0.28125 c -0.171875,0 -0.171875,-0.171875 -0.171875,-0.34375 v -1.171875 c 0,-0.359375 0,-0.96875 -0.890625,-0.96875 -0.6875,0 -0.96875,0.4375 -0.96875,0.671875 0,0.09375 0.0625,0.265625 0.25,0.265625 0.15625,0 0.265625,-0.140625 0.265625,-0.265625 0,-0.046875 -0.03125,-0.140625 -0.03125,-0.234375 0,-0.1875 0.234375,-0.28125 0.4375,-0.28125 0.171875,0 0.453125,0.0625 0.453125,0.484375 v 0.375 c -0.96875,0.375 -1.5,0.59375 -1.5,1.1875 0,0.40625 0.3125,0.625 0.640625,0.625 0.328125,0 0.640625,-0.25 0.875,-0.4375 0.03125,0.421875 0.28125,0.4375 0.390625,0.4375 0.09375,0 0.28125,-0.015625 0.53125,-0.296875 z m 0,0"
           id="path56" />
      </g>
      <g
         id="use495"
         transform="translate(328.10999,89.905998)">
        <path
           d="m 0.453125,-0.5 c 0,0.328125 -0.09375,0.34375 -0.421875,0.40625 V 0 h 1.4375 V -0.09375 C 1.15625,-0.109375 0.953125,-0.125 0.953125,-0.546875 v -1.34375 c 0,-0.1875 0.265625,-0.484375 0.421875,-0.484375 0.140625,0 0.203125,0.203125 0.40625,0.203125 0.140625,0 0.234375,-0.109375 0.234375,-0.265625 0,-0.203125 -0.125,-0.328125 -0.328125,-0.328125 -0.234375,0 -0.4375,0.125 -0.71875,0.546875 H 0.953125 V -2.75 L 0.9375,-2.765625 c -0.296875,0.125 -0.59375,0.234375 -0.890625,0.328125 v 0.09375 C 0.09375,-2.359375 0.15625,-2.359375 0.25,-2.359375 c 0.09375,0 0.203125,0 0.203125,0.359375 z m 0,0"
           id="path61" />
      </g>
      <g
         id="use496"
         transform="translate(330.108,89.905998)">
        <path
           d="m 0.09375,0 h 1.421875 v -0.09375 c -0.40625,-0.015625 -0.4375,-0.125 -0.4375,-0.515625 v -2.125 l -0.03125,-0.03125 C 0.734375,-2.640625 0.4375,-2.53125 0.125,-2.4375 v 0.09375 c 0.078125,-0.015625 0.15625,-0.015625 0.234375,-0.015625 0.09375,0 0.203125,0 0.203125,0.359375 v 1.390625 c 0,0.46875 -0.09375,0.5 -0.46875,0.515625 z m 0.375,-3.796875 c 0,0.125 0.078125,0.3125 0.296875,0.3125 0.1875,0 0.3125,-0.140625 0.3125,-0.3125 0,-0.15625 -0.125,-0.296875 -0.3125,-0.296875 -0.203125,0 -0.296875,0.1875 -0.296875,0.296875 z m 0,0"
           id="path75" />
      </g>
      <g
         id="use497"
         transform="translate(331.776,89.905998)">
        <path
           d="m 1.71875,-0.734375 c 0,0.171875 -0.015625,0.25 -0.203125,0.34375 C 1.46875,-0.359375 1.28125,-0.28125 1.140625,-0.28125 0.921875,-0.28125 0.75,-0.46875 0.75,-0.75 v -0.015625 c 0,-0.203125 0.0625,-0.546875 0.96875,-0.84375 z m 0.9375,0.34375 C 2.59375,-0.34375 2.515625,-0.28125 2.375,-0.28125 c -0.171875,0 -0.171875,-0.171875 -0.171875,-0.34375 v -1.171875 c 0,-0.359375 0,-0.96875 -0.890625,-0.96875 -0.6875,0 -0.96875,0.4375 -0.96875,0.671875 0,0.09375 0.0625,0.265625 0.25,0.265625 0.15625,0 0.265625,-0.140625 0.265625,-0.265625 0,-0.046875 -0.03125,-0.140625 -0.03125,-0.234375 0,-0.1875 0.234375,-0.28125 0.4375,-0.28125 0.171875,0 0.453125,0.0625 0.453125,0.484375 v 0.375 c -0.96875,0.375 -1.5,0.59375 -1.5,1.1875 0,0.40625 0.3125,0.625 0.640625,0.625 0.328125,0 0.640625,-0.25 0.875,-0.4375 0.03125,0.421875 0.28125,0.4375 0.390625,0.4375 0.09375,0 0.28125,-0.015625 0.53125,-0.296875 z m 0,0"
           id="path57" />
      </g>
      <g
         id="use498"
         transform="translate(334.44,89.905998)">
        <path
           d="M 0.921875,-1.9375 C 0.9375,-2.28125 1.328125,-2.375 1.515625,-2.375 2.0625,-2.375 2.28125,-1.765625 2.28125,-1.203125 2.28125,-0.8125 2.1875,-0.125 1.5,-0.125 1.34375,-0.125 0.921875,-0.203125 0.921875,-0.421875 Z M 0.40625,-0.328125 c 0,0.21875 0.640625,0.390625 0.9375,0.390625 1.109375,0 1.46875,-0.953125 1.46875,-1.484375 0,-0.640625 -0.34375,-1.34375 -1.078125,-1.34375 -0.453125,0 -0.765625,0.359375 -0.796875,0.484375 H 0.921875 v -1.8125 H 0.890625 C 0.59375,-4 0.3125,-3.90625 0.015625,-3.828125 v 0.09375 C 0.046875,-3.75 0.109375,-3.75 0.15625,-3.75 c 0.25,0 0.25,0.125 0.25,0.3125 z m 0,0"
           id="path37" />
      </g>
      <g
         id="use499"
         transform="translate(337.44,89.905998)">
        <path
           d="M 0.125,0 H 1.546875 V -0.09375 C 1.1875,-0.109375 1.09375,-0.15625 1.09375,-0.5 V -4.09375 H 1.0625 C 0.75,-4 0.4375,-3.90625 0.109375,-3.828125 v 0.09375 C 0.1875,-3.75 0.234375,-3.75 0.3125,-3.75 c 0.234375,0 0.28125,0.09375 0.28125,0.359375 v 2.875 c 0,0.328125 -0.109375,0.40625 -0.46875,0.421875 z m 0,0"
           id="path73" />
      </g>
      <g
         id="use500"
         transform="translate(339.108,89.905998)">
        <path
           d="m 2.453125,-0.984375 c -0.140625,0.21875 -0.40625,0.625 -0.9375,0.625 -0.390625,0 -0.875,-0.234375 -0.953125,-1.296875 h 1.875 c -0.078125,-0.796875 -0.5,-1.109375 -1.0625,-1.109375 -0.484375,0 -1.21875,0.375 -1.21875,1.484375 0,0.84375 0.453125,1.34375 1.109375,1.34375 0.875,0 1.21875,-0.8125 1.28125,-1 z m -1.875,-0.875 c 0.09375,-0.515625 0.328125,-0.6875 0.65625,-0.6875 0.484375,0 0.546875,0.40625 0.578125,0.6875 z m 0,0"
           id="path67" />
      </g>
    </g>
    <g
       fill="#231f20"
       fill-opacity="1"
       id="g512"
       transform="matrix(0.35277777,0,0,0.35277777,-1.9003113,101.24722)">
      <g
         id="use501"
         transform="translate(285.92999,96.907997)">
        <path
           d="m 5.171875,-3.96875 h -1.1875 L 2.65625,-0.9375 1.265625,-3.96875 h -1.1875 v 0.109375 C 0.53125,-3.828125 0.65625,-3.78125 0.65625,-3.3125 v 2.4375 c 0,0.640625 -0.125,0.734375 -0.578125,0.765625 V 0 h 1.40625 V -0.109375 C 1.046875,-0.125 0.921875,-0.265625 0.921875,-0.875 V -3.28125 H 0.9375 L 2.421875,0 h 0.09375 L 4.03125,-3.40625 h 0.015625 v 2.6875 c 0,0.484375 -0.078125,0.578125 -0.546875,0.609375 V 0 H 5.171875 V -0.109375 C 4.796875,-0.140625 4.65625,-0.1875 4.65625,-0.65625 V -3.3125 c 0,-0.484375 0.140625,-0.515625 0.515625,-0.546875 z m 0,0"
           id="path38" />
      </g>
      <g
         id="use502"
         transform="translate(291.26398,96.907997)">
        <path
           d="m 0.09375,0 h 1.421875 v -0.09375 c -0.40625,-0.015625 -0.4375,-0.125 -0.4375,-0.515625 v -2.125 l -0.03125,-0.03125 C 0.734375,-2.640625 0.4375,-2.53125 0.125,-2.4375 v 0.09375 c 0.078125,-0.015625 0.15625,-0.015625 0.234375,-0.015625 0.09375,0 0.203125,0 0.203125,0.359375 v 1.390625 c 0,0.46875 -0.09375,0.5 -0.46875,0.515625 z m 0.375,-3.796875 c 0,0.125 0.078125,0.3125 0.296875,0.3125 0.1875,0 0.3125,-0.140625 0.3125,-0.3125 0,-0.15625 -0.125,-0.296875 -0.3125,-0.296875 -0.203125,0 -0.296875,0.1875 -0.296875,0.296875 z m 0,0"
           id="path76" />
      </g>
      <g
         id="use503"
         transform="translate(292.93198,96.907997)">
        <path
           d="m 0.484375,-0.546875 c 0,0.359375 -0.09375,0.4375 -0.375,0.453125 V 0 H 1.375 V -0.09375 C 1.0625,-0.109375 0.984375,-0.203125 0.984375,-0.40625 v -1.6875 c 0.234375,-0.21875 0.40625,-0.34375 0.59375,-0.34375 0.359375,0 0.46875,0.21875 0.46875,0.59375 v 1.25 c 0,0.453125 -0.15625,0.484375 -0.390625,0.5 V 0 h 1.25 V -0.09375 C 2.609375,-0.109375 2.546875,-0.203125 2.546875,-0.484375 v -1.375 c 0,-0.734375 -0.421875,-0.90625 -0.703125,-0.90625 -0.359375,0 -0.578125,0.21875 -0.875,0.484375 V -2.75 L 0.921875,-2.765625 c -0.28125,0.109375 -0.5625,0.203125 -0.828125,0.28125 v 0.09375 C 0.125,-2.40625 0.1875,-2.40625 0.265625,-2.40625 c 0.09375,0 0.21875,0 0.21875,0.375 z m 0,0"
           id="path35" />
      </g>
      <g
         id="use504"
         transform="translate(295.93198,96.907997)">
        <path
           d="m 0.09375,0 h 1.421875 v -0.09375 c -0.40625,-0.015625 -0.4375,-0.125 -0.4375,-0.515625 v -2.125 l -0.03125,-0.03125 C 0.734375,-2.640625 0.4375,-2.53125 0.125,-2.4375 v 0.09375 c 0.078125,-0.015625 0.15625,-0.015625 0.234375,-0.015625 0.09375,0 0.203125,0 0.203125,0.359375 v 1.390625 c 0,0.46875 -0.09375,0.5 -0.46875,0.515625 z m 0.375,-3.796875 c 0,0.125 0.078125,0.3125 0.296875,0.3125 0.1875,0 0.3125,-0.140625 0.3125,-0.3125 0,-0.15625 -0.125,-0.296875 -0.3125,-0.296875 -0.203125,0 -0.296875,0.1875 -0.296875,0.296875 z m 0,0"
           id="path77" />
      </g>
      <g
         id="use505"
         transform="translate(297.59998,96.907997)">
        <path
           d="m 0.515625,-0.515625 c 0,0.40625 -0.171875,0.421875 -0.421875,0.421875 V 0 h 1.328125 v -0.09375 c -0.203125,0 -0.40625,-0.015625 -0.40625,-0.3125 v -1.6875 c 0,-0.03125 0.28125,-0.359375 0.6875,-0.359375 0.3125,0 0.421875,0.234375 0.421875,0.640625 v 1.296875 c 0,0.390625 -0.140625,0.40625 -0.40625,0.421875 V 0 H 3.0625 v -0.09375 c -0.25,0 -0.4375,-0.015625 -0.4375,-0.46875 v -1.515625 c 0.140625,-0.203125 0.34375,-0.375 0.671875,-0.375 0.421875,0 0.4375,0.359375 0.4375,0.671875 v 1.265625 c 0,0.375 -0.09375,0.390625 -0.390625,0.421875 V 0 h 1.3125 V -0.09375 L 4.5,-0.109375 C 4.234375,-0.140625 4.234375,-0.328125 4.234375,-0.453125 V -1.6875 c 0,-0.453125 -0.078125,-1.078125 -0.703125,-1.078125 C 3.046875,-2.765625 2.6875,-2.40625 2.5625,-2.25 2.5,-2.515625 2.3125,-2.765625 1.921875,-2.765625 1.59375,-2.765625 1.34375,-2.5625 1,-2.296875 V -2.75 L 0.953125,-2.765625 c -0.28125,0.109375 -0.5625,0.203125 -0.84375,0.28125 v 0.09375 C 0.15625,-2.40625 0.21875,-2.40625 0.3125,-2.40625 c 0.09375,0 0.203125,0 0.203125,0.375 z m 0,0"
           id="path50" />
      </g>
      <g
         id="use506"
         transform="translate(302.26797,96.907997)">
        <path
           d="M 2.875,-0.296875 C 2.515625,-0.28125 2.5,-0.421875 2.5,-0.640625 v -2.0625 H 1.546875 V -2.59375 C 1.96875,-2.59375 2,-2.453125 2,-2.21875 V -0.8125 C 2,-0.609375 1.953125,-0.546875 1.90625,-0.5 1.734375,-0.375 1.5625,-0.28125 1.375,-0.28125 c -0.390625,0 -0.4375,-0.375 -0.4375,-0.46875 V -2.703125 H 0.046875 v 0.09375 c 0.1875,0 0.375,0.015625 0.375,0.375 v 1.515625 c 0,0.640625 0.46875,0.78125 0.71875,0.78125 0.109375,0 0.390625,-0.03125 0.625,-0.265625 l 0.265625,-0.25 v 0.5 h 0.015625 c 0.28125,-0.09375 0.5,-0.171875 0.828125,-0.265625 z m 0,0"
           id="path40" />
      </g>
      <g
         id="use507"
         transform="translate(305.26797,96.907997)">
        <path
           d="m 0.515625,-0.515625 c 0,0.40625 -0.171875,0.421875 -0.421875,0.421875 V 0 h 1.328125 v -0.09375 c -0.203125,0 -0.40625,-0.015625 -0.40625,-0.3125 v -1.6875 c 0,-0.03125 0.28125,-0.359375 0.6875,-0.359375 0.3125,0 0.421875,0.234375 0.421875,0.640625 v 1.296875 c 0,0.390625 -0.140625,0.40625 -0.40625,0.421875 V 0 H 3.0625 v -0.09375 c -0.25,0 -0.4375,-0.015625 -0.4375,-0.46875 v -1.515625 c 0.140625,-0.203125 0.34375,-0.375 0.671875,-0.375 0.421875,0 0.4375,0.359375 0.4375,0.671875 v 1.265625 c 0,0.375 -0.09375,0.390625 -0.390625,0.421875 V 0 h 1.3125 V -0.09375 L 4.5,-0.109375 C 4.234375,-0.140625 4.234375,-0.328125 4.234375,-0.453125 V -1.6875 c 0,-0.453125 -0.078125,-1.078125 -0.703125,-1.078125 C 3.046875,-2.765625 2.6875,-2.40625 2.5625,-2.25 2.5,-2.515625 2.3125,-2.765625 1.921875,-2.765625 1.59375,-2.765625 1.34375,-2.5625 1,-2.296875 V -2.75 L 0.953125,-2.765625 c -0.28125,0.109375 -0.5625,0.203125 -0.84375,0.28125 v 0.09375 C 0.15625,-2.40625 0.21875,-2.40625 0.3125,-2.40625 c 0.09375,0 0.203125,0 0.203125,0.375 z m 0,0"
           id="path51" />
      </g>
      <g
         id="use508"
         transform="translate(309.936,96.907997)" />
      <g
         id="use509"
         transform="translate(311.436,96.907997)">
        <path
           d="m 1.46875,-2.765625 c -0.796875,0 -1.296875,0.65625 -1.296875,1.390625 0,0.8125 0.546875,1.4375 1.3125,1.4375 0.921875,0 1.328125,-0.84375 1.328125,-1.4375 0,-0.859375 -0.5625,-1.390625 -1.34375,-1.390625 z m 0.109375,2.65625 c -0.71875,0 -0.859375,-1.109375 -0.859375,-1.546875 0,-0.625 0.328125,-0.9375 0.703125,-0.9375 0.546875,0 0.859375,0.65625 0.859375,1.40625 0,0.84375 -0.40625,1.078125 -0.703125,1.078125 z m 0,0"
           id="path63" />
      </g>
      <g
         id="use510"
         transform="translate(314.436,96.907997)">
        <path
           d="m 1.859375,-2.703125 h -0.75 v -0.6875 c 0,-0.234375 0.03125,-0.546875 0.359375,-0.546875 0.296875,0 0.3125,0.453125 0.578125,0.453125 0.109375,0 0.25,-0.078125 0.25,-0.25 0,-0.203125 -0.265625,-0.359375 -0.59375,-0.359375 -1.078125,0 -1.078125,1.0625 -1.078125,1.390625 h -0.5 v 0.1875 h 0.5 V -0.625 c 0,0.46875 -0.109375,0.515625 -0.5,0.53125 V 0 H 1.6875 V -0.09375 C 1.125,-0.109375 1.125,-0.265625 1.125,-0.625 v -1.890625 h 0.734375 z m 0,0"
           id="path42" />
      </g>
      <g
         id="use511"
         transform="translate(316.43399,96.907997)" />
      <g
         id="use512"
         transform="translate(317.93399,96.907997)">
        <path
           d="m 1.09375,-3.5 h 1.171875 c 0.0625,0 0.109375,0 0.140625,-0.046875 L 2.625,-4.09375 2.578125,-4.125 c -0.0625,0.09375 -0.125,0.15625 -0.28125,0.15625 h -1.25 l -0.65625,1.421875 c -0.015625,0.03125 0,0.078125 0.03125,0.078125 0.65625,0.015625 1.71875,0.296875 1.71875,1.265625 0,0.734375 -0.453125,1.0625 -0.84375,1.0625 -0.3125,0 -0.484375,-0.375 -0.859375,-0.375 -0.25,0 -0.25,0.171875 -0.25,0.234375 0,0.21875 0.28125,0.359375 0.765625,0.359375 0.9375,0 1.609375,-0.625 1.609375,-1.421875 C 2.5625,-1.890625 2.484375,-2.0625 2.234375,-2.375 1.875,-2.796875 1.3125,-2.90625 0.828125,-2.984375 Z m 0,0"
           id="path46" />
      </g>
    </g>
    <g
       fill="#231f20"
       fill-opacity="1"
       id="g524"
       transform="matrix(0.35277777,0,0,0.35277777,-1.9003113,101.24722)">
      <g
         id="use513"
         transform="translate(285.92999,103.91)">
        <path
           d="m 5.171875,-3.96875 h -1.1875 L 2.65625,-0.9375 1.265625,-3.96875 h -1.1875 v 0.109375 C 0.53125,-3.828125 0.65625,-3.78125 0.65625,-3.3125 v 2.4375 c 0,0.640625 -0.125,0.734375 -0.578125,0.765625 V 0 h 1.40625 V -0.109375 C 1.046875,-0.125 0.921875,-0.265625 0.921875,-0.875 V -3.28125 H 0.9375 L 2.421875,0 h 0.09375 L 4.03125,-3.40625 h 0.015625 v 2.6875 c 0,0.484375 -0.078125,0.578125 -0.546875,0.609375 V 0 H 5.171875 V -0.109375 C 4.796875,-0.140625 4.65625,-0.1875 4.65625,-0.65625 V -3.3125 c 0,-0.484375 0.140625,-0.515625 0.515625,-0.546875 z m 0,0"
           id="path39" />
      </g>
      <g
         id="use514"
         transform="translate(291.26398,103.91)">
        <path
           d="m 1.71875,-0.734375 c 0,0.171875 -0.015625,0.25 -0.203125,0.34375 C 1.46875,-0.359375 1.28125,-0.28125 1.140625,-0.28125 0.921875,-0.28125 0.75,-0.46875 0.75,-0.75 v -0.015625 c 0,-0.203125 0.0625,-0.546875 0.96875,-0.84375 z m 0.9375,0.34375 C 2.59375,-0.34375 2.515625,-0.28125 2.375,-0.28125 c -0.171875,0 -0.171875,-0.171875 -0.171875,-0.34375 v -1.171875 c 0,-0.359375 0,-0.96875 -0.890625,-0.96875 -0.6875,0 -0.96875,0.4375 -0.96875,0.671875 0,0.09375 0.0625,0.265625 0.25,0.265625 0.15625,0 0.265625,-0.140625 0.265625,-0.265625 0,-0.046875 -0.03125,-0.140625 -0.03125,-0.234375 0,-0.1875 0.234375,-0.28125 0.4375,-0.28125 0.171875,0 0.453125,0.0625 0.453125,0.484375 v 0.375 c -0.96875,0.375 -1.5,0.59375 -1.5,1.1875 0,0.40625 0.3125,0.625 0.640625,0.625 0.328125,0 0.640625,-0.25 0.875,-0.4375 0.03125,0.421875 0.28125,0.4375 0.390625,0.4375 0.09375,0 0.28125,-0.015625 0.53125,-0.296875 z m 0,0"
           id="path58" />
      </g>
      <g
         id="use515"
         transform="translate(293.92798,103.91)">
        <path
           d="m 1.8125,-0.4375 c 0.03125,0.03125 0.09375,0.09375 0.09375,0.1875 0,0.125 -0.046875,0.15625 -0.234375,0.15625 V 0 H 2.875 v -0.09375 c -0.109375,0 -0.265625,-0.015625 -0.5,-0.359375 L 1.609375,-1.625 l 0.5,-0.71875 C 2.15625,-2.421875 2.34375,-2.609375 2.59375,-2.609375 v -0.09375 h -0.9375 v 0.09375 c 0.09375,0 0.234375,0.015625 0.234375,0.140625 0,0.0625 -0.03125,0.109375 -0.40625,0.640625 C 1.375,-2 1.125,-2.359375 1.125,-2.46875 c 0,-0.125 0.15625,-0.140625 0.265625,-0.140625 v -0.09375 h -1.25 v 0.09375 c 0.203125,0 0.265625,0 0.515625,0.359375 l 0.5625,0.859375 -0.671875,1 C 0.34375,-0.125 0.265625,-0.109375 0.109375,-0.09375 V 0 H 0.96875 v -0.09375 c -0.09375,0 -0.21875,0 -0.234375,-0.109375 0,-0.0625 0.078125,-0.1875 0.125,-0.234375 l 0.46875,-0.75 z m 0,0"
           id="path8" />
      </g>
      <g
         id="use516"
         transform="translate(296.92798,103.91)">
        <path
           d="m 0.09375,0 h 1.421875 v -0.09375 c -0.40625,-0.015625 -0.4375,-0.125 -0.4375,-0.515625 v -2.125 l -0.03125,-0.03125 C 0.734375,-2.640625 0.4375,-2.53125 0.125,-2.4375 v 0.09375 c 0.078125,-0.015625 0.15625,-0.015625 0.234375,-0.015625 0.09375,0 0.203125,0 0.203125,0.359375 v 1.390625 c 0,0.46875 -0.09375,0.5 -0.46875,0.515625 z m 0.375,-3.796875 c 0,0.125 0.078125,0.3125 0.296875,0.3125 0.1875,0 0.3125,-0.140625 0.3125,-0.3125 0,-0.15625 -0.125,-0.296875 -0.3125,-0.296875 -0.203125,0 -0.296875,0.1875 -0.296875,0.296875 z m 0,0"
           id="path78" />
      </g>
      <g
         id="use517"
         transform="translate(298.59598,103.91)">
        <path
           d="m 0.515625,-0.515625 c 0,0.40625 -0.171875,0.421875 -0.421875,0.421875 V 0 h 1.328125 v -0.09375 c -0.203125,0 -0.40625,-0.015625 -0.40625,-0.3125 v -1.6875 c 0,-0.03125 0.28125,-0.359375 0.6875,-0.359375 0.3125,0 0.421875,0.234375 0.421875,0.640625 v 1.296875 c 0,0.390625 -0.140625,0.40625 -0.40625,0.421875 V 0 H 3.0625 v -0.09375 c -0.25,0 -0.4375,-0.015625 -0.4375,-0.46875 v -1.515625 c 0.140625,-0.203125 0.34375,-0.375 0.671875,-0.375 0.421875,0 0.4375,0.359375 0.4375,0.671875 v 1.265625 c 0,0.375 -0.09375,0.390625 -0.390625,0.421875 V 0 h 1.3125 V -0.09375 L 4.5,-0.109375 C 4.234375,-0.140625 4.234375,-0.328125 4.234375,-0.453125 V -1.6875 c 0,-0.453125 -0.078125,-1.078125 -0.703125,-1.078125 C 3.046875,-2.765625 2.6875,-2.40625 2.5625,-2.25 2.5,-2.515625 2.3125,-2.765625 1.921875,-2.765625 1.59375,-2.765625 1.34375,-2.5625 1,-2.296875 V -2.75 L 0.953125,-2.765625 c -0.28125,0.109375 -0.5625,0.203125 -0.84375,0.28125 v 0.09375 C 0.15625,-2.40625 0.21875,-2.40625 0.3125,-2.40625 c 0.09375,0 0.203125,0 0.203125,0.375 z m 0,0"
           id="path52" />
      </g>
      <g
         id="use518"
         transform="translate(303.26398,103.91)">
        <path
           d="M 2.875,-0.296875 C 2.515625,-0.28125 2.5,-0.421875 2.5,-0.640625 v -2.0625 H 1.546875 V -2.59375 C 1.96875,-2.59375 2,-2.453125 2,-2.21875 V -0.8125 C 2,-0.609375 1.953125,-0.546875 1.90625,-0.5 1.734375,-0.375 1.5625,-0.28125 1.375,-0.28125 c -0.390625,0 -0.4375,-0.375 -0.4375,-0.46875 V -2.703125 H 0.046875 v 0.09375 c 0.1875,0 0.375,0.015625 0.375,0.375 v 1.515625 c 0,0.640625 0.46875,0.78125 0.71875,0.78125 0.109375,0 0.390625,-0.03125 0.625,-0.265625 l 0.265625,-0.25 v 0.5 h 0.015625 c 0.28125,-0.09375 0.5,-0.171875 0.828125,-0.265625 z m 0,0"
           id="path41" />
      </g>
      <g
         id="use519"
         transform="translate(306.26398,103.91)">
        <path
           d="m 0.515625,-0.515625 c 0,0.40625 -0.171875,0.421875 -0.421875,0.421875 V 0 h 1.328125 v -0.09375 c -0.203125,0 -0.40625,-0.015625 -0.40625,-0.3125 v -1.6875 c 0,-0.03125 0.28125,-0.359375 0.6875,-0.359375 0.3125,0 0.421875,0.234375 0.421875,0.640625 v 1.296875 c 0,0.390625 -0.140625,0.40625 -0.40625,0.421875 V 0 H 3.0625 v -0.09375 c -0.25,0 -0.4375,-0.015625 -0.4375,-0.46875 v -1.515625 c 0.140625,-0.203125 0.34375,-0.375 0.671875,-0.375 0.421875,0 0.4375,0.359375 0.4375,0.671875 v 1.265625 c 0,0.375 -0.09375,0.390625 -0.390625,0.421875 V 0 h 1.3125 V -0.09375 L 4.5,-0.109375 C 4.234375,-0.140625 4.234375,-0.328125 4.234375,-0.453125 V -1.6875 c 0,-0.453125 -0.078125,-1.078125 -0.703125,-1.078125 C 3.046875,-2.765625 2.6875,-2.40625 2.5625,-2.25 2.5,-2.515625 2.3125,-2.765625 1.921875,-2.765625 1.59375,-2.765625 1.34375,-2.5625 1,-2.296875 V -2.75 L 0.953125,-2.765625 c -0.28125,0.109375 -0.5625,0.203125 -0.84375,0.28125 v 0.09375 C 0.15625,-2.40625 0.21875,-2.40625 0.3125,-2.40625 c 0.09375,0 0.203125,0 0.203125,0.375 z m 0,0"
           id="path53" />
      </g>
      <g
         id="use520"
         transform="translate(310.93198,103.91)" />
      <g
         id="use521"
         transform="translate(312.43198,103.91)">
        <path
           d="m 1.46875,-2.765625 c -0.796875,0 -1.296875,0.65625 -1.296875,1.390625 0,0.8125 0.546875,1.4375 1.3125,1.4375 0.921875,0 1.328125,-0.84375 1.328125,-1.4375 0,-0.859375 -0.5625,-1.390625 -1.34375,-1.390625 z m 0.109375,2.65625 c -0.71875,0 -0.859375,-1.109375 -0.859375,-1.546875 0,-0.625 0.328125,-0.9375 0.703125,-0.9375 0.546875,0 0.859375,0.65625 0.859375,1.40625 0,0.84375 -0.40625,1.078125 -0.703125,1.078125 z m 0,0"
           id="path64" />
      </g>
      <g
         id="use522"
         transform="translate(315.43198,103.91)">
        <path
           d="m 1.859375,-2.703125 h -0.75 v -0.6875 c 0,-0.234375 0.03125,-0.546875 0.359375,-0.546875 0.296875,0 0.3125,0.453125 0.578125,0.453125 0.109375,0 0.25,-0.078125 0.25,-0.25 0,-0.203125 -0.265625,-0.359375 -0.59375,-0.359375 -1.078125,0 -1.078125,1.0625 -1.078125,1.390625 h -0.5 v 0.1875 h 0.5 V -0.625 c 0,0.46875 -0.109375,0.515625 -0.5,0.53125 V 0 H 1.6875 V -0.09375 C 1.125,-0.109375 1.125,-0.265625 1.125,-0.625 v -1.890625 h 0.734375 z m 0,0"
           id="path43" />
      </g>
      <g
         id="use523"
         transform="translate(317.42999,103.91)" />
      <g
         id="use524"
         transform="translate(318.92999,103.91)">
        <path
           d="m 1.09375,-3.5 h 1.171875 c 0.0625,0 0.109375,0 0.140625,-0.046875 L 2.625,-4.09375 2.578125,-4.125 c -0.0625,0.09375 -0.125,0.15625 -0.28125,0.15625 h -1.25 l -0.65625,1.421875 c -0.015625,0.03125 0,0.078125 0.03125,0.078125 0.65625,0.015625 1.71875,0.296875 1.71875,1.265625 0,0.734375 -0.453125,1.0625 -0.84375,1.0625 -0.3125,0 -0.484375,-0.375 -0.859375,-0.375 -0.25,0 -0.25,0.171875 -0.25,0.234375 0,0.21875 0.28125,0.359375 0.765625,0.359375 0.9375,0 1.609375,-0.625 1.609375,-1.421875 C 2.5625,-1.890625 2.484375,-2.0625 2.234375,-2.375 1.875,-2.796875 1.3125,-2.90625 0.828125,-2.984375 Z m 0,0"
           id="path47" />
      </g>
    </g>
    <g
       fill="#231f20"
       fill-opacity="1"
       id="g534"
       transform="matrix(0.35277777,0,0,0.35277777,-1.9003113,101.24722)">
      <g
         id="use525"
         transform="translate(285.92999,110.912)">
        <path
           d="M 3.953125,-0.109375 C 3.703125,-0.125 3.5625,-0.234375 3.4375,-0.390625 L 2.203125,-1.90625 C 2.5,-1.96875 3.28125,-2.125 3.28125,-2.921875 3.28125,-3.84375 2.296875,-3.96875 1.765625,-3.96875 h -1.65625 v 0.109375 c 0.40625,0.046875 0.5,0.09375 0.5,0.546875 v 2.59375 c 0,0.453125 -0.015625,0.578125 -0.5,0.609375 V 0 h 1.65625 V -0.109375 C 1.28125,-0.140625 1.21875,-0.25 1.21875,-0.65625 v -1.1875 H 1.5625 L 2.984375,0 h 0.96875 z M 1.21875,-3.53125 c 0,-0.171875 0.0625,-0.21875 0.375,-0.21875 0.25,0 1.03125,0.015625 1.03125,0.8125 0,0.859375 -0.890625,0.875 -1.40625,0.875 z m 0,0"
           id="path7" />
      </g>
      <g
         id="use526"
         transform="translate(289.93198,110.912)">
        <path
           d="m 1.71875,-0.734375 c 0,0.171875 -0.015625,0.25 -0.203125,0.34375 C 1.46875,-0.359375 1.28125,-0.28125 1.140625,-0.28125 0.921875,-0.28125 0.75,-0.46875 0.75,-0.75 v -0.015625 c 0,-0.203125 0.0625,-0.546875 0.96875,-0.84375 z m 0.9375,0.34375 C 2.59375,-0.34375 2.515625,-0.28125 2.375,-0.28125 c -0.171875,0 -0.171875,-0.171875 -0.171875,-0.34375 v -1.171875 c 0,-0.359375 0,-0.96875 -0.890625,-0.96875 -0.6875,0 -0.96875,0.4375 -0.96875,0.671875 0,0.09375 0.0625,0.265625 0.25,0.265625 0.15625,0 0.265625,-0.140625 0.265625,-0.265625 0,-0.046875 -0.03125,-0.140625 -0.03125,-0.234375 0,-0.1875 0.234375,-0.28125 0.4375,-0.28125 0.171875,0 0.453125,0.0625 0.453125,0.484375 v 0.375 c -0.96875,0.375 -1.5,0.59375 -1.5,1.1875 0,0.40625 0.3125,0.625 0.640625,0.625 0.328125,0 0.640625,-0.25 0.875,-0.4375 0.03125,0.421875 0.28125,0.4375 0.390625,0.4375 0.09375,0 0.28125,-0.015625 0.53125,-0.296875 z m 0,0"
           id="path59" />
      </g>
      <g
         id="use527"
         transform="translate(292.59598,110.912)">
        <path
           d="m 0.484375,-0.546875 c 0,0.359375 -0.09375,0.4375 -0.375,0.453125 V 0 H 1.375 V -0.09375 C 1.0625,-0.109375 0.984375,-0.203125 0.984375,-0.40625 v -1.6875 c 0.234375,-0.21875 0.40625,-0.34375 0.59375,-0.34375 0.359375,0 0.46875,0.21875 0.46875,0.59375 v 1.25 c 0,0.453125 -0.15625,0.484375 -0.390625,0.5 V 0 h 1.25 V -0.09375 C 2.609375,-0.109375 2.546875,-0.203125 2.546875,-0.484375 v -1.375 c 0,-0.734375 -0.421875,-0.90625 -0.703125,-0.90625 -0.359375,0 -0.578125,0.21875 -0.875,0.484375 V -2.75 L 0.921875,-2.765625 c -0.28125,0.109375 -0.5625,0.203125 -0.828125,0.28125 v 0.09375 C 0.125,-2.40625 0.1875,-2.40625 0.265625,-2.40625 c 0.09375,0 0.21875,0 0.21875,0.375 z m 0,0"
           id="path36" />
      </g>
      <g
         id="use528"
         transform="translate(295.59598,110.912)">
        <path
           d="m 0.59375,0.546875 c 0,-0.1875 0.109375,-0.3125 0.28125,-0.53125 0.28125,0.0625 0.421875,0.0625 0.984375,0.078125 0.4375,0.015625 0.734375,0.015625 0.734375,0.296875 0,0.3125 -0.40625,0.578125 -1.109375,0.578125 -0.6875,0 -0.890625,-0.25 -0.890625,-0.421875 z m 0.3125,-2.59375 c 0,-0.40625 0.234375,-0.546875 0.453125,-0.546875 0.515625,0 0.609375,0.8125 0.609375,0.96875 0,0.140625 -0.03125,0.578125 -0.4375,0.578125 -0.46875,0 -0.625,-0.53125 -0.625,-1 z M 2.8125,-2.328125 V -2.5625 H 2.359375 c -0.09375,0 -0.203125,-0.015625 -0.328125,-0.0625 -0.25,-0.09375 -0.375,-0.140625 -0.578125,-0.140625 -0.46875,0 -1.046875,0.296875 -1.046875,1 0,0.359375 0.21875,0.625 0.5625,0.78125 C 0.4375,-0.5 0.4375,-0.421875 0.4375,-0.328125 0.4375,-0.15625 0.59375,-0.078125 0.75,0 0.453125,0.203125 0.171875,0.453125 0.171875,0.71875 c 0,0.328125 0.453125,0.59375 1.0625,0.59375 0.53125,0 1.53125,-0.34375 1.53125,-1.015625 C 2.765625,0.125 2.6875,-0.3125 2.046875,-0.34375 l -0.78125,-0.046875 c -0.171875,0 -0.46875,-0.015625 -0.46875,-0.15625 0,-0.125 0.234375,-0.359375 0.359375,-0.375 0.03125,0 0.25,0.03125 0.328125,0.03125 0.328125,0 0.953125,-0.234375 0.953125,-0.890625 0,-0.296875 -0.0625,-0.40625 -0.109375,-0.546875 z m 0,0"
           id="path10" />
      </g>
      <g
         id="use529"
         transform="translate(298.59598,110.912)">
        <path
           d="m 2.453125,-0.984375 c -0.140625,0.21875 -0.40625,0.625 -0.9375,0.625 -0.390625,0 -0.875,-0.234375 -0.953125,-1.296875 h 1.875 c -0.078125,-0.796875 -0.5,-1.109375 -1.0625,-1.109375 -0.484375,0 -1.21875,0.375 -1.21875,1.484375 0,0.84375 0.453125,1.34375 1.109375,1.34375 0.875,0 1.21875,-0.8125 1.28125,-1 z m -1.875,-0.875 c 0.09375,-0.515625 0.328125,-0.6875 0.65625,-0.6875 0.484375,0 0.546875,0.40625 0.578125,0.6875 z m 0,0"
           id="path68" />
      </g>
      <g
         id="use530"
         transform="translate(301.25998,110.912)" />
      <g
         id="use531"
         transform="translate(302.75998,110.912)">
        <path
           d="m 1.46875,-2.765625 c -0.796875,0 -1.296875,0.65625 -1.296875,1.390625 0,0.8125 0.546875,1.4375 1.3125,1.4375 0.921875,0 1.328125,-0.84375 1.328125,-1.4375 0,-0.859375 -0.5625,-1.390625 -1.34375,-1.390625 z m 0.109375,2.65625 c -0.71875,0 -0.859375,-1.109375 -0.859375,-1.546875 0,-0.625 0.328125,-0.9375 0.703125,-0.9375 0.546875,0 0.859375,0.65625 0.859375,1.40625 0,0.84375 -0.40625,1.078125 -0.703125,1.078125 z m 0,0"
           id="path65" />
      </g>
      <g
         id="use532"
         transform="translate(305.75998,110.912)">
        <path
           d="m 1.859375,-2.703125 h -0.75 v -0.6875 c 0,-0.234375 0.03125,-0.546875 0.359375,-0.546875 0.296875,0 0.3125,0.453125 0.578125,0.453125 0.109375,0 0.25,-0.078125 0.25,-0.25 0,-0.203125 -0.265625,-0.359375 -0.59375,-0.359375 -1.078125,0 -1.078125,1.0625 -1.078125,1.390625 h -0.5 v 0.1875 h 0.5 V -0.625 c 0,0.46875 -0.109375,0.515625 -0.5,0.53125 V 0 H 1.6875 V -0.09375 C 1.125,-0.109375 1.125,-0.265625 1.125,-0.625 v -1.890625 h 0.734375 z m 0,0"
           id="path44" />
      </g>
      <g
         id="use533"
         transform="translate(307.758,110.912)" />
      <g
         id="use534"
         transform="translate(309.258,110.912)">
        <path
           d="m 1.09375,-3.5 h 1.171875 c 0.0625,0 0.109375,0 0.140625,-0.046875 L 2.625,-4.09375 2.578125,-4.125 c -0.0625,0.09375 -0.125,0.15625 -0.28125,0.15625 h -1.25 l -0.65625,1.421875 c -0.015625,0.03125 0,0.078125 0.03125,0.078125 0.65625,0.015625 1.71875,0.296875 1.71875,1.265625 0,0.734375 -0.453125,1.0625 -0.84375,1.0625 -0.3125,0 -0.484375,-0.375 -0.859375,-0.375 -0.25,0 -0.25,0.171875 -0.25,0.234375 0,0.21875 0.28125,0.359375 0.765625,0.359375 0.9375,0 1.609375,-0.625 1.609375,-1.421875 C 2.5625,-1.890625 2.484375,-2.0625 2.234375,-2.375 1.875,-2.796875 1.3125,-2.90625 0.828125,-2.984375 Z m 0,0"
           id="path48" />
      </g>
    </g>
    <path
       fill="none"
       stroke-width="0.352778"
       stroke-linecap="butt"
       stroke-linejoin="miter"
       stroke="#231f20"
       stroke-opacity="1"
       stroke-miterlimit="4"
       d="m 92.685472,132.43498 h 5.732639"
       id="path534" />
    <path
       fill="none"
       stroke-width="0.352778"
       stroke-linecap="butt"
       stroke-linejoin="miter"
       stroke="#a7a9ac"
       stroke-opacity="1"
       stroke-miterlimit="4"
       d="m 92.685472,134.81899 h 5.732639"
       id="path535" />
    <path
       fill="none"
       stroke-width="0.352778"
       stroke-linecap="round"
       stroke-linejoin="round"
       stroke="#231f20"
       stroke-opacity="1"
       stroke-dasharray="0, 6"
       stroke-miterlimit="4"
       d="m 92.185244,137.20437 h 6.232867"
       id="path536" />
    <path
       fill="none"
       stroke-width="0.352778"
       stroke-linecap="butt"
       stroke-linejoin="miter"
       stroke="#231f20"
       stroke-opacity="1"
       stroke-dasharray="4, 2"
       stroke-miterlimit="4"
       d="m 92.685472,139.58975 h 5.732639"
       id="path537" />
    <path
       fill="none"
       stroke-width="0.176389"
       stroke-linecap="butt"
       stroke-linejoin="miter"
       stroke="#231f20"
       stroke-opacity="1"
       stroke-miterlimit="4"
       d="M 119.70742,141.88005 H 91.629895 v -11.44874 h 28.077525 z m 0,0"
       id="path538" />
  </g>
</svg>
