<?xml version="1.0" encoding="UTF-8" standalone="no"?>
<!-- Created with Inkscape (http://www.inkscape.org/) -->

<svg
   width="82.595802mm"
   height="50.710415mm"
   viewBox="0 0 82.595802 50.710415"
   version="1.1"
   id="svg1"
   inkscape:version="1.3.2 (091e20e, 2023-11-25)"
   sodipodi:docname="fig-3-22.svg"
   xmlns:inkscape="http://www.inkscape.org/namespaces/inkscape"
   xmlns:sodipodi="http://sodipodi.sourceforge.net/DTD/sodipodi-0.dtd"
   xmlns="http://www.w3.org/2000/svg"
   xmlns:svg="http://www.w3.org/2000/svg">
  <sodipodi:namedview
     id="namedview1"
     pagecolor="#ffffff"
     bordercolor="#000000"
     borderopacity="0.25"
     inkscape:showpageshadow="2"
     inkscape:pageopacity="0.0"
     inkscape:pagecheckerboard="0"
     inkscape:deskcolor="#d1d1d1"
     inkscape:document-units="mm"
     inkscape:zoom="0.2102413"
     inkscape:cx="154.58428"
     inkscape:cy="95.128787"
     inkscape:window-width="1312"
     inkscape:window-height="449"
     inkscape:window-x="0"
     inkscape:window-y="38"
     inkscape:window-maximized="0"
     inkscape:current-layer="layer1" />
  <defs
     id="defs1" />
  <g
     inkscape:label="Layer 1"
     inkscape:groupmode="layer"
     id="layer1"
     transform="translate(-63.815291,-123.0313)">
    <path
       fill="none"
       stroke-width="0.176389"
       stroke-linecap="butt"
       stroke-linejoin="miter"
       stroke="#231f20"
       stroke-opacity="1"
       stroke-miterlimit="4"
       d="M 69.849999,166.69714 H 144.6568 m -70.573468,4.20577 v -46.11605"
       id="path2381" />
    <path
       fill-rule="nonzero"
       fill="#231f20"
       fill-opacity="1"
       d="m 144.6568,166.69714 -0.38723,-0.63527 0.0221,-0.0138 1.03628,0.41066 c 0.36105,0.0799 0.7221,0.15847 1.08314,0.2384 -0.36104,0.0799 -0.72209,0.15985 -1.08314,0.2384 l -1.03628,0.41203 -0.0221,-0.011 0.38723,-0.63941"
       id="path2382"
       style="stroke-width:0.352778" />
    <path
       fill-rule="nonzero"
       fill="#231f20"
       fill-opacity="1"
       d="m 74.083332,124.78687 -0.636654,0.38585 -0.01379,-0.022 0.412034,-1.03629 c 0.07855,-0.36104 0.158475,-0.72209 0.2384,-1.08313 0.07855,0.36104 0.158475,0.72209 0.2384,1.08313 l 0.410655,1.03629 -0.01101,0.022 -0.63803,-0.38585"
       id="path2383"
       style="stroke-width:0.352778" />
    <path
       fill="none"
       stroke-width="0.176389"
       stroke-linecap="butt"
       stroke-linejoin="miter"
       stroke="#231f20"
       stroke-opacity="1"
       stroke-miterlimit="4"
       d="m 73.024999,160.32923 h 2.116666 m -2.116666,-6.37205 h 2.116666 m -2.116666,-6.37067 h 2.116666 m -2.116666,-6.37067 h 2.116666 m -2.116666,-6.37067 h 2.116666 m -2.116666,-6.37067 h 2.116666 m 12.407856,37.16431 v 2.11667 m 13.466189,-2.11667 v 2.11667 m 13.46757,-2.11667 v 2.11667 m 13.46619,-2.11667 v 2.11667 m 13.46756,-2.11667 v 2.11667"
       id="path2384" />
    <path
       fill="none"
       stroke-width="0.264583"
       stroke-linecap="butt"
       stroke-linejoin="miter"
       stroke="#231f20"
       stroke-opacity="1"
       stroke-miterlimit="4"
       d="m 80.817805,127.22186 h -6.731717 v 39.47391 h 6.731717 z m 6.731716,12.72756 h -6.731716 v 26.74635 h 6.731716 z m 6.733095,5.1015 h -6.733095 v 21.64485 h 6.733095 z m 6.731714,10.17957 h -6.731714 v 11.46528 h 6.731714 z m 6.73172,0 h -6.73172 v 11.46528 h 6.73172 z m 6.73172,3.83095 h -6.73172 v 7.63433 h 6.73172 z m 6.73309,3.83094 h -6.73309 v 3.80339 h 6.73309 z m 6.73171,1.26642 h -6.73171 v 2.53697 h 6.73171 z m 6.73172,1.27331 h -6.73172 v 1.26366 h 6.73172 z m 6.73172,0 h -6.73172 v 1.26366 h 6.73172 z m 0,0"
       id="path2385" />
    <g
       fill="#231f20"
       fill-opacity="1"
       id="g2388"
       transform="matrix(0.35277777,0,0,0.35277777,-6.768923,-65.64147)">
      <g
         id="use2385"
         transform="translate(211.66699,642.91302)">
        <path
           d="m 1.75,-4.546875 c 0.890625,0 0.90625,1.75 0.90625,2.234375 0,0.546875 -0.015625,2.234375 -0.90625,2.234375 -0.890625,0 -0.90625,-1.671875 -0.90625,-2.234375 0,-0.484375 0.015625,-2.234375 0.90625,-2.234375 z m 0,-0.1875 c -1.28125,0 -1.578125,1.59375 -1.578125,2.421875 0,0.84375 0.296875,2.40625 1.578125,2.40625 1.28125,0 1.578125,-1.5625 1.578125,-2.40625 0,-0.828125 -0.296875,-2.421875 -1.578125,-2.421875 z m 0,0"
           id="path35" />
      </g>
      <g
         id="use2386"
         transform="translate(215.16699,642.91302)">
        <path
           d="m 0.875,0.078125 c 0.140625,0 0.390625,-0.125 0.390625,-0.375 0,-0.21875 -0.1875,-0.40625 -0.390625,-0.40625 -0.203125,0 -0.390625,0.171875 -0.390625,0.40625 0,0.265625 0.25,0.375 0.390625,0.375 z m 0,0"
           id="path29" />
      </g>
      <g
         id="use2387"
         transform="translate(216.91699,642.91302)">
        <path
           d="m 1.75,-4.546875 c 0.890625,0 0.90625,1.75 0.90625,2.234375 0,0.546875 -0.015625,2.234375 -0.90625,2.234375 -0.890625,0 -0.90625,-1.671875 -0.90625,-2.234375 0,-0.484375 0.015625,-2.234375 0.90625,-2.234375 z m 0,-0.1875 c -1.28125,0 -1.578125,1.59375 -1.578125,2.421875 0,0.84375 0.296875,2.40625 1.578125,2.40625 1.28125,0 1.578125,-1.5625 1.578125,-2.40625 0,-0.828125 -0.296875,-2.421875 -1.578125,-2.421875 z m 0,0"
           id="path36" />
      </g>
      <g
         id="use2388"
         transform="translate(220.41699,642.91302)">
        <path
           d="m 1.265625,-4.078125 h 1.375 c 0.078125,0 0.140625,0 0.15625,-0.0625 L 3.0625,-4.765625 3,-4.8125 C 2.921875,-4.71875 2.859375,-4.640625 2.6875,-4.640625 H 1.21875 L 0.453125,-2.96875 c -0.015625,0.046875 0,0.078125 0.046875,0.078125 0.75,0.03125 1.984375,0.359375 1.984375,1.484375 0,0.859375 -0.515625,1.25 -0.96875,1.25 -0.375,0 -0.5625,-0.4375 -1.015625,-0.4375 -0.28125,0 -0.28125,0.203125 -0.28125,0.265625 0,0.265625 0.328125,0.421875 0.890625,0.421875 1.109375,0 1.875,-0.734375 1.875,-1.671875 0,-0.625 -0.078125,-0.828125 -0.375,-1.1875 -0.421875,-0.5 -1.078125,-0.625 -1.640625,-0.71875 z m 0,0"
           id="path26" />
      </g>
    </g>
    <g
       fill="#231f20"
       fill-opacity="1"
       id="g2389"
       transform="matrix(0.35277777,0,0,0.35277777,-6.768923,-65.64147)">
      <g
         id="use2389"
         transform="translate(223.04199,666.13202)">
        <path
           d="m 1.75,-4.546875 c 0.890625,0 0.90625,1.75 0.90625,2.234375 0,0.546875 -0.015625,2.234375 -0.90625,2.234375 -0.890625,0 -0.90625,-1.671875 -0.90625,-2.234375 0,-0.484375 0.015625,-2.234375 0.90625,-2.234375 z m 0,-0.1875 c -1.28125,0 -1.578125,1.59375 -1.578125,2.421875 0,0.84375 0.296875,2.40625 1.578125,2.40625 1.28125,0 1.578125,-1.5625 1.578125,-2.40625 0,-0.828125 -0.296875,-2.421875 -1.578125,-2.421875 z m 0,0"
           id="path37" />
      </g>
    </g>
    <g
       fill="#231f20"
       fill-opacity="1"
       id="g2393"
       transform="matrix(0.35277777,0,0,0.35277777,-6.768923,-65.64147)">
      <g
         id="use2390"
         transform="translate(211.66699,624.88098)">
        <path
           d="m 1.75,-4.546875 c 0.890625,0 0.90625,1.75 0.90625,2.234375 0,0.546875 -0.015625,2.234375 -0.90625,2.234375 -0.890625,0 -0.90625,-1.671875 -0.90625,-2.234375 0,-0.484375 0.015625,-2.234375 0.90625,-2.234375 z m 0,-0.1875 c -1.28125,0 -1.578125,1.59375 -1.578125,2.421875 0,0.84375 0.296875,2.40625 1.578125,2.40625 1.28125,0 1.578125,-1.5625 1.578125,-2.40625 0,-0.828125 -0.296875,-2.421875 -1.578125,-2.421875 z m 0,0"
           id="path38" />
      </g>
      <g
         id="use2391"
         transform="translate(215.16699,624.88098)">
        <path
           d="m 0.875,0.078125 c 0.140625,0 0.390625,-0.125 0.390625,-0.375 0,-0.21875 -0.1875,-0.40625 -0.390625,-0.40625 -0.203125,0 -0.390625,0.171875 -0.390625,0.40625 0,0.265625 0.25,0.375 0.390625,0.375 z m 0,0"
           id="path30" />
      </g>
      <g
         id="use2392"
         transform="translate(216.91699,624.88098)">
        <path
           d="m 0.828125,0 h 1.9375 v -0.109375 c -0.53125,0 -0.671875,-0.078125 -0.671875,-0.40625 V -4.71875 l -0.0625,-0.015625 -1.25,0.640625 V -4 C 1.171875,-4.15625 1.171875,-4.15625 1.25,-4.15625 c 0.234375,0 0.234375,0.1875 0.234375,0.328125 v 3.171875 c 0,0.515625 -0.25,0.53125 -0.65625,0.546875 z m 0,0"
           id="path23" />
      </g>
      <g
         id="use2393"
         transform="translate(220.41699,624.88098)">
        <path
           d="m 1.75,-4.546875 c 0.890625,0 0.90625,1.75 0.90625,2.234375 0,0.546875 -0.015625,2.234375 -0.90625,2.234375 -0.890625,0 -0.90625,-1.671875 -0.90625,-2.234375 0,-0.484375 0.015625,-2.234375 0.90625,-2.234375 z m 0,-0.1875 c -1.28125,0 -1.578125,1.59375 -1.578125,2.421875 0,0.84375 0.296875,2.40625 1.578125,2.40625 1.28125,0 1.578125,-1.5625 1.578125,-2.40625 0,-0.828125 -0.296875,-2.421875 -1.578125,-2.421875 z m 0,0"
           id="path39" />
      </g>
    </g>
    <g
       fill="#231f20"
       fill-opacity="1"
       id="g2397"
       transform="matrix(0.35277777,0,0,0.35277777,-6.768923,-65.64147)">
      <g
         id="use2394"
         transform="translate(211.66699,606.849)">
        <path
           d="m 1.75,-4.546875 c 0.890625,0 0.90625,1.75 0.90625,2.234375 0,0.546875 -0.015625,2.234375 -0.90625,2.234375 -0.890625,0 -0.90625,-1.671875 -0.90625,-2.234375 0,-0.484375 0.015625,-2.234375 0.90625,-2.234375 z m 0,-0.1875 c -1.28125,0 -1.578125,1.59375 -1.578125,2.421875 0,0.84375 0.296875,2.40625 1.578125,2.40625 1.28125,0 1.578125,-1.5625 1.578125,-2.40625 0,-0.828125 -0.296875,-2.421875 -1.578125,-2.421875 z m 0,0"
           id="path40" />
      </g>
      <g
         id="use2395"
         transform="translate(215.16699,606.849)">
        <path
           d="m 0.875,0.078125 c 0.140625,0 0.390625,-0.125 0.390625,-0.375 0,-0.21875 -0.1875,-0.40625 -0.390625,-0.40625 -0.203125,0 -0.390625,0.171875 -0.390625,0.40625 0,0.265625 0.25,0.375 0.390625,0.375 z m 0,0"
           id="path31" />
      </g>
      <g
         id="use2396"
         transform="translate(216.91699,606.849)">
        <path
           d="m 0.828125,0 h 1.9375 v -0.109375 c -0.53125,0 -0.671875,-0.078125 -0.671875,-0.40625 V -4.71875 l -0.0625,-0.015625 -1.25,0.640625 V -4 C 1.171875,-4.15625 1.171875,-4.15625 1.25,-4.15625 c 0.234375,0 0.234375,0.1875 0.234375,0.328125 v 3.171875 c 0,0.515625 -0.25,0.53125 -0.65625,0.546875 z m 0,0"
           id="path24" />
      </g>
      <g
         id="use2397"
         transform="translate(220.41699,606.849)">
        <path
           d="m 1.265625,-4.078125 h 1.375 c 0.078125,0 0.140625,0 0.15625,-0.0625 L 3.0625,-4.765625 3,-4.8125 C 2.921875,-4.71875 2.859375,-4.640625 2.6875,-4.640625 H 1.21875 L 0.453125,-2.96875 c -0.015625,0.046875 0,0.078125 0.046875,0.078125 0.75,0.03125 1.984375,0.359375 1.984375,1.484375 0,0.859375 -0.515625,1.25 -0.96875,1.25 -0.375,0 -0.5625,-0.4375 -1.015625,-0.4375 -0.28125,0 -0.28125,0.203125 -0.28125,0.265625 0,0.265625 0.328125,0.421875 0.890625,0.421875 1.109375,0 1.875,-0.734375 1.875,-1.671875 0,-0.625 -0.078125,-0.828125 -0.375,-1.1875 -0.421875,-0.5 -1.078125,-0.625 -1.640625,-0.71875 z m 0,0"
           id="path27" />
      </g>
    </g>
    <g
       fill="#231f20"
       fill-opacity="1"
       id="g2401"
       transform="matrix(0.35277777,0,0,0.35277777,-6.768923,-65.64147)">
      <g
         id="use2398"
         transform="translate(211.66699,588.81702)">
        <path
           d="m 1.75,-4.546875 c 0.890625,0 0.90625,1.75 0.90625,2.234375 0,0.546875 -0.015625,2.234375 -0.90625,2.234375 -0.890625,0 -0.90625,-1.671875 -0.90625,-2.234375 0,-0.484375 0.015625,-2.234375 0.90625,-2.234375 z m 0,-0.1875 c -1.28125,0 -1.578125,1.59375 -1.578125,2.421875 0,0.84375 0.296875,2.40625 1.578125,2.40625 1.28125,0 1.578125,-1.5625 1.578125,-2.40625 0,-0.828125 -0.296875,-2.421875 -1.578125,-2.421875 z m 0,0"
           id="path41" />
      </g>
      <g
         id="use2399"
         transform="translate(215.16699,588.81702)">
        <path
           d="m 0.875,0.078125 c 0.140625,0 0.390625,-0.125 0.390625,-0.375 0,-0.21875 -0.1875,-0.40625 -0.390625,-0.40625 -0.203125,0 -0.390625,0.171875 -0.390625,0.40625 0,0.265625 0.25,0.375 0.390625,0.375 z m 0,0"
           id="path32" />
      </g>
      <g
         id="use2400"
         transform="translate(216.91699,588.81702)">
        <path
           d="M 3.328125,-0.953125 3.234375,-1 C 2.96875,-0.546875 2.828125,-0.53125 2.5625,-0.53125 H 0.890625 l 1.1875,-1.234375 C 2.375,-2.09375 2.96875,-2.734375 2.96875,-3.46875 c 0,-0.78125 -0.625,-1.265625 -1.265625,-1.265625 -0.625,0 -1.28125,0.34375 -1.484375,1.390625 l 0.140625,0.046875 c 0.15625,-0.390625 0.375,-0.921875 1,-0.921875 0.828125,0 1,0.65625 1,1 0,0.53125 -0.296875,1.15625 -0.90625,1.8125 l -1.25,1.328125 V 0 H 2.9375 Z m 0,0"
           id="path20" />
      </g>
      <g
         id="use2401"
         transform="translate(220.41699,588.81702)">
        <path
           d="m 1.75,-4.546875 c 0.890625,0 0.90625,1.75 0.90625,2.234375 0,0.546875 -0.015625,2.234375 -0.90625,2.234375 -0.890625,0 -0.90625,-1.671875 -0.90625,-2.234375 0,-0.484375 0.015625,-2.234375 0.90625,-2.234375 z m 0,-0.1875 c -1.28125,0 -1.578125,1.59375 -1.578125,2.421875 0,0.84375 0.296875,2.40625 1.578125,2.40625 1.28125,0 1.578125,-1.5625 1.578125,-2.40625 0,-0.828125 -0.296875,-2.421875 -1.578125,-2.421875 z m 0,0"
           id="path42" />
      </g>
    </g>
    <g
       fill="#231f20"
       fill-opacity="1"
       id="g2405"
       transform="matrix(0.35277777,0,0,0.35277777,-6.768923,-65.64147)">
      <g
         id="use2402"
         transform="translate(211.66699,570.78497)">
        <path
           d="m 1.75,-4.546875 c 0.890625,0 0.90625,1.75 0.90625,2.234375 0,0.546875 -0.015625,2.234375 -0.90625,2.234375 -0.890625,0 -0.90625,-1.671875 -0.90625,-2.234375 0,-0.484375 0.015625,-2.234375 0.90625,-2.234375 z m 0,-0.1875 c -1.28125,0 -1.578125,1.59375 -1.578125,2.421875 0,0.84375 0.296875,2.40625 1.578125,2.40625 1.28125,0 1.578125,-1.5625 1.578125,-2.40625 0,-0.828125 -0.296875,-2.421875 -1.578125,-2.421875 z m 0,0"
           id="path43" />
      </g>
      <g
         id="use2403"
         transform="translate(215.16699,570.78497)">
        <path
           d="m 0.875,0.078125 c 0.140625,0 0.390625,-0.125 0.390625,-0.375 0,-0.21875 -0.1875,-0.40625 -0.390625,-0.40625 -0.203125,0 -0.390625,0.171875 -0.390625,0.40625 0,0.265625 0.25,0.375 0.390625,0.375 z m 0,0"
           id="path33" />
      </g>
      <g
         id="use2404"
         transform="translate(216.91699,570.78497)">
        <path
           d="M 3.328125,-0.953125 3.234375,-1 C 2.96875,-0.546875 2.828125,-0.53125 2.5625,-0.53125 H 0.890625 l 1.1875,-1.234375 C 2.375,-2.09375 2.96875,-2.734375 2.96875,-3.46875 c 0,-0.78125 -0.625,-1.265625 -1.265625,-1.265625 -0.625,0 -1.28125,0.34375 -1.484375,1.390625 l 0.140625,0.046875 c 0.15625,-0.390625 0.375,-0.921875 1,-0.921875 0.828125,0 1,0.65625 1,1 0,0.53125 -0.296875,1.15625 -0.90625,1.8125 l -1.25,1.328125 V 0 H 2.9375 Z m 0,0"
           id="path21" />
      </g>
      <g
         id="use2405"
         transform="translate(220.41699,570.78497)">
        <path
           d="m 1.265625,-4.078125 h 1.375 c 0.078125,0 0.140625,0 0.15625,-0.0625 L 3.0625,-4.765625 3,-4.8125 C 2.921875,-4.71875 2.859375,-4.640625 2.6875,-4.640625 H 1.21875 L 0.453125,-2.96875 c -0.015625,0.046875 0,0.078125 0.046875,0.078125 0.75,0.03125 1.984375,0.359375 1.984375,1.484375 0,0.859375 -0.515625,1.25 -0.96875,1.25 -0.375,0 -0.5625,-0.4375 -1.015625,-0.4375 -0.28125,0 -0.28125,0.203125 -0.28125,0.265625 0,0.265625 0.328125,0.421875 0.890625,0.421875 1.109375,0 1.875,-0.734375 1.875,-1.671875 0,-0.625 -0.078125,-0.828125 -0.375,-1.1875 -0.421875,-0.5 -1.078125,-0.625 -1.640625,-0.71875 z m 0,0"
           id="path28" />
      </g>
    </g>
    <g
       fill="#231f20"
       fill-opacity="1"
       id="g2409"
       transform="matrix(0.35277777,0,0,0.35277777,-6.768923,-65.64147)">
      <g
         id="use2406"
         transform="translate(211.66699,552.75299)">
        <path
           d="m 1.75,-4.546875 c 0.890625,0 0.90625,1.75 0.90625,2.234375 0,0.546875 -0.015625,2.234375 -0.90625,2.234375 -0.890625,0 -0.90625,-1.671875 -0.90625,-2.234375 0,-0.484375 0.015625,-2.234375 0.90625,-2.234375 z m 0,-0.1875 c -1.28125,0 -1.578125,1.59375 -1.578125,2.421875 0,0.84375 0.296875,2.40625 1.578125,2.40625 1.28125,0 1.578125,-1.5625 1.578125,-2.40625 0,-0.828125 -0.296875,-2.421875 -1.578125,-2.421875 z m 0,0"
           id="path44" />
      </g>
      <g
         id="use2407"
         transform="translate(215.16699,552.75299)">
        <path
           d="m 0.875,0.078125 c 0.140625,0 0.390625,-0.125 0.390625,-0.375 0,-0.21875 -0.1875,-0.40625 -0.390625,-0.40625 -0.203125,0 -0.390625,0.171875 -0.390625,0.40625 0,0.265625 0.25,0.375 0.390625,0.375 z m 0,0"
           id="path34" />
      </g>
      <g
         id="use2408"
         transform="translate(216.91699,552.75299)">
        <path
           d="m 1.078125,-2.3125 c 0.46875,-0.015625 0.65625,0.03125 0.90625,0.15625 0.4375,0.234375 0.53125,0.75 0.53125,0.921875 0,0.53125 -0.296875,1.078125 -0.9375,1.078125 -0.421875,0 -0.6875,-0.390625 -1,-0.390625 -0.109375,0 -0.28125,0.046875 -0.28125,0.25 0,0.359375 0.609375,0.390625 0.78125,0.390625 1.09375,0 1.9375,-0.609375 1.9375,-1.609375 0,-0.921875 -0.59375,-1.171875 -0.890625,-1.296875 0.46875,-0.296875 0.65625,-0.59375 0.65625,-0.96875 0,-0.296875 -0.1875,-0.953125 -1.09375,-0.953125 -0.46875,0 -1.09375,0.21875 -1.375,1.140625 l 0.109375,0.03125 c 0.109375,-0.203125 0.390625,-0.75 1.03125,-0.75 0.515625,0 0.765625,0.375 0.765625,0.734375 0,0.640625 -0.515625,0.96875 -1.15625,1.171875 z m 0,0"
           id="path19" />
      </g>
      <g
         id="use2409"
         transform="translate(220.41699,552.75299)">
        <path
           d="m 1.75,-4.546875 c 0.890625,0 0.90625,1.75 0.90625,2.234375 0,0.546875 -0.015625,2.234375 -0.90625,2.234375 -0.890625,0 -0.90625,-1.671875 -0.90625,-2.234375 0,-0.484375 0.015625,-2.234375 0.90625,-2.234375 z m 0,-0.1875 c -1.28125,0 -1.578125,1.59375 -1.578125,2.421875 0,0.84375 0.296875,2.40625 1.578125,2.40625 1.28125,0 1.578125,-1.5625 1.578125,-2.40625 0,-0.828125 -0.296875,-2.421875 -1.578125,-2.421875 z m 0,0"
           id="path45" />
      </g>
    </g>
    <g
       fill="#231f20"
       fill-opacity="1"
       id="g2413"
       transform="matrix(0.35277777,0,0,0.35277777,-6.768923,-65.64147)">
      <g
         id="use2410"
         transform="translate(265.60898,668.862)">
        <path
           d="M 3.328125,-0.953125 3.234375,-1 C 2.96875,-0.546875 2.828125,-0.53125 2.5625,-0.53125 H 0.890625 l 1.1875,-1.234375 C 2.375,-2.09375 2.96875,-2.734375 2.96875,-3.46875 c 0,-0.78125 -0.625,-1.265625 -1.265625,-1.265625 -0.625,0 -1.28125,0.34375 -1.484375,1.390625 l 0.140625,0.046875 c 0.15625,-0.390625 0.375,-0.921875 1,-0.921875 0.828125,0 1,0.65625 1,1 0,0.53125 -0.296875,1.15625 -0.90625,1.8125 l -1.25,1.328125 V 0 H 2.9375 Z m 0,0"
           id="path22" />
      </g>
      <g
         id="use2411"
         transform="translate(303.7821,668.862)">
        <path
           d="M 3.296875,-1.609375 H 2.59375 v -3.125 h -0.3125 l -2.203125,3.125 v 0.4375 h 1.96875 V 0 H 2.59375 v -1.171875 h 0.703125 z m -1.25,0 h -1.6875 L 2.03125,-4 h 0.015625 z m 0,0"
           id="path18" />
      </g>
      <g
         id="use2412"
         transform="translate(341.9552,668.862)">
        <path
           d="m 3.125,-4.78125 c -1.703125,0.046875 -2.890625,1.328125 -2.890625,2.75 0,1.46875 0.71875,2.125 1.546875,2.125 1.25,0 1.5,-1.109375 1.5,-1.625 C 3.28125,-2.46875 2.734375,-3 1.984375,-3 1.59375,-3 1.453125,-2.90625 1.0625,-2.6875 1.203125,-3.53125 1.890625,-4.484375 3.140625,-4.671875 Z m -1.4375,2.109375 c 0.75,0 0.953125,0.703125 0.953125,1.421875 0,0.78125 -0.3125,1.15625 -0.75,1.15625 -0.53125,0 -1,-0.515625 -1,-1.703125 0,-0.421875 0.0625,-0.578125 0.140625,-0.65625 0.171875,-0.171875 0.421875,-0.21875 0.65625,-0.21875 z m 0,0"
           id="path17" />
      </g>
      <g
         id="use2413"
         transform="translate(380.1283,668.862)">
        <path
           d="m 1.484375,-2.1875 c 0.796875,0.578125 1.09375,0.78125 1.09375,1.3125 0,0.484375 -0.328125,0.78125 -0.765625,0.78125 -0.5625,0 -0.890625,-0.453125 -0.890625,-1 0,-0.640625 0.34375,-0.90625 0.5625,-1.09375 z m -1.09375,1.171875 c 0,0.546875 0.46875,1.109375 1.328125,1.109375 1.171875,0 1.390625,-0.78125 1.390625,-1.140625 0,-0.46875 -0.140625,-0.875 -1.078125,-1.546875 0.375,-0.203125 0.9375,-0.5 0.9375,-1.140625 0,-0.53125 -0.4375,-1 -1.21875,-1 -0.609375,0 -1.3125,0.375 -1.3125,1.09375 0,0.5625 0.28125,0.796875 0.859375,1.3125 -0.625,0.484375 -0.90625,0.703125 -0.90625,1.3125 z m 0.5625,-2.8125 c 0,-0.34375 0.21875,-0.703125 0.75,-0.703125 0.53125,0 0.78125,0.375 0.78125,0.765625 0,0.609375 -0.390625,0.875 -0.65625,1.046875 -0.25,-0.171875 -0.875,-0.5625 -0.875,-1.109375 z m 0,0"
           id="path16" />
      </g>
    </g>
    <g
       fill="#231f20"
       fill-opacity="1"
       id="g2414"
       transform="matrix(0.35277777,0,0,0.35277777,-6.768923,-65.64147)">
      <g
         id="use2414"
         transform="translate(416.55139,668.862)">
        <path
           d="m 0.828125,0 h 1.9375 v -0.109375 c -0.53125,0 -0.671875,-0.078125 -0.671875,-0.40625 V -4.71875 l -0.0625,-0.015625 -1.25,0.640625 V -4 C 1.171875,-4.15625 1.171875,-4.15625 1.25,-4.15625 c 0.234375,0 0.234375,0.1875 0.234375,0.328125 v 3.171875 c 0,0.515625 -0.25,0.53125 -0.65625,0.546875 z m 0,0"
           id="path25" />
      </g>
    </g>
    <g
       fill="#231f20"
       fill-opacity="1"
       id="g2415"
       transform="matrix(0.35277777,0,0,0.35277777,-6.768923,-65.64147)">
      <g
         id="use2415"
         transform="translate(420.0535,668.862)">
        <path
           d="m 1.75,-4.546875 c 0.890625,0 0.90625,1.75 0.90625,2.234375 0,0.546875 -0.015625,2.234375 -0.90625,2.234375 -0.890625,0 -0.90625,-1.671875 -0.90625,-2.234375 0,-0.484375 0.015625,-2.234375 0.90625,-2.234375 z m 0,-0.1875 c -1.28125,0 -1.578125,1.59375 -1.578125,2.421875 0,0.84375 0.296875,2.40625 1.578125,2.40625 1.28125,0 1.578125,-1.5625 1.578125,-2.40625 0,-0.828125 -0.296875,-2.421875 -1.578125,-2.421875 z m 0,0"
           id="path46" />
      </g>
    </g>
    <g
       fill="#231f20"
       fill-opacity="1"
       id="g2416"
       transform="matrix(0.35277777,0,0,0.35277777,-6.768923,-65.64147)">
      <g
         id="use2416"
         transform="translate(314.90799,678.4884)">
        <path
           d="M 3.609375,-0.15625 C 2.9375,-0.171875 2.84375,-0.328125 2.84375,-0.875 v -4.078125 h 0.4375 c 0.875,0 1.109375,0.140625 1.265625,1.015625 H 4.75 L 4.703125,-5.296875 H 0.1875 L 0.140625,-3.9375 h 0.1875 C 0.5,-4.8125 0.71875,-4.953125 1.59375,-4.953125 h 0.4375 v 4 c 0,0.578125 -0.015625,0.765625 -0.75,0.796875 V 0 h 2.328125 z m 0,0"
           id="path15" />
      </g>
    </g>
    <g
       fill="#231f20"
       fill-opacity="1"
       id="g2419"
       transform="matrix(0.35277777,0,0,0.35277777,-6.768923,-65.64147)">
      <g
         id="use2417"
         transform="translate(319.51599,678.4884)">
        <path
           d="M 0.125,0 H 2.03125 V -0.125 C 1.46875,-0.15625 1.4375,-0.28125 1.4375,-0.8125 V -3.65625 L 1.40625,-3.6875 c -0.421875,0.15625 -0.828125,0.3125 -1.25,0.453125 V -3.125 c 0.109375,-0.015625 0.21875,-0.03125 0.328125,-0.03125 0.125,0 0.28125,0.015625 0.28125,0.484375 V -0.8125 c 0,0.625 -0.140625,0.671875 -0.640625,0.6875 z m 0.5,-5.0625 c 0,0.15625 0.109375,0.421875 0.40625,0.421875 0.234375,0 0.40625,-0.1875 0.40625,-0.421875 0,-0.21875 -0.171875,-0.40625 -0.40625,-0.40625 -0.28125,0 -0.40625,0.265625 -0.40625,0.40625 z m 0,0"
           id="path14" />
      </g>
      <g
         id="use2418"
         transform="translate(321.73999,678.4884)">
        <path
           d="m 0.6875,-0.6875 c 0,0.546875 -0.234375,0.5625 -0.5625,0.5625 V 0 h 1.78125 v -0.125 c -0.28125,0 -0.546875,-0.015625 -0.546875,-0.40625 v -2.265625 c 0,-0.03125 0.375,-0.46875 0.921875,-0.46875 0.421875,0 0.546875,0.3125 0.546875,0.84375 V -0.6875 c 0,0.515625 -0.1875,0.546875 -0.546875,0.5625 V 0 H 4.078125 V -0.125 C 3.75,-0.125 3.5,-0.15625 3.5,-0.765625 V -2.78125 c 0.1875,-0.265625 0.453125,-0.484375 0.890625,-0.484375 0.578125,0 0.578125,0.46875 0.578125,0.875 v 1.6875 c 0,0.515625 -0.125,0.53125 -0.515625,0.578125 V 0 h 1.75 V -0.125 L 5.984375,-0.140625 C 5.640625,-0.1875 5.640625,-0.4375 5.640625,-0.609375 V -2.25 c 0,-0.59375 -0.109375,-1.4375 -0.9375,-1.4375 -0.625,0 -1.125,0.484375 -1.28125,0.671875 C 3.328125,-3.34375 3.078125,-3.6875 2.5625,-3.6875 c -0.4375,0 -0.765625,0.265625 -1.234375,0.625 V -3.65625 L 1.265625,-3.6875 C 0.90625,-3.546875 0.53125,-3.421875 0.15625,-3.3125 v 0.125 c 0.0625,-0.015625 0.140625,-0.03125 0.25,-0.03125 0.125,0 0.28125,0.015625 0.28125,0.515625 z m 0,0"
           id="path13" />
      </g>
      <g
         id="use2419"
         transform="translate(327.96399,678.4884)">
        <path
           d="m 3.265625,-1.3125 c -0.1875,0.296875 -0.53125,0.84375 -1.234375,0.84375 -0.53125,0 -1.1875,-0.328125 -1.28125,-1.75 H 3.234375 C 3.15625,-3.265625 2.578125,-3.6875 1.828125,-3.6875 c -0.640625,0 -1.625,0.5 -1.625,1.96875 0,1.140625 0.609375,1.796875 1.5,1.796875 1.140625,0 1.609375,-1.09375 1.6875,-1.328125 z M 0.78125,-2.46875 c 0.125,-0.703125 0.4375,-0.921875 0.875,-0.921875 0.625,0 0.71875,0.53125 0.765625,0.921875 z m 0,0"
           id="path12" />
      </g>
    </g>
    <g
       fill="#231f20"
       fill-opacity="1"
       id="g2429"
       transform="matrix(0.35277777,0,0,0.35277777,-6.768923,-65.64147)">
      <g
         id="use2420"
         transform="translate(205.54999,621.53998)">
        <path
           d="m -5.140625,-0.125 c 0.046875,-0.59375 0.15625,-0.671875 0.71875,-0.671875 h 3.46875 c 0.5625,0 0.75,0 0.796875,0.671875 H 0 v -2.25 h -0.15625 c -0.015625,0.625 -0.125,0.765625 -0.71875,0.765625 h -1.453125 c 0.015625,-0.203125 0.03125,-0.34375 0.03125,-0.546875 0,-0.828125 -0.15625,-1.34375 -0.484375,-1.6875 -0.125,-0.140625 -0.453125,-0.5 -1.078125,-0.5 -1.015625,0 -1.4375,1 -1.4375,2.109375 V -0.125 Z m 0.40625,-1.484375 C -4.984375,-1.609375 -5,-1.703125 -5,-1.9375 c 0,-0.359375 0.015625,-1.53125 1.15625,-1.53125 1.21875,0 1.21875,1.078125 1.21875,1.375 0,0.171875 0,0.328125 -0.015625,0.484375 z m 0,0"
           id="path11" />
      </g>
      <g
         id="use2421"
         transform="translate(205.54999,617.09198)">
        <path
           d="m -0.671875,-0.609375 c 0.453125,0 0.46875,0.125 0.546875,0.5625 H 0 v -1.90625 h -0.125 c -0.015625,0.40625 -0.046875,0.671875 -0.59375,0.671875 h -1.796875 c -0.265625,0 -0.65625,-0.34375 -0.65625,-0.546875 0,-0.1875 0.28125,-0.265625 0.28125,-0.546875 0,-0.1875 -0.15625,-0.3125 -0.359375,-0.3125 -0.265625,0 -0.4375,0.171875 -0.4375,0.4375 0,0.3125 0.171875,0.578125 0.734375,0.953125 V -1.28125 H -3.65625 l -0.03125,0.046875 c 0.171875,0.390625 0.3125,0.78125 0.4375,1.171875 h 0.125 c -0.015625,-0.0625 -0.03125,-0.15625 -0.03125,-0.265625 0,-0.125 0.015625,-0.28125 0.484375,-0.28125 z m 0,0"
           id="path9" />
      </g>
      <g
         id="use2422"
         transform="translate(205.54999,614.42798)">
        <path
           d="m -3.6875,-1.953125 c 0,1.0625 0.875,1.71875 1.859375,1.71875 1.078125,0 1.90625,-0.71875 1.90625,-1.75 0,-1.21875 -1.109375,-1.78125 -1.90625,-1.78125 -1.15625,0 -1.859375,0.75 -1.859375,1.8125 z m 3.546875,-0.140625 c 0,0.953125 -1.46875,1.140625 -2.0625,1.140625 -0.84375,0 -1.25,-0.4375 -1.25,-0.9375 0,-0.734375 0.875,-1.15625 1.859375,-1.15625 1.140625,0 1.453125,0.546875 1.453125,0.953125 z m 0,0"
           id="path6" />
      </g>
      <g
         id="use2423"
         transform="translate(205.54999,610.42798)">
        <path
           d="m 1.046875,-0.59375 c 0.34375,0 0.515625,0.03125 0.546875,0.546875 H 1.734375 V -1.96875 H 1.59375 c 0,0.5625 -0.09375,0.703125 -0.609375,0.703125 h -1.25 c 0.25,-0.265625 0.34375,-0.5 0.34375,-0.8125 0,-1.109375 -1.125,-1.6875 -2.03125,-1.6875 -1.078125,0 -1.734375,0.609375 -1.734375,1.328125 0,0.609375 0.40625,0.984375 0.625,1.15625 l -0.015625,0.015625 H -3.65625 L -3.6875,-1.21875 c 0.15625,0.375 0.296875,0.765625 0.421875,1.140625 h 0.125 c -0.015625,-0.0625 -0.015625,-0.140625 -0.015625,-0.21875 0,-0.28125 0.140625,-0.296875 0.453125,-0.296875 z m -3.71875,-0.671875 c -0.296875,-0.046875 -0.53125,-0.5 -0.53125,-0.796875 0,-0.96875 1.296875,-1.015625 1.484375,-1.015625 1.390625,0 1.546875,0.71875 1.546875,0.984375 0,0.453125 -0.34375,0.828125 -0.53125,0.828125 z m 0,0"
           id="path5" />
      </g>
      <g
         id="use2424"
         transform="translate(205.54999,606.42798)">
        <path
           d="m -3.6875,-1.953125 c 0,1.0625 0.875,1.71875 1.859375,1.71875 1.078125,0 1.90625,-0.71875 1.90625,-1.75 0,-1.21875 -1.109375,-1.78125 -1.90625,-1.78125 -1.15625,0 -1.859375,0.75 -1.859375,1.8125 z m 3.546875,-0.140625 c 0,0.953125 -1.46875,1.140625 -2.0625,1.140625 -0.84375,0 -1.25,-0.4375 -1.25,-0.9375 0,-0.734375 0.875,-1.15625 1.859375,-1.15625 1.140625,0 1.453125,0.546875 1.453125,0.953125 z m 0,0"
           id="path7" />
      </g>
      <g
         id="use2425"
         transform="translate(205.54999,602.42798)">
        <path
           d="m -0.671875,-0.609375 c 0.453125,0 0.46875,0.125 0.546875,0.5625 H 0 v -1.90625 h -0.125 c -0.015625,0.40625 -0.046875,0.671875 -0.59375,0.671875 h -1.796875 c -0.265625,0 -0.65625,-0.34375 -0.65625,-0.546875 0,-0.1875 0.28125,-0.265625 0.28125,-0.546875 0,-0.1875 -0.15625,-0.3125 -0.359375,-0.3125 -0.265625,0 -0.4375,0.171875 -0.4375,0.4375 0,0.3125 0.171875,0.578125 0.734375,0.953125 V -1.28125 H -3.65625 l -0.03125,0.046875 c 0.171875,0.390625 0.3125,0.78125 0.4375,1.171875 h 0.125 c -0.015625,-0.0625 -0.03125,-0.15625 -0.03125,-0.265625 0,-0.125 0.015625,-0.28125 0.484375,-0.28125 z m 0,0"
           id="path10" />
      </g>
      <g
         id="use2426"
         transform="translate(205.54999,599.76398)">
        <path
           d="m -3.59375,-2.046875 v 0.8125 h -0.9375 c -0.0625,0 -0.09375,0 -0.09375,0.0625 0.421875,0.296875 0.59375,0.40625 0.90625,0.71875 0.171875,0.171875 0.21875,0.34375 0.3125,0.34375 0.03125,0 0.046875,-0.015625 0.0625,-0.03125 V -0.5625 h 2.40625 c 0.796875,0 1.015625,-0.328125 1.015625,-0.734375 0,-0.359375 -0.265625,-0.75 -0.609375,-0.9375 L -0.609375,-2.125 c 0.09375,0.078125 0.265625,0.234375 0.265625,0.484375 0,0.40625 -0.46875,0.40625 -0.71875,0.40625 h -2.28125 v -0.8125 z m 0,0"
           id="path4" />
      </g>
      <g
         id="use2427"
         transform="translate(205.54999,597.53998)">
        <path
           d="m 0,-0.125 v -1.90625 h -0.125 c -0.03125,0.5625 -0.15625,0.59375 -0.6875,0.59375 h -2.84375 l -0.03125,0.03125 c 0.15625,0.421875 0.3125,0.828125 0.453125,1.25 H -3.125 c -0.015625,-0.109375 -0.03125,-0.21875 -0.03125,-0.328125 0,-0.125 0.015625,-0.28125 0.484375,-0.28125 H -0.8125 c 0.625,0 0.671875,0.140625 0.6875,0.640625 z m -5.0625,-0.5 c 0.15625,0 0.421875,-0.109375 0.421875,-0.40625 0,-0.234375 -0.1875,-0.40625 -0.421875,-0.40625 -0.21875,0 -0.40625,0.171875 -0.40625,0.40625 0,0.28125 0.265625,0.40625 0.40625,0.40625 z m 0,0"
           id="path3" />
      </g>
      <g
         id="use2428"
         transform="translate(205.54999,595.31598)">
        <path
           d="m -3.6875,-1.953125 c 0,1.0625 0.875,1.71875 1.859375,1.71875 1.078125,0 1.90625,-0.71875 1.90625,-1.75 0,-1.21875 -1.109375,-1.78125 -1.90625,-1.78125 -1.15625,0 -1.859375,0.75 -1.859375,1.8125 z m 3.546875,-0.140625 c 0,0.953125 -1.46875,1.140625 -2.0625,1.140625 -0.84375,0 -1.25,-0.4375 -1.25,-0.9375 0,-0.734375 0.875,-1.15625 1.859375,-1.15625 1.140625,0 1.453125,0.546875 1.453125,0.953125 z m 0,0"
           id="path8" />
      </g>
      <g
         id="use2429"
         transform="translate(205.54999,591.31598)">
        <path
           d="m -0.71875,-0.640625 c 0.46875,0 0.578125,0.125 0.59375,0.5 H 0 V -1.84375 h -0.125 c -0.015625,0.421875 -0.140625,0.53125 -0.40625,0.53125 h -2.25 c -0.296875,-0.296875 -0.453125,-0.546875 -0.453125,-0.796875 0,-0.46875 0.28125,-0.609375 0.765625,-0.609375 h 1.671875 c 0.609375,0 0.65625,0.203125 0.671875,0.5 H 0 V -3.875 h -0.125 c -0.03125,0.390625 -0.140625,0.484375 -0.515625,0.484375 h -1.84375 c -0.984375,0 -1.203125,0.5625 -1.203125,0.9375 0,0.46875 0.28125,0.765625 0.65625,1.171875 h -0.625 l -0.03125,0.046875 c 0.140625,0.375 0.265625,0.75 0.375,1.109375 h 0.125 c -0.015625,-0.03125 -0.03125,-0.125 -0.03125,-0.234375 0,-0.125 0.015625,-0.28125 0.515625,-0.28125 z m 0,0"
           id="path1" />
      </g>
    </g>
  </g>
</svg>
