<?xml version="1.0" encoding="UTF-8" standalone="no"?>
<!-- Created with Inkscape (http://www.inkscape.org/) -->

<svg
   width="50.309235mm"
   height="24.549078mm"
   viewBox="0 0 50.309235 24.549078"
   version="1.1"
   id="svg1"
   inkscape:version="1.3.2 (091e20e, 2023-11-25)"
   sodipodi:docname="fig-1-3.svg"
   xmlns:inkscape="http://www.inkscape.org/namespaces/inkscape"
   xmlns:sodipodi="http://sodipodi.sourceforge.net/DTD/sodipodi-0.dtd"
   xmlns="http://www.w3.org/2000/svg"
   xmlns:svg="http://www.w3.org/2000/svg">
  <sodipodi:namedview
     id="namedview1"
     pagecolor="#ffffff"
     bordercolor="#000000"
     borderopacity="0.25"
     inkscape:showpageshadow="2"
     inkscape:pageopacity="0.0"
     inkscape:pagecheckerboard="0"
     inkscape:deskcolor="#d1d1d1"
     inkscape:document-units="mm"
     inkscape:zoom="0.2102413"
     inkscape:cx="97.507007"
     inkscape:cy="47.564393"
     inkscape:window-width="1312"
     inkscape:window-height="449"
     inkscape:window-x="0"
     inkscape:window-y="38"
     inkscape:window-maximized="0"
     inkscape:current-layer="layer1" />
  <defs
     id="defs1" />
  <g
     inkscape:label="Layer 1"
     inkscape:groupmode="layer"
     id="layer1"
     transform="translate(-79.911245,-136.25006)">
    <path
       fill="none"
       stroke-width="0.352778"
       stroke-linecap="butt"
       stroke-linejoin="miter"
       stroke="#000000"
       stroke-opacity="1"
       stroke-miterlimit="4"
       d="M 130.04409,136.4368 H 82.197222 v 24.18595 h 47.846868 z m -47.846868,0 z m 28.339358,16.79691 c -1.90721,0 -3.65594,-0.46302 -5.0202,-1.23334 -1.36425,0.77032 -3.11298,1.23334 -5.02019,1.23334 -4.355977,0 -7.887889,-2.4157 -7.887889,-5.39777 0,-2.9807 3.531912,-5.39778 7.887889,-5.39778 1.90721,0 3.65594,0.46302 5.02019,1.23472 1.36426,-0.7717 3.11299,-1.23472 5.0202,-1.23472 4.35736,0 7.88789,2.41708 7.88789,5.39778 0,2.98207 -3.53053,5.39777 -7.88789,5.39777 z m -7.88789,-5.39777 c 0,-1.6757 1.11621,-3.17363 2.86769,-4.16306 -1.36288,-0.7717 -3.11298,-1.23472 -5.02019,-1.23472 -4.355977,0 -7.887889,2.41708 -7.887889,5.39778 0,2.98069 3.531912,5.39777 7.887889,5.39777 1.90721,0 3.65731,-0.46302 5.02019,-1.23334 -1.75148,-0.99081 -2.86769,-2.48874 -2.86769,-4.16443 z m 7.88789,-5.39778 c -1.90721,0 -3.65594,0.46302 -5.0202,1.23472 1.75149,0.98943 2.8677,2.48736 2.8677,4.16306 0,1.67569 -1.11621,3.17362 -2.8677,4.16443 1.36426,0.77032 3.11299,1.23334 5.0202,1.23334 4.35736,0 7.88789,-2.41708 7.88789,-5.39777 0,-2.9807 -3.53053,-5.39778 -7.88789,-5.39778 z m 0,0"
       id="path2186" />
    <path
       fill-rule="nonzero"
       fill="#cccccc"
       fill-opacity="1"
       d="m 108.38408,147.83594 c 0,-1.6757 -1.11621,-3.17363 -2.8677,-4.16306 -1.75148,0.98943 -2.86907,2.48736 -2.86907,4.16306 0,1.67569 1.11759,3.17362 2.86907,4.16443 1.75149,-0.99081 2.8677,-2.48874 2.8677,-4.16443"
       id="path2187"
       style="stroke-width:0.352778" />
    <path
       fill="none"
       stroke-width="0.352778"
       stroke-linecap="butt"
       stroke-linejoin="miter"
       stroke="#000000"
       stroke-opacity="1"
       stroke-miterlimit="4"
       d="m 108.38408,147.83594 c 0,-1.67569 -1.11621,-3.17362 -2.8677,-4.16305 -1.75148,0.98943 -2.86907,2.48736 -2.86907,4.16305 0,1.6757 1.11759,3.17362 2.86907,4.16443 1.75149,-0.99081 2.8677,-2.48873 2.8677,-4.16443 z m 0,0"
       id="path2188" />
    <g
       fill="#231f20"
       fill-opacity="1"
       id="g2189"
       transform="matrix(0.35277777,0,0,0.35277777,9.5994163,-79.180693)">
      <g
         id="use2188"
         transform="translate(236.40849,631.04602)">
        <path
           d="m 2.9375,-5.34375 -2.3125,4 c -0.65625,1.125 -0.734375,1.140625 -1.03125,1.21875 V 0 h 1.5 v -0.125 c -0.375,-0.03125 -0.484375,-0.078125 -0.484375,-0.28125 0,-0.171875 0.046875,-0.28125 0.171875,-0.5 L 1.234375,-1.8125 h 1.75 l 0.171875,1.046875 c 0.015625,0.125 0.015625,0.234375 0.015625,0.234375 0,0.328125 -0.21875,0.375 -0.625,0.40625 V 0 h 1.96875 V -0.125 C 4.046875,-0.171875 4,-0.25 3.90625,-0.8125 l -0.75,-4.53125 z m -1.53125,3.25 1.1875,-2.078125 0.359375,2.078125 z m 0,0"
           id="path4" />
      </g>
      <g
         id="use2189"
         transform="translate(303.39651,631.04602)">
        <path
           d="m -0.0625,0 h 2.25 c 1.03125,0 2.125,-0.5 2.125,-1.59375 0,-0.78125 -0.5625,-1.015625 -0.984375,-1.203125 V -2.8125 c 0.75,-0.15625 1.375,-0.5 1.375,-1.21875 0,-0.921875 -0.765625,-1.1875 -1.59375,-1.1875 h -2.0625 v 0.125 c 0.375,0.015625 0.609375,0.046875 0.609375,0.34375 0,0.140625 -0.046875,0.3125 -0.09375,0.5 l -0.984375,3.53125 c -0.125,0.5 -0.25,0.515625 -0.640625,0.59375 z M 1.375,-0.59375 c 0,-0.15625 0.40625,-1.546875 0.53125,-2.046875 0.546875,0 0.90625,0.015625 1.109375,0.140625 0.234375,0.140625 0.4375,0.421875 0.4375,0.84375 0,0.78125 -0.46875,1.421875 -1.59375,1.421875 C 1.625,-0.234375 1.375,-0.296875 1.375,-0.59375 Z M 2.5,-4.765625 C 2.53125,-4.875 2.5625,-4.984375 3,-4.984375 c 0.59375,0 0.890625,0.28125 0.890625,0.828125 0,1.25 -1.140625,1.28125 -1.90625,1.25 z m 0,0"
           id="path3" />
      </g>
    </g>
    <g
       fill="#231f20"
       fill-opacity="1"
       id="g2190"
       transform="matrix(0.35277777,0,0,0.35277777,9.5994163,-79.180693)">
      <g
         id="use2190"
         transform="translate(199.1685,615.99799)">
        <path
           d="M 3.75,-3.75 4.0625,-5.328125 H 3.875 C 3.78125,-5.1875 3.71875,-5.125 3.53125,-5.125 3.375,-5.125 3.265625,-5.171875 3.125,-5.234375 2.96875,-5.28125 2.78125,-5.328125 2.421875,-5.328125 c -0.734375,0 -1.375,0.53125 -1.375,1.3125 0,0.515625 0.046875,0.609375 1.140625,1.78125 0.265625,0.28125 0.5625,0.53125 0.5625,1.046875 0,0.390625 -0.28125,1.046875 -1.03125,1.046875 -0.71875,0 -1.171875,-0.625 -1.171875,-1.34375 0,-0.0625 0.015625,-0.09375 0.015625,-0.15625 L 0.40625,-1.65625 0.140625,0.125 H 0.28125 C 0.3125,0.015625 0.375,-0.140625 0.59375,-0.140625 c 0.265625,0 0.671875,0.28125 1.234375,0.28125 1.0625,0 1.625,-0.828125 1.625,-1.578125 0,-0.53125 -0.171875,-0.84375 -0.90625,-1.578125 -0.703125,-0.6875 -0.796875,-0.875 -0.796875,-1.25 0,-0.53125 0.40625,-0.796875 0.84375,-0.796875 0.96875,0 1,0.84375 1,1.296875 z m 0,0"
           id="path1" />
      </g>
    </g>
  </g>
</svg>
