<?xml version="1.0" encoding="UTF-8" standalone="no"?>
<!-- Created with Inkscape (http://www.inkscape.org/) -->

<svg
   width="50.309765mm"
   height="24.550621mm"
   viewBox="0 0 50.309765 24.550621"
   version="1.1"
   id="svg1"
   inkscape:version="1.3.2 (091e20e, 2023-11-25)"
   sodipodi:docname="fig-1-1.svg"
   xmlns:inkscape="http://www.inkscape.org/namespaces/inkscape"
   xmlns:sodipodi="http://sodipodi.sourceforge.net/DTD/sodipodi-0.dtd"
   xmlns="http://www.w3.org/2000/svg"
   xmlns:svg="http://www.w3.org/2000/svg">
  <sodipodi:namedview
     id="namedview1"
     pagecolor="#ffffff"
     bordercolor="#000000"
     borderopacity="0.25"
     inkscape:showpageshadow="2"
     inkscape:pageopacity="0.0"
     inkscape:pagecheckerboard="0"
     inkscape:deskcolor="#d1d1d1"
     inkscape:document-units="mm"
     inkscape:zoom="0.2102413"
     inkscape:cx="97.507007"
     inkscape:cy="47.564393"
     inkscape:window-width="1312"
     inkscape:window-height="449"
     inkscape:window-x="0"
     inkscape:window-y="38"
     inkscape:window-maximized="0"
     inkscape:current-layer="layer1" />
  <defs
     id="defs1" />
  <g
     inkscape:label="Layer 1"
     inkscape:groupmode="layer"
     id="layer1"
     transform="translate(-79.910712,-136.24714)">
    <path
       fill-rule="nonzero"
       fill="#d1d2d4"
       fill-opacity="1"
       stroke-width="0.352778"
       stroke-linecap="butt"
       stroke-linejoin="miter"
       stroke="#000000"
       stroke-opacity="1"
       stroke-miterlimit="4"
       d="M 130.04409,160.62137 H 82.197222 V 136.4368 h 47.846868 z m 0,0"
       id="path163" />
    <path
       fill-rule="nonzero"
       fill="#ffffff"
       fill-opacity="1"
       d="m 115.0717,148.52909 c 0,3.20945 -4.00733,5.81118 -8.95174,5.81118 -4.94302,0 -8.951731,-2.60173 -8.951731,-5.81118 0,-3.20945 4.008711,-5.81119 8.951731,-5.81119 4.94441,0 8.95174,2.60174 8.95174,5.81119"
       id="path164"
       style="stroke-width:0.352778" />
    <path
       fill="none"
       stroke-width="0.352778"
       stroke-linecap="butt"
       stroke-linejoin="miter"
       stroke="#000000"
       stroke-opacity="1"
       stroke-miterlimit="4"
       d="m 115.0717,148.52909 c 0,3.20945 -4.00734,5.81118 -8.95174,5.81118 -4.94302,0 -8.951735,-2.60173 -8.951735,-5.81118 0,-3.20945 4.008715,-5.81119 8.951735,-5.81119 4.9444,0 8.95174,2.60174 8.95174,5.81119 z m 0,0"
       id="path165" />
    <g
       fill="#231f20"
       fill-opacity="1"
       id="g165"
       transform="matrix(0.35277777,0,0,0.35277777,9.5994163,113.4401)">
      <g
         id="use165"
         transform="translate(308.604,121.955)">
        <path
           d="m 2.9375,-5.34375 -2.3125,4 c -0.65625,1.125 -0.734375,1.140625 -1.03125,1.21875 V 0 h 1.5 v -0.125 c -0.375,-0.03125 -0.484375,-0.078125 -0.484375,-0.28125 0,-0.171875 0.046875,-0.28125 0.171875,-0.5 L 1.234375,-1.8125 h 1.75 l 0.171875,1.046875 c 0.015625,0.125 0.015625,0.234375 0.015625,0.234375 0,0.328125 -0.21875,0.375 -0.625,0.40625 V 0 h 1.96875 V -0.125 C 4.046875,-0.171875 4,-0.25 3.90625,-0.8125 l -0.75,-4.53125 z m -1.53125,3.25 1.1875,-2.078125 0.359375,2.078125 z m 0,0"
           id="path4" />
      </g>
    </g>
    <g
       fill="#231f20"
       fill-opacity="1"
       id="g166"
       transform="matrix(0.35277777,0,0,0.35277777,9.5994163,113.4401)">
      <g
         id="use166"
         transform="translate(313.492,118.955)">
        <path
           d="m 2.09375,-0.640625 c -0.203125,0.25 -0.484375,0.484375 -0.859375,0.484375 -0.359375,0 -0.53125,-0.265625 -0.53125,-0.71875 0,-0.578125 0.40625,-1.640625 1.1875,-1.640625 0.109375,0 0.234375,0.03125 0.234375,0.109375 0,0.109375 -0.09375,0.140625 -0.09375,0.296875 0,0.140625 0.09375,0.21875 0.234375,0.21875 0.15625,0 0.28125,-0.09375 0.28125,-0.265625 0,-0.1875 -0.140625,-0.484375 -0.65625,-0.484375 -0.875,0 -1.703125,0.90625 -1.703125,1.765625 0,0.796875 0.484375,0.9375 0.875,0.9375 0.640625,0 0.984375,-0.453125 1.140625,-0.640625 z m 0,0"
           id="path1" />
      </g>
    </g>
    <g
       fill="#231f20"
       fill-opacity="1"
       id="g167"
       transform="matrix(0.35277777,0,0,0.35277777,9.5994163,113.4401)">
      <g
         id="use167"
         transform="translate(254.88699,97.321999)">
        <path
           d="m 2.9375,-5.34375 -2.3125,4 c -0.65625,1.125 -0.734375,1.140625 -1.03125,1.21875 V 0 h 1.5 v -0.125 c -0.375,-0.03125 -0.484375,-0.078125 -0.484375,-0.28125 0,-0.171875 0.046875,-0.28125 0.171875,-0.5 L 1.234375,-1.8125 h 1.75 l 0.171875,1.046875 c 0.015625,0.125 0.015625,0.234375 0.015625,0.234375 0,0.328125 -0.21875,0.375 -0.625,0.40625 V 0 h 1.96875 V -0.125 C 4.046875,-0.171875 4,-0.25 3.90625,-0.8125 l -0.75,-4.53125 z m -1.53125,3.25 1.1875,-2.078125 0.359375,2.078125 z m 0,0"
           id="path5" />
      </g>
    </g>
    <g
       fill="#231f20"
       fill-opacity="1"
       id="g168"
       transform="matrix(0.35277777,0,0,0.35277777,9.5994163,113.4401)">
      <g
         id="use168"
         transform="translate(199.16699,69.977997)">
        <path
           d="M 3.75,-3.75 4.0625,-5.328125 H 3.875 C 3.78125,-5.1875 3.71875,-5.125 3.53125,-5.125 3.375,-5.125 3.265625,-5.171875 3.125,-5.234375 2.96875,-5.28125 2.78125,-5.328125 2.421875,-5.328125 c -0.734375,0 -1.375,0.53125 -1.375,1.3125 0,0.515625 0.046875,0.609375 1.140625,1.78125 0.265625,0.28125 0.5625,0.53125 0.5625,1.046875 0,0.390625 -0.28125,1.046875 -1.03125,1.046875 -0.71875,0 -1.171875,-0.625 -1.171875,-1.34375 0,-0.0625 0.015625,-0.09375 0.015625,-0.15625 L 0.40625,-1.65625 0.140625,0.125 H 0.28125 C 0.3125,0.015625 0.375,-0.140625 0.59375,-0.140625 c 0.265625,0 0.671875,0.28125 1.234375,0.28125 1.0625,0 1.625,-0.828125 1.625,-1.578125 0,-0.53125 -0.171875,-0.84375 -0.90625,-1.578125 -0.703125,-0.6875 -0.796875,-0.875 -0.796875,-1.25 0,-0.53125 0.40625,-0.796875 0.84375,-0.796875 0.96875,0 1,0.84375 1,1.296875 z m 0,0"
           id="path3" />
      </g>
    </g>
  </g>
</svg>
