<?xml version="1.0" encoding="UTF-8" standalone="no"?>
<!-- Created with Inkscape (http://www.inkscape.org/) -->

<svg
   width="50.309891mm"
   height="24.538729mm"
   viewBox="0 0 50.309891 24.538729"
   version="1.1"
   id="svg1"
   inkscape:version="1.3.2 (091e20e, 2023-11-25)"
   sodipodi:docname="fig-1-6.svg"
   xmlns:inkscape="http://www.inkscape.org/namespaces/inkscape"
   xmlns:sodipodi="http://sodipodi.sourceforge.net/DTD/sodipodi-0.dtd"
   xmlns="http://www.w3.org/2000/svg"
   xmlns:svg="http://www.w3.org/2000/svg">
  <sodipodi:namedview
     id="namedview1"
     pagecolor="#ffffff"
     bordercolor="#000000"
     borderopacity="0.25"
     inkscape:showpageshadow="2"
     inkscape:pageopacity="0.0"
     inkscape:pagecheckerboard="0"
     inkscape:deskcolor="#d1d1d1"
     inkscape:document-units="mm"
     inkscape:zoom="0.2102413"
     inkscape:cx="97.507007"
     inkscape:cy="47.564393"
     inkscape:window-width="1312"
     inkscape:window-height="449"
     inkscape:window-x="0"
     inkscape:window-y="38"
     inkscape:window-maximized="0"
     inkscape:current-layer="layer1" />
  <defs
     id="defs1" />
  <g
     inkscape:label="Layer 1"
     inkscape:groupmode="layer"
     id="layer1"
     transform="translate(-79.910587,-136.26041)">
    <path
       fill="none"
       stroke-width="0.352778"
       stroke-linecap="butt"
       stroke-linejoin="miter"
       stroke="#000000"
       stroke-opacity="1"
       stroke-miterlimit="4"
       d="M 130.04409,136.4368 H 82.197224 v 24.18595 h 47.846866 z m -47.846866,0 z m 0,0"
       id="path227" />
    <g
       fill="#231f20"
       fill-opacity="1"
       id="g229"
       transform="matrix(0.35277777,0,0,0.35277777,9.8543533,112.96744)">
      <g
         id="use228"
         transform="translate(237.83699,88.016998)">
        <path
           d="m 2.9375,-5.34375 -2.3125,4 c -0.65625,1.125 -0.734375,1.140625 -1.03125,1.21875 V 0 h 1.5 v -0.125 c -0.375,-0.03125 -0.484375,-0.078125 -0.484375,-0.28125 0,-0.171875 0.046875,-0.28125 0.171875,-0.5 L 1.234375,-1.8125 h 1.75 l 0.171875,1.046875 c 0.015625,0.125 0.015625,0.234375 0.015625,0.234375 0,0.328125 -0.21875,0.375 -0.625,0.40625 V 0 h 1.96875 V -0.125 C 4.046875,-0.171875 4,-0.25 3.90625,-0.8125 l -0.75,-4.53125 z m -1.53125,3.25 1.1875,-2.078125 0.359375,2.078125 z m 0,0"
           id="path12" />
      </g>
      <g
         id="use229"
         transform="translate(303.63458,88.016998)">
        <path
           d="m -0.0625,0 h 2.25 c 1.03125,0 2.125,-0.5 2.125,-1.59375 0,-0.78125 -0.5625,-1.015625 -0.984375,-1.203125 V -2.8125 c 0.75,-0.15625 1.375,-0.5 1.375,-1.21875 0,-0.921875 -0.765625,-1.1875 -1.59375,-1.1875 h -2.0625 v 0.125 c 0.375,0.015625 0.609375,0.046875 0.609375,0.34375 0,0.140625 -0.046875,0.3125 -0.09375,0.5 l -0.984375,3.53125 c -0.125,0.5 -0.25,0.515625 -0.640625,0.59375 z M 1.375,-0.59375 c 0,-0.15625 0.40625,-1.546875 0.53125,-2.046875 0.546875,0 0.90625,0.015625 1.109375,0.140625 0.234375,0.140625 0.4375,0.421875 0.4375,0.84375 0,0.78125 -0.46875,1.421875 -1.59375,1.421875 C 1.625,-0.234375 1.375,-0.296875 1.375,-0.59375 Z M 2.5,-4.765625 C 2.53125,-4.875 2.5625,-4.984375 3,-4.984375 c 0.59375,0 0.890625,0.28125 0.890625,0.828125 0,1.25 -1.140625,1.28125 -1.90625,1.25 z m 0,0"
           id="path8" />
      </g>
    </g>
    <g
       fill="#231f20"
       fill-opacity="1"
       id="g230"
       transform="matrix(0.35277777,0,0,0.35277777,9.8543533,112.96744)">
      <g
         id="use230"
         transform="translate(264.461,102.897)">
        <path
           d="m 2.9375,-5.34375 -2.3125,4 c -0.65625,1.125 -0.734375,1.140625 -1.03125,1.21875 V 0 h 1.5 v -0.125 c -0.375,-0.03125 -0.484375,-0.078125 -0.484375,-0.28125 0,-0.171875 0.046875,-0.28125 0.171875,-0.5 L 1.234375,-1.8125 h 1.75 l 0.171875,1.046875 c 0.015625,0.125 0.015625,0.234375 0.015625,0.234375 0,0.328125 -0.21875,0.375 -0.625,0.40625 V 0 h 1.96875 V -0.125 C 4.046875,-0.171875 4,-0.25 3.90625,-0.8125 l -0.75,-4.53125 z m -1.53125,3.25 1.1875,-2.078125 0.359375,2.078125 z m 0,0"
           id="path13" />
      </g>
    </g>
    <g
       fill="#231f20"
       fill-opacity="1"
       id="g231"
       transform="matrix(0.35277777,0,0,0.35277777,9.8543533,112.96744)">
      <g
         id="use231"
         transform="translate(269.349,102.897)">
        <path
           d="m 5.3125,0 h 0.46875 v -2.890625 c 0,-1.515625 -1,-2.3125 -2.453125,-2.3125 -1.453125,0 -2.453125,0.796875 -2.453125,2.3125 V 0 h 0.46875 v -2.890625 c 0,-1.25 0.828125,-1.84375 1.984375,-1.84375 1.15625,0 1.984375,0.59375 1.984375,1.84375 z m 0,0"
           id="path4" />
      </g>
    </g>
    <g
       fill="#231f20"
       fill-opacity="1"
       id="g232"
       transform="matrix(0.35277777,0,0,0.35277777,9.8543533,112.96744)">
      <g
         id="use232"
         transform="translate(276.41299,102.897)">
        <path
           d="m -0.0625,0 h 2.25 c 1.03125,0 2.125,-0.5 2.125,-1.59375 0,-0.78125 -0.5625,-1.015625 -0.984375,-1.203125 V -2.8125 c 0.75,-0.15625 1.375,-0.5 1.375,-1.21875 0,-0.921875 -0.765625,-1.1875 -1.59375,-1.1875 h -2.0625 v 0.125 c 0.375,0.015625 0.609375,0.046875 0.609375,0.34375 0,0.140625 -0.046875,0.3125 -0.09375,0.5 l -0.984375,3.53125 c -0.125,0.5 -0.25,0.515625 -0.640625,0.59375 z M 1.375,-0.59375 c 0,-0.15625 0.40625,-1.546875 0.53125,-2.046875 0.546875,0 0.90625,0.015625 1.109375,0.140625 0.234375,0.140625 0.4375,0.421875 0.4375,0.84375 0,0.78125 -0.46875,1.421875 -1.59375,1.421875 C 1.625,-0.234375 1.375,-0.296875 1.375,-0.59375 Z M 2.5,-4.765625 C 2.53125,-4.875 2.5625,-4.984375 3,-4.984375 c 0.59375,0 0.890625,0.28125 0.890625,0.828125 0,1.25 -1.140625,1.28125 -1.90625,1.25 z m 0,0"
           id="path9" />
      </g>
    </g>
    <g
       fill="#231f20"
       fill-opacity="1"
       id="g233"
       transform="matrix(0.35277777,0,0,0.35277777,9.8543533,112.96744)">
      <g
         id="use233"
         transform="translate(239.39699,99.425003)">
        <path
           d="m 2.9375,-5.34375 -2.3125,4 c -0.65625,1.125 -0.734375,1.140625 -1.03125,1.21875 V 0 h 1.5 v -0.125 c -0.375,-0.03125 -0.484375,-0.078125 -0.484375,-0.28125 0,-0.171875 0.046875,-0.28125 0.171875,-0.5 L 1.234375,-1.8125 h 1.75 l 0.171875,1.046875 c 0.015625,0.125 0.015625,0.234375 0.015625,0.234375 0,0.328125 -0.21875,0.375 -0.625,0.40625 V 0 h 1.96875 V -0.125 C 4.046875,-0.171875 4,-0.25 3.90625,-0.8125 l -0.75,-4.53125 z m -1.53125,3.25 1.1875,-2.078125 0.359375,2.078125 z m 0,0"
           id="path14" />
      </g>
    </g>
    <g
       fill="#231f20"
       fill-opacity="1"
       id="g234"
       transform="matrix(0.35277777,0,0,0.35277777,9.8543533,112.96744)">
      <g
         id="use234"
         transform="translate(244.28499,99.425003)">
        <path
           d="m 5.3125,0 h 0.46875 v -2.890625 c 0,-1.515625 -1,-2.3125 -2.453125,-2.3125 -1.453125,0 -2.453125,0.796875 -2.453125,2.3125 V 0 h 0.46875 v -2.890625 c 0,-1.25 0.828125,-1.84375 1.984375,-1.84375 1.15625,0 1.984375,0.59375 1.984375,1.84375 z m 0,0"
           id="path5" />
      </g>
    </g>
    <g
       fill="#231f20"
       fill-opacity="1"
       id="g235"
       transform="matrix(0.35277777,0,0,0.35277777,9.8543533,112.96744)">
      <g
         id="use235"
         transform="translate(251.34898,99.425003)">
        <path
           d="m -0.0625,0 h 2.25 c 1.03125,0 2.125,-0.5 2.125,-1.59375 0,-0.78125 -0.5625,-1.015625 -0.984375,-1.203125 V -2.8125 c 0.75,-0.15625 1.375,-0.5 1.375,-1.21875 0,-0.921875 -0.765625,-1.1875 -1.59375,-1.1875 h -2.0625 v 0.125 c 0.375,0.015625 0.609375,0.046875 0.609375,0.34375 0,0.140625 -0.046875,0.3125 -0.09375,0.5 l -0.984375,3.53125 c -0.125,0.5 -0.25,0.515625 -0.640625,0.59375 z M 1.375,-0.59375 c 0,-0.15625 0.40625,-1.546875 0.53125,-2.046875 0.546875,0 0.90625,0.015625 1.109375,0.140625 0.234375,0.140625 0.4375,0.421875 0.4375,0.84375 0,0.78125 -0.46875,1.421875 -1.59375,1.421875 C 1.625,-0.234375 1.375,-0.296875 1.375,-0.59375 Z M 2.5,-4.765625 C 2.53125,-4.875 2.5625,-4.984375 3,-4.984375 c 0.59375,0 0.890625,0.28125 0.890625,0.828125 0,1.25 -1.140625,1.28125 -1.90625,1.25 z m 0,0"
           id="path10" />
      </g>
    </g>
    <g
       fill="#231f20"
       fill-opacity="1"
       id="g236"
       transform="matrix(0.35277777,0,0,0.35277777,9.8543533,112.96744)">
      <g
         id="use236"
         transform="translate(256.23798,96.422897)">
        <path
           d="m 2.09375,-0.640625 c -0.203125,0.25 -0.484375,0.484375 -0.859375,0.484375 -0.359375,0 -0.53125,-0.265625 -0.53125,-0.71875 0,-0.578125 0.40625,-1.640625 1.1875,-1.640625 0.109375,0 0.234375,0.03125 0.234375,0.109375 0,0.109375 -0.09375,0.140625 -0.09375,0.296875 0,0.140625 0.09375,0.21875 0.234375,0.21875 0.15625,0 0.28125,-0.09375 0.28125,-0.265625 0,-0.1875 -0.140625,-0.484375 -0.65625,-0.484375 -0.875,0 -1.703125,0.90625 -1.703125,1.765625 0,0.796875 0.484375,0.9375 0.875,0.9375 0.640625,0 0.984375,-0.453125 1.140625,-0.640625 z m 0,0"
           id="path1" />
      </g>
    </g>
    <g
       fill="#231f20"
       fill-opacity="1"
       id="g237"
       transform="matrix(0.35277777,0,0,0.35277777,9.8543533,112.96744)">
      <g
         id="use237"
         transform="translate(286.78,99.422897)">
        <path
           d="m 2.9375,-5.34375 -2.3125,4 c -0.65625,1.125 -0.734375,1.140625 -1.03125,1.21875 V 0 h 1.5 v -0.125 c -0.375,-0.03125 -0.484375,-0.078125 -0.484375,-0.28125 0,-0.171875 0.046875,-0.28125 0.171875,-0.5 L 1.234375,-1.8125 h 1.75 l 0.171875,1.046875 c 0.015625,0.125 0.015625,0.234375 0.015625,0.234375 0,0.328125 -0.21875,0.375 -0.625,0.40625 V 0 h 1.96875 V -0.125 C 4.046875,-0.171875 4,-0.25 3.90625,-0.8125 l -0.75,-4.53125 z m -1.53125,3.25 1.1875,-2.078125 0.359375,2.078125 z m 0,0"
           id="path15" />
      </g>
    </g>
    <g
       fill="#231f20"
       fill-opacity="1"
       id="g238"
       transform="matrix(0.35277777,0,0,0.35277777,9.8543533,112.96744)">
      <g
         id="use238"
         transform="translate(290.86798,96.422897)">
        <path
           d="m 2.09375,-0.640625 c -0.203125,0.25 -0.484375,0.484375 -0.859375,0.484375 -0.359375,0 -0.53125,-0.265625 -0.53125,-0.71875 0,-0.578125 0.40625,-1.640625 1.1875,-1.640625 0.109375,0 0.234375,0.03125 0.234375,0.109375 0,0.109375 -0.09375,0.140625 -0.09375,0.296875 0,0.140625 0.09375,0.21875 0.234375,0.21875 0.15625,0 0.28125,-0.09375 0.28125,-0.265625 0,-0.1875 -0.140625,-0.484375 -0.65625,-0.484375 -0.875,0 -1.703125,0.90625 -1.703125,1.765625 0,0.796875 0.484375,0.9375 0.875,0.9375 0.640625,0 0.984375,-0.453125 1.140625,-0.640625 z m 0,0"
           id="path3" />
      </g>
    </g>
    <g
       fill="#231f20"
       fill-opacity="1"
       id="g239"
       transform="matrix(0.35277777,0,0,0.35277777,9.8543533,112.96744)">
      <g
         id="use239"
         transform="translate(293.53198,99.422897)">
        <path
           d="m 5.3125,0 h 0.46875 v -2.890625 c 0,-1.515625 -1,-2.3125 -2.453125,-2.3125 -1.453125,0 -2.453125,0.796875 -2.453125,2.3125 V 0 h 0.46875 v -2.890625 c 0,-1.25 0.828125,-1.84375 1.984375,-1.84375 1.15625,0 1.984375,0.59375 1.984375,1.84375 z m 0,0"
           id="path6" />
      </g>
    </g>
    <g
       fill="#231f20"
       fill-opacity="1"
       id="g240"
       transform="matrix(0.35277777,0,0,0.35277777,9.8543533,112.96744)">
      <g
         id="use240"
         transform="translate(300.59598,99.422897)">
        <path
           d="m -0.0625,0 h 2.25 c 1.03125,0 2.125,-0.5 2.125,-1.59375 0,-0.78125 -0.5625,-1.015625 -0.984375,-1.203125 V -2.8125 c 0.75,-0.15625 1.375,-0.5 1.375,-1.21875 0,-0.921875 -0.765625,-1.1875 -1.59375,-1.1875 h -2.0625 v 0.125 c 0.375,0.015625 0.609375,0.046875 0.609375,0.34375 0,0.140625 -0.046875,0.3125 -0.09375,0.5 l -0.984375,3.53125 c -0.125,0.5 -0.25,0.515625 -0.640625,0.59375 z M 1.375,-0.59375 c 0,-0.15625 0.40625,-1.546875 0.53125,-2.046875 0.546875,0 0.90625,0.015625 1.109375,0.140625 0.234375,0.140625 0.4375,0.421875 0.4375,0.84375 0,0.78125 -0.46875,1.421875 -1.59375,1.421875 C 1.625,-0.234375 1.375,-0.296875 1.375,-0.59375 Z M 2.5,-4.765625 C 2.53125,-4.875 2.5625,-4.984375 3,-4.984375 c 0.59375,0 0.890625,0.28125 0.890625,0.828125 0,1.25 -1.140625,1.28125 -1.90625,1.25 z m 0,0"
           id="path11" />
      </g>
    </g>
    <path
       fill="none"
       stroke-width="0.352778"
       stroke-linecap="butt"
       stroke-linejoin="miter"
       stroke="#000000"
       stroke-opacity="1"
       stroke-miterlimit="4"
       d="m 110.27751,148.5291 c 0,2.94349 -3.78823,5.33025 -8.45978,5.33025 -4.671547,0 -8.459774,-2.38676 -8.459774,-5.33025 0,-2.94349 3.788227,-5.33025 8.459774,-5.33025 4.67155,0 8.45978,2.38676 8.45978,5.33025 z m 8.60447,0 c 0,2.94349 -3.78685,5.33025 -8.4584,5.33025 -4.67155,0 -8.45978,-2.38676 -8.45978,-5.33025 0,-2.94349 3.78823,-5.33025 8.45978,-5.33025 4.67155,0 8.4584,2.38676 8.4584,5.33025 z m 0,0"
       id="path240" />
    <g
       fill="#231f20"
       fill-opacity="1"
       id="g241"
       transform="matrix(0.35277777,0,0,0.35277777,9.8543533,112.96744)">
      <g
         id="use241"
         transform="translate(198.44398,71.845001)">
        <path
           d="M 3.75,-3.75 4.0625,-5.328125 H 3.875 C 3.78125,-5.1875 3.71875,-5.125 3.53125,-5.125 3.375,-5.125 3.265625,-5.171875 3.125,-5.234375 2.96875,-5.28125 2.78125,-5.328125 2.421875,-5.328125 c -0.734375,0 -1.375,0.53125 -1.375,1.3125 0,0.515625 0.046875,0.609375 1.140625,1.78125 0.265625,0.28125 0.5625,0.53125 0.5625,1.046875 0,0.390625 -0.28125,1.046875 -1.03125,1.046875 -0.71875,0 -1.171875,-0.625 -1.171875,-1.34375 0,-0.0625 0.015625,-0.09375 0.015625,-0.15625 L 0.40625,-1.65625 0.140625,0.125 H 0.28125 C 0.3125,0.015625 0.375,-0.140625 0.59375,-0.140625 c 0.265625,0 0.671875,0.28125 1.234375,0.28125 1.0625,0 1.625,-0.828125 1.625,-1.578125 0,-0.53125 -0.171875,-0.84375 -0.90625,-1.578125 -0.703125,-0.6875 -0.796875,-0.875 -0.796875,-1.25 0,-0.53125 0.40625,-0.796875 0.84375,-0.796875 0.96875,0 1,0.84375 1,1.296875 z m 0,0"
           id="path7" />
      </g>
    </g>
  </g>
</svg>
