<?xml version="1.0" encoding="UTF-8" standalone="no"?>
<!-- Created with Inkscape (http://www.inkscape.org/) -->

<svg
   width="50.634922mm"
   height="24.542925mm"
   viewBox="0 0 50.634922 24.542925"
   version="1.1"
   id="svg1"
   inkscape:version="1.3.2 (091e20e, 2023-11-25)"
   sodipodi:docname="fig-1-8.svg"
   xmlns:inkscape="http://www.inkscape.org/namespaces/inkscape"
   xmlns:sodipodi="http://sodipodi.sourceforge.net/DTD/sodipodi-0.dtd"
   xmlns="http://www.w3.org/2000/svg"
   xmlns:svg="http://www.w3.org/2000/svg">
  <sodipodi:namedview
     id="namedview1"
     pagecolor="#ffffff"
     bordercolor="#000000"
     borderopacity="0.25"
     inkscape:showpageshadow="2"
     inkscape:pageopacity="0.0"
     inkscape:pagecheckerboard="0"
     inkscape:deskcolor="#d1d1d1"
     inkscape:document-units="mm"
     inkscape:zoom="0.2102413"
     inkscape:cx="97.507007"
     inkscape:cy="47.564393"
     inkscape:window-width="1312"
     inkscape:window-height="449"
     inkscape:window-x="0"
     inkscape:window-y="38"
     inkscape:window-maximized="0"
     inkscape:current-layer="layer1" />
  <defs
     id="defs1" />
  <g
     inkscape:label="Layer 1"
     inkscape:groupmode="layer"
     id="layer1"
     transform="translate(-79.850136,-136.25484)">
    <path
       fill-rule="nonzero"
       fill="#d1d2d4"
       fill-opacity="1"
       d="m 116.49521,148.53185 c 0,3.80339 -4.52685,6.88606 -10.11066,6.88606 -5.58381,0 -10.11067,-3.08267 -10.11067,-6.88606 0,-3.80476 4.52686,-6.88881 10.11067,-6.88881 5.58381,0 10.11066,3.08405 10.11066,6.88881"
       id="path1178"
       style="stroke-width:0.352778" />
    <path
       fill="none"
       stroke-width="0.352778"
       stroke-linecap="butt"
       stroke-linejoin="miter"
       stroke="#231f20"
       stroke-opacity="1"
       stroke-miterlimit="4"
       d="m 116.49521,148.53185 c 0,3.80338 -4.52685,6.88606 -10.11066,6.88606 -5.58381,0 -10.110668,-3.08268 -10.110668,-6.88606 0,-3.80476 4.526858,-6.88881 10.110668,-6.88881 5.58381,0 10.11066,3.08405 10.11066,6.88881 z m 0,0"
       id="path1179" />
    <path
       fill-rule="nonzero"
       fill="#ffffff"
       fill-opacity="1"
       d="m 109.62018,148.53185 c 0,1.21681 -1.44832,2.20349 -3.23563,2.20349 -1.78594,0 -3.23426,-0.98668 -3.23426,-2.20349 0,-1.21818 1.44832,-2.20486 3.23426,-2.20486 1.78731,0 3.23563,0.98668 3.23563,2.20486"
       id="path1180"
       style="stroke-width:0.352778" />
    <path
       fill="none"
       stroke-width="0.352778"
       stroke-linecap="butt"
       stroke-linejoin="miter"
       stroke="#231f20"
       stroke-opacity="1"
       stroke-miterlimit="4"
       d="m 109.62019,148.53185 c 0,1.21681 -1.44832,2.20348 -3.23564,2.20348 -1.78594,0 -3.23425,-0.98667 -3.23425,-2.20348 0,-1.21819 1.44831,-2.20486 3.23425,-2.20486 1.78732,0 3.23564,0.98667 3.23564,2.20486 z m 0,0"
       id="path1181" />
    <path
       fill="none"
       stroke-width="0.352778"
       stroke-linecap="butt"
       stroke-linejoin="miter"
       stroke="#000000"
       stroke-opacity="1"
       stroke-miterlimit="4"
       d="M 130.30867,136.43681 H 82.461804 v 24.18457 h 47.846866 z m -47.846866,0 z m 0,0"
       id="path1182" />
    <g
       fill="#231f20"
       fill-opacity="1"
       id="g1182"
       transform="matrix(0.35277777,0,0,0.35277777,9.7937187,-74.779233)">
      <g
         id="use1182"
         transform="translate(271.35751,634.80603)">
        <path
           d="m 2.9375,-5.34375 -2.3125,4 c -0.65625,1.125 -0.734375,1.140625 -1.03125,1.21875 V 0 h 1.5 v -0.125 c -0.375,-0.03125 -0.484375,-0.078125 -0.484375,-0.28125 0,-0.171875 0.046875,-0.28125 0.171875,-0.5 L 1.234375,-1.8125 h 1.75 l 0.171875,1.046875 c 0.015625,0.125 0.015625,0.234375 0.015625,0.234375 0,0.328125 -0.21875,0.375 -0.625,0.40625 V 0 h 1.96875 V -0.125 C 4.046875,-0.171875 4,-0.25 3.90625,-0.8125 l -0.75,-4.53125 z m -1.53125,3.25 1.1875,-2.078125 0.359375,2.078125 z m 0,0"
           id="path7" />
      </g>
    </g>
    <g
       fill="#231f20"
       fill-opacity="1"
       id="g1183"
       transform="matrix(0.35277777,0,0,0.35277777,9.7937187,-74.779233)">
      <g
         id="use1183"
         transform="translate(271.35751,610.80603)">
        <path
           d="m -0.0625,0 h 2.25 c 1.03125,0 2.125,-0.5 2.125,-1.59375 0,-0.78125 -0.5625,-1.015625 -0.984375,-1.203125 V -2.8125 c 0.75,-0.15625 1.375,-0.5 1.375,-1.21875 0,-0.921875 -0.765625,-1.1875 -1.59375,-1.1875 h -2.0625 v 0.125 c 0.375,0.015625 0.609375,0.046875 0.609375,0.34375 0,0.140625 -0.046875,0.3125 -0.09375,0.5 l -0.984375,3.53125 c -0.125,0.5 -0.25,0.515625 -0.640625,0.59375 z M 1.375,-0.59375 c 0,-0.15625 0.40625,-1.546875 0.53125,-2.046875 0.546875,0 0.90625,0.015625 1.109375,0.140625 0.234375,0.140625 0.4375,0.421875 0.4375,0.84375 0,0.78125 -0.46875,1.421875 -1.59375,1.421875 C 1.625,-0.234375 1.375,-0.296875 1.375,-0.59375 Z M 2.5,-4.765625 C 2.53125,-4.875 2.5625,-4.984375 3,-4.984375 c 0.59375,0 0.890625,0.28125 0.890625,0.828125 0,1.25 -1.140625,1.28125 -1.90625,1.25 z m 0,0"
           id="path5" />
      </g>
    </g>
    <g
       fill="#231f20"
       fill-opacity="1"
       id="g1184"
       transform="matrix(0.35277777,0,0,0.35277777,9.7937187,-74.779233)">
      <g
         id="use1184"
         transform="translate(264.0535,623.742)">
        <path
           d="m -0.0625,0 h 2.25 c 1.03125,0 2.125,-0.5 2.125,-1.59375 0,-0.78125 -0.5625,-1.015625 -0.984375,-1.203125 V -2.8125 c 0.75,-0.15625 1.375,-0.5 1.375,-1.21875 0,-0.921875 -0.765625,-1.1875 -1.59375,-1.1875 h -2.0625 v 0.125 c 0.375,0.015625 0.609375,0.046875 0.609375,0.34375 0,0.140625 -0.046875,0.3125 -0.09375,0.5 l -0.984375,3.53125 c -0.125,0.5 -0.25,0.515625 -0.640625,0.59375 z M 1.375,-0.59375 c 0,-0.15625 0.40625,-1.546875 0.53125,-2.046875 0.546875,0 0.90625,0.015625 1.109375,0.140625 0.234375,0.140625 0.4375,0.421875 0.4375,0.84375 0,0.78125 -0.46875,1.421875 -1.59375,1.421875 C 1.625,-0.234375 1.375,-0.296875 1.375,-0.59375 Z M 2.5,-4.765625 C 2.53125,-4.875 2.5625,-4.984375 3,-4.984375 c 0.59375,0 0.890625,0.28125 0.890625,0.828125 0,1.25 -1.140625,1.28125 -1.90625,1.25 z m 0,0"
           id="path6" />
      </g>
    </g>
    <g
       fill="#231f20"
       fill-opacity="1"
       id="g1185"
       transform="matrix(0.35277777,0,0,0.35277777,9.7937187,-74.779233)">
      <g
         id="use1185"
         transform="translate(268.9415,623.742)">
        <path
           d="m 5.3125,0 h 0.46875 v -2.890625 c 0,-1.515625 -1,-2.3125 -2.453125,-2.3125 -1.453125,0 -2.453125,0.796875 -2.453125,2.3125 V 0 h 0.46875 v -2.890625 c 0,-1.25 0.828125,-1.84375 1.984375,-1.84375 1.15625,0 1.984375,0.59375 1.984375,1.84375 z m 0,0"
           id="path3" />
      </g>
    </g>
    <g
       fill="#231f20"
       fill-opacity="1"
       id="g1186"
       transform="matrix(0.35277777,0,0,0.35277777,9.7937187,-74.779233)">
      <g
         id="use1186"
         transform="translate(276.00549,623.742)">
        <path
           d="m 2.9375,-5.34375 -2.3125,4 c -0.65625,1.125 -0.734375,1.140625 -1.03125,1.21875 V 0 h 1.5 v -0.125 c -0.375,-0.03125 -0.484375,-0.078125 -0.484375,-0.28125 0,-0.171875 0.046875,-0.28125 0.171875,-0.5 L 1.234375,-1.8125 h 1.75 l 0.171875,1.046875 c 0.015625,0.125 0.015625,0.234375 0.015625,0.234375 0,0.328125 -0.21875,0.375 -0.625,0.40625 V 0 h 1.96875 V -0.125 C 4.046875,-0.171875 4,-0.25 3.90625,-0.8125 l -0.75,-4.53125 z m -1.53125,3.25 1.1875,-2.078125 0.359375,2.078125 z m 0,0"
           id="path8" />
      </g>
    </g>
    <g
       fill="#231f20"
       fill-opacity="1"
       id="g1187"
       transform="matrix(0.35277777,0,0,0.35277777,9.7937187,-74.779233)">
      <g
         id="use1187"
         transform="translate(280.8895,620.73602)">
        <path
           d="m 2.09375,-0.640625 c -0.203125,0.25 -0.484375,0.484375 -0.859375,0.484375 -0.359375,0 -0.53125,-0.265625 -0.53125,-0.71875 0,-0.578125 0.40625,-1.640625 1.1875,-1.640625 0.109375,0 0.234375,0.03125 0.234375,0.109375 0,0.109375 -0.09375,0.140625 -0.09375,0.296875 0,0.140625 0.09375,0.21875 0.234375,0.21875 0.15625,0 0.28125,-0.09375 0.28125,-0.265625 0,-0.1875 -0.140625,-0.484375 -0.65625,-0.484375 -0.875,0 -1.703125,0.90625 -1.703125,1.765625 0,0.796875 0.484375,0.9375 0.875,0.9375 0.640625,0 0.984375,-0.453125 1.140625,-0.640625 z m 0,0"
           id="path1" />
      </g>
    </g>
    <g
       fill="#231f20"
       fill-opacity="1"
       id="g1188"
       transform="matrix(0.35277777,0,0,0.35277777,9.7937187,-74.779233)">
      <g
         id="use1188"
         transform="translate(198.4445,603.53497)">
        <path
           d="M 3.75,-3.75 4.0625,-5.328125 H 3.875 C 3.78125,-5.1875 3.71875,-5.125 3.53125,-5.125 3.375,-5.125 3.265625,-5.171875 3.125,-5.234375 2.96875,-5.28125 2.78125,-5.328125 2.421875,-5.328125 c -0.734375,0 -1.375,0.53125 -1.375,1.3125 0,0.515625 0.046875,0.609375 1.140625,1.78125 0.265625,0.28125 0.5625,0.53125 0.5625,1.046875 0,0.390625 -0.28125,1.046875 -1.03125,1.046875 -0.71875,0 -1.171875,-0.625 -1.171875,-1.34375 0,-0.0625 0.015625,-0.09375 0.015625,-0.15625 L 0.40625,-1.65625 0.140625,0.125 H 0.28125 C 0.3125,0.015625 0.375,-0.140625 0.59375,-0.140625 c 0.265625,0 0.671875,0.28125 1.234375,0.28125 1.0625,0 1.625,-0.828125 1.625,-1.578125 0,-0.53125 -0.171875,-0.84375 -0.90625,-1.578125 -0.703125,-0.6875 -0.796875,-0.875 -0.796875,-1.25 0,-0.53125 0.40625,-0.796875 0.84375,-0.796875 0.96875,0 1,0.84375 1,1.296875 z m 0,0"
           id="path4" />
      </g>
    </g>
  </g>
</svg>
