<?xml version="1.0" encoding="UTF-8" standalone="no"?>
<!-- Created with Inkscape (http://www.inkscape.org/) -->

<svg
   width="48.871468mm"
   height="27.390152mm"
   viewBox="0 0 48.871468 27.390152"
   version="1.1"
   id="svg1"
   inkscape:version="1.3.2 (091e20e, 2023-11-25)"
   sodipodi:docname="fig-1-11.svg"
   xmlns:inkscape="http://www.inkscape.org/namespaces/inkscape"
   xmlns:sodipodi="http://sodipodi.sourceforge.net/DTD/sodipodi-0.dtd"
   xmlns="http://www.w3.org/2000/svg"
   xmlns:svg="http://www.w3.org/2000/svg">
  <sodipodi:namedview
     id="namedview1"
     pagecolor="#ffffff"
     bordercolor="#000000"
     borderopacity="0.25"
     inkscape:showpageshadow="2"
     inkscape:pageopacity="0.0"
     inkscape:pagecheckerboard="0"
     inkscape:deskcolor="#d1d1d1"
     inkscape:document-units="mm"
     inkscape:zoom="0.2102413"
     inkscape:cx="92.750567"
     inkscape:cy="52.320833"
     inkscape:window-width="1312"
     inkscape:window-height="449"
     inkscape:window-x="0"
     inkscape:window-y="38"
     inkscape:window-maximized="0"
     inkscape:current-layer="layer1" />
  <defs
     id="defs1" />
  <g
     inkscape:label="Layer 1"
     inkscape:groupmode="layer"
     id="layer1"
     transform="translate(-80.69792,-134.79283)">
    <path
       fill="none"
       stroke-width="0.176389"
       stroke-linecap="butt"
       stroke-linejoin="miter"
       stroke="#231f20"
       stroke-opacity="1"
       stroke-miterlimit="10"
       d="m 120.75332,136.34437 -17.99166,5.78501 -21.731664,6.81302 22.366934,5.31923 17.40325,6.28247"
       id="path269" />
    <path
       fill="none"
       stroke-width="0.176389"
       stroke-linecap="butt"
       stroke-linejoin="round"
       stroke="#231f20"
       stroke-opacity="1"
       stroke-miterlimit="10"
       d="m 120.80018,155.19456 -17.40325,-0.93431 17.40325,-3.98115 m 0,-3.98116 -18.29621,-4.07486 18.46157,-1.02663"
       id="path270" />
    <g
       fill="#231f20"
       fill-opacity="1"
       id="g270"
       transform="matrix(0.35277777,0,0,0.35277777,10.683902,111.44185)">
      <g
         id="use270"
         transform="translate(221.58499,117.345)">
        <path
           d="m 3.21875,-0.890625 c -0.21875,0.25 -0.375,0.53125 -0.546875,0.53125 -0.15625,0 -0.21875,-0.1875 -0.25,-0.328125 -0.046875,-0.1875 -0.3125,-1.28125 -0.3125,-1.421875 0,0 0.53125,-0.96875 0.765625,-0.96875 0.1875,0 0.234375,0.140625 0.421875,0.140625 0.203125,0 0.28125,-0.15625 0.28125,-0.296875 0,-0.203125 -0.171875,-0.296875 -0.328125,-0.296875 -0.421875,0 -0.796875,0.484375 -1.203125,1.140625 l -0.09375,-0.4375 C 1.8125,-3.53125 1.6875,-3.53125 1.515625,-3.53125 c -0.265625,0 -0.78125,0.1875 -1,0.265625 l 0.03125,0.125 c 0.25,-0.0625 0.359375,-0.09375 0.4375,-0.09375 0.21875,0 0.25,0.109375 0.3125,0.359375 0.015625,0.046875 0.28125,1.109375 0.28125,1.171875 -0.71875,1.0625 -0.921875,1.328125 -1.0625,1.328125 -0.140625,0 -0.28125,-0.15625 -0.453125,-0.15625 -0.1875,0 -0.28125,0.140625 -0.28125,0.28125 0,0.1875 0.125,0.34375 0.390625,0.34375 0.25,0 0.34375,-0.09375 0.484375,-0.25 0.265625,-0.296875 0.609375,-0.71875 0.984375,-1.25 l 0.25,0.953125 c 0.09375,0.421875 0.21875,0.546875 0.453125,0.546875 0.1875,0 0.421875,0 0.984375,-0.921875 z m 0,0"
           id="path1" />
      </g>
    </g>
    <g
       fill="#231f20"
       fill-opacity="1"
       id="g271"
       transform="matrix(0.35277777,0,0,0.35277777,10.683902,111.44185)">
      <g
         id="use271"
         transform="translate(225.73698,119.3449)">
        <path
           d="m 2.84375,-0.828125 -0.078125,-0.03125 c -0.234375,0.390625 -0.34375,0.40625 -0.5625,0.40625 h -1.4375 l 1.015625,-1.0625 C 2.046875,-1.796875 2.546875,-2.34375 2.546875,-2.96875 2.546875,-3.640625 2,-4.0625 1.453125,-4.0625 c -0.515625,0 -1.09375,0.296875 -1.265625,1.203125 l 0.125,0.03125 c 0.125,-0.328125 0.3125,-0.78125 0.859375,-0.78125 0.703125,0 0.859375,0.546875 0.859375,0.859375 0,0.453125 -0.265625,0.984375 -0.78125,1.546875 l -1.0625,1.125 V 0 h 2.328125 z m 0,0"
           id="path28" />
      </g>
    </g>
    <g
       fill="#231f20"
       fill-opacity="1"
       id="g272"
       transform="matrix(0.35277777,0,0,0.35277777,10.683902,111.44185)">
      <g
         id="use272"
         transform="translate(221.58499,94.011002)">
        <path
           d="m 3.21875,-0.890625 c -0.21875,0.25 -0.375,0.53125 -0.546875,0.53125 -0.15625,0 -0.21875,-0.1875 -0.25,-0.328125 -0.046875,-0.1875 -0.3125,-1.28125 -0.3125,-1.421875 0,0 0.53125,-0.96875 0.765625,-0.96875 0.1875,0 0.234375,0.140625 0.421875,0.140625 0.203125,0 0.28125,-0.15625 0.28125,-0.296875 0,-0.203125 -0.171875,-0.296875 -0.328125,-0.296875 -0.421875,0 -0.796875,0.484375 -1.203125,1.140625 l -0.09375,-0.4375 C 1.8125,-3.53125 1.6875,-3.53125 1.515625,-3.53125 c -0.265625,0 -0.78125,0.1875 -1,0.265625 l 0.03125,0.125 c 0.25,-0.0625 0.359375,-0.09375 0.4375,-0.09375 0.21875,0 0.25,0.109375 0.3125,0.359375 0.015625,0.046875 0.28125,1.109375 0.28125,1.171875 -0.71875,1.0625 -0.921875,1.328125 -1.0625,1.328125 -0.140625,0 -0.28125,-0.15625 -0.453125,-0.15625 -0.1875,0 -0.28125,0.140625 -0.28125,0.28125 0,0.1875 0.125,0.34375 0.390625,0.34375 0.25,0 0.34375,-0.09375 0.484375,-0.25 0.265625,-0.296875 0.609375,-0.71875 0.984375,-1.25 l 0.25,0.953125 c 0.09375,0.421875 0.21875,0.546875 0.453125,0.546875 0.1875,0 0.421875,0 0.984375,-0.921875 z m 0,0"
           id="path3" />
      </g>
    </g>
    <g
       fill="#231f20"
       fill-opacity="1"
       id="g273"
       transform="matrix(0.35277777,0,0,0.35277777,10.683902,111.44185)">
      <g
         id="use273"
         transform="translate(225.13699,96.010902)">
        <path
           d="m 0.703125,0 h 1.65625 v -0.09375 c -0.453125,0 -0.5625,-0.0625 -0.5625,-0.34375 V -4.046875 L 1.75,-4.0625 0.671875,-3.515625 v 0.09375 C 1,-3.5625 1,-3.5625 1.078125,-3.5625 c 0.203125,0 0.203125,0.15625 0.203125,0.28125 v 2.71875 c 0,0.453125 -0.21875,0.453125 -0.578125,0.46875 z m 0,0"
           id="path20" />
      </g>
    </g>
    <g
       fill="#231f20"
       fill-opacity="1"
       id="g274"
       transform="matrix(0.35277777,0,0,0.35277777,10.683902,111.44185)">
      <g
         id="use274"
         transform="translate(292.97,71.443901)">
        <path
           d="m 0.125,-3.203125 c 0.09375,-0.015625 0.140625,-0.03125 0.265625,-0.03125 0.453125,0 0.5625,0.34375 0.78125,1.078125 0.125,0.421875 0.46875,1.828125 0.46875,2.125 0,0.21875 -0.34375,0.609375 -0.53125,0.84375 -0.28125,0.328125 -0.375,0.390625 -0.515625,0.390625 -0.140625,0 -0.234375,-0.21875 -0.484375,-0.21875 -0.171875,0 -0.296875,0.140625 -0.296875,0.296875 0,0.34375 0.34375,0.359375 0.40625,0.359375 0.953125,0 3.1875,-3.71875 3.1875,-4.671875 0,-0.28125 -0.15625,-0.5 -0.453125,-0.5 -0.203125,0 -0.296875,0.171875 -0.296875,0.28125 0,0.375 0.4375,0.28125 0.4375,0.609375 0,0.421875 -0.640625,1.5 -0.984375,2.0625 L 1.953125,-1.5 C 1.84375,-2.109375 1.375,-3.53125 1.265625,-3.53125 1.125,-3.53125 0.5,-3.40625 0.125,-3.34375 Z m 0,0"
           id="path36" />
      </g>
    </g>
    <g
       fill="#231f20"
       fill-opacity="1"
       id="g275"
       transform="matrix(0.35277777,0,0,0.35277777,10.683902,111.44185)">
      <g
         id="use275"
         transform="translate(296.522,73.443901)">
        <path
           d="m 0.703125,0 h 1.65625 v -0.09375 c -0.453125,0 -0.5625,-0.0625 -0.5625,-0.34375 V -4.046875 L 1.75,-4.0625 0.671875,-3.515625 v 0.09375 C 1,-3.5625 1,-3.5625 1.078125,-3.5625 c 0.203125,0 0.203125,0.15625 0.203125,0.28125 v 2.71875 c 0,0.453125 -0.21875,0.453125 -0.578125,0.46875 z m 0,0"
           id="path21" />
      </g>
    </g>
    <g
       fill="#231f20"
       fill-opacity="1"
       id="g276"
       transform="matrix(0.35277777,0,0,0.35277777,10.683902,111.44185)">
      <g
         id="use276"
         transform="translate(292.97,109.8859)">
        <path
           d="m 0.125,-3.203125 c 0.09375,-0.015625 0.140625,-0.03125 0.265625,-0.03125 0.453125,0 0.5625,0.34375 0.78125,1.078125 0.125,0.421875 0.46875,1.828125 0.46875,2.125 0,0.21875 -0.34375,0.609375 -0.53125,0.84375 -0.28125,0.328125 -0.375,0.390625 -0.515625,0.390625 -0.140625,0 -0.234375,-0.21875 -0.484375,-0.21875 -0.171875,0 -0.296875,0.140625 -0.296875,0.296875 0,0.34375 0.34375,0.359375 0.40625,0.359375 0.953125,0 3.1875,-3.71875 3.1875,-4.671875 0,-0.28125 -0.15625,-0.5 -0.453125,-0.5 -0.203125,0 -0.296875,0.171875 -0.296875,0.28125 0,0.375 0.4375,0.28125 0.4375,0.609375 0,0.421875 -0.640625,1.5 -0.984375,2.0625 L 1.953125,-1.5 C 1.84375,-2.109375 1.375,-3.53125 1.265625,-3.53125 1.125,-3.53125 0.5,-3.40625 0.125,-3.34375 Z m 0,0"
           id="path37" />
      </g>
    </g>
    <g
       fill="#231f20"
       fill-opacity="1"
       id="g277"
       transform="matrix(0.35277777,0,0,0.35277777,10.683902,111.44185)">
      <g
         id="use277"
         transform="translate(296.522,111.8859)">
        <path
           d="m 0.703125,0 h 1.65625 v -0.09375 c -0.453125,0 -0.5625,-0.0625 -0.5625,-0.34375 V -4.046875 L 1.75,-4.0625 0.671875,-3.515625 v 0.09375 C 1,-3.5625 1,-3.5625 1.078125,-3.5625 c 0.203125,0 0.203125,0.15625 0.203125,0.28125 v 2.71875 c 0,0.453125 -0.21875,0.453125 -0.578125,0.46875 z m 0,0"
           id="path22" />
      </g>
    </g>
    <g
       fill="#231f20"
       fill-opacity="1"
       id="g278"
       transform="matrix(0.35277777,0,0,0.35277777,10.683902,111.44185)">
      <g
         id="use278"
         transform="translate(302.181,120.419)">
        <path
           d="m 0.125,-3.203125 c 0.09375,-0.015625 0.140625,-0.03125 0.265625,-0.03125 0.453125,0 0.5625,0.34375 0.78125,1.078125 0.125,0.421875 0.46875,1.828125 0.46875,2.125 0,0.21875 -0.34375,0.609375 -0.53125,0.84375 -0.28125,0.328125 -0.375,0.390625 -0.515625,0.390625 -0.140625,0 -0.234375,-0.21875 -0.484375,-0.21875 -0.171875,0 -0.296875,0.140625 -0.296875,0.296875 0,0.34375 0.34375,0.359375 0.40625,0.359375 0.953125,0 3.1875,-3.71875 3.1875,-4.671875 0,-0.28125 -0.15625,-0.5 -0.453125,-0.5 -0.203125,0 -0.296875,0.171875 -0.296875,0.28125 0,0.375 0.4375,0.28125 0.4375,0.609375 0,0.421875 -0.640625,1.5 -0.984375,2.0625 L 1.953125,-1.5 C 1.84375,-2.109375 1.375,-3.53125 1.265625,-3.53125 1.125,-3.53125 0.5,-3.40625 0.125,-3.34375 Z m 0,0"
           id="path38" />
      </g>
    </g>
    <g
       fill="#231f20"
       fill-opacity="1"
       id="g279"
       transform="matrix(0.35277777,0,0,0.35277777,10.683902,111.44185)">
      <g
         id="use279"
         transform="translate(306.133,122.419)">
        <path
           d="m 2.84375,-0.828125 -0.078125,-0.03125 c -0.234375,0.390625 -0.34375,0.40625 -0.5625,0.40625 h -1.4375 l 1.015625,-1.0625 C 2.046875,-1.796875 2.546875,-2.34375 2.546875,-2.96875 2.546875,-3.640625 2,-4.0625 1.453125,-4.0625 c -0.515625,0 -1.09375,0.296875 -1.265625,1.203125 l 0.125,0.03125 c 0.125,-0.328125 0.3125,-0.78125 0.859375,-0.78125 0.703125,0 0.859375,0.546875 0.859375,0.859375 0,0.453125 -0.265625,0.984375 -0.78125,1.546875 l -1.0625,1.125 V 0 h 2.328125 z m 0,0"
           id="path29" />
      </g>
    </g>
    <g
       fill="#231f20"
       fill-opacity="1"
       id="g280"
       transform="matrix(0.35277777,0,0,0.35277777,10.683902,111.44185)">
      <g
         id="use280"
         transform="translate(302.181,81.268997)">
        <path
           d="m 0.125,-3.203125 c 0.09375,-0.015625 0.140625,-0.03125 0.265625,-0.03125 0.453125,0 0.5625,0.34375 0.78125,1.078125 0.125,0.421875 0.46875,1.828125 0.46875,2.125 0,0.21875 -0.34375,0.609375 -0.53125,0.84375 -0.28125,0.328125 -0.375,0.390625 -0.515625,0.390625 -0.140625,0 -0.234375,-0.21875 -0.484375,-0.21875 -0.171875,0 -0.296875,0.140625 -0.296875,0.296875 0,0.34375 0.34375,0.359375 0.40625,0.359375 0.953125,0 3.1875,-3.71875 3.1875,-4.671875 0,-0.28125 -0.15625,-0.5 -0.453125,-0.5 -0.203125,0 -0.296875,0.171875 -0.296875,0.28125 0,0.375 0.4375,0.28125 0.4375,0.609375 0,0.421875 -0.640625,1.5 -0.984375,2.0625 L 1.953125,-1.5 C 1.84375,-2.109375 1.375,-3.53125 1.265625,-3.53125 1.125,-3.53125 0.5,-3.40625 0.125,-3.34375 Z m 0,0"
           id="path39" />
      </g>
    </g>
    <g
       fill="#231f20"
       fill-opacity="1"
       id="g281"
       transform="matrix(0.35277777,0,0,0.35277777,10.683902,111.44185)">
      <g
         id="use281"
         transform="translate(306.133,83.268997)">
        <path
           d="m 2.84375,-0.828125 -0.078125,-0.03125 c -0.234375,0.390625 -0.34375,0.40625 -0.5625,0.40625 h -1.4375 l 1.015625,-1.0625 C 2.046875,-1.796875 2.546875,-2.34375 2.546875,-2.96875 2.546875,-3.640625 2,-4.0625 1.453125,-4.0625 c -0.515625,0 -1.09375,0.296875 -1.265625,1.203125 l 0.125,0.03125 c 0.125,-0.328125 0.3125,-0.78125 0.859375,-0.78125 0.703125,0 0.859375,0.546875 0.859375,0.859375 0,0.453125 -0.265625,0.984375 -0.78125,1.546875 l -1.0625,1.125 V 0 h 2.328125 z m 0,0"
           id="path30" />
      </g>
    </g>
    <g
       fill="#231f20"
       fill-opacity="1"
       id="g282"
       transform="matrix(0.35277777,0,0,0.35277777,10.683902,111.44185)">
      <g
         id="use282"
         transform="translate(279.76797,133.31)">
        <path
           d="m 0.125,-3.203125 c 0.09375,-0.015625 0.140625,-0.03125 0.265625,-0.03125 0.453125,0 0.5625,0.34375 0.78125,1.078125 0.125,0.421875 0.46875,1.828125 0.46875,2.125 0,0.21875 -0.34375,0.609375 -0.53125,0.84375 -0.28125,0.328125 -0.375,0.390625 -0.515625,0.390625 -0.140625,0 -0.234375,-0.21875 -0.484375,-0.21875 -0.171875,0 -0.296875,0.140625 -0.296875,0.296875 0,0.34375 0.34375,0.359375 0.40625,0.359375 0.953125,0 3.1875,-3.71875 3.1875,-4.671875 0,-0.28125 -0.15625,-0.5 -0.453125,-0.5 -0.203125,0 -0.296875,0.171875 -0.296875,0.28125 0,0.375 0.4375,0.28125 0.4375,0.609375 0,0.421875 -0.640625,1.5 -0.984375,2.0625 L 1.953125,-1.5 C 1.84375,-2.109375 1.375,-3.53125 1.265625,-3.53125 1.125,-3.53125 0.5,-3.40625 0.125,-3.34375 Z m 0,0"
           id="path40" />
      </g>
    </g>
    <g
       fill="#231f20"
       fill-opacity="1"
       id="g283"
       transform="matrix(0.35277777,0,0,0.35277777,10.683902,111.44185)">
      <g
         id="use283"
         transform="translate(283.51999,135.31)">
        <path
           d="m 0.921875,-1.984375 c 0.40625,0 0.5625,0.015625 0.78125,0.140625 0.375,0.1875 0.453125,0.640625 0.453125,0.78125 0,0.453125 -0.25,0.9375 -0.8125,0.9375 -0.34375,0 -0.578125,-0.34375 -0.859375,-0.34375 -0.09375,0 -0.21875,0.046875 -0.21875,0.203125 0,0.3125 0.515625,0.34375 0.65625,0.34375 0.9375,0 1.671875,-0.515625 1.671875,-1.375 0,-0.796875 -0.515625,-1 -0.765625,-1.109375 C 2.21875,-2.65625 2.375,-2.921875 2.375,-3.25 c 0,-0.234375 -0.15625,-0.8125 -0.921875,-0.8125 -0.40625,0 -0.9375,0.1875 -1.1875,0.984375 l 0.09375,0.015625 c 0.09375,-0.171875 0.34375,-0.640625 0.890625,-0.640625 0.4375,0 0.65625,0.328125 0.65625,0.625 0,0.5625 -0.453125,0.84375 -1,1.015625 z m 0,0"
           id="path16" />
      </g>
    </g>
    <g
       fill="#231f20"
       fill-opacity="1"
       id="g284"
       transform="matrix(0.35277777,0,0,0.35277777,10.683902,111.44185)">
      <g
         id="use284"
         transform="translate(279.76797,97.388)">
        <path
           d="m 0.125,-3.203125 c 0.09375,-0.015625 0.140625,-0.03125 0.265625,-0.03125 0.453125,0 0.5625,0.34375 0.78125,1.078125 0.125,0.421875 0.46875,1.828125 0.46875,2.125 0,0.21875 -0.34375,0.609375 -0.53125,0.84375 -0.28125,0.328125 -0.375,0.390625 -0.515625,0.390625 -0.140625,0 -0.234375,-0.21875 -0.484375,-0.21875 -0.171875,0 -0.296875,0.140625 -0.296875,0.296875 0,0.34375 0.34375,0.359375 0.40625,0.359375 0.953125,0 3.1875,-3.71875 3.1875,-4.671875 0,-0.28125 -0.15625,-0.5 -0.453125,-0.5 -0.203125,0 -0.296875,0.171875 -0.296875,0.28125 0,0.375 0.4375,0.28125 0.4375,0.609375 0,0.421875 -0.640625,1.5 -0.984375,2.0625 L 1.953125,-1.5 C 1.84375,-2.109375 1.375,-3.53125 1.265625,-3.53125 1.125,-3.53125 0.5,-3.40625 0.125,-3.34375 Z m 0,0"
           id="path41" />
      </g>
    </g>
    <g
       fill="#231f20"
       fill-opacity="1"
       id="g285"
       transform="matrix(0.35277777,0,0,0.35277777,10.683902,111.44185)">
      <g
         id="use285"
         transform="translate(283.51999,99.388)">
        <path
           d="m 0.921875,-1.984375 c 0.40625,0 0.5625,0.015625 0.78125,0.140625 0.375,0.1875 0.453125,0.640625 0.453125,0.78125 0,0.453125 -0.25,0.9375 -0.8125,0.9375 -0.34375,0 -0.578125,-0.34375 -0.859375,-0.34375 -0.09375,0 -0.21875,0.046875 -0.21875,0.203125 0,0.3125 0.515625,0.34375 0.65625,0.34375 0.9375,0 1.671875,-0.515625 1.671875,-1.375 0,-0.796875 -0.515625,-1 -0.765625,-1.109375 C 2.21875,-2.65625 2.375,-2.921875 2.375,-3.25 c 0,-0.234375 -0.15625,-0.8125 -0.921875,-0.8125 -0.40625,0 -0.9375,0.1875 -1.1875,0.984375 l 0.09375,0.015625 c 0.09375,-0.171875 0.34375,-0.640625 0.890625,-0.640625 0.4375,0 0.65625,0.328125 0.65625,0.625 0,0.5625 -0.453125,0.84375 -1,1.015625 z m 0,0"
           id="path17" />
      </g>
    </g>
    <g
       fill="#231f20"
       fill-opacity="1"
       id="g286"
       transform="matrix(0.35277777,0,0,0.35277777,10.683902,111.44185)">
      <g
         id="use286"
         transform="translate(313.849,71.598)">
        <path
           d="m 2.359375,-5.40625 c -1.234375,0.734375 -1.96875,1.9375 -1.96875,3.3125 0,1.109375 0.25,1.671875 0.65625,2.25 C 1.34375,0.609375 1.875,1.171875 2.34375,1.421875 L 2.4375,1.28125 c -1.359375,-0.859375 -1.359375,-2.625 -1.359375,-3.4375 0,-2.03125 0.765625,-2.65625 1.359375,-3.125 z m 0,0"
           id="path10" />
      </g>
    </g>
    <g
       fill="#231f20"
       fill-opacity="1"
       id="g287"
       transform="matrix(0.35277777,0,0,0.35277777,10.683902,111.44185)">
      <g
         id="use287"
         transform="translate(316.513,71.598)">
        <path
           d="m 3.21875,-0.890625 c -0.21875,0.25 -0.375,0.53125 -0.546875,0.53125 -0.15625,0 -0.21875,-0.1875 -0.25,-0.328125 -0.046875,-0.1875 -0.3125,-1.28125 -0.3125,-1.421875 0,0 0.53125,-0.96875 0.765625,-0.96875 0.1875,0 0.234375,0.140625 0.421875,0.140625 0.203125,0 0.28125,-0.15625 0.28125,-0.296875 0,-0.203125 -0.171875,-0.296875 -0.328125,-0.296875 -0.421875,0 -0.796875,0.484375 -1.203125,1.140625 l -0.09375,-0.4375 C 1.8125,-3.53125 1.6875,-3.53125 1.515625,-3.53125 c -0.265625,0 -0.78125,0.1875 -1,0.265625 l 0.03125,0.125 c 0.25,-0.0625 0.359375,-0.09375 0.4375,-0.09375 0.21875,0 0.25,0.109375 0.3125,0.359375 0.015625,0.046875 0.28125,1.109375 0.28125,1.171875 -0.71875,1.0625 -0.921875,1.328125 -1.0625,1.328125 -0.140625,0 -0.28125,-0.15625 -0.453125,-0.15625 -0.1875,0 -0.28125,0.140625 -0.28125,0.28125 0,0.1875 0.125,0.34375 0.390625,0.34375 0.25,0 0.34375,-0.09375 0.484375,-0.25 0.265625,-0.296875 0.609375,-0.71875 0.984375,-1.25 l 0.25,0.953125 c 0.09375,0.421875 0.21875,0.546875 0.453125,0.546875 0.1875,0 0.421875,0 0.984375,-0.921875 z m 0,0"
           id="path4" />
      </g>
    </g>
    <g
       fill="#231f20"
       fill-opacity="1"
       id="g288"
       transform="matrix(0.35277777,0,0,0.35277777,10.683902,111.44185)">
      <g
         id="use288"
         transform="translate(320.065,73.598)">
        <path
           d="m 0.703125,0 h 1.65625 v -0.09375 c -0.453125,0 -0.5625,-0.0625 -0.5625,-0.34375 V -4.046875 L 1.75,-4.0625 0.671875,-3.515625 v 0.09375 C 1,-3.5625 1,-3.5625 1.078125,-3.5625 c 0.203125,0 0.203125,0.15625 0.203125,0.28125 v 2.71875 c 0,0.453125 -0.21875,0.453125 -0.578125,0.46875 z m 0,0"
           id="path23" />
      </g>
    </g>
    <g
       fill="#231f20"
       fill-opacity="1"
       id="g289"
       transform="matrix(0.35277777,0,0,0.35277777,10.683902,111.44185)">
      <g
         id="use289"
         transform="translate(323.065,71.598)">
        <path
           d="M 0.65625,1.125 C 0.90625,1.046875 1.5625,0.515625 1.5625,-0.046875 1.5625,-0.71875 1.09375,-0.8125 0.90625,-0.8125 c -0.1875,0 -0.453125,0.109375 -0.453125,0.453125 0,0.328125 0.28125,0.40625 0.484375,0.40625 0.0625,0 0.109375,0 0.125,-0.015625 0.03125,0 0.0625,-0.015625 0.078125,-0.015625 C 1.1875,0.015625 1.25,0.0625 1.25,0.125 1.25,0.28125 1.125,0.640625 0.59375,0.96875 Z m 0,0"
           id="path54" />
      </g>
    </g>
    <g
       fill="#231f20"
       fill-opacity="1"
       id="g290"
       transform="matrix(0.35277777,0,0,0.35277777,10.683902,111.44185)">
      <g
         id="use290"
         transform="translate(327.065,71.598)">
        <path
           d="m 0.125,-3.203125 c 0.09375,-0.015625 0.140625,-0.03125 0.265625,-0.03125 0.453125,0 0.5625,0.34375 0.78125,1.078125 0.125,0.421875 0.46875,1.828125 0.46875,2.125 0,0.21875 -0.34375,0.609375 -0.53125,0.84375 -0.28125,0.328125 -0.375,0.390625 -0.515625,0.390625 -0.140625,0 -0.234375,-0.21875 -0.484375,-0.21875 -0.171875,0 -0.296875,0.140625 -0.296875,0.296875 0,0.34375 0.34375,0.359375 0.40625,0.359375 0.953125,0 3.1875,-3.71875 3.1875,-4.671875 0,-0.28125 -0.15625,-0.5 -0.453125,-0.5 -0.203125,0 -0.296875,0.171875 -0.296875,0.28125 0,0.375 0.4375,0.28125 0.4375,0.609375 0,0.421875 -0.640625,1.5 -0.984375,2.0625 L 1.953125,-1.5 C 1.84375,-2.109375 1.375,-3.53125 1.265625,-3.53125 1.125,-3.53125 0.5,-3.40625 0.125,-3.34375 Z m 0,0"
           id="path42" />
      </g>
    </g>
    <g
       fill="#231f20"
       fill-opacity="1"
       id="g291"
       transform="matrix(0.35277777,0,0,0.35277777,10.683902,111.44185)">
      <g
         id="use291"
         transform="translate(330.617,73.598)">
        <path
           d="m 0.703125,0 h 1.65625 v -0.09375 c -0.453125,0 -0.5625,-0.0625 -0.5625,-0.34375 V -4.046875 L 1.75,-4.0625 0.671875,-3.515625 v 0.09375 C 1,-3.5625 1,-3.5625 1.078125,-3.5625 c 0.203125,0 0.203125,0.15625 0.203125,0.28125 v 2.71875 c 0,0.453125 -0.21875,0.453125 -0.578125,0.46875 z m 0,0"
           id="path24" />
      </g>
    </g>
    <g
       fill="#231f20"
       fill-opacity="1"
       id="g292"
       transform="matrix(0.35277777,0,0,0.35277777,10.683902,111.44185)">
      <g
         id="use292"
         transform="translate(333.617,71.598)">
        <path
           d="m 0.296875,1.421875 c 1.25,-0.734375 1.984375,-1.9375 1.984375,-3.3125 0,-1.109375 -0.265625,-1.6875 -0.65625,-2.265625 -0.3125,-0.4375 -0.828125,-1 -1.296875,-1.25 l -0.09375,0.125 c 1.359375,0.875 1.359375,2.625 1.359375,3.4375 0,2.03125 -0.765625,2.65625 -1.359375,3.125 z m 0,0"
           id="path48" />
      </g>
    </g>
    <g
       fill="#231f20"
       fill-opacity="1"
       id="g293"
       transform="matrix(0.35277777,0,0,0.35277777,10.683902,111.44185)">
      <g
         id="use293"
         transform="translate(313.849,111.662)">
        <path
           d="m 2.359375,-5.40625 c -1.234375,0.734375 -1.96875,1.9375 -1.96875,3.3125 0,1.109375 0.25,1.671875 0.65625,2.25 C 1.34375,0.609375 1.875,1.171875 2.34375,1.421875 L 2.4375,1.28125 c -1.359375,-0.859375 -1.359375,-2.625 -1.359375,-3.4375 0,-2.03125 0.765625,-2.65625 1.359375,-3.125 z m 0,0"
           id="path11" />
      </g>
    </g>
    <g
       fill="#231f20"
       fill-opacity="1"
       id="g294"
       transform="matrix(0.35277777,0,0,0.35277777,10.683902,111.44185)">
      <g
         id="use294"
         transform="translate(316.513,111.662)">
        <path
           d="m 3.21875,-0.890625 c -0.21875,0.25 -0.375,0.53125 -0.546875,0.53125 -0.15625,0 -0.21875,-0.1875 -0.25,-0.328125 -0.046875,-0.1875 -0.3125,-1.28125 -0.3125,-1.421875 0,0 0.53125,-0.96875 0.765625,-0.96875 0.1875,0 0.234375,0.140625 0.421875,0.140625 0.203125,0 0.28125,-0.15625 0.28125,-0.296875 0,-0.203125 -0.171875,-0.296875 -0.328125,-0.296875 -0.421875,0 -0.796875,0.484375 -1.203125,1.140625 l -0.09375,-0.4375 C 1.8125,-3.53125 1.6875,-3.53125 1.515625,-3.53125 c -0.265625,0 -0.78125,0.1875 -1,0.265625 l 0.03125,0.125 c 0.25,-0.0625 0.359375,-0.09375 0.4375,-0.09375 0.21875,0 0.25,0.109375 0.3125,0.359375 0.015625,0.046875 0.28125,1.109375 0.28125,1.171875 -0.71875,1.0625 -0.921875,1.328125 -1.0625,1.328125 -0.140625,0 -0.28125,-0.15625 -0.453125,-0.15625 -0.1875,0 -0.28125,0.140625 -0.28125,0.28125 0,0.1875 0.125,0.34375 0.390625,0.34375 0.25,0 0.34375,-0.09375 0.484375,-0.25 0.265625,-0.296875 0.609375,-0.71875 0.984375,-1.25 l 0.25,0.953125 c 0.09375,0.421875 0.21875,0.546875 0.453125,0.546875 0.1875,0 0.421875,0 0.984375,-0.921875 z m 0,0"
           id="path5" />
      </g>
    </g>
    <g
       fill="#231f20"
       fill-opacity="1"
       id="g295"
       transform="matrix(0.35277777,0,0,0.35277777,10.683902,111.44185)">
      <g
         id="use295"
         transform="translate(320.465,113.665)">
        <path
           d="m 2.84375,-0.828125 -0.078125,-0.03125 c -0.234375,0.390625 -0.34375,0.40625 -0.5625,0.40625 h -1.4375 l 1.015625,-1.0625 C 2.046875,-1.796875 2.546875,-2.34375 2.546875,-2.96875 2.546875,-3.640625 2,-4.0625 1.453125,-4.0625 c -0.515625,0 -1.09375,0.296875 -1.265625,1.203125 l 0.125,0.03125 c 0.125,-0.328125 0.3125,-0.78125 0.859375,-0.78125 0.703125,0 0.859375,0.546875 0.859375,0.859375 0,0.453125 -0.265625,0.984375 -0.78125,1.546875 l -1.0625,1.125 V 0 h 2.328125 z m 0,0"
           id="path31" />
      </g>
    </g>
    <g
       fill="#231f20"
       fill-opacity="1"
       id="g296"
       transform="matrix(0.35277777,0,0,0.35277777,10.683902,111.44185)">
      <g
         id="use296"
         transform="translate(323.465,111.665)">
        <path
           d="M 0.65625,1.125 C 0.90625,1.046875 1.5625,0.515625 1.5625,-0.046875 1.5625,-0.71875 1.09375,-0.8125 0.90625,-0.8125 c -0.1875,0 -0.453125,0.109375 -0.453125,0.453125 0,0.328125 0.28125,0.40625 0.484375,0.40625 0.0625,0 0.109375,0 0.125,-0.015625 0.03125,0 0.0625,-0.015625 0.078125,-0.015625 C 1.1875,0.015625 1.25,0.0625 1.25,0.125 1.25,0.28125 1.125,0.640625 0.59375,0.96875 Z m 0,0"
           id="path55" />
      </g>
    </g>
    <g
       fill="#231f20"
       fill-opacity="1"
       id="g297"
       transform="matrix(0.35277777,0,0,0.35277777,10.683902,111.44185)">
      <g
         id="use297"
         transform="translate(327.465,111.665)">
        <path
           d="m 0.125,-3.203125 c 0.09375,-0.015625 0.140625,-0.03125 0.265625,-0.03125 0.453125,0 0.5625,0.34375 0.78125,1.078125 0.125,0.421875 0.46875,1.828125 0.46875,2.125 0,0.21875 -0.34375,0.609375 -0.53125,0.84375 -0.28125,0.328125 -0.375,0.390625 -0.515625,0.390625 -0.140625,0 -0.234375,-0.21875 -0.484375,-0.21875 -0.171875,0 -0.296875,0.140625 -0.296875,0.296875 0,0.34375 0.34375,0.359375 0.40625,0.359375 0.953125,0 3.1875,-3.71875 3.1875,-4.671875 0,-0.28125 -0.15625,-0.5 -0.453125,-0.5 -0.203125,0 -0.296875,0.171875 -0.296875,0.28125 0,0.375 0.4375,0.28125 0.4375,0.609375 0,0.421875 -0.640625,1.5 -0.984375,2.0625 L 1.953125,-1.5 C 1.84375,-2.109375 1.375,-3.53125 1.265625,-3.53125 1.125,-3.53125 0.5,-3.40625 0.125,-3.34375 Z m 0,0"
           id="path43" />
      </g>
    </g>
    <g
       fill="#231f20"
       fill-opacity="1"
       id="g298"
       transform="matrix(0.35277777,0,0,0.35277777,10.683902,111.44185)">
      <g
         id="use298"
         transform="translate(331.017,113.665)">
        <path
           d="m 0.703125,0 h 1.65625 v -0.09375 c -0.453125,0 -0.5625,-0.0625 -0.5625,-0.34375 V -4.046875 L 1.75,-4.0625 0.671875,-3.515625 v 0.09375 C 1,-3.5625 1,-3.5625 1.078125,-3.5625 c 0.203125,0 0.203125,0.15625 0.203125,0.28125 v 2.71875 c 0,0.453125 -0.21875,0.453125 -0.578125,0.46875 z m 0,0"
           id="path25" />
      </g>
    </g>
    <g
       fill="#231f20"
       fill-opacity="1"
       id="g299"
       transform="matrix(0.35277777,0,0,0.35277777,10.683902,111.44185)">
      <g
         id="use299"
         transform="translate(334.017,111.665)">
        <path
           d="m 0.296875,1.421875 c 1.25,-0.734375 1.984375,-1.9375 1.984375,-3.3125 0,-1.109375 -0.265625,-1.6875 -0.65625,-2.265625 -0.3125,-0.4375 -0.828125,-1 -1.296875,-1.25 l -0.09375,0.125 c 1.359375,0.875 1.359375,2.625 1.359375,3.4375 0,2.03125 -0.765625,2.65625 -1.359375,3.125 z m 0,0"
           id="path49" />
      </g>
    </g>
    <g
       fill="#231f20"
       fill-opacity="1"
       id="g300"
       transform="matrix(0.35277777,0,0,0.35277777,10.683902,111.44185)">
      <g
         id="use300"
         transform="translate(313.849,125.945)">
        <path
           d="m 2.359375,-5.40625 c -1.234375,0.734375 -1.96875,1.9375 -1.96875,3.3125 0,1.109375 0.25,1.671875 0.65625,2.25 C 1.34375,0.609375 1.875,1.171875 2.34375,1.421875 L 2.4375,1.28125 c -1.359375,-0.859375 -1.359375,-2.625 -1.359375,-3.4375 0,-2.03125 0.765625,-2.65625 1.359375,-3.125 z m 0,0"
           id="path12" />
      </g>
    </g>
    <g
       fill="#231f20"
       fill-opacity="1"
       id="g301"
       transform="matrix(0.35277777,0,0,0.35277777,10.683902,111.44185)">
      <g
         id="use301"
         transform="translate(316.513,125.945)">
        <path
           d="m 3.21875,-0.890625 c -0.21875,0.25 -0.375,0.53125 -0.546875,0.53125 -0.15625,0 -0.21875,-0.1875 -0.25,-0.328125 -0.046875,-0.1875 -0.3125,-1.28125 -0.3125,-1.421875 0,0 0.53125,-0.96875 0.765625,-0.96875 0.1875,0 0.234375,0.140625 0.421875,0.140625 0.203125,0 0.28125,-0.15625 0.28125,-0.296875 0,-0.203125 -0.171875,-0.296875 -0.328125,-0.296875 -0.421875,0 -0.796875,0.484375 -1.203125,1.140625 l -0.09375,-0.4375 C 1.8125,-3.53125 1.6875,-3.53125 1.515625,-3.53125 c -0.265625,0 -0.78125,0.1875 -1,0.265625 l 0.03125,0.125 c 0.25,-0.0625 0.359375,-0.09375 0.4375,-0.09375 0.21875,0 0.25,0.109375 0.3125,0.359375 0.015625,0.046875 0.28125,1.109375 0.28125,1.171875 -0.71875,1.0625 -0.921875,1.328125 -1.0625,1.328125 -0.140625,0 -0.28125,-0.15625 -0.453125,-0.15625 -0.1875,0 -0.28125,0.140625 -0.28125,0.28125 0,0.1875 0.125,0.34375 0.390625,0.34375 0.25,0 0.34375,-0.09375 0.484375,-0.25 0.265625,-0.296875 0.609375,-0.71875 0.984375,-1.25 l 0.25,0.953125 c 0.09375,0.421875 0.21875,0.546875 0.453125,0.546875 0.1875,0 0.421875,0 0.984375,-0.921875 z m 0,0"
           id="path6" />
      </g>
    </g>
    <g
       fill="#231f20"
       fill-opacity="1"
       id="g302"
       transform="matrix(0.35277777,0,0,0.35277777,10.683902,111.44185)">
      <g
         id="use302"
         transform="translate(320.465,127.942)">
        <path
           d="m 2.84375,-0.828125 -0.078125,-0.03125 c -0.234375,0.390625 -0.34375,0.40625 -0.5625,0.40625 h -1.4375 l 1.015625,-1.0625 C 2.046875,-1.796875 2.546875,-2.34375 2.546875,-2.96875 2.546875,-3.640625 2,-4.0625 1.453125,-4.0625 c -0.515625,0 -1.09375,0.296875 -1.265625,1.203125 l 0.125,0.03125 c 0.125,-0.328125 0.3125,-0.78125 0.859375,-0.78125 0.703125,0 0.859375,0.546875 0.859375,0.859375 0,0.453125 -0.265625,0.984375 -0.78125,1.546875 l -1.0625,1.125 V 0 h 2.328125 z m 0,0"
           id="path32" />
      </g>
    </g>
    <g
       fill="#231f20"
       fill-opacity="1"
       id="g303"
       transform="matrix(0.35277777,0,0,0.35277777,10.683902,111.44185)">
      <g
         id="use303"
         transform="translate(323.465,125.942)">
        <path
           d="M 0.65625,1.125 C 0.90625,1.046875 1.5625,0.515625 1.5625,-0.046875 1.5625,-0.71875 1.09375,-0.8125 0.90625,-0.8125 c -0.1875,0 -0.453125,0.109375 -0.453125,0.453125 0,0.328125 0.28125,0.40625 0.484375,0.40625 0.0625,0 0.109375,0 0.125,-0.015625 0.03125,0 0.0625,-0.015625 0.078125,-0.015625 C 1.1875,0.015625 1.25,0.0625 1.25,0.125 1.25,0.28125 1.125,0.640625 0.59375,0.96875 Z m 0,0"
           id="path56" />
      </g>
    </g>
    <g
       fill="#231f20"
       fill-opacity="1"
       id="g304"
       transform="matrix(0.35277777,0,0,0.35277777,10.683902,111.44185)">
      <g
         id="use304"
         transform="translate(327.465,125.942)">
        <path
           d="m 0.125,-3.203125 c 0.09375,-0.015625 0.140625,-0.03125 0.265625,-0.03125 0.453125,0 0.5625,0.34375 0.78125,1.078125 0.125,0.421875 0.46875,1.828125 0.46875,2.125 0,0.21875 -0.34375,0.609375 -0.53125,0.84375 -0.28125,0.328125 -0.375,0.390625 -0.515625,0.390625 -0.140625,0 -0.234375,-0.21875 -0.484375,-0.21875 -0.171875,0 -0.296875,0.140625 -0.296875,0.296875 0,0.34375 0.34375,0.359375 0.40625,0.359375 0.953125,0 3.1875,-3.71875 3.1875,-4.671875 0,-0.28125 -0.15625,-0.5 -0.453125,-0.5 -0.203125,0 -0.296875,0.171875 -0.296875,0.28125 0,0.375 0.4375,0.28125 0.4375,0.609375 0,0.421875 -0.640625,1.5 -0.984375,2.0625 L 1.953125,-1.5 C 1.84375,-2.109375 1.375,-3.53125 1.265625,-3.53125 1.125,-3.53125 0.5,-3.40625 0.125,-3.34375 Z m 0,0"
           id="path44" />
      </g>
    </g>
    <g
       fill="#231f20"
       fill-opacity="1"
       id="g305"
       transform="matrix(0.35277777,0,0,0.35277777,10.683902,111.44185)">
      <g
         id="use305"
         transform="translate(331.41699,127.942)">
        <path
           d="m 2.84375,-0.828125 -0.078125,-0.03125 c -0.234375,0.390625 -0.34375,0.40625 -0.5625,0.40625 h -1.4375 l 1.015625,-1.0625 C 2.046875,-1.796875 2.546875,-2.34375 2.546875,-2.96875 2.546875,-3.640625 2,-4.0625 1.453125,-4.0625 c -0.515625,0 -1.09375,0.296875 -1.265625,1.203125 l 0.125,0.03125 c 0.125,-0.328125 0.3125,-0.78125 0.859375,-0.78125 0.703125,0 0.859375,0.546875 0.859375,0.859375 0,0.453125 -0.265625,0.984375 -0.78125,1.546875 l -1.0625,1.125 V 0 h 2.328125 z m 0,0"
           id="path33" />
      </g>
    </g>
    <g
       fill="#231f20"
       fill-opacity="1"
       id="g306"
       transform="matrix(0.35277777,0,0,0.35277777,10.683902,111.44185)">
      <g
         id="use306"
         transform="translate(334.71698,125.942)">
        <path
           d="m 0.296875,1.421875 c 1.25,-0.734375 1.984375,-1.9375 1.984375,-3.3125 0,-1.109375 -0.265625,-1.6875 -0.65625,-2.265625 -0.3125,-0.4375 -0.828125,-1 -1.296875,-1.25 l -0.09375,0.125 c 1.359375,0.875 1.359375,2.625 1.359375,3.4375 0,2.03125 -0.765625,2.65625 -1.359375,3.125 z m 0,0"
           id="path50" />
      </g>
    </g>
    <g
       fill="#231f20"
       fill-opacity="1"
       id="g307"
       transform="matrix(0.35277777,0,0,0.35277777,10.683902,111.44185)">
      <g
         id="use307"
         transform="translate(313.853,141.758)">
        <path
           d="m 2.359375,-5.40625 c -1.234375,0.734375 -1.96875,1.9375 -1.96875,3.3125 0,1.109375 0.25,1.671875 0.65625,2.25 C 1.34375,0.609375 1.875,1.171875 2.34375,1.421875 L 2.4375,1.28125 c -1.359375,-0.859375 -1.359375,-2.625 -1.359375,-3.4375 0,-2.03125 0.765625,-2.65625 1.359375,-3.125 z m 0,0"
           id="path13" />
      </g>
    </g>
    <g
       fill="#231f20"
       fill-opacity="1"
       id="g308"
       transform="matrix(0.35277777,0,0,0.35277777,10.683902,111.44185)">
      <g
         id="use308"
         transform="translate(316.517,141.758)">
        <path
           d="m 3.21875,-0.890625 c -0.21875,0.25 -0.375,0.53125 -0.546875,0.53125 -0.15625,0 -0.21875,-0.1875 -0.25,-0.328125 -0.046875,-0.1875 -0.3125,-1.28125 -0.3125,-1.421875 0,0 0.53125,-0.96875 0.765625,-0.96875 0.1875,0 0.234375,0.140625 0.421875,0.140625 0.203125,0 0.28125,-0.15625 0.28125,-0.296875 0,-0.203125 -0.171875,-0.296875 -0.328125,-0.296875 -0.421875,0 -0.796875,0.484375 -1.203125,1.140625 l -0.09375,-0.4375 C 1.8125,-3.53125 1.6875,-3.53125 1.515625,-3.53125 c -0.265625,0 -0.78125,0.1875 -1,0.265625 l 0.03125,0.125 c 0.25,-0.0625 0.359375,-0.09375 0.4375,-0.09375 0.21875,0 0.25,0.109375 0.3125,0.359375 0.015625,0.046875 0.28125,1.109375 0.28125,1.171875 -0.71875,1.0625 -0.921875,1.328125 -1.0625,1.328125 -0.140625,0 -0.28125,-0.15625 -0.453125,-0.15625 -0.1875,0 -0.28125,0.140625 -0.28125,0.28125 0,0.1875 0.125,0.34375 0.390625,0.34375 0.25,0 0.34375,-0.09375 0.484375,-0.25 0.265625,-0.296875 0.609375,-0.71875 0.984375,-1.25 l 0.25,0.953125 c 0.09375,0.421875 0.21875,0.546875 0.453125,0.546875 0.1875,0 0.421875,0 0.984375,-0.921875 z m 0,0"
           id="path7" />
      </g>
    </g>
    <g
       fill="#231f20"
       fill-opacity="1"
       id="g309"
       transform="matrix(0.35277777,0,0,0.35277777,10.683902,111.44185)">
      <g
         id="use309"
         transform="translate(320.465,143.755)">
        <path
           d="m 2.84375,-0.828125 -0.078125,-0.03125 c -0.234375,0.390625 -0.34375,0.40625 -0.5625,0.40625 h -1.4375 l 1.015625,-1.0625 C 2.046875,-1.796875 2.546875,-2.34375 2.546875,-2.96875 2.546875,-3.640625 2,-4.0625 1.453125,-4.0625 c -0.515625,0 -1.09375,0.296875 -1.265625,1.203125 l 0.125,0.03125 c 0.125,-0.328125 0.3125,-0.78125 0.859375,-0.78125 0.703125,0 0.859375,0.546875 0.859375,0.859375 0,0.453125 -0.265625,0.984375 -0.78125,1.546875 l -1.0625,1.125 V 0 h 2.328125 z m 0,0"
           id="path34" />
      </g>
    </g>
    <g
       fill="#231f20"
       fill-opacity="1"
       id="g310"
       transform="matrix(0.35277777,0,0,0.35277777,10.683902,111.44185)">
      <g
         id="use310"
         transform="translate(323.465,141.755)">
        <path
           d="M 0.65625,1.125 C 0.90625,1.046875 1.5625,0.515625 1.5625,-0.046875 1.5625,-0.71875 1.09375,-0.8125 0.90625,-0.8125 c -0.1875,0 -0.453125,0.109375 -0.453125,0.453125 0,0.328125 0.28125,0.40625 0.484375,0.40625 0.0625,0 0.109375,0 0.125,-0.015625 0.03125,0 0.0625,-0.015625 0.078125,-0.015625 C 1.1875,0.015625 1.25,0.0625 1.25,0.125 1.25,0.28125 1.125,0.640625 0.59375,0.96875 Z m 0,0"
           id="path57" />
      </g>
    </g>
    <g
       fill="#231f20"
       fill-opacity="1"
       id="g311"
       transform="matrix(0.35277777,0,0,0.35277777,10.683902,111.44185)">
      <g
         id="use311"
         transform="translate(327.465,141.755)">
        <path
           d="m 0.125,-3.203125 c 0.09375,-0.015625 0.140625,-0.03125 0.265625,-0.03125 0.453125,0 0.5625,0.34375 0.78125,1.078125 0.125,0.421875 0.46875,1.828125 0.46875,2.125 0,0.21875 -0.34375,0.609375 -0.53125,0.84375 -0.28125,0.328125 -0.375,0.390625 -0.515625,0.390625 -0.140625,0 -0.234375,-0.21875 -0.484375,-0.21875 -0.171875,0 -0.296875,0.140625 -0.296875,0.296875 0,0.34375 0.34375,0.359375 0.40625,0.359375 0.953125,0 3.1875,-3.71875 3.1875,-4.671875 0,-0.28125 -0.15625,-0.5 -0.453125,-0.5 -0.203125,0 -0.296875,0.171875 -0.296875,0.28125 0,0.375 0.4375,0.28125 0.4375,0.609375 0,0.421875 -0.640625,1.5 -0.984375,2.0625 L 1.953125,-1.5 C 1.84375,-2.109375 1.375,-3.53125 1.265625,-3.53125 1.125,-3.53125 0.5,-3.40625 0.125,-3.34375 Z m 0,0"
           id="path45" />
      </g>
    </g>
    <g
       fill="#231f20"
       fill-opacity="1"
       id="g312"
       transform="matrix(0.35277777,0,0,0.35277777,10.683902,111.44185)">
      <g
         id="use312"
         transform="translate(331.41699,143.755)">
        <path
           d="m 0.921875,-1.984375 c 0.40625,0 0.5625,0.015625 0.78125,0.140625 0.375,0.1875 0.453125,0.640625 0.453125,0.78125 0,0.453125 -0.25,0.9375 -0.8125,0.9375 -0.34375,0 -0.578125,-0.34375 -0.859375,-0.34375 -0.09375,0 -0.21875,0.046875 -0.21875,0.203125 0,0.3125 0.515625,0.34375 0.65625,0.34375 0.9375,0 1.671875,-0.515625 1.671875,-1.375 0,-0.796875 -0.515625,-1 -0.765625,-1.109375 C 2.21875,-2.65625 2.375,-2.921875 2.375,-3.25 c 0,-0.234375 -0.15625,-0.8125 -0.921875,-0.8125 -0.40625,0 -0.9375,0.1875 -1.1875,0.984375 l 0.09375,0.015625 c 0.09375,-0.171875 0.34375,-0.640625 0.890625,-0.640625 0.4375,0 0.65625,0.328125 0.65625,0.625 0,0.5625 -0.453125,0.84375 -1,1.015625 z m 0,0"
           id="path18" />
      </g>
    </g>
    <g
       fill="#231f20"
       fill-opacity="1"
       id="g313"
       transform="matrix(0.35277777,0,0,0.35277777,10.683902,111.44185)">
      <g
         id="use313"
         transform="translate(334.41699,141.755)">
        <path
           d="m 0.296875,1.421875 c 1.25,-0.734375 1.984375,-1.9375 1.984375,-3.3125 0,-1.109375 -0.265625,-1.6875 -0.65625,-2.265625 -0.3125,-0.4375 -0.828125,-1 -1.296875,-1.25 l -0.09375,0.125 c 1.359375,0.875 1.359375,2.625 1.359375,3.4375 0,2.03125 -0.765625,2.65625 -1.359375,3.125 z m 0,0"
           id="path51" />
      </g>
    </g>
    <g
       fill="#231f20"
       fill-opacity="1"
       id="g314"
       transform="matrix(0.35277777,0,0,0.35277777,10.683902,111.44185)">
      <g
         id="use314"
         transform="translate(313.849,86.179001)">
        <path
           d="m 2.359375,-5.40625 c -1.234375,0.734375 -1.96875,1.9375 -1.96875,3.3125 0,1.109375 0.25,1.671875 0.65625,2.25 C 1.34375,0.609375 1.875,1.171875 2.34375,1.421875 L 2.4375,1.28125 c -1.359375,-0.859375 -1.359375,-2.625 -1.359375,-3.4375 0,-2.03125 0.765625,-2.65625 1.359375,-3.125 z m 0,0"
           id="path14" />
      </g>
    </g>
    <g
       fill="#231f20"
       fill-opacity="1"
       id="g315"
       transform="matrix(0.35277777,0,0,0.35277777,10.683902,111.44185)">
      <g
         id="use315"
         transform="translate(316.513,86.179001)">
        <path
           d="m 3.21875,-0.890625 c -0.21875,0.25 -0.375,0.53125 -0.546875,0.53125 -0.15625,0 -0.21875,-0.1875 -0.25,-0.328125 -0.046875,-0.1875 -0.3125,-1.28125 -0.3125,-1.421875 0,0 0.53125,-0.96875 0.765625,-0.96875 0.1875,0 0.234375,0.140625 0.421875,0.140625 0.203125,0 0.28125,-0.15625 0.28125,-0.296875 0,-0.203125 -0.171875,-0.296875 -0.328125,-0.296875 -0.421875,0 -0.796875,0.484375 -1.203125,1.140625 l -0.09375,-0.4375 C 1.8125,-3.53125 1.6875,-3.53125 1.515625,-3.53125 c -0.265625,0 -0.78125,0.1875 -1,0.265625 l 0.03125,0.125 c 0.25,-0.0625 0.359375,-0.09375 0.4375,-0.09375 0.21875,0 0.25,0.109375 0.3125,0.359375 0.015625,0.046875 0.28125,1.109375 0.28125,1.171875 -0.71875,1.0625 -0.921875,1.328125 -1.0625,1.328125 -0.140625,0 -0.28125,-0.15625 -0.453125,-0.15625 -0.1875,0 -0.28125,0.140625 -0.28125,0.28125 0,0.1875 0.125,0.34375 0.390625,0.34375 0.25,0 0.34375,-0.09375 0.484375,-0.25 0.265625,-0.296875 0.609375,-0.71875 0.984375,-1.25 l 0.25,0.953125 c 0.09375,0.421875 0.21875,0.546875 0.453125,0.546875 0.1875,0 0.421875,0 0.984375,-0.921875 z m 0,0"
           id="path8" />
      </g>
    </g>
    <g
       fill="#231f20"
       fill-opacity="1"
       id="g316"
       transform="matrix(0.35277777,0,0,0.35277777,10.683902,111.44185)">
      <g
         id="use316"
         transform="translate(320.065,88.181999)">
        <path
           d="m 0.703125,0 h 1.65625 v -0.09375 c -0.453125,0 -0.5625,-0.0625 -0.5625,-0.34375 V -4.046875 L 1.75,-4.0625 0.671875,-3.515625 v 0.09375 C 1,-3.5625 1,-3.5625 1.078125,-3.5625 c 0.203125,0 0.203125,0.15625 0.203125,0.28125 v 2.71875 c 0,0.453125 -0.21875,0.453125 -0.578125,0.46875 z m 0,0"
           id="path26" />
      </g>
    </g>
    <g
       fill="#231f20"
       fill-opacity="1"
       id="g317"
       transform="matrix(0.35277777,0,0,0.35277777,10.683902,111.44185)">
      <g
         id="use317"
         transform="translate(323.065,86.181999)">
        <path
           d="M 0.65625,1.125 C 0.90625,1.046875 1.5625,0.515625 1.5625,-0.046875 1.5625,-0.71875 1.09375,-0.8125 0.90625,-0.8125 c -0.1875,0 -0.453125,0.109375 -0.453125,0.453125 0,0.328125 0.28125,0.40625 0.484375,0.40625 0.0625,0 0.109375,0 0.125,-0.015625 0.03125,0 0.0625,-0.015625 0.078125,-0.015625 C 1.1875,0.015625 1.25,0.0625 1.25,0.125 1.25,0.28125 1.125,0.640625 0.59375,0.96875 Z m 0,0"
           id="path59" />
      </g>
    </g>
    <g
       fill="#231f20"
       fill-opacity="1"
       id="g318"
       transform="matrix(0.35277777,0,0,0.35277777,10.683902,111.44185)">
      <g
         id="use318"
         transform="translate(327.065,86.181999)">
        <path
           d="m 0.125,-3.203125 c 0.09375,-0.015625 0.140625,-0.03125 0.265625,-0.03125 0.453125,0 0.5625,0.34375 0.78125,1.078125 0.125,0.421875 0.46875,1.828125 0.46875,2.125 0,0.21875 -0.34375,0.609375 -0.53125,0.84375 -0.28125,0.328125 -0.375,0.390625 -0.515625,0.390625 -0.140625,0 -0.234375,-0.21875 -0.484375,-0.21875 -0.171875,0 -0.296875,0.140625 -0.296875,0.296875 0,0.34375 0.34375,0.359375 0.40625,0.359375 0.953125,0 3.1875,-3.71875 3.1875,-4.671875 0,-0.28125 -0.15625,-0.5 -0.453125,-0.5 -0.203125,0 -0.296875,0.171875 -0.296875,0.28125 0,0.375 0.4375,0.28125 0.4375,0.609375 0,0.421875 -0.640625,1.5 -0.984375,2.0625 L 1.953125,-1.5 C 1.84375,-2.109375 1.375,-3.53125 1.265625,-3.53125 1.125,-3.53125 0.5,-3.40625 0.125,-3.34375 Z m 0,0"
           id="path46" />
      </g>
    </g>
    <g
       fill="#231f20"
       fill-opacity="1"
       id="g319"
       transform="matrix(0.35277777,0,0,0.35277777,10.683902,111.44185)">
      <g
         id="use319"
         transform="translate(330.617,88.181999)">
        <path
           d="m 2.84375,-0.828125 -0.078125,-0.03125 c -0.234375,0.390625 -0.34375,0.40625 -0.5625,0.40625 h -1.4375 l 1.015625,-1.0625 C 2.046875,-1.796875 2.546875,-2.34375 2.546875,-2.96875 2.546875,-3.640625 2,-4.0625 1.453125,-4.0625 c -0.515625,0 -1.09375,0.296875 -1.265625,1.203125 l 0.125,0.03125 c 0.125,-0.328125 0.3125,-0.78125 0.859375,-0.78125 0.703125,0 0.859375,0.546875 0.859375,0.859375 0,0.453125 -0.265625,0.984375 -0.78125,1.546875 l -1.0625,1.125 V 0 h 2.328125 z m 0,0"
           id="path35" />
      </g>
    </g>
    <g
       fill="#231f20"
       fill-opacity="1"
       id="g320"
       transform="matrix(0.35277777,0,0,0.35277777,10.683902,111.44185)">
      <g
         id="use320"
         transform="translate(333.617,86.181999)">
        <path
           d="m 0.296875,1.421875 c 1.25,-0.734375 1.984375,-1.9375 1.984375,-3.3125 0,-1.109375 -0.265625,-1.6875 -0.65625,-2.265625 -0.3125,-0.4375 -0.828125,-1 -1.296875,-1.25 l -0.09375,0.125 c 1.359375,0.875 1.359375,2.625 1.359375,3.4375 0,2.03125 -0.765625,2.65625 -1.359375,3.125 z m 0,0"
           id="path52" />
      </g>
    </g>
    <g
       fill="#231f20"
       fill-opacity="1"
       id="g321"
       transform="matrix(0.35277777,0,0,0.35277777,10.683902,111.44185)">
      <g
         id="use321"
         transform="translate(313.849,101.07)">
        <path
           d="m 2.359375,-5.40625 c -1.234375,0.734375 -1.96875,1.9375 -1.96875,3.3125 0,1.109375 0.25,1.671875 0.65625,2.25 C 1.34375,0.609375 1.875,1.171875 2.34375,1.421875 L 2.4375,1.28125 c -1.359375,-0.859375 -1.359375,-2.625 -1.359375,-3.4375 0,-2.03125 0.765625,-2.65625 1.359375,-3.125 z m 0,0"
           id="path15" />
      </g>
    </g>
    <g
       fill="#231f20"
       fill-opacity="1"
       id="g322"
       transform="matrix(0.35277777,0,0,0.35277777,10.683902,111.44185)">
      <g
         id="use322"
         transform="translate(316.513,101.07)">
        <path
           d="m 3.21875,-0.890625 c -0.21875,0.25 -0.375,0.53125 -0.546875,0.53125 -0.15625,0 -0.21875,-0.1875 -0.25,-0.328125 -0.046875,-0.1875 -0.3125,-1.28125 -0.3125,-1.421875 0,0 0.53125,-0.96875 0.765625,-0.96875 0.1875,0 0.234375,0.140625 0.421875,0.140625 0.203125,0 0.28125,-0.15625 0.28125,-0.296875 0,-0.203125 -0.171875,-0.296875 -0.328125,-0.296875 -0.421875,0 -0.796875,0.484375 -1.203125,1.140625 l -0.09375,-0.4375 C 1.8125,-3.53125 1.6875,-3.53125 1.515625,-3.53125 c -0.265625,0 -0.78125,0.1875 -1,0.265625 l 0.03125,0.125 c 0.25,-0.0625 0.359375,-0.09375 0.4375,-0.09375 0.21875,0 0.25,0.109375 0.3125,0.359375 0.015625,0.046875 0.28125,1.109375 0.28125,1.171875 -0.71875,1.0625 -0.921875,1.328125 -1.0625,1.328125 -0.140625,0 -0.28125,-0.15625 -0.453125,-0.15625 -0.1875,0 -0.28125,0.140625 -0.28125,0.28125 0,0.1875 0.125,0.34375 0.390625,0.34375 0.25,0 0.34375,-0.09375 0.484375,-0.25 0.265625,-0.296875 0.609375,-0.71875 0.984375,-1.25 l 0.25,0.953125 c 0.09375,0.421875 0.21875,0.546875 0.453125,0.546875 0.1875,0 0.421875,0 0.984375,-0.921875 z m 0,0"
           id="path9" />
      </g>
    </g>
    <g
       fill="#231f20"
       fill-opacity="1"
       id="g323"
       transform="matrix(0.35277777,0,0,0.35277777,10.683902,111.44185)">
      <g
         id="use323"
         transform="translate(320.065,103.0729)">
        <path
           d="m 0.703125,0 h 1.65625 v -0.09375 c -0.453125,0 -0.5625,-0.0625 -0.5625,-0.34375 V -4.046875 L 1.75,-4.0625 0.671875,-3.515625 v 0.09375 C 1,-3.5625 1,-3.5625 1.078125,-3.5625 c 0.203125,0 0.203125,0.15625 0.203125,0.28125 v 2.71875 c 0,0.453125 -0.21875,0.453125 -0.578125,0.46875 z m 0,0"
           id="path27" />
      </g>
    </g>
    <g
       fill="#231f20"
       fill-opacity="1"
       id="g324"
       transform="matrix(0.35277777,0,0,0.35277777,10.683902,111.44185)">
      <g
         id="use324"
         transform="translate(323.065,101.073)">
        <path
           d="M 0.65625,1.125 C 0.90625,1.046875 1.5625,0.515625 1.5625,-0.046875 1.5625,-0.71875 1.09375,-0.8125 0.90625,-0.8125 c -0.1875,0 -0.453125,0.109375 -0.453125,0.453125 0,0.328125 0.28125,0.40625 0.484375,0.40625 0.0625,0 0.109375,0 0.125,-0.015625 0.03125,0 0.0625,-0.015625 0.078125,-0.015625 C 1.1875,0.015625 1.25,0.0625 1.25,0.125 1.25,0.28125 1.125,0.640625 0.59375,0.96875 Z m 0,0"
           id="path60" />
      </g>
    </g>
    <g
       fill="#231f20"
       fill-opacity="1"
       id="g325"
       transform="matrix(0.35277777,0,0,0.35277777,10.683902,111.44185)">
      <g
         id="use325"
         transform="translate(327.065,101.073)">
        <path
           d="m 0.125,-3.203125 c 0.09375,-0.015625 0.140625,-0.03125 0.265625,-0.03125 0.453125,0 0.5625,0.34375 0.78125,1.078125 0.125,0.421875 0.46875,1.828125 0.46875,2.125 0,0.21875 -0.34375,0.609375 -0.53125,0.84375 -0.28125,0.328125 -0.375,0.390625 -0.515625,0.390625 -0.140625,0 -0.234375,-0.21875 -0.484375,-0.21875 -0.171875,0 -0.296875,0.140625 -0.296875,0.296875 0,0.34375 0.34375,0.359375 0.40625,0.359375 0.953125,0 3.1875,-3.71875 3.1875,-4.671875 0,-0.28125 -0.15625,-0.5 -0.453125,-0.5 -0.203125,0 -0.296875,0.171875 -0.296875,0.28125 0,0.375 0.4375,0.28125 0.4375,0.609375 0,0.421875 -0.640625,1.5 -0.984375,2.0625 L 1.953125,-1.5 C 1.84375,-2.109375 1.375,-3.53125 1.265625,-3.53125 1.125,-3.53125 0.5,-3.40625 0.125,-3.34375 Z m 0,0"
           id="path47" />
      </g>
    </g>
    <g
       fill="#231f20"
       fill-opacity="1"
       id="g326"
       transform="matrix(0.35277777,0,0,0.35277777,10.683902,111.44185)">
      <g
         id="use326"
         transform="translate(330.617,103.0729)">
        <path
           d="m 0.921875,-1.984375 c 0.40625,0 0.5625,0.015625 0.78125,0.140625 0.375,0.1875 0.453125,0.640625 0.453125,0.78125 0,0.453125 -0.25,0.9375 -0.8125,0.9375 -0.34375,0 -0.578125,-0.34375 -0.859375,-0.34375 -0.09375,0 -0.21875,0.046875 -0.21875,0.203125 0,0.3125 0.515625,0.34375 0.65625,0.34375 0.9375,0 1.671875,-0.515625 1.671875,-1.375 0,-0.796875 -0.515625,-1 -0.765625,-1.109375 C 2.21875,-2.65625 2.375,-2.921875 2.375,-3.25 c 0,-0.234375 -0.15625,-0.8125 -0.921875,-0.8125 -0.40625,0 -0.9375,0.1875 -1.1875,0.984375 l 0.09375,0.015625 c 0.09375,-0.171875 0.34375,-0.640625 0.890625,-0.640625 0.4375,0 0.65625,0.328125 0.65625,0.625 0,0.5625 -0.453125,0.84375 -1,1.015625 z m 0,0"
           id="path19" />
      </g>
    </g>
    <g
       fill="#231f20"
       fill-opacity="1"
       id="g327"
       transform="matrix(0.35277777,0,0,0.35277777,10.683902,111.44185)">
      <g
         id="use327"
         transform="translate(333.617,101.073)">
        <path
           d="m 0.296875,1.421875 c 1.25,-0.734375 1.984375,-1.9375 1.984375,-3.3125 0,-1.109375 -0.265625,-1.6875 -0.65625,-2.265625 -0.3125,-0.4375 -0.828125,-1 -1.296875,-1.25 l -0.09375,0.125 c 1.359375,0.875 1.359375,2.625 1.359375,3.4375 0,2.03125 -0.765625,2.65625 -1.359375,3.125 z m 0,0"
           id="path53" />
      </g>
    </g>
  </g>
</svg>
