<?xml version="1.0" encoding="UTF-8" standalone="no"?>
<!-- Created with Inkscape (http://www.inkscape.org/) -->

<svg
   width="76.175873mm"
   height="61.679619mm"
   viewBox="0 0 76.175873 61.679619"
   version="1.1"
   id="svg1"
   inkscape:version="1.3.2 (091e20e, 2023-11-25)"
   sodipodi:docname="fig-1-4.svg"
   xmlns:inkscape="http://www.inkscape.org/namespaces/inkscape"
   xmlns:sodipodi="http://sodipodi.sourceforge.net/DTD/sodipodi-0.dtd"
   xmlns="http://www.w3.org/2000/svg"
   xmlns:svg="http://www.w3.org/2000/svg">
  <sodipodi:namedview
     id="namedview1"
     pagecolor="#ffffff"
     bordercolor="#000000"
     borderopacity="0.25"
     inkscape:showpageshadow="2"
     inkscape:pageopacity="0.0"
     inkscape:pagecheckerboard="0"
     inkscape:deskcolor="#d1d1d1"
     inkscape:document-units="mm"
     inkscape:zoom="0.2102413"
     inkscape:cx="145.0714"
     inkscape:cy="114.15454"
     inkscape:window-width="1312"
     inkscape:window-height="449"
     inkscape:window-x="0"
     inkscape:window-y="38"
     inkscape:window-maximized="0"
     inkscape:current-layer="layer1" />
  <defs
     id="defs1" />
  <g
     inkscape:label="Layer 1"
     inkscape:groupmode="layer"
     id="layer1"
     transform="translate(-66.960953,-117.73958)">
    <path
       fill="none"
       stroke-width="0.352778"
       stroke-linecap="butt"
       stroke-linejoin="miter"
       stroke="#231f20"
       stroke-opacity="1"
       stroke-miterlimit="4"
       d="M 142.96044,179.24281 H 69.232639 v -61.32684 h 73.727801 z m -6.6766,-38.29017 c 0,7.60263 -8.89386,13.76522 -19.86304,13.76522 -10.96918,0 -19.863043,-6.16259 -19.863043,-13.76522 0,-7.60402 8.893863,-13.7666 19.863043,-13.7666 10.96918,0 19.86304,6.16258 19.86304,13.7666 z m -20.6499,0 c 0,7.60263 -8.89248,13.76522 -19.861663,13.76522 -10.969184,0 -19.861664,-6.16259 -19.861664,-13.76522 0,-7.60402 8.89248,-13.7666 19.861664,-13.7666 10.969183,0 19.861663,6.16258 19.861663,13.7666 z m 10.32564,13.46619 c 0,7.60401 -8.89386,13.7666 -19.86304,13.7666 -10.969187,0 -19.861667,-6.16259 -19.861667,-13.7666 0,-7.60126 8.89248,-13.76522 19.861667,-13.76522 10.96918,0 19.86304,6.16396 19.86304,13.76522 z m 0,0"
       id="path1643" />
    <g
       fill="#231f20"
       fill-opacity="1"
       id="g1644"
       transform="matrix(0.35277777,0,0,0.35277777,-3.292131,-60.324997)">
      <g
         id="use1644"
         transform="translate(355.84198,653.552)">
        <path
           d="m 2.9375,-5.34375 -2.3125,4 c -0.65625,1.125 -0.734375,1.140625 -1.03125,1.21875 V 0 h 1.5 v -0.125 c -0.375,-0.03125 -0.484375,-0.078125 -0.484375,-0.28125 0,-0.171875 0.046875,-0.28125 0.171875,-0.5 L 1.234375,-1.8125 h 1.75 l 0.171875,1.046875 c 0.015625,0.125 0.015625,0.234375 0.015625,0.234375 0,0.328125 -0.21875,0.375 -0.625,0.40625 V 0 h 1.96875 V -0.125 C 4.046875,-0.171875 4,-0.25 3.90625,-0.8125 l -0.75,-4.53125 z m -1.53125,3.25 1.1875,-2.078125 0.359375,2.078125 z m 0,0"
           id="path58" />
      </g>
    </g>
    <g
       fill="#231f20"
       fill-opacity="1"
       id="g1645"
       transform="matrix(0.35277777,0,0,0.35277777,-3.292131,-60.324997)">
      <g
         id="use1645"
         transform="translate(360.72998,656.552)">
        <path
           d="m 0.703125,0 h 1.65625 v -0.09375 c -0.453125,0 -0.5625,-0.0625 -0.5625,-0.34375 V -4.046875 L 1.75,-4.0625 0.671875,-3.515625 v 0.09375 C 1,-3.5625 1,-3.5625 1.078125,-3.5625 c 0.203125,0 0.203125,0.15625 0.203125,0.28125 v 2.71875 c 0,0.453125 -0.21875,0.453125 -0.578125,0.46875 z m 0,0"
           id="path48" />
      </g>
    </g>
    <g
       fill="#231f20"
       fill-opacity="1"
       id="g1646"
       transform="matrix(0.35277777,0,0,0.35277777,-3.292131,-60.324997)">
      <g
         id="use1646"
         transform="translate(361.17999,650.552)">
        <path
           d="m 2.09375,-0.640625 c -0.203125,0.25 -0.484375,0.484375 -0.859375,0.484375 -0.359375,0 -0.53125,-0.265625 -0.53125,-0.71875 0,-0.578125 0.40625,-1.640625 1.1875,-1.640625 0.109375,0 0.234375,0.03125 0.234375,0.109375 0,0.109375 -0.09375,0.140625 -0.09375,0.296875 0,0.140625 0.09375,0.21875 0.234375,0.21875 0.15625,0 0.28125,-0.09375 0.28125,-0.265625 0,-0.1875 -0.140625,-0.484375 -0.65625,-0.484375 -0.875,0 -1.703125,0.90625 -1.703125,1.765625 0,0.796875 0.484375,0.9375 0.875,0.9375 0.640625,0 0.984375,-0.453125 1.140625,-0.640625 z m 0,0"
           id="path18" />
      </g>
    </g>
    <g
       fill="#231f20"
       fill-opacity="1"
       id="g1647"
       transform="matrix(0.35277777,0,0,0.35277777,-3.292131,-60.324997)">
      <g
         id="use1647"
         transform="translate(363.84399,653.552)">
        <path
           d="m 5.3125,0 h 0.46875 v -2.890625 c 0,-1.515625 -1,-2.3125 -2.453125,-2.3125 -1.453125,0 -2.453125,0.796875 -2.453125,2.3125 V 0 h 0.46875 v -2.890625 c 0,-1.25 0.828125,-1.84375 1.984375,-1.84375 1.15625,0 1.984375,0.59375 1.984375,1.84375 z m 0,0"
           id="path1" />
      </g>
    </g>
    <g
       fill="#231f20"
       fill-opacity="1"
       id="g1648"
       transform="matrix(0.35277777,0,0,0.35277777,-3.292131,-60.324997)">
      <g
         id="use1648"
         transform="translate(371.108,653.552)">
        <path
           d="m 2.9375,-5.34375 -2.3125,4 c -0.65625,1.125 -0.734375,1.140625 -1.03125,1.21875 V 0 h 1.5 v -0.125 c -0.375,-0.03125 -0.484375,-0.078125 -0.484375,-0.28125 0,-0.171875 0.046875,-0.28125 0.171875,-0.5 L 1.234375,-1.8125 h 1.75 l 0.171875,1.046875 c 0.015625,0.125 0.015625,0.234375 0.015625,0.234375 0,0.328125 -0.21875,0.375 -0.625,0.40625 V 0 h 1.96875 V -0.125 C 4.046875,-0.171875 4,-0.25 3.90625,-0.8125 l -0.75,-4.53125 z m -1.53125,3.25 1.1875,-2.078125 0.359375,2.078125 z m 0,0"
           id="path59" />
      </g>
    </g>
    <g
       fill="#231f20"
       fill-opacity="1"
       id="g1649"
       transform="matrix(0.35277777,0,0,0.35277777,-3.292131,-60.324997)">
      <g
         id="use1649"
         transform="translate(376.19598,656.552)">
        <path
           d="m 2.84375,-0.828125 -0.078125,-0.03125 c -0.234375,0.390625 -0.34375,0.40625 -0.5625,0.40625 h -1.4375 l 1.015625,-1.0625 C 2.046875,-1.796875 2.546875,-2.34375 2.546875,-2.96875 2.546875,-3.640625 2,-4.0625 1.453125,-4.0625 c -0.515625,0 -1.09375,0.296875 -1.265625,1.203125 l 0.125,0.03125 c 0.125,-0.328125 0.3125,-0.78125 0.859375,-0.78125 0.703125,0 0.859375,0.546875 0.859375,0.859375 0,0.453125 -0.265625,0.984375 -0.78125,1.546875 l -1.0625,1.125 V 0 h 2.328125 z m 0,0"
           id="path39" />
      </g>
    </g>
    <g
       fill="#231f20"
       fill-opacity="1"
       id="g1650"
       transform="matrix(0.35277777,0,0,0.35277777,-3.292131,-60.324997)">
      <g
         id="use1650"
         transform="translate(376.34598,650.552)">
        <path
           d="m 2.09375,-0.640625 c -0.203125,0.25 -0.484375,0.484375 -0.859375,0.484375 -0.359375,0 -0.53125,-0.265625 -0.53125,-0.71875 0,-0.578125 0.40625,-1.640625 1.1875,-1.640625 0.109375,0 0.234375,0.03125 0.234375,0.109375 0,0.109375 -0.09375,0.140625 -0.09375,0.296875 0,0.140625 0.09375,0.21875 0.234375,0.21875 0.15625,0 0.28125,-0.09375 0.28125,-0.265625 0,-0.1875 -0.140625,-0.484375 -0.65625,-0.484375 -0.875,0 -1.703125,0.90625 -1.703125,1.765625 0,0.796875 0.484375,0.9375 0.875,0.9375 0.640625,0 0.984375,-0.453125 1.140625,-0.640625 z m 0,0"
           id="path19" />
      </g>
    </g>
    <g
       fill="#231f20"
       fill-opacity="1"
       id="g1651"
       transform="matrix(0.35277777,0,0,0.35277777,-3.292131,-60.324997)">
      <g
         id="use1651"
         transform="translate(379.31,653.552)">
        <path
           d="m 5.3125,0 h 0.46875 v -2.890625 c 0,-1.515625 -1,-2.3125 -2.453125,-2.3125 -1.453125,0 -2.453125,0.796875 -2.453125,2.3125 V 0 h 0.46875 v -2.890625 c 0,-1.25 0.828125,-1.84375 1.984375,-1.84375 1.15625,0 1.984375,0.59375 1.984375,1.84375 z m 0,0"
           id="path3" />
      </g>
    </g>
    <g
       fill="#231f20"
       fill-opacity="1"
       id="g1652"
       transform="matrix(0.35277777,0,0,0.35277777,-3.292131,-60.324997)">
      <g
         id="use1652"
         transform="translate(386.37399,653.552)">
        <path
           d="m 2.9375,-5.34375 -2.3125,4 c -0.65625,1.125 -0.734375,1.140625 -1.03125,1.21875 V 0 h 1.5 v -0.125 c -0.375,-0.03125 -0.484375,-0.078125 -0.484375,-0.28125 0,-0.171875 0.046875,-0.28125 0.171875,-0.5 L 1.234375,-1.8125 h 1.75 l 0.171875,1.046875 c 0.015625,0.125 0.015625,0.234375 0.015625,0.234375 0,0.328125 -0.21875,0.375 -0.625,0.40625 V 0 h 1.96875 V -0.125 C 4.046875,-0.171875 4,-0.25 3.90625,-0.8125 l -0.75,-4.53125 z m -1.53125,3.25 1.1875,-2.078125 0.359375,2.078125 z m 0,0"
           id="path60" />
      </g>
    </g>
    <g
       fill="#231f20"
       fill-opacity="1"
       id="g1653"
       transform="matrix(0.35277777,0,0,0.35277777,-3.292131,-60.324997)">
      <g
         id="use1653"
         transform="translate(391.26199,656.552)">
        <path
           d="m 0.921875,-1.984375 c 0.40625,0 0.5625,0.015625 0.78125,0.140625 0.375,0.1875 0.453125,0.640625 0.453125,0.78125 0,0.453125 -0.25,0.9375 -0.8125,0.9375 -0.34375,0 -0.578125,-0.34375 -0.859375,-0.34375 -0.09375,0 -0.21875,0.046875 -0.21875,0.203125 0,0.3125 0.515625,0.34375 0.65625,0.34375 0.9375,0 1.671875,-0.515625 1.671875,-1.375 0,-0.796875 -0.515625,-1 -0.765625,-1.109375 C 2.21875,-2.65625 2.375,-2.921875 2.375,-3.25 c 0,-0.234375 -0.15625,-0.8125 -0.921875,-0.8125 -0.40625,0 -0.9375,0.1875 -1.1875,0.984375 l 0.09375,0.015625 c 0.09375,-0.171875 0.34375,-0.640625 0.890625,-0.640625 0.4375,0 0.65625,0.328125 0.65625,0.625 0,0.5625 -0.453125,0.84375 -1,1.015625 z m 0,0"
           id="path30" />
      </g>
    </g>
    <g
       fill="#231f20"
       fill-opacity="1"
       id="g1654"
       transform="matrix(0.35277777,0,0,0.35277777,-3.292131,-60.324997)">
      <g
         id="use1654"
         transform="translate(391.56198,650.552)">
        <path
           d="m 2.09375,-0.640625 c -0.203125,0.25 -0.484375,0.484375 -0.859375,0.484375 -0.359375,0 -0.53125,-0.265625 -0.53125,-0.71875 0,-0.578125 0.40625,-1.640625 1.1875,-1.640625 0.109375,0 0.234375,0.03125 0.234375,0.109375 0,0.109375 -0.09375,0.140625 -0.09375,0.296875 0,0.140625 0.09375,0.21875 0.234375,0.21875 0.15625,0 0.28125,-0.09375 0.28125,-0.265625 0,-0.1875 -0.140625,-0.484375 -0.65625,-0.484375 -0.875,0 -1.703125,0.90625 -1.703125,1.765625 0,0.796875 0.484375,0.9375 0.875,0.9375 0.640625,0 0.984375,-0.453125 1.140625,-0.640625 z m 0,0"
           id="path20" />
      </g>
    </g>
    <g
       fill="#231f20"
       fill-opacity="1"
       id="g1655"
       transform="matrix(0.35277777,0,0,0.35277777,-3.292131,-60.324997)">
      <g
         id="use1655"
         transform="translate(232.59698,568.31097)">
        <path
           d="m 2.9375,-5.34375 -2.3125,4 c -0.65625,1.125 -0.734375,1.140625 -1.03125,1.21875 V 0 h 1.5 v -0.125 c -0.375,-0.03125 -0.484375,-0.078125 -0.484375,-0.28125 0,-0.171875 0.046875,-0.28125 0.171875,-0.5 L 1.234375,-1.8125 h 1.75 l 0.171875,1.046875 c 0.015625,0.125 0.015625,0.234375 0.015625,0.234375 0,0.328125 -0.21875,0.375 -0.625,0.40625 V 0 h 1.96875 V -0.125 C 4.046875,-0.171875 4,-0.25 3.90625,-0.8125 l -0.75,-4.53125 z m -1.53125,3.25 1.1875,-2.078125 0.359375,2.078125 z m 0,0"
           id="path61" />
      </g>
    </g>
    <g
       fill="#231f20"
       fill-opacity="1"
       id="g1656"
       transform="matrix(0.35277777,0,0,0.35277777,-3.292131,-60.324997)">
      <g
         id="use1656"
         transform="translate(237.48499,571.31097)">
        <path
           d="m 0.703125,0 h 1.65625 v -0.09375 c -0.453125,0 -0.5625,-0.0625 -0.5625,-0.34375 V -4.046875 L 1.75,-4.0625 0.671875,-3.515625 v 0.09375 C 1,-3.5625 1,-3.5625 1.078125,-3.5625 c 0.203125,0 0.203125,0.15625 0.203125,0.28125 v 2.71875 c 0,0.453125 -0.21875,0.453125 -0.578125,0.46875 z m 0,0"
           id="path49" />
      </g>
    </g>
    <g
       fill="#231f20"
       fill-opacity="1"
       id="g1657"
       transform="matrix(0.35277777,0,0,0.35277777,-3.292131,-60.324997)">
      <g
         id="use1657"
         transform="translate(239.435,568.31097)">
        <path
           d="m 5.3125,0 h 0.46875 v -2.890625 c 0,-1.515625 -1,-2.3125 -2.453125,-2.3125 -1.453125,0 -2.453125,0.796875 -2.453125,2.3125 V 0 h 0.46875 v -2.890625 c 0,-1.25 0.828125,-1.84375 1.984375,-1.84375 1.15625,0 1.984375,0.59375 1.984375,1.84375 z m 0,0"
           id="path4" />
      </g>
    </g>
    <g
       fill="#231f20"
       fill-opacity="1"
       id="g1658"
       transform="matrix(0.35277777,0,0,0.35277777,-3.292131,-60.324997)">
      <g
         id="use1658"
         transform="translate(246.69899,568.31097)">
        <path
           d="m 2.9375,-5.34375 -2.3125,4 c -0.65625,1.125 -0.734375,1.140625 -1.03125,1.21875 V 0 h 1.5 v -0.125 c -0.375,-0.03125 -0.484375,-0.078125 -0.484375,-0.28125 0,-0.171875 0.046875,-0.28125 0.171875,-0.5 L 1.234375,-1.8125 h 1.75 l 0.171875,1.046875 c 0.015625,0.125 0.015625,0.234375 0.015625,0.234375 0,0.328125 -0.21875,0.375 -0.625,0.40625 V 0 h 1.96875 V -0.125 C 4.046875,-0.171875 4,-0.25 3.90625,-0.8125 l -0.75,-4.53125 z m -1.53125,3.25 1.1875,-2.078125 0.359375,2.078125 z m 0,0"
           id="path62" />
      </g>
    </g>
    <g
       fill="#231f20"
       fill-opacity="1"
       id="g1659"
       transform="matrix(0.35277777,0,0,0.35277777,-3.292131,-60.324997)">
      <g
         id="use1659"
         transform="translate(251.78699,571.31097)">
        <path
           d="m 2.84375,-0.828125 -0.078125,-0.03125 c -0.234375,0.390625 -0.34375,0.40625 -0.5625,0.40625 h -1.4375 l 1.015625,-1.0625 C 2.046875,-1.796875 2.546875,-2.34375 2.546875,-2.96875 2.546875,-3.640625 2,-4.0625 1.453125,-4.0625 c -0.515625,0 -1.09375,0.296875 -1.265625,1.203125 l 0.125,0.03125 c 0.125,-0.328125 0.3125,-0.78125 0.859375,-0.78125 0.703125,0 0.859375,0.546875 0.859375,0.859375 0,0.453125 -0.265625,0.984375 -0.78125,1.546875 l -1.0625,1.125 V 0 h 2.328125 z m 0,0"
           id="path40" />
      </g>
    </g>
    <g
       fill="#231f20"
       fill-opacity="1"
       id="g1660"
       transform="matrix(0.35277777,0,0,0.35277777,-3.292131,-60.324997)">
      <g
         id="use1660"
         transform="translate(251.937,565.31097)">
        <path
           d="m 2.09375,-0.640625 c -0.203125,0.25 -0.484375,0.484375 -0.859375,0.484375 -0.359375,0 -0.53125,-0.265625 -0.53125,-0.71875 0,-0.578125 0.40625,-1.640625 1.1875,-1.640625 0.109375,0 0.234375,0.03125 0.234375,0.109375 0,0.109375 -0.09375,0.140625 -0.09375,0.296875 0,0.140625 0.09375,0.21875 0.234375,0.21875 0.15625,0 0.28125,-0.09375 0.28125,-0.265625 0,-0.1875 -0.140625,-0.484375 -0.65625,-0.484375 -0.875,0 -1.703125,0.90625 -1.703125,1.765625 0,0.796875 0.484375,0.9375 0.875,0.9375 0.640625,0 0.984375,-0.453125 1.140625,-0.640625 z m 0,0"
           id="path21" />
      </g>
    </g>
    <g
       fill="#231f20"
       fill-opacity="1"
       id="g1661"
       transform="matrix(0.35277777,0,0,0.35277777,-3.292131,-60.324997)">
      <g
         id="use1661"
         transform="translate(254.90099,568.31097)">
        <path
           d="m 5.3125,0 h 0.46875 v -2.890625 c 0,-1.515625 -1,-2.3125 -2.453125,-2.3125 -1.453125,0 -2.453125,0.796875 -2.453125,2.3125 V 0 h 0.46875 v -2.890625 c 0,-1.25 0.828125,-1.84375 1.984375,-1.84375 1.15625,0 1.984375,0.59375 1.984375,1.84375 z m 0,0"
           id="path5" />
      </g>
    </g>
    <g
       fill="#231f20"
       fill-opacity="1"
       id="g1662"
       transform="matrix(0.35277777,0,0,0.35277777,-3.292131,-60.324997)">
      <g
         id="use1662"
         transform="translate(261.965,568.31097)">
        <path
           d="m 2.9375,-5.34375 -2.3125,4 c -0.65625,1.125 -0.734375,1.140625 -1.03125,1.21875 V 0 h 1.5 v -0.125 c -0.375,-0.03125 -0.484375,-0.078125 -0.484375,-0.28125 0,-0.171875 0.046875,-0.28125 0.171875,-0.5 L 1.234375,-1.8125 h 1.75 l 0.171875,1.046875 c 0.015625,0.125 0.015625,0.234375 0.015625,0.234375 0,0.328125 -0.21875,0.375 -0.625,0.40625 V 0 h 1.96875 V -0.125 C 4.046875,-0.171875 4,-0.25 3.90625,-0.8125 l -0.75,-4.53125 z m -1.53125,3.25 1.1875,-2.078125 0.359375,2.078125 z m 0,0"
           id="path63" />
      </g>
    </g>
    <g
       fill="#231f20"
       fill-opacity="1"
       id="g1663"
       transform="matrix(0.35277777,0,0,0.35277777,-3.292131,-60.324997)">
      <g
         id="use1663"
         transform="translate(266.85199,571.31097)">
        <path
           d="m 0.921875,-1.984375 c 0.40625,0 0.5625,0.015625 0.78125,0.140625 0.375,0.1875 0.453125,0.640625 0.453125,0.78125 0,0.453125 -0.25,0.9375 -0.8125,0.9375 -0.34375,0 -0.578125,-0.34375 -0.859375,-0.34375 -0.09375,0 -0.21875,0.046875 -0.21875,0.203125 0,0.3125 0.515625,0.34375 0.65625,0.34375 0.9375,0 1.671875,-0.515625 1.671875,-1.375 0,-0.796875 -0.515625,-1 -0.765625,-1.109375 C 2.21875,-2.65625 2.375,-2.921875 2.375,-3.25 c 0,-0.234375 -0.15625,-0.8125 -0.921875,-0.8125 -0.40625,0 -0.9375,0.1875 -1.1875,0.984375 l 0.09375,0.015625 c 0.09375,-0.171875 0.34375,-0.640625 0.890625,-0.640625 0.4375,0 0.65625,0.328125 0.65625,0.625 0,0.5625 -0.453125,0.84375 -1,1.015625 z m 0,0"
           id="path31" />
      </g>
    </g>
    <g
       fill="#231f20"
       fill-opacity="1"
       id="g1664"
       transform="matrix(0.35277777,0,0,0.35277777,-3.292131,-60.324997)">
      <g
         id="use1664"
         transform="translate(267.15198,565.31097)">
        <path
           d="m 2.09375,-0.640625 c -0.203125,0.25 -0.484375,0.484375 -0.859375,0.484375 -0.359375,0 -0.53125,-0.265625 -0.53125,-0.71875 0,-0.578125 0.40625,-1.640625 1.1875,-1.640625 0.109375,0 0.234375,0.03125 0.234375,0.109375 0,0.109375 -0.09375,0.140625 -0.09375,0.296875 0,0.140625 0.09375,0.21875 0.234375,0.21875 0.15625,0 0.28125,-0.09375 0.28125,-0.265625 0,-0.1875 -0.140625,-0.484375 -0.65625,-0.484375 -0.875,0 -1.703125,0.90625 -1.703125,1.765625 0,0.796875 0.484375,0.9375 0.875,0.9375 0.640625,0 0.984375,-0.453125 1.140625,-0.640625 z m 0,0"
           id="path22" />
      </g>
    </g>
    <g
       fill="#231f20"
       fill-opacity="1"
       id="g1665"
       transform="matrix(0.35277777,0,0,0.35277777,-3.292131,-60.324997)">
      <g
         id="use1665"
         transform="translate(321.38599,602.80298)">
        <path
           d="m 2.9375,-5.34375 -2.3125,4 c -0.65625,1.125 -0.734375,1.140625 -1.03125,1.21875 V 0 h 1.5 v -0.125 c -0.375,-0.03125 -0.484375,-0.078125 -0.484375,-0.28125 0,-0.171875 0.046875,-0.28125 0.171875,-0.5 L 1.234375,-1.8125 h 1.75 l 0.171875,1.046875 c 0.015625,0.125 0.015625,0.234375 0.015625,0.234375 0,0.328125 -0.21875,0.375 -0.625,0.40625 V 0 h 1.96875 V -0.125 C 4.046875,-0.171875 4,-0.25 3.90625,-0.8125 l -0.75,-4.53125 z m -1.53125,3.25 1.1875,-2.078125 0.359375,2.078125 z m 0,0"
           id="path64" />
      </g>
    </g>
    <g
       fill="#231f20"
       fill-opacity="1"
       id="g1666"
       transform="matrix(0.35277777,0,0,0.35277777,-3.292131,-60.324997)">
      <g
         id="use1666"
         transform="translate(326.27399,605.80298)">
        <path
           d="m 0.703125,0 h 1.65625 v -0.09375 c -0.453125,0 -0.5625,-0.0625 -0.5625,-0.34375 V -4.046875 L 1.75,-4.0625 0.671875,-3.515625 v 0.09375 C 1,-3.5625 1,-3.5625 1.078125,-3.5625 c 0.203125,0 0.203125,0.15625 0.203125,0.28125 v 2.71875 c 0,0.453125 -0.21875,0.453125 -0.578125,0.46875 z m 0,0"
           id="path50" />
      </g>
    </g>
    <g
       fill="#231f20"
       fill-opacity="1"
       id="g1667"
       transform="matrix(0.35277777,0,0,0.35277777,-3.292131,-60.324997)">
      <g
         id="use1667"
         transform="translate(326.724,599.80298)">
        <path
           d="m 2.09375,-0.640625 c -0.203125,0.25 -0.484375,0.484375 -0.859375,0.484375 -0.359375,0 -0.53125,-0.265625 -0.53125,-0.71875 0,-0.578125 0.40625,-1.640625 1.1875,-1.640625 0.109375,0 0.234375,0.03125 0.234375,0.109375 0,0.109375 -0.09375,0.140625 -0.09375,0.296875 0,0.140625 0.09375,0.21875 0.234375,0.21875 0.15625,0 0.28125,-0.09375 0.28125,-0.265625 0,-0.1875 -0.140625,-0.484375 -0.65625,-0.484375 -0.875,0 -1.703125,0.90625 -1.703125,1.765625 0,0.796875 0.484375,0.9375 0.875,0.9375 0.640625,0 0.984375,-0.453125 1.140625,-0.640625 z m 0,0"
           id="path23" />
      </g>
    </g>
    <g
       fill="#231f20"
       fill-opacity="1"
       id="g1668"
       transform="matrix(0.35277777,0,0,0.35277777,-3.292131,-60.324997)">
      <g
         id="use1668"
         transform="translate(329.388,602.80298)">
        <path
           d="m 5.3125,0 h 0.46875 v -2.890625 c 0,-1.515625 -1,-2.3125 -2.453125,-2.3125 -1.453125,0 -2.453125,0.796875 -2.453125,2.3125 V 0 h 0.46875 v -2.890625 c 0,-1.25 0.828125,-1.84375 1.984375,-1.84375 1.15625,0 1.984375,0.59375 1.984375,1.84375 z m 0,0"
           id="path6" />
      </g>
    </g>
    <g
       fill="#231f20"
       fill-opacity="1"
       id="g1669"
       transform="matrix(0.35277777,0,0,0.35277777,-3.292131,-60.324997)">
      <g
         id="use1669"
         transform="translate(336.65198,602.80298)">
        <path
           d="m 2.9375,-5.34375 -2.3125,4 c -0.65625,1.125 -0.734375,1.140625 -1.03125,1.21875 V 0 h 1.5 v -0.125 c -0.375,-0.03125 -0.484375,-0.078125 -0.484375,-0.28125 0,-0.171875 0.046875,-0.28125 0.171875,-0.5 L 1.234375,-1.8125 h 1.75 l 0.171875,1.046875 c 0.015625,0.125 0.015625,0.234375 0.015625,0.234375 0,0.328125 -0.21875,0.375 -0.625,0.40625 V 0 h 1.96875 V -0.125 C 4.046875,-0.171875 4,-0.25 3.90625,-0.8125 l -0.75,-4.53125 z m -1.53125,3.25 1.1875,-2.078125 0.359375,2.078125 z m 0,0"
           id="path65" />
      </g>
    </g>
    <g
       fill="#231f20"
       fill-opacity="1"
       id="g1670"
       transform="matrix(0.35277777,0,0,0.35277777,-3.292131,-60.324997)">
      <g
         id="use1670"
         transform="translate(341.73999,605.80298)">
        <path
           d="m 2.84375,-0.828125 -0.078125,-0.03125 c -0.234375,0.390625 -0.34375,0.40625 -0.5625,0.40625 h -1.4375 l 1.015625,-1.0625 C 2.046875,-1.796875 2.546875,-2.34375 2.546875,-2.96875 2.546875,-3.640625 2,-4.0625 1.453125,-4.0625 c -0.515625,0 -1.09375,0.296875 -1.265625,1.203125 l 0.125,0.03125 c 0.125,-0.328125 0.3125,-0.78125 0.859375,-0.78125 0.703125,0 0.859375,0.546875 0.859375,0.859375 0,0.453125 -0.265625,0.984375 -0.78125,1.546875 l -1.0625,1.125 V 0 h 2.328125 z m 0,0"
           id="path41" />
      </g>
    </g>
    <g
       fill="#231f20"
       fill-opacity="1"
       id="g1671"
       transform="matrix(0.35277777,0,0,0.35277777,-3.292131,-60.324997)">
      <g
         id="use1671"
         transform="translate(344.73999,602.80298)">
        <path
           d="m 5.3125,0 h 0.46875 v -2.890625 c 0,-1.515625 -1,-2.3125 -2.453125,-2.3125 -1.453125,0 -2.453125,0.796875 -2.453125,2.3125 V 0 h 0.46875 v -2.890625 c 0,-1.25 0.828125,-1.84375 1.984375,-1.84375 1.15625,0 1.984375,0.59375 1.984375,1.84375 z m 0,0"
           id="path7" />
      </g>
    </g>
    <g
       fill="#231f20"
       fill-opacity="1"
       id="g1672"
       transform="matrix(0.35277777,0,0,0.35277777,-3.292131,-60.324997)">
      <g
         id="use1672"
         transform="translate(351.80399,602.80298)">
        <path
           d="m 2.9375,-5.34375 -2.3125,4 c -0.65625,1.125 -0.734375,1.140625 -1.03125,1.21875 V 0 h 1.5 v -0.125 c -0.375,-0.03125 -0.484375,-0.078125 -0.484375,-0.28125 0,-0.171875 0.046875,-0.28125 0.171875,-0.5 L 1.234375,-1.8125 h 1.75 l 0.171875,1.046875 c 0.015625,0.125 0.015625,0.234375 0.015625,0.234375 0,0.328125 -0.21875,0.375 -0.625,0.40625 V 0 h 1.96875 V -0.125 C 4.046875,-0.171875 4,-0.25 3.90625,-0.8125 l -0.75,-4.53125 z m -1.53125,3.25 1.1875,-2.078125 0.359375,2.078125 z m 0,0"
           id="path66" />
      </g>
    </g>
    <g
       fill="#231f20"
       fill-opacity="1"
       id="g1673"
       transform="matrix(0.35277777,0,0,0.35277777,-3.292131,-60.324997)">
      <g
         id="use1673"
         transform="translate(356.69098,605.80298)">
        <path
           d="m 0.921875,-1.984375 c 0.40625,0 0.5625,0.015625 0.78125,0.140625 0.375,0.1875 0.453125,0.640625 0.453125,0.78125 0,0.453125 -0.25,0.9375 -0.8125,0.9375 -0.34375,0 -0.578125,-0.34375 -0.859375,-0.34375 -0.09375,0 -0.21875,0.046875 -0.21875,0.203125 0,0.3125 0.515625,0.34375 0.65625,0.34375 0.9375,0 1.671875,-0.515625 1.671875,-1.375 0,-0.796875 -0.515625,-1 -0.765625,-1.109375 C 2.21875,-2.65625 2.375,-2.921875 2.375,-3.25 c 0,-0.234375 -0.15625,-0.8125 -0.921875,-0.8125 -0.40625,0 -0.9375,0.1875 -1.1875,0.984375 l 0.09375,0.015625 c 0.09375,-0.171875 0.34375,-0.640625 0.890625,-0.640625 0.4375,0 0.65625,0.328125 0.65625,0.625 0,0.5625 -0.453125,0.84375 -1,1.015625 z m 0,0"
           id="path32" />
      </g>
    </g>
    <g
       fill="#231f20"
       fill-opacity="1"
       id="g1674"
       transform="matrix(0.35277777,0,0,0.35277777,-3.292131,-60.324997)">
      <g
         id="use1674"
         transform="translate(346.332,568.31097)">
        <path
           d="m 2.9375,-5.34375 -2.3125,4 c -0.65625,1.125 -0.734375,1.140625 -1.03125,1.21875 V 0 h 1.5 v -0.125 c -0.375,-0.03125 -0.484375,-0.078125 -0.484375,-0.28125 0,-0.171875 0.046875,-0.28125 0.171875,-0.5 L 1.234375,-1.8125 h 1.75 l 0.171875,1.046875 c 0.015625,0.125 0.015625,0.234375 0.015625,0.234375 0,0.328125 -0.21875,0.375 -0.625,0.40625 V 0 h 1.96875 V -0.125 C 4.046875,-0.171875 4,-0.25 3.90625,-0.8125 l -0.75,-4.53125 z m -1.53125,3.25 1.1875,-2.078125 0.359375,2.078125 z m 0,0"
           id="path67" />
      </g>
    </g>
    <g
       fill="#231f20"
       fill-opacity="1"
       id="g1675"
       transform="matrix(0.35277777,0,0,0.35277777,-3.292131,-60.324997)">
      <g
         id="use1675"
         transform="translate(351.22,571.31097)">
        <path
           d="m 0.703125,0 h 1.65625 v -0.09375 c -0.453125,0 -0.5625,-0.0625 -0.5625,-0.34375 V -4.046875 L 1.75,-4.0625 0.671875,-3.515625 v 0.09375 C 1,-3.5625 1,-3.5625 1.078125,-3.5625 c 0.203125,0 0.203125,0.15625 0.203125,0.28125 v 2.71875 c 0,0.453125 -0.21875,0.453125 -0.578125,0.46875 z m 0,0"
           id="path51" />
      </g>
    </g>
    <g
       fill="#231f20"
       fill-opacity="1"
       id="g1676"
       transform="matrix(0.35277777,0,0,0.35277777,-3.292131,-60.324997)">
      <g
         id="use1676"
         transform="translate(351.66998,565.31097)">
        <path
           d="m 2.09375,-0.640625 c -0.203125,0.25 -0.484375,0.484375 -0.859375,0.484375 -0.359375,0 -0.53125,-0.265625 -0.53125,-0.71875 0,-0.578125 0.40625,-1.640625 1.1875,-1.640625 0.109375,0 0.234375,0.03125 0.234375,0.109375 0,0.109375 -0.09375,0.140625 -0.09375,0.296875 0,0.140625 0.09375,0.21875 0.234375,0.21875 0.15625,0 0.28125,-0.09375 0.28125,-0.265625 0,-0.1875 -0.140625,-0.484375 -0.65625,-0.484375 -0.875,0 -1.703125,0.90625 -1.703125,1.765625 0,0.796875 0.484375,0.9375 0.875,0.9375 0.640625,0 0.984375,-0.453125 1.140625,-0.640625 z m 0,0"
           id="path24" />
      </g>
    </g>
    <g
       fill="#231f20"
       fill-opacity="1"
       id="g1677"
       transform="matrix(0.35277777,0,0,0.35277777,-3.292131,-60.324997)">
      <g
         id="use1677"
         transform="translate(354.33398,568.31097)">
        <path
           d="m 5.3125,0 h 0.46875 v -2.890625 c 0,-1.515625 -1,-2.3125 -2.453125,-2.3125 -1.453125,0 -2.453125,0.796875 -2.453125,2.3125 V 0 h 0.46875 v -2.890625 c 0,-1.25 0.828125,-1.84375 1.984375,-1.84375 1.15625,0 1.984375,0.59375 1.984375,1.84375 z m 0,0"
           id="path8" />
      </g>
    </g>
    <g
       fill="#231f20"
       fill-opacity="1"
       id="g1678"
       transform="matrix(0.35277777,0,0,0.35277777,-3.292131,-60.324997)">
      <g
         id="use1678"
         transform="translate(361.59799,568.31097)">
        <path
           d="m 2.9375,-5.34375 -2.3125,4 c -0.65625,1.125 -0.734375,1.140625 -1.03125,1.21875 V 0 h 1.5 v -0.125 c -0.375,-0.03125 -0.484375,-0.078125 -0.484375,-0.28125 0,-0.171875 0.046875,-0.28125 0.171875,-0.5 L 1.234375,-1.8125 h 1.75 l 0.171875,1.046875 c 0.015625,0.125 0.015625,0.234375 0.015625,0.234375 0,0.328125 -0.21875,0.375 -0.625,0.40625 V 0 h 1.96875 V -0.125 C 4.046875,-0.171875 4,-0.25 3.90625,-0.8125 l -0.75,-4.53125 z m -1.53125,3.25 1.1875,-2.078125 0.359375,2.078125 z m 0,0"
           id="path68" />
      </g>
    </g>
    <g
       fill="#231f20"
       fill-opacity="1"
       id="g1679"
       transform="matrix(0.35277777,0,0,0.35277777,-3.292131,-60.324997)">
      <g
         id="use1679"
         transform="translate(366.686,571.31097)">
        <path
           d="m 2.84375,-0.828125 -0.078125,-0.03125 c -0.234375,0.390625 -0.34375,0.40625 -0.5625,0.40625 h -1.4375 l 1.015625,-1.0625 C 2.046875,-1.796875 2.546875,-2.34375 2.546875,-2.96875 2.546875,-3.640625 2,-4.0625 1.453125,-4.0625 c -0.515625,0 -1.09375,0.296875 -1.265625,1.203125 l 0.125,0.03125 c 0.125,-0.328125 0.3125,-0.78125 0.859375,-0.78125 0.703125,0 0.859375,0.546875 0.859375,0.859375 0,0.453125 -0.265625,0.984375 -0.78125,1.546875 l -1.0625,1.125 V 0 h 2.328125 z m 0,0"
           id="path42" />
      </g>
    </g>
    <g
       fill="#231f20"
       fill-opacity="1"
       id="g1680"
       transform="matrix(0.35277777,0,0,0.35277777,-3.292131,-60.324997)">
      <g
         id="use1680"
         transform="translate(369.686,568.31097)">
        <path
           d="m 5.3125,0 h 0.46875 v -2.890625 c 0,-1.515625 -1,-2.3125 -2.453125,-2.3125 -1.453125,0 -2.453125,0.796875 -2.453125,2.3125 V 0 h 0.46875 v -2.890625 c 0,-1.25 0.828125,-1.84375 1.984375,-1.84375 1.15625,0 1.984375,0.59375 1.984375,1.84375 z m 0,0"
           id="path9" />
      </g>
    </g>
    <g
       fill="#231f20"
       fill-opacity="1"
       id="g1681"
       transform="matrix(0.35277777,0,0,0.35277777,-3.292131,-60.324997)">
      <g
         id="use1681"
         transform="translate(376.75,568.31097)">
        <path
           d="m 2.9375,-5.34375 -2.3125,4 c -0.65625,1.125 -0.734375,1.140625 -1.03125,1.21875 V 0 h 1.5 v -0.125 c -0.375,-0.03125 -0.484375,-0.078125 -0.484375,-0.28125 0,-0.171875 0.046875,-0.28125 0.171875,-0.5 L 1.234375,-1.8125 h 1.75 l 0.171875,1.046875 c 0.015625,0.125 0.015625,0.234375 0.015625,0.234375 0,0.328125 -0.21875,0.375 -0.625,0.40625 V 0 h 1.96875 V -0.125 C 4.046875,-0.171875 4,-0.25 3.90625,-0.8125 l -0.75,-4.53125 z m -1.53125,3.25 1.1875,-2.078125 0.359375,2.078125 z m 0,0"
           id="path69" />
      </g>
    </g>
    <g
       fill="#231f20"
       fill-opacity="1"
       id="g1682"
       transform="matrix(0.35277777,0,0,0.35277777,-3.292131,-60.324997)">
      <g
         id="use1682"
         transform="translate(381.638,571.31097)">
        <path
           d="m 0.921875,-1.984375 c 0.40625,0 0.5625,0.015625 0.78125,0.140625 0.375,0.1875 0.453125,0.640625 0.453125,0.78125 0,0.453125 -0.25,0.9375 -0.8125,0.9375 -0.34375,0 -0.578125,-0.34375 -0.859375,-0.34375 -0.09375,0 -0.21875,0.046875 -0.21875,0.203125 0,0.3125 0.515625,0.34375 0.65625,0.34375 0.9375,0 1.671875,-0.515625 1.671875,-1.375 0,-0.796875 -0.515625,-1 -0.765625,-1.109375 C 2.21875,-2.65625 2.375,-2.921875 2.375,-3.25 c 0,-0.234375 -0.15625,-0.8125 -0.921875,-0.8125 -0.40625,0 -0.9375,0.1875 -1.1875,0.984375 l 0.09375,0.015625 c 0.09375,-0.171875 0.34375,-0.640625 0.890625,-0.640625 0.4375,0 0.65625,0.328125 0.65625,0.625 0,0.5625 -0.453125,0.84375 -1,1.015625 z m 0,0"
           id="path33" />
      </g>
    </g>
    <g
       fill="#231f20"
       fill-opacity="1"
       id="g1683"
       transform="matrix(0.35277777,0,0,0.35277777,-3.292131,-60.324997)">
      <g
         id="use1683"
         transform="translate(381.93799,565.31097)">
        <path
           d="m 2.09375,-0.640625 c -0.203125,0.25 -0.484375,0.484375 -0.859375,0.484375 -0.359375,0 -0.53125,-0.265625 -0.53125,-0.71875 0,-0.578125 0.40625,-1.640625 1.1875,-1.640625 0.109375,0 0.234375,0.03125 0.234375,0.109375 0,0.109375 -0.09375,0.140625 -0.09375,0.296875 0,0.140625 0.09375,0.21875 0.234375,0.21875 0.15625,0 0.28125,-0.09375 0.28125,-0.265625 0,-0.1875 -0.140625,-0.484375 -0.65625,-0.484375 -0.875,0 -1.703125,0.90625 -1.703125,1.765625 0,0.796875 0.484375,0.9375 0.875,0.9375 0.640625,0 0.984375,-0.453125 1.140625,-0.640625 z m 0,0"
           id="path25" />
      </g>
    </g>
    <g
       fill="#231f20"
       fill-opacity="1"
       id="g1684"
       transform="matrix(0.35277777,0,0,0.35277777,-3.292131,-60.324997)">
      <g
         id="use1684"
         transform="translate(290.952,562.05798)">
        <path
           d="m 2.9375,-5.34375 -2.3125,4 c -0.65625,1.125 -0.734375,1.140625 -1.03125,1.21875 V 0 h 1.5 v -0.125 c -0.375,-0.03125 -0.484375,-0.078125 -0.484375,-0.28125 0,-0.171875 0.046875,-0.28125 0.171875,-0.5 L 1.234375,-1.8125 h 1.75 l 0.171875,1.046875 c 0.015625,0.125 0.015625,0.234375 0.015625,0.234375 0,0.328125 -0.21875,0.375 -0.625,0.40625 V 0 h 1.96875 V -0.125 C 4.046875,-0.171875 4,-0.25 3.90625,-0.8125 l -0.75,-4.53125 z m -1.53125,3.25 1.1875,-2.078125 0.359375,2.078125 z m 0,0"
           id="path70" />
      </g>
    </g>
    <g
       fill="#231f20"
       fill-opacity="1"
       id="g1685"
       transform="matrix(0.35277777,0,0,0.35277777,-3.292131,-60.324997)">
      <g
         id="use1685"
         transform="translate(295.84,565.05798)">
        <path
           d="m 0.703125,0 h 1.65625 v -0.09375 c -0.453125,0 -0.5625,-0.0625 -0.5625,-0.34375 V -4.046875 L 1.75,-4.0625 0.671875,-3.515625 v 0.09375 C 1,-3.5625 1,-3.5625 1.078125,-3.5625 c 0.203125,0 0.203125,0.15625 0.203125,0.28125 v 2.71875 c 0,0.453125 -0.21875,0.453125 -0.578125,0.46875 z m 0,0"
           id="path52" />
      </g>
    </g>
    <g
       fill="#231f20"
       fill-opacity="1"
       id="g1686"
       transform="matrix(0.35277777,0,0,0.35277777,-3.292131,-60.324997)">
      <g
         id="use1686"
         transform="translate(297.94,562.05798)">
        <path
           d="m 5.3125,0 h 0.46875 v -2.890625 c 0,-1.515625 -1,-2.3125 -2.453125,-2.3125 -1.453125,0 -2.453125,0.796875 -2.453125,2.3125 V 0 h 0.46875 v -2.890625 c 0,-1.25 0.828125,-1.84375 1.984375,-1.84375 1.15625,0 1.984375,0.59375 1.984375,1.84375 z m 0,0"
           id="path10" />
      </g>
    </g>
    <g
       fill="#231f20"
       fill-opacity="1"
       id="g1687"
       transform="matrix(0.35277777,0,0,0.35277777,-3.292131,-60.324997)">
      <g
         id="use1687"
         transform="translate(305.20398,562.05798)">
        <path
           d="m 2.9375,-5.34375 -2.3125,4 c -0.65625,1.125 -0.734375,1.140625 -1.03125,1.21875 V 0 h 1.5 v -0.125 c -0.375,-0.03125 -0.484375,-0.078125 -0.484375,-0.28125 0,-0.171875 0.046875,-0.28125 0.171875,-0.5 L 1.234375,-1.8125 h 1.75 l 0.171875,1.046875 c 0.015625,0.125 0.015625,0.234375 0.015625,0.234375 0,0.328125 -0.21875,0.375 -0.625,0.40625 V 0 h 1.96875 V -0.125 C 4.046875,-0.171875 4,-0.25 3.90625,-0.8125 l -0.75,-4.53125 z m -1.53125,3.25 1.1875,-2.078125 0.359375,2.078125 z m 0,0"
           id="path71" />
      </g>
    </g>
    <g
       fill="#231f20"
       fill-opacity="1"
       id="g1688"
       transform="matrix(0.35277777,0,0,0.35277777,-3.292131,-60.324997)">
      <g
         id="use1688"
         transform="translate(310.29199,565.05798)">
        <path
           d="m 2.84375,-0.828125 -0.078125,-0.03125 c -0.234375,0.390625 -0.34375,0.40625 -0.5625,0.40625 h -1.4375 l 1.015625,-1.0625 C 2.046875,-1.796875 2.546875,-2.34375 2.546875,-2.96875 2.546875,-3.640625 2,-4.0625 1.453125,-4.0625 c -0.515625,0 -1.09375,0.296875 -1.265625,1.203125 l 0.125,0.03125 c 0.125,-0.328125 0.3125,-0.78125 0.859375,-0.78125 0.703125,0 0.859375,0.546875 0.859375,0.859375 0,0.453125 -0.265625,0.984375 -0.78125,1.546875 l -1.0625,1.125 V 0 h 2.328125 z m 0,0"
           id="path43" />
      </g>
    </g>
    <g
       fill="#231f20"
       fill-opacity="1"
       id="g1689"
       transform="matrix(0.35277777,0,0,0.35277777,-3.292131,-60.324997)">
      <g
         id="use1689"
         transform="translate(313.29199,562.05798)">
        <path
           d="m 5.3125,0 h 0.46875 v -2.890625 c 0,-1.515625 -1,-2.3125 -2.453125,-2.3125 -1.453125,0 -2.453125,0.796875 -2.453125,2.3125 V 0 h 0.46875 v -2.890625 c 0,-1.25 0.828125,-1.84375 1.984375,-1.84375 1.15625,0 1.984375,0.59375 1.984375,1.84375 z m 0,0"
           id="path11" />
      </g>
    </g>
    <g
       fill="#231f20"
       fill-opacity="1"
       id="g1690"
       transform="matrix(0.35277777,0,0,0.35277777,-3.292131,-60.324997)">
      <g
         id="use1690"
         transform="translate(320.35599,562.05798)">
        <path
           d="m 2.9375,-5.34375 -2.3125,4 c -0.65625,1.125 -0.734375,1.140625 -1.03125,1.21875 V 0 h 1.5 v -0.125 c -0.375,-0.03125 -0.484375,-0.078125 -0.484375,-0.28125 0,-0.171875 0.046875,-0.28125 0.171875,-0.5 L 1.234375,-1.8125 h 1.75 l 0.171875,1.046875 c 0.015625,0.125 0.015625,0.234375 0.015625,0.234375 0,0.328125 -0.21875,0.375 -0.625,0.40625 V 0 h 1.96875 V -0.125 C 4.046875,-0.171875 4,-0.25 3.90625,-0.8125 l -0.75,-4.53125 z m -1.53125,3.25 1.1875,-2.078125 0.359375,2.078125 z m 0,0"
           id="path72" />
      </g>
    </g>
    <g
       fill="#231f20"
       fill-opacity="1"
       id="g1691"
       transform="matrix(0.35277777,0,0,0.35277777,-3.292131,-60.324997)">
      <g
         id="use1691"
         transform="translate(325.24399,565.05798)">
        <path
           d="m 0.921875,-1.984375 c 0.40625,0 0.5625,0.015625 0.78125,0.140625 0.375,0.1875 0.453125,0.640625 0.453125,0.78125 0,0.453125 -0.25,0.9375 -0.8125,0.9375 -0.34375,0 -0.578125,-0.34375 -0.859375,-0.34375 -0.09375,0 -0.21875,0.046875 -0.21875,0.203125 0,0.3125 0.515625,0.34375 0.65625,0.34375 0.9375,0 1.671875,-0.515625 1.671875,-1.375 0,-0.796875 -0.515625,-1 -0.765625,-1.109375 C 2.21875,-2.65625 2.375,-2.921875 2.375,-3.25 c 0,-0.234375 -0.15625,-0.8125 -0.921875,-0.8125 -0.40625,0 -0.9375,0.1875 -1.1875,0.984375 l 0.09375,0.015625 c 0.09375,-0.171875 0.34375,-0.640625 0.890625,-0.640625 0.4375,0 0.65625,0.328125 0.65625,0.625 0,0.5625 -0.453125,0.84375 -1,1.015625 z m 0,0"
           id="path34" />
      </g>
    </g>
    <g
       fill="#231f20"
       fill-opacity="1"
       id="g1692"
       transform="matrix(0.35277777,0,0,0.35277777,-3.292131,-60.324997)">
      <g
         id="use1692"
         transform="translate(325.54398,559.05798)">
        <path
           d="m 2.09375,-0.640625 c -0.203125,0.25 -0.484375,0.484375 -0.859375,0.484375 -0.359375,0 -0.53125,-0.265625 -0.53125,-0.71875 0,-0.578125 0.40625,-1.640625 1.1875,-1.640625 0.109375,0 0.234375,0.03125 0.234375,0.109375 0,0.109375 -0.09375,0.140625 -0.09375,0.296875 0,0.140625 0.09375,0.21875 0.234375,0.21875 0.15625,0 0.28125,-0.09375 0.28125,-0.265625 0,-0.1875 -0.140625,-0.484375 -0.65625,-0.484375 -0.875,0 -1.703125,0.90625 -1.703125,1.765625 0,0.796875 0.484375,0.9375 0.875,0.9375 0.640625,0 0.984375,-0.453125 1.140625,-0.640625 z m 0,0"
           id="path26" />
      </g>
    </g>
    <g
       fill="#231f20"
       fill-opacity="1"
       id="g1693"
       transform="matrix(0.35277777,0,0,0.35277777,-3.292131,-60.324997)">
      <g
         id="use1693"
         transform="translate(291.931,634.53003)">
        <path
           d="m 2.9375,-5.34375 -2.3125,4 c -0.65625,1.125 -0.734375,1.140625 -1.03125,1.21875 V 0 h 1.5 v -0.125 c -0.375,-0.03125 -0.484375,-0.078125 -0.484375,-0.28125 0,-0.171875 0.046875,-0.28125 0.171875,-0.5 L 1.234375,-1.8125 h 1.75 l 0.171875,1.046875 c 0.015625,0.125 0.015625,0.234375 0.015625,0.234375 0,0.328125 -0.21875,0.375 -0.625,0.40625 V 0 h 1.96875 V -0.125 C 4.046875,-0.171875 4,-0.25 3.90625,-0.8125 l -0.75,-4.53125 z m -1.53125,3.25 1.1875,-2.078125 0.359375,2.078125 z m 0,0"
           id="path73" />
      </g>
    </g>
    <g
       fill="#231f20"
       fill-opacity="1"
       id="g1694"
       transform="matrix(0.35277777,0,0,0.35277777,-3.292131,-60.324997)">
      <g
         id="use1694"
         transform="translate(296.81799,637.53003)">
        <path
           d="m 0.703125,0 h 1.65625 v -0.09375 c -0.453125,0 -0.5625,-0.0625 -0.5625,-0.34375 V -4.046875 L 1.75,-4.0625 0.671875,-3.515625 v 0.09375 C 1,-3.5625 1,-3.5625 1.078125,-3.5625 c 0.203125,0 0.203125,0.15625 0.203125,0.28125 v 2.71875 c 0,0.453125 -0.21875,0.453125 -0.578125,0.46875 z m 0,0"
           id="path53" />
      </g>
    </g>
    <g
       fill="#231f20"
       fill-opacity="1"
       id="g1695"
       transform="matrix(0.35277777,0,0,0.35277777,-3.292131,-60.324997)">
      <g
         id="use1695"
         transform="translate(297.26797,631.53003)">
        <path
           d="m 2.09375,-0.640625 c -0.203125,0.25 -0.484375,0.484375 -0.859375,0.484375 -0.359375,0 -0.53125,-0.265625 -0.53125,-0.71875 0,-0.578125 0.40625,-1.640625 1.1875,-1.640625 0.109375,0 0.234375,0.03125 0.234375,0.109375 0,0.109375 -0.09375,0.140625 -0.09375,0.296875 0,0.140625 0.09375,0.21875 0.234375,0.21875 0.15625,0 0.28125,-0.09375 0.28125,-0.265625 0,-0.1875 -0.140625,-0.484375 -0.65625,-0.484375 -0.875,0 -1.703125,0.90625 -1.703125,1.765625 0,0.796875 0.484375,0.9375 0.875,0.9375 0.640625,0 0.984375,-0.453125 1.140625,-0.640625 z m 0,0"
           id="path27" />
      </g>
    </g>
    <g
       fill="#231f20"
       fill-opacity="1"
       id="g1696"
       transform="matrix(0.35277777,0,0,0.35277777,-3.292131,-60.324997)">
      <g
         id="use1696"
         transform="translate(299.93198,634.53003)">
        <path
           d="m 5.3125,0 h 0.46875 v -2.890625 c 0,-1.515625 -1,-2.3125 -2.453125,-2.3125 -1.453125,0 -2.453125,0.796875 -2.453125,2.3125 V 0 h 0.46875 v -2.890625 c 0,-1.25 0.828125,-1.84375 1.984375,-1.84375 1.15625,0 1.984375,0.59375 1.984375,1.84375 z m 0,0"
           id="path12" />
      </g>
    </g>
    <g
       fill="#231f20"
       fill-opacity="1"
       id="g1697"
       transform="matrix(0.35277777,0,0,0.35277777,-3.292131,-60.324997)">
      <g
         id="use1697"
         transform="translate(307.19598,634.53003)">
        <path
           d="m 2.9375,-5.34375 -2.3125,4 c -0.65625,1.125 -0.734375,1.140625 -1.03125,1.21875 V 0 h 1.5 v -0.125 c -0.375,-0.03125 -0.484375,-0.078125 -0.484375,-0.28125 0,-0.171875 0.046875,-0.28125 0.171875,-0.5 L 1.234375,-1.8125 h 1.75 l 0.171875,1.046875 c 0.015625,0.125 0.015625,0.234375 0.015625,0.234375 0,0.328125 -0.21875,0.375 -0.625,0.40625 V 0 h 1.96875 V -0.125 C 4.046875,-0.171875 4,-0.25 3.90625,-0.8125 l -0.75,-4.53125 z m -1.53125,3.25 1.1875,-2.078125 0.359375,2.078125 z m 0,0"
           id="path74" />
      </g>
    </g>
    <g
       fill="#231f20"
       fill-opacity="1"
       id="g1698"
       transform="matrix(0.35277777,0,0,0.35277777,-3.292131,-60.324997)">
      <g
         id="use1698"
         transform="translate(312.284,637.53003)">
        <path
           d="m 2.84375,-0.828125 -0.078125,-0.03125 c -0.234375,0.390625 -0.34375,0.40625 -0.5625,0.40625 h -1.4375 l 1.015625,-1.0625 C 2.046875,-1.796875 2.546875,-2.34375 2.546875,-2.96875 2.546875,-3.640625 2,-4.0625 1.453125,-4.0625 c -0.515625,0 -1.09375,0.296875 -1.265625,1.203125 l 0.125,0.03125 c 0.125,-0.328125 0.3125,-0.78125 0.859375,-0.78125 0.703125,0 0.859375,0.546875 0.859375,0.859375 0,0.453125 -0.265625,0.984375 -0.78125,1.546875 l -1.0625,1.125 V 0 h 2.328125 z m 0,0"
           id="path44" />
      </g>
    </g>
    <g
       fill="#231f20"
       fill-opacity="1"
       id="g1699"
       transform="matrix(0.35277777,0,0,0.35277777,-3.292131,-60.324997)">
      <g
         id="use1699"
         transform="translate(312.43399,631.53003)">
        <path
           d="m 2.09375,-0.640625 c -0.203125,0.25 -0.484375,0.484375 -0.859375,0.484375 -0.359375,0 -0.53125,-0.265625 -0.53125,-0.71875 0,-0.578125 0.40625,-1.640625 1.1875,-1.640625 0.109375,0 0.234375,0.03125 0.234375,0.109375 0,0.109375 -0.09375,0.140625 -0.09375,0.296875 0,0.140625 0.09375,0.21875 0.234375,0.21875 0.15625,0 0.28125,-0.09375 0.28125,-0.265625 0,-0.1875 -0.140625,-0.484375 -0.65625,-0.484375 -0.875,0 -1.703125,0.90625 -1.703125,1.765625 0,0.796875 0.484375,0.9375 0.875,0.9375 0.640625,0 0.984375,-0.453125 1.140625,-0.640625 z m 0,0"
           id="path28" />
      </g>
    </g>
    <g
       fill="#231f20"
       fill-opacity="1"
       id="g1700"
       transform="matrix(0.35277777,0,0,0.35277777,-3.292131,-60.324997)">
      <g
         id="use1700"
         transform="translate(315.39798,634.53003)">
        <path
           d="m 5.3125,0 h 0.46875 v -2.890625 c 0,-1.515625 -1,-2.3125 -2.453125,-2.3125 -1.453125,0 -2.453125,0.796875 -2.453125,2.3125 V 0 h 0.46875 v -2.890625 c 0,-1.25 0.828125,-1.84375 1.984375,-1.84375 1.15625,0 1.984375,0.59375 1.984375,1.84375 z m 0,0"
           id="path13" />
      </g>
    </g>
    <g
       fill="#231f20"
       fill-opacity="1"
       id="g1701"
       transform="matrix(0.35277777,0,0,0.35277777,-3.292131,-60.324997)">
      <g
         id="use1701"
         transform="translate(322.46198,634.53003)">
        <path
           d="m 2.9375,-5.34375 -2.3125,4 c -0.65625,1.125 -0.734375,1.140625 -1.03125,1.21875 V 0 h 1.5 v -0.125 c -0.375,-0.03125 -0.484375,-0.078125 -0.484375,-0.28125 0,-0.171875 0.046875,-0.28125 0.171875,-0.5 L 1.234375,-1.8125 h 1.75 l 0.171875,1.046875 c 0.015625,0.125 0.015625,0.234375 0.015625,0.234375 0,0.328125 -0.21875,0.375 -0.625,0.40625 V 0 h 1.96875 V -0.125 C 4.046875,-0.171875 4,-0.25 3.90625,-0.8125 l -0.75,-4.53125 z m -1.53125,3.25 1.1875,-2.078125 0.359375,2.078125 z m 0,0"
           id="path75" />
      </g>
    </g>
    <g
       fill="#231f20"
       fill-opacity="1"
       id="g1702"
       transform="matrix(0.35277777,0,0,0.35277777,-3.292131,-60.324997)">
      <g
         id="use1702"
         transform="translate(327.34998,637.53003)">
        <path
           d="m 0.921875,-1.984375 c 0.40625,0 0.5625,0.015625 0.78125,0.140625 0.375,0.1875 0.453125,0.640625 0.453125,0.78125 0,0.453125 -0.25,0.9375 -0.8125,0.9375 -0.34375,0 -0.578125,-0.34375 -0.859375,-0.34375 -0.09375,0 -0.21875,0.046875 -0.21875,0.203125 0,0.3125 0.515625,0.34375 0.65625,0.34375 0.9375,0 1.671875,-0.515625 1.671875,-1.375 0,-0.796875 -0.515625,-1 -0.765625,-1.109375 C 2.21875,-2.65625 2.375,-2.921875 2.375,-3.25 c 0,-0.234375 -0.15625,-0.8125 -0.921875,-0.8125 -0.40625,0 -0.9375,0.1875 -1.1875,0.984375 l 0.09375,0.015625 c 0.09375,-0.171875 0.34375,-0.640625 0.890625,-0.640625 0.4375,0 0.65625,0.328125 0.65625,0.625 0,0.5625 -0.453125,0.84375 -1,1.015625 z m 0,0"
           id="path35" />
      </g>
    </g>
    <g
       fill="#231f20"
       fill-opacity="1"
       id="g1703"
       transform="matrix(0.35277777,0,0,0.35277777,-3.292131,-60.324997)">
      <g
         id="use1703"
         transform="translate(259.38098,602.80298)">
        <path
           d="m 2.9375,-5.34375 -2.3125,4 c -0.65625,1.125 -0.734375,1.140625 -1.03125,1.21875 V 0 h 1.5 v -0.125 c -0.375,-0.03125 -0.484375,-0.078125 -0.484375,-0.28125 0,-0.171875 0.046875,-0.28125 0.171875,-0.5 L 1.234375,-1.8125 h 1.75 l 0.171875,1.046875 c 0.015625,0.125 0.015625,0.234375 0.015625,0.234375 0,0.328125 -0.21875,0.375 -0.625,0.40625 V 0 h 1.96875 V -0.125 C 4.046875,-0.171875 4,-0.25 3.90625,-0.8125 l -0.75,-4.53125 z m -1.53125,3.25 1.1875,-2.078125 0.359375,2.078125 z m 0,0"
           id="path76" />
      </g>
    </g>
    <g
       fill="#231f20"
       fill-opacity="1"
       id="g1704"
       transform="matrix(0.35277777,0,0,0.35277777,-3.292131,-60.324997)">
      <g
         id="use1704"
         transform="translate(264.26797,605.80298)">
        <path
           d="m 0.703125,0 h 1.65625 v -0.09375 c -0.453125,0 -0.5625,-0.0625 -0.5625,-0.34375 V -4.046875 L 1.75,-4.0625 0.671875,-3.515625 v 0.09375 C 1,-3.5625 1,-3.5625 1.078125,-3.5625 c 0.203125,0 0.203125,0.15625 0.203125,0.28125 v 2.71875 c 0,0.453125 -0.21875,0.453125 -0.578125,0.46875 z m 0,0"
           id="path54" />
      </g>
    </g>
    <g
       fill="#231f20"
       fill-opacity="1"
       id="g1705"
       transform="matrix(0.35277777,0,0,0.35277777,-3.292131,-60.324997)">
      <g
         id="use1705"
         transform="translate(266.36798,602.80298)">
        <path
           d="m 5.3125,0 h 0.46875 v -2.890625 c 0,-1.515625 -1,-2.3125 -2.453125,-2.3125 -1.453125,0 -2.453125,0.796875 -2.453125,2.3125 V 0 h 0.46875 v -2.890625 c 0,-1.25 0.828125,-1.84375 1.984375,-1.84375 1.15625,0 1.984375,0.59375 1.984375,1.84375 z m 0,0"
           id="path14" />
      </g>
    </g>
    <g
       fill="#231f20"
       fill-opacity="1"
       id="g1706"
       transform="matrix(0.35277777,0,0,0.35277777,-3.292131,-60.324997)">
      <g
         id="use1706"
         transform="translate(273.63199,602.80298)">
        <path
           d="m 2.9375,-5.34375 -2.3125,4 c -0.65625,1.125 -0.734375,1.140625 -1.03125,1.21875 V 0 h 1.5 v -0.125 c -0.375,-0.03125 -0.484375,-0.078125 -0.484375,-0.28125 0,-0.171875 0.046875,-0.28125 0.171875,-0.5 L 1.234375,-1.8125 h 1.75 l 0.171875,1.046875 c 0.015625,0.125 0.015625,0.234375 0.015625,0.234375 0,0.328125 -0.21875,0.375 -0.625,0.40625 V 0 h 1.96875 V -0.125 C 4.046875,-0.171875 4,-0.25 3.90625,-0.8125 l -0.75,-4.53125 z m -1.53125,3.25 1.1875,-2.078125 0.359375,2.078125 z m 0,0"
           id="path77" />
      </g>
    </g>
    <g
       fill="#231f20"
       fill-opacity="1"
       id="g1707"
       transform="matrix(0.35277777,0,0,0.35277777,-3.292131,-60.324997)">
      <g
         id="use1707"
         transform="translate(278.72,605.80298)">
        <path
           d="m 2.84375,-0.828125 -0.078125,-0.03125 c -0.234375,0.390625 -0.34375,0.40625 -0.5625,0.40625 h -1.4375 l 1.015625,-1.0625 C 2.046875,-1.796875 2.546875,-2.34375 2.546875,-2.96875 2.546875,-3.640625 2,-4.0625 1.453125,-4.0625 c -0.515625,0 -1.09375,0.296875 -1.265625,1.203125 l 0.125,0.03125 c 0.125,-0.328125 0.3125,-0.78125 0.859375,-0.78125 0.703125,0 0.859375,0.546875 0.859375,0.859375 0,0.453125 -0.265625,0.984375 -0.78125,1.546875 l -1.0625,1.125 V 0 h 2.328125 z m 0,0"
           id="path45" />
      </g>
    </g>
    <g
       fill="#231f20"
       fill-opacity="1"
       id="g1708"
       transform="matrix(0.35277777,0,0,0.35277777,-3.292131,-60.324997)">
      <g
         id="use1708"
         transform="translate(278.87,599.80298)">
        <path
           d="m 2.09375,-0.640625 c -0.203125,0.25 -0.484375,0.484375 -0.859375,0.484375 -0.359375,0 -0.53125,-0.265625 -0.53125,-0.71875 0,-0.578125 0.40625,-1.640625 1.1875,-1.640625 0.109375,0 0.234375,0.03125 0.234375,0.109375 0,0.109375 -0.09375,0.140625 -0.09375,0.296875 0,0.140625 0.09375,0.21875 0.234375,0.21875 0.15625,0 0.28125,-0.09375 0.28125,-0.265625 0,-0.1875 -0.140625,-0.484375 -0.65625,-0.484375 -0.875,0 -1.703125,0.90625 -1.703125,1.765625 0,0.796875 0.484375,0.9375 0.875,0.9375 0.640625,0 0.984375,-0.453125 1.140625,-0.640625 z m 0,0"
           id="path29" />
      </g>
    </g>
    <g
       fill="#231f20"
       fill-opacity="1"
       id="g1709"
       transform="matrix(0.35277777,0,0,0.35277777,-3.292131,-60.324997)">
      <g
         id="use1709"
         transform="translate(281.83398,602.80298)">
        <path
           d="m 5.3125,0 h 0.46875 v -2.890625 c 0,-1.515625 -1,-2.3125 -2.453125,-2.3125 -1.453125,0 -2.453125,0.796875 -2.453125,2.3125 V 0 h 0.46875 v -2.890625 c 0,-1.25 0.828125,-1.84375 1.984375,-1.84375 1.15625,0 1.984375,0.59375 1.984375,1.84375 z m 0,0"
           id="path15" />
      </g>
    </g>
    <g
       fill="#231f20"
       fill-opacity="1"
       id="g1710"
       transform="matrix(0.35277777,0,0,0.35277777,-3.292131,-60.324997)">
      <g
         id="use1710"
         transform="translate(288.89798,602.80298)">
        <path
           d="m 2.9375,-5.34375 -2.3125,4 c -0.65625,1.125 -0.734375,1.140625 -1.03125,1.21875 V 0 h 1.5 v -0.125 c -0.375,-0.03125 -0.484375,-0.078125 -0.484375,-0.28125 0,-0.171875 0.046875,-0.28125 0.171875,-0.5 L 1.234375,-1.8125 h 1.75 l 0.171875,1.046875 c 0.015625,0.125 0.015625,0.234375 0.015625,0.234375 0,0.328125 -0.21875,0.375 -0.625,0.40625 V 0 h 1.96875 V -0.125 C 4.046875,-0.171875 4,-0.25 3.90625,-0.8125 l -0.75,-4.53125 z m -1.53125,3.25 1.1875,-2.078125 0.359375,2.078125 z m 0,0"
           id="path78" />
      </g>
    </g>
    <g
       fill="#231f20"
       fill-opacity="1"
       id="g1711"
       transform="matrix(0.35277777,0,0,0.35277777,-3.292131,-60.324997)">
      <g
         id="use1711"
         transform="translate(293.78598,605.80298)">
        <path
           d="m 0.921875,-1.984375 c 0.40625,0 0.5625,0.015625 0.78125,0.140625 0.375,0.1875 0.453125,0.640625 0.453125,0.78125 0,0.453125 -0.25,0.9375 -0.8125,0.9375 -0.34375,0 -0.578125,-0.34375 -0.859375,-0.34375 -0.09375,0 -0.21875,0.046875 -0.21875,0.203125 0,0.3125 0.515625,0.34375 0.65625,0.34375 0.9375,0 1.671875,-0.515625 1.671875,-1.375 0,-0.796875 -0.515625,-1 -0.765625,-1.109375 C 2.21875,-2.65625 2.375,-2.921875 2.375,-3.25 c 0,-0.234375 -0.15625,-0.8125 -0.921875,-0.8125 -0.40625,0 -0.9375,0.1875 -1.1875,0.984375 l 0.09375,0.015625 c 0.09375,-0.171875 0.34375,-0.640625 0.890625,-0.640625 0.4375,0 0.65625,0.328125 0.65625,0.625 0,0.5625 -0.453125,0.84375 -1,1.015625 z m 0,0"
           id="path36" />
      </g>
    </g>
    <g
       fill="#231f20"
       fill-opacity="1"
       id="g1712"
       transform="matrix(0.35277777,0,0,0.35277777,-3.292131,-60.324997)">
      <g
         id="use1712"
         transform="translate(290.952,583.461)">
        <path
           d="m 2.9375,-5.34375 -2.3125,4 c -0.65625,1.125 -0.734375,1.140625 -1.03125,1.21875 V 0 h 1.5 v -0.125 c -0.375,-0.03125 -0.484375,-0.078125 -0.484375,-0.28125 0,-0.171875 0.046875,-0.28125 0.171875,-0.5 L 1.234375,-1.8125 h 1.75 l 0.171875,1.046875 c 0.015625,0.125 0.015625,0.234375 0.015625,0.234375 0,0.328125 -0.21875,0.375 -0.625,0.40625 V 0 h 1.96875 V -0.125 C 4.046875,-0.171875 4,-0.25 3.90625,-0.8125 l -0.75,-4.53125 z m -1.53125,3.25 1.1875,-2.078125 0.359375,2.078125 z m 0,0"
           id="path79" />
      </g>
    </g>
    <g
       fill="#231f20"
       fill-opacity="1"
       id="g1713"
       transform="matrix(0.35277777,0,0,0.35277777,-3.292131,-60.324997)">
      <g
         id="use1713"
         transform="translate(295.84,586.461)">
        <path
           d="m 0.703125,0 h 1.65625 v -0.09375 c -0.453125,0 -0.5625,-0.0625 -0.5625,-0.34375 V -4.046875 L 1.75,-4.0625 0.671875,-3.515625 v 0.09375 C 1,-3.5625 1,-3.5625 1.078125,-3.5625 c 0.203125,0 0.203125,0.15625 0.203125,0.28125 v 2.71875 c 0,0.453125 -0.21875,0.453125 -0.578125,0.46875 z m 0,0"
           id="path55" />
      </g>
    </g>
    <g
       fill="#231f20"
       fill-opacity="1"
       id="g1714"
       transform="matrix(0.35277777,0,0,0.35277777,-3.292131,-60.324997)">
      <g
         id="use1714"
         transform="translate(298.09,583.461)">
        <path
           d="m 5.3125,0 h 0.46875 v -2.890625 c 0,-1.515625 -1,-2.3125 -2.453125,-2.3125 -1.453125,0 -2.453125,0.796875 -2.453125,2.3125 V 0 h 0.46875 v -2.890625 c 0,-1.25 0.828125,-1.84375 1.984375,-1.84375 1.15625,0 1.984375,0.59375 1.984375,1.84375 z m 0,0"
           id="path16" />
      </g>
    </g>
    <g
       fill="#231f20"
       fill-opacity="1"
       id="g1715"
       transform="matrix(0.35277777,0,0,0.35277777,-3.292131,-60.324997)">
      <g
         id="use1715"
         transform="translate(305.354,583.461)">
        <path
           d="m 2.9375,-5.34375 -2.3125,4 c -0.65625,1.125 -0.734375,1.140625 -1.03125,1.21875 V 0 h 1.5 v -0.125 c -0.375,-0.03125 -0.484375,-0.078125 -0.484375,-0.28125 0,-0.171875 0.046875,-0.28125 0.171875,-0.5 L 1.234375,-1.8125 h 1.75 l 0.171875,1.046875 c 0.015625,0.125 0.015625,0.234375 0.015625,0.234375 0,0.328125 -0.21875,0.375 -0.625,0.40625 V 0 h 1.96875 V -0.125 C 4.046875,-0.171875 4,-0.25 3.90625,-0.8125 l -0.75,-4.53125 z m -1.53125,3.25 1.1875,-2.078125 0.359375,2.078125 z m 0,0"
           id="path80" />
      </g>
    </g>
    <g
       fill="#231f20"
       fill-opacity="1"
       id="g1716"
       transform="matrix(0.35277777,0,0,0.35277777,-3.292131,-60.324997)">
      <g
         id="use1716"
         transform="translate(310.44199,586.461)">
        <path
           d="m 2.84375,-0.828125 -0.078125,-0.03125 c -0.234375,0.390625 -0.34375,0.40625 -0.5625,0.40625 h -1.4375 l 1.015625,-1.0625 C 2.046875,-1.796875 2.546875,-2.34375 2.546875,-2.96875 2.546875,-3.640625 2,-4.0625 1.453125,-4.0625 c -0.515625,0 -1.09375,0.296875 -1.265625,1.203125 l 0.125,0.03125 c 0.125,-0.328125 0.3125,-0.78125 0.859375,-0.78125 0.703125,0 0.859375,0.546875 0.859375,0.859375 0,0.453125 -0.265625,0.984375 -0.78125,1.546875 l -1.0625,1.125 V 0 h 2.328125 z m 0,0"
           id="path46" />
      </g>
    </g>
    <g
       fill="#231f20"
       fill-opacity="1"
       id="g1717"
       transform="matrix(0.35277777,0,0,0.35277777,-3.292131,-60.324997)">
      <g
         id="use1717"
         transform="translate(313.44199,583.461)">
        <path
           d="m 5.3125,0 h 0.46875 v -2.890625 c 0,-1.515625 -1,-2.3125 -2.453125,-2.3125 -1.453125,0 -2.453125,0.796875 -2.453125,2.3125 V 0 h 0.46875 v -2.890625 c 0,-1.25 0.828125,-1.84375 1.984375,-1.84375 1.15625,0 1.984375,0.59375 1.984375,1.84375 z m 0,0"
           id="path17" />
      </g>
    </g>
    <g
       fill="#231f20"
       fill-opacity="1"
       id="g1718"
       transform="matrix(0.35277777,0,0,0.35277777,-3.292131,-60.324997)">
      <g
         id="use1718"
         transform="translate(320.50598,583.461)">
        <path
           d="m 2.9375,-5.34375 -2.3125,4 c -0.65625,1.125 -0.734375,1.140625 -1.03125,1.21875 V 0 h 1.5 v -0.125 c -0.375,-0.03125 -0.484375,-0.078125 -0.484375,-0.28125 0,-0.171875 0.046875,-0.28125 0.171875,-0.5 L 1.234375,-1.8125 h 1.75 l 0.171875,1.046875 c 0.015625,0.125 0.015625,0.234375 0.015625,0.234375 0,0.328125 -0.21875,0.375 -0.625,0.40625 V 0 h 1.96875 V -0.125 C 4.046875,-0.171875 4,-0.25 3.90625,-0.8125 l -0.75,-4.53125 z m -1.53125,3.25 1.1875,-2.078125 0.359375,2.078125 z m 0,0"
           id="path81" />
      </g>
    </g>
    <g
       fill="#231f20"
       fill-opacity="1"
       id="g1719"
       transform="matrix(0.35277777,0,0,0.35277777,-3.292131,-60.324997)">
      <g
         id="use1719"
         transform="translate(325.39398,586.461)">
        <path
           d="m 0.921875,-1.984375 c 0.40625,0 0.5625,0.015625 0.78125,0.140625 0.375,0.1875 0.453125,0.640625 0.453125,0.78125 0,0.453125 -0.25,0.9375 -0.8125,0.9375 -0.34375,0 -0.578125,-0.34375 -0.859375,-0.34375 -0.09375,0 -0.21875,0.046875 -0.21875,0.203125 0,0.3125 0.515625,0.34375 0.65625,0.34375 0.9375,0 1.671875,-0.515625 1.671875,-1.375 0,-0.796875 -0.515625,-1 -0.765625,-1.109375 C 2.21875,-2.65625 2.375,-2.921875 2.375,-3.25 c 0,-0.234375 -0.15625,-0.8125 -0.921875,-0.8125 -0.40625,0 -0.9375,0.1875 -1.1875,0.984375 l 0.09375,0.015625 c 0.09375,-0.171875 0.34375,-0.640625 0.890625,-0.640625 0.4375,0 0.65625,0.328125 0.65625,0.625 0,0.5625 -0.453125,0.84375 -1,1.015625 z m 0,0"
           id="path37" />
      </g>
    </g>
    <g
       fill="#231f20"
       fill-opacity="1"
       id="g1720"
       transform="matrix(0.35277777,0,0,0.35277777,-3.292131,-60.324997)">
      <g
         id="use1720"
         transform="translate(260.039,640.63397)">
        <path
           d="m 2.9375,-5.34375 -2.3125,4 c -0.65625,1.125 -0.734375,1.140625 -1.03125,1.21875 V 0 h 1.5 v -0.125 c -0.375,-0.03125 -0.484375,-0.078125 -0.484375,-0.28125 0,-0.171875 0.046875,-0.28125 0.171875,-0.5 L 1.234375,-1.8125 h 1.75 l 0.171875,1.046875 c 0.015625,0.125 0.015625,0.234375 0.015625,0.234375 0,0.328125 -0.21875,0.375 -0.625,0.40625 V 0 h 1.96875 V -0.125 C 4.046875,-0.171875 4,-0.25 3.90625,-0.8125 l -0.75,-4.53125 z m -1.53125,3.25 1.1875,-2.078125 0.359375,2.078125 z m 0,0"
           id="path82" />
      </g>
    </g>
    <g
       fill="#231f20"
       fill-opacity="1"
       id="g1721"
       transform="matrix(0.35277777,0,0,0.35277777,-3.292131,-60.324997)">
      <g
         id="use1721"
         transform="translate(265.327,643.63397)">
        <path
           d="m 0.921875,-1.984375 c 0.40625,0 0.5625,0.015625 0.78125,0.140625 0.375,0.1875 0.453125,0.640625 0.453125,0.78125 0,0.453125 -0.25,0.9375 -0.8125,0.9375 -0.34375,0 -0.578125,-0.34375 -0.859375,-0.34375 -0.09375,0 -0.21875,0.046875 -0.21875,0.203125 0,0.3125 0.515625,0.34375 0.65625,0.34375 0.9375,0 1.671875,-0.515625 1.671875,-1.375 0,-0.796875 -0.515625,-1 -0.765625,-1.109375 C 2.21875,-2.65625 2.375,-2.921875 2.375,-3.25 c 0,-0.234375 -0.15625,-0.8125 -0.921875,-0.8125 -0.40625,0 -0.9375,0.1875 -1.1875,0.984375 l 0.09375,0.015625 c 0.09375,-0.171875 0.34375,-0.640625 0.890625,-0.640625 0.4375,0 0.65625,0.328125 0.65625,0.625 0,0.5625 -0.453125,0.84375 -1,1.015625 z m 0,0"
           id="path38" />
      </g>
    </g>
    <g
       fill="#231f20"
       fill-opacity="1"
       id="g1722"
       transform="matrix(0.35277777,0,0,0.35277777,-3.292131,-60.324997)">
      <g
         id="use1722"
         transform="translate(374.47598,536.54498)">
        <path
           d="m 2.9375,-5.34375 -2.3125,4 c -0.65625,1.125 -0.734375,1.140625 -1.03125,1.21875 V 0 h 1.5 v -0.125 c -0.375,-0.03125 -0.484375,-0.078125 -0.484375,-0.28125 0,-0.171875 0.046875,-0.28125 0.171875,-0.5 L 1.234375,-1.8125 h 1.75 l 0.171875,1.046875 c 0.015625,0.125 0.015625,0.234375 0.015625,0.234375 0,0.328125 -0.21875,0.375 -0.625,0.40625 V 0 h 1.96875 V -0.125 C 4.046875,-0.171875 4,-0.25 3.90625,-0.8125 l -0.75,-4.53125 z m -1.53125,3.25 1.1875,-2.078125 0.359375,2.078125 z m 0,0"
           id="path83" />
      </g>
    </g>
    <g
       fill="#231f20"
       fill-opacity="1"
       id="g1723"
       transform="matrix(0.35277777,0,0,0.35277777,-3.292131,-60.324997)">
      <g
         id="use1723"
         transform="translate(379.76398,539.54498)">
        <path
           d="m 2.84375,-0.828125 -0.078125,-0.03125 c -0.234375,0.390625 -0.34375,0.40625 -0.5625,0.40625 h -1.4375 l 1.015625,-1.0625 C 2.046875,-1.796875 2.546875,-2.34375 2.546875,-2.96875 2.546875,-3.640625 2,-4.0625 1.453125,-4.0625 c -0.515625,0 -1.09375,0.296875 -1.265625,1.203125 l 0.125,0.03125 c 0.125,-0.328125 0.3125,-0.78125 0.859375,-0.78125 0.703125,0 0.859375,0.546875 0.859375,0.859375 0,0.453125 -0.265625,0.984375 -0.78125,1.546875 l -1.0625,1.125 V 0 h 2.328125 z m 0,0"
           id="path47" />
      </g>
    </g>
    <g
       fill="#231f20"
       fill-opacity="1"
       id="g1724"
       transform="matrix(0.35277777,0,0,0.35277777,-3.292131,-60.324997)">
      <g
         id="use1724"
         transform="translate(234.43799,536.54498)">
        <path
           d="m 2.9375,-5.34375 -2.3125,4 c -0.65625,1.125 -0.734375,1.140625 -1.03125,1.21875 V 0 h 1.5 v -0.125 c -0.375,-0.03125 -0.484375,-0.078125 -0.484375,-0.28125 0,-0.171875 0.046875,-0.28125 0.171875,-0.5 L 1.234375,-1.8125 h 1.75 l 0.171875,1.046875 c 0.015625,0.125 0.015625,0.234375 0.015625,0.234375 0,0.328125 -0.21875,0.375 -0.625,0.40625 V 0 h 1.96875 V -0.125 C 4.046875,-0.171875 4,-0.25 3.90625,-0.8125 l -0.75,-4.53125 z m -1.53125,3.25 1.1875,-2.078125 0.359375,2.078125 z m 0,0"
           id="path84" />
      </g>
    </g>
    <g
       fill="#231f20"
       fill-opacity="1"
       id="g1725"
       transform="matrix(0.35277777,0,0,0.35277777,-3.292131,-60.324997)">
      <g
         id="use1725"
         transform="translate(239.72598,539.54498)">
        <path
           d="m 0.703125,0 h 1.65625 v -0.09375 c -0.453125,0 -0.5625,-0.0625 -0.5625,-0.34375 V -4.046875 L 1.75,-4.0625 0.671875,-3.515625 v 0.09375 C 1,-3.5625 1,-3.5625 1.078125,-3.5625 c 0.203125,0 0.203125,0.15625 0.203125,0.28125 v 2.71875 c 0,0.453125 -0.21875,0.453125 -0.578125,0.46875 z m 0,0"
           id="path56" />
      </g>
    </g>
    <g
       fill="#231f20"
       fill-opacity="1"
       id="g1726"
       transform="matrix(0.35277777,0,0,0.35277777,-3.292131,-60.324997)">
      <g
         id="use1726"
         transform="translate(199.00198,510.08301)">
        <path
           d="M 3.75,-3.75 4.0625,-5.328125 H 3.875 C 3.78125,-5.1875 3.71875,-5.125 3.53125,-5.125 3.375,-5.125 3.265625,-5.171875 3.125,-5.234375 2.96875,-5.28125 2.78125,-5.328125 2.421875,-5.328125 c -0.734375,0 -1.375,0.53125 -1.375,1.3125 0,0.515625 0.046875,0.609375 1.140625,1.78125 0.265625,0.28125 0.5625,0.53125 0.5625,1.046875 0,0.390625 -0.28125,1.046875 -1.03125,1.046875 -0.71875,0 -1.171875,-0.625 -1.171875,-1.34375 0,-0.0625 0.015625,-0.09375 0.015625,-0.15625 L 0.40625,-1.65625 0.140625,0.125 H 0.28125 C 0.3125,0.015625 0.375,-0.140625 0.59375,-0.140625 c 0.265625,0 0.671875,0.28125 1.234375,0.28125 1.0625,0 1.625,-0.828125 1.625,-1.578125 0,-0.53125 -0.171875,-0.84375 -0.90625,-1.578125 -0.703125,-0.6875 -0.796875,-0.875 -0.796875,-1.25 0,-0.53125 0.40625,-0.796875 0.84375,-0.796875 0.96875,0 1,0.84375 1,1.296875 z m 0,0"
           id="path57" />
      </g>
    </g>
  </g>
</svg>
