<?xml version="1.0" encoding="UTF-8" standalone="no"?>
<!-- Created with Inkscape (http://www.inkscape.org/) -->

<svg
   width="50.310062mm"
   height="30.555239mm"
   viewBox="0 0 50.310062 30.555239"
   version="1.1"
   id="svg1"
   inkscape:version="1.3.2 (091e20e, 2023-11-25)"
   sodipodi:docname="fig-2-1.svg"
   xmlns:inkscape="http://www.inkscape.org/namespaces/inkscape"
   xmlns:sodipodi="http://sodipodi.sourceforge.net/DTD/sodipodi-0.dtd"
   xmlns="http://www.w3.org/2000/svg"
   xmlns:svg="http://www.w3.org/2000/svg">
  <sodipodi:namedview
     id="namedview1"
     pagecolor="#ffffff"
     bordercolor="#000000"
     borderopacity="0.25"
     inkscape:showpageshadow="2"
     inkscape:pageopacity="0.0"
     inkscape:pagecheckerboard="0"
     inkscape:deskcolor="#d1d1d1"
     inkscape:document-units="mm"
     inkscape:zoom="0.2102413"
     inkscape:cx="97.507007"
     inkscape:cy="57.077272"
     inkscape:window-width="1312"
     inkscape:window-height="449"
     inkscape:window-x="0"
     inkscape:window-y="38"
     inkscape:window-maximized="0"
     inkscape:current-layer="layer1" />
  <defs
     id="defs1" />
  <g
     inkscape:label="Layer 1"
     inkscape:groupmode="layer"
     id="layer1"
     transform="translate(-79.910418,-133.35)">
    <path
       fill="none"
       stroke-width="0.352778"
       stroke-linecap="butt"
       stroke-linejoin="miter"
       stroke="#000000"
       stroke-opacity="1"
       stroke-miterlimit="4"
       d="M 130.04409,133.52639 H 82.197224 v 30.20246 h 47.846866 z m -47.846866,0 z m 0,0"
       id="path257" />
    <g
       fill="#231f20"
       fill-opacity="1"
       id="g258"
       transform="matrix(0.35277777,0,0,0.35277777,9.8543533,110.06529)">
      <g
         id="use258"
         transform="translate(253.5235,87.931)">
        <path
           d="m 2.9375,-5.34375 -2.3125,4 c -0.65625,1.125 -0.734375,1.140625 -1.03125,1.21875 V 0 h 1.5 v -0.125 c -0.375,-0.03125 -0.484375,-0.078125 -0.484375,-0.28125 0,-0.171875 0.046875,-0.28125 0.171875,-0.5 L 1.234375,-1.8125 h 1.75 l 0.171875,1.046875 c 0.015625,0.125 0.015625,0.234375 0.015625,0.234375 0,0.328125 -0.21875,0.375 -0.625,0.40625 V 0 h 1.96875 V -0.125 C 4.046875,-0.171875 4,-0.25 3.90625,-0.8125 l -0.75,-4.53125 z m -1.53125,3.25 1.1875,-2.078125 0.359375,2.078125 z m 0,0"
           id="path6" />
      </g>
    </g>
    <g
       fill="#231f20"
       fill-opacity="1"
       id="g259"
       transform="matrix(0.35277777,0,0,0.35277777,9.8543533,110.06529)">
      <g
         id="use259"
         transform="translate(286.00351,80.147003)">
        <path
           d="m -0.0625,0 h 2.25 c 1.03125,0 2.125,-0.5 2.125,-1.59375 0,-0.78125 -0.5625,-1.015625 -0.984375,-1.203125 V -2.8125 c 0.75,-0.15625 1.375,-0.5 1.375,-1.21875 0,-0.921875 -0.765625,-1.1875 -1.59375,-1.1875 h -2.0625 v 0.125 c 0.375,0.015625 0.609375,0.046875 0.609375,0.34375 0,0.140625 -0.046875,0.3125 -0.09375,0.5 l -0.984375,3.53125 c -0.125,0.5 -0.25,0.515625 -0.640625,0.59375 z M 1.375,-0.59375 c 0,-0.15625 0.40625,-1.546875 0.53125,-2.046875 0.546875,0 0.90625,0.015625 1.109375,0.140625 0.234375,0.140625 0.4375,0.421875 0.4375,0.84375 0,0.78125 -0.46875,1.421875 -1.59375,1.421875 C 1.625,-0.234375 1.375,-0.296875 1.375,-0.59375 Z M 2.5,-4.765625 C 2.53125,-4.875 2.5625,-4.984375 3,-4.984375 c 0.59375,0 0.890625,0.28125 0.890625,0.828125 0,1.25 -1.140625,1.28125 -1.90625,1.25 z m 0,0"
           id="path4" />
      </g>
    </g>
    <g
       fill="#231f20"
       fill-opacity="1"
       id="g260"
       transform="matrix(0.35277777,0,0,0.35277777,9.8543533,110.06529)">
      <g
         id="use260"
         transform="translate(198.4435,71.819)">
        <path
           d="M 3.75,-3.75 4.0625,-5.328125 H 3.875 C 3.78125,-5.1875 3.71875,-5.125 3.53125,-5.125 3.375,-5.125 3.265625,-5.171875 3.125,-5.234375 2.96875,-5.28125 2.78125,-5.328125 2.421875,-5.328125 c -0.734375,0 -1.375,0.53125 -1.375,1.3125 0,0.515625 0.046875,0.609375 1.140625,1.78125 0.265625,0.28125 0.5625,0.53125 0.5625,1.046875 0,0.390625 -0.28125,1.046875 -1.03125,1.046875 -0.71875,0 -1.171875,-0.625 -1.171875,-1.34375 0,-0.0625 0.015625,-0.09375 0.015625,-0.15625 L 0.40625,-1.65625 0.140625,0.125 H 0.28125 C 0.3125,0.015625 0.375,-0.140625 0.59375,-0.140625 c 0.265625,0 0.671875,0.28125 1.234375,0.28125 1.0625,0 1.625,-0.828125 1.625,-1.578125 0,-0.53125 -0.171875,-0.84375 -0.90625,-1.578125 -0.703125,-0.6875 -0.796875,-0.875 -0.796875,-1.25 0,-0.53125 0.40625,-0.796875 0.84375,-0.796875 0.96875,0 1,0.84375 1,1.296875 z m 0,0"
           id="path3" />
      </g>
    </g>
    <path
       fill-rule="nonzero"
       fill="#a7a9ac"
       fill-opacity="1"
       d="m 109.3556,148.68619 c 0,-2.27377 -1.63298,-4.27605 -4.10793,-5.44877 -0.93982,1.53101 -1.49655,3.4134 -1.49655,5.45015 0,2.03674 0.55673,3.91776 1.49655,5.44876 2.47495,-1.17271 4.10793,-3.175 4.10793,-5.45014"
       id="path260"
       style="stroke-width:0.352778" />
    <path
       fill="none"
       stroke-width="0.352778"
       stroke-linecap="butt"
       stroke-linejoin="miter"
       stroke="#000000"
       stroke-opacity="1"
       stroke-miterlimit="4"
       d="m 109.3556,148.68618 c 0,-2.27376 -1.63297,-4.27605 -4.10793,-5.44876 -0.93982,1.531 -1.49655,3.4134 -1.49655,5.45014 0,2.03674 0.55673,3.91776 1.49655,5.44876 2.47496,-1.17271 4.10793,-3.175 4.10793,-5.45014 z m -4.10793,-5.44876 c -1.45796,-0.69178 -3.20945,-1.09416 -5.09323,-1.09416 -5.082204,0 -9.202538,2.92971 -9.202538,6.54292 0,3.6146 4.120334,6.54431 9.202538,6.54431 1.88378,0 3.63527,-0.40377 5.09323,-1.09417 -0.9412,-1.531 -1.49655,-3.4134 -1.49655,-5.44876 0,-2.03674 0.55535,-3.91914 1.49655,-5.45014 z m 0,0"
       id="path261" />
    <path
       fill-rule="nonzero"
       fill="#d1d2d4"
       fill-opacity="1"
       d="m 111.61283,139.39821 c -2.61828,0 -4.93614,1.51309 -6.36516,3.83921 2.47495,1.17272 4.10793,3.175 4.10793,5.44877 0,2.27514 -1.63298,4.27743 -4.10793,5.45014 1.42902,2.32613 3.74688,3.83921 6.36516,3.83921 4.34082,0 7.8617,-4.15892 7.8617,-9.28797 0,-5.13044 -3.52088,-9.28936 -7.8617,-9.28936"
       id="path262"
       style="stroke-width:0.352778" />
    <path
       fill="none"
       stroke-width="0.352778"
       stroke-linecap="butt"
       stroke-linejoin="miter"
       stroke="#000000"
       stroke-opacity="1"
       stroke-miterlimit="4"
       d="m 111.61282,139.39821 c -2.61827,0 -4.93613,1.51308 -6.36515,3.83921 2.47495,1.17271 4.10793,3.175 4.10793,5.44876 0,2.27515 -1.63298,4.27743 -4.10793,5.45015 1.42902,2.32612 3.74688,3.83921 6.36515,3.83921 4.34082,0 7.86171,-4.15892 7.86171,-9.28798 0,-5.13043 -3.52089,-9.28935 -7.86171,-9.28935 z m 0,0"
       id="path263" />
    <g
       fill="#231f20"
       fill-opacity="1"
       id="g263"
       transform="matrix(0.35277777,0,0,0.35277777,9.8543533,110.06529)">
      <g
         id="use263"
         transform="translate(254.16949,137.164)">
        <path
           d="m 2.9375,-5.34375 -2.3125,4 c -0.65625,1.125 -0.734375,1.140625 -1.03125,1.21875 V 0 h 1.5 v -0.125 c -0.375,-0.03125 -0.484375,-0.078125 -0.484375,-0.28125 0,-0.171875 0.046875,-0.28125 0.171875,-0.5 L 1.234375,-1.8125 h 1.75 l 0.171875,1.046875 c 0.015625,0.125 0.015625,0.234375 0.015625,0.234375 0,0.328125 -0.21875,0.375 -0.625,0.40625 V 0 h 1.96875 V -0.125 C 4.046875,-0.171875 4,-0.25 3.90625,-0.8125 l -0.75,-4.53125 z m -1.53125,3.25 1.1875,-2.078125 0.359375,2.078125 z m 0,0"
           id="path7" />
      </g>
    </g>
    <g
       fill="#231f20"
       fill-opacity="1"
       id="g264"
       transform="matrix(0.35277777,0,0,0.35277777,9.8543533,110.06529)">
      <g
         id="use264"
         transform="translate(259.0575,137.164)">
        <path
           d="m 5.3125,0 h 0.46875 v -2.890625 c 0,-1.515625 -1,-2.3125 -2.453125,-2.3125 -1.453125,0 -2.453125,0.796875 -2.453125,2.3125 V 0 h 0.46875 v -2.890625 c 0,-1.25 0.828125,-1.84375 1.984375,-1.84375 1.15625,0 1.984375,0.59375 1.984375,1.84375 z m 0,0"
           id="path1" />
      </g>
    </g>
    <g
       fill="#231f20"
       fill-opacity="1"
       id="g265"
       transform="matrix(0.35277777,0,0,0.35277777,9.8543533,110.06529)">
      <g
         id="use265"
         transform="translate(266.12149,137.164)">
        <path
           d="m -0.0625,0 h 2.25 c 1.03125,0 2.125,-0.5 2.125,-1.59375 0,-0.78125 -0.5625,-1.015625 -0.984375,-1.203125 V -2.8125 c 0.75,-0.15625 1.375,-0.5 1.375,-1.21875 0,-0.921875 -0.765625,-1.1875 -1.59375,-1.1875 h -2.0625 v 0.125 c 0.375,0.015625 0.609375,0.046875 0.609375,0.34375 0,0.140625 -0.046875,0.3125 -0.09375,0.5 l -0.984375,3.53125 c -0.125,0.5 -0.25,0.515625 -0.640625,0.59375 z M 1.375,-0.59375 c 0,-0.15625 0.40625,-1.546875 0.53125,-2.046875 0.546875,0 0.90625,0.015625 1.109375,0.140625 0.234375,0.140625 0.4375,0.421875 0.4375,0.84375 0,0.78125 -0.46875,1.421875 -1.59375,1.421875 C 1.625,-0.234375 1.375,-0.296875 1.375,-0.59375 Z M 2.5,-4.765625 C 2.53125,-4.875 2.5625,-4.984375 3,-4.984375 c 0.59375,0 0.890625,0.28125 0.890625,0.828125 0,1.25 -1.140625,1.28125 -1.90625,1.25 z m 0,0"
           id="path5" />
      </g>
    </g>
    <path
       fill="none"
       stroke-width="0.176389"
       stroke-linecap="butt"
       stroke-linejoin="miter"
       stroke="#231f20"
       stroke-opacity="1"
       stroke-miterlimit="10"
       d="m 104.32851,156.11519 1.62609,-4.67155"
       id="path265" />
    <path
       fill-rule="nonzero"
       fill="#231f20"
       fill-opacity="1"
       d="m 105.78372,151.93285 -0.61736,0.13366 -0.005,-0.0234 0.62012,-0.7152 c 0.16398,-0.26872 0.32935,-0.53606 0.49333,-0.8034 -0.0372,0.31144 -0.073,0.62288 -0.11162,0.93569 l 0.0413,0.94671 -0.0138,0.0152 -0.40652,-0.4892"
       id="path266"
       style="stroke-width:0.352778" />
  </g>
</svg>
