<?xml version="1.0" encoding="UTF-8" standalone="no"?>
<!-- Created with Inkscape (http://www.inkscape.org/) -->

<svg
   width="71.505516mm"
   height="38.569103mm"
   viewBox="0 0 71.505516 38.569103"
   version="1.1"
   id="svg1"
   inkscape:version="1.3.2 (091e20e, 2023-11-25)"
   sodipodi:docname="fig-2-3.svg"
   xmlns:inkscape="http://www.inkscape.org/namespaces/inkscape"
   xmlns:sodipodi="http://sodipodi.sourceforge.net/DTD/sodipodi-0.dtd"
   xmlns="http://www.w3.org/2000/svg"
   xmlns:svg="http://www.w3.org/2000/svg">
  <sodipodi:namedview
     id="namedview1"
     pagecolor="#ffffff"
     bordercolor="#000000"
     borderopacity="0.25"
     inkscape:showpageshadow="2"
     inkscape:pageopacity="0.0"
     inkscape:pagecheckerboard="0"
     inkscape:deskcolor="#d1d1d1"
     inkscape:document-units="mm"
     inkscape:zoom="0.2102413"
     inkscape:cx="135.55852"
     inkscape:cy="71.34659"
     inkscape:window-width="1312"
     inkscape:window-height="449"
     inkscape:window-x="0"
     inkscape:window-y="38"
     inkscape:window-maximized="0"
     inkscape:current-layer="layer1" />
  <defs
     id="defs1" />
  <g
     inkscape:label="Layer 1"
     inkscape:groupmode="layer"
     id="layer1"
     transform="translate(-69.336923,-129.1167)">
    <path
       fill-rule="nonzero"
       fill="#bbbdbf"
       fill-opacity="1"
       d="m 98.192111,162.91443 h -4.55028 v -0.20671 h 4.55028 z m 0,0"
       id="path159"
       style="stroke-width:0.352778" />
    <path
       fill-rule="nonzero"
       fill="#bbbdbf"
       fill-opacity="1"
       d="m 103.66981,162.91443 h -4.550278 v -4.42626 h 4.550278 z m 0,0"
       id="path160"
       style="stroke-width:0.352778" />
    <path
       fill-rule="nonzero"
       fill="#bbbdbf"
       fill-opacity="1"
       d="M 98.211404,162.91443 H 93.661121 V 162.665 h 4.550283 z m 0,0"
       id="path161"
       style="stroke-width:0.352778" />
    <path
       fill-rule="nonzero"
       fill="#bbbdbf"
       fill-opacity="1"
       d="m 109.11996,162.91443 h -4.55029 v -22.57502 h 4.55029 z m 0,0"
       id="path162"
       style="stroke-width:0.352778" />
    <path
       fill-rule="nonzero"
       fill="#bbbdbf"
       fill-opacity="1"
       d="m 114.58801,162.91443 h -4.55028 v -22.42482 h 4.55028 z m 0,0"
       id="path163"
       style="stroke-width:0.352778" />
    <path
       fill-rule="nonzero"
       fill="#bbbdbf"
       fill-opacity="1"
       d="m 120.04642,162.91443 h -4.55028 v -3.76756 h 4.55028 z m 0,0"
       id="path164"
       style="stroke-width:0.352778" />
    <path
       fill="none"
       stroke-width="0.176389"
       stroke-linecap="butt"
       stroke-linejoin="miter"
       stroke="#231f20"
       stroke-opacity="1"
       stroke-miterlimit="4"
       d="m 73.038782,141.51488 h 2.116666 m 58.993812,22.46478 v -2.11667 M 73.038782,157.5704 h 2.116666 m -2.116666,-5.3523 h 2.116666 m -2.116666,-5.35092 h 2.116666 m -2.116666,-10.70323 h 2.116666"
       id="path165" />
    <g
       fill="#231f20"
       fill-opacity="1"
       id="g167"
       transform="matrix(0.35277777,0,0,0.35277777,-0.892966,106.2619)">
      <g
         id="use165"
         transform="translate(198.90498,147.50999)">
        <path
           d="m 1.75,-4.546875 c 0.890625,0 0.90625,1.75 0.90625,2.234375 0,0.546875 -0.015625,2.234375 -0.90625,2.234375 -0.890625,0 -0.90625,-1.671875 -0.90625,-2.234375 0,-0.484375 0.015625,-2.234375 0.90625,-2.234375 z m 0,-0.1875 c -1.28125,0 -1.578125,1.59375 -1.578125,2.421875 0,0.84375 0.296875,2.40625 1.578125,2.40625 1.28125,0 1.578125,-1.5625 1.578125,-2.40625 0,-0.828125 -0.296875,-2.421875 -1.578125,-2.421875 z m 0,0"
           id="path7" />
      </g>
      <g
         id="use166"
         transform="translate(202.40498,147.50999)">
        <path
           d="m 0.875,0.078125 c 0.140625,0 0.390625,-0.125 0.390625,-0.375 0,-0.21875 -0.1875,-0.40625 -0.390625,-0.40625 -0.203125,0 -0.390625,0.171875 -0.390625,0.40625 0,0.265625 0.25,0.375 0.390625,0.375 z m 0,0"
           id="path1" />
      </g>
      <g
         id="use167"
         transform="translate(204.15498,147.50999)">
        <path
           d="m 0.828125,0 h 1.9375 v -0.109375 c -0.53125,0 -0.671875,-0.078125 -0.671875,-0.40625 V -4.71875 l -0.0625,-0.015625 -1.25,0.640625 V -4 C 1.171875,-4.15625 1.171875,-4.15625 1.25,-4.15625 c 0.234375,0 0.234375,0.1875 0.234375,0.328125 v 3.171875 c 0,0.515625 -0.25,0.53125 -0.65625,0.546875 z m 0,0"
           id="path15" />
      </g>
    </g>
    <g
       fill="#231f20"
       fill-opacity="1"
       id="g170"
       transform="matrix(0.35277777,0,0,0.35277777,-0.892966,106.2619)">
      <g
         id="use168"
         transform="translate(198.90498,102.185)">
        <path
           d="m 1.75,-4.546875 c 0.890625,0 0.90625,1.75 0.90625,2.234375 0,0.546875 -0.015625,2.234375 -0.90625,2.234375 -0.890625,0 -0.90625,-1.671875 -0.90625,-2.234375 0,-0.484375 0.015625,-2.234375 0.90625,-2.234375 z m 0,-0.1875 c -1.28125,0 -1.578125,1.59375 -1.578125,2.421875 0,0.84375 0.296875,2.40625 1.578125,2.40625 1.28125,0 1.578125,-1.5625 1.578125,-2.40625 0,-0.828125 -0.296875,-2.421875 -1.578125,-2.421875 z m 0,0"
           id="path8" />
      </g>
      <g
         id="use169"
         transform="translate(202.40498,102.185)">
        <path
           d="m 0.875,0.078125 c 0.140625,0 0.390625,-0.125 0.390625,-0.375 0,-0.21875 -0.1875,-0.40625 -0.390625,-0.40625 -0.203125,0 -0.390625,0.171875 -0.390625,0.40625 0,0.265625 0.25,0.375 0.390625,0.375 z m 0,0"
           id="path3" />
      </g>
      <g
         id="use170"
         transform="translate(204.15498,102.185)">
        <path
           d="M 3.296875,-1.609375 H 2.59375 v -3.125 h -0.3125 l -2.203125,3.125 v 0.4375 h 1.96875 V 0 H 2.59375 v -1.171875 h 0.703125 z m -1.25,0 h -1.6875 L 2.03125,-4 h 0.015625 z m 0,0"
           id="path14" />
      </g>
    </g>
    <g
       fill="#231f20"
       fill-opacity="1"
       id="g173"
       transform="matrix(0.35277777,0,0,0.35277777,-0.892966,106.2619)">
      <g
         id="use171"
         transform="translate(198.90498,87.009003)">
        <path
           d="m 1.75,-4.546875 c 0.890625,0 0.90625,1.75 0.90625,2.234375 0,0.546875 -0.015625,2.234375 -0.90625,2.234375 -0.890625,0 -0.90625,-1.671875 -0.90625,-2.234375 0,-0.484375 0.015625,-2.234375 0.90625,-2.234375 z m 0,-0.1875 c -1.28125,0 -1.578125,1.59375 -1.578125,2.421875 0,0.84375 0.296875,2.40625 1.578125,2.40625 1.28125,0 1.578125,-1.5625 1.578125,-2.40625 0,-0.828125 -0.296875,-2.421875 -1.578125,-2.421875 z m 0,0"
           id="path9" />
      </g>
      <g
         id="use172"
         transform="translate(202.40498,87.009003)">
        <path
           d="m 0.875,0.078125 c 0.140625,0 0.390625,-0.125 0.390625,-0.375 0,-0.21875 -0.1875,-0.40625 -0.390625,-0.40625 -0.203125,0 -0.390625,0.171875 -0.390625,0.40625 0,0.265625 0.25,0.375 0.390625,0.375 z m 0,0"
           id="path4" />
      </g>
      <g
         id="use173"
         transform="translate(204.15498,87.009003)">
        <path
           d="m 1.265625,-4.078125 h 1.375 c 0.078125,0 0.140625,0 0.15625,-0.0625 L 3.0625,-4.765625 3,-4.8125 C 2.921875,-4.71875 2.859375,-4.640625 2.6875,-4.640625 H 1.21875 L 0.453125,-2.96875 c -0.015625,0.046875 0,0.078125 0.046875,0.078125 0.75,0.03125 1.984375,0.359375 1.984375,1.484375 0,0.859375 -0.515625,1.25 -0.96875,1.25 -0.375,0 -0.5625,-0.4375 -1.015625,-0.4375 -0.28125,0 -0.28125,0.203125 -0.28125,0.265625 0,0.265625 0.328125,0.421875 0.890625,0.421875 1.109375,0 1.875,-0.734375 1.875,-1.671875 0,-0.625 -0.078125,-0.828125 -0.375,-1.1875 -0.421875,-0.5 -1.078125,-0.625 -1.640625,-0.71875 z m 0,0"
           id="path13" />
      </g>
    </g>
    <g
       fill="#231f20"
       fill-opacity="1"
       id="g176"
       transform="matrix(0.35277777,0,0,0.35277777,-0.892966,106.2619)">
      <g
         id="use174"
         transform="translate(198.90498,117.004)">
        <path
           d="m 1.75,-4.546875 c 0.890625,0 0.90625,1.75 0.90625,2.234375 0,0.546875 -0.015625,2.234375 -0.90625,2.234375 -0.890625,0 -0.90625,-1.671875 -0.90625,-2.234375 0,-0.484375 0.015625,-2.234375 0.90625,-2.234375 z m 0,-0.1875 c -1.28125,0 -1.578125,1.59375 -1.578125,2.421875 0,0.84375 0.296875,2.40625 1.578125,2.40625 1.28125,0 1.578125,-1.5625 1.578125,-2.40625 0,-0.828125 -0.296875,-2.421875 -1.578125,-2.421875 z m 0,0"
           id="path10" />
      </g>
      <g
         id="use175"
         transform="translate(202.40498,117.004)">
        <path
           d="m 0.875,0.078125 c 0.140625,0 0.390625,-0.125 0.390625,-0.375 0,-0.21875 -0.1875,-0.40625 -0.390625,-0.40625 -0.203125,0 -0.390625,0.171875 -0.390625,0.40625 0,0.265625 0.25,0.375 0.390625,0.375 z m 0,0"
           id="path5" />
      </g>
      <g
         id="use176"
         transform="translate(204.15498,117.004)">
        <path
           d="m 1.078125,-2.3125 c 0.46875,-0.015625 0.65625,0.03125 0.90625,0.15625 0.4375,0.234375 0.53125,0.75 0.53125,0.921875 0,0.53125 -0.296875,1.078125 -0.9375,1.078125 -0.421875,0 -0.6875,-0.390625 -1,-0.390625 -0.109375,0 -0.28125,0.046875 -0.28125,0.25 0,0.359375 0.609375,0.390625 0.78125,0.390625 1.09375,0 1.9375,-0.609375 1.9375,-1.609375 0,-0.921875 -0.59375,-1.171875 -0.890625,-1.296875 0.46875,-0.296875 0.65625,-0.59375 0.65625,-0.96875 0,-0.296875 -0.1875,-0.953125 -1.09375,-0.953125 -0.46875,0 -1.09375,0.21875 -1.375,1.140625 l 0.109375,0.03125 c 0.109375,-0.203125 0.390625,-0.75 1.03125,-0.75 0.515625,0 0.765625,0.375 0.765625,0.734375 0,0.640625 -0.515625,0.96875 -1.15625,1.171875 z m 0,0"
           id="path40" />
      </g>
    </g>
    <g
       fill="#231f20"
       fill-opacity="1"
       id="g179"
       transform="matrix(0.35277777,0,0,0.35277777,-0.892966,106.2619)">
      <g
         id="use177"
         transform="translate(198.90498,132.57201)">
        <path
           d="m 1.75,-4.546875 c 0.890625,0 0.90625,1.75 0.90625,2.234375 0,0.546875 -0.015625,2.234375 -0.90625,2.234375 -0.890625,0 -0.90625,-1.671875 -0.90625,-2.234375 0,-0.484375 0.015625,-2.234375 0.90625,-2.234375 z m 0,-0.1875 c -1.28125,0 -1.578125,1.59375 -1.578125,2.421875 0,0.84375 0.296875,2.40625 1.578125,2.40625 1.28125,0 1.578125,-1.5625 1.578125,-2.40625 0,-0.828125 -0.296875,-2.421875 -1.578125,-2.421875 z m 0,0"
           id="path11" />
      </g>
      <g
         id="use178"
         transform="translate(202.40498,132.57201)">
        <path
           d="m 0.875,0.078125 c 0.140625,0 0.390625,-0.125 0.390625,-0.375 0,-0.21875 -0.1875,-0.40625 -0.390625,-0.40625 -0.203125,0 -0.390625,0.171875 -0.390625,0.40625 0,0.265625 0.25,0.375 0.390625,0.375 z m 0,0"
           id="path6" />
      </g>
      <g
         id="use179"
         transform="translate(204.15498,132.57201)">
        <path
           d="M 3.328125,-0.953125 3.234375,-1 C 2.96875,-0.546875 2.828125,-0.53125 2.5625,-0.53125 H 0.890625 l 1.1875,-1.234375 C 2.375,-2.09375 2.96875,-2.734375 2.96875,-3.46875 c 0,-0.78125 -0.625,-1.265625 -1.265625,-1.265625 -0.625,0 -1.28125,0.34375 -1.484375,1.390625 l 0.140625,0.046875 c 0.15625,-0.390625 0.375,-0.921875 1,-0.921875 0.828125,0 1,0.65625 1,1 0,0.53125 -0.296875,1.15625 -0.90625,1.8125 l -1.25,1.328125 V 0 H 2.9375 Z m 0,0"
           id="path39" />
      </g>
    </g>
    <path
       fill="none"
       stroke-width="0.176389"
       stroke-linecap="butt"
       stroke-linejoin="miter"
       stroke="#231f20"
       stroke-opacity="1"
       stroke-miterlimit="4"
       d="m 95.936264,163.97965 v -2.11666 m -16.376605,2.11666 v -2.11666 m 5.458409,2.11666 v -2.11666 m 5.459787,2.11666 v -2.11666 m 10.916815,2.11666 v -2.11666 m 5.45979,2.11666 v -2.11666 m 5.45841,2.11666 v -2.11666 m 5.45841,2.11666 v -2.11666 m 5.45979,2.11666 v -2.11666 m 5.45841,2.11666 v -2.11666 m -58.839478,1.05833 h 69.238148"
       id="path179" />
    <path
       fill-rule="nonzero"
       fill="#231f20"
       fill-opacity="1"
       d="m 139.08815,162.92132 -0.38723,-0.63528 0.0221,-0.0152 1.03491,0.41203 c 0.36242,0.0799 0.72209,0.15848 1.08451,0.2384 -0.36242,0.0799 -0.72209,0.15848 -1.08451,0.23841 l -1.03491,0.41065 -0.0221,-0.01 0.38723,-0.63941"
       id="path180"
       style="stroke-width:0.352778" />
    <g
       fill="#231f20"
       fill-opacity="1"
       id="g180"
       transform="matrix(0.35277777,0,0,0.35277777,-0.892966,106.2619)">
      <g
         id="use180"
         transform="translate(206.52899,168.52299)">
        <path
           d="m 1.75,-4.546875 c 0.890625,0 0.90625,1.75 0.90625,2.234375 0,0.546875 -0.015625,2.234375 -0.90625,2.234375 -0.890625,0 -0.90625,-1.671875 -0.90625,-2.234375 0,-0.484375 0.015625,-2.234375 0.90625,-2.234375 z m 0,-0.1875 c -1.28125,0 -1.578125,1.59375 -1.578125,2.421875 0,0.84375 0.296875,2.40625 1.578125,2.40625 1.28125,0 1.578125,-1.5625 1.578125,-2.40625 0,-0.828125 -0.296875,-2.421875 -1.578125,-2.421875 z m 0,0"
           id="path12" />
      </g>
    </g>
    <g
       fill="#231f20"
       fill-opacity="1"
       id="g181"
       transform="matrix(0.35277777,0,0,0.35277777,-0.892966,106.2619)">
      <g
         id="use181"
         transform="translate(224.37199,170.987)">
        <path
           d="m -0.0625,0 h 1.984375 c 0.890625,0 1.84375,-0.4375 1.84375,-1.390625 0,-0.6875 -0.484375,-0.890625 -0.859375,-1.0625 V -2.46875 c 0.65625,-0.125 1.203125,-0.421875 1.203125,-1.0625 0,-0.796875 -0.671875,-1.046875 -1.390625,-1.046875 h -1.8125 v 0.125 c 0.328125,0.015625 0.546875,0.03125 0.546875,0.296875 0,0.125 -0.046875,0.265625 -0.078125,0.4375 L 0.515625,-0.625 c -0.125,0.421875 -0.234375,0.453125 -0.578125,0.515625 z m 1.265625,-0.53125 c 0,-0.125 0.359375,-1.34375 0.46875,-1.78125 0.46875,0 0.796875,0.015625 0.96875,0.125 0.203125,0.125 0.375,0.375 0.375,0.734375 0,0.6875 -0.390625,1.25 -1.390625,1.25 -0.203125,0 -0.421875,-0.0625 -0.421875,-0.328125 z M 2.1875,-4.171875 c 0.03125,-0.09375 0.046875,-0.1875 0.4375,-0.1875 0.53125,0 0.78125,0.25 0.78125,0.71875 0,1.09375 -1,1.125 -1.671875,1.09375 z m 0,0"
           id="path25" />
      </g>
    </g>
    <g
       fill="#231f20"
       fill-opacity="1"
       id="g182"
       transform="matrix(0.35277777,0,0,0.35277777,-0.892966,106.2619)">
      <g
         id="use182"
         transform="translate(228.65199,173.99001)">
        <path
           d="m 0.703125,0 h 1.65625 v -0.09375 c -0.453125,0 -0.5625,-0.0625 -0.5625,-0.34375 V -4.046875 L 1.75,-4.0625 0.671875,-3.515625 v 0.09375 C 1,-3.5625 1,-3.5625 1.078125,-3.5625 c 0.203125,0 0.203125,0.15625 0.203125,0.28125 v 2.71875 c 0,0.453125 -0.21875,0.453125 -0.578125,0.46875 z m 0,0"
           id="path21" />
      </g>
    </g>
    <g
       fill="#231f20"
       fill-opacity="1"
       id="g183"
       transform="matrix(0.35277777,0,0,0.35277777,-0.892966,106.2619)">
      <g
         id="use183"
         transform="translate(239.922,170.99001)">
        <path
           d="m -0.0625,0 h 1.984375 c 0.890625,0 1.84375,-0.4375 1.84375,-1.390625 0,-0.6875 -0.484375,-0.890625 -0.859375,-1.0625 V -2.46875 c 0.65625,-0.125 1.203125,-0.421875 1.203125,-1.0625 0,-0.796875 -0.671875,-1.046875 -1.390625,-1.046875 h -1.8125 v 0.125 c 0.328125,0.015625 0.546875,0.03125 0.546875,0.296875 0,0.125 -0.046875,0.265625 -0.078125,0.4375 L 0.515625,-0.625 c -0.125,0.421875 -0.234375,0.453125 -0.578125,0.515625 z m 1.265625,-0.53125 c 0,-0.125 0.359375,-1.34375 0.46875,-1.78125 0.46875,0 0.796875,0.015625 0.96875,0.125 0.203125,0.125 0.375,0.375 0.375,0.734375 0,0.6875 -0.390625,1.25 -1.390625,1.25 -0.203125,0 -0.421875,-0.0625 -0.421875,-0.328125 z M 2.1875,-4.171875 c 0.03125,-0.09375 0.046875,-0.1875 0.4375,-0.1875 0.53125,0 0.78125,0.25 0.78125,0.71875 0,1.09375 -1,1.125 -1.671875,1.09375 z m 0,0"
           id="path26" />
      </g>
    </g>
    <g
       fill="#231f20"
       fill-opacity="1"
       id="g184"
       transform="matrix(0.35277777,0,0,0.35277777,-0.892966,106.2619)">
      <g
         id="use184"
         transform="translate(244.19899,173.99001)">
        <path
           d="m 2.84375,-0.828125 -0.078125,-0.03125 c -0.234375,0.390625 -0.34375,0.40625 -0.5625,0.40625 h -1.4375 l 1.015625,-1.0625 C 2.046875,-1.796875 2.546875,-2.34375 2.546875,-2.96875 2.546875,-3.640625 2,-4.0625 1.453125,-4.0625 c -0.515625,0 -1.09375,0.296875 -1.265625,1.203125 l 0.125,0.03125 c 0.125,-0.328125 0.3125,-0.78125 0.859375,-0.78125 0.703125,0 0.859375,0.546875 0.859375,0.859375 0,0.453125 -0.265625,0.984375 -0.78125,1.546875 l -1.0625,1.125 V 0 h 2.328125 z m 0,0"
           id="path20" />
      </g>
    </g>
    <g
       fill="#231f20"
       fill-opacity="1"
       id="g185"
       transform="matrix(0.35277777,0,0,0.35277777,-0.892966,106.2619)">
      <g
         id="use185"
         transform="translate(255.46899,170.99001)">
        <path
           d="m -0.0625,0 h 1.984375 c 0.890625,0 1.84375,-0.4375 1.84375,-1.390625 0,-0.6875 -0.484375,-0.890625 -0.859375,-1.0625 V -2.46875 c 0.65625,-0.125 1.203125,-0.421875 1.203125,-1.0625 0,-0.796875 -0.671875,-1.046875 -1.390625,-1.046875 h -1.8125 v 0.125 c 0.328125,0.015625 0.546875,0.03125 0.546875,0.296875 0,0.125 -0.046875,0.265625 -0.078125,0.4375 L 0.515625,-0.625 c -0.125,0.421875 -0.234375,0.453125 -0.578125,0.515625 z m 1.265625,-0.53125 c 0,-0.125 0.359375,-1.34375 0.46875,-1.78125 0.46875,0 0.796875,0.015625 0.96875,0.125 0.203125,0.125 0.375,0.375 0.375,0.734375 0,0.6875 -0.390625,1.25 -1.390625,1.25 -0.203125,0 -0.421875,-0.0625 -0.421875,-0.328125 z M 2.1875,-4.171875 c 0.03125,-0.09375 0.046875,-0.1875 0.4375,-0.1875 0.53125,0 0.78125,0.25 0.78125,0.71875 0,1.09375 -1,1.125 -1.671875,1.09375 z m 0,0"
           id="path27" />
      </g>
    </g>
    <g
       fill="#231f20"
       fill-opacity="1"
       id="g186"
       transform="matrix(0.35277777,0,0,0.35277777,-0.892966,106.2619)">
      <g
         id="use186"
         transform="translate(259.746,173.99001)">
        <path
           d="m 0.921875,-1.984375 c 0.40625,0 0.5625,0.015625 0.78125,0.140625 0.375,0.1875 0.453125,0.640625 0.453125,0.78125 0,0.453125 -0.25,0.9375 -0.8125,0.9375 -0.34375,0 -0.578125,-0.34375 -0.859375,-0.34375 -0.09375,0 -0.21875,0.046875 -0.21875,0.203125 0,0.3125 0.515625,0.34375 0.65625,0.34375 0.9375,0 1.671875,-0.515625 1.671875,-1.375 0,-0.796875 -0.515625,-1 -0.765625,-1.109375 C 2.21875,-2.65625 2.375,-2.921875 2.375,-3.25 c 0,-0.234375 -0.15625,-0.8125 -0.921875,-0.8125 -0.40625,0 -0.9375,0.1875 -1.1875,0.984375 l 0.09375,0.015625 c 0.09375,-0.171875 0.34375,-0.640625 0.890625,-0.640625 0.4375,0 0.65625,0.328125 0.65625,0.625 0,0.5625 -0.453125,0.84375 -1,1.015625 z m 0,0"
           id="path19" />
      </g>
    </g>
    <g
       fill="#231f20"
       fill-opacity="1"
       id="g187"
       transform="matrix(0.35277777,0,0,0.35277777,-0.892966,106.2619)">
      <g
         id="use187"
         transform="translate(271.01599,170.99001)">
        <path
           d="m -0.0625,0 h 1.984375 c 0.890625,0 1.84375,-0.4375 1.84375,-1.390625 0,-0.6875 -0.484375,-0.890625 -0.859375,-1.0625 V -2.46875 c 0.65625,-0.125 1.203125,-0.421875 1.203125,-1.0625 0,-0.796875 -0.671875,-1.046875 -1.390625,-1.046875 h -1.8125 v 0.125 c 0.328125,0.015625 0.546875,0.03125 0.546875,0.296875 0,0.125 -0.046875,0.265625 -0.078125,0.4375 L 0.515625,-0.625 c -0.125,0.421875 -0.234375,0.453125 -0.578125,0.515625 z m 1.265625,-0.53125 c 0,-0.125 0.359375,-1.34375 0.46875,-1.78125 0.46875,0 0.796875,0.015625 0.96875,0.125 0.203125,0.125 0.375,0.375 0.375,0.734375 0,0.6875 -0.390625,1.25 -1.390625,1.25 -0.203125,0 -0.421875,-0.0625 -0.421875,-0.328125 z M 2.1875,-4.171875 c 0.03125,-0.09375 0.046875,-0.1875 0.4375,-0.1875 0.53125,0 0.78125,0.25 0.78125,0.71875 0,1.09375 -1,1.125 -1.671875,1.09375 z m 0,0"
           id="path28" />
      </g>
    </g>
    <g
       fill="#231f20"
       fill-opacity="1"
       id="g188"
       transform="matrix(0.35277777,0,0,0.35277777,-0.892966,106.2619)">
      <g
         id="use188"
         transform="translate(275.293,173.99001)">
        <path
           d="M 2.828125,-1.390625 H 2.21875 V -4.0625 H 1.953125 l -1.875,2.671875 V -1 h 1.6875 V 0 H 2.21875 v -1 h 0.609375 z m -1.078125,0 H 0.3125 l 1.421875,-2.03125 H 1.75 Z m 0,0"
           id="path18" />
      </g>
    </g>
    <g
       fill="#231f20"
       fill-opacity="1"
       id="g189"
       transform="matrix(0.35277777,0,0,0.35277777,-0.892966,106.2619)">
      <g
         id="use189"
         transform="translate(286.56198,170.99001)">
        <path
           d="m -0.0625,0 h 1.984375 c 0.890625,0 1.84375,-0.4375 1.84375,-1.390625 0,-0.6875 -0.484375,-0.890625 -0.859375,-1.0625 V -2.46875 c 0.65625,-0.125 1.203125,-0.421875 1.203125,-1.0625 0,-0.796875 -0.671875,-1.046875 -1.390625,-1.046875 h -1.8125 v 0.125 c 0.328125,0.015625 0.546875,0.03125 0.546875,0.296875 0,0.125 -0.046875,0.265625 -0.078125,0.4375 L 0.515625,-0.625 c -0.125,0.421875 -0.234375,0.453125 -0.578125,0.515625 z m 1.265625,-0.53125 c 0,-0.125 0.359375,-1.34375 0.46875,-1.78125 0.46875,0 0.796875,0.015625 0.96875,0.125 0.203125,0.125 0.375,0.375 0.375,0.734375 0,0.6875 -0.390625,1.25 -1.390625,1.25 -0.203125,0 -0.421875,-0.0625 -0.421875,-0.328125 z M 2.1875,-4.171875 c 0.03125,-0.09375 0.046875,-0.1875 0.4375,-0.1875 0.53125,0 0.78125,0.25 0.78125,0.71875 0,1.09375 -1,1.125 -1.671875,1.09375 z m 0,0"
           id="path29" />
      </g>
    </g>
    <g
       fill="#231f20"
       fill-opacity="1"
       id="g190"
       transform="matrix(0.35277777,0,0,0.35277777,-0.892966,106.2619)">
      <g
         id="use190"
         transform="translate(290.84,173.99001)">
        <path
           d="m 1.09375,-3.5 h 1.171875 c 0.0625,0 0.109375,0 0.140625,-0.046875 L 2.625,-4.09375 2.578125,-4.125 c -0.0625,0.09375 -0.125,0.15625 -0.28125,0.15625 h -1.25 l -0.65625,1.421875 c -0.015625,0.03125 0,0.078125 0.03125,0.078125 0.65625,0.015625 1.71875,0.296875 1.71875,1.265625 0,0.734375 -0.453125,1.0625 -0.84375,1.0625 -0.3125,0 -0.484375,-0.375 -0.859375,-0.375 -0.25,0 -0.25,0.171875 -0.25,0.234375 0,0.21875 0.28125,0.359375 0.765625,0.359375 0.9375,0 1.609375,-0.625 1.609375,-1.421875 C 2.5625,-1.890625 2.484375,-2.0625 2.234375,-2.375 1.875,-2.796875 1.3125,-2.90625 0.828125,-2.984375 Z m 0,0"
           id="path17" />
      </g>
    </g>
    <g
       fill="#231f20"
       fill-opacity="1"
       id="g191"
       transform="matrix(0.35277777,0,0,0.35277777,-0.892966,106.2619)">
      <g
         id="use191"
         transform="translate(302.10898,170.99001)">
        <path
           d="m -0.0625,0 h 1.984375 c 0.890625,0 1.84375,-0.4375 1.84375,-1.390625 0,-0.6875 -0.484375,-0.890625 -0.859375,-1.0625 V -2.46875 c 0.65625,-0.125 1.203125,-0.421875 1.203125,-1.0625 0,-0.796875 -0.671875,-1.046875 -1.390625,-1.046875 h -1.8125 v 0.125 c 0.328125,0.015625 0.546875,0.03125 0.546875,0.296875 0,0.125 -0.046875,0.265625 -0.078125,0.4375 L 0.515625,-0.625 c -0.125,0.421875 -0.234375,0.453125 -0.578125,0.515625 z m 1.265625,-0.53125 c 0,-0.125 0.359375,-1.34375 0.46875,-1.78125 0.46875,0 0.796875,0.015625 0.96875,0.125 0.203125,0.125 0.375,0.375 0.375,0.734375 0,0.6875 -0.390625,1.25 -1.390625,1.25 -0.203125,0 -0.421875,-0.0625 -0.421875,-0.328125 z M 2.1875,-4.171875 c 0.03125,-0.09375 0.046875,-0.1875 0.4375,-0.1875 0.53125,0 0.78125,0.25 0.78125,0.71875 0,1.09375 -1,1.125 -1.671875,1.09375 z m 0,0"
           id="path30" />
      </g>
    </g>
    <g
       fill="#231f20"
       fill-opacity="1"
       id="g192"
       transform="matrix(0.35277777,0,0,0.35277777,-0.892966,106.2619)">
      <g
         id="use192"
         transform="translate(306.38599,173.99001)">
        <path
           d="M 2.671875,-4.109375 C 1.21875,-4.0625 0.203125,-2.96875 0.203125,-1.75 c 0,1.265625 0.609375,1.828125 1.328125,1.828125 1.0625,0 1.28125,-0.953125 1.28125,-1.390625 0,-0.796875 -0.46875,-1.25 -1.109375,-1.25 C 1.375,-2.5625 1.234375,-2.5 0.90625,-2.296875 1.03125,-3.03125 1.625,-3.84375 2.6875,-4.015625 Z m -1.21875,1.8125 c 0.640625,0 0.8125,0.609375 0.8125,1.21875 0,0.6875 -0.28125,1 -0.65625,1 -0.453125,0 -0.84375,-0.453125 -0.84375,-1.453125 0,-0.359375 0.0625,-0.515625 0.109375,-0.5625 C 1.03125,-2.25 1.25,-2.296875 1.453125,-2.296875 Z m 0,0"
           id="path16" />
      </g>
    </g>
    <g
       fill="#231f20"
       fill-opacity="1"
       id="g193"
       transform="matrix(0.35277777,0,0,0.35277777,-0.892966,106.2619)">
      <g
         id="use193"
         transform="translate(317.65598,170.99001)">
        <path
           d="m -0.0625,0 h 1.984375 c 0.890625,0 1.84375,-0.4375 1.84375,-1.390625 0,-0.6875 -0.484375,-0.890625 -0.859375,-1.0625 V -2.46875 c 0.65625,-0.125 1.203125,-0.421875 1.203125,-1.0625 0,-0.796875 -0.671875,-1.046875 -1.390625,-1.046875 h -1.8125 v 0.125 c 0.328125,0.015625 0.546875,0.03125 0.546875,0.296875 0,0.125 -0.046875,0.265625 -0.078125,0.4375 L 0.515625,-0.625 c -0.125,0.421875 -0.234375,0.453125 -0.578125,0.515625 z m 1.265625,-0.53125 c 0,-0.125 0.359375,-1.34375 0.46875,-1.78125 0.46875,0 0.796875,0.015625 0.96875,0.125 0.203125,0.125 0.375,0.375 0.375,0.734375 0,0.6875 -0.390625,1.25 -1.390625,1.25 -0.203125,0 -0.421875,-0.0625 -0.421875,-0.328125 z M 2.1875,-4.171875 c 0.03125,-0.09375 0.046875,-0.1875 0.4375,-0.1875 0.53125,0 0.78125,0.25 0.78125,0.71875 0,1.09375 -1,1.125 -1.671875,1.09375 z m 0,0"
           id="path31" />
      </g>
    </g>
    <g
       fill="#231f20"
       fill-opacity="1"
       id="g194"
       transform="matrix(0.35277777,0,0,0.35277777,-0.892966,106.2619)">
      <g
         id="use194"
         transform="translate(321.93298,173.99001)">
        <path
           d="M 2.6875,-3.96875 H 0.46875 L 0.375,-3.703125 0.125,-3.09375 0.21875,-3.046875 c 0.203125,-0.3125 0.3125,-0.484375 0.703125,-0.484375 H 2.21875 L 1.03125,0.046875 H 1.421875 L 2.6875,-3.875 Z m 0,0"
           id="path44" />
      </g>
    </g>
    <g
       fill="#231f20"
       fill-opacity="1"
       id="g195"
       transform="matrix(0.35277777,0,0,0.35277777,-0.892966,106.2619)">
      <g
         id="use195"
         transform="translate(333.203,170.99001)">
        <path
           d="m -0.0625,0 h 1.984375 c 0.890625,0 1.84375,-0.4375 1.84375,-1.390625 0,-0.6875 -0.484375,-0.890625 -0.859375,-1.0625 V -2.46875 c 0.65625,-0.125 1.203125,-0.421875 1.203125,-1.0625 0,-0.796875 -0.671875,-1.046875 -1.390625,-1.046875 h -1.8125 v 0.125 c 0.328125,0.015625 0.546875,0.03125 0.546875,0.296875 0,0.125 -0.046875,0.265625 -0.078125,0.4375 L 0.515625,-0.625 c -0.125,0.421875 -0.234375,0.453125 -0.578125,0.515625 z m 1.265625,-0.53125 c 0,-0.125 0.359375,-1.34375 0.46875,-1.78125 0.46875,0 0.796875,0.015625 0.96875,0.125 0.203125,0.125 0.375,0.375 0.375,0.734375 0,0.6875 -0.390625,1.25 -1.390625,1.25 -0.203125,0 -0.421875,-0.0625 -0.421875,-0.328125 z M 2.1875,-4.171875 c 0.03125,-0.09375 0.046875,-0.1875 0.4375,-0.1875 0.53125,0 0.78125,0.25 0.78125,0.71875 0,1.09375 -1,1.125 -1.671875,1.09375 z m 0,0"
           id="path32" />
      </g>
    </g>
    <g
       fill="#231f20"
       fill-opacity="1"
       id="g196"
       transform="matrix(0.35277777,0,0,0.35277777,-0.892966,106.2619)">
      <g
         id="use196"
         transform="translate(337.47998,173.99001)">
        <path
           d="m 1.265625,-1.875 c 0.703125,0.5 0.953125,0.671875 0.953125,1.125 0,0.40625 -0.28125,0.671875 -0.671875,0.671875 -0.484375,0 -0.75,-0.390625 -0.75,-0.859375 0,-0.546875 0.28125,-0.78125 0.46875,-0.9375 z m -0.921875,1 c 0,0.46875 0.390625,0.953125 1.125,0.953125 1,0 1.203125,-0.671875 1.203125,-0.984375 0,-0.390625 -0.125,-0.75 -0.9375,-1.3125 0.328125,-0.1875 0.8125,-0.4375 0.8125,-0.984375 0,-0.453125 -0.375,-0.859375 -1.046875,-0.859375 -0.515625,0 -1.125,0.328125 -1.125,0.9375 0,0.484375 0.234375,0.6875 0.734375,1.140625 C 0.578125,-1.578125 0.34375,-1.390625 0.34375,-0.875 Z M 0.8125,-3.28125 c 0,-0.28125 0.203125,-0.609375 0.640625,-0.609375 0.46875,0 0.671875,0.328125 0.671875,0.65625 0,0.53125 -0.328125,0.75 -0.5625,0.90625 C 1.34375,-2.46875 0.8125,-2.8125 0.8125,-3.28125 Z m 0,0"
           id="path42" />
      </g>
    </g>
    <g
       fill="#231f20"
       fill-opacity="1"
       id="g197"
       transform="matrix(0.35277777,0,0,0.35277777,-0.892966,106.2619)">
      <g
         id="use197"
         transform="translate(348.74899,170.99001)">
        <path
           d="m -0.0625,0 h 1.984375 c 0.890625,0 1.84375,-0.4375 1.84375,-1.390625 0,-0.6875 -0.484375,-0.890625 -0.859375,-1.0625 V -2.46875 c 0.65625,-0.125 1.203125,-0.421875 1.203125,-1.0625 0,-0.796875 -0.671875,-1.046875 -1.390625,-1.046875 h -1.8125 v 0.125 c 0.328125,0.015625 0.546875,0.03125 0.546875,0.296875 0,0.125 -0.046875,0.265625 -0.078125,0.4375 L 0.515625,-0.625 c -0.125,0.421875 -0.234375,0.453125 -0.578125,0.515625 z m 1.265625,-0.53125 c 0,-0.125 0.359375,-1.34375 0.46875,-1.78125 0.46875,0 0.796875,0.015625 0.96875,0.125 0.203125,0.125 0.375,0.375 0.375,0.734375 0,0.6875 -0.390625,1.25 -1.390625,1.25 -0.203125,0 -0.421875,-0.0625 -0.421875,-0.328125 z M 2.1875,-4.171875 c 0.03125,-0.09375 0.046875,-0.1875 0.4375,-0.1875 0.53125,0 0.78125,0.25 0.78125,0.71875 0,1.09375 -1,1.125 -1.671875,1.09375 z m 0,0"
           id="path33" />
      </g>
    </g>
    <g
       fill="#231f20"
       fill-opacity="1"
       id="g198"
       transform="matrix(0.35277777,0,0,0.35277777,-0.892966,106.2619)">
      <g
         id="use198"
         transform="translate(353.026,173.99001)">
        <path
           d="M 0.359375,0.125 C 1.875,0.03125 2.75,-1.109375 2.75,-2.375 c 0,-1 -0.578125,-1.6875 -1.3125,-1.6875 -0.78125,0 -1.25,0.65625 -1.25,1.453125 0,0.484375 0.265625,1.1875 1.078125,1.1875 0.296875,0 0.609375,-0.109375 0.875,-0.328125 l 0.015625,0.015625 c -0.03125,0.140625 -0.375,1.5 -1.8125,1.75 z m 1.8125,-2.25 c 0,0.109375 -0.015625,0.171875 -0.09375,0.234375 -0.125,0.109375 -0.375,0.203125 -0.578125,0.203125 -0.640625,0 -0.765625,-0.6875 -0.765625,-1.15625 0,-0.484375 0.140625,-1.046875 0.640625,-1.046875 0.796875,0 0.796875,1.171875 0.796875,1.53125 z m 0,0"
           id="path41" />
      </g>
    </g>
    <g
       fill="#231f20"
       fill-opacity="1"
       id="g199"
       transform="matrix(0.35277777,0,0,0.35277777,-0.892966,106.2619)">
      <g
         id="use199"
         transform="translate(362.79599,170.99001)">
        <path
           d="m -0.0625,0 h 1.984375 c 0.890625,0 1.84375,-0.4375 1.84375,-1.390625 0,-0.6875 -0.484375,-0.890625 -0.859375,-1.0625 V -2.46875 c 0.65625,-0.125 1.203125,-0.421875 1.203125,-1.0625 0,-0.796875 -0.671875,-1.046875 -1.390625,-1.046875 h -1.8125 v 0.125 c 0.328125,0.015625 0.546875,0.03125 0.546875,0.296875 0,0.125 -0.046875,0.265625 -0.078125,0.4375 L 0.515625,-0.625 c -0.125,0.421875 -0.234375,0.453125 -0.578125,0.515625 z m 1.265625,-0.53125 c 0,-0.125 0.359375,-1.34375 0.46875,-1.78125 0.46875,0 0.796875,0.015625 0.96875,0.125 0.203125,0.125 0.375,0.375 0.375,0.734375 0,0.6875 -0.390625,1.25 -1.390625,1.25 -0.203125,0 -0.421875,-0.0625 -0.421875,-0.328125 z M 2.1875,-4.171875 c 0.03125,-0.09375 0.046875,-0.1875 0.4375,-0.1875 0.53125,0 0.78125,0.25 0.78125,0.71875 0,1.09375 -1,1.125 -1.671875,1.09375 z m 0,0"
           id="path37" />
      </g>
    </g>
    <g
       fill="#231f20"
       fill-opacity="1"
       id="g201"
       transform="matrix(0.35277777,0,0,0.35277777,-0.892966,106.2619)">
      <g
         id="use200"
         transform="translate(367.073,173.99001)">
        <path
           d="m 0.703125,0 h 1.65625 v -0.09375 c -0.453125,0 -0.5625,-0.0625 -0.5625,-0.34375 V -4.046875 L 1.75,-4.0625 0.671875,-3.515625 v 0.09375 C 1,-3.5625 1,-3.5625 1.078125,-3.5625 c 0.203125,0 0.203125,0.15625 0.203125,0.28125 v 2.71875 c 0,0.453125 -0.21875,0.453125 -0.578125,0.46875 z m 0,0"
           id="path22" />
      </g>
      <g
         id="use201"
         transform="translate(370.073,173.99001)">
        <path
           d="m 1.5,-3.90625 c 0.765625,0 0.78125,1.515625 0.78125,1.921875 0,0.46875 -0.015625,1.90625 -0.78125,1.90625 -0.765625,0 -0.78125,-1.421875 -0.78125,-1.90625 0,-0.40625 0.015625,-1.921875 0.78125,-1.921875 z m 0,-0.15625 c -1.109375,0 -1.359375,1.375 -1.359375,2.078125 0,0.71875 0.25,2.0625 1.359375,2.0625 1.109375,0 1.359375,-1.34375 1.359375,-2.0625 0,-0.703125 -0.25,-2.078125 -1.359375,-2.078125 z m 0,0"
           id="path45" />
      </g>
    </g>
    <g
       fill="#231f20"
       fill-opacity="1"
       id="g202"
       transform="matrix(0.35277777,0,0,0.35277777,-0.892966,106.2619)">
      <g
         id="use202"
         transform="translate(378.34299,170.99001)">
        <path
           d="m -0.0625,0 h 1.984375 c 0.890625,0 1.84375,-0.4375 1.84375,-1.390625 0,-0.6875 -0.484375,-0.890625 -0.859375,-1.0625 V -2.46875 c 0.65625,-0.125 1.203125,-0.421875 1.203125,-1.0625 0,-0.796875 -0.671875,-1.046875 -1.390625,-1.046875 h -1.8125 v 0.125 c 0.328125,0.015625 0.546875,0.03125 0.546875,0.296875 0,0.125 -0.046875,0.265625 -0.078125,0.4375 L 0.515625,-0.625 c -0.125,0.421875 -0.234375,0.453125 -0.578125,0.515625 z m 1.265625,-0.53125 c 0,-0.125 0.359375,-1.34375 0.46875,-1.78125 0.46875,0 0.796875,0.015625 0.96875,0.125 0.203125,0.125 0.375,0.375 0.375,0.734375 0,0.6875 -0.390625,1.25 -1.390625,1.25 -0.203125,0 -0.421875,-0.0625 -0.421875,-0.328125 z M 2.1875,-4.171875 c 0.03125,-0.09375 0.046875,-0.1875 0.4375,-0.1875 0.53125,0 0.78125,0.25 0.78125,0.71875 0,1.09375 -1,1.125 -1.671875,1.09375 z m 0,0"
           id="path38" />
      </g>
    </g>
    <g
       fill="#231f20"
       fill-opacity="1"
       id="g204"
       transform="matrix(0.35277777,0,0,0.35277777,-0.892966,106.2619)">
      <g
         id="use203"
         transform="translate(382.62,173.99001)">
        <path
           d="m 0.703125,0 h 1.65625 v -0.09375 c -0.453125,0 -0.5625,-0.0625 -0.5625,-0.34375 V -4.046875 L 1.75,-4.0625 0.671875,-3.515625 v 0.09375 C 1,-3.5625 1,-3.5625 1.078125,-3.5625 c 0.203125,0 0.203125,0.15625 0.203125,0.28125 v 2.71875 c 0,0.453125 -0.21875,0.453125 -0.578125,0.46875 z m 0,0"
           id="path23" />
      </g>
      <g
         id="use204"
         transform="translate(385.62,173.99001)">
        <path
           d="m 0.703125,0 h 1.65625 v -0.09375 c -0.453125,0 -0.5625,-0.0625 -0.5625,-0.34375 V -4.046875 L 1.75,-4.0625 0.671875,-3.515625 v 0.09375 C 1,-3.5625 1,-3.5625 1.078125,-3.5625 c 0.203125,0 0.203125,0.15625 0.203125,0.28125 v 2.71875 c 0,0.453125 -0.21875,0.453125 -0.578125,0.46875 z m 0,0"
           id="path24" />
      </g>
    </g>
    <path
       fill="none"
       stroke-width="0.176389"
       stroke-linecap="butt"
       stroke-linejoin="miter"
       stroke="#231f20"
       stroke-opacity="1"
       stroke-miterlimit="4"
       d="M 74.097115,167.16567 V 130.87228"
       id="path204" />
    <path
       fill-rule="nonzero"
       fill="#231f20"
       fill-opacity="1"
       d="m 74.097114,130.87228 -0.635275,0.38585 -0.01379,-0.022 0.410655,-1.03629 c 0.07993,-0.36105 0.158474,-0.72209 0.2384,-1.08314 0.07993,0.36105 0.158475,0.72209 0.2384,1.08314 l 0.412034,1.03629 -0.01101,0.022 -0.63941,-0.38585"
       id="path205"
       style="stroke-width:0.352778" />
  </g>
</svg>
