<?xml version="1.0" encoding="UTF-8" standalone="no"?>
<!-- Created with Inkscape (http://www.inkscape.org/) -->

<svg
   width="65.890442mm"
   height="37.355579mm"
   viewBox="0 0 65.890442 37.355579"
   version="1.1"
   id="svg1"
   inkscape:version="1.3.2 (091e20e, 2023-11-25)"
   sodipodi:docname="fig-2-2.svg"
   xmlns:inkscape="http://www.inkscape.org/namespaces/inkscape"
   xmlns:sodipodi="http://sodipodi.sourceforge.net/DTD/sodipodi-0.dtd"
   xmlns="http://www.w3.org/2000/svg"
   xmlns:svg="http://www.w3.org/2000/svg">
  <sodipodi:namedview
     id="namedview1"
     pagecolor="#ffffff"
     bordercolor="#000000"
     borderopacity="0.25"
     inkscape:showpageshadow="2"
     inkscape:pageopacity="0.0"
     inkscape:pagecheckerboard="0"
     inkscape:deskcolor="#d1d1d1"
     inkscape:document-units="mm"
     inkscape:zoom="0.2102413"
     inkscape:cx="126.04564"
     inkscape:cy="71.34659"
     inkscape:window-width="1312"
     inkscape:window-height="449"
     inkscape:window-x="0"
     inkscape:window-y="38"
     inkscape:window-maximized="0"
     inkscape:current-layer="layer1" />
  <defs
     id="defs1" />
  <g
     inkscape:label="Layer 1"
     inkscape:groupmode="layer"
     id="layer1"
     transform="translate(-72.237215,-129.86279)">
    <path
       fill-rule="nonzero"
       fill="#d1d2d4"
       fill-opacity="1"
       d="m 125.72118,146.08891 c 0,5.13043 -8.33989,9.28935 -18.62832,9.28935 -10.288432,0 -18.628321,-4.15892 -18.628321,-9.28935 0,-5.13044 8.339889,-9.28936 18.628321,-9.28936 10.28843,0 18.62832,4.15892 18.62832,9.28936"
       id="path1913"
       style="stroke-width:0.352778" />
    <path
       fill="none"
       stroke-width="0.352778"
       stroke-linecap="butt"
       stroke-linejoin="miter"
       stroke="#000000"
       stroke-opacity="1"
       stroke-miterlimit="4"
       d="m 125.72118,146.08891 c 0,5.13043 -8.33989,9.28935 -18.62832,9.28935 -10.288435,0 -18.628323,-4.15892 -18.628323,-9.28935 0,-5.13044 8.339888,-9.28936 18.628323,-9.28936 10.28843,0 18.62832,4.15892 18.62832,9.28936 z m 12.23009,-15.70137 H 74.524305 v 36.65444 h 63.426965 z m -63.426965,0 z m 0,0"
       id="path1914" />
    <g
       fill="#231f20"
       fill-opacity="1"
       id="g1914"
       transform="matrix(0.35277777,0,0,0.35277777,2.2227777,-72.693943)">
      <g
         id="use1914"
         transform="translate(304.64151,591.66302)">
        <path
           d="m 2.9375,-5.34375 -2.3125,4 c -0.65625,1.125 -0.734375,1.140625 -1.03125,1.21875 V 0 h 1.5 v -0.125 c -0.375,-0.03125 -0.484375,-0.078125 -0.484375,-0.28125 0,-0.171875 0.046875,-0.28125 0.171875,-0.5 L 1.234375,-1.8125 h 1.75 l 0.171875,1.046875 c 0.015625,0.125 0.015625,0.234375 0.015625,0.234375 0,0.328125 -0.21875,0.375 -0.625,0.40625 V 0 h 1.96875 V -0.125 C 4.046875,-0.171875 4,-0.25 3.90625,-0.8125 l -0.75,-4.53125 z m -1.53125,3.25 1.1875,-2.078125 0.359375,2.078125 z m 0,0"
           id="path13" />
      </g>
    </g>
    <g
       fill="#231f20"
       fill-opacity="1"
       id="g1915"
       transform="matrix(0.35277777,0,0,0.35277777,2.2227777,-72.693943)">
      <g
         id="use1915"
         transform="translate(225.67349,599.94299)">
        <path
           d="m -0.0625,0 h 2.25 c 1.03125,0 2.125,-0.5 2.125,-1.59375 0,-0.78125 -0.5625,-1.015625 -0.984375,-1.203125 V -2.8125 c 0.75,-0.15625 1.375,-0.5 1.375,-1.21875 0,-0.921875 -0.765625,-1.1875 -1.59375,-1.1875 h -2.0625 v 0.125 c 0.375,0.015625 0.609375,0.046875 0.609375,0.34375 0,0.140625 -0.046875,0.3125 -0.09375,0.5 l -0.984375,3.53125 c -0.125,0.5 -0.25,0.515625 -0.640625,0.59375 z M 1.375,-0.59375 c 0,-0.15625 0.40625,-1.546875 0.53125,-2.046875 0.546875,0 0.90625,0.015625 1.109375,0.140625 0.234375,0.140625 0.4375,0.421875 0.4375,0.84375 0,0.78125 -0.46875,1.421875 -1.59375,1.421875 C 1.625,-0.234375 1.375,-0.296875 1.375,-0.59375 Z M 2.5,-4.765625 C 2.53125,-4.875 2.5625,-4.984375 3,-4.984375 c 0.59375,0 0.890625,0.28125 0.890625,0.828125 0,1.25 -1.140625,1.28125 -1.90625,1.25 z m 0,0"
           id="path8" />
      </g>
    </g>
    <g
       fill="#231f20"
       fill-opacity="1"
       id="g1916"
       transform="matrix(0.35277777,0,0,0.35277777,2.2227777,-72.693943)">
      <g
         id="use1916"
         transform="translate(230.5605,601.94598)">
        <path
           d="m 0.703125,0 h 1.65625 v -0.09375 c -0.453125,0 -0.5625,-0.0625 -0.5625,-0.34375 V -4.046875 L 1.75,-4.0625 0.671875,-3.515625 v 0.09375 C 1,-3.5625 1,-3.5625 1.078125,-3.5625 c 0.203125,0 0.203125,0.15625 0.203125,0.28125 v 2.71875 c 0,0.453125 -0.21875,0.453125 -0.578125,0.46875 z m 0,0"
           id="path6" />
      </g>
    </g>
    <g
       fill="#231f20"
       fill-opacity="1"
       id="g1917"
       transform="matrix(0.35277777,0,0,0.35277777,2.2227777,-72.693943)">
      <g
         id="use1917"
         transform="translate(245.38651,660.21503)">
        <path
           d="m -0.0625,0 h 2.25 c 1.03125,0 2.125,-0.5 2.125,-1.59375 0,-0.78125 -0.5625,-1.015625 -0.984375,-1.203125 V -2.8125 c 0.75,-0.15625 1.375,-0.5 1.375,-1.21875 0,-0.921875 -0.765625,-1.1875 -1.59375,-1.1875 h -2.0625 v 0.125 c 0.375,0.015625 0.609375,0.046875 0.609375,0.34375 0,0.140625 -0.046875,0.3125 -0.09375,0.5 l -0.984375,3.53125 c -0.125,0.5 -0.25,0.515625 -0.640625,0.59375 z M 1.375,-0.59375 c 0,-0.15625 0.40625,-1.546875 0.53125,-2.046875 0.546875,0 0.90625,0.015625 1.109375,0.140625 0.234375,0.140625 0.4375,0.421875 0.4375,0.84375 0,0.78125 -0.46875,1.421875 -1.59375,1.421875 C 1.625,-0.234375 1.375,-0.296875 1.375,-0.59375 Z M 2.5,-4.765625 C 2.53125,-4.875 2.5625,-4.984375 3,-4.984375 c 0.59375,0 0.890625,0.28125 0.890625,0.828125 0,1.25 -1.140625,1.28125 -1.90625,1.25 z m 0,0"
           id="path9" />
      </g>
    </g>
    <g
       fill="#231f20"
       fill-opacity="1"
       id="g1918"
       transform="matrix(0.35277777,0,0,0.35277777,2.2227777,-72.693943)">
      <g
         id="use1918"
         transform="translate(250.27451,662.21503)">
        <path
           d="m 1.09375,-3.5 h 1.171875 c 0.0625,0 0.109375,0 0.140625,-0.046875 L 2.625,-4.09375 2.578125,-4.125 c -0.0625,0.09375 -0.125,0.15625 -0.28125,0.15625 h -1.25 l -0.65625,1.421875 c -0.015625,0.03125 0,0.078125 0.03125,0.078125 0.65625,0.015625 1.71875,0.296875 1.71875,1.265625 0,0.734375 -0.453125,1.0625 -0.84375,1.0625 -0.3125,0 -0.484375,-0.375 -0.859375,-0.375 -0.25,0 -0.25,0.171875 -0.25,0.234375 0,0.21875 0.28125,0.359375 0.765625,0.359375 0.9375,0 1.609375,-0.625 1.609375,-1.421875 C 2.5625,-1.890625 2.484375,-2.0625 2.234375,-2.375 1.875,-2.796875 1.3125,-2.90625 0.828125,-2.984375 Z m 0,0"
           id="path5" />
      </g>
    </g>
    <g
       fill="#231f20"
       fill-opacity="1"
       id="g1919"
       transform="matrix(0.35277777,0,0,0.35277777,2.2227777,-72.693943)">
      <g
         id="use1919"
         transform="translate(308.39249,667.81927)">
        <path
           d="m -0.0625,0 h 2.25 c 1.03125,0 2.125,-0.5 2.125,-1.59375 0,-0.78125 -0.5625,-1.015625 -0.984375,-1.203125 V -2.8125 c 0.75,-0.15625 1.375,-0.5 1.375,-1.21875 0,-0.921875 -0.765625,-1.1875 -1.59375,-1.1875 h -2.0625 v 0.125 c 0.375,0.015625 0.609375,0.046875 0.609375,0.34375 0,0.140625 -0.046875,0.3125 -0.09375,0.5 l -0.984375,3.53125 c -0.125,0.5 -0.25,0.515625 -0.640625,0.59375 z M 1.375,-0.59375 c 0,-0.15625 0.40625,-1.546875 0.53125,-2.046875 0.546875,0 0.90625,0.015625 1.109375,0.140625 0.234375,0.140625 0.4375,0.421875 0.4375,0.84375 0,0.78125 -0.46875,1.421875 -1.59375,1.421875 C 1.625,-0.234375 1.375,-0.296875 1.375,-0.59375 Z M 2.5,-4.765625 C 2.53125,-4.875 2.5625,-4.984375 3,-4.984375 c 0.59375,0 0.890625,0.28125 0.890625,0.828125 0,1.25 -1.140625,1.28125 -1.90625,1.25 z m 0,0"
           id="path10" />
      </g>
    </g>
    <g
       fill="#231f20"
       fill-opacity="1"
       id="g1920"
       transform="matrix(0.35277777,0,0,0.35277777,2.2227777,-72.693943)">
      <g
         id="use1920"
         transform="translate(313.28049,669.8194)">
        <path
           d="M 2.828125,-1.390625 H 2.21875 V -4.0625 H 1.953125 l -1.875,2.671875 V -1 h 1.6875 V 0 H 2.21875 v -1 h 0.609375 z m -1.078125,0 H 0.3125 l 1.421875,-2.03125 H 1.75 Z m 0,0"
           id="path4" />
      </g>
    </g>
    <g
       fill="#231f20"
       fill-opacity="1"
       id="g1921"
       transform="matrix(0.35277777,0,0,0.35277777,2.2227777,-72.693943)">
      <g
         id="use1921"
         transform="translate(353.87549,660.21503)">
        <path
           d="m -0.0625,0 h 2.25 c 1.03125,0 2.125,-0.5 2.125,-1.59375 0,-0.78125 -0.5625,-1.015625 -0.984375,-1.203125 V -2.8125 c 0.75,-0.15625 1.375,-0.5 1.375,-1.21875 0,-0.921875 -0.765625,-1.1875 -1.59375,-1.1875 h -2.0625 v 0.125 c 0.375,0.015625 0.609375,0.046875 0.609375,0.34375 0,0.140625 -0.046875,0.3125 -0.09375,0.5 l -0.984375,3.53125 c -0.125,0.5 -0.25,0.515625 -0.640625,0.59375 z M 1.375,-0.59375 c 0,-0.15625 0.40625,-1.546875 0.53125,-2.046875 0.546875,0 0.90625,0.015625 1.109375,0.140625 0.234375,0.140625 0.4375,0.421875 0.4375,0.84375 0,0.78125 -0.46875,1.421875 -1.59375,1.421875 C 1.625,-0.234375 1.375,-0.296875 1.375,-0.59375 Z M 2.5,-4.765625 C 2.53125,-4.875 2.5625,-4.984375 3,-4.984375 c 0.59375,0 0.890625,0.28125 0.890625,0.828125 0,1.25 -1.140625,1.28125 -1.90625,1.25 z m 0,0"
           id="path11" />
      </g>
    </g>
    <g
       fill="#231f20"
       fill-opacity="1"
       id="g1922"
       transform="matrix(0.35277777,0,0,0.35277777,2.2227777,-72.693943)">
      <g
         id="use1922"
         transform="translate(358.76349,662.21503)">
        <path
           d="m 0.921875,-1.984375 c 0.40625,0 0.5625,0.015625 0.78125,0.140625 0.375,0.1875 0.453125,0.640625 0.453125,0.78125 0,0.453125 -0.25,0.9375 -0.8125,0.9375 -0.34375,0 -0.578125,-0.34375 -0.859375,-0.34375 -0.09375,0 -0.21875,0.046875 -0.21875,0.203125 0,0.3125 0.515625,0.34375 0.65625,0.34375 0.9375,0 1.671875,-0.515625 1.671875,-1.375 0,-0.796875 -0.515625,-1 -0.765625,-1.109375 C 2.21875,-2.65625 2.375,-2.921875 2.375,-3.25 c 0,-0.234375 -0.15625,-0.8125 -0.921875,-0.8125 -0.40625,0 -0.9375,0.1875 -1.1875,0.984375 l 0.09375,0.015625 c 0.09375,-0.171875 0.34375,-0.640625 0.890625,-0.640625 0.4375,0 0.65625,0.328125 0.65625,0.625 0,0.5625 -0.453125,0.84375 -1,1.015625 z m 0,0"
           id="path3" />
      </g>
    </g>
    <g
       fill="#231f20"
       fill-opacity="1"
       id="g1923"
       transform="matrix(0.35277777,0,0,0.35277777,2.2227777,-72.693943)">
      <g
         id="use1923"
         transform="translate(353.8165,593.46802)">
        <path
           d="m -0.0625,0 h 2.25 c 1.03125,0 2.125,-0.5 2.125,-1.59375 0,-0.78125 -0.5625,-1.015625 -0.984375,-1.203125 V -2.8125 c 0.75,-0.15625 1.375,-0.5 1.375,-1.21875 0,-0.921875 -0.765625,-1.1875 -1.59375,-1.1875 h -2.0625 v 0.125 c 0.375,0.015625 0.609375,0.046875 0.609375,0.34375 0,0.140625 -0.046875,0.3125 -0.09375,0.5 l -0.984375,3.53125 c -0.125,0.5 -0.25,0.515625 -0.640625,0.59375 z M 1.375,-0.59375 c 0,-0.15625 0.40625,-1.546875 0.53125,-2.046875 0.546875,0 0.90625,0.015625 1.109375,0.140625 0.234375,0.140625 0.4375,0.421875 0.4375,0.84375 0,0.78125 -0.46875,1.421875 -1.59375,1.421875 C 1.625,-0.234375 1.375,-0.296875 1.375,-0.59375 Z M 2.5,-4.765625 C 2.53125,-4.875 2.5625,-4.984375 3,-4.984375 c 0.59375,0 0.890625,0.28125 0.890625,0.828125 0,1.25 -1.140625,1.28125 -1.90625,1.25 z m 0,0"
           id="path12" />
      </g>
    </g>
    <g
       fill="#231f20"
       fill-opacity="1"
       id="g1924"
       transform="matrix(0.35277777,0,0,0.35277777,2.2227777,-72.693943)">
      <g
         id="use1924"
         transform="translate(358.7045,595.46802)">
        <path
           d="m 2.84375,-0.828125 -0.078125,-0.03125 c -0.234375,0.390625 -0.34375,0.40625 -0.5625,0.40625 h -1.4375 l 1.015625,-1.0625 C 2.046875,-1.796875 2.546875,-2.34375 2.546875,-2.96875 2.546875,-3.640625 2,-4.0625 1.453125,-4.0625 c -0.515625,0 -1.09375,0.296875 -1.265625,1.203125 l 0.125,0.03125 c 0.125,-0.328125 0.3125,-0.78125 0.859375,-0.78125 0.703125,0 0.859375,0.546875 0.859375,0.859375 0,0.453125 -0.265625,0.984375 -0.78125,1.546875 l -1.0625,1.125 V 0 h 2.328125 z m 0,0"
           id="path1" />
      </g>
    </g>
    <g
       fill="#231f20"
       fill-opacity="1"
       id="g1925"
       transform="matrix(0.35277777,0,0,0.35277777,2.2227777,-72.693943)">
      <g
         id="use1925"
         transform="translate(198.3255,580.98199)">
        <path
           d="M 3.75,-3.75 4.0625,-5.328125 H 3.875 C 3.78125,-5.1875 3.71875,-5.125 3.53125,-5.125 3.375,-5.125 3.265625,-5.171875 3.125,-5.234375 2.96875,-5.28125 2.78125,-5.328125 2.421875,-5.328125 c -0.734375,0 -1.375,0.53125 -1.375,1.3125 0,0.515625 0.046875,0.609375 1.140625,1.78125 0.265625,0.28125 0.5625,0.53125 0.5625,1.046875 0,0.390625 -0.28125,1.046875 -1.03125,1.046875 -0.71875,0 -1.171875,-0.625 -1.171875,-1.34375 0,-0.0625 0.015625,-0.09375 0.015625,-0.15625 L 0.40625,-1.65625 0.140625,0.125 H 0.28125 C 0.3125,0.015625 0.375,-0.140625 0.59375,-0.140625 c 0.265625,0 0.671875,0.28125 1.234375,0.28125 1.0625,0 1.625,-0.828125 1.625,-1.578125 0,-0.53125 -0.171875,-0.84375 -0.90625,-1.578125 -0.703125,-0.6875 -0.796875,-0.875 -0.796875,-1.25 0,-0.53125 0.40625,-0.796875 0.84375,-0.796875 0.96875,0 1,0.84375 1,1.296875 z m 0,0"
           id="path7" />
      </g>
    </g>
    <path
       fill="none"
       stroke-width="0.352778"
       stroke-linecap="butt"
       stroke-linejoin="miter"
       stroke="#000000"
       stroke-opacity="1"
       stroke-miterlimit="4"
       d="m 118.90815,167.04198 v -25.28011 m -13.21952,25.28011 v -25.28011 m 32.26263,-0.0234 H 96.118159 m -21.591102,15.55392 37.246993,-26.90757"
       id="path1925" />
  </g>
</svg>
