<?xml version="1.0" encoding="UTF-8" standalone="no"?>
<!-- Created with Inkscape (http://www.inkscape.org/) -->

<svg
   width="33.588585mm"
   height="31.259624mm"
   viewBox="0 0 33.588585 31.259624"
   version="1.1"
   id="svg1"
   inkscape:version="1.3.2 (091e20e, 2023-11-25)"
   sodipodi:docname="fig-3-18.svg"
   xmlns:inkscape="http://www.inkscape.org/namespaces/inkscape"
   xmlns:sodipodi="http://sodipodi.sourceforge.net/DTD/sodipodi-0.dtd"
   xmlns="http://www.w3.org/2000/svg"
   xmlns:svg="http://www.w3.org/2000/svg">
  <sodipodi:namedview
     id="namedview1"
     pagecolor="#ffffff"
     bordercolor="#000000"
     borderopacity="0.25"
     inkscape:showpageshadow="2"
     inkscape:pageopacity="0.0"
     inkscape:pagecheckerboard="0"
     inkscape:deskcolor="#d1d1d1"
     inkscape:document-units="mm"
     inkscape:zoom="0.2102413"
     inkscape:cx="64.211931"
     inkscape:cy="57.077272"
     inkscape:window-width="1312"
     inkscape:window-height="449"
     inkscape:window-x="0"
     inkscape:window-y="38"
     inkscape:window-maximized="0"
     inkscape:current-layer="layer1" />
  <defs
     id="defs1" />
  <g
     inkscape:label="Layer 1"
     inkscape:groupmode="layer"
     id="layer1"
     transform="translate(-88.239585,-132.81372)">
    <path
       fill="none"
       stroke-width="0.176389"
       stroke-linecap="butt"
       stroke-linejoin="miter"
       stroke="#231f20"
       stroke-opacity="1"
       stroke-miterlimit="4"
       d="m 109.48375,160.69579 v -2.11667"
       id="path343" />
    <path
       fill="none"
       stroke-width="0.176389"
       stroke-linecap="butt"
       stroke-linejoin="miter"
       stroke="#231f20"
       stroke-opacity="1"
       stroke-dasharray="4.2, 2.3"
       stroke-miterlimit="4"
       d="M 109.48375,158.17673 V 145.08262"
       id="path344" />
    <path
       fill="none"
       stroke-width="0.176389"
       stroke-linecap="butt"
       stroke-linejoin="miter"
       stroke="#231f20"
       stroke-opacity="1"
       stroke-miterlimit="4"
       d="M 90.752083,159.63745 H 120.0726 m -25.107855,4.4359 v -29.49828"
       id="path345" />
    <path
       fill-rule="nonzero"
       fill="#231f20"
       fill-opacity="1"
       d="m 120.07398,159.63746 -0.38723,-0.63528 0.022,-0.0152 1.03628,0.41203 c 0.36105,0.0799 0.72209,0.15847 1.08314,0.2384 -0.36105,0.0786 -0.72209,0.15847 -1.08314,0.2384 l -1.03628,0.41066 -0.022,-0.01 0.38723,-0.63941"
       id="path346"
       style="stroke-width:0.352778" />
    <g
       fill="#231f20"
       fill-opacity="1"
       id="g346"
       transform="matrix(0.35277777,0,0,0.35277777,18.37614,19.406913)">
      <g
         id="use346"
         transform="translate(288.306,405.50299)">
        <path
           d="m 3.21875,-0.890625 c -0.21875,0.25 -0.375,0.53125 -0.546875,0.53125 -0.15625,0 -0.21875,-0.1875 -0.25,-0.328125 -0.046875,-0.1875 -0.3125,-1.28125 -0.3125,-1.421875 0,0 0.53125,-0.96875 0.765625,-0.96875 0.1875,0 0.234375,0.140625 0.421875,0.140625 0.203125,0 0.28125,-0.15625 0.28125,-0.296875 0,-0.203125 -0.171875,-0.296875 -0.328125,-0.296875 -0.421875,0 -0.796875,0.484375 -1.203125,1.140625 l -0.09375,-0.4375 C 1.8125,-3.53125 1.6875,-3.53125 1.515625,-3.53125 c -0.265625,0 -0.78125,0.1875 -1,0.265625 l 0.03125,0.125 c 0.25,-0.0625 0.359375,-0.09375 0.4375,-0.09375 0.21875,0 0.25,0.109375 0.3125,0.359375 0.015625,0.046875 0.28125,1.109375 0.28125,1.171875 -0.71875,1.0625 -0.921875,1.328125 -1.0625,1.328125 -0.140625,0 -0.28125,-0.15625 -0.453125,-0.15625 -0.1875,0 -0.28125,0.140625 -0.28125,0.28125 0,0.1875 0.125,0.34375 0.390625,0.34375 0.25,0 0.34375,-0.09375 0.484375,-0.25 0.265625,-0.296875 0.609375,-0.71875 0.984375,-1.25 l 0.25,0.953125 c 0.09375,0.421875 0.21875,0.546875 0.453125,0.546875 0.1875,0 0.421875,0 0.984375,-0.921875 z m 0,0"
           id="path5" />
      </g>
    </g>
    <path
       fill-rule="nonzero"
       fill="#231f20"
       fill-opacity="1"
       d="m 94.964744,134.57508 -0.635275,0.38585 -0.01379,-0.0207 0.410655,-1.03628 c 0.07992,-0.36104 0.158475,-0.72209 0.2384,-1.08314 0.07993,0.36105 0.158475,0.7221 0.2384,1.08314 l 0.412034,1.03628 -0.01101,0.0207 -0.639409,-0.38585"
       id="path347"
       style="stroke-width:0.352778" />
    <path
       fill="none"
       stroke-width="0.264583"
       stroke-linecap="butt"
       stroke-linejoin="miter"
       stroke="#231f20"
       stroke-opacity="1"
       stroke-miterlimit="3.239"
       d="m 94.985416,159.63607 h 0.04685 c 6.172234,-0.10473 10.747324,-7.77627 13.264994,-12.26178 l 1.19339,-2.31924"
       id="path348" />
    <g
       fill="#231f20"
       fill-opacity="1"
       id="g348"
       transform="matrix(0.35277777,0,0,0.35277777,18.37614,19.406913)">
      <g
         id="use348"
         transform="translate(256.509,407.74899)">
        <path
           d="m 0.828125,0 h 1.9375 v -0.109375 c -0.53125,0 -0.671875,-0.078125 -0.671875,-0.40625 V -4.71875 l -0.0625,-0.015625 -1.25,0.640625 V -4 C 1.171875,-4.15625 1.171875,-4.15625 1.25,-4.15625 c 0.234375,0 0.234375,0.1875 0.234375,0.328125 v 3.171875 c 0,0.515625 -0.25,0.53125 -0.65625,0.546875 z m 0,0"
           id="path6" />
      </g>
    </g>
    <g
       fill="#231f20"
       fill-opacity="1"
       id="g349"
       transform="matrix(0.35277777,0,0,0.35277777,18.37614,19.406913)">
      <g
         id="use349"
         transform="translate(210.94598,405.06799)">
        <path
           d="m 1.75,-4.546875 c 0.890625,0 0.90625,1.75 0.90625,2.234375 0,0.546875 -0.015625,2.234375 -0.90625,2.234375 -0.890625,0 -0.90625,-1.671875 -0.90625,-2.234375 0,-0.484375 0.015625,-2.234375 0.90625,-2.234375 z m 0,-0.1875 c -1.28125,0 -1.578125,1.59375 -1.578125,2.421875 0,0.84375 0.296875,2.40625 1.578125,2.40625 1.28125,0 1.578125,-1.5625 1.578125,-2.40625 0,-0.828125 -0.296875,-2.421875 -1.578125,-2.421875 z m 0,0"
           id="path8" />
      </g>
    </g>
    <g
       fill="#231f20"
       fill-opacity="1"
       id="g350"
       transform="matrix(0.35277777,0,0,0.35277777,18.37614,19.406913)">
      <g
         id="use350"
         transform="translate(199.20999,326.89001)">
        <path
           d="M 0.28125,-3.171875 H 1 L 0.296875,0.1875 c -0.0625,0.328125 -0.265625,1.296875 -0.78125,1.296875 -0.09375,0 -0.15625,-0.0625 -0.15625,-0.125 0,-0.09375 0.078125,-0.09375 0.078125,-0.21875 0,-0.203125 -0.21875,-0.3125 -0.328125,-0.296875 -0.28125,0.015625 -0.28125,0.3125 -0.28125,0.34375 0.046875,0.359375 0.375,0.46875 0.625,0.46875 0.9375,0 1.375,-1.28125 1.609375,-2.265625 l 0.5625,-2.5625 H 2.5 l 0.046875,-0.25 H 1.6875 C 1.765625,-3.828125 2,-5.25 2.65625,-5.25 c 0.109375,0 0.1875,0.03125 0.1875,0.09375 0,0.09375 -0.078125,0.09375 -0.078125,0.265625 0,0.09375 0.046875,0.3125 0.296875,0.3125 0.1875,0 0.328125,-0.171875 0.328125,-0.328125 0,-0.15625 -0.125,-0.515625 -0.703125,-0.515625 -1,0 -1.40625,1.3125 -1.609375,2 H 0.34375 Z m 0,0"
           id="path7" />
      </g>
    </g>
    <g
       fill="#231f20"
       fill-opacity="1"
       id="g351"
       transform="matrix(0.35277777,0,0,0.35277777,18.37614,19.406913)">
      <g
         id="use351"
         transform="translate(201.43399,328.89001)">
        <path
           d="m 2.84375,-0.828125 -0.078125,-0.03125 c -0.234375,0.390625 -0.34375,0.40625 -0.5625,0.40625 h -1.4375 l 1.015625,-1.0625 C 2.046875,-1.796875 2.546875,-2.34375 2.546875,-2.96875 2.546875,-3.640625 2,-4.0625 1.453125,-4.0625 c -0.515625,0 -1.09375,0.296875 -1.265625,1.203125 l 0.125,0.03125 c 0.125,-0.328125 0.3125,-0.78125 0.859375,-0.78125 0.703125,0 0.859375,0.546875 0.859375,0.859375 0,0.453125 -0.265625,0.984375 -0.78125,1.546875 l -1.0625,1.125 V 0 h 2.328125 z m 0,0"
           id="path1" />
      </g>
    </g>
    <g
       fill="#231f20"
       fill-opacity="1"
       id="g352"
       transform="matrix(0.35277777,0,0,0.35277777,18.37614,19.406913)">
      <g
         id="use352"
         transform="translate(204.43399,326.89001)">
        <path
           d="m 2.359375,-5.40625 c -1.234375,0.734375 -1.96875,1.9375 -1.96875,3.3125 0,1.109375 0.25,1.671875 0.65625,2.25 C 1.34375,0.609375 1.875,1.171875 2.34375,1.421875 L 2.4375,1.28125 c -1.359375,-0.859375 -1.359375,-2.625 -1.359375,-3.4375 0,-2.03125 0.765625,-2.65625 1.359375,-3.125 z m 0,0"
           id="path9" />
      </g>
    </g>
    <g
       fill="#231f20"
       fill-opacity="1"
       id="g353"
       transform="matrix(0.35277777,0,0,0.35277777,18.37614,19.406913)">
      <g
         id="use353"
         transform="translate(207.69798,326.89001)">
        <path
           d="m 0.125,-3.203125 c 0.09375,-0.015625 0.140625,-0.03125 0.265625,-0.03125 0.453125,0 0.5625,0.34375 0.78125,1.078125 0.125,0.421875 0.46875,1.828125 0.46875,2.125 0,0.21875 -0.34375,0.609375 -0.53125,0.84375 -0.28125,0.328125 -0.375,0.390625 -0.515625,0.390625 -0.140625,0 -0.234375,-0.21875 -0.484375,-0.21875 -0.171875,0 -0.296875,0.140625 -0.296875,0.296875 0,0.34375 0.34375,0.359375 0.40625,0.359375 0.953125,0 3.1875,-3.71875 3.1875,-4.671875 0,-0.28125 -0.15625,-0.5 -0.453125,-0.5 -0.203125,0 -0.296875,0.171875 -0.296875,0.28125 0,0.375 0.4375,0.28125 0.4375,0.609375 0,0.421875 -0.640625,1.5 -0.984375,2.0625 L 1.953125,-1.5 C 1.84375,-2.109375 1.375,-3.53125 1.265625,-3.53125 1.125,-3.53125 0.5,-3.40625 0.125,-3.34375 Z m 0,0"
           id="path4" />
      </g>
    </g>
    <g
       fill="#231f20"
       fill-opacity="1"
       id="g354"
       transform="matrix(0.35277777,0,0,0.35277777,18.37614,19.406913)">
      <g
         id="use354"
         transform="translate(211.24998,326.89001)">
        <path
           d="m 0.296875,1.421875 c 1.25,-0.734375 1.984375,-1.9375 1.984375,-3.3125 0,-1.109375 -0.265625,-1.6875 -0.65625,-2.265625 -0.3125,-0.4375 -0.828125,-1 -1.296875,-1.25 l -0.09375,0.125 c 1.359375,0.875 1.359375,2.625 1.359375,3.4375 0,2.03125 -0.765625,2.65625 -1.359375,3.125 z m 0,0"
           id="path3" />
      </g>
    </g>
  </g>
</svg>
