<?xml version="1.0" encoding="UTF-8" standalone="no"?>
<!-- Created with Inkscape (http://www.inkscape.org/) -->

<svg
   width="101.57101mm"
   height="54.673756mm"
   viewBox="0 0 101.57101 54.673756"
   version="1.1"
   id="svg1"
   inkscape:version="1.3.2 (091e20e, 2023-11-25)"
   sodipodi:docname="fig-3-9.svg"
   xmlns:inkscape="http://www.inkscape.org/namespaces/inkscape"
   xmlns:sodipodi="http://sodipodi.sourceforge.net/DTD/sodipodi-0.dtd"
   xmlns="http://www.w3.org/2000/svg"
   xmlns:svg="http://www.w3.org/2000/svg">
  <sodipodi:namedview
     id="namedview1"
     pagecolor="#ffffff"
     bordercolor="#000000"
     borderopacity="0.25"
     inkscape:showpageshadow="2"
     inkscape:pageopacity="0.0"
     inkscape:pagecheckerboard="0"
     inkscape:deskcolor="#d1d1d1"
     inkscape:document-units="mm"
     inkscape:zoom="0.2102413"
     inkscape:cx="192.63579"
     inkscape:cy="104.64167"
     inkscape:window-width="1312"
     inkscape:window-height="449"
     inkscape:window-x="0"
     inkscape:window-y="38"
     inkscape:window-maximized="0"
     inkscape:current-layer="layer1" />
  <defs
     id="defs1" />
  <g
     inkscape:label="Layer 1"
     inkscape:groupmode="layer"
     id="layer1"
     transform="translate(-54.239583,-121.17082)">
    <path
       fill="none"
       stroke-width="0.176389"
       stroke-linecap="butt"
       stroke-linejoin="miter"
       stroke="#231f20"
       stroke-opacity="1"
       stroke-miterlimit="4"
       d="m 81.819639,132.14422 h 2.116667 m 48.116964,40.51294 v -2.11666"
       id="path1326" />
    <g
       fill="#231f20"
       fill-opacity="1"
       id="g1327"
       transform="matrix(0.35277777,0,0,0.35277777,28.346246,-57.158263)">
      <g
         id="use1327"
         transform="translate(146.161,538.86102)">
        <path
           d="m 0.828125,0 h 1.9375 v -0.109375 c -0.53125,0 -0.671875,-0.078125 -0.671875,-0.40625 V -4.71875 l -0.0625,-0.015625 -1.25,0.640625 V -4 C 1.171875,-4.15625 1.171875,-4.15625 1.25,-4.15625 c 0.234375,0 0.234375,0.1875 0.234375,0.328125 v 3.171875 c 0,0.515625 -0.25,0.53125 -0.65625,0.546875 z m 0,0"
           id="path25" />
      </g>
    </g>
    <g
       fill="#231f20"
       fill-opacity="1"
       id="g1330"
       transform="matrix(0.35277777,0,0,0.35277777,28.346246,-57.158263)">
      <g
         id="use1328"
         transform="translate(140.911,561.23999)">
        <path
           d="m 1.75,-4.546875 c 0.890625,0 0.90625,1.75 0.90625,2.234375 0,0.546875 -0.015625,2.234375 -0.90625,2.234375 -0.890625,0 -0.90625,-1.671875 -0.90625,-2.234375 0,-0.484375 0.015625,-2.234375 0.90625,-2.234375 z m 0,-0.1875 c -1.28125,0 -1.578125,1.59375 -1.578125,2.421875 0,0.84375 0.296875,2.40625 1.578125,2.40625 1.28125,0 1.578125,-1.5625 1.578125,-2.40625 0,-0.828125 -0.296875,-2.421875 -1.578125,-2.421875 z m 0,0"
           id="path20" />
      </g>
      <g
         id="use1329"
         transform="translate(144.411,561.23999)">
        <path
           d="m 0.875,0.078125 c 0.140625,0 0.390625,-0.125 0.390625,-0.375 0,-0.21875 -0.1875,-0.40625 -0.390625,-0.40625 -0.203125,0 -0.390625,0.171875 -0.390625,0.40625 0,0.265625 0.25,0.375 0.390625,0.375 z m 0,0"
           id="path16" />
      </g>
      <g
         id="use1330"
         transform="translate(146.161,561.23999)">
        <path
           d="m 1.484375,-2.1875 c 0.796875,0.578125 1.09375,0.78125 1.09375,1.3125 0,0.484375 -0.328125,0.78125 -0.765625,0.78125 -0.5625,0 -0.890625,-0.453125 -0.890625,-1 0,-0.640625 0.34375,-0.90625 0.5625,-1.09375 z m -1.09375,1.171875 c 0,0.546875 0.46875,1.109375 1.328125,1.109375 1.171875,0 1.390625,-0.78125 1.390625,-1.140625 0,-0.46875 -0.140625,-0.875 -1.078125,-1.546875 0.375,-0.203125 0.9375,-0.5 0.9375,-1.140625 0,-0.53125 -0.4375,-1 -1.21875,-1 -0.609375,0 -1.3125,0.375 -1.3125,1.09375 0,0.5625 0.28125,0.796875 0.859375,1.3125 -0.625,0.484375 -0.90625,0.703125 -0.90625,1.3125 z m 0.5625,-2.8125 c 0,-0.34375 0.21875,-0.703125 0.75,-0.703125 0.53125,0 0.78125,0.375 0.78125,0.765625 0,0.609375 -0.390625,0.875 -0.65625,1.046875 -0.25,-0.171875 -0.875,-0.5625 -0.875,-1.109375 z m 0,0"
           id="path15" />
      </g>
    </g>
    <g
       fill="#231f20"
       fill-opacity="1"
       id="g1333"
       transform="matrix(0.35277777,0,0,0.35277777,28.346246,-57.158263)">
      <g
         id="use1331"
         transform="translate(140.911,583.61902)">
        <path
           d="m 1.75,-4.546875 c 0.890625,0 0.90625,1.75 0.90625,2.234375 0,0.546875 -0.015625,2.234375 -0.90625,2.234375 -0.890625,0 -0.90625,-1.671875 -0.90625,-2.234375 0,-0.484375 0.015625,-2.234375 0.90625,-2.234375 z m 0,-0.1875 c -1.28125,0 -1.578125,1.59375 -1.578125,2.421875 0,0.84375 0.296875,2.40625 1.578125,2.40625 1.28125,0 1.578125,-1.5625 1.578125,-2.40625 0,-0.828125 -0.296875,-2.421875 -1.578125,-2.421875 z m 0,0"
           id="path21" />
      </g>
      <g
         id="use1332"
         transform="translate(144.411,583.61902)">
        <path
           d="m 0.875,0.078125 c 0.140625,0 0.390625,-0.125 0.390625,-0.375 0,-0.21875 -0.1875,-0.40625 -0.390625,-0.40625 -0.203125,0 -0.390625,0.171875 -0.390625,0.40625 0,0.265625 0.25,0.375 0.390625,0.375 z m 0,0"
           id="path17" />
      </g>
      <g
         id="use1333"
         transform="translate(146.161,583.61902)">
        <path
           d="m 3.125,-4.78125 c -1.703125,0.046875 -2.890625,1.328125 -2.890625,2.75 0,1.46875 0.71875,2.125 1.546875,2.125 1.25,0 1.5,-1.109375 1.5,-1.625 C 3.28125,-2.46875 2.734375,-3 1.984375,-3 1.59375,-3 1.453125,-2.90625 1.0625,-2.6875 1.203125,-3.53125 1.890625,-4.484375 3.140625,-4.671875 Z m -1.4375,2.109375 c 0.75,0 0.953125,0.703125 0.953125,1.421875 0,0.78125 -0.3125,1.15625 -0.75,1.15625 -0.53125,0 -1,-0.515625 -1,-1.703125 0,-0.421875 0.0625,-0.578125 0.140625,-0.65625 0.171875,-0.171875 0.421875,-0.21875 0.65625,-0.21875 z m 0,0"
           id="path14" />
      </g>
    </g>
    <g
       fill="#231f20"
       fill-opacity="1"
       id="g1336"
       transform="matrix(0.35277777,0,0,0.35277777,28.346246,-57.158263)">
      <g
         id="use1334"
         transform="translate(140.911,605.99799)">
        <path
           d="m 1.75,-4.546875 c 0.890625,0 0.90625,1.75 0.90625,2.234375 0,0.546875 -0.015625,2.234375 -0.90625,2.234375 -0.890625,0 -0.90625,-1.671875 -0.90625,-2.234375 0,-0.484375 0.015625,-2.234375 0.90625,-2.234375 z m 0,-0.1875 c -1.28125,0 -1.578125,1.59375 -1.578125,2.421875 0,0.84375 0.296875,2.40625 1.578125,2.40625 1.28125,0 1.578125,-1.5625 1.578125,-2.40625 0,-0.828125 -0.296875,-2.421875 -1.578125,-2.421875 z m 0,0"
           id="path22" />
      </g>
      <g
         id="use1335"
         transform="translate(144.411,605.99799)">
        <path
           d="m 0.875,0.078125 c 0.140625,0 0.390625,-0.125 0.390625,-0.375 0,-0.21875 -0.1875,-0.40625 -0.390625,-0.40625 -0.203125,0 -0.390625,0.171875 -0.390625,0.40625 0,0.265625 0.25,0.375 0.390625,0.375 z m 0,0"
           id="path18" />
      </g>
      <g
         id="use1336"
         transform="translate(146.161,605.99799)">
        <path
           d="M 3.296875,-1.609375 H 2.59375 v -3.125 h -0.3125 l -2.203125,3.125 v 0.4375 h 1.96875 V 0 H 2.59375 v -1.171875 h 0.703125 z m -1.25,0 h -1.6875 L 2.03125,-4 h 0.015625 z m 0,0"
           id="path12" />
      </g>
    </g>
    <g
       fill="#231f20"
       fill-opacity="1"
       id="g1337"
       transform="matrix(0.35277777,0,0,0.35277777,28.346246,-57.158263)">
      <g
         id="use1337"
         transform="translate(187.67799,658.70099)">
        <path
           d="m 0.828125,0 h 1.9375 v -0.109375 c -0.53125,0 -0.671875,-0.078125 -0.671875,-0.40625 V -4.71875 l -0.0625,-0.015625 -1.25,0.640625 V -4 C 1.171875,-4.15625 1.171875,-4.15625 1.25,-4.15625 c 0.234375,0 0.234375,0.1875 0.234375,0.328125 v 3.171875 c 0,0.515625 -0.25,0.53125 -0.65625,0.546875 z m 0,0"
           id="path26" />
      </g>
    </g>
    <g
       fill="#231f20"
       fill-opacity="1"
       id="g1338"
       transform="matrix(0.35277777,0,0,0.35277777,28.346246,-57.158263)">
      <g
         id="use1338"
         transform="translate(112.28099,658.70099)">
        <path
           d="M 4.984375,-2.09375 V -2.421875 H 0.84375 v 0.328125 z m 0,0"
           id="path7" />
      </g>
    </g>
    <g
       fill="#231f20"
       fill-opacity="1"
       id="g1339"
       transform="matrix(0.35277777,0,0,0.35277777,28.346246,-57.158263)">
      <g
         id="use1339"
         transform="translate(118.11199,658.70099)">
        <path
           d="m 0.828125,0 h 1.9375 v -0.109375 c -0.53125,0 -0.671875,-0.078125 -0.671875,-0.40625 V -4.71875 l -0.0625,-0.015625 -1.25,0.640625 V -4 C 1.171875,-4.15625 1.171875,-4.15625 1.25,-4.15625 c 0.234375,0 0.234375,0.1875 0.234375,0.328125 v 3.171875 c 0,0.515625 -0.25,0.53125 -0.65625,0.546875 z m 0,0"
           id="path27" />
      </g>
    </g>
    <g
       fill="#231f20"
       fill-opacity="1"
       id="g1343"
       transform="matrix(0.35277777,0,0,0.35277777,28.346246,-57.158263)">
      <g
         id="use1340"
         transform="translate(222.52399,658.70099)">
        <path
           d="M 3.328125,-0.953125 3.234375,-1 C 2.96875,-0.546875 2.828125,-0.53125 2.5625,-0.53125 H 0.890625 l 1.1875,-1.234375 C 2.375,-2.09375 2.96875,-2.734375 2.96875,-3.46875 c 0,-0.78125 -0.625,-1.265625 -1.265625,-1.265625 -0.625,0 -1.28125,0.34375 -1.484375,1.390625 l 0.140625,0.046875 c 0.15625,-0.390625 0.375,-0.921875 1,-0.921875 0.828125,0 1,0.65625 1,1 0,0.53125 -0.296875,1.15625 -0.90625,1.8125 l -1.25,1.328125 V 0 H 2.9375 Z m 0,0"
           id="path10" />
      </g>
      <g
         id="use1341"
         transform="translate(257.3728,658.70099)">
        <path
           d="m 1.078125,-2.3125 c 0.46875,-0.015625 0.65625,0.03125 0.90625,0.15625 0.4375,0.234375 0.53125,0.75 0.53125,0.921875 0,0.53125 -0.296875,1.078125 -0.9375,1.078125 -0.421875,0 -0.6875,-0.390625 -1,-0.390625 -0.109375,0 -0.28125,0.046875 -0.28125,0.25 0,0.359375 0.609375,0.390625 0.78125,0.390625 1.09375,0 1.9375,-0.609375 1.9375,-1.609375 0,-0.921875 -0.59375,-1.171875 -0.890625,-1.296875 0.46875,-0.296875 0.65625,-0.59375 0.65625,-0.96875 0,-0.296875 -0.1875,-0.953125 -1.09375,-0.953125 -0.46875,0 -1.09375,0.21875 -1.375,1.140625 l 0.109375,0.03125 c 0.109375,-0.203125 0.390625,-0.75 1.03125,-0.75 0.515625,0 0.765625,0.375 0.765625,0.734375 0,0.640625 -0.515625,0.96875 -1.15625,1.171875 z m 0,0"
           id="path9" />
      </g>
      <g
         id="use1342"
         transform="translate(292.22159,658.70099)">
        <path
           d="M 3.296875,-1.609375 H 2.59375 v -3.125 h -0.3125 l -2.203125,3.125 v 0.4375 h 1.96875 V 0 H 2.59375 v -1.171875 h 0.703125 z m -1.25,0 h -1.6875 L 2.03125,-4 h 0.015625 z m 0,0"
           id="path13" />
      </g>
      <g
         id="use1343"
         transform="translate(327.0704,658.70099)">
        <path
           d="m 1.265625,-4.078125 h 1.375 c 0.078125,0 0.140625,0 0.15625,-0.0625 L 3.0625,-4.765625 3,-4.8125 C 2.921875,-4.71875 2.859375,-4.640625 2.6875,-4.640625 H 1.21875 L 0.453125,-2.96875 c -0.015625,0.046875 0,0.078125 0.046875,0.078125 0.75,0.03125 1.984375,0.359375 1.984375,1.484375 0,0.859375 -0.515625,1.25 -0.96875,1.25 -0.375,0 -0.5625,-0.4375 -1.015625,-0.4375 -0.28125,0 -0.28125,0.203125 -0.28125,0.265625 0,0.265625 0.328125,0.421875 0.890625,0.421875 1.109375,0 1.875,-0.734375 1.875,-1.671875 0,-0.625 -0.078125,-0.828125 -0.375,-1.1875 -0.421875,-0.5 -1.078125,-0.625 -1.640625,-0.71875 z m 0,0"
           id="path8" />
      </g>
    </g>
    <g
       fill="#231f20"
       fill-opacity="1"
       id="g1346"
       transform="matrix(0.35277777,0,0,0.35277777,28.346246,-57.158263)">
      <g
         id="use1344"
         transform="translate(140.911,628.37701)">
        <path
           d="m 1.75,-4.546875 c 0.890625,0 0.90625,1.75 0.90625,2.234375 0,0.546875 -0.015625,2.234375 -0.90625,2.234375 -0.890625,0 -0.90625,-1.671875 -0.90625,-2.234375 0,-0.484375 0.015625,-2.234375 0.90625,-2.234375 z m 0,-0.1875 c -1.28125,0 -1.578125,1.59375 -1.578125,2.421875 0,0.84375 0.296875,2.40625 1.578125,2.40625 1.28125,0 1.578125,-1.5625 1.578125,-2.40625 0,-0.828125 -0.296875,-2.421875 -1.578125,-2.421875 z m 0,0"
           id="path23" />
      </g>
      <g
         id="use1345"
         transform="translate(144.411,628.37701)">
        <path
           d="m 0.875,0.078125 c 0.140625,0 0.390625,-0.125 0.390625,-0.375 0,-0.21875 -0.1875,-0.40625 -0.390625,-0.40625 -0.203125,0 -0.390625,0.171875 -0.390625,0.40625 0,0.265625 0.25,0.375 0.390625,0.375 z m 0,0"
           id="path19" />
      </g>
      <g
         id="use1346"
         transform="translate(146.161,628.37701)">
        <path
           d="M 3.328125,-0.953125 3.234375,-1 C 2.96875,-0.546875 2.828125,-0.53125 2.5625,-0.53125 H 0.890625 l 1.1875,-1.234375 C 2.375,-2.09375 2.96875,-2.734375 2.96875,-3.46875 c 0,-0.78125 -0.625,-1.265625 -1.265625,-1.265625 -0.625,0 -1.28125,0.34375 -1.484375,1.390625 l 0.140625,0.046875 c 0.15625,-0.390625 0.375,-0.921875 1,-0.921875 0.828125,0 1,0.65625 1,1 0,0.53125 -0.296875,1.15625 -0.90625,1.8125 l -1.25,1.328125 V 0 H 2.9375 Z m 0,0"
           id="path11" />
      </g>
    </g>
    <path
       fill="none"
       stroke-width="0.176389"
       stroke-linecap="butt"
       stroke-linejoin="miter"
       stroke="#231f20"
       stroke-opacity="1"
       stroke-miterlimit="4"
       d="m 81.819639,140.03624 h 2.116667"
       id="path1346" />
    <path
       fill="none"
       stroke-width="0.176389"
       stroke-linecap="butt"
       stroke-linejoin="miter"
       stroke="#231f20"
       stroke-opacity="1"
       stroke-dasharray="4, 2"
       stroke-miterlimit="4"
       d="m 84.816872,132.14422 h 59.487148 m -59.487148,7.87273 h 47.233638"
       id="path1347" />
    <path
       fill="none"
       stroke-width="0.176389"
       stroke-linecap="butt"
       stroke-linejoin="miter"
       stroke="#231f20"
       stroke-opacity="1"
       stroke-miterlimit="4"
       d="m 81.819639,147.92688 h 2.116667"
       id="path1348" />
    <path
       fill="none"
       stroke-width="0.176389"
       stroke-linecap="butt"
       stroke-linejoin="miter"
       stroke="#231f20"
       stroke-opacity="1"
       stroke-dasharray="4, 2"
       stroke-miterlimit="4"
       d="M 84.816872,147.92689 H 119.75841"
       id="path1349" />
    <path
       fill="none"
       stroke-width="0.176389"
       stroke-linecap="butt"
       stroke-linejoin="miter"
       stroke="#231f20"
       stroke-opacity="1"
       stroke-miterlimit="4"
       d="m 81.819639,155.81754 h 2.116667 m -2.116667,7.89064 h 2.116667"
       id="path1350" />
    <path
       fill="none"
       stroke-width="0.176389"
       stroke-linecap="butt"
       stroke-linejoin="miter"
       stroke="#231f20"
       stroke-opacity="1"
       stroke-dasharray="4, 2"
       stroke-miterlimit="4"
       d="M 84.816872,155.81754 H 113.88245"
       id="path1351" />
    <path
       fill="none"
       stroke-width="0.176389"
       stroke-linecap="butt"
       stroke-linejoin="miter"
       stroke="#231f20"
       stroke-opacity="1"
       stroke-miterlimit="4"
       d="m 107.46493,172.65716 v -2.11667 m 12.29347,2.11667 v -2.11667 m -24.586953,2.11667 v -2.11667 m -24.588336,2.11667 v -2.11667 m 0.04961,1.05833 H 154.0564"
       id="path1352" />
    <g
       fill="#231f20"
       fill-opacity="1"
       id="g1352"
       transform="matrix(0.35277777,0,0,0.35277777,28.346246,-57.158263)">
      <g
         id="use1352"
         transform="translate(148.536,656.36102)">
        <path
           d="m 1.75,-4.546875 c 0.890625,0 0.90625,1.75 0.90625,2.234375 0,0.546875 -0.015625,2.234375 -0.90625,2.234375 -0.890625,0 -0.90625,-1.671875 -0.90625,-2.234375 0,-0.484375 0.015625,-2.234375 0.90625,-2.234375 z m 0,-0.1875 c -1.28125,0 -1.578125,1.59375 -1.578125,2.421875 0,0.84375 0.296875,2.40625 1.578125,2.40625 1.28125,0 1.578125,-1.5625 1.578125,-2.40625 0,-0.828125 -0.296875,-2.421875 -1.578125,-2.421875 z m 0,0"
           id="path24" />
      </g>
    </g>
    <path
       fill="none"
       stroke-width="0.176389"
       stroke-linecap="butt"
       stroke-linejoin="miter"
       stroke="#231f20"
       stroke-opacity="1"
       stroke-miterlimit="4"
       d="m 144.34674,172.65716 v -2.11667"
       id="path1353" />
    <path
       fill="none"
       stroke-width="0.176389"
       stroke-linecap="butt"
       stroke-linejoin="miter"
       stroke="#231f20"
       stroke-opacity="1"
       stroke-dasharray="4, 2"
       stroke-miterlimit="4"
       d="m 144.34674,169.66544 v -37.53776 m -12.29348,37.53776 v -29.64849 m -12.29485,29.64849 v -21.73855 m -12.29073,21.73855 v -9.95495"
       id="path1354" />
    <path
       fill="none"
       stroke-width="0.176389"
       stroke-linecap="butt"
       stroke-linejoin="miter"
       stroke="#231f20"
       stroke-opacity="1"
       stroke-miterlimit="4"
       d="M 82.877972,175.84457 V 122.93479"
       id="path1355" />
    <path
       fill-rule="nonzero"
       fill="#231f20"
       fill-opacity="1"
       d="m 154.0564,171.59883 -0.38723,-0.63528 0.022,-0.0138 1.03491,0.41065 c 0.36242,0.0799 0.72209,0.15986 1.08451,0.2384 -0.36242,0.0799 -0.72209,0.15986 -1.08451,0.2384 l -1.03491,0.41204 -0.022,-0.011 0.38723,-0.63941"
       id="path1356"
       style="stroke-width:0.352778" />
    <g
       fill="#231f20"
       fill-opacity="1"
       id="g1356"
       transform="matrix(0.35277777,0,0,0.35277777,28.346246,-57.158263)">
      <g
         id="use1356"
         transform="translate(356.37299,656.44598)">
        <path
           d="m 3.21875,-0.890625 c -0.21875,0.25 -0.375,0.53125 -0.546875,0.53125 -0.15625,0 -0.21875,-0.1875 -0.25,-0.328125 -0.046875,-0.1875 -0.3125,-1.28125 -0.3125,-1.421875 0,0 0.53125,-0.96875 0.765625,-0.96875 0.1875,0 0.234375,0.140625 0.421875,0.140625 0.203125,0 0.28125,-0.15625 0.28125,-0.296875 0,-0.203125 -0.171875,-0.296875 -0.328125,-0.296875 -0.421875,0 -0.796875,0.484375 -1.203125,1.140625 l -0.09375,-0.4375 C 1.8125,-3.53125 1.6875,-3.53125 1.515625,-3.53125 c -0.265625,0 -0.78125,0.1875 -1,0.265625 l 0.03125,0.125 c 0.25,-0.0625 0.359375,-0.09375 0.4375,-0.09375 0.21875,0 0.25,0.109375 0.3125,0.359375 0.015625,0.046875 0.28125,1.109375 0.28125,1.171875 -0.71875,1.0625 -0.921875,1.328125 -1.0625,1.328125 -0.140625,0 -0.28125,-0.15625 -0.453125,-0.15625 -0.1875,0 -0.28125,0.140625 -0.28125,0.28125 0,0.1875 0.125,0.34375 0.390625,0.34375 0.25,0 0.34375,-0.09375 0.484375,-0.25 0.265625,-0.296875 0.609375,-0.71875 0.984375,-1.25 l 0.25,0.953125 c 0.09375,0.421875 0.21875,0.546875 0.453125,0.546875 0.1875,0 0.421875,0 0.984375,-0.921875 z m 0,0"
           id="path5" />
      </g>
    </g>
    <path
       fill-rule="nonzero"
       fill="#231f20"
       fill-opacity="1"
       d="m 82.87797,122.93479 -0.636651,0.38585 -0.01379,-0.022 0.412034,-1.03628 c 0.07855,-0.36105 0.158475,-0.7221 0.2384,-1.08314 0.07855,0.36104 0.158475,0.72209 0.238404,1.08314 l 0.410654,1.03628 -0.01101,0.022 -0.638033,-0.38585"
       id="path1357"
       style="stroke-width:0.352778" />
    <g
       fill="#231f20"
       fill-opacity="1"
       id="g1357"
       transform="matrix(0.35277777,0,0,0.35277777,28.346246,-57.158263)">
      <g
         id="use1357"
         transform="translate(136.939,510.90601)">
        <path
           d="M 5.15625,-5.21875 H 1.171875 v 0.125 c 0.421875,0.03125 0.625,0.046875 0.625,0.34375 0,0.140625 -0.0625,0.375 -0.09375,0.5 L 0.71875,-0.71875 C 0.578125,-0.203125 0.46875,-0.1875 0.0625,-0.125 V 0 H 2.078125 V -0.125 C 1.8125,-0.140625 1.46875,-0.15625 1.46875,-0.484375 1.46875,-0.5625 1.5,-0.65625 1.546875,-0.84375 l 0.5,-1.78125 c 0.140625,0.015625 0.46875,0.03125 0.859375,0.03125 0.140625,0 0.390625,0.015625 0.390625,0.375 0,0.15625 -0.03125,0.34375 -0.0625,0.453125 L 3.375,-1.71875 3.984375,-3.59375 3.84375,-3.625 c -0.375,0.71875 -0.390625,0.71875 -1.734375,0.734375 L 2.640625,-4.75 c 0.0625,-0.1875 0.140625,-0.203125 0.640625,-0.203125 1.1875,0 1.484375,0.09375 1.484375,0.59375 0,0.125 -0.015625,0.234375 -0.03125,0.34375 L 4.90625,-4 Z m 0,0"
           id="path4" />
      </g>
    </g>
    <g
       fill="#231f20"
       fill-opacity="1"
       id="g1358"
       transform="matrix(0.35277777,0,0,0.35277777,28.346246,-57.158263)">
      <g
         id="use1358"
         transform="translate(142.22699,510.90601)">
        <path
           d="m 2.359375,-5.40625 c -1.234375,0.734375 -1.96875,1.9375 -1.96875,3.3125 0,1.109375 0.25,1.671875 0.65625,2.25 C 1.34375,0.609375 1.875,1.171875 2.34375,1.421875 L 2.4375,1.28125 c -1.359375,-0.859375 -1.359375,-2.625 -1.359375,-3.4375 0,-2.03125 0.765625,-2.65625 1.359375,-3.125 z m 0,0"
           id="path3" />
      </g>
    </g>
    <g
       fill="#231f20"
       fill-opacity="1"
       id="g1359"
       transform="matrix(0.35277777,0,0,0.35277777,28.346246,-57.158263)">
      <g
         id="use1359"
         transform="translate(144.89099,510.90601)">
        <path
           d="m 3.21875,-0.890625 c -0.21875,0.25 -0.375,0.53125 -0.546875,0.53125 -0.15625,0 -0.21875,-0.1875 -0.25,-0.328125 -0.046875,-0.1875 -0.3125,-1.28125 -0.3125,-1.421875 0,0 0.53125,-0.96875 0.765625,-0.96875 0.1875,0 0.234375,0.140625 0.421875,0.140625 0.203125,0 0.28125,-0.15625 0.28125,-0.296875 0,-0.203125 -0.171875,-0.296875 -0.328125,-0.296875 -0.421875,0 -0.796875,0.484375 -1.203125,1.140625 l -0.09375,-0.4375 C 1.8125,-3.53125 1.6875,-3.53125 1.515625,-3.53125 c -0.265625,0 -0.78125,0.1875 -1,0.265625 l 0.03125,0.125 c 0.25,-0.0625 0.359375,-0.09375 0.4375,-0.09375 0.21875,0 0.25,0.109375 0.3125,0.359375 0.015625,0.046875 0.28125,1.109375 0.28125,1.171875 -0.71875,1.0625 -0.921875,1.328125 -1.0625,1.328125 -0.140625,0 -0.28125,-0.15625 -0.453125,-0.15625 -0.1875,0 -0.28125,0.140625 -0.28125,0.28125 0,0.1875 0.125,0.34375 0.390625,0.34375 0.25,0 0.34375,-0.09375 0.484375,-0.25 0.265625,-0.296875 0.609375,-0.71875 0.984375,-1.25 l 0.25,0.953125 c 0.09375,0.421875 0.21875,0.546875 0.453125,0.546875 0.1875,0 0.421875,0 0.984375,-0.921875 z m 0,0"
           id="path6" />
      </g>
    </g>
    <g
       fill="#231f20"
       fill-opacity="1"
       id="g1360"
       transform="matrix(0.35277777,0,0,0.35277777,28.346246,-57.158263)">
      <g
         id="use1360"
         transform="translate(148.44299,510.90601)">
        <path
           d="m 0.296875,1.421875 c 1.25,-0.734375 1.984375,-1.9375 1.984375,-3.3125 0,-1.109375 -0.265625,-1.6875 -0.65625,-2.265625 -0.3125,-0.4375 -0.828125,-1 -1.296875,-1.25 l -0.09375,0.125 c 1.359375,0.875 1.359375,2.625 1.359375,3.4375 0,2.03125 -0.765625,2.65625 -1.359375,3.125 z m 0,0"
           id="path1" />
      </g>
    </g>
    <path
       fill-rule="nonzero"
       fill="#231f20"
       fill-opacity="1"
       stroke-width="0.176389"
       stroke-linecap="butt"
       stroke-linejoin="miter"
       stroke="#231f20"
       stroke-opacity="1"
       stroke-miterlimit="4"
       d="m 83.492577,163.70404 c 0,0.34038 -0.276986,0.61736 -0.617361,0.61736 -0.340375,0 -0.617361,-0.27698 -0.617361,-0.61736 0,-0.34175 0.276986,-0.61736 0.617361,-0.61736 0.340375,0 0.617361,0.27561 0.617361,0.61736 z m 0,0"
       id="path1360" />
    <path
       fill-rule="nonzero"
       fill="#231f20"
       fill-opacity="1"
       stroke-width="0.176389"
       stroke-linecap="butt"
       stroke-linejoin="miter"
       stroke="#231f20"
       stroke-opacity="1"
       stroke-miterlimit="4"
       d="m 72.205067,167.86848 c 0,0.34175 -0.275607,0.61736 -0.617361,0.61736 -0.340375,0 -0.617361,-0.27561 -0.617361,-0.61736 0,-0.34038 0.276986,-0.61736 0.617361,-0.61736 0.341754,0 0.617361,0.27698 0.617361,0.61736 z m 0,0"
       id="path1361" />
    <path
       fill-rule="nonzero"
       fill="#231f20"
       fill-opacity="1"
       stroke-width="0.176389"
       stroke-linecap="butt"
       stroke-linejoin="miter"
       stroke="#231f20"
       stroke-opacity="1"
       stroke-miterlimit="4"
       d="m 132.67063,140.01695 c 0,0.34037 -0.27699,0.61736 -0.61737,0.61736 -0.34175,0 -0.61736,-0.27699 -0.61736,-0.61736 0,-0.34175 0.27561,-0.61736 0.61736,-0.61736 0.34038,0 0.61737,0.27561 0.61737,0.61736 z m 0,0"
       id="path1362" />
    <path
       fill-rule="nonzero"
       fill="#231f20"
       fill-opacity="1"
       stroke-width="0.176389"
       stroke-linecap="butt"
       stroke-linejoin="miter"
       stroke="#231f20"
       stroke-opacity="1"
       stroke-miterlimit="4"
       d="m 120.37577,140.01695 c 0,0.34037 -0.27561,0.61736 -0.61736,0.61736 -0.34038,0 -0.61736,-0.27699 -0.61736,-0.61736 0,-0.34175 0.27698,-0.61736 0.61736,-0.61736 0.34175,0 0.61736,0.27561 0.61736,0.61736 z m 0,0"
       id="path1363" />
    <path
       fill="none"
       stroke-width="0.705556"
       stroke-linecap="butt"
       stroke-linejoin="miter"
       stroke="#231f20"
       stroke-opacity="1"
       stroke-miterlimit="4"
       d="M 54.239583,171.59883 H 70.632725"
       id="path1364" />
    <path
       fill="none"
       stroke-width="0.352778"
       stroke-linecap="butt"
       stroke-linejoin="miter"
       stroke="#231f20"
       stroke-opacity="1"
       stroke-miterlimit="4"
       d="M 71.587706,167.86848 H 82.815961"
       id="path1365" />
    <path
       fill="none"
       stroke-width="0.176389"
       stroke-linecap="butt"
       stroke-linejoin="miter"
       stroke="#231f20"
       stroke-opacity="1"
       stroke-dasharray="4, 2"
       stroke-miterlimit="4"
       d="m 95.165939,169.66544 v -9.95495"
       id="path1366" />
    <path
       fill="none"
       stroke-width="0.352778"
       stroke-linecap="butt"
       stroke-linejoin="miter"
       stroke="#000000"
       stroke-opacity="1"
       stroke-miterlimit="4"
       d="m 82.967545,163.83221 12.198394,-4.12171 h 12.301751 c 0,0 8.07392,-2.42673 12.29072,-11.78361 m 0,-7.90994 h 12.29486 c 0,0 1.19338,0.20258 3.47127,-1.73632 2.27928,-1.9389 5.9614,-5.8608 8.8222,-6.15157 h 9.29763"
       id="path1367" />
  </g>
</svg>
