<?xml version="1.0" encoding="UTF-8" standalone="no"?>
<!-- Created with Inkscape (http://www.inkscape.org/) -->

<svg
   width="46.193169mm"
   height="30.577339mm"
   viewBox="0 0 46.193169 30.577339"
   version="1.1"
   id="svg1"
   inkscape:version="1.3.2 (091e20e, 2023-11-25)"
   sodipodi:docname="fig-3-15.svg"
   xmlns:inkscape="http://www.inkscape.org/namespaces/inkscape"
   xmlns:sodipodi="http://sodipodi.sourceforge.net/DTD/sodipodi-0.dtd"
   xmlns="http://www.w3.org/2000/svg"
   xmlns:svg="http://www.w3.org/2000/svg">
  <sodipodi:namedview
     id="namedview1"
     pagecolor="#ffffff"
     bordercolor="#000000"
     borderopacity="0.25"
     inkscape:showpageshadow="2"
     inkscape:pageopacity="0.0"
     inkscape:pagecheckerboard="0"
     inkscape:deskcolor="#d1d1d1"
     inkscape:document-units="mm"
     inkscape:zoom="0.2102413"
     inkscape:cx="87.994128"
     inkscape:cy="57.077272"
     inkscape:window-width="1312"
     inkscape:window-height="449"
     inkscape:window-x="0"
     inkscape:window-y="38"
     inkscape:window-maximized="0"
     inkscape:current-layer="layer1" />
  <defs
     id="defs1" />
  <g
     inkscape:label="Layer 1"
     inkscape:groupmode="layer"
     id="layer1"
     transform="translate(-82.020831,-133.08537)">
    <path
       fill="none"
       stroke-width="0.176389"
       stroke-linecap="butt"
       stroke-linejoin="miter"
       stroke="#231f20"
       stroke-opacity="1"
       stroke-miterlimit="4"
       d="M 82.020831,159.43488 H 126.45981"
       id="path245" />
    <path
       fill-rule="nonzero"
       fill="#231f20"
       fill-opacity="1"
       d="m 126.45981,159.43488 -0.38723,-0.63527 0.022,-0.0152 1.03628,0.41203 c 0.36105,0.0799 0.72209,0.15848 1.08314,0.2384 -0.36105,0.0799 -0.72209,0.15848 -1.08314,0.2384 l -1.03628,0.41204 -0.022,-0.011 0.38723,-0.63941"
       id="path246"
       style="stroke-width:0.352778" />
    <g
       fill="#231f20"
       fill-opacity="1"
       id="g246"
       transform="matrix(0.35277777,0,0,0.35277777,11.982042,109.97296)">
      <g
         id="use246"
         transform="translate(324.534,148.207)">
        <path
           d="m 3.21875,-0.890625 c -0.21875,0.25 -0.375,0.53125 -0.546875,0.53125 -0.15625,0 -0.21875,-0.1875 -0.25,-0.328125 -0.046875,-0.1875 -0.3125,-1.28125 -0.3125,-1.421875 0,0 0.53125,-0.96875 0.765625,-0.96875 0.1875,0 0.234375,0.140625 0.421875,0.140625 0.203125,0 0.28125,-0.15625 0.28125,-0.296875 0,-0.203125 -0.171875,-0.296875 -0.328125,-0.296875 -0.421875,0 -0.796875,0.484375 -1.203125,1.140625 l -0.09375,-0.4375 C 1.8125,-3.53125 1.6875,-3.53125 1.515625,-3.53125 c -0.265625,0 -0.78125,0.1875 -1,0.265625 l 0.03125,0.125 c 0.25,-0.0625 0.359375,-0.09375 0.4375,-0.09375 0.21875,0 0.25,0.109375 0.3125,0.359375 0.015625,0.046875 0.28125,1.109375 0.28125,1.171875 -0.71875,1.0625 -0.921875,1.328125 -1.0625,1.328125 -0.140625,0 -0.28125,-0.15625 -0.453125,-0.15625 -0.1875,0 -0.28125,0.140625 -0.28125,0.28125 0,0.1875 0.125,0.34375 0.390625,0.34375 0.25,0 0.34375,-0.09375 0.484375,-0.25 0.265625,-0.296875 0.609375,-0.71875 0.984375,-1.25 l 0.25,0.953125 c 0.09375,0.421875 0.21875,0.546875 0.453125,0.546875 0.1875,0 0.421875,0 0.984375,-0.921875 z m 0,0"
           id="path9" />
      </g>
    </g>
    <path
       fill="none"
       stroke-width="0.176389"
       stroke-linecap="butt"
       stroke-linejoin="miter"
       stroke="#231f20"
       stroke-opacity="1"
       stroke-miterlimit="4"
       d="m 95.223816,160.49322 v -2.11667 m 8.922794,2.11667 v -2.11667 m 8.92142,2.11667 v -2.11667 m 8.9228,2.11667 v -2.11667 m -35.71875,5.28616 v -28.82167"
       id="path247" />
    <path
       fill-rule="nonzero"
       fill="#231f20"
       fill-opacity="1"
       d="m 86.27208,134.84104 -0.636654,0.38585 -0.01379,-0.0221 0.410655,-1.03491 c 0.07993,-0.36242 0.158475,-0.72347 0.239779,-1.08451 0.07855,0.36104 0.157096,0.72209 0.2384,1.08451 l 0.410655,1.03491 -0.01101,0.0221 -0.63803,-0.38585"
       id="path248"
       style="stroke-width:0.352778" />
    <g
       fill="#231f20"
       fill-opacity="1"
       id="g248"
       transform="matrix(0.35277777,0,0,0.35277777,11.982042,109.97296)">
      <g
         id="use248"
         transform="translate(203.562,69.848)">
        <path
           d="m 0.125,-3.203125 c 0.09375,-0.015625 0.140625,-0.03125 0.265625,-0.03125 0.453125,0 0.5625,0.34375 0.78125,1.078125 0.125,0.421875 0.46875,1.828125 0.46875,2.125 0,0.21875 -0.34375,0.609375 -0.53125,0.84375 -0.28125,0.328125 -0.375,0.390625 -0.515625,0.390625 -0.140625,0 -0.234375,-0.21875 -0.484375,-0.21875 -0.171875,0 -0.296875,0.140625 -0.296875,0.296875 0,0.34375 0.34375,0.359375 0.40625,0.359375 0.953125,0 3.1875,-3.71875 3.1875,-4.671875 0,-0.28125 -0.15625,-0.5 -0.453125,-0.5 -0.203125,0 -0.296875,0.171875 -0.296875,0.28125 0,0.375 0.4375,0.28125 0.4375,0.609375 0,0.421875 -0.640625,1.5 -0.984375,2.0625 L 1.953125,-1.5 C 1.84375,-2.109375 1.375,-3.53125 1.265625,-3.53125 1.125,-3.53125 0.5,-3.40625 0.125,-3.34375 Z m 0,0"
           id="path8" />
      </g>
    </g>
    <g
       fill="#231f20"
       fill-opacity="1"
       id="g249"
       transform="matrix(0.35277777,0,0,0.35277777,11.982042,109.97296)">
      <g
         id="use249"
         transform="translate(283.40198,148.89101)">
        <path
           d="M 2.8125,-0.78125 C 2.625,-0.5625 2.484375,-0.3125 2.34375,-0.3125 c -0.140625,0 -0.1875,-0.171875 -0.21875,-0.28125 -0.046875,-0.171875 -0.28125,-1.125 -0.28125,-1.25 0,0 0.46875,-0.84375 0.671875,-0.84375 0.15625,0 0.203125,0.109375 0.375,0.109375 0.171875,0 0.234375,-0.125 0.234375,-0.25 C 3.125,-3 2.96875,-3.09375 2.84375,-3.09375 c -0.359375,0 -0.6875,0.4375 -1.0625,1 l -0.078125,-0.375 c -0.125,-0.625 -0.21875,-0.625 -0.375,-0.625 -0.234375,0 -0.6875,0.171875 -0.875,0.234375 L 0.46875,-2.75 c 0.234375,-0.0625 0.328125,-0.078125 0.390625,-0.078125 0.1875,0 0.21875,0.09375 0.28125,0.3125 0,0.03125 0.25,0.96875 0.25,1.03125 -0.640625,0.921875 -0.8125,1.15625 -0.9375,1.15625 -0.125,0 -0.25,-0.140625 -0.40625,-0.140625 -0.15625,0 -0.234375,0.125 -0.234375,0.25 0,0.15625 0.109375,0.296875 0.34375,0.296875 0.21875,0 0.296875,-0.078125 0.421875,-0.21875 0.234375,-0.25 0.53125,-0.625 0.859375,-1.09375 l 0.21875,0.84375 c 0.09375,0.375 0.1875,0.46875 0.390625,0.46875 0.171875,0 0.375,0 0.859375,-0.796875 z m 0,0"
           id="path4" />
      </g>
    </g>
    <g
       fill="#231f20"
       fill-opacity="1"
       id="g250"
       transform="matrix(0.35277777,0,0,0.35277777,11.982042,109.97296)">
      <g
         id="use250"
         transform="translate(286.685,151.89101)">
        <path
           d="m 0.921875,-1.984375 c 0.40625,0 0.5625,0.015625 0.78125,0.140625 0.375,0.1875 0.453125,0.640625 0.453125,0.78125 0,0.453125 -0.25,0.9375 -0.8125,0.9375 -0.34375,0 -0.578125,-0.34375 -0.859375,-0.34375 -0.09375,0 -0.21875,0.046875 -0.21875,0.203125 0,0.3125 0.515625,0.34375 0.65625,0.34375 0.9375,0 1.671875,-0.515625 1.671875,-1.375 0,-0.796875 -0.515625,-1 -0.765625,-1.109375 C 2.21875,-2.65625 2.375,-2.921875 2.375,-3.25 c 0,-0.234375 -0.15625,-0.8125 -0.921875,-0.8125 -0.40625,0 -0.9375,0.1875 -1.1875,0.984375 l 0.09375,0.015625 c 0.09375,-0.171875 0.34375,-0.640625 0.890625,-0.640625 0.4375,0 0.65625,0.328125 0.65625,0.625 0,0.5625 -0.453125,0.84375 -1,1.015625 z m 0,0"
           id="path3" />
      </g>
    </g>
    <g
       fill="#231f20"
       fill-opacity="1"
       id="g255"
       transform="matrix(0.35277777,0,0,0.35277777,11.982042,109.97296)">
      <g
         id="use251"
         transform="translate(266.30099,149.612)">
        <path
           d="m 1.125,-1.796875 c 0.1875,0 0.5,-0.140625 0.5,-0.484375 0,-0.28125 -0.234375,-0.515625 -0.5,-0.515625 -0.265625,0 -0.5,0.234375 -0.5,0.515625 0,0.34375 0.3125,0.484375 0.5,0.484375 z m 0,0"
           id="path10" />
      </g>
      <g
         id="use252"
         transform="translate(269.22598,149.612)">
        <path
           d="m 1.125,-1.796875 c 0.1875,0 0.5,-0.140625 0.5,-0.484375 0,-0.28125 -0.234375,-0.515625 -0.5,-0.515625 -0.265625,0 -0.5,0.234375 -0.5,0.515625 0,0.34375 0.3125,0.484375 0.5,0.484375 z m 0,0"
           id="path11" />
      </g>
      <g
         id="use253"
         transform="translate(272.151,149.612)">
        <path
           d="m 1.125,-1.796875 c 0.1875,0 0.5,-0.140625 0.5,-0.484375 0,-0.28125 -0.234375,-0.515625 -0.5,-0.515625 -0.265625,0 -0.5,0.234375 -0.5,0.515625 0,0.34375 0.3125,0.484375 0.5,0.484375 z m 0,0"
           id="path12" />
      </g>
      <g
         id="use254"
         transform="translate(275.07599,149.612)">
        <path
           d="m 1.125,-1.796875 c 0.1875,0 0.5,-0.140625 0.5,-0.484375 0,-0.28125 -0.234375,-0.515625 -0.5,-0.515625 -0.265625,0 -0.5,0.234375 -0.5,0.515625 0,0.34375 0.3125,0.484375 0.5,0.484375 z m 0,0"
           id="path13" />
      </g>
      <g
         id="use255"
         transform="translate(278.00098,149.612)">
        <path
           d="m 1.125,-1.796875 c 0.1875,0 0.5,-0.140625 0.5,-0.484375 0,-0.28125 -0.234375,-0.515625 -0.5,-0.515625 -0.265625,0 -0.5,0.234375 -0.5,0.515625 0,0.34375 0.3125,0.484375 0.5,0.484375 z m 0,0"
           id="path14" />
      </g>
    </g>
    <g
       fill="#231f20"
       fill-opacity="1"
       id="g260"
       transform="matrix(0.35277777,0,0,0.35277777,11.982042,109.97296)">
      <g
         id="use256"
         transform="translate(291.55499,149.612)">
        <path
           d="m 1.125,-1.796875 c 0.1875,0 0.5,-0.140625 0.5,-0.484375 0,-0.28125 -0.234375,-0.515625 -0.5,-0.515625 -0.265625,0 -0.5,0.234375 -0.5,0.515625 0,0.34375 0.3125,0.484375 0.5,0.484375 z m 0,0"
           id="path15" />
      </g>
      <g
         id="use257"
         transform="translate(294.47998,149.612)">
        <path
           d="m 1.125,-1.796875 c 0.1875,0 0.5,-0.140625 0.5,-0.484375 0,-0.28125 -0.234375,-0.515625 -0.5,-0.515625 -0.265625,0 -0.5,0.234375 -0.5,0.515625 0,0.34375 0.3125,0.484375 0.5,0.484375 z m 0,0"
           id="path16" />
      </g>
      <g
         id="use258"
         transform="translate(297.405,149.612)">
        <path
           d="m 1.125,-1.796875 c 0.1875,0 0.5,-0.140625 0.5,-0.484375 0,-0.28125 -0.234375,-0.515625 -0.5,-0.515625 -0.265625,0 -0.5,0.234375 -0.5,0.515625 0,0.34375 0.3125,0.484375 0.5,0.484375 z m 0,0"
           id="path17" />
      </g>
      <g
         id="use259"
         transform="translate(300.32999,149.612)">
        <path
           d="m 1.125,-1.796875 c 0.1875,0 0.5,-0.140625 0.5,-0.484375 0,-0.28125 -0.234375,-0.515625 -0.5,-0.515625 -0.265625,0 -0.5,0.234375 -0.5,0.515625 0,0.34375 0.3125,0.484375 0.5,0.484375 z m 0,0"
           id="path18" />
      </g>
      <g
         id="use260"
         transform="translate(303.255,149.612)">
        <path
           d="m 1.125,-1.796875 c 0.1875,0 0.5,-0.140625 0.5,-0.484375 0,-0.28125 -0.234375,-0.515625 -0.5,-0.515625 -0.265625,0 -0.5,0.234375 -0.5,0.515625 0,0.34375 0.3125,0.484375 0.5,0.484375 z m 0,0"
           id="path19" />
      </g>
    </g>
    <g
       fill="#231f20"
       fill-opacity="1"
       id="g261"
       transform="matrix(0.35277777,0,0,0.35277777,11.982042,109.97296)">
      <g
         id="use261"
         transform="translate(258.11099,148.89101)">
        <path
           d="M 2.8125,-0.78125 C 2.625,-0.5625 2.484375,-0.3125 2.34375,-0.3125 c -0.140625,0 -0.1875,-0.171875 -0.21875,-0.28125 -0.046875,-0.171875 -0.28125,-1.125 -0.28125,-1.25 0,0 0.46875,-0.84375 0.671875,-0.84375 0.15625,0 0.203125,0.109375 0.375,0.109375 0.171875,0 0.234375,-0.125 0.234375,-0.25 C 3.125,-3 2.96875,-3.09375 2.84375,-3.09375 c -0.359375,0 -0.6875,0.4375 -1.0625,1 l -0.078125,-0.375 c -0.125,-0.625 -0.21875,-0.625 -0.375,-0.625 -0.234375,0 -0.6875,0.171875 -0.875,0.234375 L 0.46875,-2.75 c 0.234375,-0.0625 0.328125,-0.078125 0.390625,-0.078125 0.1875,0 0.21875,0.09375 0.28125,0.3125 0,0.03125 0.25,0.96875 0.25,1.03125 -0.640625,0.921875 -0.8125,1.15625 -0.9375,1.15625 -0.125,0 -0.25,-0.140625 -0.40625,-0.140625 -0.15625,0 -0.234375,0.125 -0.234375,0.25 0,0.15625 0.109375,0.296875 0.34375,0.296875 0.21875,0 0.296875,-0.078125 0.421875,-0.21875 0.234375,-0.25 0.53125,-0.625 0.859375,-1.09375 l 0.21875,0.84375 c 0.09375,0.375 0.1875,0.46875 0.390625,0.46875 0.171875,0 0.375,0 0.859375,-0.796875 z m 0,0"
           id="path5" />
      </g>
    </g>
    <g
       fill="#231f20"
       fill-opacity="1"
       id="g262"
       transform="matrix(0.35277777,0,0,0.35277777,11.982042,109.97296)">
      <g
         id="use262"
         transform="translate(261.39398,151.89101)">
        <path
           d="m 2.84375,-0.828125 -0.078125,-0.03125 c -0.234375,0.390625 -0.34375,0.40625 -0.5625,0.40625 h -1.4375 l 1.015625,-1.0625 C 2.046875,-1.796875 2.546875,-2.34375 2.546875,-2.96875 2.546875,-3.640625 2,-4.0625 1.453125,-4.0625 c -0.515625,0 -1.09375,0.296875 -1.265625,1.203125 l 0.125,0.03125 c 0.125,-0.328125 0.3125,-0.78125 0.859375,-0.78125 0.703125,0 0.859375,0.546875 0.859375,0.859375 0,0.453125 -0.265625,0.984375 -0.78125,1.546875 l -1.0625,1.125 V 0 h 2.328125 z m 0,0"
           id="path1" />
      </g>
    </g>
    <g
       fill="#231f20"
       fill-opacity="1"
       id="g263"
       transform="matrix(0.35277777,0,0,0.35277777,11.982042,109.97296)">
      <g
         id="use263"
         transform="translate(232.81999,148.89101)">
        <path
           d="M 2.8125,-0.78125 C 2.625,-0.5625 2.484375,-0.3125 2.34375,-0.3125 c -0.140625,0 -0.1875,-0.171875 -0.21875,-0.28125 -0.046875,-0.171875 -0.28125,-1.125 -0.28125,-1.25 0,0 0.46875,-0.84375 0.671875,-0.84375 0.15625,0 0.203125,0.109375 0.375,0.109375 0.171875,0 0.234375,-0.125 0.234375,-0.25 C 3.125,-3 2.96875,-3.09375 2.84375,-3.09375 c -0.359375,0 -0.6875,0.4375 -1.0625,1 l -0.078125,-0.375 c -0.125,-0.625 -0.21875,-0.625 -0.375,-0.625 -0.234375,0 -0.6875,0.171875 -0.875,0.234375 L 0.46875,-2.75 c 0.234375,-0.0625 0.328125,-0.078125 0.390625,-0.078125 0.1875,0 0.21875,0.09375 0.28125,0.3125 0,0.03125 0.25,0.96875 0.25,1.03125 -0.640625,0.921875 -0.8125,1.15625 -0.9375,1.15625 -0.125,0 -0.25,-0.140625 -0.40625,-0.140625 -0.15625,0 -0.234375,0.125 -0.234375,0.25 0,0.15625 0.109375,0.296875 0.34375,0.296875 0.21875,0 0.296875,-0.078125 0.421875,-0.21875 0.234375,-0.25 0.53125,-0.625 0.859375,-1.09375 l 0.21875,0.84375 c 0.09375,0.375 0.1875,0.46875 0.390625,0.46875 0.171875,0 0.375,0 0.859375,-0.796875 z m 0,0"
           id="path6" />
      </g>
    </g>
    <g
       fill="#231f20"
       fill-opacity="1"
       id="g264"
       transform="matrix(0.35277777,0,0,0.35277777,11.982042,109.97296)">
      <g
         id="use264"
         transform="translate(236.103,151.89101)">
        <path
           d="m 0.703125,0 h 1.65625 v -0.09375 c -0.453125,0 -0.5625,-0.0625 -0.5625,-0.34375 V -4.046875 L 1.75,-4.0625 0.671875,-3.515625 v 0.09375 C 1,-3.5625 1,-3.5625 1.078125,-3.5625 c 0.203125,0 0.203125,0.15625 0.203125,0.28125 v 2.71875 c 0,0.453125 -0.21875,0.453125 -0.578125,0.46875 z m 0,0"
           id="path21" />
      </g>
    </g>
    <g
       fill="#231f20"
       fill-opacity="1"
       id="g265"
       transform="matrix(0.35277777,0,0,0.35277777,11.982042,109.97296)">
      <g
         id="use265"
         transform="translate(308.78,148.89101)">
        <path
           d="M 2.8125,-0.78125 C 2.625,-0.5625 2.484375,-0.3125 2.34375,-0.3125 c -0.140625,0 -0.1875,-0.171875 -0.21875,-0.28125 -0.046875,-0.171875 -0.28125,-1.125 -0.28125,-1.25 0,0 0.46875,-0.84375 0.671875,-0.84375 0.15625,0 0.203125,0.109375 0.375,0.109375 0.171875,0 0.234375,-0.125 0.234375,-0.25 C 3.125,-3 2.96875,-3.09375 2.84375,-3.09375 c -0.359375,0 -0.6875,0.4375 -1.0625,1 l -0.078125,-0.375 c -0.125,-0.625 -0.21875,-0.625 -0.375,-0.625 -0.234375,0 -0.6875,0.171875 -0.875,0.234375 L 0.46875,-2.75 c 0.234375,-0.0625 0.328125,-0.078125 0.390625,-0.078125 0.1875,0 0.21875,0.09375 0.28125,0.3125 0,0.03125 0.25,0.96875 0.25,1.03125 -0.640625,0.921875 -0.8125,1.15625 -0.9375,1.15625 -0.125,0 -0.25,-0.140625 -0.40625,-0.140625 -0.15625,0 -0.234375,0.125 -0.234375,0.25 0,0.15625 0.109375,0.296875 0.34375,0.296875 0.21875,0 0.296875,-0.078125 0.421875,-0.21875 0.234375,-0.25 0.53125,-0.625 0.859375,-1.09375 l 0.21875,0.84375 c 0.09375,0.375 0.1875,0.46875 0.390625,0.46875 0.171875,0 0.375,0 0.859375,-0.796875 z m 0,0"
           id="path7" />
      </g>
    </g>
    <g
       fill="#231f20"
       fill-opacity="1"
       id="g266"
       transform="matrix(0.35277777,0,0,0.35277777,11.982042,109.97296)">
      <g
         id="use266"
         transform="translate(311.888,151.89101)">
        <path
           d="M 2.828125,-1.390625 H 2.21875 V -4.0625 H 1.953125 l -1.875,2.671875 V -1 h 1.6875 V 0 H 2.21875 v -1 h 0.609375 z m -1.078125,0 H 0.3125 l 1.421875,-2.03125 H 1.75 Z m 0,0"
           id="path20" />
      </g>
    </g>
    <path
       fill-rule="nonzero"
       fill="#231f20"
       fill-opacity="1"
       stroke-width="0.176389"
       stroke-linecap="butt"
       stroke-linejoin="miter"
       stroke="#231f20"
       stroke-opacity="1"
       stroke-miterlimit="4"
       d="m 95.841177,154.95763 c 0,0.34176 -0.275608,0.61737 -0.617362,0.61737 -0.340375,0 -0.617361,-0.27561 -0.617361,-0.61737 0,-0.34037 0.276986,-0.61736 0.617361,-0.61736 0.341754,0 0.617362,0.27699 0.617362,0.61736 z m 0,0"
       id="path266" />
    <path
       fill-rule="nonzero"
       fill="#231f20"
       fill-opacity="1"
       stroke-width="0.176389"
       stroke-linecap="butt"
       stroke-linejoin="miter"
       stroke="#231f20"
       stroke-opacity="1"
       stroke-miterlimit="4"
       d="m 104.76398,154.95763 c 0,0.34176 -0.27699,0.61737 -0.61737,0.61737 -0.34175,0 -0.61736,-0.27561 -0.61736,-0.61737 0,-0.34037 0.27561,-0.61736 0.61736,-0.61736 0.34038,0 0.61737,0.27699 0.61737,0.61736 z m 0,0"
       id="path267" />
    <path
       fill-rule="nonzero"
       fill="#231f20"
       fill-opacity="1"
       stroke-width="0.176389"
       stroke-linecap="butt"
       stroke-linejoin="miter"
       stroke="#231f20"
       stroke-opacity="1"
       stroke-miterlimit="4"
       d="m 113.6854,154.95763 c 0,0.34176 -0.27699,0.61737 -0.61737,0.61737 -0.34175,0 -0.61736,-0.27561 -0.61736,-0.61737 0,-0.34037 0.27561,-0.61736 0.61736,-0.61736 0.34038,0 0.61737,0.27699 0.61737,0.61736 z m 0,0"
       id="path268" />
    <path
       fill-rule="nonzero"
       fill="#231f20"
       fill-opacity="1"
       stroke-width="0.176389"
       stroke-linecap="butt"
       stroke-linejoin="miter"
       stroke="#231f20"
       stroke-opacity="1"
       stroke-miterlimit="4"
       d="m 122.60681,154.95763 c 0,0.34176 -0.27561,0.61737 -0.61736,0.61737 -0.34037,0 -0.61736,-0.27561 -0.61736,-0.61737 0,-0.34037 0.27699,-0.61736 0.61736,-0.61736 0.34175,0 0.61736,0.27699 0.61736,0.61736 z m 0,0"
       id="path269" />
    <path
       fill-rule="nonzero"
       fill="#231f20"
       fill-opacity="1"
       stroke-width="0.176389"
       stroke-linecap="butt"
       stroke-linejoin="miter"
       stroke="#231f20"
       stroke-opacity="1"
       stroke-miterlimit="4"
       d="m 95.841177,151.64621 c 0,0.34038 -0.275608,0.61736 -0.617362,0.61736 -0.340375,0 -0.617361,-0.27698 -0.617361,-0.61736 0,-0.34175 0.276986,-0.61736 0.617361,-0.61736 0.341754,0 0.617362,0.27561 0.617362,0.61736 z m 0,0"
       id="path270" />
    <path
       fill-rule="nonzero"
       fill="#231f20"
       fill-opacity="1"
       stroke-width="0.176389"
       stroke-linecap="butt"
       stroke-linejoin="miter"
       stroke="#231f20"
       stroke-opacity="1"
       stroke-miterlimit="4"
       d="m 104.76398,151.64621 c 0,0.34038 -0.27699,0.61736 -0.61737,0.61736 -0.34175,0 -0.61736,-0.27698 -0.61736,-0.61736 0,-0.34175 0.27561,-0.61736 0.61736,-0.61736 0.34038,0 0.61737,0.27561 0.61737,0.61736 z m 0,0"
       id="path271" />
    <path
       fill-rule="nonzero"
       fill="#231f20"
       fill-opacity="1"
       stroke-width="0.176389"
       stroke-linecap="butt"
       stroke-linejoin="miter"
       stroke="#231f20"
       stroke-opacity="1"
       stroke-miterlimit="4"
       d="m 113.6854,151.64621 c 0,0.34038 -0.27699,0.61736 -0.61737,0.61736 -0.34175,0 -0.61736,-0.27698 -0.61736,-0.61736 0,-0.34175 0.27561,-0.61736 0.61736,-0.61736 0.34038,0 0.61737,0.27561 0.61737,0.61736 z m 0,0"
       id="path272" />
    <path
       fill-rule="nonzero"
       fill="#231f20"
       fill-opacity="1"
       stroke-width="0.176389"
       stroke-linecap="butt"
       stroke-linejoin="miter"
       stroke="#231f20"
       stroke-opacity="1"
       stroke-miterlimit="4"
       d="m 122.60681,151.64621 c 0,0.34038 -0.27561,0.61736 -0.61736,0.61736 -0.34037,0 -0.61736,-0.27698 -0.61736,-0.61736 0,-0.34175 0.27699,-0.61736 0.61736,-0.61736 0.34175,0 0.61736,0.27561 0.61736,0.61736 z m 0,0"
       id="path273" />
    <path
       fill-rule="nonzero"
       fill="#231f20"
       fill-opacity="1"
       stroke-width="0.176389"
       stroke-linecap="butt"
       stroke-linejoin="miter"
       stroke="#231f20"
       stroke-opacity="1"
       stroke-miterlimit="4"
       d="m 95.841177,148.33341 c 0,0.34038 -0.275608,0.61736 -0.617362,0.61736 -0.340375,0 -0.617361,-0.27698 -0.617361,-0.61736 0,-0.34175 0.276986,-0.61736 0.617361,-0.61736 0.341754,0 0.617362,0.27561 0.617362,0.61736 z m 0,0"
       id="path274" />
    <path
       fill-rule="nonzero"
       fill="#231f20"
       fill-opacity="1"
       stroke-width="0.176389"
       stroke-linecap="butt"
       stroke-linejoin="miter"
       stroke="#231f20"
       stroke-opacity="1"
       stroke-miterlimit="4"
       d="m 104.76398,148.33341 c 0,0.34038 -0.27699,0.61736 -0.61737,0.61736 -0.34175,0 -0.61736,-0.27698 -0.61736,-0.61736 0,-0.34175 0.27561,-0.61736 0.61736,-0.61736 0.34038,0 0.61737,0.27561 0.61737,0.61736 z m 0,0"
       id="path275" />
    <path
       fill-rule="nonzero"
       fill="#231f20"
       fill-opacity="1"
       stroke-width="0.176389"
       stroke-linecap="butt"
       stroke-linejoin="miter"
       stroke="#231f20"
       stroke-opacity="1"
       stroke-miterlimit="4"
       d="m 113.6854,148.33341 c 0,0.34038 -0.27699,0.61736 -0.61737,0.61736 -0.34175,0 -0.61736,-0.27698 -0.61736,-0.61736 0,-0.34175 0.27561,-0.61736 0.61736,-0.61736 0.34038,0 0.61737,0.27561 0.61737,0.61736 z m 0,0"
       id="path276" />
    <path
       fill-rule="nonzero"
       fill="#231f20"
       fill-opacity="1"
       stroke-width="0.176389"
       stroke-linecap="butt"
       stroke-linejoin="miter"
       stroke="#231f20"
       stroke-opacity="1"
       stroke-miterlimit="4"
       d="m 122.60681,148.33341 c 0,0.34038 -0.27561,0.61736 -0.61736,0.61736 -0.34037,0 -0.61736,-0.27698 -0.61736,-0.61736 0,-0.34175 0.27699,-0.61736 0.61736,-0.61736 0.34175,0 0.61736,0.27561 0.61736,0.61736 z m 0,0"
       id="path277" />
    <path
       fill-rule="nonzero"
       fill="#231f20"
       fill-opacity="1"
       stroke-width="0.176389"
       stroke-linecap="butt"
       stroke-linejoin="miter"
       stroke="#231f20"
       stroke-opacity="1"
       stroke-miterlimit="4"
       d="m 95.841177,145.02061 c 0,0.34175 -0.275608,0.61736 -0.617362,0.61736 -0.340375,0 -0.617361,-0.27561 -0.617361,-0.61736 0,-0.34038 0.276986,-0.61736 0.617361,-0.61736 0.341754,0 0.617362,0.27698 0.617362,0.61736 z m 0,0"
       id="path278" />
    <path
       fill-rule="nonzero"
       fill="#231f20"
       fill-opacity="1"
       stroke-width="0.176389"
       stroke-linecap="butt"
       stroke-linejoin="miter"
       stroke="#231f20"
       stroke-opacity="1"
       stroke-miterlimit="4"
       d="m 104.76398,145.02061 c 0,0.34175 -0.27699,0.61736 -0.61737,0.61736 -0.34175,0 -0.61736,-0.27561 -0.61736,-0.61736 0,-0.34038 0.27561,-0.61736 0.61736,-0.61736 0.34038,0 0.61737,0.27698 0.61737,0.61736 z m 0,0"
       id="path279" />
    <path
       fill-rule="nonzero"
       fill="#231f20"
       fill-opacity="1"
       stroke-width="0.176389"
       stroke-linecap="butt"
       stroke-linejoin="miter"
       stroke="#231f20"
       stroke-opacity="1"
       stroke-miterlimit="4"
       d="m 113.6854,145.02061 c 0,0.34175 -0.27699,0.61736 -0.61737,0.61736 -0.34175,0 -0.61736,-0.27561 -0.61736,-0.61736 0,-0.34038 0.27561,-0.61736 0.61736,-0.61736 0.34038,0 0.61737,0.27698 0.61737,0.61736 z m 0,0"
       id="path280" />
    <path
       fill-rule="nonzero"
       fill="#231f20"
       fill-opacity="1"
       stroke-width="0.176389"
       stroke-linecap="butt"
       stroke-linejoin="miter"
       stroke="#231f20"
       stroke-opacity="1"
       stroke-miterlimit="4"
       d="m 122.60681,145.02061 c 0,0.34175 -0.27561,0.61736 -0.61736,0.61736 -0.34037,0 -0.61736,-0.27561 -0.61736,-0.61736 0,-0.34038 0.27699,-0.61736 0.61736,-0.61736 0.34175,0 0.61736,0.27698 0.61736,0.61736 z m 0,0"
       id="path281" />
    <path
       fill-rule="nonzero"
       fill="#231f20"
       fill-opacity="1"
       stroke-width="0.176389"
       stroke-linecap="butt"
       stroke-linejoin="miter"
       stroke="#231f20"
       stroke-opacity="1"
       stroke-miterlimit="4"
       d="m 95.841177,141.7078 c 0,0.34175 -0.275608,0.61736 -0.617362,0.61736 -0.340375,0 -0.617361,-0.27561 -0.617361,-0.61736 0,-0.34038 0.276986,-0.61736 0.617361,-0.61736 0.341754,0 0.617362,0.27698 0.617362,0.61736 z m 0,0"
       id="path282" />
    <path
       fill-rule="nonzero"
       fill="#231f20"
       fill-opacity="1"
       stroke-width="0.176389"
       stroke-linecap="butt"
       stroke-linejoin="miter"
       stroke="#231f20"
       stroke-opacity="1"
       stroke-miterlimit="4"
       d="m 104.76398,141.7078 c 0,0.34175 -0.27699,0.61736 -0.61737,0.61736 -0.34175,0 -0.61736,-0.27561 -0.61736,-0.61736 0,-0.34038 0.27561,-0.61736 0.61736,-0.61736 0.34038,0 0.61737,0.27698 0.61737,0.61736 z m 0,0"
       id="path283" />
    <path
       fill-rule="nonzero"
       fill="#231f20"
       fill-opacity="1"
       stroke-width="0.176389"
       stroke-linecap="butt"
       stroke-linejoin="miter"
       stroke="#231f20"
       stroke-opacity="1"
       stroke-miterlimit="4"
       d="m 113.6854,141.7078 c 0,0.34175 -0.27699,0.61736 -0.61737,0.61736 -0.34175,0 -0.61736,-0.27561 -0.61736,-0.61736 0,-0.34038 0.27561,-0.61736 0.61736,-0.61736 0.34038,0 0.61737,0.27698 0.61737,0.61736 z m 0,0"
       id="path284" />
    <path
       fill-rule="nonzero"
       fill="#231f20"
       fill-opacity="1"
       stroke-width="0.176389"
       stroke-linecap="butt"
       stroke-linejoin="miter"
       stroke="#231f20"
       stroke-opacity="1"
       stroke-miterlimit="4"
       d="m 122.60681,141.7078 c 0,0.34175 -0.27561,0.61736 -0.61736,0.61736 -0.34037,0 -0.61736,-0.27561 -0.61736,-0.61736 0,-0.34038 0.27699,-0.61736 0.61736,-0.61736 0.34175,0 0.61736,0.27698 0.61736,0.61736 z m 0,0"
       id="path285" />
    <path
       fill-rule="nonzero"
       fill="#231f20"
       fill-opacity="1"
       stroke-width="0.176389"
       stroke-linecap="butt"
       stroke-linejoin="miter"
       stroke="#231f20"
       stroke-opacity="1"
       stroke-miterlimit="4"
       d="m 95.841177,138.39637 c 0,0.34038 -0.275608,0.61736 -0.617362,0.61736 -0.340375,0 -0.617361,-0.27698 -0.617361,-0.61736 0,-0.34175 0.276986,-0.61736 0.617361,-0.61736 0.341754,0 0.617362,0.27561 0.617362,0.61736 z m 0,0"
       id="path286" />
    <path
       fill-rule="nonzero"
       fill="#231f20"
       fill-opacity="1"
       stroke-width="0.176389"
       stroke-linecap="butt"
       stroke-linejoin="miter"
       stroke="#231f20"
       stroke-opacity="1"
       stroke-miterlimit="4"
       d="m 104.76398,138.39637 c 0,0.34038 -0.27699,0.61736 -0.61737,0.61736 -0.34175,0 -0.61736,-0.27698 -0.61736,-0.61736 0,-0.34175 0.27561,-0.61736 0.61736,-0.61736 0.34038,0 0.61737,0.27561 0.61737,0.61736 z m 0,0"
       id="path287" />
    <path
       fill-rule="nonzero"
       fill="#231f20"
       fill-opacity="1"
       stroke-width="0.176389"
       stroke-linecap="butt"
       stroke-linejoin="miter"
       stroke="#231f20"
       stroke-opacity="1"
       stroke-miterlimit="4"
       d="m 113.6854,138.39637 c 0,0.34038 -0.27699,0.61736 -0.61737,0.61736 -0.34175,0 -0.61736,-0.27698 -0.61736,-0.61736 0,-0.34175 0.27561,-0.61736 0.61736,-0.61736 0.34038,0 0.61737,0.27561 0.61737,0.61736 z m 0,0"
       id="path288" />
    <path
       fill-rule="nonzero"
       fill="#231f20"
       fill-opacity="1"
       stroke-width="0.176389"
       stroke-linecap="butt"
       stroke-linejoin="miter"
       stroke="#231f20"
       stroke-opacity="1"
       stroke-miterlimit="4"
       d="m 122.60681,138.39637 c 0,0.34038 -0.27561,0.61736 -0.61736,0.61736 -0.34037,0 -0.61736,-0.27698 -0.61736,-0.61736 0,-0.34175 0.27699,-0.61736 0.61736,-0.61736 0.34175,0 0.61736,0.27561 0.61736,0.61736 z m 0,0"
       id="path289" />
    <path
       fill="none"
       stroke-width="0.176389"
       stroke-linecap="butt"
       stroke-linejoin="miter"
       stroke="#231f20"
       stroke-opacity="1"
       stroke-dasharray="4.3, 2.3"
       stroke-miterlimit="4"
       d="m 115.85581,156.82901 h -5.54109 v -20.36327 h 5.54109 z m 0,0"
       id="path290" />
  </g>
</svg>
