<?xml version="1.0" encoding="UTF-8" standalone="no"?>
<!-- Created with Inkscape (http://www.inkscape.org/) -->

<svg
   width="54.131157mm"
   height="29.352388mm"
   viewBox="0 0 54.131157 29.352388"
   version="1.1"
   id="svg1"
   inkscape:version="1.3.2 (091e20e, 2023-11-25)"
   sodipodi:docname="fig-1-10.svg"
   xmlns:inkscape="http://www.inkscape.org/namespaces/inkscape"
   xmlns:sodipodi="http://sodipodi.sourceforge.net/DTD/sodipodi-0.dtd"
   xmlns="http://www.w3.org/2000/svg"
   xmlns:svg="http://www.w3.org/2000/svg">
  <sodipodi:namedview
     id="namedview1"
     pagecolor="#ffffff"
     bordercolor="#000000"
     borderopacity="0.25"
     inkscape:showpageshadow="2"
     inkscape:pageopacity="0.0"
     inkscape:pagecheckerboard="0"
     inkscape:deskcolor="#d1d1d1"
     inkscape:document-units="mm"
     inkscape:zoom="0.2102413"
     inkscape:cx="102.26345"
     inkscape:cy="57.077272"
     inkscape:window-width="1312"
     inkscape:window-height="449"
     inkscape:window-x="0"
     inkscape:window-y="38"
     inkscape:window-maximized="0"
     inkscape:current-layer="layer1" />
  <defs
     id="defs1" />
  <g
     inkscape:label="Layer 1"
     inkscape:groupmode="layer"
     id="layer1"
     transform="translate(-77.996855,-133.92717)">
    <path
       fill="none"
       stroke-width="0.352778"
       stroke-linecap="butt"
       stroke-linejoin="miter"
       stroke="#231f20"
       stroke-opacity="1"
       stroke-miterlimit="4"
       d="m 106.11996,148.58146 c 0,5.13871 -5.65133,9.30452 -12.622829,9.30452 -6.971494,0 -12.622829,-4.16581 -12.622829,-9.30452 0,-5.1387 5.651335,-9.30451 12.622829,-9.30451 6.971499,0 12.622829,4.16581 12.622829,9.30451 z m 23.24475,0 c 0,6.41477 -5.19934,11.61549 -11.61411,11.61549 -6.41476,0 -11.61548,-5.20072 -11.61548,-11.61549 0,-6.41477 5.20072,-11.61548 11.61548,-11.61548 6.41477,0 11.61411,5.20071 11.61411,11.61548 z m 0,0 c 0,3.56637 -5.19934,6.45749 -11.61411,6.45749 -6.41476,0 -11.61548,-2.89112 -11.61548,-6.45749 0,-3.56636 5.20072,-6.45748 11.61548,-6.45748 6.41477,0 11.61411,2.89112 11.61411,6.45748 z m -48.490408,0 h 48.490408"
       id="path260" />
    <g
       fill="#231f20"
       fill-opacity="1"
       id="g262"
       transform="matrix(0.35277777,0,0,0.35277777,8.1993287,111.2821)">
      <g
         id="use261"
         transform="translate(198.25751,107.909)">
        <path
           d="m 2.9375,-5.34375 -2.3125,4 c -0.65625,1.125 -0.734375,1.140625 -1.03125,1.21875 V 0 h 1.5 v -0.125 c -0.375,-0.03125 -0.484375,-0.078125 -0.484375,-0.28125 0,-0.171875 0.046875,-0.28125 0.171875,-0.5 L 1.234375,-1.8125 h 1.75 l 0.171875,1.046875 c 0.015625,0.125 0.015625,0.234375 0.015625,0.234375 0,0.328125 -0.21875,0.375 -0.625,0.40625 V 0 h 1.96875 V -0.125 C 4.046875,-0.171875 4,-0.25 3.90625,-0.8125 l -0.75,-4.53125 z m -1.53125,3.25 1.1875,-2.078125 0.359375,2.078125 z m 0,0"
           id="path12" />
      </g>
      <g
         id="use262"
         transform="translate(345.77829,107.909)">
        <path
           d="M 5.21875,-3.71875 5.515625,-5.3125 H 5.34375 c -0.046875,0.078125 -0.09375,0.171875 -0.3125,0.171875 -0.1875,0 -0.671875,-0.1875 -1.25,-0.1875 -1.84375,0 -3.25,1.765625 -3.25,3.3125 0,1.59375 1.171875,2.15625 2.09375,2.15625 1.171875,0 1.875,-0.84375 2.171875,-1.1875 L 4.65625,-1.15625 c -0.375,0.375 -0.9375,0.9375 -1.84375,0.9375 -0.953125,0 -1.390625,-0.65625 -1.390625,-1.703125 0,-1.1875 0.8125,-3.125 2.421875,-3.125 1.140625,0 1.21875,1.078125 1.234375,1.296875 z m 0,0"
           id="path11" />
      </g>
    </g>
    <g
       fill="#231f20"
       fill-opacity="1"
       id="g263"
       transform="matrix(0.35277777,0,0,0.35277777,8.1993287,111.2821)">
      <g
         id="use263"
         transform="translate(308.53751,69.597)">
        <path
           d="M 3.78125,-1.84375 H 2.953125 v -3.5625 h -0.34375 l -2.515625,3.5625 v 0.5 h 2.25 V 0 H 2.953125 V -1.34375 H 3.78125 Z m -1.4375,0 H 0.421875 L 2.3125,-4.5625 h 0.03125 z m 0,0"
           id="path9" />
      </g>
    </g>
    <g
       fill="#231f20"
       fill-opacity="1"
       id="g264"
       transform="matrix(0.35277777,0,0,0.35277777,8.1993287,111.2821)">
      <g
         id="use264"
         transform="translate(239.7935,76.277)">
        <path
           d="m 0.9375,0 h 2.21875 v -0.125 c -0.609375,0 -0.765625,-0.078125 -0.765625,-0.46875 v -4.796875 l -0.0625,-0.015625 -1.4375,0.71875 v 0.125 C 1.34375,-4.75 1.34375,-4.75 1.4375,-4.75 c 0.265625,0 0.265625,0.21875 0.265625,0.375 v 3.625 c 0,0.59375 -0.296875,0.609375 -0.765625,0.625 z m 0,0"
           id="path8" />
      </g>
    </g>
    <g
       fill="#231f20"
       fill-opacity="1"
       id="g265"
       transform="matrix(0.35277777,0,0,0.35277777,8.1993287,111.2821)">
      <g
         id="use265"
         transform="translate(239.7935,102.725)">
        <path
           d="M 3.796875,-1.09375 3.703125,-1.140625 C 3.390625,-0.625 3.234375,-0.609375 2.9375,-0.609375 H 1.03125 L 2.375,-2.015625 c 0.34375,-0.375 1.015625,-1.109375 1.015625,-1.953125 0,-0.890625 -0.71875,-1.4375 -1.453125,-1.4375 -0.703125,0 -1.453125,0.375 -1.6875,1.59375 l 0.171875,0.03125 C 0.59375,-4.203125 0.828125,-4.8125 1.5625,-4.8125 c 0.9375,0 1.140625,0.734375 1.140625,1.140625 0,0.59375 -0.34375,1.3125 -1.046875,2.0625 L 0.234375,-0.09375 V 0 h 3.125 z m 0,0"
           id="path7" />
      </g>
    </g>
    <g
       fill="#231f20"
       fill-opacity="1"
       id="g266"
       transform="matrix(0.35277777,0,0,0.35277777,8.1993287,111.2821)">
      <g
         id="use266"
         transform="translate(239.7935,128.869)">
        <path
           d="m 1.21875,-2.640625 c 0.5625,-0.015625 0.75,0.03125 1.046875,0.171875 0.515625,0.265625 0.609375,0.859375 0.609375,1.0625 0,0.59375 -0.328125,1.234375 -1.078125,1.234375 -0.46875,0 -0.765625,-0.453125 -1.140625,-0.453125 -0.125,0 -0.3125,0.0625 -0.3125,0.28125 0,0.421875 0.703125,0.453125 0.890625,0.453125 1.25,0 2.21875,-0.703125 2.21875,-1.84375 0,-1.046875 -0.6875,-1.328125 -1.015625,-1.46875 0.515625,-0.34375 0.734375,-0.6875 0.734375,-1.125 0,-0.328125 -0.21875,-1.078125 -1.25,-1.078125 -0.53125,0 -1.234375,0.25 -1.5625,1.296875 l 0.125,0.03125 c 0.109375,-0.21875 0.453125,-0.84375 1.171875,-0.84375 0.59375,0 0.890625,0.421875 0.890625,0.828125 0,0.734375 -0.609375,1.125 -1.328125,1.34375 z m 0,0"
           id="path6" />
      </g>
    </g>
    <g
       fill="#231f20"
       fill-opacity="1"
       id="g267"
       transform="matrix(0.35277777,0,0,0.35277777,8.1993287,111.2821)">
      <g
         id="use267"
         transform="translate(308.53751,84.196999)">
        <path
           d="m 1.453125,-4.65625 h 1.5625 c 0.09375,0 0.15625,0 0.1875,-0.078125 L 3.5,-5.453125 3.4375,-5.5 c -0.09375,0.109375 -0.171875,0.203125 -0.375,0.203125 H 1.390625 l -0.875,1.890625 c -0.015625,0.0625 0,0.109375 0.046875,0.109375 0.875,0.03125 2.28125,0.40625 2.28125,1.6875 0,0.984375 -0.59375,1.421875 -1.109375,1.421875 -0.4375,0 -0.640625,-0.5 -1.15625,-0.5 C 0.25,-0.6875 0.25,-0.453125 0.25,-0.375 c 0,0.296875 0.375,0.484375 1.015625,0.484375 1.265625,0 2.140625,-0.84375 2.140625,-1.90625 C 3.40625,-2.515625 3.3125,-2.75 2.96875,-3.15625 2.5,-3.734375 1.75,-3.875 1.109375,-3.984375 Z m 0,0"
           id="path5" />
      </g>
    </g>
    <g
       fill="#231f20"
       fill-opacity="1"
       id="g268"
       transform="matrix(0.35277777,0,0,0.35277777,8.1993287,111.2821)">
      <g
         id="use268"
         transform="translate(308.53751,102.733)">
        <path
           d="m 3.5625,-5.46875 c -1.9375,0.0625 -3.296875,1.515625 -3.296875,3.140625 0,1.6875 0.828125,2.4375 1.765625,2.4375 1.421875,0 1.71875,-1.265625 1.71875,-1.859375 0,-1.0625 -0.625,-1.671875 -1.484375,-1.671875 -0.4375,0 -0.609375,0.09375 -1.046875,0.359375 0.15625,-0.984375 0.9375,-2.0625 2.359375,-2.28125 z m -1.625,2.40625 c 0.84375,0 1.09375,0.8125 1.09375,1.625 0,0.90625 -0.375,1.328125 -0.875,1.328125 -0.609375,0 -1.140625,-0.59375 -1.140625,-1.9375 0,-0.484375 0.078125,-0.671875 0.15625,-0.75 C 1.375,-2.984375 1.65625,-3.0625 1.9375,-3.0625 Z m 0,0"
           id="path4" />
      </g>
    </g>
    <g
       fill="#231f20"
       fill-opacity="1"
       id="g269"
       transform="matrix(0.35277777,0,0,0.35277777,8.1993287,111.2821)">
      <g
         id="use269"
         transform="translate(308.53751,120.813)">
        <path
           d="M 3.59375,-5.296875 H 0.625 L 0.5,-4.9375 0.15625,-4.125 0.296875,-4.0625 C 0.5625,-4.46875 0.703125,-4.703125 1.21875,-4.703125 H 2.953125 L 1.375,0.0625 H 1.890625 L 3.59375,-5.171875 Z m 0,0"
           id="path3" />
      </g>
    </g>
    <g
       fill="#231f20"
       fill-opacity="1"
       id="g270"
       transform="matrix(0.35277777,0,0,0.35277777,8.1993287,111.2821)">
      <g
         id="use270"
         transform="translate(308.53751,147.285)">
        <path
           d="m 1.703125,-2.5 c 0.90625,0.65625 1.25,0.90625 1.25,1.484375 0,0.5625 -0.375,0.90625 -0.875,0.90625 C 1.421875,-0.109375 1.0625,-0.625 1.0625,-1.25 c 0,-0.71875 0.375,-1.03125 0.640625,-1.25 z m -1.25,1.328125 c 0,0.625 0.515625,1.28125 1.515625,1.28125 1.328125,0 1.59375,-0.890625 1.59375,-1.3125 0,-0.53125 -0.171875,-1 -1.25,-1.765625 0.4375,-0.234375 1.078125,-0.5625 1.078125,-1.296875 0,-0.609375 -0.5,-1.140625 -1.40625,-1.140625 -0.6875,0 -1.484375,0.4375 -1.484375,1.234375 0,0.65625 0.3125,0.921875 0.984375,1.515625 -0.703125,0.546875 -1.03125,0.796875 -1.03125,1.484375 z M 1.09375,-4.375 c 0,-0.390625 0.25,-0.8125 0.84375,-0.8125 0.625,0 0.90625,0.4375 0.90625,0.875 0,0.703125 -0.453125,1 -0.75,1.203125 -0.296875,-0.1875 -1,-0.640625 -1,-1.265625 z m 0,0"
           id="path1" />
      </g>
    </g>
    <g
       fill="#231f20"
       fill-opacity="1"
       id="g271"
       transform="matrix(0.35277777,0,0,0.35277777,8.1993287,111.2821)">
      <g
         id="use271"
         transform="translate(275.16949,90.084999)">
        <path
           d="m -0.0625,0 h 2.25 c 1.03125,0 2.125,-0.5 2.125,-1.59375 0,-0.78125 -0.5625,-1.015625 -0.984375,-1.203125 V -2.8125 c 0.75,-0.15625 1.375,-0.5 1.375,-1.21875 0,-0.921875 -0.765625,-1.1875 -1.59375,-1.1875 h -2.0625 v 0.125 c 0.375,0.015625 0.609375,0.046875 0.609375,0.34375 0,0.140625 -0.046875,0.3125 -0.09375,0.5 l -0.984375,3.53125 c -0.125,0.5 -0.25,0.515625 -0.640625,0.59375 z M 1.375,-0.59375 c 0,-0.15625 0.40625,-1.546875 0.53125,-2.046875 0.546875,0 0.90625,0.015625 1.109375,0.140625 0.234375,0.140625 0.4375,0.421875 0.4375,0.84375 0,0.78125 -0.46875,1.421875 -1.59375,1.421875 C 1.625,-0.234375 1.375,-0.296875 1.375,-0.59375 Z M 2.5,-4.765625 C 2.53125,-4.875 2.5625,-4.984375 3,-4.984375 c 0.59375,0 0.890625,0.28125 0.890625,0.828125 0,1.25 -1.140625,1.28125 -1.90625,1.25 z m 0,0"
           id="path10" />
      </g>
    </g>
  </g>
</svg>
